<svg xmlns="http://www.w3.org/2000/svg" width="2634" height="556" fill="none"><path fill="#2F2625" d="M649.76 330.406c13.62-9.594 29.768-19.187 29.768-38.865 0-20.689-16.148-28.274-29.768-39.876C628.052 239.052 622 225.919 622 205.23V64.393h288.147v69.162H699.215v395.754H622V376.87c0-20.689 6.052-33.317 27.76-46.435v-.029Zm72.665-43.401c0-22.207 17.665-33.317 37.337-33.317h122.624v67.139H759.762c-19.687 0-37.337-12.613-37.337-33.822Zm298.225 242.289h-74.684v-464.9h74.684v464.9Zm308.83-107.52c-13.11 33.822-38.34 56.534-81.75 56.534-49.45 0-89.31-32.305-94.36-104.487h258.87v-27.768c0-115.091-67.11-179.702-162.99-179.702-95.88 0-174.1 65.622-174.1 188.284 0 122.661 78.21 184.744 172.58 184.744 78.21 0 137.76-44.919 156.95-117.62h-75.2v.015Zm-81.75-195.855c49.46 0 83.27 33.823 87.81 91.874h-180.66c9.59-62.588 46.92-91.874 92.85-91.874Zm257.37 179.196c23.21-31.799 50.97-46.941 88.31-46.941 35.33 0 63.58 14.636 85.79 45.424l90.33 125.696h-84.78l-91.85-133.772-92.35 133.772h-84.78l89.32-124.179h.01Zm-7.57-121.144-76.71-108.027h85.8l86.79 127.199 85.29-127.199h84.78l-75.7 106.004c-31.28 43.921-59.04 55.017-94.37 55.017-37.34 0-67.63-13.118-95.88-53.009v.015Zm317.41-219.578h75.19v77.729h-75.19V64.393Zm0 111.551h75.19v353.35h-75.19v-353.35Zm127.16 238.259c0-16.153 7.06-23.218 22.71-32.811 17.16-7.571 26.75-13.624 26.75-28.274s-9.59-22.712-26.75-31.294c-15.65-7.571-22.71-15.647-22.71-30.283 0-33.316 49.46-125.19 163-125.19 113.54 0 162.99 91.874 162.99 125.19 0 14.636-6.05 22.712-23.72 30.283-16.14 8.582-27.25 16.658-27.25 31.294 0 14.635 11.11 20.703 27.25 28.274 17.67 9.593 23.72 16.658 23.72 32.811 0 33.822-49.45 125.19-162.99 125.19s-163-91.368-163-125.19Zm257.37-61.071c0-82.28-37.84-125.696-94.36-125.696-56.52 0-93.87 43.416-93.87 125.696s38.35 123.168 93.87 123.168 94.36-41.393 94.36-123.168Zm281.07-123.673c-49.46 0-84.28 35.339-84.28 95.905v203.93h-75.19v-353.35h68.63l3.04 59.569c19.18-43.416 59.04-69.162 113.54-69.162 83.26 0 127.66 54.512 127.66 141.849v221.094h-76.2V320.827c0-57.546-27.76-91.368-77.22-91.368h.02ZM6.906 532.628C-7.14 509.645.962 479.584 24.658 466.772l11.928-6.446c52.04-31.809 51.017-20.403 89.171-7.28 23.555 8.726 37.22 11.587 51.508 2.852 16.326-9.98 16.376-28.234 7.029-43.536l-11.848-19.388c-5.613-9.188-3.635-17.401 5.552-23.014l154.495-97.654 50.524 82.654L71.779 548.05c-22.16 13.746-51.278 6.828-64.873-15.422Z"/><path fill="#2F2625" d="M48.514.015C75.444-.658 97.422 21.391 96.67 48.31l-.382 13.555c1.527 60.977-7.841 54.38-38.284 80.867-19.339 16.035-28.646 26.437-28.224 43.175.482 19.127 16.265 28.304 34.198 27.852l22.712-.572c10.763-.271 16.888 5.562 17.159 16.316l7.32 182.628-96.842 2.43L2.72 48.481C1.896 22.416 22.45.668 48.514.015Z"/><path fill="#2F2625" d="M488.965 302.347c-12.882 23.656-42.964 31.668-65.906 17.551l-11.547-7.108c-53.566-29.158-43.175-33.988-50.896-73.588-4.217-24.76-8.574-38.024-23.274-46.036-16.808-9.147-32.642-.07-41.216 15.683l-10.864 19.961c-5.151 9.458-13.254 11.848-22.712 6.697l-161.824-84.973 46.317-85.084 322.845 172.989c22.983 12.32 31.548 40.996 19.077 63.888v.02Z"/></svg>