<svg viewbox="0 0 915 113" fill="none" xmlns="http://www.w3.org/2000/svg" class="h-3 w-auto text-coral" aria-hidden="true"><path d="M0 56.25C0 48.6673 1.34541 41.4982 4.03623 34.7426C6.72704 27.9871 10.6216 22.0588 15.72 16.9577C20.8184 11.8566 26.9789 7.78952 34.2016 4.75643C41.4244 1.72334 49.5676 0.206798 58.6314 0.206798C70.8109 0.206798 81.1492 2.75736 89.6465 7.85846C98.2855 12.9596 104.729 19.6461 108.978 27.9182L81.1492 36.1903C78.7417 32.1921 75.5552 29.159 71.5898 27.091C67.6244 24.8851 63.2341 23.7822 58.4189 23.7822C54.3119 23.7822 50.4881 24.6094 46.9476 26.2638C43.4071 27.7803 40.2914 29.9862 37.6006 32.8814C35.0514 35.6388 32.9979 39.0166 31.44 43.0147C30.0238 47.0129 29.3157 51.4246 29.3157 56.25C29.3157 61.0754 30.0946 65.4871 31.6525 69.4853C33.2103 73.4835 35.2638 76.9301 37.813 79.8254C40.5038 82.7206 43.6195 84.9954 47.16 86.6498C50.7006 88.1664 54.4535 88.9246 58.4189 88.9246C63.5173 88.9246 68.1908 87.6838 72.4395 85.2022C76.8298 82.7206 79.8747 79.6875 81.5741 76.1029L109.403 84.375C105.579 92.6471 99.2768 99.4026 90.4963 104.642C81.7157 109.881 71.1649 112.5 58.8438 112.5C49.78 112.5 41.6368 110.983 34.4141 107.95C27.1914 104.917 21.0308 100.85 15.9324 95.7491C10.8341 90.5101 6.86866 84.5129 4.03623 77.7573C1.34541 70.864 0 63.6949 0 56.25Z" fill="currentColor"></path><path d="M179.207 112.5C170.143 112.5 162 110.983 154.777 107.95C147.554 104.917 141.394 100.85 136.295 95.7491C131.339 90.5101 127.515 84.5129 124.824 77.7573C122.133 71.0018 120.788 63.9016 120.788 56.4568C120.788 48.8741 122.133 41.705 124.824 34.9494C127.515 28.1939 131.339 22.2656 136.295 17.1645C141.394 11.9255 147.554 7.78952 154.777 4.75643C162 1.72334 170.143 0.206798 179.207 0.206798C188.271 0.206798 196.343 1.72334 203.424 4.75643C210.647 7.78952 216.737 11.9255 221.693 17.1645C226.792 22.2656 230.686 28.1939 233.377 34.9494C236.068 41.705 237.413 48.8741 237.413 56.4568C237.413 63.9016 236.068 71.0018 233.377 77.7573C230.686 84.5129 226.862 90.5101 221.906 95.7491C216.949 100.85 210.859 104.917 203.637 107.95C196.414 110.983 188.271 112.5 179.207 112.5ZM150.104 56.4568C150.104 61.2822 150.812 65.6939 152.228 69.6921C153.786 73.5524 155.839 76.9301 158.388 79.8254C161.079 82.7206 164.195 84.9954 167.735 86.6498C171.276 88.1664 175.1 88.9246 179.207 88.9246C183.314 88.9246 187.138 88.1664 190.678 86.6498C194.219 84.9954 197.264 82.7206 199.813 79.8254C202.504 76.9301 204.557 73.4835 205.973 69.4853C207.531 65.4871 208.31 61.0754 208.31 56.25C208.31 51.5625 207.531 47.2197 205.973 43.2215C204.557 39.2234 202.504 35.7767 199.813 32.8814C197.264 29.9862 194.219 27.7803 190.678 26.2638C187.138 24.6094 183.314 23.7822 179.207 23.7822C175.1 23.7822 171.276 24.6094 167.735 26.2638C164.195 27.9182 161.079 30.193 158.388 33.0882C155.839 35.9835 153.786 39.4301 152.228 43.4283C150.812 47.4265 150.104 51.7693 150.104 56.4568Z" fill="currentColor"></path><path d="M361.786 110.432H333.32V49.6323C333.32 40.9467 331.762 34.6048 328.646 30.6066C325.531 26.6085 321.211 24.6094 315.688 24.6094C312.856 24.6094 309.952 25.1609 306.978 26.2638C304.004 27.3667 301.172 28.9522 298.481 31.0202C295.932 32.9504 293.595 35.2941 291.471 38.0515C289.346 40.8088 287.789 43.8419 286.797 47.1507V110.432H258.331V2.06801H284.036V22.1278C288.143 15.2344 294.091 9.85754 301.88 5.99725C309.669 2.13695 318.45 0.206798 328.222 0.206798C335.161 0.206798 340.826 1.44761 345.216 3.92922C349.606 6.41085 353.005 9.65074 355.413 13.6489C357.821 17.6471 359.449 22.1967 360.299 27.2978C361.29 32.3989 361.786 37.5689 361.786 42.8079V110.432Z" fill="currentColor"></path><path d="M416.116 110.432L375.116 2.06801H404.432L432.685 87.8906L461.151 2.06801H487.918L446.918 110.432H416.116Z" fill="currentColor"></path><path d="M504.056 110.432V2.06801H532.522V110.432H504.056Z" fill="currentColor"></path><path d="M611.532 112.5C602.468 112.5 594.325 110.983 587.102 107.95C579.879 104.917 573.719 100.85 568.621 95.7491C563.664 90.5101 559.84 84.5129 557.149 77.7573C554.458 71.0018 553.113 63.9016 553.113 56.4568C553.113 48.8741 554.458 41.705 557.149 34.9494C559.84 28.1939 563.664 22.2656 568.621 17.1645C573.719 11.9255 579.879 7.78952 587.102 4.75643C594.325 1.72334 602.468 0.206798 611.532 0.206798C620.596 0.206798 628.668 1.72334 635.749 4.75643C642.972 7.78952 649.062 11.9255 654.018 17.1645C659.117 22.2656 663.011 28.1939 665.702 34.9494C668.393 41.705 669.738 48.8741 669.738 56.4568C669.738 63.9016 668.393 71.0018 665.702 77.7573C663.011 84.5129 659.188 90.5101 654.231 95.7491C649.274 100.85 643.184 104.917 635.962 107.95C628.739 110.983 620.596 112.5 611.532 112.5ZM582.429 56.4568C582.429 61.2822 583.137 65.6939 584.553 69.6921C586.111 73.5524 588.164 76.9301 590.714 79.8254C593.404 82.7206 596.52 84.9954 600.061 86.6498C603.601 88.1664 607.425 88.9246 611.532 88.9246C615.639 88.9246 619.463 88.1664 623.003 86.6498C626.544 84.9954 629.589 82.7206 632.138 79.8254C634.829 76.9301 636.882 73.4835 638.298 69.4853C639.856 65.4871 640.635 61.0754 640.635 56.25C640.635 51.5625 639.856 47.2197 638.298 43.2215C636.882 39.2234 634.829 35.7767 632.138 32.8814C629.589 29.9862 626.544 27.7803 623.003 26.2638C619.463 24.6094 615.639 23.7822 611.532 23.7822C607.425 23.7822 603.601 24.6094 600.061 26.2638C596.52 27.9182 593.404 30.193 590.714 33.0882C588.164 35.9835 586.111 39.4301 584.553 43.4283C583.137 47.4265 582.429 51.7693 582.429 56.4568Z" fill="currentColor"></path><path d="M724.646 112.5C713.174 112.5 704.465 108.915 698.516 101.746C692.568 94.5772 689.594 83.9614 689.594 69.8989V2.06801H718.06V63.9017C718.06 80.5836 724.221 88.9246 736.542 88.9246C742.207 88.9246 747.588 87.3391 752.687 84.1682C757.927 80.8594 762.175 75.8961 765.433 69.2785V2.06801H793.899V78.5846C793.899 81.4798 794.465 83.5478 795.598 84.7886C796.731 86.0294 798.714 86.7187 801.546 86.8566V110.432C798.572 110.983 795.952 111.328 793.686 111.466C791.42 111.742 789.438 111.88 787.738 111.88C782.64 111.88 778.604 110.777 775.629 108.571C772.797 106.227 771.027 103.056 770.319 99.0579L769.681 90.1654C764.583 97.6103 758.139 103.194 750.35 106.916C742.702 110.639 734.134 112.5 724.646 112.5Z" fill="currentColor"></path><path d="M868.902 112.5C864.37 112.5 859.626 112.155 854.669 111.466C849.854 110.777 845.11 109.812 840.436 108.571C835.763 107.33 831.301 105.813 827.053 104.021C822.804 102.229 819.051 100.23 815.794 98.0239L827.265 79.205C841.428 88.1664 855.094 92.6471 868.265 92.6471C874.213 92.6471 878.886 91.613 882.285 89.545C885.684 87.477 887.384 84.5129 887.384 80.6526C887.384 76.7923 885.33 73.966 881.223 72.1737C877.258 70.2436 870.531 68.1756 861.042 65.9697C853.819 64.3153 847.659 62.5919 842.56 60.7996C837.462 59.0074 833.355 56.9393 830.239 54.5956C827.124 52.2518 824.858 49.5634 823.442 46.5303C822.025 43.4972 821.317 39.9127 821.317 35.7766C821.317 30.2619 822.45 25.2987 824.716 20.8869C826.982 16.4752 830.098 12.7528 834.063 9.71968C838.17 6.54872 842.915 4.13603 848.296 2.48162C853.819 0.827208 859.768 0 866.141 0C874.071 0 881.931 1.24081 889.72 3.72243C897.651 6.06618 905.016 9.30607 911.814 13.4421L900.13 30.6066C893.898 26.7463 888.021 23.989 882.498 22.3346C876.975 20.5423 871.451 19.6461 865.928 19.6461C860.83 19.6461 856.51 20.6112 852.97 22.5414C849.571 24.4715 847.871 27.5735 847.871 31.8474C847.871 35.5699 849.5 38.2583 852.757 39.9127C856.156 41.5671 862.104 43.4283 870.602 45.4963C878.532 47.4265 885.259 49.3566 890.783 51.2868C896.448 53.2169 901.05 55.4228 904.591 57.9044C908.273 60.386 910.893 63.2812 912.451 66.5901C914.15 69.761 915 73.6213 915 78.171C915 83.4099 913.867 88.1664 911.601 92.4403C909.477 96.7142 906.432 100.368 902.466 103.401C898.501 106.296 893.615 108.571 887.809 110.225C882.144 111.742 875.841 112.5 868.902 112.5Z" fill="currentColor"></path></svg>