<svg xmlns="http://www.w3.org/2000/svg" width="35" height="34" fill="none"><path fill="#000" d="M17.175 34C7.705 34 0 26.374 0 17 0 7.628 7.705 0 17.175 0S34.35 7.626 34.35 17c0 9.375-7.704 17-17.175 17m0-31.244c-7.935 0-14.392 6.39-14.392 14.245S9.24 31.245 17.175 31.245s14.392-6.39 14.392-14.244S25.11 2.756 17.175 2.756"/><path fill="#000" d="M12.057 15.422a5.365 5.365 0 0 1 5.117-3.738 5.365 5.365 0 0 1 5.117 3.738h2.702c-.741-3.605-3.961-6.328-7.819-6.328s-7.077 2.723-7.82 6.328zm10.238 3.145a5.365 5.365 0 0 1-5.121 3.75 5.37 5.37 0 0 1-5.121-3.75h-2.7c.737 3.61 3.96 6.34 7.82 6.34 3.862 0 7.085-2.73 7.823-6.34z"/></svg>