<?xml version="1.0" encoding="UTF-8"?>
<svg width="154px" height="30px" viewBox="0 0 154 30" version="1.1" xmlns="http://www.w3.org/2000/svg" xmlns:xlink="http://www.w3.org/1999/xlink">
    <!-- Generator: Sketch 59.1 (86144) - https://sketch.com -->
    <title>Fill 1</title>
    <desc>Created with Sketch.</desc>
    <g id="Page-1" stroke="none" stroke-width="1" fill="none" fill-rule="evenodd">
        <path d="M154.00879,28.0224488 C154.033549,27.7465642 153.863774,27.4901329 153.600269,27.4070138 L152.572775,27.0869168 C151.854768,26.8764663 151.600105,26.0293588 151.600105,25.0142446 L151.600105,1.54282424 L151.600105,1.54282424 L151.600105,0.603755201 C151.600105,0.204076101 151.209268,-0.0771140622 150.830811,0.0449118577 L143.134336,2.54909595 C142.911506,2.62160411 142.752341,2.82144366 142.731119,3.05311606 L142.672759,3.67739359 C142.653306,3.91260297 142.773563,4.13366442 142.978708,4.24861637 L144.202504,4.90826374 C144.794949,5.29025792 145.175175,5.79604652 145.175175,6.81116069 L145.175175,9.26405853 L145.175175,9.26405853 L145.175175,9.7114869 L145.132731,9.7114869 C144.204273,9.5434802 143.231603,9.46036109 142.471151,9.46036109 C135.28577,9.46036109 131.143963,14.5306265 131.143963,20.6619868 C131.143963,25.8595836 134.102649,29.8316157 138.92002,29.8316157 C141.118255,29.8316157 143.611828,28.4787197 145.047843,26.7473664 L145.175175,26.7473664 L145.175175,29.2214861 C145.175175,29.569879 145.477587,29.8422267 145.824211,29.8050884 L153.44641,28.9968877 C153.724063,28.9650549 153.943356,28.7439934 153.968115,28.4645717 L154.00879,28.0224488 Z M145.175175,24.3439863 C145.175175,24.526141 145.093824,24.7029901 144.948808,24.8108681 C144.112311,25.4422196 143.160863,25.9020274 142.386264,25.9020274 C139.850247,25.9020274 138.032237,22.9415725 138.032237,18.62999 C138.032237,13.9823941 139.554909,11.5737085 141.371149,11.5737085 C142.439318,11.5737085 143.465043,12.1307834 145.033695,13.9823941 C145.123889,14.0885036 145.175175,14.2299829 145.175175,14.3679253 L145.175175,24.3439863 Z M131.143963,12.9000772 C131.143963,10.8698489 130.005054,9.67081159 128.271932,9.47804601 C128.153443,9.46389808 127.127718,9.35955707 125.951671,9.96791818 C124.609386,10.6417135 123.313082,11.8637412 122.068064,13.1317496 L121.89652,13.0840004 L121.89652,10.0227414 C121.89652,9.63721025 121.525137,9.35248311 121.150217,9.46036109 L113.476732,11.6267633 C113.230911,11.6957345 113.057599,11.9167959 113.050525,12.1749957 L113.050525,12.83818 C113.057599,13.0946113 113.230911,13.3156728 113.476732,13.3846439 L113.726089,13.4571521 C115.101975,13.8709791 115.47159,14.2812692 115.47159,16.9004052 L115.47159,26.5333789 C115.47159,27.040936 115.048921,27.2513865 114.033806,27.3380426 L113.761459,27.3698754 C113.4785,27.3999398 113.259207,27.6280752 113.239754,27.9128024 L113.190236,28.613125 C113.167245,28.9509069 113.436056,29.2409396 113.777375,29.2409396 L124.225623,29.2409396 C124.565174,29.2409396 124.835753,28.9509069 124.810994,28.613125 L124.763245,27.9322558 C124.743791,27.6386862 124.510351,27.4070138 124.218549,27.3875604 L123.50231,27.3380426 C122.149414,27.2107112 121.89652,27.0002607 121.89652,26.5793597 L121.89652,15.9507252 C121.89652,15.7225898 121.908899,15.4467051 122.098128,15.262782 C123.152149,14.4103691 123.544754,14.1786967 124.563405,13.7577957 C124.848132,13.6357697 125.161155,13.7666381 125.304403,14.0301434 C125.304403,14.0301434 125.520159,14.4103691 125.606815,14.5341635 C126.206334,15.4077983 127.039294,15.9914005 128.424022,15.9914005 C130.031581,15.9914005 131.143963,14.5058676 131.143963,12.9000772 L131.143963,12.9000772 Z M112.69329,26.4856297 C112.824158,26.3087805 112.838306,26.0735711 112.741039,25.8772685 L112.588949,25.573088 C112.426247,25.249454 112.010652,25.145113 111.718851,25.3591005 C111.172387,25.7640851 110.684283,26.0293588 110.365955,26.0293588 C109.435728,26.0293588 109.181065,25.6049208 109.265953,24.0433428 L109.561291,17.2806309 C109.815954,11.2359267 106.560161,9.2905859 102.418354,9.2905859 C96.8829749,9.2905859 91.7260534,12.5852857 91.7260534,15.4626216 C91.7260534,16.8561929 92.9516181,17.8288633 94.642296,17.8288633 C96.2905302,17.8288633 97.3887635,16.4759672 97.3887635,15.4626216 C97.3887635,13.899275 96.2056426,13.0946113 96.2056426,12.9248361 C96.2056426,12.7550609 97.4736511,12.2917161 98.9114348,12.2917161 C101.785234,12.2917161 103.263693,14.3608513 103.180573,16.9410805 L103.180573,17.2346501 C95.6149664,19.266647 91.8940601,21.3799944 91.8940601,24.8869133 C91.8940601,28.2258254 94.3876333,29.8740595 97.2207568,29.8740595 C99.6718861,29.8740595 101.32012,28.3089445 103.053242,26.0700341 L103.263693,26.0700341 C103.391024,28.9862768 105.461928,30.0013909 107.152606,30.0013909 C109.037818,30.0013909 111.342162,28.2877226 112.69329,26.4856297 L112.69329,26.4856297 Z M103.076232,19.7529822 L102.971891,24.0150469 C102.968354,24.1565262 102.917068,24.2891631 102.826875,24.3917356 C102.358225,24.9346625 101.374944,25.6491331 100.389894,25.6491331 C98.9945539,25.6491331 97.7265454,24.9718008 97.7265454,23.3660105 C97.7265454,21.8221173 98.5435885,20.4621473 102.294559,19.1870649 C102.681859,19.0526595 103.085075,19.3462291 103.076232,19.7529822 L103.076232,19.7529822 Z M91.2803935,28.613125 L91.2308758,27.9145709 C91.2114224,27.6316122 90.9903609,27.3999398 90.7074023,27.3698754 L90.3943792,27.3380426 C89.0414832,27.2107112 88.7885889,27.0002607 88.7885889,26.5793597 L88.7885889,24.0362688 L88.7832834,24.0362688 L88.7832834,15.885291 C88.7832834,13.6021684 88.2332825,11.9539342 87.1757245,10.8963763 C86.1199351,9.84058679 84.767039,9.24991059 83.4565867,9.24991059 C81.090345,9.24991059 78.8496661,10.5585944 76.356093,12.5039351 L76.143874,12.5039351 L76.143874,0.589607268 C76.143874,0.189928168 75.7548058,-0.0930304865 75.3763486,0.0307639249 L67.6781047,2.53494802 C67.4552748,2.60745617 67.2961106,2.80729572 67.2748887,3.03896812 L67.2182969,3.66501415 C67.197075,3.89845504 67.3173325,4.12305347 67.524246,4.23446844 L68.7480422,4.8941158 C69.3404868,5.27787848 69.7207125,5.78189858 69.7207125,6.79701276 L69.7207125,26.5333789 C69.7207125,27.040936 69.298043,27.2513865 68.2829289,27.3380426 L67.930999,27.3734124 C67.6462719,27.3999398 67.423442,27.6316122 67.4022201,27.9145709 L67.3544708,28.613125 C67.3314804,28.9509069 67.6002911,29.2409396 67.9398415,29.2409396 L78.0503079,29.2409396 C78.3916268,29.2409396 78.6604375,28.9509069 78.6374471,28.613125 L78.5879294,27.9145709 C78.568476,27.6316122 78.3474145,27.3999398 78.0644559,27.3698754 L77.7514328,27.3380426 C76.3985368,27.2107112 76.143874,27.0002607 76.143874,26.5793597 L76.143874,14.9214631 C76.143874,14.7216236 76.244678,14.5270895 76.4197587,14.424517 C76.989213,14.0955776 78.043234,13.7701751 78.8921099,13.7701751 C81.090345,13.7701751 82.3583534,14.5306265 82.3583534,18.7590899 L82.3583534,26.5333789 C82.3583534,26.5439899 82.3583534,26.5581378 82.3601219,26.5652118 C82.3406685,27.04801 81.917999,27.2549235 80.9258753,27.3380426 L80.5739454,27.3734124 C80.2892183,27.3999398 80.0663883,27.6316122 80.0469349,27.9145709 L79.9974172,28.613125 C79.9744268,28.9509069 80.2432375,29.2409396 80.5827879,29.2409396 L80.8728205,29.2409396 L90.6897173,29.2409396 L90.6950228,29.2409396 C91.0345732,29.2409396 91.3033839,28.9509069 91.2803935,28.613125 L91.2803935,28.613125 Z M67.1351778,23.6631171 C67.2253709,23.3943063 67.099808,23.1007367 66.8539877,22.9663314 L66.6912864,22.8796753 C66.4436976,22.7452699 66.1412855,22.8107041 65.9591309,23.0246916 C64.5584856,24.6711573 62.7404762,25.7322522 60.8128204,25.7322522 C57.5163521,25.7322522 55.530336,22.731122 55.530336,18.209089 C55.530336,13.5597246 57.4314645,11.4463772 59.7145871,11.4463772 C60.1372566,11.4463772 60.6448137,11.5737085 60.8552642,11.7010399 L60.8552642,11.7434837 C60.3052633,14.0672817 61.4477089,16.73063 63.8139506,16.73063 C65.5470724,16.73063 66.8981999,15.8428473 66.8981999,13.8126189 C66.8981999,11.0254762 64.2790639,9.24991059 59.7977062,9.24991059 C53.2047696,9.24991059 48.6827365,13.9823941 48.6827365,20.2375489 C48.6827365,26.2398093 52.9094315,29.8740595 58.0239091,29.8740595 C62.6644311,29.8740595 65.8141146,27.6386862 67.1351778,23.6631171 L67.1351778,23.6631171 Z M48.6827365,12.9000772 C48.6827365,10.8698489 47.5455965,9.67081159 45.8107062,9.47804601 C45.6922173,9.46389808 44.6664921,9.35955707 43.4904452,9.96791818 C42.1499286,10.6417135 40.8518558,11.8637412 39.6068377,13.1317496 L39.435294,13.0840004 L39.435294,10.0227414 C39.435294,9.63721025 39.0639108,9.35248311 38.6889906,9.46036109 L31.017274,11.6267633 C30.7696852,11.6957345 30.596373,11.9167959 30.5892991,12.1714587 L30.5892991,12.83818 C30.596373,13.0946113 30.7696852,13.3156728 31.017274,13.3846439 L31.2648629,13.4571521 C32.6407493,13.8709791 33.0103641,14.2812692 33.0103641,16.9004052 L33.0103641,26.5333789 C33.0103641,27.040936 32.5876946,27.2513865 31.5743489,27.3380426 L31.3002327,27.3698754 C31.017274,27.3999398 30.7979811,27.6280752 30.7785277,27.9128024 L30.7307784,28.613125 C30.7060195,28.9509069 30.9748302,29.2409396 31.3161491,29.2409396 L41.7643974,29.2409396 C42.1039478,29.2409396 42.374527,28.9509069 42.3497682,28.613125 L42.3037874,27.9322558 C42.2825655,27.6386862 42.0491246,27.4070138 41.7573235,27.3875604 L41.0410844,27.3380426 C39.6881883,27.2107112 39.435294,27.0002607 39.435294,26.5793597 L39.435294,15.9507252 C39.435294,15.7225898 39.4494419,15.4467051 39.6369021,15.259245 C40.690923,14.4103691 41.0835282,14.1786967 42.1021793,13.7577957 C42.3869065,13.6357697 42.701698,13.7666381 42.8431773,14.0301434 C42.8431773,14.0301434 43.0589333,14.4103691 43.1455894,14.5341635 C43.745108,15.4077983 44.5780676,15.9914005 45.9627965,15.9914005 C47.5703553,15.9914005 48.6827365,14.5058676 48.6827365,12.9000772 L48.6827365,12.9000772 Z M29.4167891,15.8428473 C29.4167891,7.64412023 23.9645296,2.23430445 14.8780198,2.23430445 C6.93218704,2.23430445 -0.0003,7.64412023 -0.0003,16.306192 C-0.0003,24.4642438 5.49440338,29.9147348 14.5826817,29.9147348 C22.5285144,29.9147348 29.4167891,24.5066876 29.4167891,15.8428473 L29.4167891,15.8428473 Z M21.7256192,16.3504043 C21.7256192,23.9991305 18.7669328,27.5909369 14.8780198,27.5909369 C10.8617754,27.5909369 7.69263843,23.6595801 7.69263843,15.798635 C7.69263843,8.15167732 10.6937687,4.5581024 14.5826817,4.5581024 C18.5971576,4.5581024 21.7256192,8.44524692 21.7256192,16.3504043 L21.7256192,16.3504043 Z" id="Fill-1" fill="#32314B"></path>
    </g>
</svg>