<?xml version="1.0" encoding="UTF-8" standalone="no"?> <svg xmlns:inkscape="http://www.inkscape.org/namespaces/inkscape" xmlns:sodipodi="http://sodipodi.sourceforge.net/DTD/sodipodi-0.dtd" xmlns="http://www.w3.org/2000/svg" xmlns:svg="http://www.w3.org/2000/svg" version="1.1" id="svg2" width="332.89334" height="117.33333" viewBox="0 0 332.89334 117.33333"><defs id="defs6"></defs><g id="g8" transform="matrix(1.3333333,0,0,-1.3333333,0,117.33333)"><g id="g10" transform="scale(0.1)"><path d="m 120.785,123.738 v 71.45 h 54.07 c 32.825,0 51.165,9.656 51.165,67.585 v 375.555 c 0,41.527 -11.582,54.067 -61.786,54.067 H 120.785 V 763.84 H 757.992 V 508.953 H 686.547 C 672.066,640.266 660.484,692.395 531.109,692.395 H 361.188 V 491.582 h 51.171 c 57.922,0 83.989,28.965 83.989,107.156 v 12.563 h 71.445 V 288.84 h -71.445 v 23.164 c 0,78.199 -26.067,108.133 -83.989,108.133 H 361.188 V 195.188 h 193.093 c 88.821,0 123.586,55.027 132.266,198.882 h 71.445 V 123.738 H 120.785" style="fill:#155196;fill-opacity:1;fill-rule:nonzero;stroke:none" id="path12"></path><path d="m 832.309,123.738 v 63.723 h 47.296 c 27.051,0 38.633,10.625 38.633,38.625 v 435.418 c 0,28 -11.582,38.613 -38.633,38.613 H 832.309 V 763.84 H 1032.16 V 226.086 c 0,-28 11.59,-38.625 38.62,-38.625 h 45.37 V 123.738 H 832.309" style="fill:#155196;fill-opacity:1;fill-rule:nonzero;stroke:none" id="path14"></path><path d="m 1294.75,775.43 c 37.65,0 69.51,-30.899 69.51,-69.512 0,-38.621 -31.86,-69.523 -69.51,-69.523 -37.66,0 -69.52,30.902 -69.52,69.523 0,38.613 31.86,69.512 69.52,69.512 z M 1167.3,123.738 v 63.723 h 44.41 c 27.04,0 38.63,10.625 38.63,38.625 V 473.23 c 0,28.008 -11.59,38.625 -38.63,38.625 h -44.41 v 63.719 h 196.96 V 226.086 c 0,-28 11.58,-38.625 38.62,-38.625 h 47.3 V 123.738 H 1167.3" style="fill:#155196;fill-opacity:1;fill-rule:nonzero;stroke:none" id="path16"></path><path d="m 1742.71,590.059 c 144.81,0 248.12,-86.895 248.12,-240.403 0,-153.504 -103.31,-240.398 -248.12,-240.398 -144.81,0 -248.13,86.894 -248.13,240.398 0,153.508 103.32,240.403 248.13,240.403" style="fill:#155196;fill-opacity:1;fill-rule:nonzero;stroke:none" id="path18"></path><path d="m 2041.99,511.855 v 60.833 c 98.48,6.753 123.58,93.64 132.27,182.468 h 59.86 V 575.574 h 127.44 V 511.855 H 2237.02 V 227.051 c 0,-19.317 10.62,-31.863 36.68,-31.863 29.94,0 41.52,16.414 41.52,55.027 v 85.93 h 63.71 v -81.106 c 0,-101.367 -55.99,-145.781 -132.26,-145.781 -72.41,0 -123.58,29.93 -123.58,107.168 v 295.429 h -81.1" style="fill:#155196;fill-opacity:1;fill-rule:nonzero;stroke:none" id="path20"></path><path d="m 1740.64,109.18 c 0,0 -5.59,175.73 -5.71,192.531 -0.85,102.535 -121.76,123.223 -134.44,127.195 0,0 -28.96,6.438 -28.96,39.324 -23.03,-15.64 -22.24,-46.835 -22.24,-46.835 0,-88.778 86.84,-107.125 112.61,-117.207 7.92,-3.083 48.83,-26.383 50.42,-67.989 1.62,-41.597 16.61,-126.863 16.61,-126.863" style="fill:#ffffff;fill-opacity:1;fill-rule:nonzero;stroke:none" id="path22"></path><path d="m 1748.15,109.18 c 0,0 5.6,175.73 5.74,192.531 0.82,102.535 121.74,123.223 134.44,127.195 0,0 28.94,6.438 28.94,39.324 23.03,-15.64 22.24,-46.835 22.24,-46.835 0,-88.778 -86.83,-107.125 -112.62,-117.207 -7.92,-3.083 -48.82,-26.383 -50.43,-67.989 -1.59,-41.597 -16.59,-126.863 -16.59,-126.863" style="fill:#6ac2ee;fill-opacity:1;fill-rule:nonzero;stroke:none" id="path24"></path><path d="m 1803.64,469.766 c 0,-32.586 -26.41,-58.965 -58.98,-58.965 -32.57,0 -58.97,26.379 -58.97,58.965 0,32.57 26.4,58.964 58.97,58.964 32.57,0 58.98,-26.394 58.98,-58.964" style="fill:#ffffff;fill-opacity:1;fill-rule:nonzero;stroke:none" id="path26"></path></g></g></svg> 