<svg class="svg svg--symetra-logo" viewbox="0 0 209 36.6"><path class="path-symetra-logo" d="M4.6 6.7S28.5.7 37.2.6C46.6.5 50.3 1.9 52.1 6c1.4 3.2-1.6 6.1-1.6 6.1s5.5 1.3 8.5 3.7c2.1 1.6 2.2 3.6 2.2 3.6s1.5 1.3 1.8 1.7c0 0-3-.5-4.1-.6C42.6 17.7 18 17.8.7 36.1-.4 37.3.6 35 5.4 28.9 18 12.5 38.5 11.7 38.5 11.7s-.9-3.1-10-4.3c-5.8-.7-23.9-.7-23.9-.7"></path><path class="st1" d="M67.4 35.3h-.9v-5.8h1.3c.6 0 1.1 0 1.4.3.4.3.6.7.6 1.3 0 .9-.5 1.5-1.3 1.6l2 2.6h-1.1l-1.9-2.6h-.1v2.6zm.3-3.4c.8 0 1.2-.1 1.2-.8 0-.7-.4-.9-1.2-.9h-.2v1.7h.2zM72.4 29.4h3.2v.8h-2.3v1.5h2.3v.8h-2.3v1.9h2.3v.8h-3.2v-5.8zM80.2 35.3h-.9v-5h-1.5v-.8h4v.8h-1.5v5zM84 29.4h1v5.8h-1v-5.8zM88.9 35.3H88v-5.8h1.3c.6 0 1.1 0 1.4.3.4.3.6.7.6 1.3 0 .9-.5 1.5-1.3 1.6l2 2.6h-1.1L89 32.7h-.1v2.6zm.2-3.4c.8 0 1.2-.1 1.2-.8 0-.7-.4-.9-1.2-.9H89v1.7h.1zM94 29.4h3.2v.8h-2.3v1.5h2.3v.8h-2.3v1.9h2.3v.8H94v-5.8zM104.6 31.6c0 .3-.1.5-.3.8l-1.5 3.1-1.5-3.2c-.1-.2-.2-.5-.3-.7 0 .3 0 .5-.1.8l-.6 2.9h-.9l1.4-6 1.7 3.7c0 .1.2.4.3.8.1-.3.2-.6.3-.8l1.7-3.7 1.4 6h-.9l-.6-2.9c0-.1 0-.4-.1-.8zM108.3 29.4h3.2v.8h-2.3v1.5h2.3v.8h-2.3v1.9h2.3v.8h-3.2v-5.8zM114.3 29.2l3.7 3.6c.2.2.4.5.6.7v-4h.9v6l-3.8-3.6-.6-.6v4h-.9v-6.1zM124.2 35.3h-.9v-5h-1.5v-.8h4v.8h-1.5v5zM130.9 36.4h-.5v-8.1h.5v8.1zM136.4 29.4h1.5c.6 0 1.1 0 1.4.3.4.3.6.7.6 1.2 0 .6-.3 1-.8 1.2.7.1 1.1.7 1.1 1.4 0 .5-.2.9-.5 1.2-.4.4-1 .4-1.8.4h-1.5v-5.7zm1.3 2.5c.9 0 1.2-.2 1.2-.8 0-.7-.4-.9-1.2-.9h-.4v1.7h.4zm0 2.6c.5 0 .9 0 1.1-.2.2-.2.4-.4.4-.7 0-.4-.2-.7-.4-.8-.2-.1-.5-.1-.8-.1h-.6v1.9h.3zM142.6 29.4h3.2v.8h-2.3v1.5h2.3v.8h-2.3v1.9h2.3v.8h-3.2v-5.8zM148.5 29.2l3.7 3.6c.2.2.4.5.6.7v-4h.9v6l-3.8-3.6-.6-.6v4h-.9v-6.1zM156.5 29.4h3.2v.8h-2.3v1.5h2.3v.8h-2.3v1.9h2.3v.8h-3.2v-5.8zM162.6 29.4h3.2v.8h-2.3v1.4h2.3v.8h-2.3v2.7h-.9v-5.7zM168.2 29.4h.9v5.8h-.9v-5.8zM173.8 35.3h-.9v-5h-1.5v-.8h4v.8h-1.5v5zM177.7 33.7c.1.5.5.8 1.1.8.6 0 .9-.3.9-.9 0-.6-.4-.7-1-1-1-.5-1.6-.9-1.6-1.8s.7-1.6 1.8-1.6c.9 0 1.5.3 1.7 1l-.7.4c-.2-.4-.5-.5-.9-.5-.5 0-.8.3-.8.7 0 .6.5.7 1.1 1 1 .5 1.5.9 1.5 1.7 0 1.1-.7 1.8-1.9 1.8-1 0-1.6-.5-1.8-1.3l.6-.3zM185.9 36.4h-.5v-8.1h.5v8.1zM191.5 29.4h.9v5h2.1v.8h-3.1v-5.8zM196.7 29.4h.9v5.8h-.9v-5.8zM200.3 29.4h3.2v.8h-2.3v1.4h2.3v.8h-2.3v2.7h-.9v-5.7zM205.4 29.4h3.2v.8h-2.3v1.5h2.3v.8h-2.3v1.9h2.3v.8h-3.2v-5.8z"></path><g><path class="st1" d="M68.9 15.3c.4 1.7 1.7 2.6 3.6 2.6 1.8 0 3-1.1 3-2.8 0-1.8-1.4-2.3-3.3-3.2-3.4-1.7-5.2-3-5.2-5.8 0-3 2.2-5.2 5.7-5.2C75.5.9 77.4 2 78.1 4l-2.4 1.2C75 4 74.1 3.5 72.9 3.5c-1.7 0-2.7.9-2.7 2.4 0 1.8 1.5 2.4 3.6 3.3 3.3 1.5 4.9 2.9 4.9 5.6 0 3.5-2.3 5.8-6.2 5.8-3.2 0-5.3-1.5-6-4.3l2.4-1zM90.4 11.6L84 1.3h3.2l3.9 6.4c.1.1.4.6.8 1.5.2-.6.5-1.1.8-1.6l4.1-6.3h3.1l-6.5 10.2v8.6h-3v-8.5zM121 8.3c-.2.9-.4 1.7-.9 2.6l-4.9 10-4.9-10.2c-.4-.8-.7-1.6-.9-2.4 0 .9-.2 1.8-.3 2.6l-2 9.3h-2.8L108.7.6l5.6 11.8c.2.3.5 1.2 1 2.6.4-1.1.8-1.9 1.1-2.6L121.8.6l4.6 19.6h-2.8l-2.1-9.3c-.2-.4-.3-1.2-.5-2.6zM134.9 1.3h10.5V4H138v4.7h7.5v2.7H138v6.1h7.5v2.7H135V1.3zM161.5 20.2h-3.1V4h-5V1.3h13V4h-5v16.2zM176.3 20.2h-2.9V1.3h4.3c2 0 3.5.2 4.7 1.1 1.1.9 1.8 2.4 1.8 4.1 0 3-1.5 4.7-4.3 5.1l6.5 8.6H183l-6.3-8.4h-.3v8.4zm.7-10.8c2.7 0 4-.3 4-2.6 0-2.3-1.3-2.8-4-2.8h-.6v5.4h.6zM203.3 15.3h-7.4l-2.2 4.8h-3.2L199.6.5l9.1 19.6h-3.2l-2.2-4.8zm-1.1-2.5l-1.9-4.3c-.2-.5-.4-1.2-.7-2.1-.2.9-.5 1.6-.7 2.1l-1.9 4.3h5.2z"></path><g><path class="st1" d="M208.1 1.5c.4.4.6.9.6 1.5s-.2 1.1-.6 1.5c-.4.4-1 .6-1.5.6-.6 0-1.1-.2-1.5-.6-.4-.4-.6-.9-.6-1.5s.2-1.1.6-1.5c.4-.4.9-.6 1.5-.6.5 0 1 .2 1.5.6zm-.2.2c-.4-.4-.8-.5-1.3-.5s-1 .2-1.3.5c-.4.4-.6.8-.6 1.3s.2 1 .5 1.3c.4.4.8.5 1.3.5s1-.2 1.3-.5c.3-.3.5-.8.5-1.3.1-.5-.1-.9-.4-1.3zm-.3.8c0 .3-.2.6-.6.6l.5 1.1h-.5l-.5-1.1h-.5v1.1h-.4V1.8h.9c.8 0 1.1.2 1.1.7zm-1.5-.4v.8h.4c.4 0 .7-.1.7-.4 0-.3-.2-.4-.7-.4h-.4z"></path></g></g></svg>