<svg xmlns="http://www.w3.org/2000/svg" width="100%" height="100%" fill="none" viewbox="0 0 580 80"><path fill="#282828" d="M33.334 0C14.9252 0 0 14.9252 0 33.334V53.334V66.666V80H13.334V66.666H53.334V80H66.666V33.334C66.666 14.9252 51.7439 0 33.334 0ZM33.334 13.334C44.3799 13.334 53.334 22.2881 53.334 33.334V53.334H13.334V33.334C13.334 22.2881 22.2881 13.334 33.334 13.334Z"></path><path fill="#282828" d="M113.334 0C94.9241 0 80 10.448 80 23.334C80 36.22 94.9241 46.666 113.334 46.666C124.381 46.666 133.334 51.1425 133.334 56.666C133.334 62.1879 124.381 66.666 113.334 66.666C102.288 66.666 93.334 62.1879 93.334 56.666H80C80 69.5514 94.9225 80 113.334 80C131.745 80 146.666 69.5514 146.666 56.666C146.666 43.7805 131.745 33.334 113.334 33.334C102.288 33.334 93.334 28.8559 93.334 23.334C93.334 17.8111 102.288 13.334 113.334 13.334C124.381 13.334 133.334 17.8111 133.334 23.334H146.666C146.666 10.448 131.745 0 113.334 0Z"></path><path fill="#E94D35" d="M246.666 66.6667H279.999V80H246.666V66.6667Z"></path><path fill="#E94D35" d="M273.334 33.3332H306.667V46.6665H273.334V33.3332Z"></path><path fill="#E94D35" d="M300 0.000163555H333.333V13.3335H300V0.000163555Z"></path><path fill="#282828" d="M380 0C361.591 0 346.666 14.9252 346.666 33.334V80H360V60V33.334C360 22.2881 368.955 13.334 380 13.334C391.045 13.334 400 22.2881 400 33.334V60V80H413.334V33.334C413.334 14.9252 398.409 0 380 0Z"></path><path fill="#282828" d="M423.334 0V13.334H450V80H463.334V13.334H490V0H463.334H450H423.334Z"></path><path fill="#282828" d="M540 66.6667C525.273 66.6667 513.333 54.7292 513.333 40.0005C513.333 25.2729 525.273 13.3339 540 13.3339C554.727 13.3339 566.667 25.2729 566.667 40.0005C566.667 54.7292 554.727 66.6667 540 66.6667ZM540 -4.17233e-06C517.909 -4.17233e-06 500 17.9088 500 40C500 62.0912 517.909 80 540 80C562.091 80 580 62.0912 580 40C580 17.9088 562.091 -4.17233e-06 540 -4.17233e-06Z"></path><path fill="#282828" d="M223.076 53.3229C218.465 61.2916 209.868 66.6667 200 66.6667C185.273 66.6667 173.333 54.7292 173.333 40C173.333 25.2719 185.273 13.3333 200 13.3333C209.868 13.3333 218.465 18.7083 223.076 26.6771L234.637 20.0027C227.72 8.04787 214.804 -0.000532341 200 -0.000532341C177.909 -0.000532341 160 17.9088 160 40C160 62.0912 177.909 80 200 80C214.804 80 227.72 71.9521 234.637 59.9973L223.076 53.3229Z"></path></svg>