<svg xmlns="http://www.w3.org/2000/svg" width="100%" height="100%" viewbox="0 0 132 24" fill="none"><path d="M0 0V23.5667H3.34033V11.0747C3.34033 7.77865 3.30726 5.10886 3.27418 3.1642H3.30726C3.38794 3.46109 3.46862 3.76378 3.55148 4.07467C3.91021 5.4205 4.30989 6.91998 4.92781 8.76747L9.92177 23.5667H13.5928L17.793 11.1406C17.9725 10.5873 18.1548 10.0265 18.3354 9.47071C19.2201 6.74882 20.065 4.14958 20.3396 3.1642H20.3727C20.3727 4.01548 20.3465 5.23275 20.3174 6.5832C20.3138 6.7491 20.3102 6.917 20.3066 7.08649L20.2735 9.36075V23.5667H23.6469V0H18.223L14.0558 12.6568L13.5598 14.1071L12.4022 17.6997L11.8731 19.3478H11.84L11.3439 17.7657L10.8147 16.0188L9.82255 12.8875L5.62234 0H0Z" fill="currentColor"></path><path fill-rule="evenodd" clip-rule="evenodd" d="M59.5882 23.5667H62.6971V0H59.3567V6.78985C59.3567 7.31721 59.3567 7.87754 59.3898 8.50379C58.4307 7.08649 56.5125 5.73511 53.8006 5.73511C48.8066 5.73511 45.6316 9.62444 45.6316 14.8651C45.6316 20.2706 48.9389 23.9622 53.7013 23.9622C56.7109 23.9622 58.563 22.6768 59.5882 21.1276V23.5667ZM49.2365 14.8981C49.2365 11.2065 51.1217 8.53675 54.3959 8.53675C57.6039 8.53675 59.5221 11.2065 59.5221 14.8981C59.5221 18.7215 57.67 21.2265 54.3628 21.2265C51.0886 21.2265 49.2365 18.7545 49.2365 14.8981Z" fill="currentColor"></path><path d="M113.184 0V23.5667H116.69V13.0194H125.787V9.987H116.69V3.03236H131.552V0H113.184Z" fill="currentColor"></path><path d="M131.556 6.25722H128.215V23.5614H131.556V6.25722Z" fill="currentColor"></path><path d="M98.563 6.25951V8.59969C99.4559 7.11648 101.176 5.7651 104.086 5.7651C108.088 5.7651 110.171 8.43489 110.171 12.9175V23.5637H106.798V14.17C106.798 10.7421 105.674 8.59969 102.929 8.59969C100.15 8.59969 98.6291 10.841 98.6291 13.5767V23.5637H95.2888V7.57792C95.2888 7.14944 95.2888 6.68799 95.2557 6.25951H98.563Z" fill="currentColor"></path><path d="M87.7981 6.26385H84.59C84.6231 6.79122 84.6231 7.31859 84.6231 7.81299V23.5681H87.9634V14.6028C87.9634 11.142 88.5587 8.83477 91.7006 8.83477C92.0644 8.83477 92.5605 8.83477 92.8582 8.93365V5.90129C92.8432 5.89916 92.8268 5.8968 92.812 5.89468C92.599 5.86406 92.3994 5.83537 91.9983 5.83537C90.0139 5.83537 88.3603 6.85714 87.7981 8.4722V6.26385Z" fill="currentColor"></path><path fill-rule="evenodd" clip-rule="evenodd" d="M82.0443 15.7929H68.4515C68.5507 18.8252 70.6012 21.2313 73.9084 21.2313C76.2897 21.2313 77.4472 20.1107 78.3402 18.6275H81.6805C80.7214 21.7587 77.9102 24 73.7762 24C68.4184 24 65.0781 20.4073 65.0781 15.0018C65.0781 9.5963 68.5838 5.77289 73.7762 5.77289C79.4316 5.77289 82.0443 10.0577 82.0443 14.7052V15.7929ZM68.5838 13.156H78.5717C78.274 10.3874 76.5873 8.47565 73.71 8.47565C70.965 8.47565 68.9476 10.2555 68.5838 13.156Z" fill="currentColor"></path><path fill-rule="evenodd" clip-rule="evenodd" d="M34.7538 5.79632C40.1446 5.79632 43.5181 9.58677 43.5181 14.9593C43.5181 20.233 40.2439 23.9905 34.6877 23.9905C29.1315 23.9905 25.9565 20.233 25.9565 14.9593C25.9565 9.58677 29.3299 5.79632 34.7538 5.79632ZM34.6546 8.565C31.3804 8.565 29.4953 11.2348 29.4953 14.9264C29.4953 18.7827 31.3473 21.2218 34.6546 21.2218C37.9619 21.2218 39.847 18.7827 39.847 14.9264C39.847 11.2348 37.9288 8.565 34.6546 8.565Z" fill="currentColor"></path></svg>