<svg xmlns="http://www.w3.org/2000/svg" width="267" height="71" fill="none"><path fill="url(#a)" d="m13.189 9.435 34.12 31.137c-6.548 5.877-16.457 6.83-25.764-3.345-7.447-8.14-8.674-21.92-8.356-27.792Z" opacity=".5" style="mix-blend-mode:multiply"/><path fill="url(#b)" d="m38.61 0 4.596 45.962c-8.799 0-16.81-5.909-16.94-19.698C26.16 15.234 34.45 4.16 38.608 0Z" opacity=".5" style="mix-blend-mode:multiply"/><path fill="url(#c)" d="m3.195 29.918 45.586 7.456C46.504 45.873 38.722 52.081 25.37 48.64 14.687 45.886 6.136 35.011 3.195 29.918Z" opacity=".5" style="mix-blend-mode:multiply"/><path fill="url(#d)" d="M5.655 49.698 48.86 33.362c2.278 8.499-1.357 17.766-14.642 21.462-10.628 2.956-23.471-2.186-28.564-5.126Z" opacity=".5" style="mix-blend-mode:multiply"/><path fill="url(#e)" d="M43.234 33.192c-.652 2.543-18.306 28.586-20.32 31.223 7.191-2.18 19.832-9.52 24.695-14.287 7.811-7.655 3.938-14.846 6.906-20.054 2.374-4.166 13.432-8.05 13.431-8.052 0 0-10.088 2.823-12.753 3.017-2.664.195-4.413-.266-6.244.456-3.924 1.548-4.901 4.518-5.715 7.697Z"/><path fill="#0F4F6D" d="M92.068 30.547c.93.147 1.774.526 2.532 1.138a6.398 6.398 0 0 1 1.834 2.275c.465.905.697 1.87.697 2.898 0 1.296-.33 2.47-.99 3.522-.66 1.027-1.627 1.847-2.899 2.458-1.247.587-2.727.88-4.439.88h-9.539v-25.57h9.172c1.737 0 3.216.293 4.44.88 1.222.563 2.14 1.333 2.751 2.312.612.978.917 2.079.917 3.302 0 1.516-.415 2.776-1.247 3.779-.807.978-1.883 1.687-3.229 2.127Zm-9.465-1.357h5.613c1.565 0 2.776-.367 3.632-1.1.856-.734 1.284-1.75 1.284-3.046 0-1.296-.428-2.311-1.284-3.045-.856-.734-2.091-1.1-3.705-1.1h-5.54v8.291Zm5.907 11.777c1.663 0 2.96-.391 3.888-1.174.93-.783 1.395-1.871 1.395-3.265 0-1.419-.49-2.532-1.468-3.339-.978-.831-2.287-1.247-3.926-1.247h-5.796v9.025h5.907Zm29.838-2.935h-11.154l-2.054 5.687h-3.522l9.245-25.425h3.852l9.209 25.425h-3.522l-2.054-5.687Zm-.954-2.715-4.623-12.914-4.623 12.914h9.246Zm27.363-17.17-8.328 15.923v9.649h-3.339v-9.65l-8.365-15.922h3.706l6.31 12.95 6.311-12.95h3.705Zm7.594 2.715v8.548h9.319v2.752h-9.319v8.805h10.42v2.752h-13.759V18.11h13.759v2.752h-10.42Zm24.313 23.114c-1.687 0-3.204-.294-4.549-.881-1.321-.611-2.36-1.443-3.118-2.495-.759-1.076-1.15-2.311-1.175-3.705h3.559a4.801 4.801 0 0 0 1.468 3.045c.88.807 2.152 1.21 3.815 1.21 1.59 0 2.838-.39 3.743-1.173.929-.808 1.394-1.835 1.394-3.082 0-.979-.269-1.774-.807-2.385a5.157 5.157 0 0 0-2.018-1.394c-.807-.318-1.896-.66-3.265-1.027-1.688-.44-3.046-.881-4.073-1.321-1.003-.44-1.871-1.125-2.605-2.055-.709-.954-1.064-2.226-1.064-3.816 0-1.394.355-2.629 1.064-3.705.71-1.076 1.7-1.908 2.972-2.495 1.296-.587 2.776-.88 4.439-.88 2.397 0 4.354.599 5.87 1.797 1.541 1.199 2.41 2.789 2.605 4.77h-3.668c-.123-.979-.636-1.835-1.541-2.568-.905-.759-2.104-1.138-3.596-1.138-1.394 0-2.531.367-3.412 1.101-.88.71-1.321 1.712-1.321 3.008 0 .93.257 1.688.771 2.275a5.473 5.473 0 0 0 1.944 1.358c.783.293 1.871.635 3.266 1.027 1.687.465 3.045.93 4.072 1.394 1.027.44 1.908 1.137 2.642 2.091.733.93 1.1 2.202 1.1 3.816 0 1.247-.33 2.421-.99 3.522-.661 1.1-1.639 1.993-2.935 2.678-1.297.685-2.826 1.028-4.587 1.028Zm17.865-25.83V43.72h-3.339V18.147h3.339Zm21.906 19.886h-11.153l-2.055 5.687h-3.522l9.246-25.425h3.852l9.209 25.425h-3.522l-2.055-5.687Zm-.954-2.715-4.623-12.914-4.622 12.914h9.245Zm31.766 8.402h-3.338l-13.428-20.362v20.362h-3.339V18.11h3.339l13.428 20.326V18.11h3.338v25.61Z"/><path fill="#03708D" d="M90.891 55.207v14.145h-1.847v-6.413H81.84v6.413h-1.847V55.207h1.847v6.21h7.204v-6.21h1.847Zm5.609 1.502v4.728h5.155v1.522H96.5v4.87h5.763v1.523h-7.61V55.186h7.61v1.523H96.5Zm17.528 9.497h-6.17l-1.136 3.146h-1.948l5.114-14.064h2.13l5.094 14.064h-1.948l-1.136-3.146Zm-.528-1.502-2.557-7.143-2.557 7.143h5.114Zm8.297 3.146h4.951v1.502h-6.798V55.207h1.847V67.85Zm16.227-12.643v1.502h-3.855v12.643h-1.847V56.708h-3.876v-1.501h9.578Zm13.78 0v14.145h-1.847v-6.413h-7.204v6.413h-1.847V55.207h1.847v6.21h7.204v-6.21h1.847Z"/><defs><linearGradient id="a" x1="11.304" x2="33.014" y1="25.228" y2="16.327" gradientUnits="userSpaceOnUse"><stop offset=".279" stop-color="#CAF4EA"/><stop offset="1" stop-color="#0099A0"/></linearGradient><linearGradient id="b" x1="26.658" x2="48.761" y1="10.494" y2="18.371" gradientUnits="userSpaceOnUse"><stop offset=".279" stop-color="#CAF4EA"/><stop offset="1" stop-color="#0099A0"/></linearGradient><linearGradient id="c" x1="10.239" x2="23.567" y1="44.178" y2="24.867" gradientUnits="userSpaceOnUse"><stop offset=".279" stop-color="#CAF4EA"/><stop offset="1" stop-color="#0099A0"/></linearGradient><linearGradient id="d" x1="18.885" x2="20.772" y1="58.526" y2="35.138" gradientUnits="userSpaceOnUse"><stop offset=".279" stop-color="#CAF4EA"/><stop offset="1" stop-color="#0099A0"/></linearGradient><linearGradient id="e" x1="31.666" x2="63.952" y1="73.286" y2="33.032" gradientUnits="userSpaceOnUse"><stop stop-color="#0D5C73"/><stop offset="1" stop-color="#04B38C"/></linearGradient></defs></svg>