<svg xmlns="http://www.w3.org/2000/svg" width="279" height="81" fill="none"><g fill="#fff" clip-path="url(#a)"><path d="M126.85 53.325h-4.583c-.412 0-.565-.38-.75-.75l-5.408-9.103h-.83c-.98 0-4.015-.106-4.878-.154v9.258c0 .41-.303.748-.718.748h-3.753a.753.753 0 0 1-.749-.748V27.972c0-.753.444-1.015 1.2-1.126 1.955-.302 6.152-.487 8.897-.487 5.78 0 11.12 2.065 11.12 8.484v.34c0 3.975-1.989 6.15-5.067 7.345l5.89 10.048a.483.483 0 0 1 .078.303c.001.254-.149.446-.449.446zm-5.632-18.482c0-2.815-2.185-4.015-5.939-4.015-.791 0-4.207.074-4.878.148v8.142c.594.036 4.232.113 4.878.113 3.862 0 5.939-.747 5.939-4.049v-.339zm16.091 11.086c0 3.149.121 3.231 2.96 3.231h9.503a.756.756 0 0 1 .753.751v2.398c0 .53-.188.718-.753.79-1.2.189-3.645.523-8.11.523-6.231 0-9.538.044-9.538-7.693V34.05c0-7.734 3.307-7.691 9.538-7.691 4.465 0 6.91.339 8.11.524.565.073.753.264.753.79v2.4a.76.76 0 0 1-.753.755h-9.503c-2.839 0-2.96.083-2.96 3.222v3.445h12.014a.756.756 0 0 1 .752.746v2.71a.752.752 0 0 1-.752.75h-12.014v4.227zm30.072 7.693c-6.039 0-11.242-2.625-11.242-10.626V27.373c0-.416.343-.715.755-.715h3.71c.417 0 .752.299.752.715v15.623c0 4.282 1.979 6.313 6.026 6.313 4.058 0 6.036-2.031 6.036-6.313V27.373c0-.416.335-.715.747-.715h3.716c.417 0 .756.299.756.715v15.623c-.003 8-5.208 10.626-11.256 10.626zm35.938-22.612h-7.489v21.566a.761.761 0 0 1-.76.748h-3.716a.754.754 0 0 1-.752-.748V31.01h-7.494c-.408 0-.747-.258-.747-.671v-2.966c0-.416.339-.715.747-.715h20.21c.405 0 .744.299.744.715v2.966c.001.413-.337.671-.743.671zM254.3 53.324h-4.583c-.413 0-.56-.38-.747-.748l-5.41-9.104h-.838c-.97 0-4.008-.106-4.877-.154v9.258c0 .41-.297.748-.707.748h-3.75a.755.755 0 0 1-.754-.748V27.972c0-.753.445-1.015 1.198-1.126 1.951-.302 6.155-.487 8.889-.487 5.786 0 11.122 2.065 11.122 8.484v.34c0 3.975-1.992 6.15-5.069 7.345l5.901 10.048c.057.09.084.196.076.303 0 .254-.153.446-.451.446zm-5.631-18.48c0-2.816-2.186-4.016-5.947-4.016-.783 0-4.199.074-4.877.148v8.142c.608.036 4.249.113 4.877.113 3.873 0 5.947-.747 5.947-4.049v-.339zm19.959 18.795c-3.318 0-6.68-.569-8.486-.983-.371-.076-.712-.337-.712-.75v-2.704c0-.41.341-.714.712-.714h.073c1.506.189 5.02.676 8.49.676 3.338 0 4.36-1.195 4.36-3.37 0-2.816-6.721-4.375-10.002-5.726-3.265-1.351-4.422-3.938-4.422-6.562 0-4.133 3.324-7.136 10.305-7.136 3.579 0 6.856.68 8.132.987.377.075.672.339.672.712v2.778c0 .37-.256.674-.638.674h-.071c-2.48-.223-5.05-.68-8.313-.68-2.783 0-4.864.976-4.864 2.665 0 1.235 1.411 2.37 3.078 3.032 1.667.657 3.852 1.507 6.35 2.51 3.162 1.28 5.212 3.143 5.212 6.746-.001 3.79-2.364 7.845-9.876 7.845zm-55.519-7.71c0 3.149.116 3.231 2.962 3.231h9.51a.753.753 0 0 1 .744.751v2.398c0 .53-.188.718-.744.79-1.209.189-3.65.523-8.115.523-6.243 0-9.542.044-9.542-7.693V34.05c0-7.734 3.299-7.691 9.542-7.691 4.465 0 6.906.339 8.115.524.556.073.744.264.744.79v2.4a.76.76 0 0 1-.744.755h-9.51c-2.846 0-2.962.083-2.962 3.222v3.445h12.015c.417 0 .745.34.745.746v2.71a.75.75 0 0 1-.745.75h-12.015v4.227zM60.173 25.39a2.762 2.762 0 0 1-3.902.107 2.75 2.75 0 0 1-.109-3.901 2.756 2.756 0 0 1 4.764 1.814 2.772 2.772 0 0 1-.753 1.98zm-27.517-6.275a1.369 1.369 0 0 0-1.926.055 1.365 1.365 0 0 0 .055 1.922 1.367 1.367 0 0 0 1.927-.057 1.362 1.362 0 0 0-.056-1.92zm6.9-2.625a1.686 1.686 0 0 0-2.723.63 1.683 1.683 0 0 0 .42 1.822 1.687 1.687 0 0 0 2.376-.075 1.689 1.689 0 0 0-.074-2.377zm7.4-.541a2.141 2.141 0 0 0-3.018.088 2.138 2.138 0 0 0 3.108 2.932 2.141 2.141 0 0 0-.09-3.02zm7 1.792a2.398 2.398 0 0 0-3.894.892 2.4 2.4 0 1 0 4.645.785 2.406 2.406 0 0 0-.75-1.677zm-27.148 5.97a1.02 1.02 0 0 0-1.646.376 1.012 1.012 0 0 0 .25 1.099 1.01 1.01 0 0 0 1.433-.04 1.017 1.017 0 0 0-.037-1.436zm35.33 25.041a1.366 1.366 0 0 0 .056 1.928 1.366 1.366 0 0 0 1.873-1.99 1.368 1.368 0 0 0-1.928.062zm1.745-7.03a1.685 1.685 0 0 0 1.28 2.83 1.677 1.677 0 0 0 1.174-.53 1.675 1.675 0 0 0-1.28-2.828 1.689 1.689 0 0 0-1.174.527zm-.535-7.405a2.131 2.131 0 0 0 .798 3.459 2.133 2.133 0 0 0 2.31-.535 2.134 2.134 0 0 0-3.108-2.924zm-2.585-6.862a2.401 2.401 0 1 0 3.392-.106c-.957-.909-2.48-.857-3.392.106zM58.39 54.852a1.02 1.02 0 0 0 .044 1.436 1.007 1.007 0 0 0 1.431-.052.996.996 0 0 0-.043-1.425 1.003 1.003 0 0 0-1.432.041zm-29.307 3.55a2.763 2.763 0 0 0-4.02-3.793 2.765 2.765 0 0 0 4.02 3.792zm-5.978-27.159a1.363 1.363 0 0 0-1.982-1.87 1.35 1.35 0 0 0 .061 1.924c.541.51 1.401.49 1.921-.054zm-1.75 7.035a1.691 1.691 0 0 0-.07-2.38 1.683 1.683 0 0 0-2.31 2.445 1.689 1.689 0 0 0 2.38-.065zm.538 7.4a2.14 2.14 0 0 0-.09-3.025 2.139 2.139 0 0 0-3.021.094 2.14 2.14 0 0 0 .093 3.019 2.13 2.13 0 0 0 3.018-.087zm2.58 6.865a2.406 2.406 0 0 0-.892-3.892 2.393 2.393 0 0 0-2.596.601 2.398 2.398 0 0 0 .091 3.395 2.415 2.415 0 0 0 3.397-.104zm28.111 8.338a1.357 1.357 0 0 0 1.925-.059 1.355 1.355 0 0 0-.06-1.92 1.353 1.353 0 0 0-1.92.056 1.361 1.361 0 0 0 .055 1.923zm-6.899 2.621a1.684 1.684 0 0 0 2.689-1.912 1.688 1.688 0 0 0-2.763-.46 1.685 1.685 0 0 0 .074 2.372zm-7.404.535a2.126 2.126 0 0 0 3.017-.081 2.13 2.13 0 0 0-.085-3.017 2.146 2.146 0 0 0-3.024.084 2.129 2.129 0 0 0 .092 3.014zm-6.987-1.783a2.393 2.393 0 0 0 3.885-.894 2.401 2.401 0 0 0-2.318-3.248 2.4 2.4 0 0 0-2.324 2.471 2.394 2.394 0 0 0 .757 1.672zm18.182-37.956a2.14 2.14 0 0 1-2.664 1.443 2.14 2.14 0 0 1-1.457-2.669 2.15 2.15 0 1 1 4.121 1.226zm-20.603 5.074a1.078 1.078 0 0 0-1.32.725 1.061 1.061 0 0 0 2.036.595c.175-.559-.158-1.146-.716-1.32zm3.728-4.1a1.304 1.304 0 0 0-1.622.89 1.306 1.306 0 0 0 1.883 1.518c.305-.167.532-.447.631-.78a1.319 1.319 0 0 0-.892-1.628zm4.776-2.89a1.678 1.678 0 0 0-2.07 1.126 1.671 1.671 0 0 0 2.4 1.932 1.656 1.656 0 0 0 .656-2.256 1.68 1.68 0 0 0-.986-.802zm5.29-1.183a1.866 1.866 0 0 0-2.327 1.266 1.866 1.866 0 0 0 1.265 2.325 1.876 1.876 0 0 0 1.71-3.252 1.864 1.864 0 0 0-.648-.34zm-16.15 13.249a.786.786 0 0 0-.977.533c-.03.1-.04.205-.03.31a.796.796 0 0 0 .56.682.796.796 0 0 0 .721-1.383.792.792 0 0 0-.275-.142zm32.096 4.77a1.056 1.056 0 0 0 .721 1.317 1.06 1.06 0 1 0-.21-1.948 1.066 1.066 0 0 0-.511.632zm-1.227-5.305a1.306 1.306 0 0 0 .89 1.633c.7.206 1.421-.194 1.626-.89a1.3 1.3 0 0 0-.885-1.62 1.308 1.308 0 0 0-1.63.877zm-2.889-4.772a1.663 1.663 0 1 0 2.64-.825 1.67 1.67 0 0 0-2.64.825zm-4.065-3.707a1.871 1.871 0 1 0 3.593 1.048 1.865 1.865 0 0 0-1.263-2.322 1.88 1.88 0 0 0-2.33 1.274zm7.751 19.14a.8.8 0 0 0 .532.984.787.787 0 0 0 .984-.54.789.789 0 0 0-.535-.984.799.799 0 0 0-.981.54zM39.89 56.934a2.152 2.152 0 1 0-2.668 1.456c1.14.33 2.343-.326 2.668-1.456zM26.626 40.781a1.06 1.06 0 0 0-.715-1.319 1.076 1.076 0 0 0-1.322.722 1.056 1.056 0 0 0 .722 1.312 1.054 1.054 0 0 0 1.315-.715zm1.23 5.302a1.293 1.293 0 0 0-.885-1.613 1.287 1.287 0 0 0-1.626.881 1.307 1.307 0 0 0 2.51.732zm2.893 4.78a1.683 1.683 0 0 0-1.136-2.076 1.668 1.668 0 0 0-2.122 1.78 1.656 1.656 0 0 0 1.185 1.419 1.663 1.663 0 0 0 2.073-1.124zm4.065 3.711a1.879 1.879 0 0 0-2.004-2.39 1.86 1.86 0 0 0-1.588 1.342 1.865 1.865 0 0 0 2.69 2.161c.436-.237.76-.637.902-1.113zm21.549-3.95a1.067 1.067 0 0 0 1.326-.717 1.072 1.072 0 0 0-.72-1.321 1.07 1.07 0 0 0-1.318.72 1.064 1.064 0 0 0 .712 1.318zm-3.721 4.106a1.304 1.304 0 0 0 1.62-.881 1.303 1.303 0 0 0-.879-1.632 1.32 1.32 0 0 0-1.636.886 1.326 1.326 0 0 0 .895 1.627zm-4.777 2.891a1.663 1.663 0 1 0 .295-3.249 1.662 1.662 0 0 0-.295 3.249zM42.58 58.8a1.855 1.855 0 0 0 2.386-1.986 1.872 1.872 0 0 0-3.66-.326A1.871 1.871 0 0 0 42.58 58.8zM38.2 28.289a1.67 1.67 0 0 1-.671 2.259 1.675 1.675 0 0 1-2.268-.682 1.66 1.66 0 0 1 .671-2.258 1.668 1.668 0 0 1 2.269.68zm-8.254 13.069a.993.993 0 0 0-.15 1.632.966.966 0 0 0 1.086.091.963.963 0 0 0 .4-1.327.99.99 0 0 0-1.336-.396zm-.166-4.018a1.145 1.145 0 0 0-.46 1.543c.309.565 1 .768 1.559.47a1.158 1.158 0 0 0 .464-1.555 1.145 1.145 0 0 0-1.563-.458zm1.042-3.867a1.322 1.322 0 0 0-.539 1.775A1.318 1.318 0 0 0 32.698 35a1.312 1.312 0 0 0-.1-1 1.32 1.32 0 0 0-1.776-.528zm2.127-3.344a1.47 1.47 0 0 0-.602 2.006c.39.71 1.272.98 1.987.593a1.465 1.465 0 0 0 .608-1.994 1.468 1.468 0 0 0-1.993-.605zM31.32 45.162a.82.82 0 0 0 .158 1.512c.208.062.433.04.625-.06a.834.834 0 0 0 .326-1.12.825.825 0 0 0-1.11-.332zM50.314 31.48a1.005 1.005 0 0 0 1.341.405 1 1 0 0 0 .4-1.342.977.977 0 0 0-1.332-.396.983.983 0 0 0-.409 1.333zm-3.337-2.123c.302.557 1.01.76 1.55.457.57-.302.774-.995.47-1.55a1.146 1.146 0 0 0-1.546-.472 1.166 1.166 0 0 0-.474 1.565zm-3.855-1.034a1.292 1.292 0 0 0 1.762.526 1.308 1.308 0 0 0-.237-2.407 1.297 1.297 0 0 0-.996.109 1.306 1.306 0 0 0-.529 1.772zm-4.026.16a1.478 1.478 0 0 0 .875.717 1.477 1.477 0 0 0 1.126-.111 1.49 1.49 0 0 0 .594-2.006 1.475 1.475 0 0 0-2.595 1.4zm13.725 6.005a.807.807 0 0 0 1.098.33.804.804 0 0 0 .334-1.101.83.83 0 0 0-1.113-.35c-.381.222-.54.73-.32 1.12zm-2.834 15.63a1.663 1.663 0 0 0-2.273-.68 1.655 1.655 0 0 0-.67 2.26 1.69 1.69 0 0 0 2.27.679c.807-.447 1.108-1.466.673-2.258zm-15.062-1.62a.989.989 0 0 0-1.623-.152.978.978 0 0 0-.103 1.084.966.966 0 0 0 1.327.393.978.978 0 0 0 .4-1.324zm3.341 2.125a1.145 1.145 0 0 0-1.55-.459 1.13 1.13 0 0 0-.463 1.551 1.137 1.137 0 0 0 2.099-.214 1.166 1.166 0 0 0-.086-.878zm3.865 1.034c-.337-.635-1.14-.86-1.785-.531a1.32 1.32 0 0 0-.528 1.776 1.315 1.315 0 0 0 2.177.21 1.302 1.302 0 0 0 .136-1.455zm4.02-.161a1.482 1.482 0 0 0-2.002-.598c-.72.38-.97 1.273-.58 1.999a1.445 1.445 0 0 0 1.985.59c.722-.378.98-1.28.597-1.992zm9.133-12.86c.483-.278.668-.878.416-1.348a.983.983 0 0 0-1.33-.396.973.973 0 0 0-.402 1.336.985.985 0 0 0 1.316.407zm.185 4.01c.557-.303.757-1 .454-1.553a1.14 1.14 0 0 0-1.547-.464 1.167 1.167 0 0 0-.47 1.562c.295.548 1.013.75 1.563.456zm-1.05 3.864a1.32 1.32 0 0 0 .545-1.78 1.316 1.316 0 0 0-1.779-.532 1.324 1.324 0 0 0-.535 1.784 1.314 1.314 0 0 0 1.769.528zm-2.113 3.33c.716-.371.98-1.281.593-1.991-.394-.713-1.283-.99-1.995-.597a1.472 1.472 0 0 0-.595 1.998 1.459 1.459 0 0 0 1.997.59zm28.588-5.557a4.285 4.285 0 0 1-4.28-4.289 4.27 4.27 0 0 1 4.285-4.278 4.273 4.273 0 0 1 4.283 4.283 4.287 4.287 0 0 1-4.288 4.284zm-16.82-36.95a2.356 2.356 0 0 0-1.82-2.802 2.356 2.356 0 0 0-2.806 1.815 2.365 2.365 0 0 0 4.626.986zm8.442 6.044a2.858 2.858 0 0 0-2.379-3.276 2.866 2.866 0 0 0-.897 5.661 2.87 2.87 0 0 0 3.276-2.385zm11.02 16.916a3.93 3.93 0 0 0-3.725-4.135 3.928 3.928 0 0 0-4.14 3.723 3.937 3.937 0 1 0 7.865.412zM44.34 1.718C44.34.763 43.568 0 42.617 0a1.72 1.72 0 0 0 0 3.438 1.72 1.72 0 0 0 1.724-1.72zm16.932 69.129a2.366 2.366 0 1 0 .984 4.629 2.366 2.366 0 0 0-.984-4.63zm7.969-6.607a2.865 2.865 0 1 0 .836 5.67 2.865 2.865 0 0 0-.836-5.67zm6.154-8.651a3.57 3.57 0 1 0 2.078 6.689 3.565 3.565 0 0 0 1.846-3.512 3.571 3.571 0 0 0-3.924-3.177zm3.998-9.612a3.94 3.94 0 0 0-2.425 6.86 3.927 3.927 0 0 0 2.844 1 3.93 3.93 0 0 0 2.423-6.854 3.945 3.945 0 0 0-2.842-1.006zM42.616 76.56a1.72 1.72 0 0 0 0 3.439 1.72 1.72 0 0 0 0-3.439zM4.336 44.283a4.287 4.287 0 0 0 3.954-5.927 4.272 4.272 0 0 0-3.954-2.64 4.281 4.281 0 0 0-3.029 7.312 4.292 4.292 0 0 0 3.03 1.255zM23.962 9.15a2.365 2.365 0 0 0-.06-4.637 2.357 2.357 0 0 0-.922.015 2.363 2.363 0 1 0 .982 4.622zm-7.967 6.61a2.87 2.87 0 0 0 1.997-4.33 2.862 2.862 0 0 0-2.894-1.33 2.86 2.86 0 0 0-2.377 3.276 2.864 2.864 0 0 0 3.274 2.384zm-6.159 8.649a3.573 3.573 0 0 0-.745-7.103 3.562 3.562 0 0 0-3.177 3.926 3.567 3.567 0 0 0 3.922 3.177zM5.838 34.02a3.94 3.94 0 0 0 1.104-7.648 3.93 3.93 0 0 0-1.523-.216 3.933 3.933 0 0 0-3.724 4.136 3.942 3.942 0 0 0 4.143 3.728zM21.16 72.667a2.365 2.365 0 1 0 4.625.983 2.366 2.366 0 0 0-1.822-2.804 2.369 2.369 0 0 0-2.803 1.82zm-8.438-6.047a2.856 2.856 0 0 0 2.378 3.277 2.863 2.863 0 1 0-2.378-3.277zm-6.808-7.852a3.56 3.56 0 0 0 3.175 3.922 3.564 3.564 0 0 0 3.925-3.176 3.57 3.57 0 0 0-3.179-3.924 3.566 3.566 0 0 0-3.921 3.178zM1.695 49.7a3.93 3.93 0 0 0 3.724 4.136 3.928 3.928 0 0 0 4.145-3.724 3.941 3.941 0 0 0-3.726-4.137A3.948 3.948 0 0 0 1.695 49.7zm50.35 25.491a1.852 1.852 0 0 0-1.308 2.264 1.848 1.848 0 0 0 2.264 1.303 1.842 1.842 0 0 0 1.31-2.261 1.85 1.85 0 0 0-2.266-1.306zm-18.86 0a1.847 1.847 0 1 0-.877 3.588 1.847 1.847 0 0 0 .877-3.588zm21.128-71.69A1.846 1.846 0 0 0 53 1.24a1.848 1.848 0 0 0-.955 3.567A1.848 1.848 0 0 0 54.313 3.5zm-19.817-.96A1.846 1.846 0 0 0 32.23 1.24a1.844 1.844 0 0 0-.446 3.382 1.85 1.85 0 0 0 2.713-2.08zm36.89 28.696a3.347 3.347 0 0 1-3.722-5.408 3.34 3.34 0 0 1 1.077-.739 3.347 3.347 0 0 1 2.645 6.147zM47.9 9.947a1.838 1.838 0 0 0-2.17-1.45 1.837 1.837 0 0 0-1.45 2.17 1.847 1.847 0 0 0 3.62-.72zm7.923 1.723a2.228 2.228 0 0 0-2.719-1.612 2.23 2.23 0 0 0-1.238 3.506 2.236 2.236 0 0 0 3.957-1.894zm7.305 3.526a2.776 2.776 0 0 0-3.49-1.83 2.783 2.783 0 0 0-1.832 3.492 2.789 2.789 0 0 0 5.322-1.662zm5.827 5.193a3.068 3.068 0 0 0-3.949-1.814 3.066 3.066 0 0 0-1.818 3.948 3.074 3.074 0 1 0 5.767-2.134zm-36.938-8.366a1.343 1.343 0 1 0-2.467 1.063 1.343 1.343 0 0 0 2.467-1.063zM65.53 56.35a1.847 1.847 0 0 0 2.137 3.013 1.844 1.844 0 0 0 .435-2.575 1.843 1.843 0 0 0-2.572-.438zm3.67-7.202a2.238 2.238 0 0 0-.122 3.746 2.236 2.236 0 1 0 .123-3.746zm1.737-8.105a2.792 2.792 0 0 0-.358 4.625 2.78 2.78 0 0 0 3.087.233 2.777 2.777 0 0 0 1.067-3.792 2.786 2.786 0 0 0-3.796-1.066zm-.105-8.126a3.074 3.074 0 0 0 1.573 5.82 3.067 3.067 0 0 0 1.16-.316 3.064 3.064 0 0 0 1.388-4.116 3.078 3.078 0 0 0-4.121-1.388zm-16.91 33.299a1.343 1.343 0 0 0 1.063 2.465 1.346 1.346 0 0 0 .706-1.767 1.345 1.345 0 0 0-1.77-.698zM16.496 54.909a3.347 3.347 0 0 0-1.373-6.417c-.439.006-.872.1-1.274.274a3.34 3.34 0 0 0-1.75 4.395 3.35 3.35 0 0 0 4.397 1.748zm3.207-31.258a1.843 1.843 0 0 0 .44-2.57 1.836 1.836 0 0 0-2.571-.44 1.838 1.838 0 0 0-.44 2.575 1.847 1.847 0 0 0 2.571.435zm-3.668 7.201a2.24 2.24 0 0 0 .695-3.09 2.236 2.236 0 1 0-3.777 2.394 2.234 2.234 0 0 0 3.082.696zm-1.742 8.106a2.787 2.787 0 1 0-2.73-4.859 2.786 2.786 0 0 0 2.73 4.859zm.108 8.129a3.074 3.074 0 0 0 1.389-4.12 3.065 3.065 0 0 0-4.123-1.39 3.072 3.072 0 0 0 .383 5.667 3.08 3.08 0 0 0 2.35-.157zm22.933 22.97a1.848 1.848 0 0 0 3.348.663c.271-.409.37-.908.273-1.389a1.851 1.851 0 0 0-2.173-1.447 1.85 1.85 0 0 0-1.448 2.174zm-7.919-1.727a2.23 2.23 0 0 0 2.718 1.615 2.235 2.235 0 1 0-2.718-1.615zm-7.308-3.527a2.772 2.772 0 0 0 3.488 1.83 2.781 2.781 0 0 0 .465-5.127 2.792 2.792 0 0 0-3.764 1.173 2.78 2.78 0 0 0-.189 2.124zm-5.828-5.196a3.064 3.064 0 0 0 3.948 1.815 3.073 3.073 0 0 0-2.13-5.764 3.078 3.078 0 0 0-1.819 3.949zm43.978 2.71a1.443 1.443 0 1 0 1.863 2.203 1.443 1.443 0 0 0-1.863-2.203zm-13.52 5.829a1.446 1.446 0 0 0-.65 2.586 1.44 1.44 0 0 0 1.6.082 1.44 1.44 0 0 0 .501-1.98 1.446 1.446 0 0 0-1.452-.688zm-7.02-57.93a1.441 1.441 0 0 0-1.64-1.215 1.442 1.442 0 1 0 1.369 2.287c.229-.307.326-.692.271-1.071zm-14.504 5.442a1.448 1.448 0 0 0-2.029-.237 1.444 1.444 0 1 0 2.029.237z"/></g><defs><clipPath id="a"><path fill="#fff" d="M0 0h278.552v80H0z"/></clipPath></defs></svg>