<svg width="190" height="42" viewBox="0 0 190 42" fill="none" xmlns="http://www.w3.org/2000/svg">
<g clip-path="url(#clip0_2485_2830)">
<path d="M72.1148 29.0167L70.1521 33.6706H67.4407L74.2799 17.3618H77.6185L84.8219 33.6706H81.9082L79.8645 29.0167H72.1148ZM79.0349 26.7707C77.1531 22.4406 76.2426 20.3767 75.8784 19.2233H75.8581C75.5141 20.3362 74.462 23.0678 72.9039 26.7707H79.0349ZM89.5365 17.3618H92.2277V31.4246H101.9L101.515 33.6706H89.5568V17.3618H89.5365ZM106.614 17.3618H109.305V31.4246H118.977L118.593 33.6706H106.634V17.3618H106.614ZM125.432 17.3618V26.6088C125.432 30.6962 127.779 31.8091 130.127 31.8091C132.919 31.8091 134.639 30.5141 134.639 26.6088V17.3618H137.33V26.6291C137.33 31.8495 134.578 34.0146 130.025 34.0146C125.594 34.0146 122.701 31.8495 122.701 26.791V17.3618H125.432ZM155.177 33.6706L150.158 27.1552H150.118L145.242 33.6706H142.186L148.6 25.3139L142.429 17.3618H145.646L150.3 23.4523L150.32 23.4321L155.015 17.3618H158.03L151.777 25.2329L158.374 33.6706H155.177ZM166.609 17.3618V33.6706H163.898V17.3618H166.609ZM189.797 25.4555C189.797 30.0487 186.681 34.0146 181.117 34.0146C175.795 34.0146 172.538 30.2308 172.538 25.4555C172.538 20.9432 175.896 17.0178 181.218 17.0178C186.519 17.0178 189.797 20.9432 189.797 25.4555ZM175.391 25.415C175.391 28.8144 177.394 31.8091 181.238 31.8091C185.063 31.8091 186.944 28.8346 186.944 25.496C186.944 22.2382 184.982 19.2233 181.076 19.2233C177.434 19.2233 175.391 22.1168 175.391 25.415ZM53.6206 41.0966H41.2575L22.1361 5.64611L4.53225 38.5268H11.6345L24.3416 14.6099L25.7985 17.2606L13.1318 41.0359H0.34375L22.1361 0.344727L42.7548 38.5876H49.4524L32.0509 5.62588L29.8251 9.69297L28.3682 7.08275L32.1116 0.364961L53.6206 41.0966Z" fill="white"/>
<path d="M34.5995 33.5696H19.707L21.0223 31.0605H33.264L34.5995 33.5696Z" fill="white"/>
</g>
<defs>
<clipPath id="clip0_2485_2830">
<rect width="190" height="41.4803" fill="white"/>
</clipPath>
</defs>
</svg>
