<svg xmlns="http://www.w3.org/2000/svg" width="100%" viewbox="0 0 28 28" fill="none" class="social_icon"><g clip-path="url(#clip0_4026_1907)"><g clip-path="url(#clip1_4026_1907)"><path fill-rule="evenodd" clip-rule="evenodd" d="M22.9857 6.00776C23.9759 6.28763 24.7541 7.10925 25.0192 8.15475C25.4981 10.0479 25.5001 14 25.5001 14C25.5001 14 25.5001 17.9522 25.0192 19.8453C24.7541 20.8908 23.9759 21.7124 22.9857 21.9922C21.1928 22.5 14 22.5 14 22.5C14 22.5 6.8073 22.5 5.01433 21.9922C4.02413 21.7124 3.24597 20.8908 2.9809 19.8453C2.5 17.9522 2.5 14 2.5 14C2.5 14 2.5 10.0479 2.9809 8.15475C3.24597 7.10925 4.02413 6.28763 5.01433 6.00776C6.8073 5.5 14 5.5 14 5.5C14 5.5 21.1928 5.5 22.9857 6.00776ZM17.6732 14.0003L11.6978 17.6426V10.358L17.6732 14.0003Z" fill="currentColor"></path></g></g></svg>