<svg width="182" height="32" viewBox="0 0 182 32" fill="none" xmlns="http://www.w3.org/2000/svg">
<g clip-path="url(#clip0_147_2621)">
<path d="M53.9716 9.44991C52.5259 8.86991 51.1529 8.65991 49.6239 8.65991C48.5734 8.65991 46.9924 8.73991 45.8795 9.59991C45.245 10.0799 44.5898 11.0199 44.5898 12.4599C44.5898 13.2699 44.829 14.0299 45.5155 14.6399C46.1499 15.1999 47.1277 15.5499 48.1782 15.8599L49.8112 16.3199C50.2064 16.4199 51.0489 16.6999 51.4962 17.0499C51.9746 17.4299 52.1306 17.9599 52.1306 18.5399C52.1306 19.4799 51.6002 19.9599 51.3401 20.1599C50.8097 20.5399 50.0192 20.6699 49.3327 20.6699C48.043 20.6699 46.41 20.3399 44.9538 19.6299L44.3193 21.3999C45.8691 22.1299 47.4293 22.4399 49.1975 22.4399C51.4129 22.4399 52.5467 21.9099 53.1812 21.4499C53.8884 20.9199 54.6581 19.9299 54.6581 18.1799C54.6581 17.4999 54.5229 16.6099 53.8156 15.8499C53.0563 15.0599 51.9226 14.7399 50.9657 14.4799L49.3535 14.0499C48.9583 13.9499 48.0118 13.6699 47.6373 13.3699C47.1589 12.9899 47.1069 12.4799 47.1069 12.1799C47.1069 11.7499 47.2421 11.2899 47.6581 10.9399C48.2094 10.4799 48.9791 10.4299 49.6655 10.4299C50.6953 10.4299 51.9538 10.5299 53.6492 11.2199L53.9612 9.44991H53.9716Z" fill="#161616"/>
<path d="M59.1102 14.6399C59.1102 13.6999 59.4222 12.1299 60.0879 11.4199C60.9616 10.4599 62.3554 10.4299 62.8546 10.4299C63.5619 10.4299 64.5708 10.5099 65.2573 11.3899C65.7046 11.9499 65.9646 12.9399 65.9438 13.7699L59.1206 14.6299L59.1102 14.6399ZM68.4713 15.1999C68.5025 13.5499 68.2633 11.2499 66.9943 9.97991C65.7774 8.78991 63.9364 8.65991 62.9066 8.65991C61.8769 8.65991 59.7447 8.75991 58.3717 10.0299C56.7387 11.5199 56.6035 14.1099 56.6035 15.5499C56.6035 17.4199 56.7595 19.6999 58.3405 21.1199C59.6823 22.3099 61.5025 22.4399 62.5842 22.4399C64.2484 22.4399 65.9334 22.1899 67.6704 21.3999L67.0359 19.6299C65.0077 20.5699 63.6139 20.6699 62.7922 20.6699C61.8977 20.6699 60.972 20.5399 60.2127 19.7099C59.235 18.6499 59.131 16.8999 59.131 16.4199L68.4609 15.1999H68.4713Z" fill="#161616"/>
<path d="M71.1025 8.96991V22.1399H73.474V13.0199C74.0045 12.1099 74.743 11.5799 75.3982 11.2699C76.2927 10.8599 77.5825 10.7099 78.477 10.7399L78.1649 8.65991C77.1144 8.68991 76.1887 8.88991 75.263 9.31991C74.5765 9.64991 73.9941 9.99991 73.474 10.5899V8.71991L71.1025 8.96991Z" fill="#161616"/>
<path d="M86.4752 19.25L82.5228 8.70996L79.8809 8.96996L85.1023 22.14H87.3697L92.5807 8.96996H90.3236L86.4752 19.25Z" fill="#161616"/>
<path d="M96.0864 14.6399C96.0864 13.6999 96.3985 12.1299 97.0641 11.4199C97.9378 10.4599 99.3316 10.4299 99.8309 10.4299C100.538 10.4299 101.547 10.5099 102.234 11.3899C102.681 11.9499 102.941 12.9399 102.92 13.7699L96.0968 14.6299L96.0864 14.6399ZM105.437 15.1999C105.468 13.5499 105.229 11.2499 103.96 9.97991C102.743 8.78991 100.902 8.65991 99.8725 8.65991C98.8427 8.65991 96.7105 8.75991 95.3375 10.0299C93.7046 11.5199 93.5693 14.1099 93.5693 15.5499C93.5693 17.4199 93.7254 19.6999 95.3063 21.1199C96.6481 22.3099 98.4683 22.4399 99.55 22.4399C101.214 22.4399 102.899 22.1899 104.636 21.3999L104.002 19.6299C101.973 20.5699 100.58 20.6699 99.758 20.6699C98.8635 20.6699 97.9378 20.5399 97.1786 19.7099C96.2008 18.6499 96.0968 16.8999 96.0968 16.4199L105.427 15.1999H105.437Z" fill="#161616"/>
<path d="M108.068 8.96991V22.1399H110.44V13.0199C110.97 12.1099 111.709 11.5799 112.364 11.2699C113.259 10.8599 114.548 10.7099 115.443 10.7399L115.131 8.65991C114.08 8.68991 113.155 8.88991 112.229 9.31991C111.542 9.64991 110.96 9.99991 110.44 10.5899V8.71991L108.068 8.96991Z" fill="#161616"/>
<path d="M126.26 9.44991C124.814 8.86991 123.441 8.65991 121.912 8.65991C120.862 8.65991 119.281 8.73991 118.168 9.59991C117.533 10.0799 116.878 11.0199 116.878 12.4599C116.878 13.2699 117.117 14.0299 117.804 14.6399C118.438 15.1999 119.416 15.5499 120.466 15.8599L122.099 16.3199C122.494 16.4199 123.337 16.6999 123.784 17.0499C124.263 17.4299 124.419 17.9599 124.419 18.5399C124.419 19.4799 123.888 19.9599 123.628 20.1599C123.098 20.5399 122.307 20.6699 121.621 20.6699C120.331 20.6699 118.698 20.3399 117.242 19.6299L116.607 21.3999C118.157 22.1299 119.717 22.4399 121.486 22.4399C123.701 22.4399 124.835 21.9099 125.469 21.4499C126.177 20.9199 126.946 19.9299 126.946 18.1799C126.946 17.4999 126.811 16.6099 126.104 15.8499C125.344 15.0599 124.211 14.7399 123.254 14.4799L121.642 14.0499C121.246 13.9499 120.3 13.6699 119.925 13.3699C119.447 12.9899 119.395 12.4799 119.395 12.1799C119.395 11.7499 119.53 11.2899 119.946 10.9399C120.497 10.4799 121.267 10.4299 121.954 10.4299C122.983 10.4299 124.242 10.5299 125.937 11.2199L126.249 9.44991H126.26Z" fill="#161616"/>
<path d="M129.775 20.8901C129.775 21.7401 130.472 22.4101 131.356 22.4101C132.24 22.4101 132.937 21.7401 132.937 20.8901C132.937 20.0401 132.24 19.3701 131.356 19.3701C130.472 19.3701 129.775 20.0401 129.775 20.8901Z" fill="#161616"/>
<path d="M145.929 9.44991C144.774 8.91991 143.526 8.65991 142.06 8.65991C140.187 8.65991 138.502 9.06991 137.452 9.97991C135.871 11.3699 135.715 13.6999 135.715 15.5499C135.715 17.3999 135.871 19.6999 137.452 21.1199C138.773 22.3099 140.614 22.4399 141.696 22.4399C143.172 22.4399 144.701 22.1899 146.251 21.3999L145.617 19.6299C143.849 20.5899 142.559 20.6699 141.904 20.6699C141.009 20.6699 140.083 20.5399 139.324 19.7099C138.45 18.7699 138.242 17.2799 138.242 15.5599C138.242 13.8399 138.45 12.2899 139.324 11.4099C139.803 10.9299 140.666 10.4499 142.143 10.4499C143.329 10.4499 144.545 10.7499 145.617 11.2399L145.929 9.46991V9.44991Z" fill="#161616"/>
<path d="M150.536 15.5499C150.536 14.8399 150.588 12.4799 151.535 11.3999C152.294 10.5099 153.407 10.4399 154.384 10.4399C155.362 10.4399 156.465 10.5199 157.234 11.3999C158.181 12.4899 158.233 14.8499 158.233 15.5499C158.233 16.2499 158.181 18.6199 157.234 19.6999C156.475 20.5899 155.362 20.6599 154.384 20.6599C153.407 20.6599 152.304 20.5799 151.535 19.6999C150.588 18.6099 150.536 16.2499 150.536 15.5499ZM148.061 15.5499C148.061 17.3499 148.217 19.7599 149.777 21.1499C151.15 22.3899 153.178 22.4399 154.384 22.4399C155.591 22.4399 157.63 22.3899 158.992 21.1499C160.542 19.7599 160.708 17.3499 160.708 15.5499C160.708 13.7499 160.552 11.3399 158.992 9.94991C157.619 8.70991 155.591 8.65991 154.384 8.65991C153.178 8.65991 151.139 8.70991 149.777 9.94991C148.227 11.3399 148.061 13.7499 148.061 15.5499Z" fill="#161616"/>
<path d="M163.403 8.96993V22.1399H165.774V12.8699C166.534 11.3199 167.959 10.4399 169.228 10.4399C170.122 10.4399 170.757 10.8499 171.069 11.3499C171.433 11.9299 171.516 12.7899 171.516 13.7099V22.1499H173.887V12.8799C174.626 11.2599 176.176 10.4499 177.361 10.4499C178.204 10.4499 178.859 10.8599 179.182 11.3399C179.473 11.7499 179.629 12.4299 179.629 13.7199V22.1599H182V13.6699C182 12.2999 181.948 10.7799 180.919 9.76993C180.388 9.25993 179.421 8.67993 177.621 8.67993C175.146 8.67993 173.96 9.78993 173.378 10.5499C172.556 8.77993 170.871 8.67993 169.977 8.67993C168.822 8.67993 167.127 8.90993 165.764 10.4499V8.72993L163.393 8.97993L163.403 8.96993Z" fill="#161616"/>
<path d="M16.6419 32C25.833 32 33.2838 24.8366 33.2838 16C33.2838 7.16344 25.833 0 16.6419 0C7.45083 0 0 7.16344 0 16C0 24.8366 7.45083 32 16.6419 32Z" fill="#EF3340"/>
<path d="M22.7164 15.12H11.015C10.2869 15.12 9.72528 14.54 9.72528 13.86V9.64996C9.72528 8.93996 10.3181 8.38996 11.015 8.38996H23.5693C24.0477 8.38996 24.4326 8.01996 24.4326 7.54996V6.70996H10.5886C9.14281 6.70996 7.98828 7.83996 7.98828 9.24996V14.33C7.98828 15.72 9.14281 16.87 10.5886 16.87H22.2899C23.018 16.87 23.5797 17.45 23.5797 18.13V22.34C23.5797 23.05 22.9868 23.6 22.2899 23.6H9.70448C9.22602 23.6 8.84118 23.97 8.84118 24.44V25.28H22.6852C24.1101 25.28 25.2855 24.15 25.2855 22.74V17.66C25.3167 16.27 24.1309 15.12 22.706 15.12H22.7164Z" fill="white"/>
<path d="M21.0937 21.7601H10.526C10.0372 21.7601 9.65234 21.4101 9.65234 20.9701V19.3601C9.65234 18.9101 10.0372 18.5701 10.526 18.5701H21.0937C21.5825 18.5701 21.9674 18.9201 21.9674 19.3601V20.9701C21.9674 21.3901 21.5825 21.7601 21.0937 21.7601Z" fill="white"/>
<path d="M22.7577 13.44H12.1901C11.7013 13.44 11.3164 13.09 11.3164 12.65V11.04C11.3164 10.59 11.7013 10.25 12.1901 10.25H22.7577C23.2466 10.25 23.6314 10.6 23.6314 11.04V12.65C23.6626 13.07 23.2466 13.44 22.7577 13.44Z" fill="white"/>
</g>
<defs>
<clipPath id="clip0_147_2621">
<rect width="182" height="32" fill="white"/>
</clipPath>
</defs>
</svg>
