<svg width="526" height="395" viewBox="0 0 526 395" fill="none" xmlns="http://www.w3.org/2000/svg">
<rect width="526" height="395" fill="white"/>
<path d="M441.2 235.796H465L430.724 196.562L463.474 159.204H436.778L416.742 183.43L396.865 159.204H369.396L402.171 196.808L398.741 200.712H398.738L398.429 201.064C370.439 193.864 340.194 189.74 307.066 188.57C304.224 188.468 300.762 188.379 296.861 188.303V178.044H346.728V159H274.491V188.027C266.715 187.975 258.528 187.958 250.587 187.978C250.72 186.848 250.79 185.701 250.79 184.528C250.787 170.439 241.131 159.013 221.976 159.013H218.333V159H173.925V191.485C161.856 192.871 150.296 194.685 139.073 196.94C138.597 197.035 138.129 197.137 137.655 197.232L137.427 196.775L118.701 159.21H99.3929L69.5236 218.79L68.9641 219.904L61 235.79H77.9074C79.0456 235.264 80.1996 234.748 81.3601 234.235C95.7368 228.179 110.619 223.24 126.445 219.283L134.826 235.79H156.874L146.459 214.892C155.339 213.203 164.469 211.803 173.925 210.673V236H196.294V208.547C201.642 208.162 207.097 207.85 212.69 207.617C225.642 207.074 251.865 206.93 274.488 207.084V236H296.858H346.725V216.746H296.858V207.364C300.507 207.436 303.75 207.521 306.44 207.617C331.862 208.514 354.813 211.103 376.603 215.53C379.182 216.052 381.735 216.605 384.269 217.176L367.908 235.793H394.601L405.513 222.707C416.831 226.066 427.764 230.006 438.494 234.564C439.4 234.968 440.303 235.379 441.2 235.793V235.796ZM103.892 193.67C104.623 192.138 105.319 190.643 105.977 189.184C106.708 187.725 107.367 186.305 107.952 184.919C108.203 184.324 108.444 183.729 108.683 183.134C108.877 183.65 109.071 184.173 109.268 184.698C109.78 186.013 110.365 187.4 111.023 188.856L113.436 193.67L117.454 201.58L117.623 201.915C110.431 203.815 103.415 205.914 96.5379 208.228L96.6969 207.916L103.892 193.673V193.67ZM196.294 178.044H218.333C225.111 178.044 227.74 181.218 227.74 184.672C227.74 184.781 227.737 184.889 227.731 184.994C227.731 185.057 227.728 185.112 227.721 185.168C227.721 185.178 227.721 185.185 227.718 185.195C227.718 185.274 227.708 185.346 227.702 185.425C227.693 185.51 227.686 185.599 227.673 185.681C227.664 185.737 227.661 185.789 227.648 185.845C227.648 185.858 227.645 185.875 227.639 185.888C227.635 185.924 227.626 185.957 227.623 185.993C227.619 186.033 227.61 186.069 227.6 186.102C227.588 186.171 227.572 186.24 227.553 186.312C227.524 186.457 227.486 186.591 227.445 186.719C227.403 186.854 227.362 186.979 227.311 187.107C227.286 187.173 227.26 187.239 227.232 187.298C227.197 187.383 227.155 187.469 227.117 187.551C227.082 187.62 227.05 187.686 227.012 187.751C227.003 187.768 226.99 187.788 226.977 187.804C226.926 187.903 226.863 188.004 226.799 188.103C226.783 188.129 226.761 188.156 226.745 188.182C220.927 188.277 215.847 188.405 211.946 188.57C206.62 188.793 201.41 189.086 196.291 189.44V178.044H196.294Z" fill="black"/>
</svg>
