<svg xmlns="http://www.w3.org/2000/svg" width="135" height="24" fill="none"><path fill="#FECD37" fill-rule="evenodd" d="M134.401 2.088h-21.655l.543-1.08c.202-.408-.055-.573-.449-.783-.395-.211-.776-.386-.978.02l-.925 1.841H65.76c-.432 0-.432.376-.431.818v.071c0 .44-.001.77.43.77h44.34l-4.681 9.335c-1.089 2.173-2.495 2.62-3.035 2.62-.541 0-.992-.21-1.19-.556-.235-.398-.061-.928.125-1.302l3.113-6.198c.165-.332.008-.479-.249-.72l-.021-.019c-.269-.252-.607-.54-.906-.321-1.034.747-3.002.895-4.453.799a1.82 1.82 0 0 0-.663-.897 1.733 1.733 0 0 0-1.047-.324 1.204 1.204 0 0 0-.894.332 1.31 1.31 0 0 0-.403.887c0 .751.623 1.208 1.338 1.423-1.034 3.34-3.625 6.887-5.796 6.887-.672 0-.895-.317-.956-.417-.3-.505-.188-1.461.276-2.394l2.63-5.355c.203-.407-.056-.572-.449-.78l-.023-.013c-.384-.204-.746-.397-.946.002l-.567 1.162c-.249-.713-1.11-1.46-2.337-1.46-1.917 0-4.25 1.7-5.568 4.941-1.346 3.623-2.295 4.325-3.204 4.325-.524 0-.99-.21-1.19-.556-.234-.398-.06-.928.128-1.302l1.57-3.13c.719-1.432.353-2.446.071-2.922C80.28 6.957 79.3 6.44 78.21 6.44c-.083 0-1.56.02-2.977 1.362v-.01c-.492-.835-1.475-1.352-2.564-1.352-.081 0-1.56.02-2.977 1.362v-.01C69.2 6.957 68.219 6.44 67.13 6.44c-1.225 0-2.56 1.269-3.932 2.683l-.251.257c-.316.322-.061.71.25 1.044.312.334.563.465.879.144l.257-.263.095-.099c.675-.7 2.011-2.086 2.738-2.086.5 0 .956.208 1.156.542.235.399.06.927-.128 1.303l-3.323 6.563c-.202.407.055.572.45.783.394.21.775.386.979-.021l3.43-6.835c1.15-2.296 2.862-2.362 2.925-2.362.627 0 1.301.325 1.301.972.002.313-.08.62-.237.887l-3.27 6.513c-.203.405.056.57.45.78.392.212.774.39.979-.018l3.398-6.772c1.15-2.296 2.863-2.36 2.926-2.362.627 0 1.3.325 1.3.972.001.313-.08.62-.237.887 0 0-.379.751-1.573 3.13-.718 1.432-.354 2.448-.07 2.922.491.835 1.473 1.352 2.561 1.352 1.09 0 2.075-.659 2.933-1.759.486 1.115 1.398 1.76 2.503 1.76 1.168 0 2.17-.627 3.172-1.67.435 1.215 1.503 1.67 2.541 1.67 2.812 0 6.092-3.707 7.408-8.313 1.1.084 2.205.014 3.286-.209l-2.123 4.247c-.718 1.432-.354 2.448-.073 2.922.494.835 1.476 1.352 2.565 1.352.081 0 1.55-.022 2.963-1.35.491.835 1.473 1.35 2.562 1.35 1.665 0 2.973-1.252 3.978-2.725.105.242.232.473.379.69.854 1.253 2.38 2.036 3.985 2.036 3.461 0 6.802-3.404 8.196-8.313 1.1.084 2.206.014 3.287-.209l-2.139 4.247c-.721 1.432-.354 2.448-.073 2.922.492.835 1.475 1.352 2.564 1.352.109 0 2.736-.037 4.351-3.257.192-.386-.018-.498-.378-.689l-.059-.031-.06-.033c-.374-.2-.736-.395-.93-.009-1.149 2.296-2.863 2.358-2.924 2.36-.524 0-.992-.208-1.19-.555-.237-.398-.063-.928.126-1.302l3.112-6.198c.17-.34.014-.501-.263-.752-.277-.25-.607-.528-.913-.308-1.034.747-3.001.895-4.452.799a1.823 1.823 0 0 0-.663-.896 1.736 1.736 0 0 0-1.047-.325c-.721 0-1.299.54-1.299 1.219 0 .751.625 1.208 1.337 1.423-1.224 4.084-3.887 6.887-6.589 6.887-1.089 0-2.111-.51-2.668-1.327a1.976 1.976 0 0 1-.354-.78c1.99 0 6.616-1.009 6.62-4.534 0-1.577-1.058-2.625-2.408-2.625-2.394 0-4.438 1.814-5.616 4.992l-.012.036c-1.375 2.85-2.652 4.236-3.904 4.236-.525 0-.99-.209-1.19-.555-.181-.305-.152-.72.125-1.3l5.06-10.1h22.492c.434 0 .434-.378.433-.823v-.06c.001-.441.001-.76-.433-.76zM85.624 15.702c-.679-.003-1.263-.629-1.263-1.693 0-1.749 2.303-5.875 4.545-5.875.81 0 1.131.593 1.131 1.242-.008 2.17-2.487 6.32-4.413 6.326zm31.654-7.61a.876.876 0 0 1 .696.254.949.949 0 0 1 .277.706c0 1.956-2.93 2.845-4.857 2.805.878-2.435 2.497-3.764 3.876-3.764h.008zM59.534 2.86c-1.613 0-2.738 1.056-2.738 2.569 0 1.323 1.042 2.556 2.255 3.99l.004.004c1.619 1.883 3.44 4.013 3.44 7.117 0 3.773-3.459 6.73-7.872 6.73a10.828 10.828 0 0 1-6.794-2.452c-.348-.292-.199-.56.077-.918.275-.36.572-.666.92-.382a9.23 9.23 0 0 0 5.803 2.087c3.462 0 6.274-2.275 6.274-5.072 0-2.469-1.542-4.273-3.03-6.013l-.006-.008-.005-.005c-1.374-1.609-2.673-3.13-2.673-5.078 0-2.409 1.868-4.226 4.345-4.226 1.512 0 2.443.68 2.955 1.252.586.637.925 1.474.951 2.352 0 1.269-.483 2.358-1.522 3.401-.317.322-.678.149-.99-.177-.31-.325-.455-.682-.137-1.004.919-.93 1.042-1.644 1.042-2.22 0-.61-.578-1.947-2.299-1.947zM33.322 15.702c.536 0 2.058-.706 3.37-4.274 1.161-3.13 3.232-4.992 5.818-4.988.288-.013.577.036.846.144.269.107.513.272.718.482a2.19 2.19 0 0 1 .609 1.611c0 .862-.394 1.943-1.499 2.987-.326.31-.53.098-.832-.24-.301-.338-.583-.668-.257-.98.733-.696.988-1.414.988-1.781.002-.282-.184-.566-.727-.566-1.269 0-3.041.979-4.157 3.913-.748 1.968.013 3.696 1.462 3.696 2.4 0 6.105-3.268 7.836-6.593l3.44-6.85c.205-.406.585-.229.98-.018.394.21.651.376.45.78L48.59 10.54a6.1 6.1 0 0 0 2.435-.7 6.284 6.284 0 0 0 1.966-1.64c.29-.346.561-.117.897.182.336.298.611.555.32.901-1.666 1.991-3.528 2.647-4.993 2.855 1.022 1.91 2.718 4.67 5.296 4.67.83 0 1.716-.337 2.651-.976.37-.252.577.009.822.39.245.382.437.741.067.994-1.22.835-2.427 1.252-3.598 1.252-3.637 0-5.867-3.936-6.851-5.927l-2.356 4.692c-.204.407-.583.231-.977.02l-.104-.054c-.339-.177-.562-.293-.378-.663l.74-1.476c-.94.962-2.743 2.296-4.856 2.296a3.2 3.2 0 0 1-1.819-.582 3.353 3.353 0 0 1-1.195-1.528c-1.341 1.901-2.647 2.11-3.365 2.11-1.073-.015-2.036-.53-2.522-1.353l-.01-.014c-1.301 1.118-2.344 1.367-2.981 1.367-1.089 0-2.07-.518-2.562-1.353-1.215 1.094-2.344 1.355-2.965 1.355-1.089 0-2.07-.518-2.562-1.352-.284-.474-.648-1.49.07-2.922l2.113-4.23c-1.08.23-2.186.308-3.286.231-1.283 4.46-4.54 8.041-7.355 8.041-.428 0-.427-.348-.427-.788v-.094c0-.439 0-.787.427-.787 1.814 0 4.544-2.697 5.746-6.629-.713-.212-1.32-.657-1.32-1.408a1.312 1.312 0 0 1 .404-.889 1.233 1.233 0 0 1 .895-.332c.374-.008.74.106 1.048.326.307.22.539.533.663.897 1.426.094 3.38-.067 4.442-.835.303-.22.65.058.927.309.277.25.419.411.249.751l-3.113 6.199c-.186.373-.36.903-.125 1.302.2.346.665.555 1.19.555.655 0 2.147-.655 3.035-2.62l3.18-6.329c.204-.407.583-.232.977-.02.395.21.652.375.45.782l-3.174 6.33c-.188.373-.362.903-.125 1.302.198.346.666.555 1.188.555.655 0 2.171-.655 3.062-2.62l3.18-6.329c.201-.407.582-.228.977-.019.394.209.651.374.449.78l-3.18 6.33c-.186.374-.36.904-.125 1.303.2.346.654.555 1.19.555zM4.596 22.685c-.393-.211-.65-.376-.447-.78l9.1-18.157H.432C0 3.748 0 3.418 0 2.978v-.071c0-.442 0-.818.431-.818h46.574c.433 0 .433.348.433.805v.03c0 .444 0 .824-.433.824H15.061L5.576 22.666c-.205.405-.587.23-.98.019z" clip-rule="evenodd"/></svg>