<svg xmlns="http://www.w3.org/2000/svg" width="512" height="512" viewBox="0 0 512 512" fill="none">
  <g clip-path="url(#a)">
    <rect width="512" height="512" rx="45" fill="#F7F7F7"/>
    <path d="M331.769 256.002 356.98 230.791H189.39c-2.799 0-5.93.792-8.885 2.123-2.808 1.265-5.455 3.02-7.507 5.042l-.252.242-10.201 10.407-.111.116a25.2 25.2 0 0 0-4.921 7.276 25.3 25.3 0 0 0-2.218 10.356v80.13c0 3.605.771 7.124 2.218 10.356a25.4 25.4 0 0 0 5.027 7.392l10.201 10.407a25 25 0 0 0 7.759 5.289c2.955 1.331 6.086 2.123 8.88 2.123h167.59v-50.421H205.706v-50.422H296.57c4.528 0 8.925-1.28 12.711-3.635a25.5 25.5 0 0 0 6.197-5.294l16.281-16.281.01.005Z" fill="#231F20"/>
    <path d="M331.771 129.949h-142.38c-5.567 0-12.454 3.136-16.649 7.412l-10.2 10.407a25.2 25.2 0 0 0-7.251 17.748v14.855h201.685v-50.422h-25.205Z" fill="#231F20"/>
  </g>
  <defs><clipPath id="a"><rect width="512" height="512" fill="#fff"/></clipPath></defs>
</svg>
