<svg xmlns="http://www.w3.org/2000/svg" width="455" height="100" fill="currentColor" viewBox="0 0 455 100" role="img" aria-label="Encube Logo">
  <g clip-path="url(#a)">
    <path d="M406.933 45.68c2.123-4.044 5.055-7.077 8.896-9.301s8.189-3.336 13.142-3.336 9.301 1.011 13.143 3.033 6.773 4.954 8.997 8.593c2.224 3.74 3.336 8.087 3.437 13.041 0 1.415-.101 2.73-.303 4.145h-39.022v.607c.202 4.549 1.617 8.088 4.246 10.716 2.527 2.628 5.964 3.943 10.21 3.943 3.336 0 6.167-.708 8.492-2.325 2.224-1.618 3.741-3.842 4.549-6.773h10.919c-1.011 5.257-3.539 9.604-7.684 12.94-4.145 3.437-9.3 5.055-15.467 5.055-5.459 0-10.11-1.011-14.153-3.235s-7.077-5.257-9.301-9.301c-2.224-3.943-3.235-8.593-3.235-13.85s1.011-9.907 3.134-13.951zm36.495 8.189q-.759-5.61-4.549-8.795c-3.79-3.185-5.662-3.235-9.503-3.235-3.64 0-6.672 1.112-9.301 3.336s-4.044 5.055-4.448 8.694zM386.35 36.283c3.64 2.123 6.572 5.156 8.695 9.099 2.022 4.044 3.134 8.694 3.134 14.153 0 5.257-1.112 9.806-3.134 13.85-2.123 4.044-5.055 7.077-8.695 9.301-3.74 2.224-7.986 3.336-12.636 3.336q-5.763 0-10.009-2.123c-4.246-2.123-5.156-3.437-6.874-5.965l-1.314 7.481h-9.503V14.648h10.918v26.689c4.044-5.459 9.705-8.29 16.782-8.29 4.65 0 8.896 1.112 12.636 3.235zm-3.538 35.788c2.831-3.235 4.246-7.38 4.246-12.536 0-5.055-1.415-9.099-4.246-12.333s-6.47-4.853-10.918-4.853c-4.549 0-8.189 1.617-10.918 4.752-2.831 3.235-4.145 7.279-4.145 12.334 0 5.156 1.314 9.301 4.145 12.536q4.094 4.853 10.918 4.853c4.448 0 8.088-1.516 10.918-4.751z"/>
    <use href="#b"/><use href="#b"/>
    <path d="M273.031 80.962c-4.246 3.437-9.604 5.055-16.074 5.055-5.156 0-9.705-1.011-13.547-3.235q-5.913-3.336-9.098-9.402c-3.185-6.066-3.134-8.694-3.134-13.951s1.011-9.806 3.235-13.85c2.123-3.943 5.156-6.975 9.098-9.2s8.492-3.336 13.749-3.336c6.47 0 11.727 1.719 15.872 5.156 4.044 3.437 6.672 7.986 7.683 13.85h-11.221c-.809-2.932-2.224-5.257-4.448-7.077-2.225-1.719-4.954-2.628-8.189-2.628-4.448 0-7.987 1.617-10.615 4.751-2.629 3.235-3.943 7.279-3.943 12.334 0 5.156 1.314 9.301 3.943 12.536s6.167 4.751 10.615 4.751c3.336 0 6.167-.809 8.391-2.629s3.639-4.246 4.347-7.279h11.12c-1.011 6.066-3.639 10.716-7.784 14.153zM119.762 14.648h46.2V24.96h-34.574v19.612h28.508V54.58h-28.508v20.522h35.787v10.312h-47.413zm98.302 24.056c3.842 3.842 5.864 9.907 5.864 18.197V85.41h-11.02V57.508c0-4.853-1.112-8.593-3.134-11.221-2.123-2.527-5.155-3.842-9.199-3.842-4.347 0-7.784 1.516-10.211 4.549s-3.639 7.077-3.639 12.334V85.41h-10.918V33.65h9.503l1.213 6.773c3.841-4.853 9.401-7.38 16.579-7.38 6.066 0 11.121 1.921 14.962 5.661M69.683 49.771l9.954-9.954H13.465c-1.105 0-2.341.313-3.508.838-1.109.5-2.154 1.192-2.964 1.991l-.1.096-4.028 4.109-.044.046A10 10 0 0 0 .878 49.77a10 10 0 0 0-.876 4.089v31.639a10 10 0 0 0 .876 4.089 10 10 0 0 0 1.465 2.341l.52.577 4.028 4.109a9 9 0 0 0 1.041.904 11 11 0 0 0 2.023 1.185c1.167.525 2.403.838 3.506.838h66.173V79.632H19.907V59.723h35.877a9.5 9.5 0 0 0 5.019-1.435l.08-.05.205-.131a10 10 0 0 0 2.162-1.909l6.429-6.429zM69.685 0H13.466c-2.198 0-4.918 1.238-6.574 2.927L2.865 7.036a10.01 10.01 0 0 0-2.863 7.008v5.865h79.636V0h-9.954z"/>
  </g>
  <defs><clipPath id="a"><path d="M0 0h454.545v100H0z"/></clipPath><path id="b" d="M335.137 33.656v51.761h-9.604l-1.213-6.571c-3.943 4.853-9.301 7.178-15.973 7.178-6.066 0-11.019-1.82-14.76-5.661-3.842-3.74-5.661-9.806-5.661-18.197v-28.51h10.918v27.397q0 7.582 3.033 11.525c3.033 3.943 4.953 3.943 8.997 3.943 4.145 0 7.38-1.516 9.806-4.549 2.326-3.033 3.539-7.279 3.539-12.637V33.656z"/></defs>
</svg>
