<svg xmlns="http://www.w3.org/2000/svg" fill="none" viewbox="0 0 166 33" data-v-c6e6d8b4><path fill="#151514" d="M.442 31.922V.888h12.417c7.713 0 12.981 3.15 12.981 11.395v8.337c0 7.967-5.268 11.302-12.793 11.302H.442Zm5.644-4.724h6.49c4.986 0 7.714-1.668 7.714-6.856v-7.966c0-4.447-2.258-6.763-7.807-6.763H6.085v21.585Zm21.73-5.744V19.51c0-6.948 4.232-10.654 10.817-10.654 6.773 0 10.441 4.076 10.441 10.376v2.686h-15.52v.834c0 2.409 1.787 5.003 5.08 5.003 2.915 0 4.138-.927 4.797-2.687h5.455c-.752 4.91-4.985 7.319-10.441 7.319-6.209 0-10.63-3.336-10.63-10.932Zm5.738-2.964h10.065c0-3.057-1.505-5.28-4.986-5.28-3.198 0-5.08 2.223-5.08 5.28Zm17.026 6.577h5.456c.376 2.409 2.351 3.15 4.891 3.15 1.975 0 4.233-.37 4.233-2.594 0-2.038-1.6-2.224-6.96-3.15-4.328-.834-7.056-2.594-7.056-6.762 0-4.54 3.763-6.856 9.219-6.856 5.926 0 9.594 1.853 9.97 7.411h-5.737c0-2.501-1.506-3.15-4.14-3.15-2.163 0-3.48.834-3.48 2.317 0 1.945 1.035 2.316 3.01 2.686 6.397 1.204 10.724 1.853 10.724 7.319 0 5.28-4.233 6.948-9.783 6.948-5.926 0-9.877-2.224-10.347-7.319Zm20.506-11.302V9.318h3.387v-5.65h5.55v5.65h5.832v4.447h-5.832v11.024c0 1.853.846 2.501 2.822 2.501h3.01v4.632h-5.268c-4.233 0-6.114-1.852-6.114-6.67V13.765h-3.387Zm16.838 18.157V9.318h5.55v22.604h-5.55Zm0-25.66V.887h5.55v5.373h-5.55Zm7.808 25.66V9.318h5.55v3.891h.188c1.129-2.594 3.386-4.354 6.961-4.354 4.891 0 7.525 3.15 7.525 8.06v15.007h-5.55V18.397c0-3.242-.752-4.817-4.045-4.817-2.916 0-5.079 1.945-5.079 5.466v12.876h-5.55Zm22.294-7.503v-15.1h5.55v13.803c0 2.779 1.222 4.817 4.045 4.817 2.916 0 4.797-2.872 4.797-6.114V9.318h5.55v22.604h-5.55v-4.354h-.188c-1.317 3.243-3.481 4.818-6.773 4.818-4.892 0-7.431-3.15-7.431-7.967Zm21.729.648h5.456c.094 2.409 2.352 3.15 4.892 3.15 1.975 0 4.233-.37 4.233-2.594 0-2.038-1.6-2.224-6.961-3.15-4.328-.834-7.055-2.594-7.055-6.762 0-4.54 3.762-6.856 9.218-6.856 5.926 0 9.595 1.853 9.971 7.411h-5.738c0-2.501-1.505-3.15-4.139-3.15-2.163 0-3.48.834-3.48 2.317 0 1.945 1.034 2.316 3.01 2.686 6.396 1.204 10.723 1.853 10.723 7.319 0 5.28-4.233 6.948-9.782 6.948-5.927 0-9.783-2.41-10.348-7.319Zm20.413-18.806V.888h5.55v5.373h-5.55Z" data-v-c6e6d8b4></path></svg>