<svg width="107" height="31" viewBox="0 0 107 31" fill="none" xmlns="http://www.w3.org/2000/svg">
<path fill-rule="evenodd" clip-rule="evenodd" d="M100.524 28.5949C98.4765 29.8827 96.0087 30.6353 93.3537 30.6353C86.2548 30.6353 80.5004 25.2591 80.5004 18.6272C80.5004 11.9954 86.2548 6.61918 93.3537 6.61918C95.6948 6.61918 97.8903 7.20351 99.7794 8.22466V4.57119C99.7794 2.54778 101.079 0.755084 103 0.123479C104.286 -0.300112 105.672 0.401461 106.095 1.68736C106.177 1.93509 106.218 2.19416 106.218 2.45512L106.209 15.2782L106.218 28.1769C106.218 28.4379 106.177 28.697 106.095 28.9447C105.672 30.2306 104.288 30.9322 103 30.5086C101.954 30.1644 101.092 29.4761 100.524 28.593V28.5949ZM93.3537 24.6313C96.9032 24.6313 99.7794 21.9441 99.7794 18.6272C99.7794 15.3104 96.9013 12.6232 93.3537 12.6232C89.8061 12.6232 86.928 15.3104 86.928 18.6272C86.928 21.9441 89.8061 24.6313 93.3537 24.6313ZM12.7995 13.0789L17.4647 7.95425C19.0437 6.54353 21.1257 6.22773 22.4438 7.11841C22.6707 7.27158 23.0962 7.71787 23.2569 7.95425C23.9509 8.98675 23.9509 10.1062 23.2569 10.8891L16.8633 17.9654C16.5362 18.3266 16.5381 18.8769 16.8652 19.2361L23.3912 26.4013C23.8639 26.9686 23.8639 28.0994 23.3912 29.0752C23.2248 29.4175 22.5421 30.068 22.2565 30.2212C20.6322 31.0854 18.5785 30.414 17.2699 29.0752L12.7957 24.0337C12.4497 23.6423 11.8521 23.6082 11.4606 23.9543C11.4342 23.977 11.4096 24.0015 11.3869 24.028L6.97322 28.9126C5.47742 30.4405 3.6469 31.0438 1.86743 30.2552C1.57811 30.1266 1.19612 29.8013 0.978649 29.5517C0.161722 28.6176 0.127684 26.91 0.746052 26.3162L7.30793 19.1076C7.63887 18.7445 7.63508 18.1866 7.30037 17.8254L0.842494 10.9005C0.159831 10.1403 0.159831 8.9546 0.842494 7.96559C1.02025 7.70841 1.47788 7.21674 1.73317 7.06924C3.21385 6.20882 5.36584 6.61539 6.70091 8.05825L11.4096 13.0884C11.767 13.4704 12.3646 13.4893 12.7465 13.1319C12.7655 13.1149 12.7825 13.096 12.7995 13.0789ZM44.6747 11.0404C44.6747 9.03781 46.0041 7.27726 47.9292 6.72696C48.158 6.66267 48.3925 6.62863 48.6308 6.62863C50.0415 6.62863 51.1856 7.77271 51.1856 9.18342V18.44C51.1856 25.0757 45.4709 30.6164 38.4211 30.6164C31.3713 30.6164 25.6566 25.0757 25.6566 18.44V9.10588C25.6566 8.8695 25.6907 8.63691 25.7568 8.40998C26.1407 7.09572 27.5174 6.34309 28.8317 6.72696C30.7132 7.27726 32.0067 9.00377 32.0067 10.9629V18.44C32.0067 21.7323 34.8433 24.5651 38.3417 24.5651C41.8401 24.5651 44.6766 21.7323 44.6766 18.44V11.0404H44.6747ZM59.5893 26.1933C59.5893 28.1959 58.2599 29.9564 56.3348 30.5067C56.106 30.571 55.8715 30.605 55.6333 30.605C54.2226 30.605 53.0785 29.461 53.0785 28.0502V18.684C53.0785 12.0483 58.7989 6.61918 65.8486 6.61918C72.8984 6.61918 78.6074 12.0483 78.6074 18.684V28.1278C78.6074 28.3642 78.5734 28.5968 78.5072 28.8237C78.1233 30.1379 76.7467 30.8906 75.4324 30.5067C73.5508 29.9564 72.2573 28.2299 72.2573 26.2708V18.684C72.2573 15.3917 69.4265 12.6705 65.9281 12.6705C62.4296 12.6705 59.5874 15.3917 59.5874 18.684V26.1933H59.5893Z" fill="#191B46"/>
</svg>
