<?xml version="1.0" encoding="UTF-8"?>
<svg xmlns="http://www.w3.org/2000/svg" width="32" height="32" viewBox="0 0 32 32" fill="none">
  <path fill-rule="evenodd" clip-rule="evenodd" d="M31.7195 0H15.4483C15.2987 0 15.1864 0.112285 15.1864 0.261993V14.6526C15.1864 14.9521 14.9433 15.1953 14.6441 15.1953H0.261837C0.112217 15.1953 0 15.3076 0 15.4573V31.738C0 31.8877 0.112217 32 0.261837 32H16.533C16.6826 32 16.7949 31.8877 16.7949 31.738V17.3287C16.8136 17.048 17.038 16.8234 17.3185 16.8047H31.7382C31.8878 16.8047 32 16.6924 32 16.5427V0.261993C31.9813 0.112285 31.8504 0 31.7195 0Z" fill="#1D9CFF"></path>
</svg>
