<svg role="img" aria-labelledby="logo-title" width="130" height="22" viewbox="0 0 130 22" fill="none" xmlns="http://www.w3.org/2000/svg">
  <title id="logo-title">Infinitus logo</title>
  <path d="M26.1276 0.316406H29.6417C29.7139 0.316406 29.7621 0.376682 29.7621 0.436957V20.786C29.7621 20.8583 29.7019 20.9065 29.6417 20.9065H26.1276C26.0554 20.9065 26.0072 20.8463 26.0072 20.786V0.449013C25.9952 0.376683 26.0554 0.316406 26.1276 0.316406Z" fill="black"></path>
  <path d="M32.6384 6.21139H35.7193C35.7915 6.21139 35.8517 6.28372 35.8396 6.35605C35.635 7.39279 35.262 8.42953 34.7084 9.45421C34.6963 9.46627 34.6963 9.49038 34.6963 9.51449V9.62298C34.6963 9.69531 34.7565 9.74353 34.8167 9.74353H35.948C36.0081 9.74353 36.0563 9.70737 36.0683 9.64709C36.3451 8.47775 36.9228 7.5495 37.7772 6.87442C38.6558 6.17522 39.763 5.82562 41.0989 5.82562C42.6995 5.82562 43.927 6.33194 44.7574 7.35662C45.5878 8.38131 46.0091 9.81586 46.0091 11.6844V20.7981C46.0091 20.8704 45.9489 20.9186 45.8887 20.9186H42.6393C42.5671 20.9186 42.519 20.8583 42.519 20.7981V12.2148C42.519 9.96053 41.5802 8.82734 39.7028 8.82734C38.6678 8.82734 37.8013 9.22516 37.1153 10.0329C36.4293 10.8405 36.0803 11.8773 36.0563 13.1551V20.7981C36.0563 20.8704 35.9961 20.9186 35.9359 20.9186H32.6625C32.5902 20.9186 32.5421 20.8583 32.5421 20.7981V6.33194C32.518 6.25961 32.5662 6.21139 32.6384 6.21139Z" fill="black"></path>
  <path d="M60.6674 0.436957V3.69184C60.6674 3.75211 60.7156 3.81239 60.7878 3.81239H64.0372C64.0974 3.81239 64.1575 3.76417 64.1575 3.69184V0.436957C64.1575 0.376682 64.1094 0.316406 64.0372 0.316406H60.7878C60.7156 0.316406 60.6674 0.376682 60.6674 0.436957Z" fill="black"></path>
  <path d="M54.5417 6.21157C54.4695 6.21157 54.4214 6.1513 54.4214 6.09102V4.98195C54.4214 4.33097 54.5297 3.89699 54.7463 3.66794C54.9629 3.43889 55.3721 3.3304 55.9739 3.3304H58.4049C58.4771 3.3304 58.5252 3.27012 58.5252 3.20985V0.449225C58.5252 0.376895 58.4651 0.328674 58.4049 0.328674H54.8306C53.615 0.328674 52.6643 0.714438 51.9663 1.47391C51.2683 2.23338 50.9192 3.29423 50.9192 4.62029V6.09102C50.9192 6.16335 50.8591 6.21157 50.7989 6.21157H47.8022C47.73 6.21157 47.6819 6.27185 47.6819 6.33212V8.97219C47.6819 9.04452 47.7421 9.09274 47.8022 9.09274H50.7989C50.8711 9.09274 50.9192 9.15302 50.9192 9.21329V20.7862C50.9192 20.8585 50.9794 20.9068 51.0396 20.9068H54.289C54.3612 20.9068 54.4093 20.8465 54.4093 20.7862V9.21329C54.4093 9.14096 54.4695 9.09274 54.5297 9.09274H60.6554V20.7862C60.6554 20.8585 60.7156 20.9068 60.7758 20.9068H64.0252C64.0974 20.9068 64.1455 20.8465 64.1455 20.7862V6.32007C64.1455 6.24774 64.0853 6.19951 64.0252 6.19951H54.5417V6.21157Z" fill="black"></path>
  <path d="M67.2987 6.21139H70.3796C70.4518 6.21139 70.5119 6.28372 70.4999 6.35605C70.2953 7.39279 69.9222 8.42953 69.3686 9.45421C69.3566 9.46627 69.3566 9.49038 69.3566 9.51449V9.62298C69.3566 9.69531 69.4168 9.74353 69.4769 9.74353H70.6082C70.6684 9.74353 70.7165 9.70737 70.7286 9.64709C71.0054 8.47775 71.583 7.5495 72.4375 6.87442C73.316 6.17522 74.4233 5.82562 75.7591 5.82562C77.3598 5.82562 78.5873 6.33194 79.4177 7.35662C80.2481 8.38131 80.6693 9.81586 80.6693 11.6844V20.7981C80.6693 20.8704 80.6091 20.9186 80.549 20.9186H77.2996C77.2274 20.9186 77.1792 20.8583 77.1792 20.7981V12.2148C77.1792 9.96053 76.2405 8.82734 74.3631 8.82734C73.3281 8.82734 72.4616 9.22516 71.7756 10.0329C71.0896 10.8405 70.7406 11.8773 70.7165 13.1551V20.7981C70.7165 20.8704 70.6564 20.9186 70.5962 20.9186H67.3227C67.2505 20.9186 67.2024 20.8583 67.2024 20.7981V6.33194C67.1783 6.25961 67.2264 6.21139 67.2987 6.21139Z" fill="black"></path>
  <path d="M83.4734 0.316406H86.7228C86.783 0.316406 86.8432 0.364627 86.8432 0.436957V3.69184C86.8432 3.75211 86.795 3.81239 86.7228 3.81239H83.4734C83.4132 3.81239 83.3531 3.76417 83.3531 3.69184V0.436957C83.3531 0.376682 83.4012 0.316406 83.4734 0.316406ZM83.5336 6.21136H86.783C86.8552 6.21136 86.9033 6.27163 86.9033 6.33191V20.798C86.9033 20.8704 86.8432 20.9186 86.783 20.9186H83.5336C83.4614 20.9186 83.4132 20.8583 83.4132 20.798V6.33191C83.4132 6.25958 83.4734 6.21136 83.5336 6.21136Z" fill="black"></path>
  <path d="M92.8004 19.8577C92.1626 19.1465 91.8497 18.158 91.8497 16.8801V9.1769C91.8497 9.10457 91.7895 9.05635 91.7293 9.05635H88.9493C88.8771 9.05635 88.8289 8.99608 88.8289 8.9358V6.3319C88.8289 6.25957 88.8891 6.21135 88.9493 6.21135H91.8135C91.8858 6.21135 91.9339 6.15107 91.9339 6.0908V2.20905C91.9339 2.13672 91.9941 2.0885 92.0542 2.0885H94.9306C95.0028 2.0885 95.0509 2.14878 95.0509 2.20905V6.07874C95.0509 6.15107 95.1111 6.19929 95.1713 6.19929H98.878C98.9502 6.19929 98.9983 6.25957 98.9983 6.31985V8.92375C98.9983 8.99608 98.9382 9.0443 98.878 9.0443H95.2675C95.1953 9.0443 95.1472 9.10458 95.1472 9.16485V16.3376C95.1472 16.9645 95.2435 17.3864 95.436 17.5914C95.6286 17.7963 96.0257 17.9048 96.6154 17.9048H99.5399C99.6121 17.9048 99.6602 17.9651 99.6602 18.0254V20.786C99.6602 20.8583 99.6001 20.9065 99.5399 20.9065H95.6166C94.377 20.9186 93.4382 20.569 92.8004 19.8577Z" fill="black"></path>
  <path d="M103.09 19.7734C102.26 18.7487 101.839 17.3141 101.839 15.4456V6.33192C101.839 6.25959 101.899 6.21136 101.959 6.21136H105.208C105.28 6.21136 105.329 6.27164 105.329 6.33192V14.9152C105.329 17.1695 106.255 18.3026 108.121 18.3026C109.156 18.3026 110.022 17.9048 110.72 17.0971C111.418 16.2894 111.767 15.2527 111.791 13.9749V6.33192C111.791 6.25959 111.851 6.21136 111.912 6.21136H115.185C115.257 6.21136 115.305 6.27164 115.305 6.33192V20.798C115.305 20.8704 115.245 20.9186 115.185 20.9186H112.104C112.032 20.9186 111.972 20.8463 111.984 20.7739C112.188 19.7372 112.562 18.7005 113.115 17.6758C113.127 17.6637 113.127 17.6396 113.127 17.6155V17.507C113.127 17.4347 113.067 17.3864 113.007 17.3864H111.876C111.815 17.3864 111.767 17.4226 111.755 17.4829C111.454 18.6763 110.877 19.6046 110.034 20.2676C109.168 20.9548 108.048 21.2923 106.701 21.2923C105.124 21.3044 103.921 20.786 103.09 19.7734Z" fill="black"></path>
  <path d="M119.229 19.9662C118.134 19.0983 117.52 17.8686 117.4 16.2894C117.4 16.2171 117.448 16.1568 117.52 16.1568H120.685C120.745 16.1568 120.793 16.205 120.805 16.2653C120.902 16.9766 121.203 17.5552 121.72 18.0013C122.262 18.4593 123.008 18.6884 123.971 18.6884C124.777 18.6884 125.391 18.5317 125.836 18.2062C126.281 17.8807 126.498 17.4347 126.498 16.8681C126.498 16.4582 126.39 16.1327 126.185 15.8796C125.98 15.6384 125.607 15.4094 125.078 15.2165C124.548 15.0236 123.742 14.7946 122.671 14.5414C120.95 14.1316 119.71 13.6132 118.952 12.9863C118.194 12.3595 117.821 11.4674 117.821 10.3101C117.821 8.93581 118.362 7.85085 119.445 7.04316C120.529 6.23547 121.961 5.83765 123.718 5.83765C125.583 5.83765 127.015 6.28368 128.026 7.18782C129.001 8.06784 129.555 9.22513 129.675 10.6717C129.675 10.7441 129.627 10.8043 129.555 10.8043H126.51C126.45 10.8043 126.39 10.7561 126.39 10.6959C126.221 9.20102 125.318 8.4536 123.694 8.4536C122.911 8.4536 122.31 8.61032 121.889 8.9117C121.467 9.21308 121.263 9.6109 121.263 10.1052C121.263 10.5391 121.455 10.8767 121.852 11.1178C122.25 11.3589 123.02 11.612 124.175 11.8652C125.643 12.2027 126.787 12.5523 127.617 12.926C128.435 13.2998 129.037 13.782 129.422 14.3727C129.807 14.9634 130 15.7228 130 16.6631C130 18.1097 129.446 19.255 128.339 20.0747C127.232 20.8945 125.788 21.3164 124.007 21.3164C121.949 21.3044 120.36 20.8583 119.229 19.9662Z" fill="black"></path>
  <path fill-rule="evenodd" clip-rule="evenodd" d="M20.411 0.316406H9.94075C9.84447 0.316406 9.77226 0.38874 9.77226 0.485181V9.75556C9.77226 9.94844 9.61581 10.1052 9.42326 10.1052H0.168488C0.07221 10.1052 0 10.1775 0 10.2739V20.7619C0 20.8583 0.07221 20.9306 0.168488 20.9306H10.6388C10.7351 20.9306 10.8073 20.8583 10.8073 20.7619V11.4794C10.8193 11.2986 10.9637 11.154 11.1442 11.1419H20.4231C20.5193 11.1419 20.5916 11.0696 20.5916 10.9731V0.485181C20.5795 0.38874 20.4953 0.316406 20.411 0.316406Z" fill="#1D9CFF"></path>
</svg>