<?xml version="1.0" encoding="UTF-8" standalone="no"?>
<!DOCTYPE svg PUBLIC "-//W3C//DTD SVG 1.1//EN" "http://www.w3.org/Graphics/SVG/1.1/DTD/svg11.dtd">
<svg width="100%" height="100%" viewBox="0 0 412 52" version="1.1" xmlns="http://www.w3.org/2000/svg" xmlns:xlink="http://www.w3.org/1999/xlink" xml:space="preserve" xmlns:serif="http://www.serif.com/" style="fill-rule:evenodd;clip-rule:evenodd;stroke-linejoin:round;stroke-miterlimit:2;">
    <g transform="matrix(1,0,0,1,-190.495,-280.459)">
        <g id="Logo">
            <g id="V1">
                <g>
                    <g>
                        <g>
                            <path d="M229.728,306.829L199.347,322.816L199.347,331.54L190.495,331.54L190.495,286.509L199.347,286.509L199.347,312.814L250.429,286.509L268.328,286.509L238.519,302.177L269.475,331.54L255.781,331.54L229.729,306.829L229.728,306.829Z" style="fill:white;fill-rule:nonzero;"/>
                            <path d="M345.299,323.007L345.299,331.541L277.784,331.541L277.784,286.51L286.64,286.51L286.64,323.007L345.3,323.007L345.299,323.007Z" style="fill:white;fill-rule:nonzero;"/>
                            <path d="M431.981,286.51L444.657,286.51L478.543,324.663L512.363,286.51L525.039,286.51L484.528,331.541L472.493,331.541L431.982,286.51L431.981,286.51Z" style="fill:white;fill-rule:nonzero;"/>
                            <path d="M527.621,318.103L527.621,299.886C527.621,292.499 533.609,286.51 540.997,286.51L588.068,286.51C595.455,286.51 601.506,292.498 601.506,299.886L601.506,318.103C601.506,325.49 595.455,331.541 588.068,331.541L540.997,331.541C533.61,331.541 527.621,325.49 527.621,318.103ZM587.749,323.007C590.423,323.007 592.653,320.777 592.653,318.103L592.653,299.886C592.653,297.212 590.488,295.044 587.749,295.044L541.315,295.044C538.704,295.044 536.473,297.212 536.473,299.886L536.473,318.103C536.473,320.777 538.766,323.007 541.315,323.007L587.749,323.007Z" style="fill:white;fill-rule:nonzero;"/>
                        </g>
                        <path d="M352.335,318.55L352.335,286.51L361.187,286.51L361.187,318.55C361.187,321.033 363.161,323.007 365.644,323.007L412.905,323.007C415.388,323.007 417.366,321.033 417.366,318.55L417.366,286.51L426.215,286.51L426.215,318.55C426.215,325.747 420.421,331.541 413.224,331.541L365.329,331.541C358.129,331.541 352.334,325.747 352.334,318.55L352.335,318.55Z" style="fill:white;fill-rule:nonzero;"/>
                    </g>
                    <g>
                        <rect x="376.796" y="280.459" width="9.076" height="9.076" style="fill:rgb(72,249,244);"/>
                        <rect x="392.68" y="280.459" width="9.076" height="9.076" style="fill:rgb(72,249,244);"/>
                    </g>
                </g>
            </g>
        </g>
    </g>
</svg>
