<svg xmlns="http://www.w3.org/2000/svg" width="1200" height="300" viewBox="0 0 900 225"><path fill="#000" d="m77.801 108.947 57.031-26.219V97.62L97.91 113.916a20.6 20.6 0 0 1-3.437 1.156q-1.641.377-3.047.625a54 54 0 0 1-3.188.39v1.141q1.53.129 3.188.375 1.406.269 3.047.72a25 25 0 0 1 3.437 1.202l36.922 16.547v14.89L77.801 124.87Zm109.092-5.344h-28.14V88.838h44.046v63.39c0 4.168-.68 7.942-2.03 11.328q-2.034 5.092-5.673 8.72-3.625 3.638-8.781 5.609-5.157 1.968-11.516 1.968h-19.093v-14.765h18.203q5.981-.001 9.484-3.5c2.332-2.336 3.5-5.453 3.5-9.36Zm8.781-42.125c2.72 0 4.907.79 6.563 2.36q2.484 2.344 2.484 6.031c0 2.555-.851 4.594-2.547 6.125q-2.548 2.283-6.625 2.281h-3.187c-2.711 0-4.89-.758-6.547-2.281-1.656-1.531-2.484-3.57-2.484-6.125q0-3.687 2.484-6.031c1.656-1.57 3.836-2.36 6.547-2.36Zm48.874 70.891c0 4.25 1.289 7.605 3.875 10.062q3.89 3.69 10.64 3.688 6.749.002 10.625-3.688 3.891-3.686 3.891-10.062v-17.172c0-4.25-1.297-7.601-3.89-10.062q-3.877-3.687-10.626-3.688-6.628 0-10.578 3.688-3.937 3.689-3.937 10.062Zm-15.906-17.172q0-6.247 2.156-11.328 2.169-5.091 6.172-8.719 4.013-3.64 9.61-5.61 5.606-1.968 12.483-1.968 6.873 0 12.47 1.969 5.606 1.969 9.609 5.61 4.014 3.626 6.171 8.718 2.17 5.081 2.172 11.328v17.172q-.001 6.251-2.172 11.406-2.158 5.158-6.109 8.781-3.937 3.626-9.61 5.594-5.659 1.97-12.53 1.969c-4.586 0-8.747-.68-12.485-2.031q-5.595-2.029-9.61-5.657-4.002-3.638-6.171-8.718-2.156-5.092-2.156-11.344Zm77.904-49.266h16.032v22.407c0 1.187-.024 2.527-.063 4.015q-.064 2.22-.187 4.125a71 71 0 0 0-.375 4.453h1.14q1.264-6.234 6.172-9.796 4.904-3.563 12.531-3.563 5.485.001 9.938 1.906c2.969 1.274 5.488 3.094 7.562 5.47q3.123 3.563 4.844 8.593 1.718 5.033 1.719 11.39v17.438q0 6.375-1.719 11.531-1.722 5.158-4.844 8.781-3.11 3.627-7.562 5.532-4.453 1.906-9.938 1.906-7.627 0-12.531-3.563-4.908-3.561-6.172-9.921h-1.14v12.218h-15.407Zm16.032 66.438q-.001 6.253 3.625 10.062 3.639 3.814 9.875 3.813 6.48.001 10.171-3.875 3.704-3.89 3.704-10.375v-16.672q0-6.499-3.704-10.25-3.69-3.75-10.171-3.75c-4.075 0-7.344 1.274-9.813 3.813q-3.689 3.813-3.687 10.187Zm63.779-22.906h50.922v14.64h-50.922Zm99.155 50.656q-12.347 0-19.672-5.016-7.314-5.027-8.453-14.203h16.281q.764 3.317 3.953 5.156 3.187 1.845 7.89 1.844h5.095q5.983 0 9.218-2.344 3.248-2.357 3.25-6.437 0-6.996-10.812-8.531l-9.938-1.14c-7.968-1.02-13.867-3.224-17.687-6.61q-5.736-5.093-5.735-14.657 0-9.92 6.938-15.265 6.938-5.344 19.922-5.344h5.219q11.59.001 18.656 4.906 7.061 4.894 8.328 13.672h-16.281q-.645-2.918-3.516-4.64c-1.906-1.145-4.305-1.72-7.187-1.72h-5.22c-7.468 0-11.202 2.634-11.202 7.891q0 6.752 9.422 7.891l10.312 1.406q12.481 1.517 18.453 6.813 5.984 5.284 5.985 14.828c0 6.875-2.418 12.18-7.25 15.906q-7.253 5.595-20.875 5.594Zm79.045 0c-4.586 0-8.765-.656-12.547-1.969q-5.66-1.968-9.609-5.531-3.94-3.56-6.11-8.656-2.156-5.093-2.156-11.328V114.93q0-6.232 2.157-11.328 2.17-5.092 6.109-8.656c2.633-2.375 5.836-4.195 9.61-5.469q5.668-1.905 12.546-1.906 6.873 0 12.469 1.969 5.608 1.968 9.547 5.531 3.951 3.564 6.11 8.656c1.445 3.399 2.171 7.172 2.171 11.328v12.735h-44.937v4.578q-.002 7.02 3.875 10.969 3.888 3.937 10.765 3.937 5.216 0 8.844-1.594 3.64-1.592 5.156-4.656h15.656a22.8 22.8 0 0 1-3.812 7.906q-2.672 3.563-6.563 6.047-3.877 2.472-8.78 3.813-4.893 1.326-10.5 1.328m14.64-43.016v-2.047q0-6.996-3.827-10.875-3.816-3.89-10.813-3.89-6.877 0-10.765 3.89-3.877 3.878-3.875 10.75v2.172Zm61.732 43.017q-6.876 0-12.546-1.969-5.66-1.968-9.61-5.531-3.94-3.56-6.109-8.656-2.156-5.093-2.156-11.328V114.93q0-6.232 2.156-11.328 2.17-5.092 6.11-8.656c2.632-2.375 5.835-4.195 9.609-5.469 3.781-1.27 7.96-1.906 12.547-1.906q6.873 0 12.468 1.969 5.609 1.968 9.547 5.531 3.951 3.564 6.11 8.656c1.445 3.399 2.172 7.172 2.172 11.328v12.735H626.29v4.578q-.001 7.02 3.875 10.969c2.594 2.625 6.18 3.937 10.766 3.937q5.215 0 8.843-1.594 3.639-1.592 5.157-4.656h15.656a22.8 22.8 0 0 1-3.813 7.906q-2.67 3.563-6.562 6.047-3.878 2.472-8.781 3.813-4.893 1.326-10.5 1.328m14.641-43.016v-2.047q0-6.996-3.828-10.875-3.815-3.89-10.812-3.89c-4.586 0-8.172 1.297-10.766 3.89-2.586 2.586-3.875 6.168-3.875 10.75v2.172Zm49.638-51.171v50.532h11.203l17.438-27.625h17.828l-21.64 34.125 22.015 35.89h-18.203l-17.438-28.765H705.21v28.765h-15.906V65.931Zm59.952 70.266 36.922-16.422a24 24 0 0 1 3.5-1.203q1.716-.45 3.11-.703 1.527-.124 3.062-.266v-1.015a19 19 0 0 1-3.063-.5q-1.394-.264-3.11-.703a24.6 24.6 0 0 1-3.5-1.22l-36.921-16.421v-14.89l57.031 26.093v15.922l-57.031 26.094Zm0 0"/></svg>
