<svg xmlns="http://www.w3.org/2000/svg" width="64" height="64" viewBox="0 0 64 64">
  <circle cx="32" cy="32" r="31" fill="#fff" stroke="#000" stroke-width="2"/>
  <g transform="translate(3.20 40.00) scale(0.0240 -0.0240)" fill="#000">
    <path d="M524 56 76 267V392L524 603V488L234 354Q214 345 194.5 338.5Q175 332 164 330Q175 328 195.0 322.0Q215 316 234 307L524 173Z"/>
    <path transform="translate(600 0)" d="M81 -180V-67H226Q274 -67 302.0 -38.5Q330 -10 330 39V437H76V550H455V36Q455 -64 395.0 -122.0Q335 -180 233 -180ZM386 642Q348 642 326.0 661.5Q304 681 304 714Q304 747 326.0 766.5Q348 786 386 786Q424 786 446.0 766.5Q468 747 468 714Q468 681 446.0 661.5Q424 642 386 642Z"/>
    <path transform="translate(1200 0)" d="M277 -9Q179 -9 122.0 35.5Q65 80 65 156H188Q188 124 211.5 107.0Q235 90 277 90H321Q366 90 390.5 107.0Q415 124 415 156Q415 186 398.0 200.5Q381 215 346 220L209 238Q143 247 107.5 289.0Q72 331 72 398Q72 476 124.0 517.5Q176 559 274 559H320Q412 559 468.0 517.0Q524 475 526 405H402Q401 431 379.0 446.5Q357 462 320 462H274Q234 462 213.0 445.5Q192 429 192 401Q192 376 207.5 364.0Q223 352 253 349L382 331Q458 322 496.5 277.5Q535 233 535 158Q535 78 480.5 34.5Q426 -9 321 -9Z"/>
    <path transform="translate(1800 0)" d="M76 56V171L366 305Q386 314 405.5 320.0Q425 326 436 329Q425 331 405.0 337.0Q385 343 366 351L76 486V603L524 392V267Z"/>
  </g>
</svg>
