<svg xmlns="http://www.w3.org/2000/svg" xml:space="preserve" viewbox="0 0 277 136.7">
	<title>Volumental</title>
	<path d="M143.3 1.1v88.8h-14.1V1.1zm-36.8 51.7L57.8 73.9V59.1l35.8-13.8-35.8-13.8V17.3l48.7 21.4zm73.8-7.3c0 14 3.3 19.7 10.9 19.7s10.7-5.7 10.7-19.7S198.6 26 191.2 26s-10.9 5.5-10.9 19.5zm37.1 0c0 20-9.5 31-26.2 31s-26.4-11-26.4-31 9.5-31 26.4-31 26.2 11.1 26.2 31zM6.9 114.3l5.1 16.1 5.1-16.1h4L14 135.1h-4l-7.1-20.8h4zm32.5-.5c1.3 0 2.6.2 3.9.6 1.1.4 2.2 1.1 2.9 2 1.9 2.2 2.8 5.1 2.6 8.1.2 3-.8 5.9-2.6 8.2-1.8 1.8-4.3 2.8-6.8 2.6-2.6.1-5.1-.9-6.8-2.8-1.9-2.3-2.8-5.1-2.6-8.1-.2-3 .8-5.9 2.6-8.2 1.9-1.6 4.3-2.5 6.8-2.4zm5.6 10.9c.1-2-.4-4-1.6-5.6-.9-1.3-2.4-2-4-2-1.6-.1-3.1.7-4 2-1.2 1.6-1.7 3.6-1.6 5.6-.2 1.9.4 3.9 1.6 5.4 1 1.2 2.5 1.9 4 1.9 1.6.1 3.1-.6 4-1.9 1.2-1.6 1.7-3.5 1.6-5.4zm18.8 7.1h8.7v3.3H60.1v-20.8H64v17.5h-.2zM86 114.3v13c-.1 1.3.3 2.7 1.2 3.7 2 1.4 4.8 1.4 6.8 0 1-1 1.4-2.4 1.2-3.7v-13h3.9v13c.1 2.3-.7 4.5-2.2 6.2-1.8 1.5-4 2.3-6.4 2.2-2.3.1-4.6-.7-6.4-2.2-1.6-1.6-2.4-3.9-2.2-6.2v-13H86zm30.7 0 5.7 12.4 5.7-12.4h5.3v20.8h-3.9v-15.8l-5.9 13.5h-2.5l-6.2-14v16.3H111v-20.8h5.7zm29.3 0h13.5v3.3h-9.8v5.4h9.1v3.3h-9.1v5.4h9.8v3.3H146v-20.7zm29.6 0 9.3 14.7v-14.7h3.9v20.8h-3.9l-9.6-15.2v15.2h-3.9v-20.8h4.2zm22.8 0h16.9v3.3h-6.5v17.5h-3.9v-17.5h-6.5v-3.3zm29.7 0h4.8l6.8 20.8h-4l-1.4-4.5h-7.8l-1.6 4.5h-4l7.2-20.8zm-.6 13.5h5.9l-2.9-9-3 9zm26.4 4h8.7v3.3h-12.4v-20.8h3.9v17.5h-.2zm15.2-8c-2.8 0-5.1-2.3-5.1-5.1s2.3-5.1 5.1-5.1 5.1 2.3 5.1 5.1c-.1 2.9-2.3 5.1-5.1 5.1zm0-9.4c-2.4 0-4.3 1.9-4.3 4.3s1.9 4.3 4.3 4.3 4.3-1.9 4.3-4.3-2-4.3-4.3-4.3z"></path>
	<path d="M267.9 119.3v2.1h-1v-5.3h1.6c.4 0 .7 0 .9.1.3.1.5.2.6.3.2.1.3.3.4.5.1.2.1.4.1.6 0 .2 0 .3-.1.5s-.1.3-.2.4c-.1.1-.2.2-.4.3-.1.1-.3.2-.5.2l.3.3 1.3 2h-.9c-.1 0-.2 0-.2-.1-.1 0-.1-.1-.2-.1l-1.1-1.7c0-.1-.1-.1-.1-.1h-.5zm0-.7h.6c.2 0 .3 0 .5-.1.1 0 .3-.1.3-.2.1-.1.2-.2.2-.3 0-.1.1-.2.1-.4 0-.3-.1-.5-.3-.6-.2-.1-.4-.2-.8-.2h-.6v1.8z"></path>
</svg>