<svg width="548" height="82" viewbox="0 0 548 82" fill="none" xmlns="http://www.w3.org/2000/svg" class="header_logo-letters" data-astro-cid-3ef6ksr2="true"><path d="M547.999 24.1241V0.129883H465.458V81.8967H547.999V57.786H491.586V51.4962H547.999V30.4139H491.586V24.1241H547.999Z" fill="#E7E7E7"></path><path d="M88.9503 37.9094C91.2542 34.4618 92.3943 29.966 92.3943 24.4686C92.3943 16.7814 90.2091 10.7948 85.8625 6.53192C81.516 2.26906 75.0555 0.125977 66.5049 0.125977H0V81.8892H26.6019V55.4501H59.0231C61.327 55.4501 62.9184 55.9858 63.8447 57.0341C64.7473 58.0823 65.1985 59.6198 65.1985 61.6231V81.8892H91.8005V56.6148C91.8005 53.3536 90.7554 50.5815 88.6415 48.2987C86.5513 46.0159 83.5586 44.7347 79.6871 44.525C83.5586 43.5932 86.6464 41.4036 88.9503 37.9327V37.9094ZM60.0919 33.2971H26.6019V22.4653H60.0919C63.8209 22.4653 65.6736 24.2589 65.6736 27.823C65.6736 31.387 63.8209 33.2971 60.0919 33.2971Z" fill="#E7E7E7"></path><path d="M97.071 81.8948H179.612V57.784H123.199V51.4943H179.612V30.412H123.199V24.1222H179.612V0.12793H97.071V81.8948Z" fill="#E7E7E7"></path><path d="M268.671 30.9963H212.733V24.2406H268.671V0.129883H186.011V81.8967H212.733V54.7576H268.671V30.9963Z" fill="#E7E7E7"></path><path d="M297.083 0.12793L260.03 81.8911H288.295L295.658 64.8862H337.936L345.536 81.8911H374.632L337.698 0.12793H297.083ZM305.277 42.4072L316.678 16.7834L328.198 42.4072H305.277Z" fill="#E7E7E7"></path><path d="M407.104 24.7028H420.286C424.395 24.7028 427.602 25.4948 429.906 27.0789C432.21 28.6629 433.587 30.8525 434.062 33.6479H462.208C461.899 27.1953 460.166 21.4649 457.054 16.4101C453.919 11.3552 449.525 7.37184 443.872 4.48334C438.219 1.57155 431.545 0.104004 423.873 0.104004H406.178C398.031 0.104004 390.834 1.68802 384.611 4.87935C378.388 8.07067 373.567 12.7295 370.123 18.856C366.679 24.9824 364.969 32.3667 364.969 40.9856C364.969 49.6045 366.679 57.1053 370.123 63.2317C373.567 69.3581 378.388 73.9937 384.611 77.1617C390.834 80.3065 398.007 81.8672 406.178 81.8672H423.992C431.758 81.8672 438.433 80.3996 443.991 77.4413C449.572 74.4829 453.895 70.4297 456.935 65.2583C459.975 60.087 461.709 54.1469 462.089 47.3915H434.656C434.252 50.4897 432.827 52.9356 430.381 54.6594C427.934 56.4065 424.609 57.2683 420.405 57.2683H407.104C396.82 57.2683 391.665 51.8641 391.665 41.0788C391.665 35.558 392.996 31.4582 395.632 28.7328C398.292 26.0073 402.092 24.6563 407.104 24.6563V24.7028Z" fill="#E7E7E7"></path></svg>