<svg width="32" height="32" viewBox="0 0 32 32" fill="none" xmlns="http://www.w3.org/2000/svg">
<path d="M17.8035 24.5558L18.3017 25.0544C18.6674 25.4205 18.8502 25.6036 19.0611 25.6721C19.2466 25.7324 19.4465 25.7324 19.632 25.6721C19.8429 25.6036 20.0257 25.4205 20.3914 25.0544L28 17.4378C29.6566 15.7795 30.4849 14.9503 30.7953 13.9942C31.0682 13.1531 31.0683 12.2471 30.7953 11.4061C30.4849 10.45 29.6566 9.62078 28 7.96242L27.0845 7.04599C26.7188 6.6799 26.536 6.49685 26.3251 6.42828C26.1396 6.36796 25.9397 6.36796 25.7542 6.42828C25.5433 6.49685 25.3605 6.6799 24.9947 7.04599L16 16.0502V11.9034C16 10.9611 16 10.49 15.8937 10.0466C15.7994 9.65348 15.6439 9.27769 15.4329 8.93299C15.1949 8.5442 14.8621 8.21104 14.1965 7.54473L13.6983 7.04609C13.3326 6.68 13.1498 6.49695 12.9389 6.42838C12.7534 6.36806 12.5535 6.36806 12.368 6.42838C12.1571 6.49695 11.9743 6.68 11.6086 7.04609L4 14.6627C2.34339 16.321 1.51508 17.1502 1.20474 18.1063C0.931753 18.9474 0.931754 19.8534 1.20474 20.6944C1.51508 21.6505 2.34339 22.4797 4 24.1381L4.91547 25.0545C5.28118 25.4206 5.46403 25.6037 5.67493 25.6722C5.86044 25.7325 6.06029 25.7325 6.24579 25.6722C6.45669 25.6036 6.63955 25.4206 7.00525 25.0545L16 16.0502L16 20.1971C16 21.1394 16 21.6105 16.1063 22.0539C16.2006 22.447 16.3561 22.8228 16.5671 23.1675C16.8051 23.5563 17.1379 23.8895 17.8035 24.5558Z" fill="#0F43E9"/>
</svg>
