<svg width="998" height="140" viewBox="0 0 998 140" fill="none" xmlns="http://www.w3.org/2000/svg">
<path d="M959.17 132.401L947.382 108.467H878.795L868.985 128.384C867.774 130.843 865.27 132.401 862.528 132.401H828.783L893.441 7.37225H928.89C931.582 7.37225 934.048 8.87345 935.284 11.2639L997.929 132.401H959.17ZM891.298 82.5683H934.7L913.088 38.2723L891.298 82.5683Z" fill="#1C1818"/>
<path d="M766.323 7.37225H801.483C803.471 7.37225 805.082 8.9836 805.082 10.9713V132.401H768.824V52.5613L719.555 112.955C719.198 113.393 718.663 113.647 718.098 113.647V113.647C717.532 113.647 716.997 113.393 716.64 112.955L667.372 52.5613V128.802C667.372 130.79 665.76 132.401 663.773 132.401H632.185V7.37225H668.509C670.722 7.37225 672.813 8.39064 674.177 10.1336L718.991 67.3862L766.323 7.37225Z" fill="#1C1818"/>
<path d="M520.719 136.252C471.243 136.252 439.272 111.961 439.272 69.6296C439.272 27.2984 471.243 3.00702 520.719 3.00702C570.195 3.00702 602.345 27.2984 602.345 69.6296C602.345 111.961 570.195 136.252 520.719 136.252ZM520.719 106.602C548.225 106.602 565.194 93.2065 565.194 69.6296C565.194 46.0527 548.225 32.6567 520.719 32.6567C493.391 32.6567 476.245 46.0527 476.245 69.6296C476.245 93.2065 493.213 106.602 520.719 106.602Z" fill="#1C1818"/>
<path d="M374.695 7.37225H406.283C408.27 7.37225 409.882 8.9836 409.882 10.9713V132.401H377.91L295.876 50.2393V128.802C295.876 130.79 294.265 132.401 292.277 132.401H260.69V7.37225H296.26C298.186 7.37225 300.031 8.14397 301.384 9.51487L374.695 83.8185V7.37225Z" fill="#1C1818"/>
<path d="M117.625 129.241L128.426 139.999L189 79.6646C200.596 68.1142 206.394 62.3389 208.567 55.6794C210.478 49.8215 210.478 43.5114 208.567 37.6535C206.394 30.9939 200.596 25.2187 189 13.6683L175.277 0L105 69.9997V41.1174C105 34.5542 105 31.2727 104.256 28.1845C103.596 25.4465 102.507 22.8291 101.03 20.4283C99.3642 17.7203 97.0345 15.3999 92.3753 10.7591L81.5742 0.000691645L21 60.3354C9.40373 71.8858 3.60559 77.6611 1.43318 84.3206C-0.477725 90.1785 -0.477719 96.4886 1.43318 102.347C3.60559 109.006 9.40373 114.781 21 126.332L34.7225 140L105 70.0003V98.8826C105 105.446 105 108.727 105.744 111.816C106.404 114.553 107.493 117.171 108.97 119.572C110.636 122.28 112.965 124.6 117.625 129.241Z" fill="#008CFF"/>
</svg>
