<svg width="100%" height="auto" viewbox="0 0 165 63" fill="none" xmlns="http://www.w3.org/2000/svg">
<g clip-path="url(#clip0_465_2661)">
<path d="M81.916 19.9902H96.7254V25.4648H87.9577V28.8179H94.3514V33.8177H87.9577V37.4872H96.7254V42.9618H81.916V19.9902Z" fill="CurrentColor"></path>
<path d="M129.982 19.6387C123.415 19.6387 118.092 24.9501 118.092 31.5028C118.092 38.0555 123.415 43.3669 129.982 43.3669C136.549 43.3669 141.872 38.0555 141.872 31.5028C141.872 24.9501 136.549 19.6387 129.982 19.6387ZM129.982 37.0565C126.909 37.0565 124.416 34.569 124.416 31.5028C124.416 28.4366 126.909 25.9491 129.982 25.9491C133.055 25.9491 135.548 28.4366 135.548 31.5028C135.548 34.569 133.055 37.0565 129.982 37.0565Z" fill="CurrentColor"></path>
<path d="M144.305 19.9902H149.211L159.149 33.0264V19.9902H165.002V42.9618H160.001L150.252 30.1482V42.9618H144.305V19.9902Z" fill="CurrentColor"></path>
<path d="M58.7148 19.9902H64.9499V28.7536H72.8948V19.9902H79.0951V42.9618H72.8948V34.1985H64.9499V42.9618H58.7148V19.9902Z" fill="CurrentColor"></path>
<path d="M98.8906 19.9902H107.5C114.052 19.9902 116.426 23.6598 116.426 27.2056C116.426 30.1185 114.592 32.7099 111.678 33.9759L117.66 42.9618H110.855L105.696 34.7672H105.031V42.9618H98.8906V19.9902ZM110.127 27.4875C110.127 26.0336 109.051 25.084 107.406 25.084H105.031V29.7674H107.406C109.051 29.7674 110.127 28.7239 110.127 27.4875Z" fill="CurrentColor"></path>
<path d="M36.4558 31.4975C36.4558 25.2317 31.8911 20.0192 25.9088 18.9608V0H21.463V18.9658C15.4808 20.0192 10.916 25.2317 10.916 31.5025C10.916 37.7733 15.4808 42.9809 21.463 44.0392V61.9763V63.0049H25.9088V61.9763V44.0392C31.8911 42.9858 36.4558 37.7733 36.4558 31.5025V31.4975ZM23.6884 40.1718C18.8956 40.1718 14.995 36.2798 14.995 31.4975C14.995 26.7153 18.8956 22.8232 23.6884 22.8232C28.4811 22.8232 32.3817 26.7153 32.3817 31.4975C32.3817 36.2798 28.4811 40.1718 23.6884 40.1718Z" fill="CurrentColor"></path>
<path d="M16.3836 46.551C10.7879 43.8409 6.92695 38.1239 6.92695 31.497C6.92695 24.8702 10.7879 19.1532 16.3836 16.4431V8.28809H-0.00195312V54.7011H16.3836V46.546V46.551Z" fill="CurrentColor"></path>
<path d="M30.9902 8.29395V16.444C36.5908 19.1541 40.4518 24.8711 40.4518 31.498C40.4518 38.1249 36.5908 43.8418 30.9902 46.5519V54.702H47.3757V8.29395H30.9902Z" fill="CurrentColor"></path>
</g>
<defs>
<clippath id="clip0_465_2661">
<rect width="165" height="63" fill="white" transform="translate(-0.00195312)"></rect>
</clippath>
</defs>
</svg>