<svg xmlns="http://www.w3.org/2000/svg" fill="none" viewbox="0 0 96 96"><path fill="currentColor" d="M71.048 77.035s4.631-6.073 5.615-7.575c.987-1.5 1.117-2.342 1.245-3.043.13-.703.115-.715 0-1.253-.116-.538-1.142-1.834-2.171-3.114-1.03-1.28-3.99-4.119-4.133-4.243-.143-.121-.914-.452-1.157-.783s-.987-.882-1.157-.994c-.17-.11-.416-.302-.586-.358-.17-.053-.185-.204-.443-.493s-.328-.29-.543-.388c-.213-.094-.143-.124-.286-.248s-.112-.15-.285-.26-.143-.083-.37-.207c-.232-.124-.131-.14-.244-.275-.115-.14 0 0-.088-.125-.085-.124-.27-.221-.54-.33-.273-.11-.86-.716-1.103-.84-.242-.125-.157-.083-.415-.166s-.225-.263-.368-.316c-.143-.056-.115-.056-.446-.317-.328-.263-.644-.47-.644-.47-.143-.301-.57-.384-.57-.384-.159-.234-.772-.69-1.173-.855-.4-.165-1.072-.798-1.357-1.046-.285-.249-1.488-.648-2.271-.772-.787-.121-1.916.606-3.2 1.404-1.288.802-3.52 2.59-3.647 2.688-.131.095-.641.577-.744.716-.1.139-.456.647-.456.647s-.23.124-.586.302c-.358.18-1.145.88-1.145.88s-3.385 3.307-3.744 3.694c-.355.384-.212.813-.212.813s0 .15-.015.497c-.015.343-.2.219-.2.219s-.128-.042-.286-.098c-.158-.053-.243-.038-.316-.038s-.27.12-.413.177-.57.606-.57.606c-.602.648-2.147 2.948-2.248 3.14-.097.192-.227.618-.227.618-.228.32-.012.47-.043.91s.243.855.93 1.804c.686.953 2.028 2.094 2.028 2.094l.142.165s.146.332.69.746c.543.41.713.425.713.425-.088.196.2.373.2.373 2.853 2.338 3.394 2.505 4.663 2.898l.026.008c1.284.4 2.657-.895 2.811-1.212.158-.316 1.403-1.502 1.403-1.502.73-.343 1.03-1.061 1.358-1.611.33-.55-.016-1.913-1.181-3.841-1.166-1.931-1.619-2.164-1.619-2.164.544 1.475.443 3.968.443 3.968-.173.192-.23.99-.23.99L50.58 69.64c-1.3 1.145-2.368-.165-2.368-.165l-1.045-.87c-.358.015-.516-.301-.516-.301.073-.151-.155-.29-.155-.29l-.559-.497s-.227-.26-.312-.343c-.089-.083-.131-.425-.186-.467-.06-.044-.616-.73-.686-.842l-.006-.01c-.08-.118-.321-.48-.294-.804.027-.328.686-1.239.986-1.54.301-.305.969-1.16.969-1.16s-.085.098.073-.162c.158-.263.212-.236.212-.236l.304-.193.47-.425 1.227-1.28.216-.196.216-.08.555-.428.389-.302.386-.358.142-.18.228-.248c.23-.249.313-.178.313-.178s.258-.154.346-.222c.082-.068.443-.357.443-.357.185.082.413-.125.413-.125 2.201-1.487 3.802-1.984 3.802-1.984 1.087-.647 2.028.083 2.329.331.3.249 2.116 1.86 2.374 2.135.255.275 1.5 1.695 1.986 2.245.489.553.54.496.671.553.127.053.74.742.74.742.046.47.402.662.402.662s.173.287 1.773 2.176c1.6 1.887.659 2.865.543 3.14s-1.551 2.12-1.551 2.12l-.778 1.103s-1.66 1.901-1.703 2.312c-.04.414-.27.636-.27.636-.714.095-.571.798-.571.798-.629.302-.771.73-.771.73-.517.22-.887.781-.887.781v.128l-.3.33c-.842.069-1.543 1.322-1.543 1.322-.586.14-1.376.911-1.846 1.42s-1.227 1.404-1.227 1.404-.215.098-.443.166-.501.29-.644.425c-.143.14-.428.4-.428.4l-.285.124-.425.429-.392.136-.343.484c-.857-.097-1.6.645-1.6.645l-.374.192-.498.169s-.115-.015-.228.094c-.115.11-.643.234-.643.234s-.243.015-.486 0-.316.03-.602-.15c-.285-.178-.312-.166-1.758-.731-1.442-.565-2.371-1.322-2.526-1.46-.158-.137-.489-.385-.69-.483-.2-.094-.44-.136-.44-.136l-.358-.07-.258-.054c-.255-.056-.285-.18-.285-.18l-.2-.098s-.116-.121-.213-.204c-.1-.083-.216-.44-.216-.44l-.37-.249-.258-.192a1.07 1.07 0 0 1-.346-.44l-.413-.482-1.343-1.186-1.56-1.479s-.872-1.18-1.027-1.36c-.157-.177-1.014-.757-1.43-1.032-.413-.275-1.8-2.498-1.8-2.498s-.006-.145-.012-.228c-.01-.083-.073-.118-.158-.195-.088-.074-.128-.124-.207-.115-.079.006-.167-.077-.294-.16-.13-.083-.28-.24-.38-.41-.1-.175-.021-.243-.012-.326.006-.083-.121-.207-.121-.207l-.222-.337s-.3-.456-.474-.669c-.17-.212-.349-.626-.476-.798a8 8 0 0 0-.529-.606c-.14-.136-.103-.325-.103-.325.121-.178.036-.157-.04-.157-.078 0-.14-.118-.14-.192 0-.077-.005-.089-.096-.174-.095-.08 0-.06 0-.122s.07-.056.063-.112a.2.2 0 0 1 0-.11c.006-.04.085-.082.085-.082-.015-1.431.586-2.307.936-2.907.352-.597 2.195-3.093 3.118-4.332.92-1.239 3.328-4.056 4.1-4.84.773-.786 1.101-1.197 1.129-1.212.027-.015 1.308-1.053 1.694-1.42.386-.363.322-.431.492-.706.173-.278.267-.367.522-.49.258-.125.264-.166.264-.166l.137-.125.206-.103s.265-.136.386-.249c.122-.109.328-.378.422-.467.091-.088.286-.316.66-.58.37-.26.376-.7.527-.768.15-.071.538-.503.772-.698.236-.192.628-.426.628-.426l.143-.15.164-.16.051-.074.122-.083.191-.133s.365-.15.47-.233c.107-.083.074-.145.116-.228s.392-.42.538-.565c.142-.145.255-.331.513-.384.258-.056.407-.154.522-.296.116-.145.364-.275.586-.429.222-.15.337-.414.677-.798.343-.384.48-.358.48-.358.115.228 1.187-.783 1.251-.834.064-.047.206-.233.3-.248.092-.012.155-.006.17-.074.016-.07.137-.097.137-.097.213-.027.265-.26.3-.379.037-.118.393-.337.465-.393a5 5 0 0 1 .328-.234c.164-.11.116-.062.246-.118.125-.053.368-.26.526-.384.158-.125.252-.136.349-.18.103-.042.103 0 .188-.033.085-.036.058-.048.158-.119.097-.068.456-.233.592-.337.137-.103.407-.434.635-.736.23-.304.194-.352.237-.467.042-.118.242-.958.485-1.922.243-.967.407-3.253.413-3.439.01-.183.052-1.795.1-2.552.052-.76-.09-1.159-.163-1.324-.07-.166-.334-.82-.2-1.212.139-.39.115-.544.093-.867-.021-.325-.212-1.212-.221-1.295-.006-.083.057-.846.036-1.047a6 6 0 0 0-.23-.907c-.05-.119-.05-.408-.043-.58.009-.171-.149-.29-.207-.393-.054-.104-.02-.192-.042-.331-.021-.136-.058-.213-.08-.482-.02-.27-.063-.255-.127-.352-.063-.095-.31-1.115-.674-2.499-.364-1.383-1.236-3.622-1.922-5.363-.683-1.742-1.063-2.57-1.955-4.622-.896-2.052-2.508-4.595-3.046-5.529-.534-.937-1.743-2.487-2-2.833-.259-.343-.074 0-.074 0s.468 1.482.632 1.958c.164.473.383 1.322.565 1.934.179.615.455 1.957.455 1.957s.037.27.088.514c.049.249.091.574.091.574l.13.405s.092.668.128.881c.037.216-.015.305.064.565.08.263.1.719.143 1.062.042.342.085 1.01.085 1.01v1.089s.064.213.079.31c.015.098.015.373.094 2.017.079 1.647-.143 3.093-.164 3.651-.024.556-.21 1.535-.21 1.535s-.37 2.026-.4 2.165a2.6 2.6 0 0 0-.049.55c0 .26-.176.476-.319.807-.142.328-.507 1.59-.574 1.83-.063.242-.364.834-.394.854-.028.021-.265.53-.265.53l-.464 1.046-.286.6c.089.249-.033.296-.033.296v.53l-.316.393s-.079-.015-.252 0c-.17.015-.17.041-.17.041l-.713 1.026v.151s-.444.778-.586.902c-.143.124-.243.195-1.087 1.31L40.85 34.67c.028.535-.258.343-.258.343-.531.113-2.116 2.206-2.502 2.688s-1.099 1.691-1.372 1.97c-.27.274-.814.865-1.042 1.14-.23.275-.458.305-.771.675-.316.372-.817 1.061-1.23 1.517-.416.452-1.245 1.197-1.415 1.404-.173.207-.37.923-.786 1.032a.9.9 0 0 0-.629.565c-.042.139-.185.346-.413.553-.23.204-.3.165-.473.425-.173.264-.085.222-.173.385-.082.165-.243.097-.44.236-.201.136-.717.964-.717.964l-.37.26-.159.43-.3.233s-.328.37-.54.493c-.216.125-1.015 1.009-1.015 1.009.012.165-.203.37-.203.37-.386.07-.556.715-.614.813s-.528.718-.528.718l-.528.313-.632.952-.555.784-.386.346s-.143.248-.686 1.005c-.544.757-.772.881-.772.881-.285.03-.282.22-.282.22s-.13.194-.219.277c-.085.083-.258.207-.258.207s-.197.618-.227.716c-.028.097-.27.41-.27.41l-.231.086c-.228.083-.24.358-.24.358-.116.027-.544.798-.544.798l-.273.358v.136l-.386.444s-.142.038-.744.866c-.598.828-.798 2.975-.586 3.844.216.866 1.03 2.56 2.745 5.234 1.716 2.67 5.035 6.265 5.035 6.265s.097.248.182.346c.085.095.285.234.428.343.143.112.158.237.258.358.1.124.128.482.185.538.058.059.814.704.814.704l.659.068.443.384.143.124s.127-.041.173 0c.04.042.313.331.446.482.137.154.125.234.037.429-.088.192.015.248 0 .44-.012.193.088.441.088.441l.185.455s.443.438.586.494.197.15.285.249c.085.097.374.233.517.413.142.178.155.136.224.207.073.069.189.205.189.205s.428.33.513.443c.088.11.2.192.2.192s.116.11.316.26c.2.154.07.166.2.275.128.113.313.113.313.113l.088.15.24.054.23.195.53.508.312.317.246.346.37.275s.328.316.486.399 1.5 1.088 1.928 1.378c.431.29 1.303.742 1.303.742s.656.47 1.041.828c.386.358.088.136.614.783.531.648 3.62 2.413 5.532 3.486 1.881 1.054 2.905 1.128 3.485 1.17l.031.001c.571.042 1.014-.014 1.986-.387.972-.37 3.474-2.079 3.99-2.463.513-.387.328-.29.313-.346-.015-.053.586-.84.783-1.115.204-.275.96-.745 1.688-.91.729-.166 3.602-2.865 6.917-6.017 3.316-3.155 6.69-7.715 6.69-7.715"></path></svg>