<svg xmlns:xlink="http://www.w3.org/1999/xlink" xmlns="http://www.w3.org/2000/svg" role="img" class="icon icon--logo--full--mixed icon--normal icon--default brand__icon" aria-label="brand icon" width="1277"  height="230" ><defs><symbol id="icon-logo--full--mixed" viewBox="333 282 1277 230"><path d="M1286.7 346c-16.7 5.3-28.6 20.2-30.5 38.3-2.2 20.7 4 36.9 18.1 47.4 7.9 5.7 16.4 8.3 27.7 8.3 26.7 0 44.2-17.2 45.7-45 1.4-24.8-12.3-45-33.8-49.9-7.1-1.7-20.7-1.2-27.2.9zm27 10.1c12.4 4.6 20.1 16.6 21.1 32.8 1 18.2-6 32.4-19.1 38.2-7.7 3.4-19.2 3.4-26.7-.2-7.8-3.7-12.5-8.1-16-15.3a45.77 45.77 0 010-40.2c7.2-14.7 24.6-21.2 40.7-15.3zM612 350v5l23.5.2 23.4.3-25.9 40.3c-14.3 22.2-26 41-26 41.8 0 1.2 5.5 1.4 34.5 1.4H676v-10h-25c-13.7 0-25-.2-25-.5s11.3-18.5 25-40.4c13.8-21.9 25-40.6 25-41.5 0-1.4-3.2-1.6-32-1.6h-32v5zm81 42v47h13v-94h-13v47zm36 0v47h11l.2-37.6.3-37.7 11.9 29.4c19.8 48.7 18.5 45.9 21.1 45.9 2.5 0 1.7 1.7 26.1-60.5l5.9-15 .3 37.7.2 37.8h12v-94h-16.7l-13.4 35c-7.4 19.2-13.7 35-14 35s-6.8-15.7-14.4-35l-13.8-35H729v47zm112 0v47h11v-37.8l.1-37.7 15.3 37.5c13.9 34.1 15.5 37.5 17.7 37.8 2.3.3 3.1-1.3 16.9-36.5l14.5-36.8.3 36.7.2 36.8h13v-94.1l-8.6.3-8.6.3-13.3 34.8c-7.4 19.2-13.5 35.1-13.7 35.2-.2.2-6.6-15.6-14.3-35l-14-35.5H841v47zm111 0v47h58v-10h-45v-33h34v-10h-34v-31h43v-10h-56v47zm74-.1V439h13v-40.1l6.8.3 6.7.3 13.5 19.7 13.4 19.8h6.8c3.7 0 6.8-.3 6.8-.6s-5.9-9.1-13-19.4c-14.5-21.1-15-22-12.4-22 6.8-.1 16.6-8.5 18.9-16.3 4.2-14.2-1.2-27.2-13.7-32.8-4.9-2.2-6.8-2.4-26-2.7l-20.8-.4v47.1zm41.8-34.6c5 2.7 7.2 7.1 7.2 14.3 0 4.7-.5 6.9-2.3 9.5-3.6 5.5-8.3 7.1-21.8 7.7l-11.9.5v-34.5l12.8.4c9.7.3 13.5.8 16 2.1zM1143 392v47h20.3c23.5 0 28.4-1 34.9-6.8 5.9-5.3 7.8-10 7.8-19.8 0-11-2.4-15.7-10.2-19.9l-5.5-3 3.8-2.7c5.7-4.1 7.4-7.9 7.4-17.3 0-9.6-2.1-14.4-8.3-19.2-5.7-4.3-11.5-5.3-32.2-5.3h-18v47zm38.9-35.2c5.5 2.7 7.6 6.4 7.5 13-.1 12.1-4.6 15.2-22.6 16l-11.8.5V355h11.8c9.2 0 12.4.4 15.1 1.8zm-3.4 39.2c3.8.6 8 1.7 9.3 2.6 4 2.6 6.2 7.4 6.2 13.4 0 7.5-2.4 11.9-8 14.7-3.9 2-5.9 2.3-17.7 2.3H1155v-34h8.3c4.5 0 11.3.5 15.2 1zm46.5-4v47h12v-94h-12v47zm141 0v47h11v-38.3l.1-38.2 15.6 38.3c14.9 36.6 15.7 38.3 18.1 38 2.2-.3 3.7-3.5 17.1-37.6l14.6-37.2.3 37.5.2 37.5h12v-94h-16.5l-13.5 35c-7.3 19.3-13.6 35-13.9 35-.4 0-6.8-15.8-14.4-35l-13.9-35H1366v47zm112 0v47h57v-10h-45v-33h35v-10h-35v-31h43v-10h-55v47zm66-42v5h27v84h12v-84h27v-10h-66v5z"></path><path fill="#2178CA" d="M423 283.5c-48.8 9.3-81.8 43.6-89 92.5-1.9 12.6-.9 39.3 1.9 49.3 5.8 21.7 14.8 37.3 30.6 53.2 15.9 15.9 30.9 24.5 53.2 30.7 6.8 1.9 10.3 2.2 28.3 2.2s21.5-.3 28.3-2.2c22.3-6.2 37.3-14.8 53.2-30.7 12.2-12.3 19.6-23.1 25.2-37 14.2-35.3 11-74-8.8-106.1-7.4-12-24.3-28.9-36.3-36.3-9.8-6.1-21.4-11.1-33.3-14.3-10.1-2.7-41.5-3.5-53.3-1.3zm40.3 8c11.3 1.7 21.8 5 32 10.1 8.2 4.1 20.2 12.2 23.7 15.9l2.3 2.5H373v35.6c0 23.4.3 35.3 1 34.9.5-.3 1-1.8 1-3.2 0-8.3 6.9-25.1 14.4-34.9 9.7-12.6 27.2-23.8 42.1-26.9 7.1-1.5 14.5-2 14.5-.9 0 .4-74.9 143.3-75.7 144.3-1.3 1.7-12.4-14-18.2-25.7-14.9-29.7-14.3-68.6 1.5-99.6 13.9-27.5 41.5-46.8 73.4-51.5 4.1-.6 8.6-1.3 10-1.5 6-.8 17.2-.5 26.3.9zm68 39c29 35.9 31.2 86 5.6 125.5-5.5 8.4-21.5 24.4-29.9 29.9-37.6 24.4-83.4 23.7-120.4-1.9-4-2.7-8.5-6.3-10.1-8l-2.9-3H520l-.1-33.8c-.1-24-.4-32.7-1.1-30.2-5.3 18.8-11.1 29.3-22.2 39.7-11.7 11.2-26.3 18.2-41.6 19.9l-6.3.7 6.5-12.4c3.5-6.8 20.5-39.5 37.8-72.7 17.3-33.1 31.9-60.1 32.5-59.9.5.2 3.1 3 5.8 6.2z"></path></symbol></defs>
                  <use xlink:href="#icon-logo--full--mixed" stroke-width="0px"></use>
                </svg>