<?xml version="1.0" encoding="utf-8"?>
<!-- Generator: Adobe Illustrator 19.0.0, SVG Export Plug-In . SVG Version: 6.00 Build 0)  -->
<svg version="1.1" id="Layer_2" xmlns="http://www.w3.org/2000/svg" xmlns:xlink="http://www.w3.org/1999/xlink" x="0px" y="0px"
	 viewBox="-529 332 220 57" style="enable-background:new -529 332 220 57;" xml:space="preserve">
<style type="text/css">
	.st0{fill:#186C9A;}
	.st1{fill:#6B6663;}
	.st2{fill:#73A645;}
	.st3{fill:#73A545;}
</style>
<g>
	<g>
		<g>
			<path class="st0" d="M-529,362.3l3-3.6c2.7,2.4,5.5,3.7,9,3.7c3.1,0,5-1.5,5-3.6v-0.1c0-2-1.1-3.1-6.4-4.4
				c-6.1-1.5-9.5-3.3-9.5-8.5v-0.1c0-4.9,4.1-8.3,9.7-8.3c4.2,0,7.4,1.3,10.3,3.6l-2.7,3.8c-2.6-1.9-5.1-2.9-7.7-2.9
				c-2.9,0-4.6,1.5-4.6,3.4v0.1c0,2.2,1.3,3.2,6.8,4.5c6,1.5,9.1,3.6,9.1,8.3v0.1c0,5.3-4.2,8.5-10.2,8.5
				C-521.5,366.9-525.6,365.4-529,362.3z"/>
			<path class="st0" d="M-505.1,360.3L-505.1,360.3c0-4.7,3.6-7,8.9-7c2.4,0,4.1,0.4,5.8,0.9v-0.5c0-3.1-1.9-4.7-5.3-4.7
				c-2.4,0-4.2,0.5-6.1,1.3l-1.3-3.9c2.4-1.1,4.7-1.7,8.1-1.7c3.2,0,5.6,0.9,7.1,2.4c1.6,1.5,2.3,3.8,2.3,6.6v12.7h-4.8v-2.7
				c-1.5,1.7-3.7,3.1-7,3.1C-501.5,366.9-505.1,364.6-505.1,360.3z M-490.3,358.7v-1.5c-1.3-0.5-2.9-0.9-4.9-0.9c-3.2,0-5,1.3-5,3.6
				v0.1c0,2.1,1.8,3.3,4.2,3.3C-492.8,363.3-490.3,361.5-490.3,358.7z"/>
			<path class="st0" d="M-481.8,345h4.9v3.3c1.4-1.9,3.3-3.7,6.6-3.7c3.1,0,5.3,1.5,6.4,3.8c1.7-2.3,4-3.8,7.2-3.8
				c4.7,0,7.5,3,7.5,8.2v13.7h-4.9v-12.2c0-3.4-1.6-5.2-4.4-5.2c-2.7,0-4.6,1.9-4.6,5.3v12.1h-4.9v-12.2c0-3.3-1.6-5.2-4.4-5.2
				c-2.7,0-4.6,2-4.6,5.3v12.1h-4.9V345z"/>
			<path class="st0" d="M-444.9,336.8h4.9v29.7h-4.9V336.8z"/>
			<path class="st0" d="M-435.5,337h5.3v4.7h-5.3V337z M-435.3,345h4.9v21.5h-4.9V345z"/>
			<path class="st0" d="M-426,345h4.9v3.3c1.4-2,3.4-3.7,6.7-3.7c4.8,0,7.6,3.3,7.6,8.2v13.7h-4.9v-12.2c0-3.3-1.7-5.2-4.6-5.2
				c-2.8,0-4.8,2-4.8,5.3v12.1h-4.9V345z"/>
			<path class="st0" d="M-404,355.9L-404,355.9c0-6.2,4.9-11.3,11.5-11.3c6.6,0,11.4,5,11.4,11.1v0.1c0,6.1-4.9,11.2-11.5,11.2
				C-399.1,367-404,362-404,355.9z M-386,355.9L-386,355.9c0-3.9-2.7-7-6.6-7c-3.9,0-6.5,3.1-6.5,6.8v0.1c0,3.7,2.7,6.9,6.6,6.9
				C-388.5,362.6-386,359.6-386,355.9z"/>
		</g>
		<g>
			<path class="st1" d="M-519.1,375.9c0-0.2,0.1-0.4,0.2-0.6c0.1-0.2,0.2-0.2,0.4-0.2c0.3,0,0.5,0.4,0.6,1.1
				c0.1,0.7,0.8,2.6,2.1,5.6c0.1-0.2,0.3-0.5,0.5-0.7c0.7-1.2,1.3-2.1,1.6-2.7c1.3-2.4,2.2-3.6,2.6-3.6c0.3,0,0.4,0.2,0.4,0.5
				c0,0.1,0,0.1,0,0.1c0,0-0.2,0.2-0.4,0.5c-0.7,1.1-1.4,2.2-2.1,3.3c-0.5,0.9-1,1.6-1.3,2.2c-0.4,0.6-0.6,1-0.7,1.3
				c0,0.1-0.2,0.3-0.3,0.4c-0.2,0.1-0.4,0.1-0.6,0.1c-0.1,0-0.3-0.5-0.7-1.4c-0.2-0.4-0.7-1.8-1.6-4
				C-518.8,376.5-519.1,375.9-519.1,375.9z"/>
			<path class="st1" d="M-510.1,381.9c0,0.3,0,0.6,0.1,1c0,0.1,0,0.1,0,0.2c0,0.1-0.1,0.2-0.2,0.3c-0.1,0.1-0.3,0.2-0.4,0.2
				c-0.4,0-0.5-0.3-0.5-1c0-0.7,0.1-1.8,0.4-3.3c0.1-0.5,0.1-0.8,0.1-1c0-0.2,0-0.4,0.1-0.6c0.1-0.2,0.2-0.3,0.4-0.3
				c0.2,0,0.3,0,0.5,0.1c0.1,0.1,0.2,0.2,0.2,0.3s0,0.3-0.1,0.4c-0.3,1-0.5,1.7-0.5,2.1C-510.1,380.8-510.1,381.3-510.1,381.9z
				 M-509.4,375.6c-0.1,0-0.1-0.1-0.2-0.3c0-0.1,0-0.1-0.1-0.2c-0.1-0.2-0.2-0.5-0.2-0.6c0-0.1,0.1-0.3,0.3-0.5
				c0.2-0.2,0.4-0.2,0.6-0.2c0.1,0,0.2,0,0.4,0.1c0.1,0.1,0.2,0.2,0.2,0.2c0,0.1,0,0.3-0.1,0.6s-0.2,0.5-0.4,0.6
				C-509.1,375.6-509.3,375.6-509.4,375.6z"/>
			<path class="st1" d="M-501.4,381.8c0-0.2-0.3-0.5-0.9-0.8c-0.8-0.4-1.3-0.7-1.5-0.9c-0.3-0.2-0.4-0.5-0.4-0.8
				c0-0.7,0.4-1.4,1.1-1.8c0.7-0.5,1.4-0.7,1.8-0.7c0.3,0,0.5,0.1,0.7,0.2c0.1,0.1,0.2,0.3,0.2,0.5c0,0.1,0,0.2-0.1,0.3
				c-0.1,0.1-0.2,0.1-0.2,0.1c0,0-0.1,0-0.2-0.1c-0.1-0.1-0.2-0.1-0.2-0.1c-0.2,0-0.6,0.1-1.1,0.4c-0.6,0.3-0.9,0.6-0.9,0.9
				c0,0.2,0.1,0.4,0.3,0.6c0.2,0.2,0.6,0.4,1.1,0.6c0.4,0.2,0.8,0.4,1,0.6c0.3,0.2,0.4,0.5,0.4,0.8c0,0.6-0.4,1-1.2,1.3
				c-0.8,0.3-1.5,0.5-2.3,0.5c-0.6,0-0.9-0.2-0.9-0.6c0-0.1,0.1-0.2,0.2-0.3c0.1-0.1,0.3-0.1,0.4-0.1c0.1,0,0.2,0,0.3,0.1
				c0.2,0,0.3,0.1,0.3,0.1c0.4,0,0.9-0.1,1.3-0.2C-501.8,382.2-501.5,382-501.4,381.8z"/>
			<path class="st1" d="M-496.1,381.1c-0.5,0.7-1,1.2-1.6,1.6c-0.5,0.4-1,0.5-1.4,0.5c-0.3,0-0.5-0.1-0.7-0.4
				c-0.2-0.2-0.3-0.6-0.3-0.9c0-1,0.4-2,1.3-3.2c0.9-1.1,1.7-1.7,2.6-1.7c0.3,0,0.5,0.2,0.7,0.5c0,0.1,0.1,0.2,0.2,0.2
				c0.3,0,0.4,0.1,0.4,0.3c0,0.1,0,0.3-0.1,0.5c-0.2,1.1-0.3,1.9-0.3,2.3c0,0.9,0.2,1.4,0.5,1.6c0.2,0.1,0.2,0.2,0.2,0.3
				c0,0.1-0.1,0.2-0.2,0.4c-0.2,0.1-0.3,0.2-0.5,0.2c-0.3,0-0.5-0.2-0.7-0.6C-496,382.4-496.1,381.8-496.1,381.1z M-496.4,377.9
				c-0.5,0-1.1,0.5-1.7,1.4c-0.7,0.9-1,1.7-1,2.3c0,0.4,0.1,0.6,0.4,0.6c0.4,0,1-0.4,1.7-1.2c0.7-0.8,1.1-1.6,1.1-2.3
				C-495.9,378.2-496.1,377.9-496.4,377.9z"/>
			<path class="st1" d="M-489.4,378.7c-0.3,0-1.1,1-2.2,3.1c-0.4,0.7-0.6,1.1-0.7,1.1c-0.1,0.1-0.2,0.1-0.3,0.2
				c-0.2,0-0.3,0.1-0.4,0.1c-0.3,0-0.4-0.5-0.4-1.5c0-0.5,0.1-1.5,0.4-3c0.1-0.6,0.1-1,0.1-1.2c0-0.2,0.1-0.4,0.3-0.4
				c0.4,0,0.6,0.3,0.6,0.9c0,0.3-0.1,0.8-0.2,1.6c-0.2,0.9-0.2,1.5-0.2,1.7c0.2-0.2,0.6-0.7,1-1.5c0.6-1,1.1-1.7,1.4-2
				c0.3-0.3,0.6-0.4,0.9-0.4c0.2,0,0.4,0.2,0.6,0.5c0.1,0.3,0.2,1.1,0.3,2.3c0,0.3,0,0.5,0.1,0.7c0,0.1,0.1,0.2,0.1,0.2
				c0.2,0,0.6-0.6,1.1-1.8c0.3-0.6,0.6-1.1,0.9-1.4c0.3-0.3,0.6-0.5,1-0.5c0.3,0,0.5,0.2,0.7,0.5c0.1,0.3,0.2,0.8,0.3,1.4
				c0.1,0.6,0.1,1.2,0.3,1.7c0.1,0.5,0.3,0.8,0.6,1c0.2,0.1,0.3,0.2,0.3,0.4c0,0.1-0.1,0.3-0.3,0.4s-0.3,0.2-0.5,0.2
				c-0.3,0-0.6-0.2-0.8-0.5c-0.2-0.4-0.4-1.2-0.5-2.4c-0.1-0.5-0.1-0.8-0.2-1c0-0.2-0.1-0.3-0.2-0.3c-0.2,0-0.3,0.1-0.6,0.4
				c-0.2,0.3-0.6,0.9-1,1.8c-0.4,0.7-0.7,1.2-0.8,1.4c-0.2,0.2-0.4,0.4-0.6,0.4c-0.2,0-0.3-0.1-0.4-0.2c-0.1-0.1-0.2-0.3-0.2-0.5
				c0-0.2-0.1-0.6-0.1-1.3C-489.1,379.6-489.2,378.9-489.4,378.7z"/>
			<path class="st1" d="M-478.1,378.7c-0.3,0-1.1,1-2.2,3.1c-0.4,0.7-0.6,1.1-0.7,1.1c-0.1,0.1-0.2,0.1-0.3,0.2
				c-0.2,0-0.3,0.1-0.4,0.1c-0.3,0-0.4-0.5-0.4-1.5c0-0.5,0.1-1.5,0.4-3c0.1-0.6,0.1-1,0.1-1.2c0-0.2,0.1-0.4,0.3-0.4
				c0.4,0,0.6,0.3,0.6,0.9c0,0.3-0.1,0.8-0.2,1.6c-0.2,0.9-0.2,1.5-0.2,1.7c0.2-0.2,0.6-0.7,1-1.5c0.6-1,1.1-1.7,1.4-2
				c0.3-0.3,0.6-0.4,0.9-0.4c0.2,0,0.4,0.2,0.6,0.5c0.1,0.3,0.2,1.1,0.3,2.3c0,0.3,0,0.5,0.1,0.7c0,0.1,0.1,0.2,0.1,0.2
				c0.2,0,0.6-0.6,1.1-1.8c0.3-0.6,0.6-1.1,0.9-1.4c0.3-0.3,0.6-0.5,1-0.5c0.3,0,0.5,0.2,0.7,0.5c0.1,0.3,0.2,0.8,0.3,1.4
				c0.1,0.6,0.1,1.2,0.3,1.7c0.1,0.5,0.3,0.8,0.6,1c0.2,0.1,0.3,0.2,0.3,0.4c0,0.1-0.1,0.3-0.3,0.4s-0.3,0.2-0.5,0.2
				c-0.3,0-0.6-0.2-0.8-0.5c-0.2-0.4-0.4-1.2-0.5-2.4c-0.1-0.5-0.1-0.8-0.2-1c0-0.2-0.1-0.3-0.2-0.3c-0.2,0-0.3,0.1-0.6,0.4
				c-0.2,0.3-0.6,0.9-1,1.8c-0.4,0.7-0.7,1.2-0.8,1.4c-0.2,0.2-0.4,0.4-0.6,0.4c-0.2,0-0.3-0.1-0.4-0.2c-0.1-0.1-0.2-0.3-0.2-0.5
				c0-0.2-0.1-0.6-0.1-1.3C-477.8,379.6-477.9,378.9-478.1,378.7z"/>
			<path class="st1" d="M-466.2,381.2c0,0.4-0.3,0.8-1,1.4c-0.7,0.5-1.4,0.8-2.1,0.8c-0.6,0-1.1-0.2-1.4-0.5
				c-0.3-0.4-0.5-0.8-0.5-1.5c0-1.1,0.4-2.1,1.1-3c0.7-1,1.5-1.4,2.4-1.4c0.3,0,0.5,0.1,0.7,0.3s0.3,0.4,0.3,0.7
				c0,0.6-0.3,1.1-0.8,1.7c-0.6,0.5-1.3,1-2.3,1.6c-0.2,0.1-0.3,0.2-0.3,0.4c0,0.3,0.1,0.6,0.3,0.7c0.2,0.2,0.4,0.3,0.8,0.3
				c0.8,0,1.6-0.4,2.5-1.3c0.1-0.1,0.2-0.2,0.3-0.2C-466.2,380.9-466.2,381-466.2,381.2z M-470.1,380.3c1.6-0.9,2.4-1.7,2.4-2.3
				c0-0.2-0.1-0.3-0.3-0.3c-0.3,0-0.7,0.3-1.2,0.8C-469.6,379-469.9,379.6-470.1,380.3z"/>
			<path class="st1" d="M-461.7,378.8c-0.2,0-0.4,0.1-0.6,0.4c-0.2,0.3-0.6,0.8-1.1,1.7c-0.6,1.2-1,1.9-1.2,2
				c-0.2,0.2-0.3,0.2-0.5,0.2c-0.4,0-0.7-0.2-0.7-0.6c0-0.2,0-0.4,0.1-0.8c0.2-1.1,0.3-2.3,0.3-3.6c0-0.1,0.1-0.3,0.2-0.5
				c0.1-0.2,0.2-0.3,0.3-0.3c0.2,0,0.3,0.1,0.4,0.2c0.1,0.1,0.1,0.4,0.1,0.7c0,0.4-0.1,1.2-0.3,2.3c-0.1,0.4-0.1,0.6-0.1,0.7
				c0,0.1,0,0.1,0,0.1c0.1,0,0.3-0.4,0.8-1.3c0.5-0.9,0.9-1.5,1.2-1.9c0.4-0.4,0.7-0.6,1.2-0.6c0.3,0,0.6,0.2,0.8,0.5
				c0.2,0.3,0.4,0.9,0.5,1.7c0.1,0.9,0.2,1.5,0.3,1.7s0.2,0.3,0.4,0.3c0.1,0,0.3,0,0.4-0.1c0,0,0.1,0,0.1,0c0.2,0,0.2,0.1,0.2,0.3
				c0,0.2-0.1,0.3-0.3,0.5c-0.2,0.2-0.5,0.3-0.8,0.3c-0.3,0-0.6-0.1-0.7-0.4c-0.2-0.3-0.3-0.9-0.4-2
				C-461.1,379.4-461.3,378.8-461.7,378.8z"/>
			<path class="st1" d="M-456.4,373.6c0.3,0,0.4,0.2,0.4,0.5c0,0.3-0.2,1-0.5,2.2c-0.2,0.7-0.4,1.5-0.5,2.4
				c-0.1,0.9-0.2,1.6-0.2,2.1c0,0.6,0,1.2,0.1,1.8c0,0.1,0,0.2,0,0.3c0,0.2-0.1,0.3-0.2,0.5c-0.1,0.1-0.3,0.2-0.4,0.2
				c-0.2,0-0.3-0.1-0.4-0.4c-0.1-0.2-0.1-0.6-0.1-1.2c0-1.3,0.2-2.8,0.5-4.7c0.3-1.8,0.5-2.9,0.7-3.2
				C-456.8,373.8-456.6,373.6-456.4,373.6z"/>
			<path class="st1" d="M-454.5,381.9c0,0.3,0,0.6,0.1,1c0,0.1,0,0.1,0,0.2c0,0.1-0.1,0.2-0.2,0.3c-0.1,0.1-0.3,0.2-0.4,0.2
				c-0.4,0-0.5-0.3-0.5-1c0-0.7,0.1-1.8,0.4-3.3c0.1-0.5,0.1-0.8,0.1-1c0-0.2,0-0.4,0.1-0.6c0.1-0.2,0.2-0.3,0.4-0.3
				c0.2,0,0.3,0,0.5,0.1c0.1,0.1,0.2,0.2,0.2,0.3s0,0.3-0.1,0.4c-0.3,1-0.5,1.7-0.5,2.1C-454.5,380.8-454.5,381.3-454.5,381.9z
				 M-453.8,375.6c-0.1,0-0.1-0.1-0.2-0.3c0-0.1,0-0.1-0.1-0.2c-0.1-0.2-0.2-0.5-0.2-0.6c0-0.1,0.1-0.3,0.3-0.5
				c0.2-0.2,0.4-0.2,0.6-0.2c0.1,0,0.2,0,0.4,0.1c0.1,0.1,0.2,0.2,0.2,0.2c0,0.1,0,0.3-0.1,0.6s-0.2,0.5-0.4,0.6
				C-453.5,375.6-453.7,375.6-453.8,375.6z"/>
			<path class="st1" d="M-448.8,381.1c0,0-0.2,0.1-0.4,0.3c-0.3,0.4-0.8,0.8-1.3,1.1c-0.5,0.3-1,0.5-1.5,0.5c-0.3,0-0.6-0.1-0.8-0.3
				c-0.2-0.2-0.3-0.5-0.3-0.9c0-0.6,0.2-1.2,0.7-1.9c0.4-0.7,1-1.3,1.8-1.9c0.8-0.5,1.5-0.8,2.1-0.8c0.3,0,0.6,0.1,0.8,0.3
				c0.1,0,0.1,0.1,0.1,0.1c0.1,0,0.1,0.1,0.2,0.3c0.1,0.1,0.1,0.3,0.1,0.4c0,0.1,0,0.1-0.1,0.3c-0.2,0.6-0.4,1.1-0.5,1.5
				c-0.1,0.4-0.2,1.1-0.3,2.1c-0.1,0.9-0.2,1.5-0.3,2c-0.1,0.5-0.3,0.9-0.6,1.4c-0.3,0.4-0.6,0.8-1,1c-0.4,0.2-0.8,0.3-1.2,0.3
				c-0.7,0-1.4-0.2-2.1-0.7c-0.7-0.5-1-0.9-1-1.2c0-0.2,0.1-0.3,0.2-0.3c0.1,0,0.3,0.1,0.6,0.3c0.9,0.6,1.7,0.9,2.4,0.9
				c0.6,0,1.1-0.3,1.4-1c0.3-0.7,0.5-1.6,0.7-2.9C-448.8,381.5-448.8,381.3-448.8,381.1z M-448.8,378c-0.3,0-0.7,0.2-1.2,0.5
				s-0.9,0.8-1.4,1.4c-0.4,0.6-0.7,1.2-0.7,1.6c0,0.1,0,0.3,0.1,0.3c0.1,0.1,0.2,0.1,0.3,0.1c0.3,0,0.8-0.2,1.3-0.5
				c0.5-0.3,1-0.8,1.4-1.4c0.4-0.6,0.6-1.1,0.6-1.4C-448.3,378.2-448.5,378-448.8,378z"/>
			<path class="st1" d="M-442.8,378.8c-0.2,0-0.4,0.1-0.6,0.4c-0.2,0.3-0.6,0.8-1.1,1.7c-0.6,1.2-1,1.9-1.2,2
				c-0.2,0.2-0.3,0.2-0.5,0.2c-0.4,0-0.7-0.2-0.7-0.6c0-0.2,0-0.4,0.1-0.8c0.2-1.1,0.3-2.3,0.3-3.6c0-0.1,0.1-0.3,0.2-0.5
				c0.1-0.2,0.2-0.3,0.3-0.3c0.2,0,0.3,0.1,0.4,0.2c0.1,0.1,0.1,0.4,0.1,0.7c0,0.4-0.1,1.2-0.3,2.3c-0.1,0.4-0.1,0.6-0.1,0.7
				c0,0.1,0,0.1,0,0.1c0.1,0,0.3-0.4,0.8-1.3c0.5-0.9,0.9-1.5,1.2-1.9c0.4-0.4,0.7-0.6,1.2-0.6c0.3,0,0.6,0.2,0.8,0.5
				c0.2,0.3,0.4,0.9,0.5,1.7c0.1,0.9,0.2,1.5,0.3,1.7c0.1,0.2,0.2,0.3,0.4,0.3c0.1,0,0.3,0,0.4-0.1c0,0,0.1,0,0.1,0
				c0.2,0,0.2,0.1,0.2,0.3c0,0.2-0.1,0.3-0.3,0.5c-0.2,0.2-0.5,0.3-0.8,0.3c-0.3,0-0.6-0.1-0.7-0.4c-0.2-0.3-0.3-0.9-0.4-2
				C-442.2,379.4-442.5,378.8-442.8,378.8z"/>
			<path class="st1" d="M-434.7,381.2c0,0.4-0.3,0.8-1,1.4c-0.7,0.5-1.4,0.8-2.1,0.8c-0.6,0-1.1-0.2-1.4-0.5
				c-0.3-0.4-0.5-0.8-0.5-1.5c0-1.1,0.4-2.1,1.1-3c0.7-1,1.5-1.4,2.4-1.4c0.3,0,0.5,0.1,0.7,0.3c0.2,0.2,0.3,0.4,0.3,0.7
				c0,0.6-0.3,1.1-0.8,1.7c-0.6,0.5-1.3,1-2.3,1.6c-0.2,0.1-0.3,0.2-0.3,0.4c0,0.3,0.1,0.6,0.3,0.7c0.2,0.2,0.4,0.3,0.8,0.3
				c0.8,0,1.6-0.4,2.5-1.3c0.1-0.1,0.2-0.2,0.3-0.2C-434.8,380.9-434.7,381-434.7,381.2z M-438.6,380.3c1.6-0.9,2.4-1.7,2.4-2.3
				c0-0.2-0.1-0.3-0.3-0.3c-0.3,0-0.7,0.3-1.2,0.8C-438.1,379-438.4,379.6-438.6,380.3z"/>
			<path class="st1" d="M-432.9,380.9c0-0.1,0.1-0.2,0.1-0.3c0.3-0.6,0.5-1,0.7-1.4c0.2-0.3,0.4-0.6,0.7-1c0.3-0.3,0.5-0.5,0.7-0.7
				c0.2-0.2,0.4-0.3,0.6-0.3c0.2-0.1,0.3-0.1,0.5-0.1c0.3,0,0.6,0.1,0.8,0.3c0.2,0.2,0.3,0.4,0.3,0.7c0,0.1,0,0.2-0.1,0.3
				c-0.1,0.1-0.2,0.1-0.3,0.1c-0.2,0-0.3-0.1-0.4-0.2c-0.1-0.1-0.3-0.2-0.4-0.2c-0.4,0-0.9,0.5-1.6,1.4c-0.7,0.9-1.1,2-1.3,3.1
				c0,0.3-0.1,0.5-0.2,0.6c-0.1,0.1-0.3,0.1-0.4,0.1c-0.2,0-0.3-0.1-0.4-0.4c-0.1-0.3-0.1-0.7-0.1-1.4c0-0.2,0-0.6,0-1.2
				c0-0.7,0.1-1.3,0.1-1.7c0-0.1,0-0.2,0.1-0.5c0-0.3,0.1-0.5,0.1-0.6c0-0.1,0.1-0.2,0.2-0.3c0.1-0.1,0.3-0.1,0.4-0.1
				c0.1,0,0.2,0,0.3,0.1c0.1,0.1,0.1,0.2,0.1,0.3c0,0.1,0,0.4-0.1,0.6c-0.1,0.3-0.1,0.5-0.2,0.6c0,0.1,0,0.3-0.1,0.4
				c0,0.2-0.1,0.6-0.1,1.3l0,0.2V380.9z"/>
			<path class="st1" d="M-428.5,384.2c0.7-0.2,1.1-0.4,1.3-0.7c0.2-0.3,0.3-0.5,0.3-0.7c0-0.4-0.1-0.7-0.2-0.8
				c0-0.1-0.1-0.1-0.1-0.2c0-0.1,0-0.1,0.1-0.2s0.1-0.2,0.2-0.2c0.1,0,0.2,0,0.4,0.1c0.2,0.1,0.3,0.1,0.3,0.2c0,0,0.1,0.2,0.1,0.4
				c0.1,0.2,0.1,0.4,0.1,0.6c0,0.1-0.1,0.3-0.2,0.6c-0.1,0.3-0.3,0.6-0.6,0.8c-0.2,0.2-0.5,0.3-0.7,0.3c-0.1,0-0.2,0-0.2,0.1
				c-0.3,0.1-0.5,0.2-0.7,0.2c-0.1,0-0.2-0.1-0.2-0.3C-428.6,384.3-428.6,384.2-428.5,384.2z"/>
			<path class="st1" d="M-417.1,380.8c-0.5,0.8-1,1.4-1.6,1.9c-0.6,0.4-1.1,0.7-1.5,0.7c-0.4,0-0.6-0.1-0.9-0.4s-0.3-0.6-0.3-1.1
				c0-0.9,0.4-1.9,1.2-2.9c0.8-1,1.6-1.5,2.5-1.5c0.4,0,0.7,0.2,1.1,0.5l0.8-3.7c0.1-0.3,0.2-0.4,0.3-0.5c0.2-0.1,0.3-0.1,0.4-0.1
				c0.3,0,0.4,0.2,0.4,0.7c0,0.1-0.1,0.4-0.3,0.9c-0.3,0.8-0.5,1.8-0.8,3c-0.2,1.2-0.4,2.2-0.4,2.9c0,0.7,0.2,1.1,0.5,1.1
				c0.2,0,0.4-0.1,0.7-0.2c0.1-0.1,0.2-0.1,0.3-0.1c0.1,0,0.2,0.1,0.2,0.2c0,0.2-0.2,0.4-0.5,0.7c-0.3,0.3-0.7,0.4-1,0.4
				c-0.6,0-0.9-0.6-0.9-1.8C-417.1,381.2-417.1,381-417.1,380.8z M-417.8,378.2c-0.6,0-1.2,0.4-1.8,1.2c-0.6,0.8-0.9,1.6-0.9,2.3
				c0,0.5,0.2,0.7,0.5,0.7c0.3,0,0.6-0.2,1.1-0.5c0.4-0.3,0.8-0.8,1.3-1.5c0.4-0.7,0.7-1.2,0.7-1.5c0-0.2-0.1-0.3-0.2-0.5
				C-417.4,378.3-417.6,378.2-417.8,378.2z"/>
			<path class="st1" d="M-410,380.7c-0.5,0.8-1,1.4-1.5,1.9c-0.5,0.4-1,0.7-1.4,0.7c-0.2,0-0.5-0.1-0.8-0.4
				c-0.3-0.3-0.4-0.7-0.4-1.3c0-0.5,0.1-1.2,0.4-2.2c0.2-0.8,0.3-1.4,0.3-1.7c0.1-0.2,0.3-0.3,0.5-0.3c0.2,0,0.3,0.1,0.4,0.2
				c0.1,0.1,0.1,0.2,0.1,0.3c0,0.3-0.1,0.6-0.3,1.1c-0.3,0.9-0.5,1.7-0.5,2.4c0,0.6,0.1,0.9,0.4,0.9c0.4,0,0.8-0.3,1.4-0.9
				c0.6-0.6,1-1.5,1.4-2.6c0.2-0.4,0.3-0.7,0.4-0.9c0.1-0.1,0.2-0.2,0.4-0.2c0.3,0,0.4,0.2,0.4,0.5c0,0,0,0.2-0.1,0.4
				c-0.2,0.8-0.3,1.6-0.3,2.3c0,0.9,0.1,1.4,0.4,1.7c0.1,0.1,0.2,0.3,0.2,0.3c0,0.1-0.1,0.2-0.2,0.3c-0.2,0.1-0.3,0.1-0.4,0.1
				c-0.3,0-0.5-0.2-0.6-0.6c-0.2-0.4-0.2-1-0.2-1.7v-0.2C-410,380.8-410,380.7-410,380.7z"/>
			<path class="st1" d="M-400.6,381.8c0-0.2-0.3-0.5-0.9-0.8c-0.8-0.4-1.3-0.7-1.5-0.9c-0.3-0.2-0.4-0.5-0.4-0.8
				c0-0.7,0.4-1.4,1.1-1.8c0.7-0.5,1.4-0.7,1.8-0.7c0.3,0,0.5,0.1,0.7,0.2c0.1,0.1,0.2,0.3,0.2,0.5c0,0.1,0,0.2-0.1,0.3
				c-0.1,0.1-0.2,0.1-0.2,0.1c0,0-0.1,0-0.2-0.1c-0.1-0.1-0.2-0.1-0.2-0.1c-0.2,0-0.6,0.1-1.1,0.4c-0.6,0.3-0.9,0.6-0.9,0.9
				c0,0.2,0.1,0.4,0.3,0.6c0.2,0.2,0.6,0.4,1.1,0.6c0.4,0.2,0.8,0.4,1,0.6c0.3,0.2,0.4,0.5,0.4,0.8c0,0.6-0.4,1-1.2,1.3
				c-0.8,0.3-1.5,0.5-2.3,0.5c-0.6,0-0.9-0.2-0.9-0.6c0-0.1,0.1-0.2,0.2-0.3c0.1-0.1,0.3-0.1,0.4-0.1c0.1,0,0.2,0,0.3,0.1
				c0.2,0,0.3,0.1,0.3,0.1c0.4,0,0.9-0.1,1.3-0.2C-401,382.2-400.7,382-400.6,381.8z"/>
			<path class="st1" d="M-397.9,382.5c-0.2,0.7-0.4,1.6-0.5,2.8l-0.2,1.1c0,0.1-0.1,0.3-0.2,0.4c-0.1,0.1-0.2,0.2-0.3,0.2
				c-0.1,0-0.2-0.1-0.4-0.2c-0.1-0.1-0.2-0.2-0.2-0.3c0-0.2,0-0.5,0.1-0.9c0.7-2.8,1-5.2,1-7.3l0-0.5c0-0.4,0.1-0.7,0.2-0.9
				c0.1-0.2,0.3-0.3,0.5-0.3c0.1,0,0.2,0.1,0.3,0.2c0.1,0.1,0.1,0.3,0.1,0.6c0,0.4,0,0.8-0.1,1.3c-0.1,0.6-0.1,1-0.2,1.1
				c0.6-1,1.1-1.7,1.8-2.3c0.6-0.5,1.2-0.8,1.7-0.8c0.4,0,0.7,0.1,1,0.4c0.3,0.3,0.4,0.6,0.4,1.1c0,1.2-0.5,2.3-1.4,3.3
				s-1.8,1.5-2.7,1.5c-0.2,0-0.4-0.1-0.5-0.2C-397.6,383-397.8,382.8-397.9,382.5z M-394.4,378c-0.5,0-1.2,0.5-2,1.5
				c-0.8,1-1.2,1.8-1.2,2.3c0,0.1,0.1,0.3,0.2,0.4c0.2,0.1,0.3,0.2,0.6,0.2c0.5,0,1.1-0.4,1.8-1.2c0.7-0.8,1-1.6,1-2.3
				c0-0.3-0.1-0.5-0.2-0.6C-394.1,378-394.3,378-394.4,378z"/>
			<path class="st1" d="M-388.3,381.1c-0.5,0.7-1,1.2-1.6,1.6c-0.5,0.4-1,0.5-1.4,0.5c-0.3,0-0.5-0.1-0.7-0.4
				c-0.2-0.2-0.3-0.6-0.3-0.9c0-1,0.4-2,1.3-3.2c0.9-1.1,1.8-1.7,2.6-1.7c0.3,0,0.5,0.2,0.7,0.5c0,0.1,0.1,0.2,0.2,0.2
				c0.3,0,0.4,0.1,0.4,0.3c0,0.1,0,0.3-0.1,0.5c-0.2,1.1-0.3,1.9-0.3,2.3c0,0.9,0.2,1.4,0.5,1.6c0.2,0.1,0.2,0.2,0.2,0.3
				c0,0.1-0.1,0.2-0.2,0.4c-0.2,0.1-0.3,0.2-0.5,0.2c-0.3,0-0.5-0.2-0.7-0.6C-388.2,382.4-388.3,381.8-388.3,381.1z M-388.6,377.9
				c-0.5,0-1.1,0.5-1.7,1.4c-0.7,0.9-1,1.7-1,2.3c0,0.4,0.1,0.6,0.4,0.6c0.4,0,1-0.4,1.7-1.2c0.7-0.8,1.1-1.6,1.1-2.3
				C-388.1,378.2-388.3,377.9-388.6,377.9z"/>
			<path class="st1" d="M-384.7,380.9c0-0.1,0.1-0.2,0.1-0.3c0.3-0.6,0.5-1,0.7-1.4c0.2-0.3,0.4-0.6,0.7-1c0.3-0.3,0.5-0.5,0.7-0.7
				c0.2-0.2,0.4-0.3,0.6-0.3c0.2-0.1,0.3-0.1,0.5-0.1c0.3,0,0.6,0.1,0.8,0.3c0.2,0.2,0.3,0.4,0.3,0.7c0,0.1,0,0.2-0.1,0.3
				c-0.1,0.1-0.2,0.1-0.3,0.1c-0.2,0-0.3-0.1-0.4-0.2c-0.1-0.1-0.3-0.2-0.4-0.2c-0.4,0-0.9,0.5-1.6,1.4c-0.7,0.9-1.1,2-1.3,3.1
				c0,0.3-0.1,0.5-0.2,0.6c-0.1,0.1-0.3,0.1-0.4,0.1c-0.2,0-0.3-0.1-0.4-0.4c-0.1-0.3-0.1-0.7-0.1-1.4c0-0.2,0-0.6,0-1.2
				c0-0.7,0.1-1.3,0.1-1.7c0-0.1,0-0.2,0.1-0.5c0-0.3,0.1-0.5,0.1-0.6c0-0.1,0.1-0.2,0.2-0.3c0.1-0.1,0.3-0.1,0.4-0.1
				c0.1,0,0.2,0,0.3,0.1c0.1,0.1,0.1,0.2,0.1,0.3c0,0.1,0,0.4-0.1,0.6c-0.1,0.3-0.1,0.5-0.2,0.6c0,0.1,0,0.3-0.1,0.4
				c0,0.2-0.1,0.6-0.1,1.3l0,0.2V380.9z"/>
			<path class="st1" d="M-375.6,381.2c0,0.4-0.3,0.8-1,1.4c-0.7,0.5-1.4,0.8-2.1,0.8c-0.6,0-1.1-0.2-1.4-0.5
				c-0.3-0.4-0.5-0.8-0.5-1.5c0-1.1,0.4-2.1,1.1-3c0.7-1,1.5-1.4,2.4-1.4c0.3,0,0.5,0.1,0.7,0.3c0.2,0.2,0.3,0.4,0.3,0.7
				c0,0.6-0.3,1.1-0.8,1.7c-0.6,0.5-1.3,1-2.3,1.6c-0.2,0.1-0.3,0.2-0.3,0.4c0,0.3,0.1,0.6,0.3,0.7c0.2,0.2,0.4,0.3,0.8,0.3
				c0.8,0,1.6-0.4,2.5-1.3c0.1-0.1,0.2-0.2,0.3-0.2C-375.6,380.9-375.6,381-375.6,381.2z M-379.5,380.3c1.6-0.9,2.4-1.7,2.4-2.3
				c0-0.2-0.1-0.3-0.3-0.3c-0.3,0-0.7,0.3-1.2,0.8C-379,379-379.3,379.6-379.5,380.3z"/>
			<path class="st1" d="M-373.8,380.9c0-0.1,0.1-0.2,0.1-0.3c0.3-0.6,0.5-1,0.7-1.4c0.2-0.3,0.4-0.6,0.7-1c0.3-0.3,0.5-0.5,0.7-0.7
				c0.2-0.2,0.4-0.3,0.6-0.3c0.2-0.1,0.3-0.1,0.5-0.1c0.3,0,0.6,0.1,0.8,0.3c0.2,0.2,0.3,0.4,0.3,0.7c0,0.1,0,0.2-0.1,0.3
				c-0.1,0.1-0.2,0.1-0.3,0.1c-0.2,0-0.3-0.1-0.4-0.2c-0.1-0.1-0.3-0.2-0.4-0.2c-0.4,0-0.9,0.5-1.6,1.4c-0.7,0.9-1.1,2-1.3,3.1
				c0,0.3-0.1,0.5-0.2,0.6c-0.1,0.1-0.3,0.1-0.4,0.1c-0.2,0-0.3-0.1-0.4-0.4c-0.1-0.3-0.1-0.7-0.1-1.4c0-0.2,0-0.6,0-1.2
				c0-0.7,0.1-1.3,0.1-1.7c0-0.1,0-0.2,0.1-0.5c0-0.3,0.1-0.5,0.1-0.6s0.1-0.2,0.2-0.3c0.1-0.1,0.3-0.1,0.4-0.1c0.1,0,0.2,0,0.3,0.1
				c0.1,0.1,0.1,0.2,0.1,0.3c0,0.1,0,0.4-0.1,0.6c-0.1,0.3-0.1,0.5-0.2,0.6c0,0.1,0,0.3-0.1,0.4c0,0.2-0.1,0.6-0.1,1.3l0,0.2V380.9z
				"/>
		</g>
		<g>
			<path class="st0" d="M-315.1,344.4l-2.5,3.5c1.4,2.3,2.2,5,2.2,7.7c0,8.1-6.6,14.6-14.7,14.6c-8.1,0-14.7-6.6-14.7-14.6
				c0-8.1,6.6-14.6,14.7-14.6c2.5,0,5,0.7,7.2,1.9l2.7-3.1c-3-1.9-6.4-2.8-9.9-2.8c-10.3,0-18.7,8.4-18.7,18.7
				c0,4.3,1.5,8.4,4.1,11.7l0,0.1l0,0.2l-3.6,3.6l-1-0.9l-12.8,12.4l3.6,4l12.9-12.4l-0.9-0.9l4-3.8l0.1,0.1
				c3.4,2.9,7.7,4.5,12.2,4.5c10.3,0,18.7-8.4,18.7-18.7C-311.4,351.5-312.7,347.6-315.1,344.4"/>
			<path class="st2" d="M-340.7,349.9c0,0,7,7,10.6,15.9c0,0,12.3-24.6,21.1-31.8c0,0-7,2.5-21.1,20
				C-330.1,353.9-336.4,349.9-340.7,349.9"/>
		</g>
	</g>
	<g>
		<path class="st3" d="M-379.9,363.7h2.7v2.8h-2.7V363.7z"/>
		<path class="st3" d="M-370.7,366.7c-0.6,0-1.2-0.1-1.8-0.4c-0.6-0.2-1.1-0.6-1.6-1.1c-0.5-0.5-0.8-1.1-1.1-1.7
			c-0.3-0.7-0.4-1.5-0.4-2.4v0c0-0.9,0.1-1.7,0.4-2.4c0.3-0.7,0.6-1.3,1.1-1.7c0.5-0.5,1-0.8,1.6-1.1c0.6-0.2,1.2-0.4,1.8-0.4
			c0.9,0,1.6,0.2,2.2,0.6c0.6,0.4,1.1,0.8,1.5,1.3v-5.7h2.5v14.7h-2.5l0-1.8c-0.4,0.6-0.9,1-1.5,1.4
			C-369.1,366.5-369.8,366.7-370.7,366.7z M-370.1,364.5c0.4,0,0.8-0.1,1.2-0.2c0.4-0.2,0.7-0.4,1-0.7c0.3-0.3,0.5-0.7,0.7-1.1
			c0.2-0.4,0.3-0.9,0.3-1.4v0c0-0.5-0.1-1-0.3-1.4c-0.2-0.4-0.4-0.8-0.7-1.1c-0.3-0.3-0.6-0.5-1-0.7c-0.4-0.2-0.8-0.2-1.2-0.2
			c-0.4,0-0.8,0.1-1.2,0.2c-0.4,0.2-0.7,0.4-1,0.7s-0.5,0.7-0.7,1.1c-0.2,0.4-0.2,0.9-0.2,1.4v0c0,0.5,0.1,1,0.2,1.4
			c0.2,0.4,0.4,0.8,0.7,1.1c0.3,0.3,0.6,0.5,1,0.7C-370.9,364.5-370.5,364.5-370.1,364.5z"/>
		<path class="st3" d="M-362.4,351.7h2.5v8.8l4.4-4.7h3l-4.2,4.3l4.4,6.3h-2.8l-3.2-4.6l-1.5,1.6v3.1h-2.5V351.7z"/>
	</g>
</g>
</svg>
