<svg id="bucher-logo" version="1.1" xmlns="http://www.w3.org/2000/svg" x="0px" y="0px" viewBox="0 0 160.6 30" style="enable-background:new 0 0 160.6 30;" xml:space="preserve"><style type="text/css">
                        .st0{fill:#FFFFFF;}
                        .st1{fill:#DC241F;}
                    </style><g id="Layer_2"></g><g id="Layer_1"><g><path class="st0" d="M56.9,15.3c0,8.6,5.2,13.5,14.2,13.5c4,0,5.5-0.4,6.1-0.6c0-0.5,0-5.4,0-6.5c-1.6,0.5-3.7,0.5-4.4,0.5
                                c-4.6,0-7.4-2.8-7.4-7.4c0-4.7,2.7-7.4,7.4-7.4c1.9,0,3.5,0.4,4.3,0.6c0-1,0-5.7,0-6.3c-0.7-0.2-2.6-0.5-5.3-0.5
                                C62.3,1.2,56.9,6.3,56.9,15.3L56.9,15.3z M135.4,1.7c0,0.9,0,25.7,0,26.5c0.8,0,7.4,0,8.2,0c0-0.8,0-9,0-9c0-0.3,0.2-0.5,0.5-0.5
                                h0.9c1.6,0,2,0.2,2.8,2.1c0,0,2.6,6,3.2,7.4c0.5,0,7.8,0,9,0c-0.8-2-3.4-8.1-4.3-9.6c-0.8-1.2-1.4-1.5-1.9-1.7
                                c-0.2-0.1-0.3-0.2-0.3-0.4v-0.3c0-0.2,0.1-0.4,0.3-0.4l0.8-0.3c0.9-0.4,3.6-1.9,3.6-5.9c0-3.8-1.6-6.1-5.2-7.3
                                c-2-0.6-4.7-0.6-6.7-0.6C146.2,1.7,136.2,1.7,135.4,1.7L135.4,1.7z M143.6,13.4V7.8c0-0.3,0.2-0.5,0.5-0.5h1.8l1,0
                                c1.2,0.1,3.5,0.3,3.5,3.1c0,3.1-2.4,3.3-3.4,3.4c0,0-1.1,0-1.1,0h-1.9C143.8,13.9,143.6,13.7,143.6,13.4L143.6,13.4z M111.8,1.7
                                c0,0.9,0,25.7,0,26.5c0.8,0,17.9,0,18.7,0c0-0.7,0-5.3,0-6c-0.8,0-10.1,0-10.1,0c-0.3,0-0.5-0.2-0.5-0.5V18c0-0.3,0.2-0.5,0.5-0.5
                                c0,0,8.4,0,9.2,0c0-0.7,0-4.6,0-5.4c-0.8,0-9.2,0-9.2,0c-0.3,0-0.5-0.2-0.5-0.5V8.2c0-0.3,0.2-0.5,0.5-0.5c0,0,8.7,0,9.5,0
                                c0-0.7,0-5.3,0-6C129.1,1.7,112.6,1.7,111.8,1.7L111.8,1.7z M98,1.7c0,0.8,0,9.5,0,9.5c0,0.3-0.2,0.5-0.5,0.5h-7
                                c-0.3,0-0.5-0.2-0.5-0.5c0,0,0-8.6,0-9.5c-0.8,0-7.4,0-8.2,0c0,0.9,0,25.7,0,26.5c0.8,0,7.4,0,8.2,0c0-0.8,0-10.1,0-10.1
                                c0-0.3,0.2-0.5,0.5-0.5h7c0.3,0,0.5,0.2,0.5,0.5c0,0,0,9.2,0,10.1c0.8,0,7.4,0,8.2,0c0-0.9,0-25.7,0-26.5
                                C105.3,1.7,98.7,1.7,98,1.7L98,1.7z M0.5,1.7c0,0.9,0,25.7,0,26.5c0.8,0,12.8,0,12.8,0c1,0,3.2-0.1,4.2-0.2
                                c4.6-0.8,6.8-3.3,6.8-7.6c0-3.3-1.6-5.5-4.6-6.2c0,0-0.2,0-0.2,0c-0.2,0-0.4-0.2-0.4-0.4v-0.4c0-0.2,0.2-0.4,0.4-0.4l0.2,0
                                c2.2-0.4,3.8-2.5,3.8-5.1c0-3.3-1.9-5.3-5.9-5.9c-0.9-0.2-3-0.2-3.9-0.2C13.7,1.7,1.3,1.7,0.5,1.7L0.5,1.7z M8.6,12.2v-5
                                c0-0.3,0.2-0.5,0.5-0.5h2.1l1.2,0c1.5,0.1,3.1,0.6,3.1,3c0,2.3-1.5,2.8-3,2.9c0,0-1.2,0-1.2,0H9.1C8.8,12.6,8.6,12.4,8.6,12.2
                                L8.6,12.2z M8.6,22.6v-5.3c0-0.3,0.2-0.5,0.5-0.5h2.4l1.1,0c1,0.1,3.4,0.3,3.4,2.9c0,3-2.2,3.1-3.3,3.2c0,0-1.1,0-1.1,0H9.1
                                C8.8,23.1,8.6,22.9,8.6,22.6L8.6,22.6z M44.6,2.1c0,0.9,0,16,0,16c0,3.7-2.1,4.5-3.9,4.5c-2.6,0-4-1.6-4-4.5c0,0,0-15.2,0-16
                                c-0.8,0-7.4,0-8.2,0c0,0.9,0,16.1,0,16.1c0,7,4.1,10.6,12.2,10.6c8.1,0,12-3.5,12-10.6c0,0,0-15.3,0-16.1
                                C51.9,2.1,45.3,2.1,44.6,2.1L44.6,2.1z"></path><path class="st1" d="M13.3,28.7H0V1.3h13.7c0.9,0,3,0.1,4,0.2c3.3,0.5,6.2,2.1,6.2,6.3c0,2.9-1.8,5.1-4.2,5.5l-0.2,0v0.4l0.2,0
                                c3.2,0.7,5,3.1,5,6.6c0,5.4-3.4,7.3-7.2,8C16.5,28.6,14.3,28.7,13.3,28.7L13.3,28.7L13.3,28.7z M9.1,7.2v5h2.2c0.4,0,0.7,0,1.1,0
                                C13.8,12,15,11.6,15,9.7c0-2-1.2-2.4-2.7-2.5c-0.4,0-0.8,0-1.1,0H9.1L9.1,7.2z M40.7,29.3c-8.2,0-12.7-3.7-12.7-11.1V1.6h9.1v16.5
                                c0,2.3,1,4,3.6,4c2.7,0,3.5-1.8,3.5-4V1.6h9v16.6C53.1,25.6,49.1,29.3,40.7,29.3L40.7,29.3L40.7,29.3z M77.4,8.6
                                c0,0-2.1-0.7-4.7-0.7c-4.2,0-6.9,2.3-6.9,7c0,4.6,2.9,6.9,7,6.9c1.4,0,3.6-0.2,4.8-0.7v7.4c0,0-1.1,0.7-6.5,0.7
                                c-8.7,0-14.6-4.7-14.6-13.9C56.4,5.2,63,0.7,71.8,0.7c3.6,0,5.7,0.6,5.7,0.6L77.4,8.6L77.4,8.6z M97.5,28.7V18.2h-7v10.5h-9.1V1.3
                                h9.1v9.9h7V1.3h9.1v27.4H97.5L97.5,28.7z M111.3,28.7V1.3h19.1v6.9h-10v3.5h9.6V18h-9.6v3.8h10.5v6.9H111.3L111.3,28.7z
                                 M150.7,28.7l-3.3-7.6c-0.7-1.7-1-1.8-2.4-1.8h-0.9v9.4H135V1.3h11.3c2,0,4.7,0,6.9,0.7c3,1,5.5,3,5.5,7.7c0,3.9-2.4,5.7-3.9,6.4
                                c-0.3,0.1-0.8,0.3-0.8,0.3v0.3c0.7,0.2,1.4,0.6,2.2,1.9c1.1,1.8,4.6,10.3,4.6,10.3H150.7L150.7,28.7z M9.1,17.3v5.3h2.4
                                c0.4,0,0.7,0,1.1,0c1.5-0.1,2.9-0.5,2.9-2.8c0-2-1.5-2.4-3-2.5c-0.4,0-0.7,0-1.1,0H9.1L9.1,17.3z M144.1,7.8v5.6h1.9
                                c0.3,0,0.7,0,1,0c1.3-0.1,3-0.4,3-2.9c0-2.3-1.7-2.5-3.1-2.6c-0.4,0-0.6,0-1,0H144.1L144.1,7.8z"></path></g></g></svg>
