<?xml version="1.0" encoding="utf-8"?>
<!-- Generator: Adobe Illustrator 13.0.1, SVG Export Plug-In  -->
<!DOCTYPE svg PUBLIC "-//W3C//DTD SVG 1.1//EN" "http://www.w3.org/Graphics/SVG/1.1/DTD/svg11.dtd" [
	<!ENTITY ns_flows "http://ns.adobe.com/Flows/1.0/">
]>
<svg version="1.1"
	 xmlns="http://www.w3.org/2000/svg" xmlns:xlink="http://www.w3.org/1999/xlink" xmlns:a="http://ns.adobe.com/AdobeSVGViewerExtensions/3.0/"
	 x="0px" y="0px" width="411px" height="85px" viewBox="0 0 411 85" enable-background="new 0 0 411 85" xml:space="preserve">
<defs>
</defs>
<polygon fill="#00529C" points="22.678,37.273 22.454,37.273 22.454,1.684 0,1.684 0,82.741 22.454,82.741 22.454,39.63 
	22.678,39.63 49.397,82.741 77.24,82.741 47.04,37.385 74.995,1.684 48.387,1.684 22.678,37.273 "/>
<polygon fill="#00529C" points="147.933,82.741 147.933,67.023 108.64,67.023 108.64,49.847 144.79,49.847 144.79,34.129 
	108.64,34.129 108.64,17.401 147.933,17.401 147.933,1.684 86.186,1.684 86.186,82.741 147.933,82.741 "/>
<path fill="#00529C" d="M226.744,25.485C228.092,5.95,210.916,0,194.188,0c-16.953,0-33.792,5.277-34.691,24.475
	c0,8.757,4.042,16.166,12.237,19.759c17.625,7.746,34.241,5.389,34.241,16.392c0,5.389-6.624,8.083-11.788,8.083
	c-8.083,0-13.697-4.154-13.584-11.788H158.15c0.337,22.004,16.953,27.505,35.813,27.505c18.748,0,35.589-8.083,35.589-25.147
	c0-21.892-19.76-23.239-33.344-26.72c-5.95-1.572-13.135-3.48-13.135-9.431c0-4.042,4.491-7.409,9.655-7.409
	c3.817,0,6.736,0.898,8.645,2.582c2.021,1.684,3.031,4.042,2.919,7.185H226.744L226.744,25.485z"/>
<polygon fill="#00529C" points="265.893,37.273 265.668,37.273 265.668,1.684 243.215,1.684 243.215,82.741 265.668,82.741 
	265.668,39.63 265.893,39.63 292.613,82.741 320.455,82.741 290.254,37.385 318.209,1.684 291.602,1.684 265.893,37.273 "/>
<path fill-rule="evenodd" clip-rule="evenodd" fill="#00529C" d="M386.881,42.55c0,12.012-3.143,26.158-18.41,26.158
	c-15.27,0-18.412-14.146-18.412-26.158c0-12.687,3.143-26.832,18.412-26.832C383.738,15.718,386.881,29.863,386.881,42.55
	L386.881,42.55z M368.471,84.425c26.83,0,41.986-15.493,41.986-42.213C410.457,15.493,395.301,0,368.471,0
	c-26.832,0-41.988,15.493-41.988,42.212C326.482,68.932,341.639,84.425,368.471,84.425L368.471,84.425z"/>
</svg>
