<svg xmlns="http://www.w3.org/2000/svg" xmlns:xlink="http://www.w3.org/1999/xlink" width="353" height="120"><g><svg xmlns="http://www.w3.org/2000/svg" xmlns:xlink="http://www.w3.org/1999/xlink" width="353" height="120"/><svg xmlns="http://www.w3.org/2000/svg" width="353" height="120" version="1.0" viewBox="0 0 353 120"><g fill="#10202e" transform="matrix(.1 0 0 -.1 0 120)"><path d="M433 1065c-101-31-191-112-244-220-43-89-49-141-49-435 0-217 3-270 14-279 9-8 45-11 98-9l83 3 3 153 3 152h59c32 0 70 4 84 10 25 9 26 14 26 79 0 84-8 91-104 91h-66l6 48c7 51 32 114 61 149 10 13 43 36 73 51l55 29 3 82c4 114-9 126-105 96zm2850-176c-61-18-155-92-200-157-71-105-83-161-83-398V130l26-10c39-15 127-12 152 6 21 15 22 21 22 188 0 197 12 254 63 313 18 20 52 45 77 56s48 25 52 31c13 19 9 161-4 174-14 14-59 14-105 1zM879 875c-157-50-259-200-259-379 0-138 55-253 153-320 80-55 129-69 237-70 106-1 166 15 244 64 40 26 46 34 46 64 0 26-8 41-35 65-20 17-42 31-50 31s-41-14-74-31c-105-55-224-37-285 44-14 19-29 48-32 65l-6 32h245c225 0 247 2 268 19 23 18 23 21 13 93-29 200-159 327-342 335-49 2-94-3-123-12zm185-174c32-18 61-54 71-88l6-23H986c-147 0-156 1-156 19 0 23 43 76 74 93 54 29 107 29 160-1zm1383 178c-170-40-289-220-274-414 19-252 234-408 489-354 96 21 198 83 198 122 0 26-67 97-92 97-8 0-43-14-76-31-47-25-73-32-116-31-100 1-181 59-201 145l-7 27h244c285 0 288 1 288 79 0 121-70 252-171 316-75 48-189 66-282 44zm143-163c32-7 87-63 95-98l7-28h-156c-171 0-171 0-136 57 30 49 103 87 150 78 8-2 26-6 40-9zM1370 850c-9-17 15-75 153-372l163-353 70-3c49-2 74 1 81 10 5 7 80 167 167 355 186 405 184 385 48 381l-86-3-101-222c-55-123-102-223-105-223-3 1-50 101-105 223l-100 222-87 3c-79 2-88 1-98-18z"/></g></svg></g></svg>