<svg width="1196" height="170" viewBox="0 0 1196 170" fill="none" xmlns="http://www.w3.org/2000/svg">
<path d="M340.425 11.1611V43.3501H357.738V52.668H340.425V106.975C340.425 112.058 340.607 115.352 340.97 116.858C341.386 118.301 342.088 119.493 343.076 120.434C344.064 121.313 344.974 121.752 345.806 121.752C349.185 121.752 352.383 118.646 355.398 112.434L357.738 114.505C353.527 126.552 346.69 132.576 337.227 132.576C332.6 132.576 328.674 131.038 325.451 127.964C322.279 124.827 320.252 121.344 319.368 117.517C318.848 115.383 318.588 109.611 318.588 100.199V52.668H309.073V49.3738C315.624 43.7894 321.187 37.9226 325.763 31.7734C330.39 25.6242 334.419 18.7535 337.851 11.1611H340.425Z" fill="#2F85DB"/>
<path d="M295.094 43.3486V112.244C295.094 118.958 295.613 123.162 296.653 124.856C297.693 126.488 299.799 127.523 302.97 127.962V131.351H273.257V119.586C269.773 124.605 266.29 128.276 262.806 130.598C259.323 132.857 255.423 133.986 251.108 133.986C247.001 133.986 243.335 132.48 240.112 129.468C236.94 126.394 234.809 122.817 233.717 118.739C232.625 114.66 232.079 107.538 232.079 97.3735V62.455C232.079 55.8038 231.559 51.6626 230.519 50.0311C229.531 48.3997 227.426 47.333 224.202 46.8311V43.3486H253.916V103.491C253.916 109.766 254.15 113.813 254.618 115.633C255.138 117.452 255.917 118.833 256.957 119.774C258.049 120.715 259.297 121.186 260.701 121.186C262.572 121.186 264.262 120.59 265.77 119.398C267.85 117.766 270.345 114.472 273.257 109.515V62.455C273.257 55.8038 272.737 51.6626 271.697 50.0311C270.709 48.3997 268.604 47.333 265.38 46.8311V43.3486H295.094Z" fill="#2F85DB"/>
<path d="M210.37 43.3486V112.244C210.37 118.958 210.89 123.162 211.93 124.856C212.97 126.488 215.075 127.523 218.247 127.962V131.351H188.533V119.586C185.05 124.605 181.566 128.276 178.083 130.598C174.599 132.857 170.7 133.986 166.384 133.986C162.277 133.986 158.612 132.48 155.388 129.468C152.217 126.394 150.085 122.817 148.993 118.739C147.901 114.66 147.355 107.538 147.355 97.3735V62.455C147.355 55.8038 146.835 51.6626 145.796 50.0311C144.808 48.3997 142.702 47.333 139.479 46.8311V43.3486H169.192V103.491C169.192 109.766 169.426 113.813 169.894 115.633C170.414 117.452 171.194 118.833 172.234 119.774C173.325 120.715 174.573 121.186 175.977 121.186C177.849 121.186 179.539 120.59 181.046 119.398C183.126 117.766 185.622 114.472 188.533 109.515V62.455C188.533 55.8038 188.013 51.6626 186.973 50.0311C185.986 48.3997 183.88 47.333 180.656 46.8311V43.3486H210.37Z" fill="#2F85DB"/>
<path d="M115.692 11.1611V43.3501H133.006V52.668H115.692V106.975C115.692 112.058 115.874 115.352 116.238 116.858C116.654 118.301 117.356 119.493 118.344 120.434C119.332 121.313 120.241 121.752 121.073 121.752C124.453 121.752 127.65 118.646 130.666 112.434L133.006 114.505C128.794 126.552 121.957 132.576 112.495 132.576C107.867 132.576 103.942 131.038 100.718 127.964C97.5468 124.827 95.5192 121.344 94.6353 117.517C94.1154 115.383 93.8554 109.611 93.8554 100.199V52.668H84.3408V49.3738C90.8918 43.7894 96.455 37.9226 101.03 31.7734C105.658 25.6242 109.687 18.7535 113.119 11.1611H115.692Z" fill="#2F85DB"/>
<path d="M67.4963 0.805664L68.3542 43.3479H65.1567C63.6489 32.6809 59.9314 24.116 54.0043 17.6531C48.1292 11.1275 41.7601 7.86466 34.8972 7.86466C29.594 7.86466 25.3826 9.59019 22.2631 13.0413C19.1955 16.4296 17.6618 20.3512 17.6618 24.8062C17.6618 27.6298 18.2077 30.1397 19.2995 32.3358C20.8073 35.2849 23.2249 38.2026 26.5524 41.089C28.9961 43.1596 34.6372 46.8303 43.4759 52.101C55.85 59.4423 64.1948 66.3759 68.5102 72.9015C72.7735 79.4271 74.9052 86.894 74.9052 95.302C74.9052 105.969 71.4477 115.161 64.5328 122.879C57.6698 130.534 48.9351 134.362 38.3287 134.362C35.0012 134.362 31.8556 133.954 28.8921 133.138C25.9285 132.323 22.2111 130.785 17.7397 128.526C15.2441 127.271 13.1904 126.644 11.5787 126.644C10.2269 126.644 8.79708 127.271 7.2893 128.526C5.78153 129.781 4.55971 131.695 3.62385 134.268H0.738281V86.0783H3.62385C5.91151 99.6315 10.3049 109.985 16.8039 117.138C23.3549 124.228 30.3999 127.773 37.9387 127.773C43.7619 127.773 48.3892 125.86 51.8206 122.032C55.3041 118.205 57.0459 113.75 57.0459 108.667C57.0459 105.655 56.37 102.737 55.0182 99.9139C53.7184 97.0903 51.7167 94.4236 49.0131 91.9137C46.3095 89.3411 41.5262 86.0155 34.6632 81.937C25.0446 76.2271 18.1297 71.3642 13.9183 67.3484C9.70694 63.3326 6.45743 58.8463 4.16977 53.8893C1.9341 48.9323 0.81627 43.4733 0.81627 37.5124C0.81627 27.3475 3.90981 18.6884 10.0969 11.5353C16.284 4.38222 24.0828 0.805664 33.4934 0.805664C36.9249 0.805664 40.2524 1.30764 43.4759 2.31158C45.9195 3.06454 48.8831 4.47634 52.3666 6.54698C55.902 8.55487 58.3717 9.55881 59.7755 9.55881C61.1273 9.55881 62.1931 9.05684 62.973 8.0529C63.7529 7.04895 64.4808 4.63321 65.1567 0.805664H67.4963Z" fill="#2F85DB"/>
<path d="M1159.61 76.0435L1134.69 99.4101C1141.09 99.7563 1144.9 105.122 1148.19 109.622C1158.57 103.218 1161.34 100.276 1161.86 90.2365C1161.34 86.6017 1160.65 81.9284 1159.61 76.0435ZM1183.15 103.737L1193.54 95.7753L1195.27 102.353C1184.71 112.911 1165.84 128.662 1151.99 127.969C1140.4 127.45 1127.59 120.873 1124.47 108.237C1123.44 109.276 1122.22 110.488 1120.67 110.488C1118.94 110.488 1117.72 108.757 1117.72 107.199C1117.72 104.949 1120.49 102.526 1121.88 101.141L1159.44 66.6969C1159.78 60.985 1163.07 55.4463 1169.3 55.4463C1174.5 55.4463 1175.53 57.0041 1176.05 61.8505C1176.75 68.4277 1179.34 74.3127 1179.34 81.9284C1179.34 96.1215 1167.92 106.68 1156.84 113.43C1167.92 115.334 1174.67 110.141 1183.15 103.737Z" fill="#2F85DB"/>
<path d="M1134.09 93.1749L1135.65 99.7521C1125.09 112.041 1106.05 128.311 1088.92 128.311C1076.28 128.311 1070.4 117.061 1070.05 105.637C1069.36 82.9628 1094.46 59.7693 1116.96 59.9424C1122.5 59.9424 1129.42 61.3271 1129.42 68.2505C1129.42 76.7317 1120.94 89.54 1087.71 100.444L1087.36 104.252C1086.84 110.83 1092.55 113.08 1098.09 113.08C1110.38 113.08 1124.92 100.444 1134.09 93.1749ZM1088.74 91.9632C1103.98 86.7707 1114.36 74.8277 1114.19 71.8853C1114.19 70.6737 1113.32 69.6352 1112.11 69.9813C1103.46 72.2315 1093.42 80.5396 1088.74 91.9632Z" fill="#2F85DB"/>
<path d="M1070.51 96.462L1072.07 103.039C1064.28 112.559 1049.05 128.137 1035.9 128.137C1025.68 128.137 1021.01 116.367 1021.01 107.539C1021.01 86.423 1042.65 65.8258 1053.03 65.8258C1055.97 65.8258 1060.65 66.8643 1060.65 70.6722C1060.65 79.3265 1043.51 94.7311 1036.24 99.7506C1034.86 106.847 1037.45 110.655 1045.42 110.655C1054.59 110.655 1063.59 101.481 1070.51 96.462ZM1062.38 62.3641C1058.22 62.3641 1055.45 59.0754 1055.45 54.9214C1055.45 47.8248 1063.76 41.5938 1070.51 41.5938C1073.63 41.5938 1076.23 43.8439 1076.23 46.9594C1076.23 53.8828 1069.82 62.3641 1062.38 62.3641Z" fill="#2F85DB"/>
<path d="M980.62 124.16L992.736 100.448L992.39 100.101C986.159 107.025 967.984 122.776 958.465 122.776C948.772 122.776 945.483 110.14 945.483 102.525C945.483 79.8503 983.216 61.5032 996.544 60.2916C998.967 60.1186 1005.72 60.8109 1005.72 64.6188C1005.72 67.7343 1002.26 70.1575 1000.01 71.7153L980.274 82.4466C969.369 88.3315 956.561 93.1779 958.119 105.813C958.292 107.198 959.33 107.544 960.888 107.544C965.734 108.063 976.293 103.909 982.87 96.8127L1001.39 76.3886C1003.12 74.4847 1005.2 71.5422 1007.97 71.5422C1011.43 71.5422 1014.54 77.4271 1014.54 80.3696C1014.54 82.9659 1012.12 86.9469 1010.91 89.197L997.928 113.429L998.275 113.775L1024.58 94.9088L1025.45 102.178L988.928 129.526C970.754 158.431 955.522 169.509 948.772 169.509C946.349 169.509 944.791 167.605 944.791 165.355C944.791 152.893 971.1 131.084 980.62 124.16Z" fill="#2F85DB"/>
<path d="M946.785 92.3133L948.516 99.5829C940.727 109.449 933.111 113.603 920.476 113.603C913.207 121.046 904.725 126.584 893.821 126.584C884.82 126.584 876.512 117.584 875.82 101.833C875.474 88.8516 881.878 80.1973 891.571 72.7546C900.917 65.1389 913.38 60.4655 923.938 59.9463C927.746 59.7732 933.458 61.504 933.458 66.1774C933.458 68.7737 931.381 69.8122 929.477 70.8507C934.669 72.2354 935.708 75.8702 935.708 81.0627C935.708 88.6785 932.246 94.7365 928.957 101.487C936.573 102.872 941.42 96.2943 946.785 92.3133ZM914.937 78.8126C909.052 82.2743 900.917 86.4284 895.725 91.4479C891.917 95.2558 888.628 102.006 888.628 107.372C888.628 112.391 891.917 113.949 896.244 113.949C901.956 113.949 905.591 110.66 909.572 107.026C908.36 104.256 907.495 102.006 907.495 99.0637C907.495 90.0632 915.63 79.1588 914.937 78.8126Z" fill="#2F85DB"/>
<path d="M844.876 76.3873L845.222 76.7335C857.511 65.3098 868.242 48.6936 871.358 38.8277C862.877 42.9817 853.011 58.5595 844.876 76.3873ZM878.627 94.7344L881.051 99.927C871.531 109.793 855.261 127.275 840.375 127.275C827.74 127.275 824.971 114.985 824.971 104.773C824.971 86.5994 832.76 67.0407 844.01 53.1938C859.242 34.3274 875.685 18.2305 881.224 18.2305C884.166 18.2305 884.858 22.3845 884.685 24.6346C883.474 41.0778 878.974 56.3093 841.414 92.6574C839.856 95.5998 839.337 100.446 840.202 104.6C841.76 108.581 844.183 112.043 848.857 112.043C858.376 112.043 871.704 100.965 878.627 94.7344Z" fill="#2F85DB"/>
<path d="M826.27 92.3133L828 99.5829C820.212 109.449 812.596 113.603 799.961 113.603C792.691 121.046 784.21 126.584 773.305 126.584C764.305 126.584 755.997 117.584 755.304 101.833C754.958 88.8516 761.362 80.1973 771.055 72.7546C780.402 65.1389 792.864 60.4655 803.422 59.9463C807.23 59.7732 812.942 61.504 812.942 66.1774C812.942 68.7737 810.865 69.8122 808.961 70.8507C814.154 72.2354 815.192 75.8702 815.192 81.0627C815.192 88.6785 811.73 94.7365 808.442 101.487C816.057 102.872 820.904 96.2943 826.27 92.3133ZM794.422 78.8126C788.537 82.2743 780.402 86.4284 775.209 91.4479C771.401 95.2558 768.113 102.006 768.113 107.372C768.113 112.391 771.401 113.949 775.728 113.949C781.44 113.949 785.075 110.66 789.056 107.026C787.845 104.256 786.979 102.006 786.979 99.0637C786.979 90.0632 795.114 79.1588 794.422 78.8126Z" fill="#2F85DB"/>
<path d="M748.385 99.9267L758.77 91.2724L760.155 98.8882C750.982 107.023 733.154 128.313 720.518 128.313C713.941 128.313 710.826 122.774 710.826 116.889C710.826 106.504 720.172 95.0803 725.711 87.1184L725.365 86.7722C715.326 94.2149 706.498 103.215 698.71 113.254C696.113 116.543 689.709 125.024 685.036 125.024C677.42 125.024 675.516 114.12 675.343 108.235C674.824 96.2919 685.728 78.8103 695.767 70.3291C698.017 68.4251 699.575 68.252 702.518 68.252C712.903 68.5982 712.037 71.0214 712.037 72.0599C712.037 78.8103 690.228 96.2919 690.228 100.446C690.228 101.485 691.094 102.35 692.132 102.35C693.344 102.35 694.902 100.792 695.594 99.9267C709.441 82.272 741.289 60.9824 746.308 60.9824C747.001 60.9824 748.039 61.8479 749.078 64.2711C750.116 66.8673 751.155 69.9829 751.674 73.6177C751.674 80.368 730.384 93.5226 730.384 105.465C730.384 107.023 731.769 108.581 733.5 108.581C737.654 108.581 745.27 102.523 748.385 99.9267Z" fill="#2F85DB"/>
<path d="M612.106 96.9835V103.734C620.587 96.9835 652.089 69.2897 661.609 69.2897C665.763 69.2897 669.917 73.6169 669.917 77.5979C669.917 80.8865 662.993 88.5023 660.916 90.9255C650.185 103.907 650.704 104.426 650.704 106.157C650.704 108.407 652.435 109.792 654.512 109.792C660.224 109.792 672.859 100.445 677.879 97.1566L678.744 104.253C670.782 110.311 649.839 127.273 640.319 127.273C635.126 127.273 632.357 122.773 632.357 118.1C632.357 107.196 644.3 94.041 650.531 85.906L650.185 85.5598C620.587 105.811 611.933 124.158 606.394 124.158C600.336 124.158 599.471 110.657 599.471 106.676C599.471 94.7334 603.971 86.4252 610.029 76.5593C630.453 42.8076 664.897 12.5176 670.782 12.5176C673.551 12.5176 678.225 13.7292 678.225 17.1909C678.225 28.9607 623.183 86.0791 612.106 96.9835Z" fill="#2F85DB"/>
<path d="M572.567 82.1027L558.027 93.0071C554.22 95.7765 551.104 98.3728 551.104 103.219C551.104 107.2 555.258 112.566 564.259 112.566C577.413 112.566 592.472 100.45 602.51 92.6609L604.588 99.4113C594.029 110.662 574.644 127.797 558.201 127.797C544.873 127.797 538.469 115.335 538.469 102.527C538.469 87.9876 543.661 82.6219 554.912 74.1407C562.701 68.2558 579.317 58.9092 589.01 58.9092C594.375 58.9092 596.799 61.6786 596.799 66.8711C596.799 76.3908 583.125 89.7185 578.452 89.7185C574.471 89.7185 572.74 85.3913 572.567 82.1027Z" fill="#2F85DB"/>
<path d="M539.79 93.1749L541.348 99.7521C530.79 112.041 511.75 128.311 494.615 128.311C481.979 128.311 476.095 117.061 475.748 105.637C475.056 82.9628 500.153 59.7693 522.655 59.9424C528.193 59.9424 535.117 61.3271 535.117 68.2505C535.117 76.7317 526.636 89.54 493.403 100.444L493.057 104.252C492.538 110.83 498.25 113.08 503.788 113.08C516.077 113.08 530.617 100.444 539.79 93.1749ZM494.442 91.9632C509.673 86.7707 520.058 74.8277 519.885 71.8853C519.885 70.6737 519.02 69.6352 517.808 69.9813C509.154 72.2315 499.115 80.5396 494.442 91.9632Z" fill="#2F85DB"/>
<path d="M400.364 51.4681L390.325 51.6412C386.344 51.6412 382.536 51.6412 382.536 46.9679C382.536 44.1985 383.575 39.8713 384.094 36.9289C386.171 25.6783 385.825 22.2166 397.075 17.1971C416.807 8.19664 440.347 5.77344 461.809 5.77344C470.464 5.77344 479.464 6.1196 487.945 8.02356C498.677 10.4468 497.811 15.8124 502.312 27.7553C503.869 31.9094 498.331 38.3136 495.907 42.1215L455.232 103.74L455.578 104.086C457.309 103.394 459.559 103.913 459.559 106.509C459.559 109.971 454.367 116.202 452.29 118.798C449.174 122.779 442.251 132.992 436.885 132.992C432.558 132.992 427.538 130.568 427.538 125.722C427.538 108.586 459.386 68.2574 470.637 53.8913L487.945 31.7363C458.175 32.2556 428.75 36.2365 400.364 45.0639V45.4101C402.787 45.9294 414.211 47.141 414.211 50.6027C414.211 54.2375 407.287 51.295 400.364 51.4681Z" fill="#2F85DB"/>
</svg>
