<svg xmlns="http://www.w3.org/2000/svg" width="343" viewBox="0 0 257.25 257.249989" height="343" preserveAspectRatio="xMidYMid meet" version="1.0">
  <style>
    .favicon-fill { fill: #000000; }
    @media (prefers-color-scheme: dark) {
      .favicon-fill { fill: #ffffff; }
    }
  </style>
  <defs><clipPath id="0dc9b688ad"><path d="M 110.339844 110.339844 L 145.554688 110.339844 L 145.554688 145.554688 L 110.339844 145.554688 Z M 110.339844 110.339844 " clip-rule="nonzero"/></clipPath><clipPath id="05c3782a6f"><path d="M 127.949219 110.339844 C 118.222656 110.339844 110.339844 118.222656 110.339844 127.949219 C 110.339844 137.671875 118.222656 145.554688 127.949219 145.554688 C 137.671875 145.554688 145.554688 137.671875 145.554688 127.949219 C 145.554688 118.222656 137.671875 110.339844 127.949219 110.339844 Z M 127.949219 110.339844 " clip-rule="nonzero"/></clipPath><clipPath id="10e87e27a3"><path d="M 0.339844 0.339844 L 35.554688 0.339844 L 35.554688 35.554688 L 0.339844 35.554688 Z M 0.339844 0.339844 " clip-rule="nonzero"/></clipPath><clipPath id="24a1ae52f1"><path d="M 17.949219 0.339844 C 8.222656 0.339844 0.339844 8.222656 0.339844 17.949219 C 0.339844 27.671875 8.222656 35.554688 17.949219 35.554688 C 27.671875 35.554688 35.554688 27.671875 35.554688 17.949219 C 35.554688 8.222656 27.671875 0.339844 17.949219 0.339844 Z M 17.949219 0.339844 " clip-rule="nonzero"/></clipPath><clipPath id="fc03183e1f"><rect x="0" width="36" y="0" height="36"/></clipPath><clipPath id="1ac5710b18"><path d="M 119.625 0 L 136.269531 0 L 136.269531 132.953125 L 119.625 132.953125 Z M 119.625 0 " clip-rule="nonzero"/></clipPath><clipPath id="494239286d"><path d="M 128.761719 132.121094 L 136.222656 8.789062 C 136.359375 6.507812 135.550781 4.269531 133.984375 2.605469 C 132.417969 0.941406 130.234375 0 127.949219 0 C 125.664062 0 123.480469 0.941406 121.914062 2.605469 C 120.347656 4.269531 119.539062 6.507812 119.675781 8.789062 L 127.136719 132.121094 C 127.160156 132.550781 127.519531 132.886719 127.949219 132.886719 C 128.378906 132.886719 128.734375 132.550781 128.761719 132.121094 Z M 128.761719 132.121094 " clip-rule="nonzero"/></clipPath><clipPath id="41ec998010"><path d="M 0.625 0 L 17.269531 0 L 17.269531 132.953125 L 0.625 132.953125 Z M 0.625 0 " clip-rule="nonzero"/></clipPath><clipPath id="2260b5d83d"><path d="M 9.761719 132.121094 L 17.222656 8.789062 C 17.359375 6.507812 16.550781 4.269531 14.984375 2.605469 C 13.417969 0.941406 11.234375 0 8.949219 0 C 6.664062 0 4.480469 0.941406 2.914062 2.605469 C 1.347656 4.269531 0.539062 6.507812 0.675781 8.789062 L 8.136719 132.121094 C 8.160156 132.550781 8.519531 132.886719 8.949219 132.886719 C 9.378906 132.886719 9.734375 132.550781 9.761719 132.121094 Z M 9.761719 132.121094 " clip-rule="nonzero"/></clipPath><clipPath id="a1a18d9944"><rect x="0" width="18" y="0" height="133"/></clipPath><clipPath id="fc79bd0c51"><path d="M 119.617188 123 L 136.261719 123 L 136.261719 255.898438 L 119.617188 255.898438 Z M 119.617188 123 " clip-rule="nonzero"/></clipPath><clipPath id="efc59a8b41"><path d="M 127.125 123.777344 L 119.664062 247.109375 C 119.527344 249.390625 120.335938 251.625 121.902344 253.289062 C 123.46875 254.953125 125.652344 255.898438 127.9375 255.898438 C 130.222656 255.898438 132.40625 254.953125 133.972656 253.289062 C 135.539062 251.625 136.347656 249.390625 136.210938 247.109375 L 128.75 123.777344 C 128.726562 123.347656 128.367188 123.011719 127.9375 123.011719 C 127.507812 123.011719 127.152344 123.347656 127.125 123.777344 Z M 127.125 123.777344 " clip-rule="nonzero"/></clipPath><clipPath id="1267987fba"><path d="M 0.617188 0 L 17.261719 0 L 17.261719 132.898438 L 0.617188 132.898438 Z M 0.617188 0 " clip-rule="nonzero"/></clipPath><clipPath id="41e22f3ffb"><path d="M 8.125 0.777344 L 0.664062 124.109375 C 0.527344 126.390625 1.335938 128.625 2.902344 130.289062 C 4.46875 131.953125 6.652344 132.898438 8.9375 132.898438 C 11.222656 132.898438 13.40625 131.953125 14.972656 130.289062 C 16.539062 128.625 17.347656 126.390625 17.210938 124.109375 L 9.75 0.777344 C 9.726562 0.347656 9.367188 0.0117188 8.9375 0.0117188 C 8.507812 0.0117188 8.152344 0.347656 8.125 0.777344 Z M 8.125 0.777344 " clip-rule="nonzero"/></clipPath><clipPath id="5104b53455"><rect x="0" width="18" y="0" height="133"/></clipPath><clipPath id="24f582e45a"><path d="M 0 119.621094 L 132.945312 119.621094 L 132.945312 136.265625 L 0 136.265625 Z M 0 119.621094 " clip-rule="nonzero"/></clipPath><clipPath id="d600265a79"><path d="M 132.113281 127.128906 L 8.78125 119.671875 C 6.5 119.53125 4.265625 120.34375 2.601562 121.910156 C 0.9375 123.476562 -0.00390625 125.660156 -0.00390625 127.941406 C -0.00390625 130.226562 0.9375 132.410156 2.601562 133.976562 C 4.265625 135.542969 6.5 136.355469 8.78125 136.214844 L 132.113281 128.757812 C 132.542969 128.730469 132.878906 128.375 132.878906 127.941406 C 132.878906 127.511719 132.542969 127.15625 132.113281 127.128906 Z M 132.113281 127.128906 " clip-rule="nonzero"/></clipPath><clipPath id="3622dc76c5"><path d="M 0 0.621094 L 132.945312 0.621094 L 132.945312 17.265625 L 0 17.265625 Z M 0 0.621094 " clip-rule="nonzero"/></clipPath><clipPath id="229f37932d"><path d="M 132.113281 8.128906 L 8.78125 0.671875 C 6.5 0.53125 4.265625 1.34375 2.601562 2.910156 C 0.9375 4.476562 -0.00390625 6.660156 -0.00390625 8.941406 C -0.00390625 11.226562 0.9375 13.410156 2.601562 14.976562 C 4.265625 16.542969 6.5 17.355469 8.78125 17.214844 L 132.113281 9.757812 C 132.542969 9.730469 132.878906 9.375 132.878906 8.941406 C 132.878906 8.511719 132.542969 8.15625 132.113281 8.128906 Z M 132.113281 8.128906 " clip-rule="nonzero"/></clipPath><clipPath id="10ce0d15a2"><rect x="0" width="133" y="0" height="18"/></clipPath><clipPath id="96095ee77d"><path d="M 123 119.632812 L 255.890625 119.632812 L 255.890625 136.277344 L 123 136.277344 Z M 123 119.632812 " clip-rule="nonzero"/></clipPath><clipPath id="2264d28373"><path d="M 123.773438 128.765625 L 247.105469 136.226562 C 249.386719 136.363281 251.621094 135.554688 253.285156 133.988281 C 254.949219 132.421875 255.890625 130.238281 255.890625 127.953125 C 255.890625 125.667969 254.949219 123.484375 253.285156 121.917969 C 251.621094 120.351562 249.386719 119.542969 247.105469 119.679688 L 123.773438 127.140625 C 123.34375 127.167969 123.007812 127.523438 123.007812 127.953125 C 123.007812 128.382812 123.34375 128.742188 123.773438 128.765625 Z M 123.773438 128.765625 " clip-rule="nonzero"/></clipPath><clipPath id="f551cf918e"><path d="M 0 0.632812 L 132.890625 0.632812 L 132.890625 17.277344 L 0 17.277344 Z M 0 0.632812 " clip-rule="nonzero"/></clipPath><clipPath id="6c2aa35549"><path d="M 0.773438 9.765625 L 124.105469 17.226562 C 126.386719 17.363281 128.621094 16.554688 130.285156 14.988281 C 131.949219 13.421875 132.890625 11.238281 132.890625 8.953125 C 132.890625 6.667969 131.949219 4.484375 130.285156 2.917969 C 128.621094 1.351562 126.386719 0.542969 124.105469 0.679688 L 0.773438 8.140625 C 0.34375 8.167969 0.0078125 8.523438 0.0078125 8.953125 C 0.0078125 9.382812 0.34375 9.742188 0.773438 9.765625 Z M 0.773438 9.765625 " clip-rule="nonzero"/></clipPath><clipPath id="8944fe7cde"><rect x="0" width="133" y="0" height="18"/></clipPath><clipPath id="050f2f167b"><path d="M 125 34 L 222 34 L 222 131 L 125 131 Z M 125 34 " clip-rule="nonzero"/></clipPath><clipPath id="269f3a4669"><path d="M 213.644531 30.792969 L 225.105469 42.257812 L 131.085938 136.277344 L 119.621094 124.8125 Z M 213.644531 30.792969 " clip-rule="nonzero"/></clipPath><clipPath id="58d7d30858"><path d="M 126.464844 130.554688 L 218.980469 48.332031 C 220.644531 46.851562 221.625 44.75 221.691406 42.527344 C 221.757812 40.300781 220.902344 38.144531 219.328125 36.570312 C 217.753906 34.996094 215.597656 34.140625 213.371094 34.207031 C 211.148438 34.273438 209.046875 35.253906 207.566406 36.917969 L 125.34375 129.433594 C 125.066406 129.75 125.078125 130.226562 125.375 130.523438 C 125.671875 130.820312 126.152344 130.832031 126.464844 130.554688 Z M 126.464844 130.554688 " clip-rule="nonzero"/></clipPath><clipPath id="53fc9699de"><path d="M 0 0 L 96.832031 0 L 96.832031 96.898438 L 0 96.898438 Z M 0 0 " clip-rule="nonzero"/></clipPath><clipPath id="eacaa4cbfd"><path d="M 88.644531 -3.207031 L 100.105469 8.257812 L 6.085938 102.277344 L -5.378906 90.8125 Z M 88.644531 -3.207031 " clip-rule="nonzero"/></clipPath><clipPath id="537a90992e"><path d="M 1.464844 96.554688 L 93.980469 14.332031 C 95.644531 12.851562 96.625 10.75 96.691406 8.527344 C 96.757812 6.300781 95.902344 4.144531 94.328125 2.570312 C 92.753906 0.996094 90.597656 0.140625 88.371094 0.207031 C 86.148438 0.273438 84.046875 1.253906 82.566406 2.917969 L 0.34375 95.433594 C 0.0664062 95.75 0.078125 96.226562 0.375 96.523438 C 0.671875 96.820312 1.152344 96.832031 1.464844 96.554688 Z M 1.464844 96.554688 " clip-rule="nonzero"/></clipPath><clipPath id="8c88ceecd4"><rect x="0" width="97" y="0" height="97"/></clipPath><clipPath id="eca85db6ec"><path d="M 125 125 L 222 125 L 222 222 L 125 222 Z M 125 125 " clip-rule="nonzero"/></clipPath><clipPath id="45c563ecc8"><path d="M 225.101562 213.644531 L 213.636719 225.109375 L 119.617188 131.085938 L 131.078125 119.625 Z M 225.101562 213.644531 " clip-rule="nonzero"/></clipPath><clipPath id="5dabfac665"><path d="M 125.339844 126.46875 L 207.5625 218.984375 C 209.042969 220.648438 211.140625 221.628906 213.367188 221.695312 C 215.59375 221.757812 217.746094 220.902344 219.320312 219.328125 C 220.894531 217.753906 221.75 215.601562 221.6875 213.375 C 221.621094 211.152344 220.640625 209.050781 218.976562 207.570312 L 126.460938 125.347656 C 126.144531 125.070312 125.667969 125.082031 125.371094 125.378906 C 125.074219 125.675781 125.0625 126.152344 125.339844 126.46875 Z M 125.339844 126.46875 " clip-rule="nonzero"/></clipPath><clipPath id="6befc7da14"><path d="M 0 0 L 96.832031 0 L 96.832031 96.832031 L 0 96.832031 Z M 0 0 " clip-rule="nonzero"/></clipPath><clipPath id="ec2c07ad93"><path d="M 100.101562 88.644531 L 88.636719 100.109375 L -5.382812 6.085938 L 6.078125 -5.375 Z M 100.101562 88.644531 " clip-rule="nonzero"/></clipPath><clipPath id="5bc06a5f4d"><path d="M 0.339844 1.46875 L 82.5625 93.984375 C 84.042969 95.648438 86.140625 96.628906 88.367188 96.695312 C 90.59375 96.757812 92.746094 95.902344 94.320312 94.328125 C 95.894531 92.753906 96.75 90.601562 96.6875 88.375 C 96.621094 86.152344 95.640625 84.050781 93.976562 82.570312 L 1.460938 0.347656 C 1.144531 0.0703125 0.667969 0.0820312 0.371094 0.378906 C 0.0742188 0.675781 0.0625 1.152344 0.339844 1.46875 Z M 0.339844 1.46875 " clip-rule="nonzero"/></clipPath><clipPath id="032a8963e2"><rect x="0" width="97" y="0" height="97"/></clipPath><clipPath id="17b648d3c4"><path d="M 34 125 L 131 125 L 131 222 L 34 222 Z M 34 125 " clip-rule="nonzero"/></clipPath><clipPath id="8a94bfcddd"><path d="M 42.246094 225.105469 L 30.785156 213.640625 L 124.804688 119.621094 L 136.269531 131.082031 Z M 42.246094 225.105469 " clip-rule="nonzero"/></clipPath><clipPath id="bb45302b30"><path d="M 129.425781 125.34375 L 36.910156 207.566406 C 35.246094 209.046875 34.265625 211.144531 34.199219 213.371094 C 34.132812 215.597656 34.988281 217.75 36.5625 219.324219 C 38.136719 220.898438 40.292969 221.753906 42.519531 221.6875 C 44.742188 221.625 46.84375 220.644531 48.324219 218.980469 L 130.546875 126.460938 C 130.824219 126.148438 130.8125 125.671875 130.515625 125.375 C 130.21875 125.078125 129.738281 125.0625 129.425781 125.34375 Z M 129.425781 125.34375 " clip-rule="nonzero"/></clipPath><clipPath id="06f96b32f2"><path d="M 0 0 L 96.898438 0 L 96.898438 96.832031 L 0 96.832031 Z M 0 0 " clip-rule="nonzero"/></clipPath><clipPath id="b9ceb00866"><path d="M 8.246094 100.105469 L -3.214844 88.640625 L 90.804688 -5.378906 L 102.269531 6.082031 Z M 8.246094 100.105469 " clip-rule="nonzero"/></clipPath><clipPath id="a7b101ad48"><path d="M 95.425781 0.34375 L 2.910156 82.566406 C 1.246094 84.046875 0.265625 86.144531 0.199219 88.371094 C 0.132812 90.597656 0.988281 92.75 2.5625 94.324219 C 4.136719 95.898438 6.292969 96.753906 8.519531 96.6875 C 10.742188 96.625 12.84375 95.644531 14.324219 93.980469 L 96.546875 1.460938 C 96.824219 1.148438 96.8125 0.671875 96.515625 0.375 C 96.21875 0.078125 95.738281 0.0625 95.425781 0.34375 Z M 95.425781 0.34375 " clip-rule="nonzero"/></clipPath><clipPath id="d7aa1d9404"><rect x="0" width="97" y="0" height="97"/></clipPath><clipPath id="082ed5ffd3"><path d="M 34 34 L 131 34 L 131 131 L 34 131 Z M 34 34 " clip-rule="nonzero"/></clipPath><clipPath id="3d0eed0130"><path d="M 30.96875 42.304688 L 42.304688 30.96875 L 136.261719 124.925781 L 124.929688 136.261719 Z M 30.96875 42.304688 " clip-rule="nonzero"/></clipPath><clipPath id="ede095cdbb"><path d="M 130.613281 129.503906 L 48.269531 36.972656 C 46.804688 35.328125 44.726562 34.359375 42.527344 34.296875 C 40.324219 34.230469 38.195312 35.078125 36.636719 36.636719 C 35.078125 38.191406 34.234375 40.324219 34.296875 42.523438 C 34.359375 44.726562 35.328125 46.804688 36.976562 48.269531 L 129.503906 130.609375 C 129.816406 130.886719 130.285156 130.875 130.582031 130.578125 C 130.875 130.285156 130.886719 129.816406 130.613281 129.503906 Z M 130.613281 129.503906 " clip-rule="nonzero"/></clipPath><clipPath id="c7ff4e10cc"><path d="M 0.21875 0.21875 L 96.898438 0.21875 L 96.898438 96.898438 L 0.21875 96.898438 Z M 0.21875 0.21875 " clip-rule="nonzero"/></clipPath><clipPath id="8112cb9f69"><path d="M -3.03125 8.304688 L 8.304688 -3.03125 L 102.261719 90.925781 L 90.929688 102.261719 Z M -3.03125 8.304688 " clip-rule="nonzero"/></clipPath><clipPath id="76e134e195"><path d="M 96.613281 95.503906 L 14.269531 2.972656 C 12.804688 1.328125 10.726562 0.359375 8.527344 0.296875 C 6.324219 0.230469 4.195312 1.078125 2.636719 2.636719 C 1.078125 4.191406 0.234375 6.324219 0.296875 8.523438 C 0.359375 10.726562 1.328125 12.804688 2.976562 14.269531 L 95.503906 96.609375 C 95.816406 96.886719 96.285156 96.875 96.582031 96.578125 C 96.875 96.285156 96.886719 95.816406 96.613281 95.503906 Z M 96.613281 95.503906 " clip-rule="nonzero"/></clipPath><clipPath id="8602835372"><rect x="0" width="97" y="0" height="97"/></clipPath></defs><g clip-path="url(#0dc9b688ad)"><g clip-path="url(#05c3782a6f)"><g transform="matrix(1, 0, 0, 1, 110, 110)"><g clip-path="url(#fc03183e1f)"><g clip-path="url(#10e87e27a3)"><g clip-path="url(#24a1ae52f1)"><path class="favicon-fill" d="M 0.339844 0.339844 L 35.554688 0.339844 L 35.554688 35.554688 L 0.339844 35.554688 Z M 0.339844 0.339844 " fill-opacity="1" fill-rule="nonzero"/></g></g></g></g></g></g><g clip-path="url(#1ac5710b18)"><g clip-path="url(#494239286d)"><g transform="matrix(1, 0, 0, 1, 119, 0)"><g clip-path="url(#a1a18d9944)"><g clip-path="url(#41ec998010)"><g clip-path="url(#2260b5d83d)"><path class="favicon-fill" d="M 0.144531 0 L 17.753906 0 L 17.753906 145.539062 L 0.144531 145.539062 Z M 0.144531 0 " fill-opacity="1" fill-rule="nonzero"/></g></g></g></g></g></g><g clip-path="url(#fc79bd0c51)"><g clip-path="url(#efc59a8b41)"><g transform="matrix(1, 0, 0, 1, 119, 123)"><g clip-path="url(#5104b53455)"><g clip-path="url(#1267987fba)"><g clip-path="url(#41e22f3ffb)"><path class="favicon-fill" d="M 17.742188 132.898438 L 0.132812 132.898438 L 0.132812 -12.640625 L 17.742188 -12.640625 Z M 17.742188 132.898438 " fill-opacity="1" fill-rule="nonzero"/></g></g></g></g></g></g><g clip-path="url(#24f582e45a)"><g clip-path="url(#d600265a79)"><g transform="matrix(1, 0, 0, 1, 0, 119)"><g clip-path="url(#10ce0d15a2)"><g clip-path="url(#3622dc76c5)"><g clip-path="url(#229f37932d)"><path class="favicon-fill" d="M -0.00390625 17.746094 L -0.00390625 0.140625 L 145.53125 0.140625 L 145.53125 17.746094 Z M -0.00390625 17.746094 " fill-opacity="1" fill-rule="nonzero"/></g></g></g></g></g></g><g clip-path="url(#96095ee77d)"><g clip-path="url(#2264d28373)"><g transform="matrix(1, 0, 0, 1, 123, 119)"><g clip-path="url(#8944fe7cde)"><g clip-path="url(#f551cf918e)"><g clip-path="url(#6c2aa35549)"><path class="favicon-fill" d="M 132.890625 0.148438 L 132.890625 17.757812 L -12.644531 17.757812 L -12.644531 0.148438 Z M 132.890625 0.148438 " fill-opacity="1" fill-rule="nonzero"/></g></g></g></g></g></g><g clip-path="url(#050f2f167b)"><g clip-path="url(#269f3a4669)"><g clip-path="url(#58d7d30858)"><g transform="matrix(1, 0, 0, 1, 125, 34)"><g clip-path="url(#8c88ceecd4)"><g clip-path="url(#53fc9699de)"><g clip-path="url(#eacaa4cbfd)"><g clip-path="url(#537a90992e)"><path class="favicon-fill" d="M 88.265625 -3.492188 L 100.390625 8.636719 L -2.535156 111.558594 L -14.660156 99.433594 Z M 88.265625 -3.492188 " fill-opacity="1" fill-rule="nonzero"/></g></g></g></g></g></g></g></g><g clip-path="url(#eca85db6ec)"><g clip-path="url(#45c563ecc8)"><g clip-path="url(#5dabfac665)"><g transform="matrix(1, 0, 0, 1, 125, 125)"><g clip-path="url(#032a8963e2)"><g clip-path="url(#6befc7da14)"><g clip-path="url(#ec2c07ad93)"><g clip-path="url(#5bc06a5f4d)"><path class="favicon-fill" d="M 100.382812 88.265625 L 88.257812 100.394531 L -14.667969 -2.53125 L -2.539062 -14.660156 Z M 100.382812 88.265625 " fill-opacity="1" fill-rule="nonzero"/></g></g></g></g></g></g></g></g><g clip-path="url(#17b648d3c4)"><g clip-path="url(#8a94bfcddd)"><g clip-path="url(#bb45302b30)"><g transform="matrix(1, 0, 0, 1, 34, 125)"><g clip-path="url(#d7aa1d9404)"><g clip-path="url(#06f96b32f2)"><g clip-path="url(#b9ceb00866)"><g clip-path="url(#a7b101ad48)"><path class="favicon-fill" d="M 8.625 100.386719 L -3.5 88.261719 L 99.425781 -14.664062 L 111.550781 -2.539062 Z M 8.625 100.386719 " fill-opacity="1" fill-rule="nonzero"/></g></g></g></g></g></g></g></g><g clip-path="url(#082ed5ffd3)"><g clip-path="url(#3d0eed0130)"><g clip-path="url(#ede095cdbb)"><g transform="matrix(1, 0, 0, 1, 34, 34)"><g clip-path="url(#8602835372)"><g clip-path="url(#c7ff4e10cc)"><g clip-path="url(#8112cb9f69)"><g clip-path="url(#76e134e195)"><path class="favicon-fill" d="M -3.359375 8.632812 L 8.632812 -3.359375 L 111.539062 99.546875 L 99.546875 111.535156 Z M -3.359375 8.632812 " fill-opacity="1" fill-rule="nonzero"/></g></g></g></g></g></g></g></g></svg>
