<svg xmlns="http://www.w3.org/2000/svg" width="auto" height="auto" viewbox="0 0 255 80" fill="none">
<path d="M95.5391 0H78.2148V78.777H95.5391V0Z" fill="currentColor"></path>
<path d="M17.3242 0H0V78.777H17.3242V0Z" fill="currentColor"></path>
<path d="M45.0928 0H28.4386L15.1855 15.8577H36.1759C45.1667 15.8577 52.481 23.2009 52.481 32.227V56.4279L68.2741 43.1227V23.2776C68.2741 10.4431 57.877 0.0025577 45.0928 0.0025577V0Z" fill="currentColor"></path>
<path d="M59.0713 80.0005L69.5524 67.4601L26.5476 31.2329L16.0664 43.7733L59.0713 80.0005Z" fill="currentColor"></path>
<path d="M202.539 0H185.215V78.777H202.539V0Z" fill="currentColor"></path>
<path d="M230.308 0H213.653L200.4 15.8577H221.391C230.382 15.8577 237.696 23.2009 237.696 32.227V56.4279L253.489 43.1227V23.2776C253.489 10.4431 243.092 0.0025577 230.308 0.0025577V0Z" fill="currentColor"></path>
<path d="M244.286 80.0005L254.767 67.4601L211.762 31.2329L201.281 43.7733L244.286 80.0005Z" fill="currentColor"></path>
<path d="M120.558 0H102.641L123.651 78.7182H141.06L120.558 0Z" fill="currentColor"></path>
<path d="M157.1 78.7182H139.691L160.193 0H178.11L157.1 78.7182Z" fill="currentColor"></path>
</svg>