<svg xmlns="http://www.w3.org/2000/svg" id="Layer_1" width="226" height="44" version="1.1" viewBox="0 0 175.441 34.556"><defs><radialGradient id="radial-gradient" cx="114.127" cy="37.274" r="1.627" fx="114.127" fy="37.274" gradientTransform="matrix(28.7158 0 0 -28.7158 -3124.622 1078.327)" gradientUnits="userSpaceOnUse"><stop offset="0" stop-color="#fff" stop-opacity=".5"/><stop offset=".283" stop-color="#adabd3" stop-opacity=".595"/><stop offset=".58" stop-color="#5c58a8" stop-opacity=".695"/><stop offset=".791" stop-color="#2a248c" stop-opacity=".766"/><stop offset="1" stop-color="#161082" stop-opacity=".8"/></radialGradient><radialGradient id="radial-gradient1" cx="115.319" cy="34.535" r=".778" fx="115.319" fy="34.535" gradientTransform="rotate(52.031 420.827 -3869.442) scale(28.7158 -36.83596)" gradientUnits="userSpaceOnUse"><stop offset="0" stop-color="#fff" stop-opacity=".9"/><stop offset=".283" stop-color="#adabd3" stop-opacity=".615"/><stop offset=".58" stop-color="#5c58a8" stop-opacity=".316"/><stop offset=".791" stop-color="#2a248c" stop-opacity=".104"/><stop offset="1" stop-color="#161082" stop-opacity="0"/></radialGradient><style>.st1{fill:#00274a}.st2{fill:#fff}</style></defs><path d="m55.672 1.35-12.96 21.749c-1.344 2.227-2.081 4.497-2.286 6.68h-5.08c.346-2.75 1.422-5.37 3.651-9.125l9.07-15.2c1.811-3.013 3.616-4.104 6.891-4.104h.714Zm-.999 22.833c-.95.877-2.783 2.202-4.333 2.25-1.066-.048-1.107-1.049-.39-2.428 2.737-5.243 5.611-8.016 9.159-8.005h.644l-5.08 8.183Zm4.789-11.13c-6.572 0-10.61 3.828-14.176 12.207-.892 2.103-1.401 4.712 1.637 4.68 1.732-.022 4.621-.968 6.659-2.372-.167.683-.262 1.64-.19 2.212h4.61c.16-1.798.852-4.035 2.37-6.757l5.763-9.613a62.14 62.14 0 0 0-6.673-.357Zm42.611 11.13c-.95.877-2.784 2.202-4.334 2.25-1.066-.048-1.106-1.049-.39-2.428 2.737-5.243 5.612-8.016 9.159-8.005h.644l-5.079 8.183Zm4.788-11.13c-6.571 0-10.61 3.828-14.176 12.207-.891 2.104-1.4 4.713 1.638 4.68 1.731-.021 4.62-.968 6.658-2.372-.166.683-.262 1.64-.189 2.212h4.61c.16-1.797.851-4.035 2.369-6.757l5.763-9.613a62.132 62.132 0 0 0-6.673-.357Z" class="st1"/><path d="M91.876 34.415h-1.507a4.352 4.352 0 0 1-4.2-3.195l-2.29-8.645-4.283 7.204h-4.913L88.397 6.565c1.768-3.013 3.613-4.108 6.888-4.108h.502l-9.11 15.387 6.833-4.708h5.483L87.51 21.07l-.007.003 4.373 13.343ZM46.622 0c-4.629 0-7.016 1.223-11.557 4.498L19.704 15.573H9.875c-2.845 0-5.117.113-6.914 1.805L.42 19.726s7.394-.287 14.286-.55L0 29.778h6.357L21.4 18.921c2.914-.11 4.94-.184 4.957-.178 3.506-.1 5.451-3.17 5.451-3.17h-5.77l12.153-8.771-9.02 14.638c-1.932 3.361-2.86 5.763-3.184 8.34h5.221c.208-2.184.946-4.454 2.289-6.681L45.799 2.564C46.654 1.154 47.403 0 47.403 0h-.781Zm24.484 17.762c-.064.44.117.705 1 1.276l1.407.926c1.525 1.014 2.142 2.51 1.96 3.747-.51 3.44-3.041 6.211-8.417 6.215-2.353 0-3.414-.075-6.218-.543l2.088-3.517c1.943.338 3.053.515 4.506.511 2.025 0 2.833-.913 2.946-1.661.065-.443-.148-.956-1.109-1.618l-1.117-.791c-1.79-1.276-2.258-2.29-2.024-3.875.45-3.046 3.975-5.379 8.867-5.379 1.535-.003 3.22.1 5.045.291l-1.964 3.322c-1.202-.1-3.159-.188-4.538-.142-1.415.046-2.33.532-2.432 1.238Zm41.994 7.071a2.598 2.598 0 0 1 2.589 2.603c0 1.432-1.157 2.61-2.589 2.61-1.424 0-2.567-1.18-2.567-2.61s1.143-2.603 2.567-2.603Zm0 4.697c1.129 0 2.017-.91 2.017-2.094s-.888-2.088-2.017-2.088c-1.128 0-2.016.903-2.016 2.088 0 1.186.888 2.094 2.016 2.094Zm-.324-.698h-.536v-2.835h.98c.55 0 .959.388.959.89a.877.877 0 0 1-.621.838l.635 1.107h-.613l-.592-1.058h-.212v1.058Zm.367-1.523c.318 0 .493-.156.493-.416 0-.275-.175-.431-.493-.431h-.367v.847h.367Z" class="st1"/><path d="M145 17.2c0 8.381 6.815 15.2 15.2 15.2 8.383 0 15.2-6.816 15.2-15.2 0-8.385-6.82-15.2-15.2-15.2-8.38 0-15.2 6.815-15.2 15.2Zm1.552 0c0-7.528 6.121-13.65 13.648-13.65 7.526 0 13.648 6.123 13.648 13.65 0 7.526-6.122 13.648-13.648 13.648-7.527 0-13.65-6.122-13.65-13.648h.001Z" class="st2"/><circle cx="160.2" cy="17.2" r="14.358" style="fill:#161082"/><circle cx="160.2" cy="17.2" r="14.358" style="fill:url(#radial-gradient);isolation:isolate;opacity:.5"/><circle cx="160.2" cy="17.2" r="14.358" style="fill:url(#radial-gradient1)"/><path d="M155.97 17.328c.064-.386.323-.647.71-.647a.65.65 0 0 1 .647.647h-1.357Zm2.392.583c.064-1.1-.517-2.006-1.682-2.006-.971 0-1.745.711-1.745 1.75 0 1.097.71 1.744 1.81 1.744.711 0 1.423-.325 1.617-1.098h-.971c-.128.257-.322.386-.58.386-.454 0-.714-.324-.714-.776h2.265Zm13.388 1.164c.841 0 1.165-.71 1.165-1.422s-.325-1.424-1.165-1.424c-.776 0-1.099.71-1.099 1.424s.323 1.422 1.1 1.422m1.552.258h-.388v-.646c-.195.453-.711.712-1.165.712-.971 0-1.486-.841-1.486-1.746 0-.906.452-1.747 1.486-1.747.518 0 .97.26 1.165.71v-1.873h.387v4.592m-14.745-3.299h.452l.841 2.848.776-2.848h.452l.777 2.848.841-2.848h.517l-1.034 3.299h-.454l-.84-2.78-.777 2.78h-.452l-1.1-3.299Zm8.021 1.618c0 .97-.52 1.746-1.554 1.746s-1.552-.776-1.552-1.746.518-1.747 1.552-1.747c.971.065 1.551.84 1.551 1.749m-2.716 0c0 .71.389 1.42 1.165 1.42.777 0 1.164-.71 1.164-1.422s-.387-1.424-1.164-1.424c-.776.066-1.165.776-1.165 1.424m3.299-1.618h.389v.777c.183-.517.68-.857 1.228-.84v.386c-.71-.063-1.228.52-1.228 1.166v1.746h-.388v-3.235m2.07-1.23h.452v4.527h-.389v-4.527h-.063Zm-21.215 2.847c0-.387.13-.906.646-.906s.647.517.647.906-.13.905-.647.905-.646-.453-.646-.905m-1.1 0c0 .97.713 1.746 1.746 1.746 1.036 0 1.748-.71 1.748-1.746 0-.972-.712-1.747-1.75-1.747-1.033.065-1.745.775-1.745 1.748m4.076-1.62h1.035v.454c.193-.324.647-.517 1.034-.517 1.1 0 1.165.776 1.165 1.293v2.07h-1.098v-1.552c0-.454.062-.905-.52-.905-.386 0-.58.323-.58.71V19.4h-1.037v-3.368" class="st2"/></svg>