<svg width="2839" height="686" viewBox="0 0 2839 686" fill="none" xmlns="http://www.w3.org/2000/svg">
<path d="M2389.33 501.273V189.082H2453.29V225.81H2463.42C2469.33 214.834 2478.83 205.124 2491.92 196.681C2505.01 188.237 2522.74 184.016 2545.11 184.016C2568.33 184.016 2586.91 188.871 2600.84 198.58C2615.19 207.868 2625.96 219.9 2633.13 234.675H2643.27C2650.44 220.322 2660.79 208.29 2674.3 198.58C2688.23 188.871 2707.86 184.016 2733.19 184.016C2753.45 184.016 2771.39 188.237 2787.01 196.681C2802.63 204.702 2815.09 216.944 2824.37 233.409C2833.66 249.451 2838.31 269.504 2838.31 293.567V501.273H2773.08V298.633C2773.08 279.636 2767.8 265.071 2757.25 254.939C2747.12 244.385 2732.55 239.108 2713.56 239.108C2693.29 239.108 2677.04 245.652 2664.8 258.739C2652.55 271.826 2646.43 290.612 2646.43 315.098V501.273H2581.21V298.633C2581.21 279.636 2575.93 265.071 2565.38 254.939C2555.24 244.385 2540.68 239.108 2521.68 239.108C2501.42 239.108 2485.17 245.652 2472.92 258.739C2460.68 271.826 2454.56 290.612 2454.56 315.098V501.273H2389.33Z" fill="black"/>
<path d="M2048.29 501.274V421.485L2232.57 253.041V244.176H2054.63V189.083H2303.49V269.506L2118.59 437.95V446.182H2308.56V501.274H2048.29Z" fill="black"/>
<path d="M1708.08 627.924V570.932H1882.22C1894.04 570.932 1899.95 564.599 1899.95 551.934V455.681H1889.82C1886.02 464.124 1880.11 472.356 1872.09 480.377C1864.49 487.976 1854.15 494.309 1841.06 499.375C1827.97 504.441 1811.51 506.974 1791.67 506.974C1768.03 506.974 1746.92 501.697 1728.34 491.142C1709.77 480.588 1695.2 465.601 1684.65 446.182C1674.09 426.762 1668.82 403.754 1668.82 377.158V189.083H1734.04V372.092C1734.04 399.111 1740.8 419.163 1754.31 432.25C1767.82 444.915 1786.6 451.248 1810.66 451.248C1837.26 451.248 1858.58 442.382 1874.62 424.651C1891.09 406.921 1899.32 381.168 1899.32 347.395V189.083H1964.54V565.232C1964.54 584.23 1958.84 599.428 1947.45 610.826C1936.47 622.225 1921.27 627.924 1901.85 627.924H1708.08Z" fill="black"/>
<path d="M1427.09 501.273V189.082H1491.05V225.811H1501.18C1506.25 212.724 1514.27 203.225 1525.25 197.315C1536.65 190.982 1550.58 187.816 1567.04 187.816H1604.4V246.708H1564.51C1543.4 246.708 1526.09 252.618 1512.58 264.439C1499.07 275.837 1492.32 293.568 1492.32 317.632V501.273H1427.09Z" fill="black"/>
<path d="M1043.64 501.273V58H1219.68C1246.7 58 1270.77 63.4881 1291.87 74.4644C1313.4 85.0186 1330.08 100.216 1341.9 120.058C1354.14 139.478 1360.26 162.908 1360.26 190.349V198.581C1360.26 226.022 1353.93 249.663 1341.27 269.505C1329.02 289.346 1312.35 304.544 1291.24 315.098C1270.13 325.653 1246.28 330.93 1219.68 330.93H1112.03V501.273H1043.64ZM1112.03 268.871H1212.72C1236.78 268.871 1255.99 262.539 1270.34 249.874C1284.7 237.209 1291.87 219.9 1291.87 197.948V191.615C1291.87 169.24 1284.7 151.721 1270.34 139.056C1255.99 126.391 1236.78 120.058 1212.72 120.058H1112.03V268.871Z" fill="black"/>
<path fill-rule="evenodd" clip-rule="evenodd" d="M510.928 282.316L580.609 351.997L551.603 381.002L573.642 434.01L655.655 351.997L455.619 151.961L510.928 282.316ZM322.62 685.032L192.368 554.779H267.414L322.62 609.985L377.826 554.779H452.873L322.62 685.032ZM144.727 282.316L75.0465 351.997L104.052 381.002L82.0131 434.01L0 351.997L200.036 151.961L144.727 282.316Z" fill="black"/>
<path fill-rule="evenodd" clip-rule="evenodd" d="M326.459 0L120.949 493.223H531.969L326.459 0ZM326.459 161.823L214.568 430.361H438.35L326.459 161.823Z" fill="black"/>
</svg>
