<svg viewbox="0 0 208 40" fill="none" xmlns="http://www.w3.org/2000/svg" aria-hidden="true" focusable="false" class="w-auto h-[30px] lg:h-[40px] dark:hidden"><path d="M62.4355 27.2421L61.4026 24.397H53.0506L52.0466 27.2421H46.7656L55.4049 7.1254H59.0783L67.7176 27.2421H62.4366H62.4355ZM57.241 12.8144L54.4863 20.401H59.9681L57.241 12.8144ZM75.1867 23.6782C75.7603 23.6782 76.2196 23.5916 76.6789 23.4483V27.1843C76.1907 27.3854 74.8705 27.5865 73.8953 27.5865C70.4227 27.5865 68.844 25.5168 68.844 22.3274V16.6372H66.3466V12.7578H68.844V8.41853H73.5502V12.7578H76.822V16.6372H73.5502V22.0396C73.5502 23.1605 74.0673 23.6782 75.1867 23.6782ZM85.1878 12.4123C87.369 12.4123 89.0908 13.4465 89.751 14.913V12.7578H94.3718V27.2421H89.8375V25.0869C89.0343 26.4667 87.369 27.5877 85.1878 27.5877C80.9974 27.5877 77.9553 24.3115 77.9553 20.0011C77.9553 15.6907 80.9974 12.4146 85.1878 12.4146M86.1341 23.6782C88.2011 23.6782 89.6644 22.1263 89.6644 20C89.6644 17.8737 88.2011 16.3217 86.1341 16.3217C84.0672 16.3217 82.6616 17.9026 82.6616 20C82.6616 22.0974 84.0961 23.6782 86.1341 23.6782ZM100.801 27.2421H96.0948V12.7578H100.801V27.2421ZM101.146 8.44626C101.146 9.96935 99.969 11.1192 98.448 11.1192C96.9269 11.1192 95.7498 9.96935 95.7498 8.44626C95.7498 6.92318 96.9546 5.80225 98.448 5.80225C99.9413 5.80225 101.146 6.98096 101.146 8.44626ZM119.484 21.6086C119.484 24.7125 116.672 27.241 112.624 27.241H102.666V7.12425H112.223C115.178 7.12425 117.848 9.16504 117.848 12.2401C117.848 14.1364 116.757 15.804 114.92 16.5794C117.79 17.126 119.483 18.7346 119.483 21.6086M114.605 21.092C114.605 19.7411 113.457 18.879 111.878 18.879H107.487V23.3628H112.021C113.542 23.3628 114.604 22.3574 114.604 21.092M107.487 15.0563H110.816C112.251 15.0563 113.084 14.1942 113.084 12.9589C113.084 11.8379 112.136 11.0048 110.673 11.0048H107.488V15.0575L107.487 15.0563ZM128.54 24.1671C129.947 24.1671 131.038 23.6205 131.582 22.7307H135.916C135.026 25.4613 132.156 27.5877 128.54 27.5877C123.489 27.5877 120.619 24.4259 120.619 19.9722C120.619 15.5185 123.833 12.4134 128.339 12.4134C132.846 12.4134 136.031 15.3452 136.031 20.0289V21.4375H125.24C125.527 23.0184 126.502 24.1682 128.54 24.1682M128.396 15.6884C126.616 15.6884 125.497 16.7227 125.238 18.5335H131.523C131.294 16.8093 130.174 15.6884 128.395 15.6884M145.317 12.4123C149.536 12.4123 152.434 15.1707 153.037 18.3324H148.474C148.044 17.2693 147.096 16.3205 145.289 16.3205C143.108 16.3205 141.96 17.9869 141.96 19.9988C141.96 22.0107 143.108 23.6771 145.289 23.6771C147.097 23.6771 148.044 22.7283 148.474 21.6652H153.037C152.435 24.8269 149.536 27.5853 145.317 27.5853C140.437 27.5853 137.31 24.367 137.31 19.9988C137.31 15.6306 140.438 12.4123 145.317 12.4123ZM159.391 27.2421H154.684V6.26333H159.391V19.77L163.983 12.7578H169.177L164.269 19.9711L169.434 27.2421H163.953L159.389 20.3732V27.2421H159.391ZM175.857 27.2421H171.15V6.26333H175.857V27.2421ZM185.218 24.1671C186.625 24.1671 187.716 23.6205 188.261 22.7307H192.594C191.704 25.4613 188.835 27.5877 185.218 27.5877C180.167 27.5877 177.297 24.4259 177.297 19.9722C177.297 15.5185 180.511 12.4134 185.018 12.4134C189.524 12.4134 192.708 15.3452 192.708 20.0289V21.4375H181.918C182.205 23.0184 183.18 24.1682 185.218 24.1682M185.075 15.6884C183.296 15.6884 182.176 16.7227 181.918 18.5335H188.203C187.974 16.8093 186.855 15.6884 185.075 15.6884ZM200.049 22.1263L203.15 12.7578H208L202.232 27.2421L200.05 33.2489H195.143L197.64 26.6678L192.1 12.7578H196.951L200.049 22.1263Z" fill="#00C9AD"></path><path d="M19.9733 0C8.94282 0 0 8.95476 0 20C0 31.0452 8.94282 40 19.9733 40C31.0039 40 39.9467 31.0452 39.9467 20C39.9467 8.95476 31.005 0 19.9733 0ZM11.4067 23.7418C12.5562 23.7418 13.5845 23.2218 14.27 22.4036V22.406C14.9866 21.5 16.0507 21.0135 17.1228 20.9938H18.9832V27.3774H15.1436V26.5996C14.0403 27.2271 12.7662 27.5877 11.4067 27.5877C7.22211 27.5877 3.83033 24.1914 3.83033 20.0012C3.83033 15.8109 7.22211 12.4146 11.4067 12.4146C12.7662 12.4146 14.0403 12.7752 15.1436 13.4027V12.6249H18.9832V19.0096H17.1228C16.0507 18.99 14.9855 18.5012 14.27 17.5975C13.5845 16.7793 12.5562 16.2593 11.4056 16.2593C9.34212 16.2593 7.66873 17.9349 7.66873 20.0012C7.66873 22.0674 9.34212 23.743 11.4056 23.743L11.4067 23.7418ZM28.5296 27.5865C27.1701 27.5865 25.8948 27.226 24.7927 26.5985V27.3762H20.9531V20.9915H22.8135C23.8856 21.0112 24.9508 21.5 25.6663 22.4036C26.3518 23.2218 27.3801 23.7418 28.5307 23.7418C30.5942 23.7418 32.2676 22.0662 32.2676 20C32.2676 17.9338 30.5942 16.2582 28.5307 16.2582C27.3813 16.2582 26.353 16.7782 25.6675 17.5963V17.594C24.9508 18.5 23.8868 18.9865 22.8146 19.0062H20.9543V7.81187H24.7939V13.3992C25.8971 12.7717 27.1712 12.4112 28.5307 12.4112C32.7153 12.4112 36.1071 15.8075 36.1071 19.9977C36.1071 24.1879 32.7153 27.5842 28.5307 27.5842L28.5296 27.5865Z" fill="#2B3D7A"></path></svg>