<svg class="icon-logo" viewbox="0 0 102 28" preserveaspectratio="xMidYMin meet" aria-hidden="true" focusable="false" role="presentation" xmlns="http://www.w3.org/2000/svg" fill="none">
    <title> Skydio Logo </title>
    <g clip-path="url(#clip0)" fill="currentColor">
        <path d="M86.769 21.35V10.325c0-.214.172-.389.381-.389h1.814c.21 0 .382.175.382.39V21.33a.387.387 0 01-.382.389H87.15c-.21.019-.381-.156-.381-.37zM88.067 8.167c.822 0 1.488-.68 1.488-1.517 0-.838-.666-1.517-1.488-1.517-.823 0-1.49.68-1.49 1.517 0 .838.667 1.517 1.49 1.517zM41.075 8.303c0-1.03.782-1.653 2.118-1.653h5.23a.304.304 0 00.306-.311V4.433a.304.304 0 00-.306-.31h-5.23c-2.69 0-4.58 1.71-4.58 4.18 0 4.783 8.15 5.522 8.15 9.002 0 1.109-.897 1.906-2.138 1.906h-1.68c-1.164 0-2.118-.972-2.118-2.158v-.623a.386.386 0 00-.382-.388h-1.718a.386.386 0 00-.381.388v.623c0 2.586 2.06 4.666 4.58 4.666h1.66c2.616 0 4.62-1.905 4.62-4.433 0-5.289-8.131-6.32-8.131-8.983zM82.34 4.511v5.425h-3.95c-2.444 0-4.448 2.003-4.448 4.53v2.742c0 2.49 2.005 4.53 4.448 4.53h6.031c.21 0 .382-.174.382-.388V4.51a.387.387 0 00-.382-.389h-1.718a.383.383 0 00-.362.39zm0 14.7h-3.95c-1.088 0-1.966-.914-1.966-2.003v-2.741c0-1.109.897-2.003 1.966-2.003h3.95v6.747zM69.514 10.325v8.886h-2.958c-1.107-.02-1.966-.856-1.966-1.983v-6.903a.386.386 0 00-.382-.39H62.49a.386.386 0 00-.381.39v6.903c0 2.488 1.985 4.491 4.409 4.491h2.977v1.77c0 1.127-1.088 1.964-2.195 1.983h-2.347a.387.387 0 00-.382.389v1.75c0 .214.172.389.382.389H67.3c2.558 0 4.657-2.14 4.657-4.745v-12.93a.386.386 0 00-.381-.39h-1.718c-.172 0-.344.176-.344.39zM97.572 9.936h-2.004c-2.443.02-4.41 2.003-4.41 4.492V17.208c0 2.509 1.967 4.492 4.448 4.492h2.004c2.443-.02 4.409-2.003 4.409-4.492v-2.761c-.019-2.508-1.985-4.511-4.447-4.511zm1.966 7.272c0 1.128-.86 2.003-1.966 2.003h-1.985c-.496-.02-.935-.175-1.26-.447a1.994 1.994 0 01-.706-1.556v-2.741c0-1.128.859-2.003 1.966-2.003H97.572c.496.02.935.175 1.26.447.439.37.706.914.706 1.556v2.741zM52.775 4.142h-1.718a.387.387 0 00-.382.389V21.35c0 .214.172.389.382.389h1.718c.21 0 .382-.175.382-.389V4.511a.37.37 0 00-.382-.37zM57.241 15.828l3.36-5.425a.3.3 0 00-.248-.467h-2.081a.527.527 0 00-.439.253l-3.111 4.86a.557.557 0 00-.077.293v.991a.73.73 0 00.077.292l3.111 4.86a.527.527 0 00.439.254h2.061c.248 0 .401-.273.268-.486l-3.36-5.425zM.802 24.85c0 1.536.992 2.586 2.443 2.917.19.038.725.233 4.027.233h20.251V10.13C1.833 17.968.802 23.294.802 24.85zM0 14c25.252-4.997 30.672-8.05 30.672-9.858 0-1.536-3.187-1.984-3.187-1.984V0H0v14z"> </path>
    </g>
    <defs>
        <clippath id="clip0">
            <path fill="#fff" d="M0 0h102v28H0z"> </path>
        </clippath>
    </defs>
</svg>