<svg width="80" height="24" viewBox="0 0 80 24" fill="none" xmlns="http://www.w3.org/2000/svg">
<path fill-rule="evenodd" clip-rule="evenodd" d="M59.9812 6.83545C64.6896 6.83545 68.5064 10.6779 68.5064 15.4177C68.5064 20.1576 64.6896 24 59.9812 24C55.2728 24 51.4559 20.1576 51.4559 15.4177C51.4559 10.6779 55.2728 6.83545 59.9812 6.83545ZM59.9812 12.4557C58.4395 12.4557 57.342 13.7139 57.342 15.2658V15.4937C57.342 17.0456 58.4395 18.3038 59.9812 18.3038C61.5229 18.3038 62.6205 17.0456 62.6205 15.4937V15.2658C62.6205 13.7139 61.5229 12.4557 59.9812 12.4557Z" fill="#1A1829"/>
<path d="M5.48051 7.21509C5.60656 7.21509 5.70887 7.31716 5.70887 7.44293V18.3037C5.70887 18.3037 8.90583 18.6075 8.90583 16.0252V7.44293C8.90583 7.31716 9.00814 7.21509 9.13419 7.21509H14.3102C14.4363 7.21509 14.5386 7.31716 14.5386 7.44293V17.6961C14.5386 21.5239 10.4282 23.6961 6.08946 23.6961H0.228355C0.102242 23.6961 0 23.594 0 23.4682V7.44293C0 7.31716 0.102242 7.21509 0.228355 7.21509H5.48051Z" fill="#1A1829"/>
<path d="M22.0744 7.21509C22.2005 7.21509 22.3028 7.31716 22.3028 7.44293V23.4682C22.3028 23.594 22.2005 23.6961 22.0744 23.6961H16.9745C16.8484 23.6961 16.7461 23.594 16.7461 23.4682V7.44293C16.7461 7.31716 16.8484 7.21509 16.9745 7.21509H22.0744Z" fill="#1A1829"/>
<path d="M29.9907 1.59497C30.1168 1.59497 30.2191 1.69705 30.2191 1.82282V12.2279L33.0537 7.32915C33.0945 7.25867 33.1699 7.21522 33.2515 7.21522H39.164C39.3446 7.21522 39.4536 7.41436 39.3563 7.56611L35.7757 13.1393C36.9429 13.2406 39.2771 14.0659 39.2771 16.557V23.4684C39.2771 23.5942 39.1748 23.6962 39.0488 23.6962H33.7966C33.6706 23.6962 33.5683 23.5942 33.5683 23.4684V19.0633C33.5683 18.8355 33.4922 17.6962 31.8937 17.6962C30.2952 17.6962 30.2191 18.8355 30.2191 19.0633V23.4684C30.2191 23.5942 30.1168 23.6962 29.9907 23.6962H24.6624C24.5364 23.6962 24.4341 23.5942 24.4341 23.4684V1.82282C24.4341 1.69705 24.5364 1.59497 24.6624 1.59497H29.9907Z" fill="#1A1829"/>
<path d="M46.4322 1.82275C46.5582 1.82275 46.6605 1.92483 46.6605 2.0506V7.21516H50.2381C50.3641 7.21516 50.4664 7.31723 50.4664 7.44301V12.5316C50.4664 12.6574 50.3641 12.7595 50.2381 12.7595H46.6605V18.2278H50.2381C50.3641 18.2278 50.4664 18.3299 50.4664 18.4557V23.4683C50.4664 23.5941 50.3641 23.6962 50.2381 23.6962H45.9754C43.285 23.6962 41.1039 21.5199 41.1039 18.8354V2.0506C41.1039 1.92483 41.2062 1.82275 41.3322 1.82275H46.4322Z" fill="#1A1829"/>
<path d="M79.7716 7.21519C79.8977 7.21519 80 7.31726 80 7.44304V12.5316C80 12.6574 79.8983 12.7595 79.7723 12.7595H77.6403C76.9553 12.7595 75.2807 12.7595 75.2807 15.4937V23.4683C75.2807 23.5941 75.1784 23.6962 75.0523 23.6962H69.9524C69.8263 23.6962 69.724 23.5941 69.724 23.4683V7.44304C69.724 7.31726 69.8263 7.21519 69.9524 7.21519H79.7716Z" fill="#1A1829"/>
<path d="M19.5624 0C21.328 0 22.7593 1.3601 22.7593 3.03797C22.7593 4.71585 21.328 6.07595 19.5624 6.07595C17.7967 6.07595 16.3654 4.71585 16.3654 3.03797C16.3654 1.3601 17.7967 0 19.5624 0Z" fill="#1A1829"/>
</svg>
