<svg xmlns="http://www.w3.org/2000/svg" viewbox="0 0 88 22" fill="none" class="h-[16px] translate-y-0.5"><path fill="currentColor" d="M8 8.747v3.237h5.66v5.32h3.234V8.748H8Z"></path><path fill="currentColor" d="M8.645 0C3.87 0 0 3.874 0 8.653c0 4.742 3.812 8.594 8.536 8.653h2.913v-3.3H8.631a5.35 5.35 0 0 1-5.334-5.353 5.347 5.347 0 0 1 10.049-2.556l3.547-.043C15.791 2.545 12.515 0 8.645 0ZM78.664 5.24l2.932 8.662 2.862-8.661h3.541L82.652 19.02a12.653 12.653 0 0 1-.798 1.736 2.627 2.627 0 0 1-.961.939c-.376.211-.868.305-1.478.305h-3.213v-2.794h1.83c.422 0 .727-.07.915-.21.187-.142.352-.4.54-.823l.304-.798-4.644-12.136h3.518v.002ZM73.401 6.414c.915.892 1.384 2.324 1.384 4.343v6.549h-3.307v-6.408c0-.986-.211-1.76-.61-2.277-.422-.516-1.032-.798-1.83-.798-.844 0-1.525.305-1.993.868-.47.587-.704 1.385-.704 2.418v6.197h-3.308V.874h3.308v5.845c.89-1.08 2.064-1.62 3.565-1.62 1.407 0 2.58.446 3.494 1.315h.001ZM39.237.874l3.636-.023 3.026 12.018L49.11.874h3.167l3.12 11.995L58.492.874h3.565l-4.55 16.431H53.45L50.61 6.39l-2.767 10.915h-4.058L39.236.875h.001ZM33.044 8.034h-1.993V5.24h1.993V.872h3.308v4.369h2.744v2.793h-2.744v5.282c0 .422.07.727.258.915.187.188.493.282.915.282h1.712v2.793h-2.744c-2.3 0-3.448-1.15-3.448-3.45V8.034ZM19.062 8.033a5.4 5.4 0 0 1 2.134-2.159c.915-.516 1.97-.774 3.19-.774 1.219 0 2.275.258 3.213.727a5.196 5.196 0 0 1 2.182 2.019c.516.868.797 1.878.821 3.051 0 .422-.047.798-.094 1.127H21.76v.094c.07.892.352 1.573.844 2.065.469.516 1.15.751 1.993.751.657 0 1.22-.14 1.665-.422.446-.282.75-.728.892-1.291h3.26a5.07 5.07 0 0 1-.915 2.16c-.493.657-1.126 1.15-1.923 1.525-.798.376-1.713.54-2.745.54-1.36 0-2.51-.235-3.495-.751-.985-.494-1.735-1.197-2.252-2.137-.515-.938-.773-2.019-.773-3.262 0-1.244.234-2.324.75-3.263Zm8.232 1.832c-.118-.728-.422-1.291-.915-1.69-.493-.4-1.102-.61-1.853-.61-.75 0-1.337.21-1.83.633-.492.423-.773.962-.867 1.667h5.465Z"></path></svg>