<svg xmlns="http://www.w3.org/2000/svg" width="460" height="94" viewBox="0 0 460 94"><g fill="none" fill-rule="evenodd" transform="translate(0 2)"><path fill="#EA7725" d="M45.0000776,0 C20.1473547,0 0,20.1446189 0,44.9982737 C0,48.680857 0.44260718,52.2625795 1.27778094,55.6875798 C1.33751933,55.5622796 1.39376652,55.4303847 1.44729832,55.2953864 C2.39225108,52.8875286 3.33060933,50.4389385 4.23793465,48.0687095 C6.25973012,42.794853 8.34708265,37.3386712 10.6260635,32.1117538 C11.8503127,29.298901 13.5675975,26.865828 15.3411295,25.4343803 C18.4804984,22.9012224 22.7370528,22.0314918 27.0250281,23.0486343 C31.6869501,24.1534481 35.6106764,27.3274601 37.5195895,31.5341317 C38.9447769,34.6798251 40.1721293,38.0419814 41.3618543,41.2974579 C41.9142405,42.8072666 42.4856343,44.3706092 43.0756479,45.9087365 L45.9795545,53.4903659 L48.99324,45.9529601 C49.5363163,44.5936667 50.0824959,43.2374768 50.6286755,41.8781834 C51.824607,38.9082205 53.0612694,35.8346814 54.2447878,32.7929522 C57.2429568,25.0953329 61.5150277,22.4081682 70.0254211,22.8884208 C75.6885432,23.2088478 79.2953456,25.6260159 81.3702849,30.4979808 C82.8051701,33.8729387 84.0577368,37.4484543 85.2660815,40.90798 C85.8153644,42.4713226 86.3805517,44.0881989 86.9550488,45.6608517 L87.2847737,46.5868315 L87.8402632,48.0151757 L88.8166368,47.6260857 L87.8654774,48.0811231 L88.631215,49.8454114 L89.4225547,52.2156404 C89.8023202,49.8675232 90.0001552,47.456562 90.0001552,44.9982737 C90.0001552,20.1446189 69.8528005,0 45.0000776,0 M84.9836819,65.661162 C77.4997026,80.1207226 62.4037333,90.0000388 45.0000776,90.0000388 C27.8004634,90.0000388 12.8581071,80.3530904 5.28645981,66.1728366 C10.1427256,65.5637925 13.0966728,63.0585652 15.0020947,58.0453951 C16.2546614,54.7553931 17.5824829,51.4463828 18.8664705,48.2475435 C19.4471742,46.8067856 20.0247746,45.3687432 20.5961685,43.9279854 L23.6381715,36.2745897 L26.5261737,43.9846226 C27.0378291,45.359433 27.5525879,46.7346313 28.0642433,48.1063383 C29.1849201,51.1073353 30.3432242,54.2122965 31.4953218,57.2509223 C33.7083577,63.0837804 37.4125259,65.8621078 43.5120485,66.2577925 C52.9390772,66.8730434 56.8003496,64.4461772 60.042903,55.8730085 C61.1007381,53.0787762 62.2058983,50.2632079 63.2761465,47.5411299 C63.7660789,46.2920076 64.2556234,45.0424973 64.7424525,43.7929871 L67.7309238,36.120583 L70.6720698,43.8150989 C71.1620022,45.10185 71.65465,46.3924804 72.1445824,47.6827229 C73.2148306,50.4951878 74.3230942,53.4023066 75.4278665,56.2496848 C77.4997026,61.598799 80.6452781,64.7068636 84.9836819,65.661162"/><path fill="#002A39" d="M42.2134295 22.677908C42.2134295 20.0056806 41.763063 18.5426284 40.7979363 17.4611586 39.7684162 16.3156444 38.4169285 15.807507 36.7434734 15.807507 33.7836999 15.807507 30.759145 17.5248196 28.8285038 19.4967762 28.8928973 20.0693416 28.8928973 20.7059514 28.8928973 21.4050718L28.8928973 41 21.1067148 41 21.1067148 22.677908C21.1067148 19.9420196 20.7847473 18.5426284 19.8196206 17.4611586 18.725707 16.2527504 17.2458202 15.807507 15.7011521 15.807507 12.7413786 15.807507 9.71682377 17.5884806 7.78618255 19.5604372L7.78618255 41 0 41 0 9.70027085 7.72178905 9.70027085 7.72178905 13.0079576 7.85057605 13.0716186C10.4247643 10.7180796 13.8992979 9 17.9537608 9 21.6858683 9 25.5467629 10.4634357 27.4130106 13.8984444 30.9523255 10.6544186 34.8776136 9 38.9960821 9 42.4710035 9 45.3023779 10.1455142 47.2330191 12.1811318 49.1632724 14.2800268 50 17.0159152 50 21.4050718L50 41 42.2134295 41 42.2134295 22.677908ZM83.7173777 22.2253888C83.1373321 17.4742805 79.6570584 15.2918514 76.112292 15.2918514 72.5030329 15.2918514 68.8937738 17.4742805 67.9271606 22.2253888L83.7173777 22.2253888ZM67.9271606 27.6185701C68.8937738 32.8828724 73.0830785 35.5796566 78.4328629 35.5796566 82.4283011 35.5796566 86.1665455 34.1027725 89.2602517 31.9199564L89.2602517 39.0462318C86.2951424 40.9085919 81.7837628 42 77.6589508 42 67.4761004 42 60 35.4507776 60 25.564246 60 15.5484484 67.540593 9 76.1767846 9 84.0398411 9 91 14.3281613 91 24.4728379 91 25.5 90.9355073 26.7837591 90.8069105 27.6185701L67.9271606 27.6185701ZM120 40.5253596C118.600997 41.3587344 116.057877 42 113.641625 42 110.907627 42 107.982752 41.1662387 106.011882 38.9223888 104.422001 37.190701 103.468379 34.5618598 103.468379 29.8808912L103.468379 16.3513073 98 16.3513073 98 9.74692841 103.468379 9.74692841 103.468379 1.34669649 111.161748 0 111.161748 9.74692841 120 9.74692841 120 16.3513073 111.161748 16.3513073 111.161748 28.7904691C111.161748 32.3176233 111.797624 35.2672906 115.294749 35.2672906 116.947873 35.2672906 118.728248 34.626025 120 33.9202076L120 40.5253596ZM132 10.3221503 139.651118 10.3221503 139.651118 14.7647187 139.77872 14.8291488C141.94603 11.738447 145.197957 10 148.895722 10 149.597148 10 150.298574 10.0644301 151 10.2577202L151 17.7261723C150.234773 17.5332703 149.46993 17.4044102 148.449499 17.4044102 144.815536 17.4044102 141.882614 19.0143852 139.714919 22.1046988L139.714919 42 132 42 132 10.3221503ZM176.196824 28.5816435C174.769856 28.196559 172.824489 27.939578 171.268116 27.939578 168.025185 27.939578 164.847542 28.966728 164.847542 32.0485651 164.847542 34.6164401 167.117399 35.8363259 169.906046 35.8363259 172.305698 35.8363259 174.640452 35.0015246 176.196824 33.9101294L176.196824 28.5816435ZM177.429099 38.9820212C175.48334 40.5231332 172.175902 42 167.960287 42 165.366333 42 162.70709 41.4221797 160.567029 39.8810677 158.361679 38.2760974 157 35.7720806 157 32.6263854 157 29.1594638 158.686168 26.5915888 161.08582 24.9862315 163.485472 23.3812612 166.728012 22.803441 170.035841 22.803441 172.2408 22.803441 174.251066 23.060422 176.196824 23.5097517L176.196824 21.6474134C176.196824 19.7216039 175.678034 18.3093694 174.640452 17.3464646 173.472684 16.3193146 171.657112 15.8057396 169.257069 15.8057396 165.43084 15.8057396 162.123402 17.0894836 159.659243 18.6302086L159.659243 11.568262C162.188299 10.1556405 165.885124 9 170.424837 9 174.575554 9 178.271988 9.96290476 180.67164 11.9533465 182.811701 13.7510526 184.044367 16.4470311 184.044367 20.3636694L184.044367 32.4978948C184.044367 34.2313556 184.692562 35.4508544 186.248934 35.4508544 186.833014 35.4508544 187.481209 35.2585056 188 35.0015246L188 41.1005665C187.027316 41.5506702 185.665246 41.8715095 184.108873 41.8715095 181.514528 41.8715095 179.05037 40.972463 177.558504 38.9820212L177.429099 38.9820212ZM197.969153 32.1128103C201.973869 34.5521949 206.818076 35.6439772 210.306092 35.6439772 213.858744 35.6439772 216.119451 34.6164401 216.119451 32.2413009 216.119451 29.0952185 212.0501 29.2240961 207.205893 28.196559 201.133988 26.912428 197 24.7934957 197 19.0795384 197.064636 12.4669216 202.81336 9 210.435364 9 214.246561 9 218.832612 9.770169 222.191356 11.5040168L222.191356 18.5659634C218.315523 16.3831729 213.665225 15.3556358 210.435364 15.3556358 207.07662 15.3556358 204.880549 16.3193146 204.880549 18.5017181 204.880549 21.4554517 208.884875 21.3912064 213.600199 22.3541112 219.672103 23.6378552 224 25.5644388 224 31.5992353 224 38.7254272 217.669551 42 210.177209 42 206.237129 42 201.521805 41.1651987 197.969153 39.3674927L197.969153 32.1128103ZM256.717378 22.2253888C256.137332 17.4742805 252.657058 15.2918514 249.11268 15.2918514 245.503421 15.2918514 241.894162 17.4742805 240.927161 22.2253888L256.717378 22.2253888ZM240.927161 27.6185701C241.894162 32.8828724 246.083079 35.5796566 251.432474 35.5796566 255.428301 35.5796566 259.166157 34.1027725 262.259863 31.9199564L262.259863 39.0462318C259.295142 40.9085919 254.784151 42 250.659339 42 240.4761 42 233 35.4507776 233 25.564246 233 15.5484484 240.540593 9 249.176785 9 257.039841 9 264 14.3281613 264 24.4728379 264 25.5 263.935507 26.7837591 263.806522 27.6185701L240.927161 27.6185701ZM277 9.69989573 284.63174 9.69989573 284.63174 13.0712839 284.759019 13.1353292C287.365933 10.780995 290.927437 9 295.061313 9 298.431899 9 301.357393 10.1451445 303.329063 12.3077264 305.173072 14.2797066 306 16.8883043 306 21.532544L306 41 298.305004 41 298.305004 22.8690572C298.305004 20.0694742 297.923167 18.5423593 297.0326 17.5245383 296.078776 16.3793938 294.67986 15.8072051 292.899108 15.8072051 289.846718 15.8072051 286.666667 17.5882 284.69538 19.751549L284.69538 41 277 41 277 9.69989573ZM318.969163 32.1128103C322.973919 34.5521949 327.818175 35.6439772 331.306226 35.6439772 334.858914 35.6439772 337.119644 34.6164401 337.119644 32.2413009 337.119644 29.0952185 333.050251 29.2240961 328.205996 28.196559 322.13403 26.912428 318 24.7934957 318 19.0795384 318.064637 12.4669216 323.813419 9 331.435499 9 335.246735 9 339.832833 9.770169 343.19161 11.5040168L343.19161 18.5659634C339.315738 16.3831729 334.665003 15.3556358 331.435499 15.3556358 328.076722 15.3556358 325.880628 16.3193146 325.880628 18.5017181 325.880628 21.4554517 329.884995 21.3912064 334.600367 22.3541112 340.672332 23.6378552 345.000273 25.5644388 345.000273 31.5992353 345.000273 38.7254272 338.66976 42 331.177342 42 327.237222 42 322.521851 41.1651987 318.969163 39.3674927L318.969163 32.1128103Z" transform="translate(114 18)"/></g></svg>