<svg height="221" viewBox="0 0 1093 221" width="1093" xmlns="http://www.w3.org/2000/svg" xmlns:xlink="http://www.w3.org/1999/xlink"><mask id="a" fill="#fff"><path d="m0 .27524002h245.055779v220.66475998h-245.055779z" fill="#fff" fill-rule="evenodd"/></mask><g fill="none" fill-rule="evenodd"><path d="m150.061 47.979-.02.02c-1.028 1.814-2.318 3.607-3.85 5.322l-.565.665-13.505 15.462v.02l-72.814 83.533c-1.372 1.575-3.479 2.297-5.529 1.897-3.482-.681-5.56-4.28-4.408-7.636l42.917-125.106c.685-2.076 1.592-4.093 2.661-5.988 8.789-15.179 28.282-20.4 43.462-11.651 7.358 4.253 12.619 11.108 14.837 19.312 2.197 8.224 1.068 16.792-3.186 24.15" fill="#e15e53" mask="url(#a)"/><path d="m243.96 197.414c-1.108 4.092-2.982 7.882-5.482 11.147-2.52 3.266-5.665 6.048-9.354 8.165-15.181 8.789-34.674 3.568-43.442-11.612-1.089-1.874-1.975-3.91-2.702-6.026l-.282-.827-42.612-124.278c-.676-1.971-.25-4.154 1.118-5.726 2.326-2.674 6.481-2.676 8.808-.004l86.146 98.843.767.886c1.513 1.694 2.803 3.467 3.849 5.302 4.254 7.358 5.383 15.925 3.186 24.13" fill="#f6bc60" mask="url(#a)"/><path d="m9.307 211.692c-2.989-3.005-5.334-6.523-6.912-10.321-1.568-3.816-2.405-7.93-2.39508857-12.183-.02091143-17.54 14.24708857-31.811 31.77808857-31.816074 2.168-.004926 4.374.245074 6.57.674074l.857.168 20.138 3.947 108.795 21.291c2.045.399 3.723 1.86 4.4 3.83 1.153 3.351-.922 6.95-4.4 7.631l-128.674 25.182-1.151.221c-2.222.462-4.403.692-6.517.684202-8.498.003798-16.482-3.302202-22.489-9.308202" fill="#00a760" mask="url(#a)"/><g fill="#fffffe" transform="translate(276.159 52.148)"><path d="m77.58 64.44c5.638 5.759 8.459 13.08 8.459 21.959v7.2c0 9.72-2.821 17.851-8.459 24.39-5.643 6.542-14.76 9.81-27.361 9.81h-46.62c-.962 0-1.8-.329-2.519-.99-.721-.658-1.08-1.468-1.08-2.43v-14.76c0-.959.359-1.769 1.08-2.429.719-.659 1.557-.991 2.519-.991h37.26c7.799 0 13.32-.9 16.561-2.699 3.24-1.801 4.859-5.28 4.859-10.441v-5.94c0-3.839-1.322-6.418-3.959-7.74-2.642-1.319-7.201-1.98-13.681-1.98h-7.74c-12.36 0-21.42-3.24-27.18-9.72s-8.639-14.639-8.639-24.48v-3.6c0-9.72 2.818-17.848 8.459-24.39 5.639-6.539 14.76-9.81 27.36-9.81h42.841c.959 0 1.799.332 2.519.99.72.661 1.081 1.471 1.081 2.43v14.76c0 .962-.361 1.772-1.081 2.43-.72.661-1.56.991-2.519.991h-35.281c-7.081 0-12.121.9-15.119 2.699-3.001 1.801-4.5 5.282-4.5 10.44v2.34c0 5.161 1.318 8.671 3.959 10.53 2.638 1.862 7.201 2.79 13.68 2.79h7.74c12.601 0 21.718 2.88 27.361 8.641"/><path d="m148.948 108.719c2.458-.959 4.169-2.88 5.13-5.759 1.319-4.439 1.98-11.161 1.98-20.161s-.661-15.719-1.98-20.16c-.961-2.88-2.672-4.798-5.13-5.76-2.461-.959-5.85-1.439-10.17-1.439-4.319 0-7.712.48-10.17 1.439-2.461.962-4.171 2.88-5.13 5.76-1.322 4.441-1.98 11.16-1.98 20.16s.658 15.722 1.98 20.161c.959 2.879 2.669 4.8 5.13 5.759 2.458.962 5.851 1.44 10.17 1.44 4.32 0 7.709-.478 10.17-1.44zm-35.01 16.56c-5.881-3.119-10.052-8.038-12.51-14.759-2.461-6.72-3.69-15.959-3.69-27.721 0-11.759 1.229-21.029 3.69-27.81 2.458-6.778 6.66-11.699 12.6-14.759 5.94-3.061 14.189-4.591 24.75-4.591 10.679 0 18.959 1.561 24.841 4.68 5.877 3.122 10.049 8.041 12.51 14.76 2.457 6.722 3.689 15.961 3.689 27.72 0 11.762-1.232 21.032-3.689 27.81-2.461 6.781-6.661 11.7-12.601 14.76s-14.192 4.591-24.75 4.591c-10.682 0-18.962-1.562-24.84-4.681z"/><path d="m217.525 98.279c.9 4.32 2.549 7.082 4.95 8.28 2.039 1.201 5.28 1.8 9.72 1.8h23.58c.959 0 1.77.36 2.43 1.081.658.719.99 1.561.99 2.52v12.419c0 .962-.359 1.772-1.08 2.43-.72.661-1.561.99-2.52.99h-26.279c-16.803 0-27.783-5.818-32.941-17.46-2.641-7.079-3.959-16.318-3.959-27.72 0-11.159 1.318-20.278 3.959-27.36 5.158-11.638 16.138-17.46 32.941-17.46h26.279c.959 0 1.8.332 2.52.991.721.66 1.08 1.47 1.08 2.429v12.42c0 .962-.332 1.801-.99 2.52-.66.72-1.471 1.08-2.43 1.08h-23.58c-4.44 0-7.681.602-9.72 1.801-4.202 2.041-6.3 9.9-6.3 23.579 0 6.12.45 11.341 1.35 15.66"/><path d="m272.785 126.809c-.661-.658-.99-1.468-.99-2.43v-82.98c0-.959.329-1.8.99-2.52.658-.72 1.468-1.08 2.43-1.08h16.379c.96 0 1.8.36 2.521 1.08.72.72 1.08 1.561 1.08 2.52v82.98c0 .962-.36 1.772-1.08 2.43-.721.661-1.561.99-2.521.99h-16.379c-.962 0-1.772-.329-2.43-.99zm.539-103.14c-2.221-2.219-3.329-5.608-3.329-10.169 0-4.559 1.108-7.949 3.329-10.171 2.22-2.219 5.609-3.329 10.171-3.329 4.559 0 7.948 1.11 10.17 3.329 2.218 2.222 3.33 5.612 3.33 10.171 0 4.561-1.112 7.95-3.33 10.169-2.222 2.222-5.611 3.331-10.17 3.331-4.562 0-7.951-1.109-10.171-3.331z"/><path d="m336.864 108.27c2.579 1.501 6.688 2.25 12.33 2.25 5.64 0 10.08-.6 13.319-1.801v-17.46c-4.679-1.319-9.899-1.98-15.659-1.98-5.04 0-8.612.872-10.71 2.61-2.101 1.741-3.15 4.23-3.15 7.47 0 4.441 1.288 7.411 3.87 8.911zm41.399-61.651c5.1 5.882 7.651 13.261 7.651 22.14v54.36c-10.08 4.562-22.801 6.841-38.16 6.841-13.922 0-23.76-2.549-29.52-7.651-5.76-5.099-8.641-12.749-8.641-22.95 0-9 3.03-15.868 9.091-20.609 6.058-4.74 14.788-7.111 26.191-7.111 6.84 0 12.716.661 17.638 1.98v-3.42c0-3.718-.422-6.48-1.259-8.28-.84-1.8-2.34-3.06-4.5-3.78-2.161-.72-5.58-1.018-10.26-.9l-26.1.18c-.962 0-1.771-.36-2.429-1.08-.663-.72-.991-1.558-.991-2.52v-12.6c0-.959.36-1.769 1.08-2.429.72-.659 1.558-.991 2.52-.991h32.76c11.52 0 19.828 2.942 24.929 8.82z"/><path d="m404.004 121.139c-3.663-4.438-5.491-10.918-5.491-19.44v-96.3c0-.958.33-1.8.991-2.52.658-.72 1.468-1.08 2.429-1.08h16.381c.959 0 1.8.36 2.52 1.08s1.08 1.562 1.08 2.52v94.86c0 2.52.568 4.5 1.71 5.94 1.139 1.44 2.848 2.16 5.13 2.16h4.32c2.039 0 3.389.512 4.05 1.53.658 1.021.99 2.492.99 4.41v7.38c0 1.921-.392 3.42-1.17 4.5-.782 1.08-2.311 1.62-4.591 1.62h-12.059c-7.201 0-12.631-2.219-16.29-6.66"/><path d="m500.933 101.969c2.998-4.258 4.5-10.949 4.5-20.07 0-9.478-1.592-16.259-4.769-20.34-3.182-4.078-8.792-6.119-16.83-6.119-5.401 0-9.841.601-13.321 1.799v51.12h16.561c6.238 0 10.859-2.128 13.859-6.39zm27.901-20.07c0 15.002-3.573 26.401-10.71 34.2-7.142 7.802-16.533 11.7-28.17 11.7h-19.441v28.98c0 .959-.359 1.769-1.08 2.431-.719.658-1.56.989-2.519.989h-16.38c-.962 0-1.773-.331-2.431-.989-.66-.662-.989-1.472-.989-2.431v-112.5c9.959-5.759 22.68-8.64 38.159-8.64 29.039 0 43.561 15.421 43.561 46.26z"/><path d="m589.942 108.719c2.458-.959 4.169-2.88 5.13-5.759 1.319-4.439 1.98-11.161 1.98-20.161s-.661-15.719-1.98-20.16c-.961-2.88-2.672-4.798-5.13-5.76-2.461-.959-5.85-1.439-10.17-1.439-4.319 0-7.712.48-10.17 1.439-2.461.962-4.171 2.88-5.13 5.76-1.322 4.441-1.98 11.16-1.98 20.16s.658 15.722 1.98 20.161c.959 2.879 2.669 4.8 5.13 5.759 2.458.962 5.851 1.44 10.17 1.44 4.32 0 7.709-.478 10.17-1.44zm-35.01 16.56c-5.881-3.119-10.051-8.038-12.509-14.759-2.461-6.72-3.691-15.959-3.691-27.721 0-11.759 1.23-21.029 3.691-27.81 2.458-6.778 6.659-11.699 12.599-14.759 5.941-3.061 14.19-4.591 24.75-4.591 10.679 0 18.959 1.561 24.841 4.68 5.877 3.122 10.049 8.041 12.51 14.76 2.457 6.722 3.689 15.961 3.689 27.72 0 11.762-1.232 21.032-3.689 27.81-2.461 6.781-6.66 11.7-12.601 14.76-5.94 3.06-14.192 4.591-24.75 4.591-10.681 0-18.962-1.562-24.84-4.681z"/><path d="m633.502 126.809c-.661-.658-.991-1.468-.991-2.43v-82.98c0-.959.33-1.8.991-2.52.658-.72 1.467-1.08 2.429-1.08h16.38c.96 0 1.8.36 2.521 1.08.719.72 1.08 1.561 1.08 2.52v82.98c0 .962-.361 1.772-1.08 2.43-.721.661-1.561.99-2.521.99h-16.38c-.962 0-1.771-.329-2.429-.99zm.539-103.14c-2.221-2.219-3.329-5.608-3.329-10.169 0-4.559 1.108-7.949 3.329-10.171 2.219-2.219 5.609-3.329 10.171-3.329 4.559 0 7.948 1.11 10.17 3.329 2.218 2.222 3.33 5.612 3.33 10.171 0 4.561-1.112 7.95-3.33 10.169-2.222 2.222-5.611 3.331-10.17 3.331-4.562 0-7.952-1.109-10.171-3.331z"/><path d="m750.231 72.899v51.48c0 .962-.36 1.772-1.08 2.43-.72.661-1.56.99-2.52.99h-16.38c-.96 0-1.77-.329-2.43-.99-.66-.658-.99-1.468-.99-2.43v-51.12c0-6.238-1.35-10.769-4.051-13.59-2.7-2.818-7.351-4.229-13.95-4.229-5.399 0-9.84.781-13.319 2.339v66.6c0 .962-.36 1.772-1.08 2.43-.72.661-1.561.99-2.52.99h-16.38c-.962 0-1.772-.329-2.43-.99-.661-.658-.99-1.468-.99-2.43v-78.3c9.479-6.958 21.6-10.44 36.359-10.44 27.841 0 41.761 12.42 41.761 37.26"/><path d="m795.411 57.239v43.56c0 2.161.57 3.96 1.71 5.4s2.85 2.16 5.13 2.16h8.64c3.36 0 5.04 2.281 5.04 6.84v6.48c0 1.921-.39 3.42-1.17 4.5s-2.31 1.62-4.59 1.62h-16.38c-14.52 0-21.78-8.699-21.78-26.1v-44.46h-12.78c-.96 0-1.8-.329-2.52-.989-.72-.659-1.08-1.469-1.08-2.431v-12.42c0-.959.36-1.8 1.08-2.52s1.56-1.08 2.52-1.08h12.78v-19.799c0-.96.33-1.801.99-2.52.66-.721 1.47-1.081 2.43-1.081h16.38c.96 0 1.8.36 2.52 1.081.72.719 1.08 1.56 1.08 2.52v19.799h16.92c.96 0 1.8.332 2.52.991.72.66 1.08 1.47 1.08 2.429v12.42c0 .962-.36 1.801-1.08 2.52-.72.72-1.56 1.08-2.52 1.08z"/></g></g></svg>