<svg width="100%" height="100%" viewbox="0 0 54 20" fill="none" xmlns="http://www.w3.org/2000/svg">
<g clip-path="url(#clip0_596_1066)">
<path fill-rule="evenodd" clip-rule="evenodd" d="M14.1091 9.75295C14.7055 9.22349 15.0977 8.52569 15.0977 7.70842C15.0977 5.83223 13.6551 4.58325 11.1811 4.58325H5.15301C4.81185 4.58325 4.53516 4.86292 4.53516 5.20774V14.7896C4.53516 15.1344 4.81185 15.4141 5.15301 15.4141H11.5921C13.6417 15.4141 15.5087 14.3715 15.5087 12.2889C15.5087 11.1078 14.9795 10.2634 14.1064 9.75023L14.1091 9.75295ZM7.42024 6.77169C7.42024 6.71467 7.46591 6.66851 7.52232 6.66851H11.2321C11.8983 6.66851 12.3657 7.08393 12.3657 7.71114C12.3657 8.33834 11.952 8.75377 11.2321 8.75377H7.52232C7.46591 8.75377 7.42024 8.70761 7.42024 8.65059V6.7744V6.77169ZM11.13 13.3316H7.52232C7.46591 13.3316 7.42024 13.2854 7.42024 13.2284V10.9368C7.42024 10.8797 7.46591 10.8336 7.52232 10.8336H11.13C12.0998 10.8336 12.7794 11.2517 12.7794 12.0826C12.7794 12.9134 12.1804 13.3316 11.13 13.3316Z" fill="currentColor"></path>
<path fill-rule="evenodd" clip-rule="evenodd" d="M26.3827 4.58325H21.1686C19.4869 4.58325 18.0175 5.72634 17.585 7.36631L15.6697 14.6294C15.5649 15.0258 15.8604 15.4168 16.2687 15.4168H17.9745C18.2539 15.4168 18.5011 15.2267 18.5709 14.9525L19.0867 12.9949C19.0974 12.9487 19.1404 12.9188 19.1861 12.9188H24.016C24.0724 12.9188 24.1181 12.965 24.1181 13.022V14.7923C24.1181 15.1371 24.3948 15.4168 24.736 15.4168H26.3853C26.7265 15.4168 27.0032 15.1371 27.0032 14.7923V5.20774C27.0032 4.86292 26.7265 4.58325 26.3853 4.58325H26.3827ZM24.1154 10.7277C24.1154 10.7847 24.0698 10.8309 24.0133 10.8309H19.7878C19.7206 10.8309 19.6696 10.7657 19.6884 10.7005L20.4271 7.9012C20.6205 7.17082 21.2733 6.66308 22.0201 6.66308H24.0133C24.0698 6.66308 24.1154 6.70924 24.1154 6.76625V10.725V10.7277Z" fill="currentColor"></path>
<path fill-rule="evenodd" clip-rule="evenodd" d="M27.9922 12.6528C27.9922 13.3859 28.422 14.1814 29.2413 14.7136C30.0606 15.2403 30.8612 15.4141 31.8793 15.4141H34.4098C36.137 15.4141 37.1041 15.2023 37.816 14.662C38.5305 14.1162 38.8878 13.3044 38.8878 12.2971C38.8878 10.391 37.3163 9.53302 33.8295 8.86509C32.2043 8.55556 30.6892 8.41165 30.6436 7.55637C30.6167 7.07035 30.9417 6.66036 31.9142 6.66036H34.8342C35.3365 6.66036 35.6911 6.78255 35.9786 7.19797C36.0699 7.33373 36.1102 7.55909 36.1263 7.76273C36.1451 8.01795 36.3546 8.21616 36.6072 8.21616H38.1222C38.4285 8.21616 38.6756 7.96636 38.6783 7.65683C38.6783 7.57538 38.6783 7.48306 38.6783 7.3826C38.6783 6.58977 38.2162 5.78608 37.3969 5.25933C36.583 4.72716 35.3365 4.58325 34.3184 4.58325H32.4783C30.7456 4.58325 29.7651 4.83576 29.056 5.38151C28.3468 5.92455 27.9922 6.69838 27.9922 7.70842C27.9922 11.526 36.1236 10.4345 36.1236 12.4871C36.1236 13.0953 35.4762 13.3316 34.7429 13.3316H31.8121C31.0707 13.3316 30.657 12.984 30.657 12.46C30.657 12.46 30.7027 11.8246 30.0338 11.8246H28.5483C28.242 11.8246 27.9922 12.0771 27.9922 12.3867C27.9922 12.4654 27.9922 12.555 27.9922 12.6528Z" fill="currentColor"></path>
<path fill-rule="evenodd" clip-rule="evenodd" d="M49.4663 5.20774V6.0413C49.4663 6.38613 49.1896 6.66579 48.8484 6.66579H42.9735C42.9171 6.66579 42.8714 6.71195 42.8714 6.76897V8.64516C42.8714 8.70218 42.9171 8.74834 42.9735 8.74834H48.0237C48.3649 8.74834 48.6416 9.028 48.6416 9.37283V10.2064C48.6416 10.5512 48.3649 10.8309 48.0237 10.8309H42.9735C42.9171 10.8309 42.8714 10.877 42.8714 10.9341V13.2257C42.8714 13.2827 42.9171 13.3288 42.9735 13.3288H48.8484C49.1896 13.3288 49.4663 13.6085 49.4663 13.9533V14.7869C49.4663 15.1317 49.1896 15.4114 48.8484 15.4114H40.6042C40.263 15.4114 39.9863 15.1317 39.9863 14.7869V5.20774C39.9863 4.86292 40.263 4.58325 40.6042 4.58325H48.8484C49.1896 4.58325 49.4663 4.86292 49.4663 5.20774Z" fill="currentColor"></path>
<path d="M48.8477 0H5.15232C2.30753 0 0 2.33234 0 5.20771V14.7923C0 17.6677 2.30753 20 5.15232 20H48.8477C51.6925 20 54 17.6677 54 14.7923V5.20771C54 2.33234 51.6925 0 48.8477 0ZM51.9396 14.7923C51.9396 16.5164 50.5535 17.9175 48.8477 17.9175H5.15232C3.44384 17.9175 2.06039 16.5191 2.06039 14.7923V5.20771C2.06039 3.48086 3.44384 2.08254 5.15232 2.08254H48.8477C50.5535 2.08254 51.9396 3.48357 51.9396 5.20771V14.7896V14.7923Z" fill="currentColor"></path>
</g>
<defs>
<clippath id="clip0_596_1066">
<rect width="54" height="20" fill="currentColor"></rect>
</clippath>
</defs>
</svg>