<svg fill="none" height="41" viewBox="0 0 177 41" width="177" xmlns="http://www.w3.org/2000/svg"><g fill="#000"><path d="m4.44701 39.9148h-4.44701v-38.7215h7.21282l11.93098 32.6475h.1087l11.931-32.6475h6.9416v38.7215h-4.5012l-.0004-33.16061c0-.21596-.3002-.26981-.3754-.06721l-12.3144 33.22782h-3.7965l-12.31755-33.20516c-.07515-.2026-.37536-.14856-.37536.0674z"/><path d="m63.9929 31.8885h4.2301c-.5785 2.7116-1.8803 4.8359-3.9045 6.3722-2.0254 1.5373-4.4834 2.3049-7.3755 2.3049-3.9413 0-7.1139-1.283-9.5179-3.8505-2.4048-2.5667-3.6064-6.0009-3.6064-10.304s1.2016-7.7823 3.6064-10.4397c2.404-2.6573 5.4859-3.986 9.2465-3.986 3.615 0 6.4714 1.2388 8.5686 3.7149 2.0963 2.4768 3.1455 5.7214 3.1455 9.7346v1.7896h-20.1742c.1084 3.1098.9304 5.5139 2.4675 7.2129 1.5363 1.6997 3.6241 2.5489 6.2638 2.5489 1.771 0 3.2446-.4244 4.4197-1.2745 1.1745-.8491 2.0517-2.1235 2.6304-3.8233zm-7.3213-16.2696c-2.2777 0-4.1402.7322-5.5858 2.1964-1.3622 1.3789-2.2435 3.2793-2.6431 5.7-.0393.2378.1406.4553.3816.4553h14.7646c.2202 0 .3992-.1838.3874-.4036-.129-2.4114-.8015-4.3192-2.0173-5.7246-1.2837-1.482-3.0461-2.2235-5.2874-2.2235z"/><path d="m83.4075 36.5524c.6508 0 1.2922-.0542 1.9252-.1627.6322-.1085 1.3101-.2712 2.0337-.4881v3.6878c-.8677.2533-1.6907.4424-2.4675.5694-.7781.1263-1.5457.1898-2.3049.1898-2.5311 0-4.4197-.6143-5.6672-1.8439-1.2473-1.2287-1.871-3.0912-1.871-5.5858v-16.8661h-4.0132v-3.4166h4.0132v-6.94168h4.447v6.55428c0 .214.1733.3874.3874.3874h6.7712v3.4166h-7.2128v16.6491c0 1.338.316 2.3142.949 2.9286.6322.6151 1.6353.9219 3.0099.9219z"/><path d="m97.5616.00018311v15.91861689c0 .3955.5171.5332.7215.1946.6438-1.0662 1.5059-1.9452 2.5869-2.6366 1.554-.994 3.362-1.4914 5.423-1.4914 3.072 0 5.468.9134 7.186 2.7387 1.716 1.8261 2.576 4.3657 2.576 7.6196v17.5711h-4.501v-16.595c0-2.5303-.552-4.4377-1.654-5.7214-1.104-1.283-2.722-1.9252-4.854-1.9252-2.351 0-4.186.7956-5.5049 2.3862-1.3202 1.5913-1.9795 3.869-1.9795 6.8332v15.0222h-4.5012v-39.91461689z"/><path d="m133.64 11.9854c3.869 0 6.996 1.3109 9.382 3.9318 2.387 2.6217 3.58 6.0833 3.58 10.3854s-1.193 7.7551-3.58 10.3583c-2.386 2.6031-5.513 3.9047-9.382 3.9047-3.868 0-6.995-1.3016-9.382-3.9047-2.386-2.6032-3.579-6.0554-3.579-10.3583s1.193-7.7637 3.579-10.3854c2.387-2.6209 5.513-3.9318 9.382-3.9318zm0 3.6335c-2.639 0-4.718.9584-6.236 2.8743-1.519 1.9167-2.278 4.5199-2.278 7.8094s.759 5.8841 2.278 7.7823c1.518 1.8981 3.597 2.8471 6.236 2.8471 2.64 0 4.718-.949 6.237-2.8471 1.518-1.8982 2.278-4.492 2.278-7.7823s-.76-5.8927-2.278-7.8094c-1.519-1.9159-3.598-2.8743-6.237-2.8743z"/><path d="m162.491 40.5656c-3.544 0-6.454-1.3194-8.731-3.959-2.278-2.6387-3.417-6.0739-3.417-10.304s1.129-7.6738 3.389-10.3311c2.259-2.6574 5.179-3.9861 8.759-3.9861 2.061 0 3.895.4974 5.504 1.4914 1.175.7265 2.124 1.6312 2.846 2.7137.211.3177.707.1656.707-.2163v-15.9742h4.501v39.9146h-4.339v-4.7724c-.795 1.5913-2.025 2.8929-3.687 3.9047-1.664 1.0118-3.508 1.5185-5.532 1.5185zm.922-25.0551c-2.603 0-4.673.9762-6.21 2.9285s-2.304 4.5741-2.304 7.8636c0 3.2539.767 5.857 2.304 7.8094 1.537 1.9523 3.607 2.9285 6.21 2.9285 2.567 0 4.6-.9398 6.101-2.8201 1.5-1.8795 2.251-4.4105 2.251-7.5924v-.7592c0-3.1811-.751-5.7029-2.251-7.5654-1.501-1.8617-3.534-2.7929-6.101-2.7929z"/></g></svg>