<svg version="1.1" class="wordmark" xmlns="http://www.w3.org/2000/svg" xmlns:xlink="http://www.w3.org/1999/xlink" x="0px" y="0px" viewbox="0 0 66 24" xml:space="preserve">
        <path style="fill: currentColor" d="M0,17.198h3.045c0.356,3.077,3.045,4.664,5.927,4.664c3.045,0,5.409-1.814,5.409-4.632
        c0-2.883-2.332-3.595-6.186-4.47C2.559,11.53,0.777,9.587,0.777,6.283C0.777,2.623,3.984,0,8.486,0c4.178,0,7.806,2.332,8.032,6.057
        h-3.012c-0.227-2.462-2.429-3.919-5.15-3.919c-2.947,0-4.761,1.879-4.761,3.951c0,2.462,2.073,3.206,6.121,4.049
        c5.441,1.134,7.514,3.271,7.514,6.931c0,4.243-3.498,6.931-8.356,6.931C4.081,24,0.291,21.636,0,17.198z"></path>
        <path style="fill: currentColor" d="M18.267,19.304c0-3.336,2.818-5.344,10.3-5.538v-0.972c0-2.494-1.36-3.725-3.563-3.725
        c-2.267,0-3.401,1.49-3.563,3.077h-2.785c0.324-2.721,2.559-4.988,6.348-4.988c4.049,0,6.316,2.202,6.316,5.636v10.721h-2.623
        v-2.073C27.757,23.093,26.008,24,23.709,24C20.794,24,18.267,22.283,18.267,19.304z M28.567,17.846v-2.3
        c-5.538,0.162-7.547,1.458-7.547,3.66c0,1.684,1.36,2.883,3.271,2.883C26.721,22.089,28.567,20.437,28.567,17.846z"></path>
        <path style="fill: currentColor" d="M33.684,7.676h2.656v2.332c0.907-1.684,2.623-2.785,4.923-2.785c3.595,0,5.506,2.364,5.506,5.862
        v10.429h-2.85v-9.911c0-2.915-1.296-4.275-3.498-4.275s-3.887,1.879-3.887,4.308v9.879h-2.85V7.676z"></path>
        <path style="fill: currentColor" d="M48.389,19.304c0-3.336,2.818-5.344,10.3-5.538v-0.972c0-2.494-1.36-3.725-3.563-3.725
        c-2.267,0-3.401,1.49-3.563,3.077h-2.785c0.324-2.721,2.559-4.988,6.348-4.988c4.049,0,6.316,2.202,6.316,5.636v10.721h-2.623
        v-2.073C57.879,23.093,56.13,24,53.83,24C50.915,24,48.389,22.283,48.389,19.304z M58.688,17.846v-2.3
        c-5.538,0.162-7.547,1.458-7.547,3.66c0,1.684,1.36,2.883,3.271,2.883C56.842,22.089,58.688,20.437,58.688,17.846z"></path>
        <polygon style="fill: currentColor" points="61.043,1.018 60.026,1.018 60.026,4.032 59.424,4.032 59.424,1.018 58.407,1.018 
        58.407,0.518 61.043,0.518 "></polygon>
        <polygon style="fill: currentColor" points="63.251,3.263 64.124,0.518 65.041,0.518 65.041,4.03 64.445,4.03 64.445,1.137 63.537,4.03 
        62.956,4.03 62.028,1.141 62.028,4.03 61.441,4.03 61.441,0.518 62.374,0.518 "></polygon>
      </svg>