<svg xmlns="http://www.w3.org/2000/svg" width="150" height="78.608" viewbox="0 0 150 78.608"> <g id="New_logo" data-name="New logo" transform="translate(-85.039 -81.248)"> <g id="SK_Logo" transform="translate(85.039 81.248)"> <g id="Group_2347" data-name="Group 2347" transform="translate(124.355 0)"> <rect id="Rectangle_1395" data-name="Rectangle 1395" width="9.21" height="9.21" transform="translate(0 19.132) rotate(-45)" fill="#c80041"></rect> <rect id="Rectangle_1396" data-name="Rectangle 1396" width="9.21" height="9.21" transform="translate(12.62 19.132) rotate(-45)" fill="#c80041"></rect> <rect id="Rectangle_1397" data-name="Rectangle 1397" width="9.21" height="9.21" transform="translate(12.62 6.513) rotate(-45)" fill="#c80041"></rect> </g> <g id="Group_2348" data-name="Group 2348" transform="translate(0.002 0.572)"> <path id="Path_262" data-name="Path 262" d="M91.655,107.991a6.418,6.418,0,0,1-2.737-1.665v1.761H85.045V99.7h4.033v.352a3.787,3.787,0,0,0,1.616,3.169,6.76,6.76,0,0,0,4.177,1.216,6.438,6.438,0,0,0,3.329-.7,2.287,2.287,0,0,0,1.152-2.08,2.556,2.556,0,0,0-1.12-2.225A10.531,10.531,0,0,0,94.2,98.164l-1.536-.256a9.792,9.792,0,0,1-5.505-2.449,6.714,6.714,0,0,1-1.824-4.945,6.6,6.6,0,0,1,1.1-3.761,7.362,7.362,0,0,1,3.1-2.576,10.881,10.881,0,0,1,4.625-.928q4.065,0,6.017,2.048V83.761h3.841v8.29H99.961v-.32A3.967,3.967,0,0,0,98.6,88.61a5.2,5.2,0,0,0-3.569-1.2,5.069,5.069,0,0,0-2.993.768,2.428,2.428,0,0,0-1.072,2.081A2.527,2.527,0,0,0,92.055,92.4a9.324,9.324,0,0,0,3.809,1.248l1.344.224a11.337,11.337,0,0,1,5.921,2.465,6.426,6.426,0,0,1,1.856,4.9,6.609,6.609,0,0,1-2.4,5.377,10.044,10.044,0,0,1-6.593,1.985A13.5,13.5,0,0,1,91.655,107.991Z" transform="translate(-85.045 -83.249)" fill="#212721"></path> <path id="Path_263" data-name="Path 263" d="M174.075,109.365H163.929v-4.033h2.433V89.072h-2.433V85.039h10.146v4.033h-2.433v16.26h2.433Z" transform="translate(-141.364 -84.527)" fill="#212721"></path> <path id="Path_264" data-name="Path 264" d="M219.984,109.365h-9.955v-4.033h2.433V89.072h-2.433V85.039H219.5l6.305,15.876,6.178-15.876h9.474v4.033H239v16.26h2.465v4.033H231.378v-4.033H234.1V91.568L228.017,107H223.44l-6.177-15.363v13.7h2.721Z" transform="translate(-174.277 -84.527)" fill="#212721"></path> <path id="Path_265" data-name="Path 265" d="M333.294,107.014a10.9,10.9,0,0,1-4.353-4.465,15.054,15.054,0,0,1,0-13.251,10.9,10.9,0,0,1,4.353-4.465,14.414,14.414,0,0,1,13.139,0A10.875,10.875,0,0,1,350.8,89.3a15.054,15.054,0,0,1,0,13.251,10.874,10.874,0,0,1-4.369,4.465,14.411,14.411,0,0,1-13.139,0Zm10.306-4.273a6.259,6.259,0,0,0,2.449-2.721,10.319,10.319,0,0,0,0-8.194,6.263,6.263,0,0,0-2.449-2.721,7.783,7.783,0,0,0-7.49,0,6.254,6.254,0,0,0-2.448,2.721,10.316,10.316,0,0,0,0,8.194,6.25,6.25,0,0,0,2.448,2.721,7.783,7.783,0,0,0,7.49,0Z" transform="translate(-258.078 -83.249)" fill="#212721"></path> <path id="Path_266" data-name="Path 266" d="M431.893,109.365h-9.826v-4.033h2.464V89.072H422.1V85.039h7.842l10.818,16.58V89.072h-2.72V85.039h9.89v4.033h-2.465v20.293h-5.409l-10.883-16.8v12.771h2.721Z" transform="translate(-325.662 -84.527)" fill="#212721"></path> </g> <g id="Group_2349" data-name="Group 2349" transform="translate(0 33.006)"> <path id="Path_267" data-name="Path 267" d="M95.314,222.75H85.039v-4.033h2.433v-16.26H85.039v-4.033H95.314v3.9H92.593v7.554l7.49-7.554H97.938v-3.9h10.114v4.033h-1.985l-6.146,6.017,6.85,10.146h2.977v4.129h-6.786l-6.817-10.659-3.553,3.425v3.2h2.721Z" transform="translate(-85.039 -197.912)" fill="#212721"></path> <path id="Path_268" data-name="Path 268" d="M177.2,220.669q-2.5-2.592-2.5-7.554V202.457h-2.273v-4.033h10.243v4.033H179.95v11.171a4.694,4.694,0,0,0,1.248,3.521,5.916,5.916,0,0,0,7.186,0,4.732,4.732,0,0,0,1.232-3.521V202.457H186.9v-4.033H197.17v4.033h-2.433v10.659q0,4.962-2.481,7.554t-7.506,2.592Q179.693,223.262,177.2,220.669Z" transform="translate(-147.43 -197.912)" fill="#212721"></path> <path id="Path_269" data-name="Path 269" d="M270.725,220.415a10.772,10.772,0,0,1-4.337-4.481,14.334,14.334,0,0,1-1.536-6.785,14.827,14.827,0,0,1,1.376-6.53,10.365,10.365,0,0,1,3.9-4.417,10.944,10.944,0,0,1,5.889-1.568,11.208,11.208,0,0,1,4.257.768,6.406,6.406,0,0,1,2.849,2.08v-2.337h4.065V207.74H282.84v-.256a5.5,5.5,0,0,0-5.922-5.953,6.093,6.093,0,0,0-4.817,2.016,8.038,8.038,0,0,0-1.776,5.505,9.064,9.064,0,0,0,.944,4.225,6.771,6.771,0,0,0,2.657,2.817,7.739,7.739,0,0,0,3.953.992,8.243,8.243,0,0,0,3.681-.848,7.58,7.58,0,0,0,2.785-2.256l3.265,3.329a11.672,11.672,0,0,1-4.337,3.393,14.006,14.006,0,0,1-6.065,1.28A13.038,13.038,0,0,1,270.725,220.415Z" transform="translate(-213.416 -196.634)" fill="#212721"></path> <path id="Path_270" data-name="Path 270" d="M363.154,222.75H352.687v-4.033h2.433v-16.26h-2.433v-4.033h10.467v4.033H360.4v6.081h10.018v-6.081H367.7v-4.033h10.434v4.033H375.7v16.26h2.433v4.033H367.7v-4.033h2.721v-6.241H360.4v6.241h2.753Z" transform="translate(-276.126 -197.912)" fill="#212721"></path> <path id="Path_271" data-name="Path 271" d="M471.382,222.75H451.6v-4.033h2.433v-16.26H451.6v-4.033h19.781v6.818H467.22v-2.785h-7.906v6.21h8.162v3.777h-8.162v6.273h7.873v-2.784h4.193Z" transform="translate(-346.746 -197.912)" fill="#212721"></path> <path id="Path_272" data-name="Path 272" d="M529.59,222.75v-4.033h2.433v-16.26H529.59v-4.033h10.85q4.705,0,7.106,1.921a7.785,7.785,0,0,1,1.344,9.538,7.1,7.1,0,0,1-2.913,2.5l3.457,6.242h2.945v4.129h-6.69l-4.737-9.218h-3.681v5.185h2.721v4.033Zm10.338-13.027q4.705,0,4.705-3.713a3.285,3.285,0,0,0-1.2-2.817,6.058,6.058,0,0,0-3.633-.9h-2.528v7.426Z" transform="translate(-402.426 -197.912)" fill="#212721"></path> </g> </g> <g id="SK_Unlocking_better_Growth" transform="translate(85.039 147.424)"> <g id="Group_2350" data-name="Group 2350"> <path id="Path_273" data-name="Path 273" d="M92.957,319.631c0,2.618-1.573,4.179-3.972,4.179s-3.946-1.561-3.946-4.179v-4.785H86.9v4.8a2.123,2.123,0,1,0,4.2,0v-4.8h1.857Z" transform="translate(-85.039 -314.201)" fill="#c80041"></path> <path id="Path_274" data-name="Path 274" d="M124.175,326.212V329.6h-1.793v-3.237c0-.98-.49-1.509-1.328-1.509a1.847,1.847,0,0,0-1.354.774V329.6h-1.792v-6.177H119.7v.439a2.739,2.739,0,0,1,1.767-.632A2.686,2.686,0,0,1,124.175,326.212Z" transform="translate(-108.506 -320.189)" fill="#c80041"></path> <path id="Path_275" data-name="Path 275" d="M146.842,322.65H145.05v-9.156h1.792Z" transform="translate(-127.884 -313.236)" fill="#c80041"></path> <path id="Path_276" data-name="Path 276" d="M162.2,326.682a3.3,3.3,0,1,1-3.289-3.224A3.155,3.155,0,0,1,162.2,326.682Zm-1.767,0a1.537,1.537,0,1,0-3.069,0,1.541,1.541,0,1,0,3.069,0Z" transform="translate(-135.417 -320.35)" fill="#c80041"></path> <path id="Path_277" data-name="Path 277" d="M186.561,327.34h1.793a2.978,2.978,0,0,1-3.108,2.566,3.225,3.225,0,1,1,0-6.448,2.978,2.978,0,0,1,3.108,2.566h-1.793a1.261,1.261,0,0,0-1.316-.98,1.634,1.634,0,0,0,0,3.263A1.252,1.252,0,0,0,186.561,327.34Z" transform="translate(-154.215 -320.35)" fill="#c80041"></path> <path id="Path_278" data-name="Path 278" d="M210.46,321.374v1.277h-1.793v-9.156h1.793v5.546l2.386-2.567h2.231l-2.4,2.554,2.669,3.624H213.09l-1.638-2.321Z" transform="translate(-173.303 -313.236)" fill="#c80041"></path> <path id="Path_279" data-name="Path 279" d="M234.593,313.65a1.077,1.077,0,0,1,2.153,0,1.078,1.078,0,0,1-2.153,0Zm1.986,2.179v6.178h-1.792v-6.178Z" transform="translate(-191.813 -312.592)" fill="#c80041"></path> <path id="Path_280" data-name="Path 280" d="M253.485,326.212V329.6h-1.793v-3.237c0-.98-.49-1.509-1.328-1.509a1.847,1.847,0,0,0-1.354.774V329.6h-1.792v-6.177h1.792v.439a2.74,2.74,0,0,1,1.767-.632A2.686,2.686,0,0,1,253.485,326.212Z" transform="translate(-200.826 -320.189)" fill="#c80041"></path> <path id="Path_281" data-name="Path 281" d="M279.578,323.426v6.1a2.959,2.959,0,0,1-3.2,3.1,3.017,3.017,0,0,1-3.25-2.67h1.806c.077.645.593,1.07,1.444,1.07a1.358,1.358,0,0,0,1.419-1.483v-.619a3.151,3.151,0,0,1-1.754.477,3.075,3.075,0,0,1-3.082-3.005,3.045,3.045,0,0,1,3.082-3.159,3.153,3.153,0,0,1,1.754.49v-.3Zm-1.78,3.727V325.49a1.689,1.689,0,0,0-1.457-.735,1.547,1.547,0,0,0-1.6,1.638,1.59,1.59,0,0,0,1.6,1.5A1.689,1.689,0,0,0,277.8,327.153Z" transform="translate(-219.207 -320.189)" fill="#c80041"></path> <path id="Path_282" data-name="Path 282" d="M319.974,319.555a3.121,3.121,0,0,1-3.069,3.224,3.154,3.154,0,0,1-1.754-.49v.361h-1.793v-9.156h1.793v3.34a3.139,3.139,0,0,1,4.823,2.721Zm-1.767,0a1.636,1.636,0,0,0-1.6-1.689,1.741,1.741,0,0,0-1.457.71v1.973a1.723,1.723,0,0,0,1.457.722A1.65,1.65,0,0,0,318.207,319.555Z" transform="translate(-248.047 -313.236)" fill="#c80041"></path> <path id="Path_283" data-name="Path 283" d="M346.053,326.973H341.5a1.491,1.491,0,0,0,1.6,1.29,1.134,1.134,0,0,0,1.045-.464h1.87a2.926,2.926,0,0,1-2.953,2,3.191,3.191,0,0,1-3.327-3.276,3.145,3.145,0,0,1,3.276-3.288,2.986,2.986,0,0,1,3.082,3.159A3.592,3.592,0,0,1,346.053,326.973Zm-4.539-1.057h2.8a1.231,1.231,0,0,0-1.29-1.2A1.447,1.447,0,0,0,341.514,325.915Z" transform="translate(-266.878 -320.189)" fill="#c80041"></path> <path id="Path_284" data-name="Path 284" d="M369.432,324.492a4.734,4.734,0,0,1-1.664.284,2.421,2.421,0,0,1-2.476-2.657v-2.205h-1.3V318.4h1.3v-2.2h1.78v2.2H369.3v1.509h-2.231v2.193a.949.949,0,0,0,1.083,1.019,4.294,4.294,0,0,0,1.045-.168Z" transform="translate(-284.196 -315.168)" fill="#c80041"></path> <path id="Path_285" data-name="Path 285" d="M389.541,324.492a4.734,4.734,0,0,1-1.664.284,2.421,2.421,0,0,1-2.476-2.657v-2.205h-1.3V318.4h1.3v-2.2h1.78v2.2h2.231v1.509h-2.231v2.193a.949.949,0,0,0,1.083,1.019,4.294,4.294,0,0,0,1.045-.168Z" transform="translate(-298.553 -315.168)" fill="#c80041"></path> <path id="Path_286" data-name="Path 286" d="M411.608,326.973h-4.552a1.492,1.492,0,0,0,1.6,1.29,1.133,1.133,0,0,0,1.045-.464h1.87a2.926,2.926,0,0,1-2.953,2,3.191,3.191,0,0,1-3.327-3.276,3.145,3.145,0,0,1,3.276-3.288,2.986,2.986,0,0,1,3.082,3.159A3.627,3.627,0,0,1,411.608,326.973Zm-4.539-1.057h2.8a1.23,1.23,0,0,0-1.289-1.2A1.447,1.447,0,0,0,407.069,325.915Z" transform="translate(-313.681 -320.189)" fill="#c80041"></path> <path id="Path_287" data-name="Path 287" d="M433.412,324.347a3.027,3.027,0,0,1,2.167-.8v1.7a2.879,2.879,0,0,0-2.167.89v3.688h-1.793v-6.178h1.793Z" transform="translate(-332.48 -320.414)" fill="#c80041"></path> <path id="Path_288" data-name="Path 288" d="M466.279,323.426v6.1a2.959,2.959,0,0,1-3.2,3.1,3.016,3.016,0,0,1-3.25-2.67h1.805c.077.645.593,1.07,1.445,1.07a1.358,1.358,0,0,0,1.418-1.483v-.619a3.15,3.15,0,0,1-1.754.477,3.075,3.075,0,0,1-3.082-3.005,3.045,3.045,0,0,1,3.082-3.159,3.152,3.152,0,0,1,1.754.49v-.3Zm-1.779,3.727V325.49a1.689,1.689,0,0,0-1.457-.735,1.547,1.547,0,0,0-1.6,1.638,1.589,1.589,0,0,0,1.6,1.5A1.689,1.689,0,0,0,464.5,327.153Z" transform="translate(-352.502 -320.189)" fill="#c80041"></path> <path id="Path_289" data-name="Path 289" d="M490.13,324.347a3.027,3.027,0,0,1,2.167-.8v1.7a2.88,2.88,0,0,0-2.167.89v3.688h-1.793v-6.178h1.793Z" transform="translate(-372.973 -320.414)" fill="#c80041"></path> <path id="Path_290" data-name="Path 290" d="M511.037,326.682a3.3,3.3,0,1,1-3.289-3.224A3.155,3.155,0,0,1,511.037,326.682Zm-1.767,0a1.537,1.537,0,1,0-3.069,0,1.541,1.541,0,1,0,3.069,0Z" transform="translate(-384.466 -320.35)" fill="#c80041"></path> <path id="Path_291" data-name="Path 291" d="M536.229,330.086h-1.586l-1.122-3.4-1.135,3.4h-1.573l-2.257-6.178h1.922l1.135,3.443,1.16-3.443h1.483l1.173,3.456,1.135-3.456h1.922Z" transform="translate(-401.688 -320.671)" fill="#c80041"></path> <path id="Path_292" data-name="Path 292" d="M569.662,324.492a4.734,4.734,0,0,1-1.664.284,2.421,2.421,0,0,1-2.476-2.657v-2.205h-1.3V318.4h1.3v-2.2h1.78v2.2h2.231v1.509H567.3v2.193a.949.949,0,0,0,1.083,1.019,4.291,4.291,0,0,0,1.044-.168Z" transform="translate(-427.15 -315.168)" fill="#c80041"></path> <path id="Path_293" data-name="Path 293" d="M593.616,319.259v3.392h-1.793v-3.237c0-.98-.49-1.509-1.328-1.509a1.847,1.847,0,0,0-1.354.774v3.972h-1.793v-9.156h1.793v3.418a2.739,2.739,0,0,1,1.767-.632A2.686,2.686,0,0,1,593.616,319.259Z" transform="translate(-443.662 -313.236)" fill="#c80041"></path> </g> </g> </g> </svg>