<?xml version="1.0" encoding="utf-8"?>
<!-- Generator: Adobe Illustrator 26.1.0, SVG Export Plug-In . SVG Version: 6.00 Build 0)  -->
<svg version="1.1" id="Layer_1" xmlns="http://www.w3.org/2000/svg" xmlns:xlink="http://www.w3.org/1999/xlink" x="0px" y="0px"
	 viewBox="0 0 538 116" style="enable-background:new 0 0 538 116;" xml:space="preserve">
<style type="text/css">
	.st0{fill:#FFFFFF;}
</style>
<g>
	<path class="st0" d="M28.8,52.4c0,0.8,0.1,1.3,0.3,1.6c0.2,0.3,0.5,0.4,0.9,0.4v1.2H18.6v-1.2c0.5,0,0.8-0.1,1-0.4
		c0.2-0.3,0.3-0.8,0.3-1.6V7.7c0-0.8-0.1-1.3-0.3-1.6c-0.2-0.3-0.5-0.4-1-0.4V4.5h14.2v1.2c-0.6,0-0.8,0.3-0.8,0.8
		c0,0.3,0.1,0.6,0.4,0.8c0.3,0.2,0.6,0.5,0.9,0.9l30.1,32V7.7c0-0.8-0.1-1.3-0.3-1.6c-0.2-0.3-0.5-0.4-1-0.4V4.5h11.6v1.2
		c-0.6,0-0.9,0.1-1.1,0.4c-0.2,0.3-0.3,0.8-0.3,1.6v44.7c0,0.8,0.1,1.3,0.3,1.6c0.2,0.3,0.6,0.4,1.1,0.4v1.2H61.1v-1.2
		c0.7,0,1.1-0.3,1.1-0.8c0-0.2-0.2-0.5-0.5-0.9c-0.3-0.4-0.7-0.8-1.1-1.2l-31.8-34V52.4z"/>
	<path class="st0" d="M113.2,3.7c4.6,0,8.9,0.7,12.7,2c3.8,1.4,7.2,3.2,10,5.6c2.8,2.4,4.9,5.2,6.5,8.4c1.5,3.2,2.3,6.7,2.3,10.3
		c0,3.7-0.8,7.1-2.3,10.3c-1.5,3.2-3.7,6-6.5,8.4c-2.8,2.4-6.1,4.2-10,5.6c-3.8,1.4-8.1,2-12.7,2c-4.6,0-8.9-0.7-12.7-2
		c-3.8-1.4-7.2-3.2-10-5.6c-2.8-2.4-5-5.2-6.5-8.4c-1.5-3.2-2.3-6.7-2.3-10.3c0-3.7,0.8-7.1,2.3-10.3c1.5-3.2,3.7-6,6.5-8.4
		c2.8-2.4,6.1-4.2,10-5.6C104.4,4.4,108.6,3.7,113.2,3.7z M113.2,11.9c-3.2,0-6.2,0.4-8.8,1.3c-2.6,0.9-4.9,2.1-6.9,3.7
		c-1.9,1.6-3.4,3.5-4.5,5.7c-1.1,2.2-1.6,4.7-1.6,7.4s0.5,5.1,1.6,7.4c1.1,2.2,2.6,4.1,4.5,5.7c1.9,1.6,4.2,2.8,6.9,3.7
		c2.6,0.9,5.6,1.3,8.8,1.3c3.2,0,6.2-0.4,8.8-1.3c2.6-0.9,4.9-2.1,6.9-3.7c1.9-1.6,3.4-3.5,4.5-5.7c1.1-2.2,1.6-4.7,1.6-7.4
		s-0.5-5.1-1.6-7.4c-1.1-2.2-2.6-4.1-4.5-5.7c-1.9-1.6-4.2-2.8-6.9-3.7C119.4,12.3,116.5,11.9,113.2,11.9z"/>
	<path class="st0" d="M164.4,34.3v18.1c0,0.8,0.1,1.3,0.3,1.6c0.2,0.3,0.6,0.4,1.2,0.4v1.2h-13.5v-1.2c0.8,0,1.3-0.1,1.5-0.4
		c0.2-0.3,0.3-0.8,0.3-1.6V7.7c0-0.8-0.1-1.3-0.3-1.6c-0.2-0.3-0.7-0.4-1.5-0.4V4.5h28.4c3.8,0,7.2,0.3,10.2,0.8
		c3,0.5,5.5,1.4,7.5,2.6c2,1.2,3.6,2.8,4.7,4.8c1.1,2,1.6,4.4,1.6,7.3c0,2-0.3,3.7-1,5.4c-0.7,1.6-1.7,3.1-2.9,4.3
		c-1.3,1.3-2.7,2.3-4.5,3.1c-1.7,0.8-3.7,1.3-5.8,1.5l12.7,18.2c0.4,0.6,0.8,1,1.4,1.4c0.5,0.4,1.1,0.5,1.7,0.5v1.2h-15.2v-1.2
		c0.1,0,0.3,0,0.4-0.1c0.2-0.1,0.3-0.2,0.3-0.4c0-0.4-0.3-1-0.8-1.8c-0.6-0.8-1.1-1.5-1.5-2.2l-10.4-15.6H164.4z M164.4,26.1h21
		c3.7,0,6.1-0.6,7.4-1.7c1.3-1.1,1.9-2.8,1.9-5.1c0-2.2-0.9-3.9-2.8-5c-1.9-1.1-4.6-1.6-8.1-1.6h-19.4V26.1z"/>
	<path class="st0" d="M242.6,55.5h-13.6v-1.2c0.7,0,1.2-0.1,1.4-0.4c0.2-0.3,0.3-0.8,0.3-1.6V12.7H214c-0.8,0-1.4,0.1-1.8,0.2
		c-0.4,0.1-0.5,0.4-0.5,0.8h-1.2V3.5h1.2c0,0.7,0.8,1,2.3,1h43.3c1.6,0,2.3-0.3,2.3-1h1.2v10.2h-1.2c0-0.4-0.2-0.7-0.5-0.8
		c-0.4-0.1-1-0.2-1.8-0.2h-16.6v39.7c0,0.8,0.1,1.3,0.3,1.6c0.2,0.3,0.7,0.4,1.4,0.4V55.5z"/>
	<path class="st0" d="M311,24.9V7.7c0-0.8-0.1-1.3-0.3-1.6c-0.2-0.3-0.7-0.4-1.5-0.4V4.5h14v1.2c-0.8,0-1.3,0.1-1.5,0.4
		c-0.3,0.3-0.4,0.8-0.4,1.6v44.7c0,0.8,0.1,1.3,0.4,1.6c0.3,0.3,0.8,0.4,1.5,0.4v1.2h-14v-1.2c0.8,0,1.3-0.1,1.5-0.4
		c0.2-0.3,0.3-0.8,0.3-1.6V33.8h-31.5v18.6c0,0.8,0.1,1.3,0.4,1.6c0.3,0.3,0.8,0.4,1.5,0.4v1.2h-14v-1.2c0.8,0,1.3-0.1,1.5-0.4
		c0.2-0.3,0.3-0.8,0.3-1.6V7.7c0-0.8-0.1-1.3-0.3-1.6c-0.2-0.3-0.7-0.4-1.5-0.4V4.5h14v1.2c-0.8,0-1.3,0.1-1.5,0.4
		c-0.3,0.3-0.4,0.8-0.4,1.6v17.2H311z"/>
	<path class="st0" d="M377.1,19.7l-1.2-0.8v-1c0-0.6-0.5-1.2-1.5-1.9c-1-0.7-2.3-1.4-4-2c-1.7-0.6-3.6-1.1-5.8-1.5s-4.4-0.6-6.8-0.6
		c-2.3,0-4.4,0.1-6.3,0.4c-1.9,0.3-3.6,0.7-4.9,1.3c-1.4,0.6-2.4,1.3-3.2,2.1c-0.8,0.9-1.1,1.9-1.1,3.1c0,1.6,0.6,2.8,1.8,3.6
		c1.2,0.8,2.7,1.3,4.6,1.6c1.9,0.3,4.1,0.5,6.6,0.5c2.5,0,5,0.1,7.5,0.2c2.6,0.1,5.1,0.4,7.5,0.8c2.5,0.4,4.6,1.2,6.6,2.2
		c1.9,1.1,3.5,2.5,4.6,4.4c1.2,1.9,1.8,4.4,1.8,7.5c0,2.8-0.6,5.2-1.9,7.3c-1.3,2.1-3.1,3.8-5.4,5.2c-2.3,1.4-5.2,2.5-8.5,3.2
		c-3.3,0.7-7,1.1-11.1,1.1c-4.2,0-7.6-0.3-10.3-0.8c-2.7-0.5-4.9-1.1-6.7-1.8c-1.7-0.7-3-1.3-3.9-1.8c-0.9-0.5-1.6-0.8-2.1-0.8
		c-0.4,0-0.9,0.1-1.3,0.3L331,51l6.2-11.2l1.1,0.7c0,0.1,0,0.3,0,0.4c0,0.2,0,0.4,0,0.6c0,0.7,0.6,1.5,1.7,2.3
		c1.1,0.8,2.7,1.5,4.6,2.2c1.9,0.7,4.1,1.2,6.5,1.6c2.5,0.4,5,0.6,7.6,0.6c5.4,0,9.2-0.8,11.5-2.4c2.3-1.6,3.5-3.6,3.5-6.1
		c0-1.5-0.6-2.6-1.8-3.3c-1.2-0.7-2.7-1.3-4.6-1.6c-1.9-0.3-4.1-0.5-6.6-0.6c-2.5-0.1-5-0.2-7.5-0.3c-2.6-0.1-5.1-0.4-7.5-0.8
		c-2.5-0.4-4.6-1-6.6-1.9c-1.9-0.9-3.5-2.1-4.6-3.8c-1.2-1.6-1.8-3.8-1.8-6.4c0-2.3,0.5-4.5,1.4-6.6c0.9-2.1,2.4-4,4.5-5.6
		c2-1.6,4.6-2.9,7.8-3.8c3.2-0.9,6.9-1.4,11.3-1.4c1.8,0,3.5,0.1,5,0.2c1.5,0.1,2.9,0.3,4.2,0.5c1.3,0.2,2.6,0.5,3.8,0.9
		c1.2,0.4,2.4,0.7,3.7,1.1c1.7,0.6,3.1,1.2,4.2,1.8c1.1,0.6,1.8,1,2.1,1c0.2,0,0.3,0,0.5-0.1c0.2-0.1,0.3-0.2,0.4-0.3l1.2,0.4
		L377.1,19.7z"/>
	<path class="st0" d="M404.3,52.4c0,0.8,0.1,1.3,0.4,1.6c0.3,0.3,0.8,0.4,1.7,0.4v1.2h-14.6v-1.2c1.1,0,1.7-0.1,2-0.4
		c0.3-0.3,0.4-0.8,0.4-1.6V7.7c0-0.8-0.1-1.3-0.4-1.6c-0.3-0.3-0.9-0.4-2-0.4V4.5h14.6v1.2c-0.9,0-1.5,0.1-1.7,0.4
		c-0.3,0.3-0.4,0.8-0.4,1.6V52.4z"/>
	<path class="st0" d="M418.7,7.7c0-0.8-0.1-1.3-0.3-1.6c-0.2-0.3-0.7-0.4-1.3-0.4V4.5h27.8c4.4,0,8.3,0.7,11.5,2
		c3.3,1.3,6,3.1,8.2,5.4c2.2,2.3,3.8,5,4.9,8.1S471,26.4,471,30c0,3.6-0.5,7-1.5,10.1c-1,3.1-2.5,5.8-4.6,8.1
		c-2.1,2.3-4.8,4.1-8.2,5.4c-3.3,1.3-7.3,2-12,2H417v-1.2c0.7,0,1.1-0.1,1.3-0.4c0.2-0.3,0.3-0.8,0.3-1.6V7.7z M428.9,47.3h14.9
		c3.1,0,5.7-0.3,7.9-0.9c2.2-0.6,3.9-1.6,5.3-3c1.4-1.4,2.4-3.2,3-5.4c0.6-2.2,0.9-4.9,0.9-8.1c0-3-0.3-5.5-0.8-7.7
		c-0.6-2.2-1.5-4-2.8-5.4c-1.3-1.4-3.1-2.5-5.3-3.2c-2.2-0.7-4.9-1-8.1-1h-14.9V47.3z"/>
	<path class="st0" d="M527.8,56.5c0-0.7-0.8-1-2.4-1h-45.9v-1.2c0.6,0,1-0.1,1.2-0.4c0.2-0.3,0.3-0.8,0.3-1.6V7.7
		c0-0.8-0.1-1.3-0.3-1.6c-0.2-0.3-0.6-0.4-1.2-0.4V4.5h45.3c1.6,0,2.4-0.3,2.4-1h1.2v10.7h-1.2c0-0.4-0.2-0.8-0.5-1.1
		c-0.4-0.3-1-0.4-1.9-0.4h-33.6v12.9H513c1.6,0,2.3-0.4,2.3-1.2h1.2V35h-1.2c0-0.3-0.2-0.5-0.5-0.8c-0.4-0.3-1-0.4-1.8-0.4h-21.8
		v13.6h34.2c1.6,0,2.4-0.4,2.4-1.2h1.2v10.4H527.8z"/>
	<path class="st0" d="M139.3,79.3h0.2c0.6,0,0.8,0.1,0.8,0.2c0.1,0.1,0.2,0.3,0.2,0.9v11h-20v-11c0-0.6,0.1-0.8,0.2-0.9
		c0.1-0.1,0.3-0.2,0.9-0.2h0.2v-1.1h-9.4v1.1h0.2c0.6,0,0.8,0.1,0.8,0.2c0.1,0.1,0.2,0.3,0.2,0.9v28.9c0,0.6-0.1,0.8-0.2,0.9
		c-0.1,0.1-0.2,0.2-0.8,0.2h-0.2v1.1h9.4v-1.1h-0.2c-0.6,0-0.8-0.1-0.9-0.2c-0.1-0.1-0.2-0.3-0.2-0.9V97.4h20v11.8
		c0,0.6-0.1,0.8-0.2,0.9c-0.1,0.1-0.2,0.2-0.8,0.2h-0.2v1.1h9.4v-1.1h-0.2c-0.6,0-0.8-0.1-0.9-0.2c-0.1-0.1-0.2-0.3-0.2-0.9V80.4
		c0-0.6,0.1-0.8,0.2-0.9c0.1-0.1,0.3-0.2,0.9-0.2h0.2v-1.1h-9.4V79.3z"/>
	<path class="st0" d="M195.3,82.6c-1.8-1.5-4-2.8-6.5-3.7c-2.5-0.9-5.3-1.3-8.3-1.3c-3,0-5.8,0.4-8.3,1.3c-2.5,0.9-4.7,2.1-6.5,3.7
		c-1.8,1.5-3.2,3.4-4.2,5.5c-1,2.1-1.5,4.4-1.5,6.8c0,2.4,0.5,4.7,1.5,6.8c1,2.1,2.4,3.9,4.2,5.5c1.8,1.5,4,2.8,6.5,3.7
		c2.5,0.9,5.3,1.3,8.3,1.3c3,0,5.8-0.4,8.3-1.3c2.5-0.9,4.7-2.1,6.5-3.7c1.8-1.5,3.2-3.4,4.2-5.5c1-2.1,1.5-4.4,1.5-6.8
		c0-2.4-0.5-4.7-1.5-6.8C198.5,86,197.1,84.1,195.3,82.6z M180.5,106.4c-2.1,0-4-0.3-5.6-0.9c-1.7-0.6-3.2-1.4-4.4-2.4
		c-1.2-1-2.2-2.2-2.8-3.6c-0.7-1.4-1-3-1-4.7c0-1.7,0.3-3.3,1-4.7c0.7-1.4,1.6-2.6,2.8-3.6c1.2-1,2.7-1.8,4.4-2.4
		c1.7-0.6,3.6-0.9,5.6-0.9c2.1,0,4,0.3,5.6,0.9c1.7,0.6,3.2,1.4,4.4,2.4c1.2,1,2.2,2.2,2.8,3.6c0.7,1.4,1,3,1,4.7
		c0,1.7-0.3,3.3-1,4.7c-0.7,1.4-1.6,2.6-2.8,3.6c-1.2,1-2.7,1.8-4.4,2.4C184.4,106.1,182.5,106.4,180.5,106.4z"/>
	<path class="st0" d="M240.5,93.1c-1.3-0.7-2.7-1.2-4.3-1.5c-1.6-0.3-3.2-0.4-4.9-0.5c-1.6-0.1-3.3-0.1-4.9-0.1
		c-1.6,0-3-0.1-4.2-0.3c-1.2-0.2-2.2-0.5-2.9-1c-0.7-0.5-1-1.2-1-2.1c0-0.7,0.2-1.3,0.7-1.8c0.5-0.5,1.1-1,2-1.3
		c0.9-0.4,1.9-0.6,3.1-0.8c1.2-0.2,2.6-0.3,4.1-0.3c1.5,0,3,0.1,4.3,0.4c1.4,0.3,2.6,0.6,3.7,1c1.1,0.4,1.9,0.8,2.6,1.2
		c0.7,0.5,0.9,0.9,0.9,1.1v0.8l1,0.7l3.8-7.1l-1.1-0.4l-0.1,0.1c-0.1,0.1-0.1,0.1-0.2,0.2c-0.1,0-0.2,0.1-0.2,0.1
		c-0.1,0-0.3,0-1.3-0.6c-0.7-0.4-1.7-0.8-2.7-1.2l-2.4-0.7c-0.8-0.2-1.6-0.4-2.5-0.6c-0.9-0.1-1.8-0.3-2.7-0.4
		c-1-0.1-2.1-0.1-3.3-0.1c-2.8,0-5.3,0.3-7.3,0.9c-2.1,0.6-3.8,1.5-5.1,2.5c-1.3,1-2.3,2.3-3,3.7c-0.6,1.4-0.9,2.9-0.9,4.4
		c0,1.8,0.4,3.2,1.2,4.3c0.8,1.1,1.8,1.9,3.1,2.5c1.3,0.6,2.7,1,4.3,1.2c1.6,0.2,3.2,0.4,4.9,0.5c1.7,0.1,3.3,0.2,4.9,0.2
		c1.6,0,3,0.2,4.2,0.4c1.2,0.2,2.2,0.5,2.9,1c0.7,0.4,1,1.1,1,2c0,1.5-0.7,2.8-2.2,3.8c-1.5,1-3.9,1.5-7.3,1.5
		c-1.7,0-3.3-0.1-4.9-0.4c-1.6-0.3-3-0.6-4.2-1c-1.2-0.4-2.2-0.9-2.9-1.4c-0.7-0.5-1-0.9-1-1.3c0-0.1,0-0.3,0-0.3c0-0.1,0-0.2,0-0.3
		v-0.1l-1-0.6l-4.2,7.6l1,0.5l0.1,0c0.2-0.1,0.5-0.2,0.7-0.2c0.3,0,0.7,0.2,1.3,0.5c0.6,0.3,1.4,0.7,2.6,1.2
		c1.2,0.4,2.6,0.8,4.4,1.2c1.7,0.3,4,0.5,6.7,0.5c2.6,0,5.1-0.2,7.2-0.7c2.2-0.5,4-1.2,5.5-2.1c1.5-0.9,2.7-2.1,3.6-3.4
		c0.8-1.4,1.3-3,1.3-4.8c0-2-0.4-3.7-1.2-5C242.8,94.8,241.8,93.8,240.5,93.1z"/>
	<path class="st0" d="M286.6,80.5c-2-1.6-4.8-2.3-8.4-2.3h-21.4v1.1h0.2c0.5,0,0.7,0.1,0.7,0.2c0.1,0.1,0.2,0.3,0.2,0.9v28.9
		c0,0.6-0.1,0.8-0.2,0.9c0,0.1-0.2,0.2-0.7,0.2h-0.2v1.1h9.1v-1.1h-0.2c-0.4,0-0.6-0.1-0.7-0.2c-0.1-0.1-0.2-0.3-0.2-0.9V97.7h13.8
		c2,0,3.7-0.2,5-0.7c1.4-0.5,2.5-1.2,3.4-2c0.9-0.9,1.5-1.9,1.9-3.1c0.4-1.2,0.6-2.5,0.6-3.8C289.5,84.6,288.5,82,286.6,80.5z
		 M282.3,89.9c-0.2,0.5-0.5,0.9-0.9,1.2c-0.4,0.3-1,0.5-1.6,0.7c-0.7,0.1-1.6,0.2-2.6,0.2h-12.4v-8.2h12.4c1,0,1.9,0.1,2.6,0.2
		c0.7,0.1,1.2,0.4,1.6,0.7c0.4,0.3,0.7,0.7,0.9,1.2c0.2,0.5,0.3,1.2,0.3,2C282.5,88.7,282.4,89.4,282.3,89.9z"/>
	<path class="st0" d="M299.6,79.3h0.2c0.8,0,1.1,0.1,1.1,0.2c0.1,0.1,0.2,0.3,0.2,0.9v28.9c0,0.6-0.1,0.8-0.2,0.9
		c-0.1,0.1-0.3,0.2-1.1,0.2h-0.2v1.1h9.9v-1.1h-0.2c-0.7,0-0.9-0.1-1-0.2c-0.1-0.1-0.2-0.3-0.2-0.9V80.4c0-0.6,0.1-0.8,0.2-0.9
		c0.1-0.1,0.3-0.2,1-0.2h0.2v-1.1h-9.9V79.3z"/>
	<path class="st0" d="M351.7,77.7c0,0.4-0.8,0.5-1.3,0.5h-28c-0.5,0-1.3-0.1-1.3-0.5v-0.2h-1.1v7h1.1v-0.2c0-0.3,0.1-0.3,0.2-0.4
		c0.2-0.1,0.6-0.1,1.1-0.1h10.5v25.4c0,0.6-0.1,0.8-0.2,0.9c0,0.1-0.2,0.2-0.7,0.2h-0.2v1.1h9.2v-1.1h-0.2c-0.4,0-0.7-0.1-0.8-0.2
		c-0.1-0.1-0.2-0.3-0.2-0.9V83.8h10.5c0.5,0,0.9,0,1.1,0.1c0.1,0,0.2,0.1,0.2,0.4v0.2h1.1v-7h-1.1V77.7z"/>
	<path class="st0" d="M392.2,108.8l-13-28.1c-0.1-0.3-0.2-0.5-0.3-0.7c-0.1-0.2-0.1-0.3-0.1-0.4c0-0.2,0.1-0.2,0.1-0.2
		c0.1-0.1,0.2-0.1,0.3-0.1h0.2v-1.1h-9.9v1.1h0.2c0.1,0,0.2,0,0.3,0.1c0.1,0.1,0.1,0.2,0.1,0.2c0,0.2,0,0.4-0.1,0.5
		c-0.1,0.2-0.2,0.4-0.2,0.6l-12.2,27.2c-0.4,0.8-0.6,1.4-0.8,1.8c-0.2,0.4-0.5,0.6-0.9,0.6l-0.2,0v1.1h8.8v-1.1h-0.2
		c-0.6,0-0.7-0.3-0.7-0.6c0-0.1,0-0.2,0.1-0.3c0.1-0.2,0.2-0.5,0.4-1c0.2-0.5,0.5-1.2,0.9-2.1c0.4-0.9,0.9-2.2,1.6-3.7h15.3
		c0.7,1.6,1.3,2.9,1.7,3.8c0.4,1,0.8,1.7,1,2.1c0.2,0.5,0.4,0.8,0.4,1c0,0.2,0.1,0.3,0.1,0.4c0,0.1,0,0.3-0.5,0.3h-0.2v1.1h9.2v-1.1
		h-0.2C393.2,110.4,392.7,110.2,392.2,108.8z M379.3,96.9H369l5.1-11.2L379.3,96.9z"/>
	<path class="st0" d="M433.6,104.7v0.2c0,0.4-0.1,0.9-1.3,0.9h-20.7V80.4c0-0.6,0.1-0.8,0.2-0.9c0.1-0.1,0.2-0.2,0.8-0.2h0.2v-1.1
		h-9.4v1.1h0.2c0.6,0,0.8,0.1,0.8,0.2c0.1,0.1,0.2,0.3,0.2,0.9v28.9c0,0.6-0.1,0.8-0.2,0.9c-0.1,0.1-0.2,0.2-0.8,0.2h-0.2v1.1h28.9
		c0.5,0,0.9,0.1,1.1,0.2c0.2,0.1,0.3,0.2,0.3,0.4v0.2h1.1v-7.6H433.6z"/>
</g>
</svg>
