<?xml version="1.0" encoding="UTF-8"?>
<svg width="307.171808px" height="50px" viewBox="0 0 307.171808 50" version="1.1" xmlns="http://www.w3.org/2000/svg" xmlns:xlink="http://www.w3.org/1999/xlink">
    <title>HDM_Logo</title>
    <g id="Page-1" stroke="none" stroke-width="1" fill="none" fill-rule="evenodd">
        <g id="PSMAR---Web" transform="translate(-508.000000, -30.000000)" fill="#FFFFFF" fill-rule="nonzero">
            <g id="HDM_Logo" transform="translate(508.000000, 30.000000)">
                <polygon id="Path" points="23.8084968 0.24171889 17.1066981 0.24171889 17.1066981 17.1278587 0 17.1278587 0 23.8292504 17.1066981 23.8292504 23.8084968 23.8292504 23.8084968 17.1278587"></polygon>
                <polygon id="Path" points="26.3725889 50 33.0739806 50 33.0739806 33.1138602 50.1810857 33.1138602 50.1810857 26.4124685 33.0739806 26.4124685 26.3725889 26.4124685 26.3725889 33.1138602"></polygon>
                <path d="M49.7460731,17.1404737 C40.6869049,17.1237894 33.2965736,9.73996907 33.2713437,0.680800846 L33.2701229,0.246195166 L26.5829739,0.246195166 L26.5829739,1.27004151 C26.7473753,7.3207455 29.2308944,12.9909661 33.5769512,17.2356963 C37.9311467,21.4885652 43.6729877,23.8353544 49.7444453,23.8434931 L50.1810857,23.8434931 C50.1810857,23.8434931 50.1810857,17.1412875 50.1810857,17.1412875 L49.7460731,17.1404737 L49.7460731,17.1404737 Z" id="Path"></path>
                <path d="M0.435012615,33.1057215 C9.49418084,33.1224058 16.8845121,40.5062261 16.909742,49.5653943 L16.9109628,50 L23.5981118,50 L23.5981118,48.9761537 C23.4337104,42.9254497 20.9501913,37.2552291 16.6041345,33.0104989 C12.249939,28.75763 6.50809799,26.4108407 0.436640352,26.402702 L0,26.402702 C0,26.402702 0,33.1049076 0,33.1049076 L0.435012615,33.1057215 L0.435012615,33.1057215 Z" id="Path"></path>
                <polygon id="Path" points="77.5286889 0.236021812 77.5286889 23.8748271 73.4764385 23.8748271 73.4764385 13.6432815 62.1636689 13.6432815 62.1636689 23.8748271 58.1443802 23.8748271 58.1443802 0.236021812 62.1636689 0.236021812 62.1636689 10.0301131 73.4764385 10.0301131 73.4764385 0.236021812"></polygon>
                <path d="M81.3127696,15.364613 C81.3127696,10.2323594 85.0268577,6.4165378 90.024416,6.4165378 C94.9552372,6.4165378 98.6693253,10.1306259 98.6693253,15.2636933 C98.6693253,20.3967608 94.9552372,24.2129893 89.9576788,24.2129893 C85.0268577,24.2129893 81.3127696,20.4976805 81.3127696,15.364613 L81.3127696,15.364613 Z M94.7867665,15.3316513 C94.7867665,11.9886872 92.7602344,9.72572638 89.9576788,9.72572638 C87.1551233,9.72572638 85.1953284,11.9886872 85.1953284,15.2978758 C85.1953284,18.6408399 87.2218605,20.9029869 90.024416,20.9029869 C92.8269716,20.9029869 94.7867665,18.6412468 94.7867665,15.3320583 L94.7867665,15.3316513 Z" id="Shape"></path>
                <path d="M101.001058,19.2146171 L103.938309,18.2351266 C104.5129,20.0931879 105.964841,21.2411492 108.160251,21.2411492 C110.119232,21.2411492 111.334744,20.4643119 111.334744,19.2483926 C111.334744,15.568487 101.744527,18.8772687 101.744527,11.6509319 C101.744527,8.40848051 104.479124,6.41694474 108.362904,6.41694474 C111.537397,6.41694474 113.765362,8.13949703 114.475462,10.8061366 L111.503215,11.7856271 C110.962806,10.333686 109.814845,9.32123382 108.058517,9.32123382 C106.403923,9.32123382 105.255962,10.0972573 105.255962,11.2789941 C105.255962,15.0960365 114.947912,11.7188899 114.947912,18.8097176 C114.947912,22.1189062 112.043623,24.2133963 107.889639,24.2133963 C104.276471,24.2133963 101.710344,22.4232929 101.001058,19.2146171 L101.001058,19.2146171 Z" id="Path"></path>
                <path d="M135.581916,15.2641003 C135.581916,20.6335965 132.339464,24.2133963 127.814764,24.2133963 C125.34915,24.2133963 123.526084,23.2001302 122.344348,21.4438024 L122.344348,30.6291202 L118.460568,30.6291202 L118.460568,6.8893953 L122.344348,6.8893953 L122.344348,9.18531782 C123.526084,7.39602832 125.34915,6.41694474 127.814764,6.41694474 C132.339464,6.41694474 135.581916,10.0301131 135.581916,15.2641003 L135.581916,15.2641003 Z M131.732319,15.3320583 C131.732319,12.0216489 129.80752,9.72613331 127.037926,9.72613331 C124.235371,9.72613331 122.344348,12.0220558 122.344348,15.3320583 C122.344348,18.6074713 124.235371,20.9029869 127.037926,20.9029869 C129.80752,20.9029869 131.732319,18.6070644 131.732319,15.3320583 Z" id="Shape"></path>
                <path d="M138.92488,0 L143.044681,0 L143.044681,3.8837796 L138.92488,3.8837796 L138.92488,0 Z M139.060389,6.88980223 L142.944169,6.88980223 L142.944169,23.875234 L139.060389,23.875234 L139.060389,6.88980223 L139.060389,6.88980223 Z" id="Shape"></path>
                <path d="M157.66786,22.354928 C156.68837,23.4699276 155.202246,24.2129893 153.108977,24.2129893 C150.002442,24.2129893 148.279889,22.422886 148.279889,19.2142101 L148.279889,10.1981769 L145.578253,10.1981769 L145.578253,6.88898836 L148.279889,6.88898836 L148.279889,3.10612843 L152.163669,1.41857247 L152.163669,6.88898836 L156.620819,6.88898836 L156.620819,10.1981769 L152.163669,10.1981769 L152.163669,18.8093107 C152.163669,20.1937007 152.770815,20.970538 153.852039,20.970538 C154.595101,20.970538 155.168471,20.6661512 155.641328,20.2274762 L157.66786,22.354928 L157.66786,22.354928 Z" id="Path"></path>
                <path d="M174.013185,13.3393017 L174.013185,23.875234 L170.467567,23.875234 L170.467567,21.2753317 C169.454301,23.1663547 167.697973,24.2133963 165.402051,24.2133963 C162.193782,24.2133963 159.965818,22.2206397 159.965818,19.2146171 C159.965818,16.4800195 161.822658,14.8592008 165.672662,14.1828762 L170.163588,13.4068528 C170.063075,11.1776675 168.677464,9.79368438 166.584195,9.79368438 C164.355009,9.79368438 163.139497,10.9754212 162.464393,13.170831 L159.391633,12.2580776 C160.032962,8.81419386 162.836331,6.41694474 166.753072,6.41694474 C171.277773,6.41694474 174.013592,9.21950028 174.013592,13.3393017 L174.013185,13.3393017 Z M170.163588,16.7164483 L170.163588,16.1418572 L166.922357,16.7844063 C164.963376,17.1555302 163.848376,17.8644095 163.848376,19.3167575 C163.848376,20.6669651 164.861642,21.4779849 166.279808,21.4779849 C168.542769,21.4779849 170.163588,19.4184911 170.163588,16.7168552 L170.163588,16.7164483 Z" id="Shape"></path>
                <polygon id="Path" points="178.301864 0.236021812 182.185643 0.236021812 182.185643 23.8748271 178.301864 23.8748271"></polygon>
                <path d="M209.876292,0.236021812 L209.876292,23.8748271 L205.993733,23.8748271 L205.993733,21.6456417 C204.878734,23.300236 203.156181,24.2129893 200.758525,24.2129893 C195.929438,24.2129893 192.756165,20.5656385 192.756165,15.3316513 C192.756165,10.0976642 195.929438,6.4165378 200.758525,6.4165378 C203.121999,6.4165378 204.878327,7.32807032 205.993733,8.9826646 L205.993733,0.236021812 L209.876292,0.236021812 Z M205.993733,15.3316513 C205.993733,12.021242 204.135672,9.72572638 201.333116,9.72572638 C198.530561,9.72572638 196.638724,12.0216489 196.638724,15.3316513 C196.638724,18.6070644 198.530561,20.90258 201.333116,20.90258 C204.135672,20.90258 205.993733,18.6066574 205.993733,15.3316513 Z" id="Shape"></path>
                <path d="M229.566208,16.3441035 L217.240173,16.3441035 C217.408643,19.3501261 219.603646,21.038496 222.170994,21.038496 C224.16253,21.038496 225.783348,20.0252299 226.796614,18.5053308 L229.262228,20.2278831 C227.877838,22.6255392 225.344673,24.2133963 222.103443,24.2133963 C217.308131,24.2133963 213.492309,20.8024742 213.492309,15.4329779 C213.492309,10.1310328 217.003744,6.41694474 221.867014,6.41694474 C227.202735,6.41694474 230.342232,11.0763408 229.566615,16.3445105 L229.566208,16.3441035 Z M217.374868,13.5757304 L225.986815,13.5757304 C225.750387,11.1101164 224.128754,9.45592903 221.799056,9.45592903 C219.435582,9.45592903 217.61211,11.0767478 217.374868,13.5757304 Z" id="Shape"></path>
                <polygon id="Path" points="233.247335 0.236021812 237.131114 0.236021812 237.131114 23.8748271 233.247335 23.8748271"></polygon>
                <polygon id="Path" points="273.872792 0.236021812 273.872792 23.8748271 269.955237 23.8748271 269.955237 4.69398551 263.369822 23.8748271 259.317571 23.8748271 252.833889 4.82868072 252.833889 23.8748271 248.95011 23.8748271 248.95011 0.236021812 254.826646 0.236021812 261.378286 19.7208432 267.996663 0.236021812 273.873199 0.236021812"></polygon>
                <path d="M292.447302,13.3393017 L292.447302,23.875234 L288.901685,23.875234 L288.901685,21.2753317 C287.888419,23.1663547 286.132091,24.2133963 283.836168,24.2133963 C280.627899,24.2133963 278.399935,22.2206397 278.399935,19.2146171 C278.399935,16.4800195 280.256775,14.8592008 284.10678,14.1828762 L288.597705,13.4068528 C288.497192,11.1776675 287.111581,9.79368438 285.018312,9.79368438 C282.789127,9.79368438 281.573614,10.9754212 280.898511,13.170831 L277.825751,12.2580776 C278.467079,8.81419386 281.270448,6.41694474 285.18719,6.41694474 C289.711891,6.41694474 292.447709,9.21950028 292.447709,13.3393017 L292.447302,13.3393017 Z M288.597705,16.7164483 L288.597705,16.1418572 L285.356474,16.7844063 C283.397493,17.1555302 282.282494,17.8644095 282.282494,19.3167575 C282.282494,20.6669651 283.29576,21.4779849 284.713925,21.4779849 C286.976886,21.4779849 288.597705,19.4184911 288.597705,16.7168552 L288.597705,16.7164483 Z" id="Shape"></path>
                <path d="M307.171808,7.15959958 L305.854155,10.3670546 C305.449255,10.1648083 304.942622,10.0301131 304.301294,10.0301131 C301.903638,10.0301131 300.519248,11.8531782 300.519248,16.3441035 L300.519248,23.8748271 L296.635468,23.8748271 L296.635468,6.8893953 L300.519248,6.8893953 L300.519248,9.55725564 C301.464556,7.39602832 302.983641,6.51745748 304.773745,6.51745748 C305.719053,6.51745748 306.530072,6.75388622 307.171401,7.16000651 L307.171808,7.15959958 Z" id="Path"></path>
                <path d="M72.5506633,44.1633434 C72.5506633,47.4220721 70.1070237,49.6130056 66.3143973,49.6130056 L57.8302271,49.6130056 L57.8302271,29.9487263 L65.9212989,29.9487263 C69.5731261,29.9487263 72.0163588,31.9992675 72.0163588,35.0329617 C72.0163588,37.0277529 70.9778628,38.5728819 69.2072923,39.3598926 C71.3148043,40.1184178 72.5502564,41.8320176 72.5502564,44.1637503 L72.5506633,44.1633434 Z M65.8647351,32.2234882 L60.4993082,32.2234882 L60.4993082,38.4040042 L65.8647351,38.4040042 C67.9995117,38.4040042 69.3761699,37.1400667 69.3761699,35.3137462 C69.3761699,33.4601611 67.9995117,32.2234882 65.8647351,32.2234882 L65.8647351,32.2234882 Z M69.9104745,43.9663872 C69.9104745,41.9443314 68.4495809,40.6234231 66.0901766,40.6234231 L60.4993082,40.6234231 L60.4993082,47.3378367 L66.1459266,47.3378367 C68.4776593,47.3378367 69.9104745,45.9884431 69.9104745,43.9663872 Z" id="Shape"></path>
                <path d="M86.8181818,40.8476439 L86.8181818,49.6130056 L84.4587776,49.6130056 L84.4587776,47.1408806 C83.5594531,48.9102303 82.015138,49.8941971 79.9361113,49.8941971 C77.3227802,49.8941971 75.4976805,48.3205827 75.4976805,45.8769431 C75.4976805,43.6294458 76.9858387,42.2527875 80.470009,41.606983 L84.3187922,40.8761292 C84.2345568,38.7128673 82.9136486,37.4204444 80.8631073,37.4204444 C78.7840807,37.4204444 77.6043786,38.516725 77.0428095,40.5676732 L74.9922683,39.9495402 C75.525352,37.1119883 77.8013347,35.1741678 80.9758281,35.1741678 C84.5430129,35.1741678 86.8181818,37.4493367 86.8181818,40.8480508 L86.8181818,40.8476439 Z M84.3187922,43.2640189 L84.3187922,42.842842 L81.3685196,43.3767396 C79.0648653,43.8264019 78.0255555,44.5279564 78.0255555,45.9046146 C78.0255555,47.2540083 79.0367868,48.0121266 80.4134451,48.0121266 C82.6894279,48.0121266 84.3187922,46.0458208 84.3187922,43.2640189 Z" id="Shape"></path>
                <path d="M98.4174331,35.7349231 L97.5474078,37.8416212 C97.2104663,37.6731505 96.7888826,37.5616505 96.2822495,37.5616505 C94.2040368,37.5616505 92.9677708,39.1910149 92.9677708,43.5736958 L92.9677708,49.6130056 L90.4398958,49.6130056 L90.4398958,35.5107024 L92.9677708,35.5107024 L92.9677708,37.898592 C93.7543745,36.0165215 95.018312,35.2579963 96.563441,35.2579963 C97.2942948,35.2579963 97.9400993,35.4537316 98.4170261,35.7349231 L98.4174331,35.7349231 Z" id="Path"></path>
                <path d="M99.1462521,42.6739644 C99.1462521,38.2640189 102.095304,35.1737609 106.112558,35.1737609 C109.231301,35.1737609 111.337593,36.8588752 112.153089,39.5837064 L109.961341,40.2575893 C109.343208,38.3482543 108.052006,37.3085375 106.084073,37.3085375 C103.556198,37.3085375 101.674127,39.4152356 101.674127,42.5335721 C101.674127,45.6238301 103.556198,47.7586067 106.112558,47.7586067 C108.135835,47.7586067 109.455522,46.7465614 110.271018,44.864084 L112.293074,45.6234231 C111.337593,48.2070481 109.090095,49.8933833 106.084073,49.8933833 C101.955319,49.8933833 99.1462521,47.0000814 99.1462521,42.6731505 L99.1462521,42.6739644 Z" id="Path"></path>
                <path d="M127.601123,43.1236266 L116.926426,43.1236266 C117.094897,46.2138846 119.17311,47.8147636 121.561813,47.8147636 C123.415398,47.8147636 124.876292,46.8307968 125.719053,45.3426386 L127.432652,46.4096199 C126.3087,48.4601611 124.229674,49.8937902 121.504843,49.8937902 C117.600309,49.8937902 114.454301,47.0562383 114.454301,42.589322 C114.454301,38.2066412 117.347603,35.173354 121.336372,35.173354 C125.634817,35.173354 128.0223,38.7124603 127.601123,43.1232197 L127.601123,43.1236266 Z M117.010662,41.1573207 L125.241719,41.1573207 C125.044763,38.825588 123.555384,37.1958167 121.280215,37.1958167 C119.005046,37.1958167 117.262961,38.7966957 117.010255,41.1573207 L117.010662,41.1573207 Z" id="Shape"></path>
                <polygon id="Path" points="130.800846 29.9483194 133.328721 29.9483194 133.328721 49.6125987 130.800846 49.6125987"></polygon>
                <path d="M136.501994,42.5612436 C136.501994,38.2640189 139.506796,35.1737609 143.581021,35.1737609 C147.62676,35.1737609 150.632783,38.2070481 150.632783,42.5054936 C150.632783,46.8039391 147.62676,49.8941971 143.552535,49.8941971 C139.506796,49.8941971 136.501994,46.8596891 136.501994,42.5612436 L136.501994,42.5612436 Z M148.103687,42.533979 C148.103687,39.443721 146.193131,37.3089444 143.552535,37.3089444 C140.911939,37.3089444 139.029869,39.443721 139.029869,42.533979 C139.029869,45.624237 140.940425,47.7590136 143.581021,47.7590136 C146.221616,47.7590136 148.103687,45.624237 148.103687,42.533979 L148.103687,42.533979 Z" id="Shape"></path>
                <path d="M166.163832,40.7072516 L166.163832,49.6125987 L163.635957,49.6125987 L163.635957,41.0157077 C163.635957,38.7120534 162.399284,37.3081305 160.377228,37.3081305 C158.073574,37.3081305 156.218768,39.190201 156.218768,42.9262635 L156.218768,49.6121917 L153.690893,49.6121917 L153.690893,35.5098885 L156.218768,35.5098885 L156.218768,38.0377635 C157.229999,36.155693 158.859364,35.172947 160.966876,35.172947 C164.084398,35.172947 166.163832,37.2796452 166.163832,40.7068446 L166.163832,40.7072516 Z" id="Path"></path>
                <path d="M180.936762,40.8476439 L180.936762,49.6130056 L178.577358,49.6130056 L178.577358,47.1408806 C177.678034,48.9102303 176.133719,49.8941971 174.054692,49.8941971 C171.441361,49.8941971 169.616261,48.3205827 169.616261,45.8769431 C169.616261,43.6294458 171.104419,42.2527875 174.58859,41.606983 L178.437373,40.8761292 C178.353137,38.7128673 177.032229,37.4204444 174.981688,37.4204444 C172.902661,37.4204444 171.722959,38.516725 171.16139,40.5676732 L169.110849,39.9495402 C169.643933,37.1119883 171.919915,35.1741678 175.094409,35.1741678 C178.661594,35.1741678 180.936762,37.4493367 180.936762,40.8480508 L180.936762,40.8476439 Z M178.437373,43.2640189 L178.437373,42.842842 L175.4871,43.3767396 C173.183446,43.8264019 172.144136,44.5279564 172.144136,45.9046146 C172.144136,47.2540083 173.155367,48.0121266 174.532026,48.0121266 C176.808008,48.0121266 178.437373,46.0458208 178.437373,43.2640189 Z" id="Shape"></path>
            </g>
        </g>
    </g>
</svg>