<svg width="136" height="50" fill="none" xmlns="http://www.w3.org/2000/svg"><g clip-path="url(#logo_svg__a)" fill="#9F26B5"><path fill-rule="evenodd" clip-rule="evenodd" d="M115.113 30.574h4.317v14.988h-4.317V30.574ZM113.275 30.582c-.206 1.134-.337 2.093-.59 3.033-.06.227-.413.523-.804.523-1.216 0-2.438-.003-3.732-.003 0 2.347-.068 4.538.033 6.785.043.96.978 1.132 1.776 1.172.977.05 1.958.014 3.111.014-.201 1.114-.367 2.13-.588 3.131-.035.155-.331.353-.495.36-1.831.077-3.272.265-5.56-.037-1.499-.211-2.347-1.645-2.601-3.118a15.624 15.624 0 0 1-.228-2.528c-.023-4.232-.011-9.148-.011-13.475l4.443-.672v4.815h5.246ZM108.466 15.443c-.029-.002.018-.004-.009-.004 0-.746-.034-1.269-.083-2.01-.108-1.61-.687-2.178-2.289-2.255-.538-.025-1.083.03-1.619.097-.986.126-1.537.747-1.586 1.7-.078 1.556-.157 2.505-.063 4.056.116 1.91.743 2.41 2.653 2.419.437 0 .879-.053 1.313-.112.947-.131 1.438-.74 1.534-1.643.093-.876.102-1.369.149-2.248Zm4.185 3.28c-.373 2.056-1.597 3.382-3.68 3.86a14.738 14.738 0 0 1-6.844-.025c-1.89-.458-3.121-1.647-3.533-3.534-.587-2.679-.587-4.775-.003-7.452.41-1.884 1.629-3.073 3.529-3.533 2.178-.525 4.376-.543 6.555-.104 2.62.526 3.954 2.165 4.176 5.026.068.875.167 4.228-.2 5.762ZM119.404 22.767h-4.3V2.512h4.3v20.255ZM121.788 2.512h4.291V22.77h-4.291V2.512ZM83.249 22.766h-4.285V7.799h4.285v14.967ZM115.107 28.808h4.362v-3.634h-4.362v3.634ZM78.94 6.097h4.304V2.463H78.94v3.634Z"></path><path d="M135.734 34.677c0-1.917-1.343-4.412-6.702-4.24-2.163.086-3.203 1.306-3.203 1.306v-1.17h-4.041l.004 14.986h4.349l-.008-8.767c0-1.966.898-2.611 2.604-2.611 1.905 0 2.614.832 2.625 2.76.016 2.511.005 4.242.005 6.754v1.859h4.367V34.677ZM76.485 11.882c-.058-1.918-1.281-4.412-6.642-4.242-2.162.087-3.204 1.307-3.204 1.307V7.799l-4.079.006.008 14.959 4.385.004c.003 0-.009-8.467-.009-8.773 0-1.965.899-2.61 2.605-2.61 1.905 0 2.613.832 2.625 2.76.015 2.512-.003 7.991-.003 8.621h4.357c0-.01.07-7.162-.043-10.884ZM76.28 41.151c0 1.919 1.341 4.705 6.702 4.535 2.162-.087 3.203-1.307 3.203-1.307v1.185h4.078l-.006-14.991h-4.385v8.607c0 1.965-.89 2.761-2.596 2.761-1.905 0-2.614-.832-2.625-2.76-.016-2.513-.004-4.242-.004-6.754V30.57h-4.359c0 3.83-.008 10.533-.008 10.581ZM96.857 31.743c-.016.013-.032.022-.05.033v-1.203h-4.46l-.004 14.993h4.47v-1.165c.002-2.58-.007-4.184.005-6.762.008-1.986.464-3.42 2.457-3.475.734-.022 1.469-.005 2.271-.005.216-1.2.426-2.351.648-3.569-3.923 0-4.41.494-5.337 1.153Z"></path><path fill-rule="evenodd" clip-rule="evenodd" d="M96.502 10.87c-1.396 0-2.879.005-4.164.005-2.546 0-2.451 1.565-2.584 3.413a15.42 15.42 0 0 0 .03 2.021c.127 1.54.106 3.212 2.3 3.212 1.257 0 5.115-.016 5.107-.016-.23 1.204-.333 1.902-.59 3.252-2.501.037-4.899.193-6.85-.067-2.64-.197-4.226-2.962-4.356-4.944-.089-2.135-.064-2.928-.015-4.75.058-2.18 1.755-5.088 4.567-5.29 2.106-.152 4.304-.02 7.07.246-.256 1.374-.294 1.73-.515 2.918ZM73.725 33.656c-1.396 0-2.878.004-4.164.004-2.545 0-2.45 1.566-2.584 3.414-.025.365-.035 1.206.031 2.02.127 1.54.105 3.212 2.3 3.212l5.107.003c-.23 1.205-.339 1.905-.596 3.255-2.5.038-4.893.172-6.844-.089-2.64-.195-4.226-2.962-4.355-4.943-.09-2.134-.066-2.93-.017-4.748.06-2.182 1.755-5.089 4.568-5.292 2.106-.152 4.304-.02 7.07.245-.255 1.374-.294 1.73-.516 2.919Z"></path><path d="M36.705 24.235c-.121-3.614-1.386-6.03-2.537-7.745a6.336 6.336 0 0 0-.347-.435l-.02-.02L19.1.658C18.76.3 18.07 0 17.59 0H3.062C2.343 0 0 .203 0 2.824v44.45C0 49.315.756 50 2.995 50h6.462s.474 0 .848-.072c3.183-.66 5.082-2.761 5.68-3.651.945-1.409 1.059-1.94 1.062-1.946.09-.16.109-.325.048-.43-.063-.107-.206-.13-.314-.13H8.413c-.925 0-2.027-.37-2.027-2.13l.002-33.349c0-1.646 1.42-2.08 2.172-2.08h6.177c.58 0 1.359.337 1.771.766l19.894 21.47c.151.158.238.166.254.166.06-.047.096-.152.092-.336l-.043-4.043Z"></path><path d="M49.349 0h-6.584a4.01 4.01 0 0 0-.793.085V.084c-2.875.63-4.859 2.66-5.66 3.854-.837 1.246-.935 1.654-1.024 1.747-.082.156-.098.312-.04.412.064.109.207.131.316.131h8.367c.925 0 2.026.37 2.026 2.13v33.349c0 1.645-1.421 2.08-2.173 2.08h-6.177c-.58 0-1.359-.335-1.77-.765l-19.894-21.47c-.152-.158-.24-.166-.255-.166-.06.046-.096.15-.092.335l.043 4.043c.127 3.789 1.51 6.26 2.702 7.99L33.245 49.34c.339.358 1.029.659 1.508.659h14.53c.718 0 3.061-.204 3.061-2.825V2.725C52.344.687 51.588 0 49.35 0Z"></path></g><defs><clippath id="logo_svg__a"><path fill="#fff" d="M0 0h136v50H0z"></path></clippath></defs></svg>