<svg width="120" height="49" viewBox="0 0 120 49" fill="none" xmlns="http://www.w3.org/2000/svg">
<path d="M10.6099 40.5539L0 13.6581H9.0184L12.334 23.0611C13.9077 27.6489 14.792 30.503 14.9864 31.6237C15.3048 30.0652 16.2685 27.2111 17.8777 23.0611L21.5116 13.6581H30.2117L18.859 40.5539H10.6099Z" fill="#7D33F6"/>
<path d="M37.2282 9.45555C35.9019 9.45555 34.7701 9.00028 33.833 8.08974C32.9134 7.1617 32.4536 6.04103 32.4536 4.72775C32.4536 3.41447 32.9134 2.31133 33.833 1.4183C34.7701 0.507759 35.9019 0.0524902 37.2282 0.0524902C38.5367 0.0524902 39.6507 0.507759 40.5702 1.4183C41.5075 2.31133 41.976 3.41447 41.976 4.72775C41.976 6.04103 41.5075 7.1617 40.5702 8.08974C39.6507 9.00028 38.5367 9.45555 37.2282 9.45555ZM33.1167 40.5539V13.6581H41.4721V40.5539H33.1167Z" fill="#7D33F6"/>
<path d="M54.9337 40.5539L44.3237 13.6581H53.3423L56.6578 23.0611C58.2316 27.6489 59.1157 30.503 59.3103 31.6237C59.6286 30.0652 60.5923 27.2111 62.2015 23.0611L65.8353 13.6581H74.5354L63.1829 40.5539H54.9337Z" fill="#7D33F6"/>
<path d="M81.5518 9.45555C80.2255 9.45555 79.0939 9.00028 78.1566 8.08974C77.2371 7.1617 76.7773 6.04103 76.7773 4.72775C76.7773 3.41447 77.2371 2.31133 78.1566 1.4183C79.0939 0.507759 80.2255 0.0524902 81.5518 0.0524902C82.8603 0.0524902 83.9743 0.507759 84.8939 1.4183C85.8311 2.31133 86.2997 3.41447 86.2997 4.72775C86.2997 6.04103 85.8311 7.1617 84.8939 8.08974C83.9743 9.00028 82.8603 9.45555 81.5518 9.45555ZM77.4405 40.5539V13.6581H85.7957V40.5539H77.4405Z" fill="#7D33F6"/>
<path d="M102.945 41.2632C99.0368 41.2632 95.9068 39.9937 93.555 37.4547C91.2207 34.9156 90.0537 31.5186 90.0537 27.2636C90.0537 22.9386 91.2649 19.4453 93.6876 16.7837C96.1278 14.1221 99.3904 12.7913 103.475 12.7913C105.155 12.7913 106.738 13.0977 108.223 13.7106C109.726 14.3235 110.867 15.129 111.645 16.1271V0H120V40.5539H112.122L111.698 37.1132C110.955 38.3564 109.788 39.3632 108.197 40.1337C106.623 40.8866 104.872 41.2632 102.945 41.2632ZM104.961 33.6724C106.923 33.6724 108.515 33.0595 109.735 31.8339C110.955 30.5906 111.565 28.9621 111.565 26.9485C111.565 24.9348 110.955 23.3151 109.735 22.0893C108.515 20.846 106.923 20.2245 104.961 20.2245C102.98 20.2245 101.406 20.846 100.239 22.0893C99.0721 23.3151 98.4885 24.9348 98.4885 26.9485C98.4885 28.9621 99.0721 30.5906 100.239 31.8339C101.406 33.0595 102.98 33.6724 104.961 33.6724Z" fill="#7D33F6"/>
</svg>
