<svg xmlns="http://www.w3.org/2000/svg" width="100%" fill="none" viewbox="0 0 72 20"><g class="logo/typo"><path fill="#1C1C1E" fill-rule="evenodd" d="M4.178 19.71V8.174l9.091 11.538h3.6V1.05h-4.204v11.511L3.6 1.052H0V19.71h4.178Zm21.038.29c1.76 0 3.047-.894 3.573-1.603v1.314h3.968V6.57h-3.968v1.313c-.526-.71-1.813-1.603-3.574-1.603-3.442 0-6.095 3.128-6.095 6.86 0 3.731 2.653 6.859 6.095 6.859Zm.893-3.6c-1.787 0-2.996-1.367-2.996-3.26 0-1.892 1.21-3.258 2.996-3.258 1.787 0 2.995 1.366 2.995 3.259 0 1.892-1.208 3.258-2.995 3.258ZM43.337 20c3.442 0 6.096-3.128 6.096-6.86 0-3.731-2.654-6.859-6.096-6.859-1.76 0-3.048.894-3.574 1.603V0h-3.968v19.71h3.968v-1.313c.526.71 1.813 1.603 3.574 1.603Zm-.894-3.6c-1.786 0-2.995-1.367-2.995-3.26 0-1.892 1.209-3.258 2.995-3.258 1.787 0 2.996 1.366 2.996 3.259 0 1.892-1.209 3.258-2.996 3.258Zm13.208 3.31V0h-3.968v19.71h3.968Zm8.346.29c1.76 0 3.048-.894 3.574-1.603v1.314h3.967V6.57h-3.967v1.313c-.526-.71-1.813-1.603-3.574-1.603-3.442 0-6.096 3.128-6.096 6.86 0 3.731 2.654 6.859 6.096 6.859Zm.894-3.6c-1.787 0-2.996-1.367-2.996-3.26 0-1.892 1.209-3.258 2.996-3.258 1.786 0 2.995 1.366 2.995 3.259 0 1.892-1.209 3.258-2.995 3.258Z" class="Vector" clip-rule="evenodd"></path></g></svg>