<svg width="88" height="18" viewBox="0 0 88 18" fill="none" xmlns="http://www.w3.org/2000/svg">
<g clip-path="url(#clip0_5_4239)">
<path d="M18.4949 3.66346L14.2819 8.58195L19.0076 14.0992H27.4364L18.4949 3.66346Z" fill="#11163D"/>
<path d="M17.933 3.00589H9.48136L9.49412 3.02048L0 14.0992H8.42875L17.9229 3.01827L17.933 3.00589Z" fill="#11163D"/>
<path d="M60.3734 9.3743H60.3461L60.3584 9.35972L60.3734 9.3743Z" fill="#11163D"/>
<path d="M60.3584 9.35972L60.3734 9.3743H60.3461L60.3584 9.35972Z" fill="#11163D"/>
<path d="M49.6163 13.1177V17.9978H46.7362V4.54508H49.6119V5.52612C49.6616 5.5354 49.6735 5.49607 49.6929 5.47398C50.0946 5.01394 50.6042 4.71831 51.1741 4.53049C52.1431 4.21099 53.1116 4.25518 54.0652 4.59722C54.5898 4.78548 55.0514 5.08951 55.4558 5.47309C55.9451 5.9371 56.3398 6.47093 56.6114 7.09315C56.8239 7.57969 56.9458 8.08878 57.0074 8.61509C57.0857 9.28548 57.0541 9.95055 56.9159 10.6103C56.7922 11.2012 56.5638 11.7505 56.2303 12.2538C55.8672 12.8018 55.4157 13.2622 54.8736 13.6326C54.4239 13.9397 53.9262 14.1346 53.3946 14.2358C52.2914 14.4453 51.2458 14.3052 50.2852 13.6905C50.0392 13.5331 49.8236 13.3387 49.6163 13.1182V13.1177ZM51.8755 6.8059C51.813 6.809 51.7571 6.8112 51.7013 6.81518C50.8388 6.87838 50.2042 7.31498 49.8271 8.07419C49.4236 8.88687 49.4319 9.73667 49.8178 10.5613C50.0242 11.0023 50.3525 11.3483 50.7846 11.5861C51.189 11.8084 51.6225 11.8777 52.0784 11.8433C52.5638 11.8066 52.9862 11.6245 53.3457 11.2993C53.7809 10.9055 54.0498 10.4177 54.1383 9.83389C54.2434 9.14009 54.1664 8.47589 53.7792 7.87622C53.3325 7.18506 52.6971 6.81783 51.8755 6.8059Z" fill="#11163D"/>
<path d="M68.1183 14.0997L64.395 9.75302H60.7351L60.7342 8.89394H64.3954L68.1174 4.54729H64.4482L60.7342 8.88201V8.62614C60.7342 5.7515 60.7342 2.87685 60.7342 0H57.8752V14.0992H60.7408L60.7355 9.76539L64.45 14.0992H68.1192L68.1183 14.0997Z" fill="#11163D"/>
<path d="M40.7554 14.3264C39.8586 14.3224 39.0014 14.1425 38.2141 13.7011C37.5263 13.3153 36.9446 12.8035 36.4878 12.1539C36.0843 11.5799 35.822 10.9475 35.7067 10.255C35.616 9.71015 35.6064 9.16262 35.6768 8.61421C35.7577 7.98404 35.9549 7.39144 36.2744 6.84391C36.5512 6.37018 36.9067 5.96008 37.3168 5.59506C37.9158 5.06211 38.5996 4.68958 39.3719 4.48763C40.0381 4.31307 40.7167 4.28611 41.4001 4.35549C42.0483 4.42134 42.66 4.61004 43.236 4.91407C43.6642 5.13989 44.0496 5.42758 44.3942 5.7652C44.7876 6.15055 45.1278 6.57832 45.3759 7.07591C45.6285 7.5819 45.7918 8.11397 45.8552 8.67608C45.9436 9.45826 45.8869 10.2272 45.6321 10.9758C45.4521 11.5039 45.1863 11.9847 44.8303 12.4147C44.2125 13.1606 43.46 13.7174 42.5429 14.0352C41.9655 14.2349 41.3671 14.3277 40.7554 14.3264ZM38.4799 9.32834C38.4773 9.76053 38.5512 10.1777 38.743 10.5661C38.9565 10.9979 39.2641 11.3439 39.6931 11.5746C40.0997 11.7933 40.5323 11.8636 40.9886 11.8203C41.8291 11.7407 42.4236 11.2953 42.7686 10.544C43.1418 9.73181 43.1202 8.89482 42.7629 8.07861C42.568 7.63316 42.2397 7.29289 41.8098 7.05912C41.4322 6.85363 41.0252 6.78823 40.6009 6.81386C39.8542 6.85893 39.2914 7.2213 38.8843 7.83644C38.5864 8.28631 38.483 8.79451 38.4799 9.3279V9.32834Z" fill="#11163D"/>
<path d="M76.4665 8.18025C76.3178 7.25975 75.9728 6.4316 75.3677 5.7188C74.8823 5.14298 74.2728 4.76029 73.5595 4.53756C72.9254 4.34003 72.2746 4.28965 71.6171 4.33384C70.9601 4.37803 70.3361 4.55436 69.7566 4.87386C69.3337 5.10498 68.957 5.39311 68.616 5.7294C68.0699 6.27163 67.6509 6.89826 67.4001 7.62742C67.1031 8.49136 67.0401 9.38225 67.1972 10.2798C67.4085 11.4968 67.9779 12.5521 68.9513 13.3025C69.7865 13.9499 70.7221 14.2968 71.8354 14.2968C72.6138 14.2968 73.0891 14.2066 73.6207 14.0086C74.4621 13.6936 75.1529 13.1407 75.7202 12.3988C76.0405 11.9825 76.3103 11.4676 76.4757 10.9528H73.6084C73.284 11.4486 72.859 11.7156 72.2416 11.7871C71.9568 11.8207 71.6158 11.8145 71.3478 11.7452C70.8937 11.6316 70.4563 11.3815 70.1927 11.0328C69.9665 10.7323 69.8706 10.4464 69.8222 10.0933H76.5343C76.5382 10.0115 76.547 9.94392 76.5488 9.87896C76.5717 9.30934 76.5593 8.74413 76.4669 8.18069L76.4665 8.18025ZM69.9093 8.24742C69.9221 8.15285 69.9573 8.06889 69.9929 7.98669C70.2147 7.47584 70.5496 7.0684 71.0539 6.82225C71.4807 6.61411 71.9309 6.58053 72.3934 6.66272C73.1467 6.79706 73.7223 7.41309 73.8482 8.14888C73.8544 8.17627 73.861 8.20544 73.8693 8.24786H69.9093V8.24742Z" fill="#11163D"/>
<path d="M31.5918 2.99794H27.4139V0.554601H38.7184V2.9944H34.5454V14.0953H31.5918V2.9975V2.99794Z" fill="#11163D"/>
<path d="M87.4014 4.54331C85.0554 9.03889 82.4908 13.5172 80.1519 18H77.1525C78.1589 16.1404 80.0481 12.6493 80.0481 12.6493L76.1197 4.5464H79.241L81.6794 9.50113L84.3043 4.54331H87.4014Z" fill="#11163D"/>
</g>
<defs>
<clipPath id="clip0_5_4239">
<rect width="88" height="18" fill="white"/>
</clipPath>
</defs>
</svg>
