<?xml version="1.0" encoding="UTF-8" standalone="no"?>
<svg
   xmlns:dc="http://purl.org/dc/elements/1.1/"
   xmlns:cc="http://creativecommons.org/ns#"
   xmlns:rdf="http://www.w3.org/1999/02/22-rdf-syntax-ns#"
   xmlns:svg="http://www.w3.org/2000/svg"
   xmlns="http://www.w3.org/2000/svg"
   xmlns:sodipodi="http://sodipodi.sourceforge.net/DTD/sodipodi-0.dtd"
   xmlns:inkscape="http://www.inkscape.org/namespaces/inkscape"
   width="151.28127"
   height="29.468748"
   viewBox="0 0 40.026501 7.7969398"
   version="1.1"
   id="svg16"
   inkscape:version="1.0.1 (c497b03c, 2020-09-10)"
   sodipodi:docname="sectra.svg">
  <defs
     id="defs10">
    <clipPath
       id="clip8">
      <path
         d="M 425.87109,757.78125 H 445 V 780 h -19.12891 z m 0,0"
         id="path190" />
    </clipPath>
    <clipPath
       id="clip9">
      <path
         d="m 446,757.78125 h 14 V 779 h -14 z m 0,0"
         id="path193" />
    </clipPath>
    <clipPath
       id="clip10">
      <path
         d="m 461,757.78125 h 20 V 780 h -20 z m 0,0"
         id="path196" />
    </clipPath>
    <clipPath
       id="clip12">
      <path
         d="m 499,757.78125 h 19 V 779 h -19 z m 0,0"
         id="path202" />
    </clipPath>
    <clipPath
       id="clip13">
      <path
         d="m 518,757.78125 h 20.58203 V 779 H 518 Z m 0,0"
         id="path205" />
    </clipPath>
  </defs>
  <sodipodi:namedview
     id="base"
     pagecolor="#00ffff"
     bordercolor="#666666"
     borderopacity="1.0"
     inkscape:pageopacity="0"
     inkscape:pageshadow="2"
     inkscape:zoom="0.35"
     inkscape:cx="215.64062"
     inkscape:cy="-159.55134"
     inkscape:document-units="px"
     inkscape:current-layer="layer1"
     inkscape:document-rotation="0"
     showgrid="false"
     units="px"
     fit-margin-top="0.5"
     lock-margins="true"
     fit-margin-left="0.5"
     fit-margin-right="0.5"
     fit-margin-bottom="0.5"
     inkscape:window-width="1440"
     inkscape:window-height="872"
     inkscape:window-x="0"
     inkscape:window-y="28"
     inkscape:window-maximized="0" />
  <metadata
     id="metadata13">
    <rdf:RDF>
      <cc:Work
         rdf:about="">
        <dc:format>image/svg+xml</dc:format>
        <dc:type
           rdf:resource="http://purl.org/dc/dcmitype/StillImage" />
        <dc:title></dc:title>
      </cc:Work>
    </rdf:RDF>
  </metadata>
  <g
     inkscape:label="Layer 1"
     inkscape:groupmode="layer"
     id="layer1"
     transform="translate(-48.778419,-190.38129)">
    <g
       id="g1253"
       transform="translate(-130.95389,-29.612269)">
      <g
         clip-path="url(#clip8)"
         clip-rule="nonzero"
         id="g247"
         transform="matrix(0.35277779,0,0,0.35277779,29.626739,-47.202541)">
        <path
           style="fill:#9c9c9c;fill-opacity:1;fill-rule:nonzero;stroke:none"
           d="m 431.01562,779.13281 c -1.68359,0 -2.96093,-0.33594 -3.83593,-1.00781 -0.8711,-0.67188 -1.3086,-1.65625 -1.3086,-2.95703 v -3.81641 h 8.41407 v 1.48438 c 0,0.52343 0.0781,0.90625 0.23828,1.14062 0.16015,0.23828 0.42187,0.35547 0.77343,0.35547 0.36329,0 0.62891,-0.12891 0.79297,-0.37891 0.16407,-0.2539 0.2461,-0.67187 0.2461,-1.25781 0,-0.65625 -0.0781,-1.11719 -0.23438,-1.3789 -0.15625,-0.26172 -0.54687,-0.51954 -1.17187,-0.77344 l -5.70313,-2.30469 c -1.30859,-0.53516 -2.19531,-1.10937 -2.66015,-1.72656 -0.46485,-0.61719 -0.69532,-1.46094 -0.69532,-2.53516 v -2.2539 c 0,-1.29297 0.4375,-2.27344 1.3086,-2.9375 0.875,-0.66797 2.15234,-1.00391 3.83593,-1.00391 h 8.48829 c 1.68359,0 2.95703,0.33594 3.82812,1.00391 0.87109,0.66406 1.30469,1.64453 1.30469,2.9375 v 2.49609 h -8.35156 v -0.26563 c 0,-0.46484 -0.0899,-0.8164 -0.27344,-1.05859 -0.17969,-0.23828 -0.44141,-0.35937 -0.78906,-0.35937 -0.29688,0 -0.53516,0.0937 -0.71875,0.27734 -0.17969,0.1875 -0.26954,0.4375 -0.26954,0.74609 0,0.30469 0.082,0.55469 0.2461,0.74219 0.16406,0.19141 0.57422,0.42188 1.23437,0.69141 l 6.64063,2.80078 c 0.84375,0.36328 1.4375,0.87109 1.77344,1.52734 0.33984,0.65235 0.50781,1.64453 0.50781,2.96875 v 2.33203 c 0,1.54688 -0.41797,2.6836 -1.25,3.41797 -0.83203,0.73047 -2.125,1.09375 -3.88281,1.09375 z m 0,0"
           id="path245" />
      </g>
      <g
         clip-path="url(#clip9)"
         clip-rule="nonzero"
         id="g251"
         transform="matrix(0.35277779,0,0,0.35277779,29.626739,-47.202541)">
        <path
           style="fill:#9c9c9c;fill-opacity:1;fill-rule:nonzero;stroke:none"
           d="m 446.41016,778.98047 v -21.07031 h 13.28125 v 4.80078 h -5.05469 v 2.30859 h 5.05469 v 4.80078 h -5.05469 v 4.35938 h 5.05469 v 4.80078 z m 0,0"
           id="path249" />
      </g>
      <g
         clip-path="url(#clip10)"
         clip-rule="nonzero"
         id="g255"
         transform="matrix(0.35277779,0,0,0.35277779,29.626739,-47.202541)">
        <path
           style="fill:#9c9c9c;fill-opacity:1;fill-rule:nonzero;stroke:none"
           d="m 480.21875,770.39062 v 4.20704 c 0,1.61328 -0.40625,2.77343 -1.21094,3.47656 -0.80469,0.70703 -2.13672,1.05859 -3.99609,1.05859 h -8.59375 c -1.73047,0 -2.9961,-0.36328 -3.80078,-1.09375 -0.80078,-0.73437 -1.20313,-1.8789 -1.20313,-3.4414 V 762.8125 c 0,-1.83984 0.375,-3.14063 1.1211,-3.89453 0.74609,-0.75781 2.04296,-1.13672 3.88281,-1.13672 h 8.59375 c 1.95703,0 3.3164,0.375 4.07422,1.11719 0.7539,0.74218 1.13281,2.04687 1.13281,3.91406 v 2.77344 h -8.35156 v -1.53125 c 0,-0.55078 -0.082,-0.9375 -0.2461,-1.17188 -0.16406,-0.23047 -0.4375,-0.34765 -0.8164,-0.34765 -0.36328,0 -0.62891,0.12109 -0.79297,0.35937 -0.16406,0.24219 -0.2461,0.62891 -0.2461,1.16016 v 8.78125 c 0,0.53125 0.082,0.91797 0.2461,1.16015 0.16406,0.24219 0.42969,0.35938 0.79297,0.35938 0.36328,0 0.6289,-0.1211 0.80468,-0.36719 0.17188,-0.24609 0.25782,-0.62891 0.25782,-1.15234 v -2.44532 z m 0,0"
           id="path253" />
      </g>
      <path
         style="clip-rule:nonzero;fill:#9c9c9c;fill-opacity:1;fill-rule:nonzero;stroke:none;stroke-width:0.352778"
         d="m 200.90587,227.60447 v -5.73953 h -1.4938 v -1.69361 h 5.86907 v 1.69361 h -1.49242 v 5.73953 z m 0,0"
         id="path257" />
      <g
         clip-path="url(#clip12)"
         clip-rule="nonzero"
         id="g263"
         transform="matrix(0.35277779,0,0,0.35277779,29.626739,-47.202541)">
        <path
           style="fill:#9c9c9c;fill-opacity:1;fill-rule:nonzero;stroke:none"
           d="m 507.375,762.71094 v 2.98047 h 0.91016 c 0.42968,0 0.73828,-0.11329 0.91796,-0.33204 0.1836,-0.21875 0.27344,-0.60156 0.27344,-1.14062 0,-0.56641 -0.0898,-0.95703 -0.26562,-1.17578 -0.17578,-0.22266 -0.48828,-0.33203 -0.92578,-0.33203 z m 2.10156,16.26953 v -7.1836 c 0,-0.55859 -0.0898,-0.94921 -0.26562,-1.17187 -0.17578,-0.22266 -0.48828,-0.33594 -0.92578,-0.33594 H 507.375 v 8.69141 h -8.22656 v -21.07031 h 13.33203 c 1.91015,0 3.27344,0.38671 4.09375,1.16406 0.8164,0.77734 1.22656,2.05859 1.22656,3.83984 0,1.41797 -0.26172,2.5 -0.78516,3.23828 -0.52343,0.73828 -1.39453,1.26172 -2.60937,1.5625 1.21484,0.28907 2.08984,0.88282 2.62109,1.78907 0.53516,0.90234 0.80078,2.2539 0.80078,4.05468 v 5.42188 z m 0,0"
           id="path261" />
      </g>
      <g
         clip-path="url(#clip13)"
         clip-rule="nonzero"
         id="g267"
         transform="matrix(0.35277779,0,0,0.35277779,29.626739,-47.202541)">
        <path
           style="fill:#9c9c9c;fill-opacity:1;fill-rule:nonzero;stroke:none"
           d="m 527.54687,769.76953 h 1.73438 l -0.84766,-7.16016 z m -9.26171,9.21094 3.71093,-21.07031 h 12.875 l 3.71094,21.07031 h -8.51562 l -0.46875,-4.5625 h -2.35547 l -0.46875,4.5625 z m 0,0"
           id="path265" />
      </g>
    </g>
  </g>
</svg>
