<svg version="1.2" xmlns="http://www.w3.org/2000/svg" viewBox="0 0 1547 1538" width="1547" height="1538">
	<title>ELUX-A</title>
	<style>
		.s0 { fill: #041e41 } 
	</style>
	<g id="Clip-Path: Clip-Path: Page 1">
		<g id="Clip-Path: Page 1">
			<g id="Page 1">
				<path id="Path 3" fill-rule="evenodd" class="s0" d="m0.2 0.4h1546.1v1536.9h-1546.1zm84.7 732.5l147 2.4c349.6 0 687.1-286.6 687.1-635.9-43.1-9.8-96.5-14.3-144.5-14.3-368.8 0-665.6 291.5-689.6 647.8zm906.6 689.2c279.6-96.5 472.6-351.7 470.2-653 0-303.3-197.5-561.4-470.2-650.6zm-906.6-614.3c14.2 356.6 320.8 650.5 689.6 650.5 46 0 101.4-7.3 144.5-16.7 0-346.8-337.5-633.8-687.1-633.8z"/>
			</g>
		</g>
	</g>
</svg>