<svg version="1.2" xmlns="http://www.w3.org/2000/svg" viewBox="0 0 1557 428" width="1557" height="428">
	<title>interim-report-q1-2023-presentation-1-pdf-svg</title>
	<defs>
		<clipPath clipPathUnits="userSpaceOnUse" id="cp1">
			<path d="m-354.53-355.07h11374.55v6391.23h-11374.55z"/>
		</clipPath>
	</defs>
	<style>
		.s0 { fill: #041e41 } 
	</style>
	<g id="Clip-Path: Page 1" clip-path="url(#cp1)">
		<g id="Page 1">
			<path id="Path 3" fill-rule="evenodd" class="s0" d="m0.3 0.6h379.8v377.5h-379.8zm20.8 179.9l36.1 0.6c85.9 0 168.8-70.4 168.8-156.2-10.6-2.4-23.7-3.5-35.5-3.5-90.6 0-163.5 71.6-169.4 159.1zm222.7 169.3c68.7-23.7 116.1-86.4 115.5-160.4 0-74.5-48.5-137.9-115.5-159.8zm-222.7-150.9c3.5 87.6 78.8 159.8 169.4 159.8 11.3 0 24.9-1.8 35.5-4.1 0-85.2-82.9-155.7-168.8-155.7zm468-197h108.4v27.8h-77v41.4h71.7v28.4h-71.7v21.9c0 21.3 15.4 26.1 24.9 26.1h53.9v28.4h-55.7c-36.7 0-54.5-20.2-54.5-55.7zm132.1 0h30.2v174h-30.2zm47.4 110.7c0-40.3 28.5-66.3 66.4-66.3 37.9 0 62.2 28.4 62.2 63.3 0 0 0 5.9 0 10.7h-98.4c0.6 20.1 15.4 33.1 38 33.1 15.4 0 24.2-5.3 34.3-14.8l17.8 17.8c-16.6 17.1-34.4 22.5-53.3 22.5-39.7 0-67-25.5-67-65.1 0 0 0-0.6 0-1.2zm98.4-13c0-15.4-14.3-27.9-32-27.9-19 0-34.4 12.5-35.6 27.9zm110.2-53.3c18.4 0 36.2 5.9 50.4 21.3l-18.4 19.5c-8.9-8.8-18.4-14.2-32-14.2-22.5 0-39.1 17.2-39.1 39.7 0 22.5 16.6 39.6 39.1 39.6 13.6 0 23.1-5.3 32-13.6l18.4 19c-14.2 15.3-32 21.9-50.4 21.9-38.5 0-68.7-28.5-68.7-66.9 0-38.5 30.2-66.3 68.7-66.3zm64.6-44.4h30.2v48h27.9v27.2h-27.9v43.8c0 19.5 10.1 27.2 26.1 27.2h1.8v28.4h-6.6c-20.7 0-51.5-10.7-51.5-53.3zm72.3 48h30.2v18.9c5.9-13 19.5-21.3 37.3-21.3 3.6 0 7.7 0.6 8.9 0.6v29q-5.3-1.2-12.4-1.2c-20.8 0-33.8 13-33.8 33.7v66.3h-30.2zm149.6 129c-38.2 0-69.1-29.7-69.1-66.6 0-36.8 30.9-66.5 69.1-66.5 38.1 0 69 29.7 69 66.5 0 36.9-30.9 66.6-69 66.6zm38.8-66.6c0-21.7-17.5-39.3-39.1-39.3-21.7 0-39.1 17.6-39.1 39.3 0 21.8 17.4 39.4 39.1 39.4 21.6 0 39.1-17.6 39.1-39.4zm47.4-110.9h30.2v174h-30.2zm51.5 47.9h30.2v73.4c0 20.1 11.9 28.4 27.3 28.4 16 0 27.8-8.3 27.8-28.4v-73.4h30.2v75.2c0 36.7-26.6 53.8-58 53.8-31.4 0-57.5-17.1-57.5-52.7zm173.6 59.2l-43.9-59.2h32.6l27.9 37.3 27.2-37.3h33.2l-43.8 59.2 47.9 66.3h-32.5l-32-44.4-32 44.4h-32.6zm-901.1 93.5c25.5 0 48 9.5 65.2 26l-20.8 19c-11.2-11.3-27.2-17.2-44.4-17.2-34.9 0-61.6 26.7-61.6 62.2 0 34.9 26.7 61.5 61.6 61.5 16.6 0 31.4-5.3 42.1-14.8v-31.9h-48.6v-27.9h78.2v69.9c-16.6 20.1-42.1 33.1-71.7 33.1-51.5 0-93-38.5-93-89.9 0-52.1 41.5-90 93-90zm93.6 50.9h30.2v18.9c6-13 19.6-21.3 37.4-21.3 3.5 0 8.2 0.6 9.4 0.6v29q-5.3-1.2-13-1.2c-20.7 0-33.8 13.1-33.8 33.8v65.7h-30.2z"/>
			<path id="Path 4" fill-rule="evenodd" class="s0" d="m817 382.9c-38.2 0-69-29.8-69-66.6 0-36.8 30.8-66.6 69-66.6 38.2 0 69 29.8 69 66.6 0 36.8-30.8 66.6-69 66.6zm38.8-66.9c0-21.9-17.5-39.6-39.1-39.6-21.6 0-39.1 17.7-39.1 39.6 0 21.9 17.5 39.7 39.1 39.7 21.6 0 39.1-17.8 39.1-39.7zm46.2-62.7h30.2v73.4c0 19.5 11.9 27.8 27.3 27.8 16 0 27.8-8.3 27.8-28.4v-72.8h30.2v75.1c0 36.1-26.6 53.9-58 53.9-31.4 0-57.5-17.2-57.5-53.3zm136.9 0h30.2v18.4c4.1-11.9 18.9-21.3 40.2-21.3 35.6 0 63.4 28.4 63.4 65.7 0 37.2-27.8 65.6-63.4 65.6-21.3 0-36.1-9.4-40.2-20.7v66.3h-30.2zm103.6 62.7c0-21.2-16.9-38.4-37.9-38.4-21 0-37.9 17.2-37.9 38.4 0 21.3 16.9 38.5 37.9 38.5 21 0 37.9-17.2 37.9-38.5z"/>
		</g>
	</g>
</svg>