<svg width="199" height="40" viewBox="0 0 199 40" fill="none" xmlns="http://www.w3.org/2000/svg">
<path d="M36.134 16.1722L50.1345 16.1859L31.822 32.8178L31.8024 21.6307L0 32.8178L36.136 0" fill="#2A44A9"/>
<path d="M68.5707 16.2094H81.1742V31.3916H76.1266L75.6961 28.0265C75.1229 28.8345 74.4577 29.5271 73.7005 30.1003C72.9434 30.6736 72.063 31.1118 71.0593 31.4112C70.0556 31.7105 68.9013 31.8612 67.5964 31.8612C64.9884 31.8612 62.7189 31.2801 60.7878 30.1199C58.8568 28.9597 57.3503 27.328 56.2684 25.2287C55.1865 23.1294 54.6445 20.6839 54.6445 17.892C54.6445 15.1001 55.1982 12.5899 56.3075 10.4378C57.4168 8.28571 59.0075 6.59728 61.0813 5.37057C63.1552 4.14387 65.6262 3.53149 68.4963 3.53149C71.7304 3.53149 74.4107 4.30821 76.5374 5.85969C78.6641 7.41117 80.0395 9.55742 80.6656 12.2965H74.5614C74.1701 11.1226 73.4599 10.2089 72.4288 9.55742C71.3978 8.90591 70.0752 8.57918 68.4572 8.57918C66.6827 8.57918 65.184 8.95678 63.9573 9.71393C62.7306 10.4711 61.8052 11.5471 61.1791 12.9421C60.5531 14.3371 60.24 16.0001 60.24 17.9311C60.24 19.8621 60.5589 21.5056 61.1987 22.8614C61.8385 24.2172 62.7502 25.2483 63.9378 25.9526C65.1253 26.6569 66.5262 27.0091 68.1442 27.0091C70.4919 27.0091 72.2723 26.3772 73.4853 25.1113C74.6983 23.8455 75.4222 22.2353 75.657 20.2789H68.5707V16.2094Z" fill="#2A44A9"/>
<path d="M84.7188 31.3919V3.21875H90.1969V31.3919H84.7188Z" fill="#2A44A9"/>
<path d="M96.3964 9.12762C95.4044 9.12762 94.5964 8.83415 93.9704 8.24721C93.3443 7.66027 93.0312 6.93637 93.0312 6.07553C93.0312 5.21468 93.3443 4.45753 93.9704 3.88428C94.5964 3.31104 95.4044 3.02344 96.3964 3.02344C97.3883 3.02344 98.1963 3.31104 98.8224 3.88428C99.4485 4.45753 99.7615 5.18925 99.7615 6.07553C99.7615 6.96181 99.4485 7.66027 98.8224 8.24721C98.1963 8.83415 97.3883 9.12762 96.3964 9.12762ZM93.6573 31.3922V11.671H99.1354V31.3922H93.6573Z" fill="#2A44A9"/>
<path d="M102.594 31.3919V11.6707H107.407L107.837 14.2924C108.463 13.3533 109.291 12.604 110.322 12.0425C111.353 11.4809 112.546 11.2012 113.902 11.2012C114.867 11.2012 115.741 11.3323 116.524 11.5925C117.306 11.8527 118.005 12.2322 118.617 12.7272C119.23 13.2222 119.732 13.8365 120.124 14.5663C120.881 13.5235 121.845 12.7018 123.019 12.1011C124.193 11.5005 125.471 11.2012 126.854 11.2012C128.576 11.2012 130.01 11.5475 131.158 12.2381C132.307 12.9287 133.173 13.9344 133.76 15.2511C134.347 16.5678 134.641 18.1799 134.641 20.0835V31.3919H129.202V20.5531C129.202 19.0407 128.902 17.8727 128.302 17.051C127.701 16.2293 126.776 15.8184 125.524 15.8184C124.688 15.8184 123.958 16.02 123.332 16.4249C122.706 16.8299 122.217 17.409 121.865 18.1662C121.513 18.9234 121.337 19.8351 121.337 20.9053V31.3919H115.898V20.5531C115.898 19.0407 115.598 17.8727 114.998 17.051C114.397 16.2293 113.446 15.8184 112.141 15.8184C111.359 15.8184 110.654 16.02 110.028 16.4249C109.402 16.8299 108.919 17.409 108.581 18.1662C108.242 18.9234 108.072 19.8351 108.072 20.9053V31.3919H102.594Z" fill="#2A44A9"/>
<path d="M137.473 40.0004V11.6707H142.325L142.951 14.3315C143.342 13.7837 143.825 13.2692 144.399 12.7859C144.972 12.3027 145.657 11.9192 146.453 11.6316C147.249 11.344 148.169 11.2012 149.211 11.2012C151.037 11.2012 152.661 11.657 154.083 12.5707C155.505 13.4844 156.621 14.7169 157.429 16.2684C158.237 17.8199 158.642 19.5886 158.642 21.5705C158.642 23.5524 158.225 25.321 157.389 26.8725C156.554 28.424 155.433 29.6448 154.024 30.5311C152.616 31.4174 151.025 31.8615 149.251 31.8615C147.817 31.8615 146.57 31.6013 145.514 31.0789C144.457 30.5565 143.602 29.8267 142.951 28.8876V40.0004H137.473ZM147.92 27.0877C148.912 27.0877 149.798 26.8529 150.581 26.3834C151.364 25.9138 151.976 25.2623 152.42 24.4269C152.864 23.5915 153.085 22.6406 153.085 21.5705C153.085 20.5003 152.864 19.5103 152.42 18.6749C151.976 17.8395 151.364 17.1821 150.581 16.6988C149.798 16.2156 148.912 15.975 147.92 15.975C146.928 15.975 146.009 16.2156 145.24 16.6988C144.471 17.1821 143.864 17.8395 143.42 18.6749C142.976 19.5103 142.755 20.4611 142.755 21.5313C142.755 22.6015 142.976 23.5915 143.42 24.4269C143.864 25.2623 144.471 25.9138 145.24 26.3834C146.009 26.8529 146.903 27.0877 147.92 27.0877Z" fill="#2A44A9"/>
<path d="M169.133 31.8615C167.308 31.8615 165.729 31.568 164.398 30.9811C163.068 30.3941 162.025 29.5978 161.268 28.5942C160.511 27.5905 160.069 26.4479 159.938 25.1704H165.416C165.519 25.6399 165.723 26.0645 166.022 26.4421C166.321 26.8197 166.726 27.1268 167.235 27.3616C167.744 27.5964 168.35 27.7138 169.055 27.7138C169.759 27.7138 170.287 27.6159 170.718 27.4203C171.148 27.2246 171.473 26.9703 171.696 26.6573C171.917 26.3442 172.028 26.0058 172.028 25.6399C172.028 25.1175 171.872 24.7145 171.559 24.4269C171.246 24.1393 170.788 23.9045 170.189 23.7226C169.589 23.5406 168.873 23.3704 168.037 23.2139C167.098 23.0045 166.179 22.7698 165.279 22.5096C164.379 22.2494 163.571 21.9031 162.853 21.4726C162.135 21.0422 161.567 20.5003 161.151 19.8488C160.734 19.1973 160.524 18.3873 160.524 17.4227C160.524 16.2489 160.843 15.1924 161.483 14.2533C162.123 13.3142 163.048 12.5707 164.261 12.0229C165.474 11.4751 166.928 11.2012 168.624 11.2012C171.025 11.2012 172.923 11.7431 174.318 12.825C175.713 13.907 176.542 15.3743 176.802 17.2271H171.637C171.506 16.6539 171.181 16.2097 170.659 15.8967C170.137 15.5837 169.446 15.4271 168.585 15.4271C167.724 15.4271 167.014 15.5837 166.531 15.8967C166.048 16.2097 165.807 16.6265 165.807 17.1488C165.807 17.4873 165.963 17.7945 166.276 18.0684C166.589 18.3423 167.039 18.5771 167.626 18.7727C168.213 18.9684 168.937 19.1581 169.798 19.3401C171.338 19.6531 172.68 20.0111 173.828 20.4161C174.977 20.8211 175.875 21.3944 176.528 22.1378C177.18 22.8813 177.507 23.9573 177.507 25.366C177.532 26.6181 177.199 27.7392 176.509 28.7311C175.818 29.7231 174.846 30.492 173.594 31.0398C172.342 31.5876 170.855 31.8615 169.133 31.8615Z" fill="#2A44A9"/>
<path d="M188.935 31.8615C186.953 31.8615 185.198 31.4369 183.672 30.5898C182.146 29.7426 180.953 28.555 180.092 27.029C179.231 25.503 178.801 23.7363 178.801 21.727C178.801 19.7177 179.225 17.8864 180.072 16.3076C180.92 14.7287 182.107 13.4844 183.633 12.5707C185.159 11.657 186.94 11.2012 188.974 11.2012C191.009 11.2012 192.647 11.6316 194.12 12.4924C195.593 13.3533 196.742 14.5135 197.563 15.975C198.385 17.4364 198.796 19.119 198.796 21.0226C198.796 21.2829 198.788 21.5705 198.776 21.8835C198.763 22.1965 198.731 22.535 198.678 22.9009H182.714V19.5749H193.24C193.161 18.3755 192.725 17.4169 191.929 16.6988C191.132 15.9808 190.148 15.6228 188.974 15.6228C188.088 15.6228 187.278 15.8321 186.548 16.2489C185.819 16.6656 185.243 17.2799 184.827 18.0879C184.41 18.896 184.201 19.927 184.201 21.1792V22.3139C184.201 23.3313 184.396 24.2254 184.788 24.9943C185.179 25.7632 185.727 26.3579 186.431 26.7747C187.135 27.1914 187.957 27.4007 188.896 27.4007C189.835 27.4007 190.612 27.2051 191.224 26.8138C191.837 26.4225 192.3 25.9138 192.613 25.2877H198.209C197.843 26.5145 197.223 27.6218 196.35 28.6137C195.476 29.6057 194.413 30.3941 193.161 30.9811C191.909 31.568 190.5 31.8615 188.935 31.8615Z" fill="#2A44A9"/>
</svg>
