<svg width="1063" height="306" viewbox="0 0 1063 306" fill="none" xmlns="http://www.w3.org/2000/svg" class="astro-b56op3of"> <g clip-path="url(#clip0_405_16)" class="astro-b56op3of"> <path d="M969.5 180C963.5 180 963.5 183.5 964.645 188.142C969.538 207.978 982.019 220 1002.32 220C1017.8 220 1032.19 213.252 1035.83 196.811C1035.93 196.344 1036.34 196 1036.82 196H1062.88C1063.48 196 1063.94 196.528 1063.86 197.119C1059.77 227.462 1029.88 242 1002.06 242C963.35 242 936 213.599 936 174.485C936 136.514 964.58 108 1001.94 108C1037.21 108 1064 133.657 1064 169.846C1064 173.907 1064 177.47 1063.66 179.309C1063.58 179.729 1063.2 180 1062.77 180H969.5ZM964.645 151C960.5 160 965.5 160.5 973.161 160H1030C1036.5 160 1038.5 158 1035 149.5C1028.96 134.83 1016.78 130.162 1002.06 130.162C986.447 130.162 971.648 135.795 964.645 151Z" fill="black" class="astro-b56op3of"></path> <path d="M784 174.829C784 136.043 811.055 108 849.658 108C861.729 108 873.754 110.679 883 119C887.5 123.05 891 119.745 891 116.5V110.99C891 110.437 891.448 109.99 892 109.99H918C918.552 109.99 919 110.437 919 110.99V249.441C919 281.289 893.053 305 852 305C813.086 305 786.141 283.424 784.124 259.053C784.077 258.482 784.534 258 785.107 258H811.094C811.568 258 811.975 258.334 812.088 258.795C815.139 271.212 829.324 281 852 281C873.842 281 891 269.019 891 249.18V234C891 228.891 886.81 227.5 882.631 230.954C873.121 238.817 861.236 242 849.131 242C811.052 242 784 212.836 784 174.829ZM893.474 174.829C893.474 150.414 878.057 130 853.21 130C828.413 130 812 150.364 812 174.942C812 199.695 828.217 220 853.21 220C878.089 220 893.474 199.174 893.474 174.829Z" fill="black" class="astro-b56op3of"></path> <path d="M691.756 242C661.908 242 644 227.054 644 204.119C644 180.669 664.504 166.496 692.534 163.146L729.13 158.765C735.5 158 736.137 156.188 736.137 152.323C736.137 134.321 720.114 130 705.381 130C690.699 130 674.718 134.011 672.893 151.132C672.838 151.653 672.404 152.065 671.881 152.065H646.106C645.528 152.065 645.07 151.565 645.12 150.989C647.836 119.65 677.716 108 705.381 108C734.649 108 764 122.116 764 155.509V207.048C763.515 216.69 764.908 216.052 775 216.003C775.552 216 776 216.448 776 217V239.023C776 239.576 775.552 240.023 775 240.023H761.313C749.633 240.023 744.114 236.473 741 229C739.658 225.78 736 224.863 733.5 227.5C725.194 236.262 708.885 242 691.756 242ZM695.5 220C717.82 220 735.878 209.015 735.878 186.596L736 184.5C736 180.5 733.5 179.5 727.5 180L696.946 183.504C682.931 185.565 672.03 190.977 672.03 203.346C672.03 213.912 682.5 220 695.5 220Z" fill="black" class="astro-b56op3of"></path> <path d="M614.952 134C597.833 134 589 152.6 589 167.445V239C589 239.552 588.552 240 588 240H562C561.448 240 561 239.552 561 239V111C561 110.448 561.448 110 562 110H588C588.552 110 589 110.448 589 111V117C589 121 594 122.5 596.5 119C600.963 112.753 608.162 110 617.5 110H635.956C636.508 110 636.955 110.447 636.956 110.998L636.998 132.998C636.999 133.551 636.551 134 635.998 134H614.952Z" fill="black" class="astro-b56op3of"></path> <path d="M514 240C513.448 240 513 239.552 513 239V111C513 110.448 513.448 110 514 110H540C540.552 110 541 110.448 541 111V239C541 239.552 540.552 240 540 240H514ZM514 91C513.448 91 513 90.5523 513 90V68C513 67.4478 513.448 67 514 67H540C540.552 67 541 67.4478 541 68V90C541 90.5523 540.552 91 540 91H514Z" fill="black" class="astro-b56op3of"></path> <path d="M294 240C293.448 240 293 239.552 293 239V68C293 67.4477 293.448 67 294 67H333.874C334.274 67 334.635 67.238 334.793 67.6051L388 191.4C390.5 197.5 395.5 197.5 397.5 191.5L451.73 67.599C451.889 67.2351 452.249 67 452.646 67H492C492.552 67 493 67.4477 493 68V239C493 239.552 492.552 240 492 240H466.013C465.461 240 465.013 239.552 465.013 239V122C465.013 118 459.5 116 457 121L404.55 239.405C404.389 239.767 404.031 240 403.635 240H382.102C381.707 240 381.348 239.767 381.188 239.405L329 121.5C327 116 321 117.5 321 123.029V239C321 239.552 320.552 240 320 240H294Z" fill="black" class="astro-b56op3of"></path> <path d="M1.50213 153C1.48714 152.804 1.47685 152.607 1.47246 152.408C0.941217 129.927 50.9466 121.607 72.2093 120.22C72.578 120.196 72.5921 119.58 72.2264 119.526C45.4452 115.632 27.6459 108.738 27.6459 100.881C27.6466 91.3409 53.8957 83.2188 90.6035 80.1649C90.9689 80.1345 90.9787 79.5669 90.6148 79.523C73.4543 77.4619 62.0472 73.8105 62.0472 69.6502C62.0482 63.216 89.3324 58 122.989 58H123.011C156.667 58 183.951 63.2159 183.952 69.6502C183.952 73.8105 172.545 77.462 155.385 79.523C155.021 79.567 155.031 80.1344 155.396 80.1649C192.104 83.2187 218.353 91.3409 218.354 100.881C218.354 108.738 200.554 115.632 173.773 119.526C173.408 119.58 173.422 120.196 173.79 120.22C195.053 121.607 245.058 129.927 244.527 152.408C244.523 152.607 244.512 152.804 244.497 153C244.512 153.196 244.523 153.393 244.527 153.592C245.058 176.073 195.053 184.393 173.79 185.78C173.422 185.804 173.408 186.42 173.773 186.474C200.554 190.368 218.354 197.262 218.354 205.119C218.353 214.659 192.104 222.781 155.396 225.835C155.031 225.866 155.021 226.433 155.385 226.477C172.545 228.538 183.952 232.189 183.952 236.35C183.951 242.784 156.667 248 123.011 248H122.989C89.3324 248 62.0482 242.784 62.0472 236.35C62.0472 232.19 73.4543 228.538 90.6148 226.477C90.9787 226.433 90.9689 225.865 90.6035 225.835C53.8957 222.781 27.6466 214.659 27.6459 205.119C27.6459 197.262 45.4452 190.368 72.2264 186.474C72.5921 186.42 72.578 185.804 72.2093 185.78C50.9466 184.393 0.941217 176.073 1.47246 153.592C1.47685 153.393 1.48714 153.196 1.50213 153Z" fill="black" class="astro-b56op3of"></path> </g> <defs class="astro-b56op3of"> <clippath id="clip0_405_16" class="astro-b56op3of"> <rect width="1063" height="306" fill="white" class="astro-b56op3of"></rect> </clippath> </defs> </svg>