<?xml version="1.0" encoding="UTF-8"?><svg id="Artwork" xmlns="http://www.w3.org/2000/svg" viewBox="0 0 113.54 30.41"><defs><style>.cls-1{fill:#2dbad7;}.cls-2{fill:#002776;}</style></defs><path class="cls-2" d="M88.64,1.15c.16-.14-11.29,17.96-11.34,17.92v10.22c.05,.14-9.56,.14-9.51,0v-10.22S56.29,1.01,56.45,1.15c-.16-.14,10.13-.14,10.19,0-.06-.14,5.91,9.28,5.91,9.33,0-.05,5.97-9.47,5.91-9.33,.06-.14,10.35-.14,10.19,0"/><path class="cls-2" d="M51.24,1.15c.05-.14-9.84-.14-9.79,0-.05-.14-11.42,28.29-11.26,28.14-.16,.14,9.53,.14,9.63,0,.03-.12,1.34-3.87,1.39-3.97-.05,.1,10.01,.1,9.96,0,.05,.1,1.28,3.85,1.31,3.97,.09,.14,10.03,.14,9.87,0,.16,.14-11.05-28.28-11.1-28.14Zm-7.66,17.37s2.76-7.92,2.76-7.88c0-.04,2.62,7.92,2.59,7.88,.03,.04-5.38,.04-5.35,0Z"/><path class="cls-2" d="M103.08,10.97c-3.06-.51-6.08-.35-6.32-1.62-.25-1.17,1.35-1.44,2.55-1.38,2.5-.11,6.08,.99,8.17,1.79,.01-.02,4.07-6.35,4.07-6.35-3.48-1.85-8.77-2.97-13.8-2.6-6.55,.49-10.48,4.54-10.25,9.26,.02,6.06,5.98,7.84,8.89,8.33,4.25,.82,7.54,.46,7.41,2.07-.02,1.1-2.06,1.46-4.24,1.32-2.47,0-5.87-.72-8.96-2.63l-4.24,6.59c4.88,3.45,10.73,4.21,15.35,3.87,6.15-.56,10.85-3.46,11.29-8.48,.92-6.75-4.52-9.4-9.91-10.18"/><path class="cls-2" d="M23.32,1.05c-2.46,0-4.61,.03-4.54,.1V10.52H9.39V1.15c.07-.07-2.08-.1-4.54-.1S-.07,1.08,0,1.15V29.3c0,.07,2.42,.1,4.85,.1s4.55-.03,4.54-.1v-9.39h9.39v9.39c0,.07,2.11,.1,4.54,.1s4.86-.03,4.85-.1V1.15c.07-.07-2.39-.1-4.85-.1"/><g><polygon class="cls-1" points="9.39 10.52 18.78 10.52 9.39 1.14 9.39 10.52"/><polygon class="cls-1" points="9.39 29.3 18.78 19.91 9.39 19.91 9.39 29.3"/><polygon class="cls-1" points="18.78 10.52 18.78 19.91 23.47 15.22 18.78 10.52"/></g></svg>