<svg width="153" height="30" viewBox="0 0 153 30" fill="none" xmlns="http://www.w3.org/2000/svg">
<g clip-path="url(#clip0_376_3779)">
<path d="M45.9158 8.2934C43.3508 8.01541 41.7101 8.68723 40.0232 10.7953V8.54823H36.5107V29.3976H40.0463V17.4208C40.0463 15.7297 40.4854 14.2007 41.4559 12.9961C42.4265 11.7915 43.7205 11.5135 44.9222 11.5135C45.8003 11.5135 46.6322 11.7915 47.3485 12.3011L48.6426 9.22004C47.8569 8.82622 46.7708 8.38607 45.9158 8.2934Z" fill="#8E94A6"/>
<path d="M29.763 29.3977H33.2986V16.8185C33.2986 13.8533 32.744 11.6757 31.4037 10.3089C30.0634 8.94206 28.1686 8.15442 25.1645 8.15442C23.0154 8.15442 20.8663 8.66407 18.4862 10.2394L19.9189 13.3204C21.86 11.9305 23.2003 11.3977 25.28 11.444C28.2379 11.5135 29.763 12.9961 29.763 16.332C28.8618 16.0772 27.9375 15.9382 26.99 15.9382C24.1477 15.9382 21.8369 16.7722 20.0113 18.2316C18.1858 19.6911 17.3539 21.4749 17.3539 23.583C17.3077 25.2509 17.9547 26.8494 19.1332 28.0077C20.3117 29.1892 21.7213 29.6757 23.3389 29.7915C25.9502 29.9768 27.7988 29.3513 29.7168 27.5212V29.3977H29.763ZM29.763 23.9073C28.3303 25.6679 26.5048 26.9884 24.6561 26.9884C22.1142 26.9884 20.797 25.7143 20.797 23.5598C20.797 22.2625 21.2823 21.1737 22.4608 20.2239C23.6393 19.2741 25.488 18.834 27.3367 18.834C28.1455 18.8571 28.9774 18.9498 29.763 19.1351V23.9073Z" fill="#8E94A6"/>
<path d="M61.9535 29.3977H65.489V16.8185C65.489 13.8533 64.9575 11.6757 63.5942 10.3089C62.2539 8.94206 60.359 8.15442 57.3549 8.15442C55.2058 8.15442 53.0568 8.66407 50.6766 10.2394L52.1093 13.3204C54.0504 11.9305 55.3907 11.3977 57.4705 11.444C60.4283 11.5135 61.9535 12.9961 61.9535 16.332C61.0522 16.0772 60.1279 15.9382 59.1805 15.9382C56.3381 15.9382 54.0273 16.7722 52.2018 18.2316C50.3762 19.6911 49.5443 21.4749 49.5443 23.583C49.4981 25.2509 50.1451 26.8494 51.3237 28.0077C52.5022 29.1892 53.9118 29.6757 55.5294 29.7915C58.1406 29.9768 59.9893 29.3513 61.9072 27.5212L61.9535 29.3977ZM61.9535 23.9073C60.5208 25.6679 58.6952 26.9884 56.8465 26.9884C54.3046 26.9884 52.9874 25.7143 52.9874 23.5598C52.9874 22.2625 53.4727 21.1737 54.6512 20.2239C55.8298 19.2741 57.6784 18.834 59.5271 18.834C60.3359 18.8571 61.1678 18.9498 61.9535 19.1351V23.9073Z" fill="#8E94A6"/>
<path d="M77.8983 8.17761C76.766 8.15444 75.6337 8.3861 74.5938 8.87259C73.7157 9.26641 72.9069 9.84556 72.2367 10.5405V0H68.7012V29.3977H72.2367V14.7799C72.8607 13.6911 73.4384 12.973 74.3396 12.3243C75.1022 11.7452 76.0265 11.444 76.9739 11.444C78.1756 11.4208 79.3541 11.9073 80.186 12.7876C80.9717 13.5521 81.4338 14.8958 81.4338 16.4479V29.4208H84.9694V16.4479C84.9694 13.9459 84.3455 11.9768 83.0976 10.5405C81.8267 8.98842 79.9087 8.13127 77.8983 8.17761Z" fill="#8E94A6"/>
<path d="M96.3615 17.7684L93.6347 16.4479C92.2714 15.8456 91.0004 15.0811 90.9773 13.8301C90.908 11.4904 93.4268 11.166 94.4204 11.2587C95.8762 11.3977 97.1241 12.0695 98.8572 13.0888L99.8971 10.0077C97.7249 8.64094 95.7145 8.20078 94.2125 8.13129C92.2945 8.03862 90.908 8.40928 89.3597 9.68341C88.1581 10.7027 87.4648 12.2317 87.511 13.807C87.511 14.4324 87.6035 15.0579 87.8346 15.6371C88.0656 16.2162 88.3892 16.7722 88.8051 17.2355C89.2442 17.7452 89.7525 18.2085 90.3303 18.5792C90.908 18.973 92.0403 19.4131 93.7272 20.1776C95.9225 21.1738 97.2396 22.3089 97.2396 23.6525C97.2396 25.529 95.7376 26.3861 93.473 26.3861C92.2251 26.3861 90.7693 26.0618 88.6896 24.8803L87.3955 28.0541C89.2673 29.1197 91.3701 29.6989 93.5423 29.722C95.9918 29.722 97.4707 29.2819 98.9497 28.1236C100.244 27.0811 100.845 25.6448 100.845 23.8147C100.845 22.4016 100.521 21.2433 99.8047 20.3166C98.8341 19.2278 97.6787 18.3475 96.3615 17.7684Z" fill="#8E94A6"/>
<path d="M118.546 11.027C116.905 9.12742 114.618 8.17761 111.66 8.17761C108.864 8.17761 106.599 9.17375 104.889 11.1429C103.179 13.112 102.324 15.7297 102.301 18.9498C102.301 22.2626 103.133 24.9035 104.773 26.8726C106.414 28.8417 108.702 29.8147 111.66 29.8147C114.548 29.8147 116.813 28.8417 118.477 26.8958C120.14 24.9498 120.972 22.3089 120.995 18.9498C120.995 15.5676 120.187 12.9266 118.546 11.027ZM115.935 24.4865C114.895 25.8533 113.462 26.5251 111.66 26.5251C109.811 26.5251 108.378 25.8301 107.338 24.4633C106.299 23.0965 105.79 21.2432 105.79 18.9266C105.79 16.6795 106.322 14.8726 107.408 13.4826C108.401 12.139 109.996 11.3745 111.66 11.4209C113.508 11.4209 114.941 12.0927 115.981 13.4131C117.021 14.7336 117.529 16.5869 117.506 18.9498C117.506 21.2896 116.998 23.1429 115.935 24.4865Z" fill="#8E94A6"/>
<path d="M126.472 2.36293C125.177 3.86872 124.669 5.88416 124.669 8.52509H121.526V11.7683H124.669V29.3977H128.182V11.7683H132.364V8.52509H128.182C128.112 8.15443 127.997 5.5135 129.106 4.28571C129.822 3.47489 130.862 3.01157 131.948 3.01157C132.688 3.03474 133.427 3.22007 134.074 3.54439L135.206 0.76447C134.074 0.277984 132.849 0.0231575 131.625 -0.0231746C129.637 -0.0463406 127.742 0.833968 126.472 2.36293Z" fill="#8E94A6"/>
<path d="M144.658 26.5483C143.341 26.5483 142.393 26.3166 141.816 25.5753C141.238 24.834 140.938 23.6062 140.938 21.8687V11.7683H146.622V8.5251H140.938V2.84943L137.379 4.26255V8.54827H134.906V11.7915H137.379V23.3514C137.379 25.2046 137.841 26.7336 138.973 27.9614C140.106 29.1892 141.492 29.6988 143.133 29.7915C144.843 29.8842 146.53 29.6525 148.147 29.0734L147.616 25.9923C146.668 26.3398 145.675 26.5251 144.658 26.5483Z" fill="#8E94A6"/>
<path d="M0 18.973C0 24.9498 4.92207 29.7915 10.9995 29.7915C12.7327 29.7683 14.4196 29.3745 15.9909 28.61L14.9973 25.2973C13.7957 26.0618 12.4323 26.4788 10.9995 26.4788C6.88627 26.5483 3.48935 23.2587 3.39692 19.1351C3.32759 14.9884 6.60897 11.583 10.7222 11.5135C10.8147 11.5135 10.9071 11.5135 10.9764 11.5135C12.4092 11.5135 13.7957 11.9305 14.9973 12.695L15.9447 9.33591C14.3965 8.57143 12.7096 8.17761 10.9764 8.17761C4.92207 8.17761 0 12.9961 0 18.973Z" fill="#8E94A6"/>
<path d="M152.515 27.1505C151.868 26.5019 150.805 26.5019 150.158 27.1505C149.511 27.7992 149.511 28.8648 150.158 29.5135C150.805 30.1621 151.868 30.1621 152.515 29.5135C152.839 29.1892 153 28.7722 153 28.332C153.024 27.8919 152.839 27.4517 152.515 27.1505ZM152.33 29.3282C151.776 29.8841 150.898 29.8841 150.343 29.3282C149.788 28.7722 149.788 27.8919 150.343 27.3359C150.898 26.7799 151.776 26.7799 152.33 27.3359C152.585 27.5907 152.746 27.9614 152.746 28.332C152.746 28.7027 152.585 29.0733 152.33 29.3282Z" fill="#8E94A6"/>
<path d="M152.03 27.9151C152.03 27.6602 151.914 27.3591 151.36 27.3591H150.759V29.2355H151.105V28.4942H151.336L151.752 29.2355H152.145L151.683 28.4479C151.891 28.3784 152.053 28.1699 152.03 27.9151ZM151.313 28.193H151.082V27.6602H151.313C151.637 27.6602 151.683 27.7761 151.683 27.9151C151.683 27.9846 151.683 28.193 151.313 28.193Z" fill="#8E94A6"/>
</g>
<defs>
<clipPath id="clip0_376_3779">
<rect width="153" height="30" fill="white"/>
</clipPath>
</defs>
</svg>
