<svg xmlns="http://www.w3.org/2000/svg" width="78" height="12" viewBox="0 0 78 12" fill="none">
<g clip-path="url(#clip0_8_5)">
<mask id="mask0_8_5" style="mask-type:luminance" maskUnits="userSpaceOnUse" x="0" y="0" width="78" height="12">
<path d="M77.6757 0H0V12H77.6757V0Z" fill="white"/>
</mask>
<g mask="url(#mask0_8_5)">
<path d="M14.4701 1.88055H15.4918L13.6034 9.27666L11.715 1.88055H12.7367V-7.62939e-06H8.50652V1.88055H9.64155L12.3411 11.9983H15.0496L17.568 1.88055H18.6998V-7.62939e-06H14.4701V1.88055Z" fill="white"/>
<path d="M5.69326 0.0013938H2.1731C0.731373 0.0013938 0.000228882 0.72306 0.000228882 2.14639V9.46918C0.000228882 10.0258 0.042453 10.7297 0.3708 11.2336C0.706927 11.7486 1.2964 11.9992 2.1731 11.9992H5.6927C6.29217 11.9992 6.83498 11.7719 7.2211 11.3586C7.64279 10.9075 7.86558 10.2542 7.86558 9.46918V2.53139C7.86613 1.08917 6.93221 0.0013938 5.69326 0.0013938ZM5.96605 10.1197H1.88365V1.88083H5.96605V10.1197Z" fill="white"/>
<path d="M38.7154 10.1194L37.2692 6.14887L37.312 6.13277C37.5264 6.05278 37.7254 5.93944 37.9026 5.79555C38.2958 5.47611 38.7653 4.85166 38.7653 3.68777V2.14611C38.7653 1.23944 38.6164 0.718325 38.2681 0.403882C37.8976 0.0688813 37.323 -7.62939e-06 36.5753 -7.62939e-06H29.8522V1.88055H30.8906H30.9366V1.92666V10.1189H29.8522V12H33.9013V10.1194H32.8167V8.1261L35.5513 6.83944L36.8009 10.1194H35.8146V12H39.8638V10.1194H38.7154ZM36.8996 4.20166V4.23166L36.8725 4.24387L32.8174 6.02777V1.88055H36.8996V4.20166Z" fill="white"/>
<path d="M75.7954 3.32665H77.676V-7.62939e-06H68.7479V1.88055H69.8324V10.1194H68.7479V12H77.666V8.67388H75.7954V10.1194H71.713V6.94055H73.8075V8.02444H75.6881V3.97554H73.8075V5.05944H71.713V1.88055H75.7954V3.32665Z" fill="white"/>
<path d="M39.8018 3.32443L41.6964 3.3411L41.6842 1.88055H43.2353V10.1194H41.9703V12L46.3827 11.9983L46.3804 10.1194H45.116V1.88055H46.6689V3.32443L48.5539 3.3411V0.00165904L39.8018 -7.62939e-06V3.32443Z" fill="white"/>
<path d="M66.6421 10.1194V1.88055H67.726V-7.62939e-06L64.8298 0.00165904L61.3679 6.43777L58.0279 0.00165904L55.0032 -7.62939e-06V1.88055H56.0871V10.1194H55.0032V12H59.2329V10.1194H57.9684V4.16555L60.8724 9.65055H61.8569L64.7615 4.16555V10.1194H63.677V12L67.7072 11.9983L67.7289 10.1194H66.6421Z" fill="white"/>
<path d="M19.7217 1.88055H20.8056V10.1194H19.7217V12H28.6398V8.67388H26.7691V10.1194H22.6869V6.94055H24.7814V8.02444H26.662V3.97554H24.7814V5.05944H22.6869V1.88055H26.7691V3.32665H28.6499V-7.62939e-06H19.7217V1.88055Z" fill="white"/>
<path d="M52.7171 10.1194V1.88055H53.9817V-7.62939e-06H49.5708V1.88055H50.8359V10.1194H49.5708V12L53.9833 11.9983L53.9817 10.1194H52.7171Z" fill="white"/>
</g>
</g>
<defs>
<clipPath id="clip0_8_5">
<rect width="77.6757" height="12" fill="white"/>
</clipPath>
</defs>
</svg>