<svg class="logo-svg splash-svg splash-hide" viewbox="0 0 80 35" fill="currentColor" xmlns="http://www.w3.org/2000/svg">
    <path d="M0 25.2691L1.7667 20.751C1.85563 20.7927 1.94661 20.8355 2.03961 20.8792C4.08815 21.8431 7.1207 23.2699 10.9615 23.2699C12.0858 23.2699 13.451 23.15 13.451 22.1504C13.451 21.1565 12.0158 20.934 9.93471 20.6113C9.25294 20.5055 8.50186 20.3891 7.70922 20.2312C3.49324 19.3916 1.44548 17.9921 1.44548 14.9134C1.44548 9.35576 7.99028 8.51611 11.1222 8.51611C14.6957 8.51611 18.5905 9.59566 20.839 10.7552L19.4336 15.0334C16.7033 13.8739 13.9328 13.1142 10.8411 13.1142C9.83728 13.1142 7.99028 13.1942 7.99028 14.0738C7.99028 14.6735 8.87363 15.0334 11.6441 15.3932C11.9897 15.44 12.3446 15.4843 12.7047 15.5292C16.6543 16.0219 21.2405 16.5939 21.2405 21.4307C21.2405 26.4286 16.3018 28.1079 11.082 28.1079C5.98586 28.1079 2.63443 26.5184 0.278154 25.4009C0.183858 25.3561 0.0911563 25.3122 0 25.2691Z"></path>
    <path fill-rule="evenodd" clip-rule="evenodd" d="M23.9673 35H31.675V25.3652C31.675 25.2079 31.7145 25.0506 31.8331 25.0506C31.9912 25.0506 32.1097 25.1685 32.2679 25.4438C33.0979 26.7416 34.679 28.236 37.8016 28.236C41.2799 28.236 44.0863 26.6236 44.0863 21V15.7697C44.0863 10.3427 41.0823 8.49438 37.8016 8.49438C34.5209 8.49438 32.3864 10.5 31.3192 12.5843C31.2006 12.8202 31.1216 12.8202 31.0425 12.8202C30.8844 12.8202 30.8844 12.7022 30.8844 12.4663V8.88764H23.9673V35ZM31.7145 21.236V15.7697C31.7145 14.5899 32.505 13.6854 34.0861 13.6854C35.509 13.6854 36.2996 14.5899 36.2996 15.7697V21.236C36.2996 22.3764 35.509 23.2416 34.0861 23.2416C32.505 23.2416 31.7145 22.3764 31.7145 21.236Z"></path>
      <path d="M47.4067 28.1573V8.88764H55.1539V28.1573H47.4067Z"></path>
      <path d="M47.4067 6.56742V0H55.1539V6.56742H47.4067Z"></path>
    <path d="M59.0273 28.1573V8.88764H65.984V12.4663C65.984 12.7022 65.984 12.8202 66.1026 12.8202C66.1816 12.8202 66.2607 12.7416 66.3793 12.5843C67.4465 10.5 69.4623 8.49438 72.743 8.49438C76.0237 8.49438 79.2649 10.3427 79.2649 15.7697V28.1573H71.3596V15.8876C71.3596 14.6292 70.411 13.6461 69.0671 13.6461C67.7232 13.6461 66.8536 14.6292 66.8536 15.8876V28.1573H59.0273Z"></path>
</svg>