<svg width="100%" height="100%" viewbox="0 0 156 32" fill="none" xmlns="http://www.w3.org/2000/svg">
<g clip-path="url(#clip0_8631_2700)">
<path d="M67.3505 26.6603L80.1407 13.312H67.9545V9.875H85.2477V13.0205L72.4598 26.3688H85.6444V29.7968H67.3438L67.3505 26.6603Z" fill="currentColor"></path>
<path d="M88.0938 19.8406C88.0938 13.7913 92.5179 9.35547 98.7924 9.35547C105.067 9.35547 109.41 13.7823 109.41 19.8406V21.2507H92.1167C92.6779 24.8007 95.3329 26.7757 98.7924 26.7757C101.366 26.7757 103.176 25.969 104.343 24.2358H108.565C107.037 27.9462 103.417 30.337 98.7924 30.337C92.5179 30.3257 88.0938 25.8899 88.0938 19.8406ZM105.389 17.8249C104.625 14.6387 102.009 12.9032 98.7924 12.9032C95.4952 12.9032 93.0002 14.6771 92.2362 17.8249H105.389Z" fill="currentColor"></path>
<path d="M112.156 19.4345C112.156 12.7796 116.098 9.35156 121.969 9.35156C127.84 9.35156 131.784 12.7412 131.784 19.4345V29.7976H127.953V19.4345C127.953 15.1184 125.58 12.8993 121.96 12.8993C118.341 12.8993 115.976 15.1229 115.976 19.4345V29.7976H112.156V19.4345Z" fill="currentColor"></path>
<path d="M134.43 19.8406C134.43 13.7913 138.854 9.35547 145.128 9.35547C151.403 9.35547 155.827 13.7845 155.827 19.8406C155.827 25.8967 151.403 30.3257 145.128 30.3257C138.854 30.3257 134.43 25.8899 134.43 19.8406ZM151.964 19.8406C151.964 15.807 149.23 12.9032 145.128 12.9032C141.026 12.9032 138.29 15.8183 138.29 19.8406C138.29 23.8629 141.024 26.7757 145.128 26.7757C149.232 26.7757 151.964 23.8742 151.964 19.8406Z" fill="currentColor"></path>
<path d="M31.8205 0.285488C31.5365 6.03198 31.1602 13.8077 31.1602 14.7862C32.562 14.8065 33.13 15.437 33.13 15.437L32.4245 0.296787C32.426 0.216478 32.3956 0.138864 32.3401 0.0810178C32.2845 0.0231716 32.2082 -0.0101677 32.1282 -0.011666C32.0481 -0.0131643 31.9706 0.0173012 31.913 0.0730284C31.8553 0.128756 31.822 0.20518 31.8205 0.285488Z" fill="currentColor"></path>
<path d="M49.5973 13.2001C49.3133 17.8393 48.9414 24.1169 48.9414 25.0908C50.3433 25.1111 50.9112 25.7439 50.9112 25.7439L50.2013 13.2024C50.2016 13.1221 50.17 13.0449 50.1136 12.9879C50.0572 12.9309 49.9805 12.8987 49.9004 12.8984C49.8203 12.8981 49.7434 12.9298 49.6865 12.9863C49.6297 13.0429 49.5976 13.1198 49.5973 13.2001Z" fill="currentColor"></path>
<path d="M36.9212 18.4083C36.9212 18.328 36.8894 18.2509 36.8328 18.1942C36.7761 18.1374 36.6993 18.1055 36.6192 18.1055C36.5391 18.1055 36.4623 18.1374 36.4057 18.1942C36.349 18.2509 36.3172 18.328 36.3172 18.4083L35.6208 28.8301L35.5938 29.3386C35.6208 30.5295 36.8626 30.839 37.5636 30.6085L36.9212 18.4083Z" fill="currentColor"></path>
<path d="M54.6939 21.8184C54.6939 21.7381 54.6621 21.6611 54.6055 21.6043C54.5488 21.5475 54.472 21.5156 54.3919 21.5156C54.3118 21.5156 54.235 21.5475 54.1784 21.6043C54.1217 21.6611 54.0899 21.7381 54.0899 21.8184L53.4138 30.1546L53.3867 30.663C53.4138 31.8539 54.6556 32.1635 55.3588 31.933L54.6939 21.8184Z" fill="currentColor"></path>
<path d="M1.23958 13.6934C1.23958 13.6131 1.20776 13.5361 1.15112 13.4793C1.09448 13.4225 1.01767 13.3906 0.937571 13.3906C0.857474 13.3906 0.780658 13.4225 0.72402 13.4793C0.667383 13.5361 0.635565 13.6131 0.635565 13.6934L0.0315529 27.1637L0 27.6721C0.0247915 28.863 1.26662 29.1726 1.9698 28.9421L1.23958 13.6934Z" fill="currentColor"></path>
<path d="M24.2219 18.1424L23.5458 4.58405C23.5458 4.50375 23.514 4.42673 23.4573 4.36994C23.4007 4.31315 23.3239 4.28125 23.2438 4.28125C23.1637 4.28125 23.0869 4.31315 23.0302 4.36994C22.9736 4.42673 22.9418 4.50375 22.9418 4.58405L22.2656 19.096L24.2219 18.1424Z" fill="currentColor"></path>
<path d="M28.669 15.9907L27.9929 4.52937C27.9929 4.44906 27.9611 4.37204 27.9044 4.31525C27.8478 4.25846 27.771 4.22656 27.6909 4.22656C27.6108 4.22656 27.534 4.25846 27.4773 4.31525C27.4207 4.37204 27.3889 4.44906 27.3889 4.52937L26.6992 16.9511L28.669 15.9907Z" fill="currentColor"></path>
<path d="M19.7688 20.295L19.0926 8.82233C19.0926 8.74203 19.0608 8.66501 19.0042 8.60822C18.9476 8.55143 18.8707 8.51953 18.7906 8.51953C18.7105 8.51953 18.6337 8.55143 18.5771 8.60822C18.5205 8.66501 18.4886 8.74203 18.4886 8.82233L17.8125 21.2508H17.8328L19.7688 20.295Z" fill="currentColor"></path>
<path d="M15.3259 22.4565L14.6497 12.5137C14.6497 12.4334 14.6179 12.3564 14.5613 12.2996C14.5046 12.2428 14.4278 12.2109 14.3477 12.2109C14.2676 12.2109 14.1908 12.2428 14.1342 12.2996C14.0775 12.3564 14.0457 12.4334 14.0457 12.5137L13.3516 23.4101L15.3259 22.4565Z" fill="currentColor"></path>
<path d="M6.42848 26.7698L5.75235 15.2091C5.75235 15.1287 5.72053 15.0517 5.6639 14.9949C5.60726 14.9382 5.53044 14.9062 5.45035 14.9062C5.37025 14.9062 5.29343 14.9382 5.23679 14.9949C5.18016 15.0517 5.14834 15.1287 5.14834 15.2091L4.46094 27.7257L6.42848 26.7698Z" fill="currentColor"></path>
<path d="M10.8742 24.6122L10.1981 13.1192C10.1981 13.0389 10.1663 12.9619 10.1097 12.9051C10.053 12.8483 9.9762 12.8164 9.89611 12.8164C9.81601 12.8164 9.73919 12.8483 9.68256 12.9051C9.62592 12.9619 9.5941 13.0389 9.5941 13.1192L8.91797 25.5658L10.8742 24.6122Z" fill="currentColor"></path>
<path d="M42.0128 28.442L41.3366 19.5997C41.3366 19.5194 41.3048 19.4424 41.2482 19.3856C41.1915 19.3288 41.1147 19.2969 41.0346 19.2969C40.9545 19.2969 40.8777 19.3288 40.8211 19.3856C40.7644 19.4424 40.7326 19.5194 40.7326 19.5997L40.043 29.3933L42.0128 28.442Z" fill="currentColor"></path>
<path d="M46.4597 26.2761L45.7836 14.6544C45.7836 14.5741 45.7518 14.497 45.6951 14.4403C45.6385 14.3835 45.5617 14.3516 45.4816 14.3516C45.4015 14.3516 45.3247 14.3835 45.268 14.4403C45.2114 14.497 45.1796 14.5741 45.1796 14.6544L44.4922 27.232L46.4597 26.2761Z" fill="currentColor"></path>
<path d="M59.8078 29.7745L59.1317 18.1505C59.1317 18.0702 59.0999 17.9931 59.0432 17.9363C58.9866 17.8796 58.9098 17.8477 58.8297 17.8477C58.7496 17.8477 58.6728 17.8796 58.6162 17.9363C58.5595 17.9931 58.5277 18.0702 58.5277 18.1505L57.8516 30.7258L59.8078 29.7745Z" fill="currentColor"></path>
</g>
<defs>
<clippath id="clip0_8631_2700">
<rect width="155.826" height="32" fill="currentColor"></rect>
</clippath>
</defs>
</svg>