<svg width="1000" height="1000" viewBox="0 0 1000 1000" fill="none" xmlns="http://www.w3.org/2000/svg">
<g clip-path="url(#clip0_8_17)">
<rect width="1000" height="1000" fill="white"/>
<path fill-rule="evenodd" clip-rule="evenodd" d="M252.521 104.999L477.476 312.262V312.214V105.478H521.266V313.189L747.228 104.999V341.309H840.001V682.164H747.513V892.587L521.266 693.812V894.869H477.476V697.089L252.776 894.999V682.164H160.001V341.309H252.521V104.999ZM444.463 384.564H203.79V638.909H252.721V558.679L444.463 384.564ZM296.563 577.872V798.479L477.476 639.137V413.552L296.563 577.872ZM522.526 637.029V413.339L703.491 577.669V682.164H703.723V796.227L522.526 637.029ZM747.513 638.909H796.211V384.564H557.331L747.513 556.877V638.909ZM703.438 341.309V204.495L554.943 341.309H703.438ZM444.803 341.309H296.311V204.495L444.803 341.309Z" fill="#20808D"/>
</g>
<defs>
<clipPath id="clip0_8_17">
<rect width="1000" height="1000" fill="white"/>
</clipPath>
</defs>
</svg>
