<svg width="1132" height="269" viewBox="0 0 1132 269" fill="none" xmlns="http://www.w3.org/2000/svg">
<rect width="1132" height="269" fill="white"/>
<path fill-rule="evenodd" clip-rule="evenodd" d="M29.6685 12L99.3738 76.54V76.5252V12.1489H112.943V76.8288L182.96 12V85.5851H211.707V191.725H183.048V257.249L112.943 195.352V257.96H99.3738V196.372L29.7475 258V191.725H1V85.5851H29.6685V12ZM89.1444 99.0544H14.5688V178.256H29.7305V153.273L89.1444 99.0544ZM43.3157 159.249V227.944L99.3738 178.326V108.081L43.3157 159.249ZM113.333 177.67V108.015L169.407 159.186V191.725H169.479V227.243L113.333 177.67ZM183.048 178.256H198.138V99.0544H124.118L183.048 152.711V178.256ZM169.391 85.5851V42.9822L123.378 85.5851H169.391ZM89.2498 85.5851H43.2374V42.9822L89.2498 85.5851Z" fill="#20808D"/>
<mask id="mask0_8_18" style="mask-type:luminance" maskUnits="userSpaceOnUse" x="269" y="44" width="863" height="182">
<path d="M1132 44.6961H269.806V225.304H1132V44.6961Z" fill="white"/>
</mask>
<g mask="url(#mask0_8_18)">
<path d="M546.948 83.9689H555.563V101.81H544.411C535.671 101.81 529.154 103.923 524.833 108.161C520.539 112.386 518.379 119.334 518.379 128.993V187.494H500.772V84.376H518.379V100.831C518.379 101.759 518.844 102.218 519.748 102.218C520.263 102.218 520.652 102.09 520.928 101.823C521.204 101.556 521.443 101.034 521.719 100.232C525.11 89.4027 533.537 83.9813 546.961 83.9813H546.948V83.9689ZM664.064 106.074C668.686 114.333 671.009 124.285 671.009 135.916C671.009 147.547 668.698 157.5 664.064 165.758C659.43 174.018 653.427 180.202 646.056 184.3C638.685 188.398 630.76 190.447 622.284 190.447C605.581 190.447 593.84 183.702 587.058 170.213C586.543 169.156 585.878 168.622 585.099 168.622C584.321 168.622 583.919 169.016 583.919 169.818V225.151H566.312V84.3628H583.919V102.014C583.919 102.803 584.308 103.211 585.099 103.211C585.89 103.211 586.531 102.688 587.058 101.619C593.84 88.1299 605.581 81.3851 622.284 81.3851C630.76 81.3851 638.685 83.434 646.056 87.532C653.427 91.6299 659.418 97.8142 664.064 106.074ZM653.415 135.916C653.415 123.75 650.188 114.269 643.732 107.461C637.278 100.652 628.776 97.2544 618.19 97.2544C607.603 97.2544 599.101 100.665 592.647 107.461C586.179 114.269 583.819 123.762 583.819 135.916C583.819 148.07 586.192 157.563 592.647 164.371C599.101 171.193 607.615 174.578 618.19 174.578C628.764 174.578 637.278 171.167 643.732 164.371C650.188 157.576 653.415 148.07 653.415 135.916ZM367.544 106.226C372.166 114.485 374.489 124.437 374.489 136.069C374.489 147.701 372.178 157.652 367.544 165.911C362.91 174.171 356.908 180.356 349.537 184.453C342.165 188.551 334.241 190.6 325.764 190.6C309.062 190.6 297.32 183.855 290.539 170.365C290.024 169.309 289.359 168.775 288.58 168.775C287.801 168.775 287.4 169.169 287.4 169.971V225.304H269.806V84.5161H287.412V102.167C287.412 102.956 287.801 103.363 288.593 103.363C289.384 103.363 290.024 102.842 290.552 101.772C297.333 88.2824 309.075 81.5377 325.777 81.5377C334.254 81.5377 342.178 83.5866 349.549 87.6846C356.921 91.7825 362.911 97.9675 367.558 106.226H367.544ZM356.883 136.069C356.883 123.903 353.656 114.422 347.201 107.614C340.746 100.818 332.232 97.407 321.658 97.407C311.084 97.407 302.57 100.818 296.115 107.614C289.66 114.435 287.287 123.916 287.287 136.069C287.287 148.222 289.66 157.716 296.115 164.525C302.57 171.346 311.071 174.73 321.658 174.73C332.244 174.73 340.746 171.32 347.201 164.525C353.656 157.728 356.883 148.222 356.883 136.069ZM469.654 154.738H488.24C485.766 164.397 480.705 172.758 473.082 179.821C465.446 186.897 454.521 190.421 440.293 190.421C429.594 190.421 420.175 188.207 412.025 183.779C403.875 179.35 397.583 173.05 393.138 164.842C388.693 156.647 386.483 147 386.483 135.89C386.483 124.781 388.642 115.135 392.937 106.939C397.232 98.7437 403.272 92.431 411.033 88.003C418.794 83.5742 427.886 81.3594 438.322 81.3594C448.757 81.3594 457.409 83.5485 464.643 87.901C471.889 92.2659 477.289 98.0563 480.881 105.246C484.472 112.462 486.255 120.352 486.255 128.942V140.841H405.056C405.696 151.149 409.137 159.358 415.328 165.428C421.519 171.511 429.845 174.552 440.281 174.552C448.757 174.552 455.262 172.809 459.758 169.297C464.253 165.784 467.544 160.936 469.641 154.713L469.654 154.738ZM404.692 125.99H466.137C466.137 117.005 463.852 109.955 459.281 104.865C454.71 99.7868 447.539 97.2287 437.756 97.2287C428.627 97.2287 421.155 99.7105 415.353 104.674C409.551 109.624 405.998 116.738 404.692 125.99ZM685.211 187.469H702.83V44.6961H685.211V187.482V187.469ZM932.828 73.1005H953.402V50.7791H932.828V73.1005ZM1008.79 172.109C1005.59 172.44 1003.65 172.605 1003.02 172.605C1002.11 172.605 1001.37 172.338 1000.86 171.803C1000.34 171.282 1000.07 170.556 1000.07 169.614C1000.07 168.966 1000.24 167.006 1000.57 163.761C1000.88 160.529 1001.06 155.527 1001.06 148.795V99.456H1026.17L1021.22 84.3503H1001.07V56.5821H983.467V84.3379H964.31V99.4435H983.467V153.732C983.467 165.11 986.217 173.572 991.686 179.121C997.163 184.669 1005.51 187.456 1016.75 187.456H1030.44V171.6H1023.59C1016.93 171.6 1012.01 171.765 1008.81 172.096L1008.79 172.109ZM1115.22 84.3503L1086.06 170.875C1085.68 171.943 1085.06 173.331 1083.06 173.331C1081.07 173.331 1080.44 171.943 1080.04 170.875L1050.89 84.3503H1032.93L1066.7 187.469H1078.64C1079.42 187.469 1080.01 187.546 1080.42 187.673C1080.8 187.8 1081.13 188.131 1081.39 188.665C1081.9 189.455 1081.84 190.65 1081.19 192.229L1075.71 207.297C1074.92 209.282 1073.43 210.274 1071.22 210.274C1070.43 210.274 1068.61 210.108 1065.74 209.778C1062.87 209.447 1059.17 209.282 1054.6 209.282H1040.3V225.138H1059.09C1070.05 225.138 1076.64 223.255 1082.32 219.488C1088 215.721 1092.39 209.078 1095.53 199.559L1132 88.3081V84.3503H1115.24H1115.22ZM873.233 122.821L845.64 84.3503H826.266V88.3081L859.328 132.925L819.015 183.498V187.456H838.784L870.878 146.008L900.819 187.456H919.806V183.498L884.768 135.904L922.749 88.5121V84.3503H902.98L873.241 122.821H873.233ZM934.702 187.469H952.318V84.3628H934.702V187.482V187.469ZM818.775 154.738C816.288 164.397 811.245 172.758 803.622 179.821C795.984 186.897 785.062 190.421 770.831 190.421C760.133 190.421 750.713 188.207 742.564 183.779C734.399 179.35 728.124 173.05 723.677 164.842C719.244 156.647 717.034 147 717.034 135.89C717.034 124.781 719.193 115.135 723.489 106.939C727.799 98.7437 733.826 92.431 741.588 88.003C749.342 83.5742 758.437 81.3594 768.887 81.3594C779.337 81.3594 787.974 83.5485 795.217 87.901C802.453 92.2659 807.868 98.0563 811.454 105.246C815.049 112.462 816.83 120.352 816.83 128.942V140.841H735.623C736.274 151.149 739.698 159.358 745.895 165.428C752.084 171.511 760.412 174.552 770.847 174.552C779.321 174.552 785.829 172.809 790.322 169.297C794.815 165.784 798.107 160.936 800.191 154.713H818.79L818.775 154.738ZM735.669 125.99H797.115C797.115 117.005 794.83 109.955 790.275 104.865C785.697 99.7868 778.531 97.2287 768.747 97.2287C759.614 97.2287 752.146 99.7105 746.344 104.674C740.542 109.624 736.979 116.738 735.685 125.99H735.669Z" fill="#13343B"/>
</g>
</svg>
