<svg enable-background="new 0 0 796.7 205.3" viewbox="0 0 796.7 205.3" xmlns="http://www.w3.org/2000/svg" title="Current Logo"><path fill="currentColor" d="m731.4 130.1c-1.5 13.2-10.4 18.8-21.6 18.8-14 0-23.1-9.3-23.1-30.6v-23.2-63.3h-34.1v86.5c0 35.4 22.4 58.3 57.2 58.3 30.9 0 52.7-17.7 55-46.4h-33.4z"></path><path fill="currentColor" d="m749.9 63.3h-48.1l-15 31.8h48.1z"></path><path fill="currentColor" class="nav__logo-safe" d="m129 63.3h-48.1l-15 31.8h48.1z"></path><path fill="currentColor" class="nav__logo-safe" d="m89 148.8c-14 0-23.1-9.3-23.1-30.6 0-.1 0-.1 0-.2v-22.9h-34.1v23.1c0 35.4 22.4 58.3 57.2 58.3 30.9 0 52.7-17.7 55-46.4h-33.5c-1.4 13.1-10.3 18.7-21.5 18.7z"></path><path fill="currentColor" d="m479.2 60.3c-34.7 0-57.4 23.1-57.4 58.3 0 35.4 23.3 58.3 57.8 58.3 26.8 0 48.3-13.8 54.4-37.3h-31.9c-3.9 8-11.2 12.5-22.4 12.5-13.2 0-23.1-7.6-25.5-23.5h82.4v-6.7c0-37.7-22.7-61.6-57.4-61.6zm-24.8 46.8c2.6-15.5 12.1-22 24.4-22 13.6 0 22.4 8.2 24.8 22z"></path><path fill="currentColor" d="m314.6 65.3c-13.8 4.9-18.3 19.2-23.9 31.5h-.5v-33.6h-30.8v110.2h33v-52.8c0-12.5 8.5-22.7 20.5-25.6 7.5-1.8 15.3-1.2 23-.6 0-10.3 0-20.6 0-31-7.3-.8-14.6-.5-21.3 1.9z"></path><path fill="currentColor" d="m398.3 65.3c-13.8 4.9-18.3 19.2-23.9 31.5h-.5v-33.6h-30.8v110.2h33v-52.8c0-12.5 8.5-22.7 20.5-25.6 7.5-1.8 15.3-1.2 23-.6 0-10.3 0-20.6 0-31-7.2-.8-14.6-.5-21.3 1.9z"></path><path fill="currentColor" d="m217.7 123.3c0 13.1-3.6 23-18.9 23-14.9 0-17.3-10.5-17.3-22.8v-60.2h-33v68.9c0 10.2 1.3 21.1 7.3 29.7 1.5 2.2 3.3 4.2 5.4 5.9 12.6 10.9 33.3 12.7 45.9 1.2 7.3-6.6 9.6-15.4 12.3-24.5h.5v29h30.6v-110.2h-33v60z"></path><path fill="currentColor" d="m632.5 69.1c-12.6-10.9-33.3-12.7-45.9-1.2-7.3 6.6-9.6 15.3-12.3 24.4h-.6v-29h-30.6v110.2h33v-59.9c0-13.1 3.6-23 18.9-23 14.9 0 17.3 10.5 17.3 22.8v60.1h33v-68.9c0-10.2-1.3-21.1-7.3-29.7-1.7-2.1-3.5-4.1-5.5-5.8z"></path></svg>