<svg height="28" viewbox="0 0 354 106" fill="none" xmlns="http://www.w3.org/2000/svg" style="flex-shrink: 0;">
          <rect width="106" height="106" rx="53" fill="#FF3186"></rect>
          <path d="M20.4961 38.8624C20.4961 36.829 22.0751 35.1133 23.9068 35.1133H24.4753C26.4333 35.1133 27.8861 36.829 27.8861 38.8624V68.9189C27.8861 70.9523 26.307 72.668 24.4753 72.668H23.9068C22.012 72.668 20.4961 70.9523 20.4961 68.9189V38.8624ZM24.2227 28.8224C26.2438 28.8224 27.9492 27.1067 27.9492 25.0733C27.9492 23.0399 26.2438 21.3242 24.2227 21.3242C22.2015 21.3242 20.4961 23.0399 20.4961 25.0733C20.4961 27.1067 22.2015 28.8224 24.2227 28.8224Z" fill="white"></path>
          <path d="M78.0212 57.2604V50.159C78.0212 46.0377 74.6603 42.6772 70.5385 42.6772C66.4167 42.6772 63.0558 46.0377 63.0558 50.159V57.2604V68.8636C63.0558 70.8926 61.3437 72.6046 59.3145 72.6046C57.2852 72.6046 55.5731 70.8926 55.5731 68.8636V57.2604V50.159C55.5731 46.0377 52.2122 42.6772 48.0904 42.6772C43.9686 42.6772 40.6077 46.0377 40.6077 50.159V51.4271V68.927C40.6077 70.956 38.8956 72.668 36.8664 72.668C34.8371 72.668 33.125 70.956 33.125 68.927V51.4271C33.125 51.3003 33.125 51.1735 33.125 50.9833C33.125 50.7297 33.125 50.4126 33.125 50.159C33.125 41.8529 39.7833 35.1953 48.0904 35.1953C52.5927 35.1953 56.5877 37.1609 59.3145 40.2678C62.0412 37.1609 66.0362 35.1953 70.5385 35.1953C78.8456 35.1953 85.5039 41.8529 85.5039 50.159C85.5039 50.4126 85.5039 50.7297 85.5039 50.9833C85.5039 51.1101 85.5039 51.2369 85.5039 51.4271V68.927C85.5039 70.956 83.7918 72.668 81.7626 72.668C79.7333 72.668 78.0212 70.956 78.0212 68.927V57.2604Z" fill="white"></path>
          <path d="M99 53.4195C99 43.0991 107.353 34.7415 117.668 34.7415C127.983 34.7415 136.336 43.0991 136.336 53.4195C136.336 63.7399 127.983 72.0975 117.668 72.0975C113.428 72.0975 109.568 70.7046 106.467 68.3619V87.04C106.467 89.0661 104.759 90.7756 102.734 90.7756C100.709 90.7756 99 89.0661 99 87.04V53.4195ZM117.668 64.6263C123.806 64.6263 128.869 59.5611 128.869 53.4195C128.869 47.2779 123.806 42.2127 117.668 42.2127C111.53 42.2127 106.467 47.2779 106.467 53.4195C106.467 59.5611 111.53 64.6263 117.668 64.6263Z" fill="white"></path>
          <path d="M158.801 42.2127C160.826 42.2127 162.534 40.5032 162.534 38.4771C162.534 36.451 160.826 34.7415 158.801 34.7415C154.561 34.7415 150.701 36.1343 147.6 38.477C147.6 36.451 145.891 34.7415 143.866 34.7415C141.841 34.7415 140.133 36.451 140.133 38.4771V68.4252C140.133 70.4513 141.841 72.1608 143.866 72.1608C145.891 72.1608 147.6 70.4513 147.6 68.4252V53.4195C147.6 47.2779 152.662 42.2127 158.801 42.2127Z" fill="white"></path>
          <path d="M208.541 37.2107C207.844 35.2479 205.693 34.2982 203.668 34.9947C201.706 35.6911 200.694 37.8438 201.453 39.8066L212.401 69.6915C212.97 71.2744 214.489 72.2241 216.134 72.0975C217.78 72.1608 219.298 71.2111 219.868 69.6915L230.816 39.7433C231.512 37.7805 230.499 35.6278 228.601 34.9313C226.576 34.2349 224.487 35.2479 223.728 37.1474L216.134 57.9148L208.541 37.2107Z" fill="white"></path>
          <path d="M262.836 68.3619C259.735 70.7046 255.875 72.0975 251.635 72.0975C241.32 72.0975 232.967 63.7399 232.967 53.4195C232.967 43.0991 241.32 34.7415 251.635 34.7415C261.95 34.7415 270.303 43.0991 270.303 53.4195V68.3619C270.303 70.388 268.594 72.0975 266.569 72.0975C264.544 72.1609 262.836 70.4513 262.836 68.3619ZM251.635 64.6263C257.773 64.6263 262.836 59.5611 262.836 53.4195C262.836 47.2779 257.773 42.2127 251.635 42.2127C245.496 42.2127 240.434 47.2779 240.434 53.4195C240.434 59.5611 245.496 64.6263 251.635 64.6263Z" fill="white"></path>
          <path d="M312.068 53.4194C312.068 63.7398 303.715 72.0974 293.4 72.0974C283.086 72.0974 274.732 63.7398 274.732 53.4194C274.732 43.099 283.086 34.7413 293.4 34.7413C297.64 34.7413 301.5 36.1343 304.601 38.477V19.7356C304.601 17.7095 306.31 16 308.335 16C310.36 16 312.068 17.7095 312.068 19.7356V53.4194ZM293.4 42.2126C287.262 42.2126 282.2 47.2778 282.2 53.4194C282.2 59.561 287.262 64.6262 293.4 64.6262C299.539 64.6262 304.601 59.561 304.601 53.4194C304.601 47.2778 299.539 42.2126 293.4 42.2126Z" fill="white"></path>
          <path d="M335.166 34.7415C324.851 34.7415 316.498 43.0991 316.498 53.4195C316.498 63.7399 324.851 72.0975 335.166 72.0975C345.481 72.0975 353.834 63.7399 353.834 53.4195C353.834 43.0991 345.481 34.7415 335.166 34.7415ZM335.166 64.6263C329.028 64.6263 323.965 59.5611 323.965 53.4195C323.965 47.2779 329.028 42.2127 335.166 42.2127C341.304 42.2127 346.367 47.2779 346.367 53.4195C346.367 59.5611 341.304 64.6263 335.166 64.6263Z" fill="white"></path>
          <path d="M180.633 34.7415C170.318 34.7415 161.965 43.0991 161.965 53.4195C161.965 63.7399 170.318 72.0975 180.633 72.0975C190.948 72.0975 199.301 63.7399 199.301 53.4195C199.301 43.0991 190.948 34.7415 180.633 34.7415ZM180.633 64.6263C174.495 64.6263 169.432 59.5611 169.432 53.4195C169.432 47.2779 174.495 42.2127 180.633 42.2127C186.771 42.2127 191.834 47.2779 191.834 53.4195C191.834 59.5611 186.771 64.6263 180.633 64.6263Z" fill="white"></path>
        </svg>