<svg width="100%" height="100%" viewbox="0 0 201 42" fill="none" xmlns="http://www.w3.org/2000/svg">
<g clip-path="url(#clip0_13460_175643)">
<mask id="mask0_13460_175643" style="mask-type:luminance" maskunits="userSpaceOnUse" x="0" y="0" width="41" height="42">
<path d="M20.4462 0.213379C31.7397 0.213379 40.8924 9.35968 40.8924 20.6371C40.8924 31.9181 31.736 41.0608 20.4462 41.0608C9.15637 41.0645 0 31.9181 0 20.6371C0 9.35968 9.15637 0.213379 20.4462 0.213379Z" fill="white"></path>
</mask>
<g mask="url(#mask0_13460_175643)">
<path d="M3.02635 10.4498C2.41471 11.5081 1.89773 12.6173 1.48633 13.7701L36.0257 33.692C36.8157 32.761 37.522 31.7573 38.1337 30.699L38.2684 30.4662L3.16105 10.2207L3.02271 10.4498H3.02635Z" fill="#B05A36"></path>
<path d="M30.6601 2.98389C27.1104 0.932793 23.0219 0.00907028 18.9334 0.3291C14.8448 0.64913 10.9529 2.19837 7.76367 4.77679L40.5446 23.6804C41.1853 19.6364 40.581 15.4941 38.8153 11.7993C37.0495 8.10437 34.2061 5.03136 30.6564 2.98389H30.6601Z" fill="#B05A36"></path>
<path d="M3.75195 9.15169L38.7683 29.3463C39.5328 27.7789 40.0898 26.1169 40.4248 24.404L7.20698 5.24951C5.88905 6.39507 4.72766 7.70792 3.75195 9.15533V9.15169Z" fill="#B05A36"></path>
<path d="M0.380859 18.2504L32.5647 36.8121C33.4021 36.1975 34.1885 35.5175 34.9166 34.7829L0.967013 15.1992C0.69396 16.1993 0.497362 17.2212 0.3845 18.2504H0.380859Z" fill="#B05A36"></path>
<path d="M0.303395 23.4305L28.1402 39.4829C28.9485 39.1483 29.7349 38.7665 30.4958 38.3301L0.125 20.8193C0.125 21.6921 0.186892 22.565 0.303395 23.4305Z" fill="#B05A36"></path>
<path fill-rule="evenodd" clip-rule="evenodd" d="M22.322 40.696L2.15974 29.0658C1.79203 28.2767 1.47893 27.4657 1.2168 26.6401L24.8996 40.2996C24.0513 40.4851 23.1884 40.6196 22.322 40.696Z" fill="#B05A36"></path>
</g>
<path d="M185.708 14.8029V18.3814C186.279 17.1631 187.124 16.2031 188.238 15.5012C189.381 14.7738 190.783 14.4102 192.443 14.4102C195.221 14.4102 197.194 15.2139 198.363 16.8213C199.557 18.4287 200.154 20.5162 200.154 23.0837V34.2484H197.194V23.4728C197.194 21.3963 196.764 19.7634 195.909 18.5705C195.053 17.3777 193.663 16.7813 191.74 16.7813C189.818 16.7813 188.3 17.4177 187.262 18.6869C186.225 19.9598 185.704 21.5526 185.704 23.4728V34.2484H182.744V14.7956H185.704L185.708 14.8029Z" fill="#2A2B2F"></path>
<path d="M169.759 34.6448C167.761 34.6448 166.035 34.1902 164.579 33.2847C163.126 32.3755 162.023 31.1572 161.269 29.6262C160.516 28.0697 160.141 26.3713 160.141 24.5312C160.141 22.691 160.516 21.0035 161.269 19.4725C162.023 17.916 163.126 16.6831 164.579 15.7776C166.031 14.8684 167.761 14.4175 169.759 14.4175C171.758 14.4175 173.484 14.8721 174.94 15.7776C176.422 16.6868 177.536 17.916 178.29 19.4725C179.043 21.0035 179.418 22.6873 179.418 24.5312C179.418 26.375 179.043 28.0697 178.29 29.6262C177.536 31.1572 176.422 32.3755 174.94 33.2847C173.487 34.1939 171.758 34.6448 169.759 34.6448ZM169.759 32.1537C171.809 32.1537 173.433 31.4518 174.627 30.0517C175.821 28.6515 176.418 26.8077 176.418 24.5275C176.418 22.2473 175.821 20.4035 174.627 19.0034C173.433 17.6032 171.809 16.9013 169.759 16.9013C167.71 16.9013 166.126 17.6032 164.932 19.0034C163.738 20.4035 163.141 22.2473 163.141 24.5275C163.141 26.8077 163.738 28.6515 164.932 30.0517C166.126 31.4518 167.735 32.1537 169.759 32.1537Z" fill="#2A2B2F"></path>
<path d="M154.373 10.3662C153.801 10.3662 153.31 10.1735 152.891 9.78434C152.502 9.36975 152.309 8.87516 152.309 8.3042C152.309 7.73324 152.505 7.25319 152.891 6.86406C153.306 6.44948 153.801 6.24219 154.373 6.24219C154.944 6.24219 155.425 6.44948 155.815 6.86406C156.23 7.25319 156.437 7.73324 156.437 8.3042C156.437 8.87516 156.23 9.36611 155.815 9.78434C155.425 10.1735 154.944 10.3662 154.373 10.3662ZM155.851 34.2557H152.891V14.803H155.851V34.2557Z" fill="#2A2B2F"></path>
<path d="M118.025 24.5268C118.025 22.712 118.389 21.0392 119.118 19.5081C119.846 17.9771 120.934 16.7442 122.391 15.8132C123.843 14.8786 125.598 14.4131 127.648 14.4131C130.036 14.4131 132.009 15.0604 133.568 16.3587C135.151 17.6279 136.123 19.2754 136.487 21.301H133.411C133.127 19.9518 132.464 18.8899 131.423 18.1116C130.411 17.3079 129.151 16.9042 127.644 16.9042C125.54 16.9042 123.905 17.617 122.736 19.0426C121.593 20.4682 121.022 22.2975 121.022 24.5268C121.022 26.7561 121.593 28.5853 122.736 30.0109C123.905 31.4365 125.54 32.1493 127.644 32.1493C129.151 32.1493 130.411 31.7602 131.423 30.9819C132.461 30.1782 133.123 29.1017 133.411 27.7525H136.487C136.123 29.7745 135.151 31.4365 133.568 32.7312C132.009 34.0004 130.036 34.6368 127.648 34.6368C125.598 34.6368 123.843 34.1713 122.391 33.2367C120.938 32.302 119.846 31.0692 119.118 29.5418C118.389 28.0107 118.025 26.3378 118.025 24.5231V24.5268Z" fill="#2A2B2F"></path>
<path d="M100.671 14.8029V18.3814C101.242 17.1631 102.087 16.2031 103.201 15.5012C104.344 14.7738 105.746 14.4102 107.406 14.4102C110.184 14.4102 112.157 15.2139 113.326 16.8213C114.52 18.4287 115.117 20.5162 115.117 23.0837V34.2484H112.157V23.4728C112.157 21.3963 111.727 19.7634 110.872 18.5705C110.016 17.3777 108.626 16.7813 106.703 16.7813C104.781 16.7813 103.263 17.4177 102.225 18.6869C101.188 19.9598 100.667 21.5526 100.667 23.4728V34.2484H97.707V14.7956H100.667L100.671 14.8029Z" fill="#2A2B2F"></path>
<path d="M78.9892 14.8027V25.6183C78.9892 30.0805 80.8059 32.3098 84.443 32.3098C86.3907 32.3098 87.8834 31.6734 88.921 30.4042C89.9586 29.1059 90.4793 27.513 90.4793 25.6183V14.8027H93.4391V34.2555H90.4793V30.6769C89.8822 31.8952 89.0266 32.8699 87.9089 33.5936C86.7912 34.2955 85.4041 34.6446 83.7403 34.6446C80.9624 34.6446 78.9746 33.8554 77.7805 32.2698C76.6118 30.6624 76.0293 28.5749 76.0293 26.0074V14.8027H78.9892Z" fill="#2A2B2F"></path>
<path d="M56.2021 8.08606C55.1426 8.96614 54.5273 10.2681 54.5273 11.6464V19.4326H57.4872V9.47165H72.5197V7.02051H59.1547C58.077 7.02051 57.0321 7.39509 56.2021 8.08606Z" fill="#2A2B2F"></path>
<path d="M56.4678 20.2649L55.889 20.7377C55.0261 21.4396 54.5273 22.4906 54.5273 23.5998V34.2553H57.4872V21.8433H71.5076V19.4321H58.8052C57.9532 19.4321 57.1268 19.7267 56.4678 20.2649Z" fill="#2A2B2F"></path>
<path d="M141.314 17.1367V29.0433C141.314 30.7816 141.77 32.0908 142.676 32.9709C143.612 33.8255 145.13 34.2547 147.234 34.2547H148.792V31.9599H147.857C146.532 31.9599 145.6 31.7272 145.053 31.258C144.533 30.7671 144.274 29.9088 144.274 28.6905V17.1367H141.314Z" fill="#2A2B2F"></path>
<path d="M148.792 14.8023H144.273V9.35449H141.314V14.8023H138.623V17.137H141.31H141.314H144.273H148.792V14.8023Z" fill="#2A2B2F"></path>
</g>
<defs>
<clippath id="clip0_13460_175643">
<rect width="200.152" height="40.8474" fill="white" transform="translate(0 0.213379)"></rect>
</clippath>
</defs>
</svg>