<?xml version="1.0" encoding="UTF-8" standalone="no"?>
<svg
   xmlns:dc="http://purl.org/dc/elements/1.1/"
   xmlns:cc="http://creativecommons.org/ns#"
   xmlns:rdf="http://www.w3.org/1999/02/22-rdf-syntax-ns#"
   xmlns:svg="http://www.w3.org/2000/svg"
   xmlns="http://www.w3.org/2000/svg"
   version="1.1"
   id="svg2"
   xml:space="preserve"
   width="1011.524"
   height="179.77957"
   viewBox="0 0 1011.524 179.77957"><metadata
     id="metadata8"><rdf:RDF><cc:Work
         rdf:about=""><dc:format>image/svg+xml</dc:format><dc:type
           rdf:resource="http://purl.org/dc/dcmitype/StillImage" /><dc:title></dc:title></cc:Work></rdf:RDF></metadata><defs
     id="defs6" /><g
     id="g10"
     transform="matrix(1.3333333,0,0,-1.3333333,2.666042e-4,179.77982)"><g
       id="g12"
       transform="scale(0.1)"><path
         d="M 3801.89,1343.16 H 7572.54 V 22.5898 H 3801.89 v 1320.5702 0"
         style="fill:#ee2722;fill-opacity:1;fill-rule:nonzero;stroke:none"
         id="path14" /><path
         d="M 13.8867,1343.16 H 3784.49 V 22.5898 H 13.8867 v 1320.5702 0"
         style="fill:#fee60e;fill-opacity:1;fill-rule:nonzero;stroke:none"
         id="path16" /><path
         d="m 403.551,970.824 h 210.742 c 83.328,0 134.777,-22.023 134.777,-94.363 0,-69.824 -57.578,-97.988 -129.875,-97.988 H 403.551 Z m 0,-340.644 h 234.07 c 66.152,0 132.305,-29.403 132.305,-106.625 0,-89.442 -51.481,-128.653 -140.922,-128.653 H 403.551 Z M 227.078,242.961 h 372.531 c 180.137,0 227.914,30.629 278.161,79.68 46.531,45.339 75.992,111.472 75.992,181.347 0,86.985 -28.231,172.774 -136.024,213.215 36.739,18.363 107.793,53.891 107.793,180.106 0,90.687 -55.121,225.461 -270.773,225.461 h -427.68 v -879.809 0"
         style="fill:#ee2722;fill-opacity:1;fill-rule:evenodd;stroke:none"
         id="path18" /><path
         d="m 403.551,970.824 h 210.742 c 83.328,0 134.777,-22.023 134.777,-94.363 0,-69.824 -57.578,-97.988 -129.875,-97.988 H 403.551 Z m 0,-340.644 h 234.07 c 66.152,0 132.305,-29.403 132.305,-106.625 0,-89.442 -51.481,-128.653 -140.922,-128.653 H 403.551 Z M 227.078,242.961 h 372.531 c 180.137,0 227.914,30.629 278.161,79.68 46.531,45.339 75.992,111.472 75.992,181.347 0,86.985 -28.231,172.774 -136.024,213.215 36.739,18.363 107.793,53.891 107.793,180.106 0,90.687 -55.121,225.461 -270.773,225.461 h -427.68 z"
         style="fill:none;stroke:#241d10;stroke-width:22.22190094;stroke-linecap:butt;stroke-linejoin:miter;stroke-miterlimit:3.86369991;stroke-dasharray:none;stroke-opacity:1"
         id="path20" /><path
         d="m 1486.49,572.582 294.08,550.188 h -208.3 l -174,-382.297 -182.6,382.297 H 998.754 L 1302.69,575.059 V 242.961 h 183.8 v 329.621 0"
         style="fill:#ee2722;fill-opacity:1;fill-rule:nonzero;stroke:none"
         id="path22" /><path
         d="m 1486.49,572.582 294.08,550.188 h -208.3 l -174,-382.297 -182.6,382.297 H 998.754 L 1302.69,575.059 V 242.961 h 183.8 z"
         style="fill:none;stroke:#241d10;stroke-width:22.22190094;stroke-linecap:butt;stroke-linejoin:miter;stroke-miterlimit:3.86369991;stroke-dasharray:none;stroke-opacity:1"
         id="path24" /><path
         d="m 2250.79,568.914 h 204.61 c -37.97,-177.699 -172.77,-193.582 -213.22,-193.582 -124.93,0 -256.07,62.465 -256.07,302.664 0,225.438 121.29,316.102 252.43,316.102 129.87,0 192.37,-110.258 192.37,-144.59 h 183.82 c -9.82,121.316 -116.41,296.552 -385.98,296.552 -296.55,1.23 -430.16,-225.482 -430.16,-465.638 0,-308.77 192.44,-460.711 404.39,-460.711 160.53,0 227.93,79.641 274.51,133.523 l 18.37,-110.273 h 122.54 v 474.242 h -367.61 v -148.289 0"
         style="fill:#ee2722;fill-opacity:1;fill-rule:nonzero;stroke:none"
         id="path26" /><path
         d="m 2250.79,568.914 h 204.61 c -37.97,-177.699 -172.77,-193.582 -213.22,-193.582 -124.93,0 -256.07,62.465 -256.07,302.664 0,225.438 121.29,316.102 252.43,316.102 129.87,0 192.37,-110.258 192.37,-144.59 h 183.82 c -9.82,121.316 -116.41,296.552 -385.98,296.552 -296.55,1.23 -430.16,-225.482 -430.16,-465.638 0,-308.77 192.44,-460.711 404.39,-460.711 160.53,0 227.93,79.641 274.51,133.523 l 18.37,-110.273 h 122.54 v 474.242 h -367.61 z"
         style="fill:none;stroke:#241d10;stroke-width:22.22190094;stroke-linecap:butt;stroke-linejoin:miter;stroke-miterlimit:3.86369991;stroke-dasharray:none;stroke-opacity:1"
         id="path28" /><path
         d="m 3203.66,568.914 h 204.63 c -37.98,-177.699 -172.77,-193.582 -213.22,-193.582 -124.98,0 -256.09,62.465 -256.09,302.664 0,225.438 121.31,316.102 252.42,316.102 129.92,0 192.41,-110.258 192.41,-144.59 h 183.79 c -9.8,121.316 -116.43,296.552 -386.01,296.552 -296.52,1.23 -430.09,-225.482 -430.09,-465.638 0,-308.77 192.39,-460.711 404.39,-460.711 160.5,0 227.92,79.641 274.45,133.523 l 18.39,-110.273 h 122.53 v 474.242 h -367.6 v -148.289 0"
         style="fill:#ee2722;fill-opacity:1;fill-rule:nonzero;stroke:none"
         id="path30" /><path
         d="m 3203.66,568.914 h 204.63 c -37.98,-177.699 -172.77,-193.582 -213.22,-193.582 -124.98,0 -256.09,62.465 -256.09,302.664 0,225.438 121.31,316.102 252.42,316.102 129.92,0 192.41,-110.258 192.41,-144.59 h 183.79 c -9.8,121.316 -116.43,296.552 -386.01,296.552 -296.52,1.23 -430.09,-225.482 -430.09,-465.638 0,-308.77 192.39,-460.711 404.39,-460.711 160.5,0 227.92,79.641 274.45,133.523 l 18.39,-110.273 h 122.53 v 474.242 h -367.6 z"
         style="fill:none;stroke:#241d10;stroke-width:22.22190094;stroke-linecap:butt;stroke-linejoin:miter;stroke-miterlimit:3.86369991;stroke-dasharray:none;stroke-opacity:1"
         id="path32" /><path
         d="m 5358.4,851.695 c 0,193.615 -134.02,294.565 -306.14,294.565 -140.69,0 -205.21,-97.63 -234.97,-140.67 -59.64,94.32 -117.51,140.67 -244.92,140.67 -155.61,0 -220.12,-94.33 -249.91,-152.252 h -3.31 V 1123.08 H 4097.38 V 242.672 h 231.7 v 536.195 c 0,95.992 34.74,172.11 143.99,172.11 138.98,0 138.98,-104.247 138.98,-178.747 V 242.672 h 231.64 v 527.926 c 0,104.261 41.43,180.379 157.32,180.379 67.88,0 125.77,-43.024 125.77,-173.774 V 242.672 h 231.62 v 609.023 0"
         style="fill:#fee60e;fill-opacity:1;fill-rule:nonzero;stroke:none"
         id="path34" /><path
         d="m 5358.4,851.695 c 0,193.615 -134.02,294.565 -306.14,294.565 -140.69,0 -205.21,-97.63 -234.97,-140.67 -59.64,94.32 -117.51,140.67 -244.92,140.67 -155.61,0 -220.12,-94.33 -249.91,-152.252 h -3.31 V 1123.08 H 4097.38 V 242.672 h 231.7 v 536.195 c 0,95.992 34.74,172.11 143.99,172.11 138.98,0 138.98,-104.247 138.98,-178.747 V 242.672 h 231.64 v 527.926 c 0,104.261 41.43,180.379 157.32,180.379 67.88,0 125.77,-43.024 125.77,-173.774 V 242.672 h 231.62 z"
         style="fill:none;stroke:#241d10;stroke-width:22.22190094;stroke-linecap:butt;stroke-linejoin:miter;stroke-miterlimit:3.86369991;stroke-dasharray:none;stroke-opacity:1"
         id="path36" /><path
         d="m 6056.23,558.746 c 0,-107.562 -104.23,-173.769 -206.85,-173.769 -44.67,0 -107.65,24.828 -107.65,105.902 0,96.008 71.22,117.531 157.26,132.426 95.98,14.902 134.1,29.773 157.24,48 z m 226.71,332.652 c 0,216.802 -226.71,254.862 -350.85,254.862 -180.39,0 -367.36,-38.06 -393.9,-307.83 h 223.45 c 6.62,51.32 26.47,122.472 142.34,122.472 59.57,0 152.25,-4.968 152.25,-102.605 0,-49.633 -44.67,-64.527 -81.15,-69.492 l -208.5,-31.465 c -147.27,-21.504 -256.47,-109.219 -256.47,-281.348 0,-182.051 135.72,-256.512 268.11,-256.512 157.19,0 231.72,72.821 284.63,127.418 4.96,-49.609 8.28,-62.867 21.49,-104.226 h 249.98 v 34.738 c -28.18,9.961 -51.38,33.11 -51.38,137.387 v 476.601 0"
         style="fill:#fee60e;fill-opacity:1;fill-rule:evenodd;stroke:none"
         id="path38" /><path
         d="m 6056.23,558.746 c 0,-107.562 -104.23,-173.769 -206.85,-173.769 -44.67,0 -107.65,24.828 -107.65,105.902 0,96.008 71.22,117.531 157.26,132.426 95.98,14.902 134.1,29.773 157.24,48 z m 226.71,332.652 c 0,216.802 -226.71,254.862 -350.85,254.862 -180.39,0 -367.36,-38.06 -393.9,-307.83 h 223.45 c 6.62,51.32 26.47,122.472 142.34,122.472 59.57,0 152.25,-4.968 152.25,-102.605 0,-49.633 -44.67,-64.527 -81.15,-69.492 l -208.5,-31.465 c -147.27,-21.504 -256.47,-109.219 -256.47,-281.348 0,-182.051 135.72,-256.512 268.11,-256.512 157.19,0 231.72,72.821 284.63,127.418 4.96,-49.609 8.28,-62.867 21.49,-104.226 h 249.98 v 34.738 c -28.18,9.961 -51.38,33.11 -51.38,137.387 z"
         style="fill:none;stroke:#241d10;stroke-width:22.22190094;stroke-linecap:butt;stroke-linejoin:miter;stroke-miterlimit:3.86369991;stroke-dasharray:none;stroke-opacity:1"
         id="path40" /><path
         d="m 6977.44,691.133 289.64,431.947 H 6994.03 L 6848.36,866.578 6699.42,1123.08 h -281.37 l 288,-431.947 -299.58,-448.461 h 279.69 l 152.24,264.789 152.24,-264.789 h 286.37 l -299.57,448.461 v 0"
         style="fill:#fee60e;fill-opacity:1;fill-rule:nonzero;stroke:none"
         id="path42" /><path
         d="m 6977.44,691.133 289.64,431.947 H 6994.03 L 6848.36,866.578 6699.42,1123.08 h -281.37 l 288,-431.947 -299.58,-448.461 h 279.69 l 152.24,264.789 152.24,-264.789 h 286.37 z"
         style="fill:none;stroke:#241d10;stroke-width:22.22190094;stroke-linecap:butt;stroke-linejoin:miter;stroke-miterlimit:3.86369991;stroke-dasharray:none;stroke-opacity:1"
         id="path44" /><path
         d="M 13.8867,1334.46 H 7572.54 V 13.8906 H 13.8867 Z"
         style="fill:none;stroke:#241d10;stroke-width:27.77739906;stroke-linecap:butt;stroke-linejoin:miter;stroke-miterlimit:3.86369991;stroke-dasharray:none;stroke-opacity:1"
         id="path46" /><path
         d="M 3793.21,1329.77 V 14.082"
         style="fill:none;stroke:#241d10;stroke-width:27.77739906;stroke-linecap:butt;stroke-linejoin:miter;stroke-miterlimit:3.86369991;stroke-dasharray:none;stroke-opacity:1"
         id="path48" /><path
         d="m 7203.98,737.816 c 13.42,0 23.31,-1.3 29.63,-3.894 11.24,-4.676 16.84,-13.844 16.84,-27.524 0,-9.714 -3.5,-16.855 -10.59,-21.421 -3.86,-2.426 -9.02,-4.18 -15.82,-5.286 8.56,-1.336 14.74,-4.882 18.68,-10.628 4.08,-5.79 6.01,-11.375 6.01,-16.821 v -8.012 c 0,-2.511 0.09,-5.187 0.23,-8.082 0.24,-2.894 0.54,-4.777 0.92,-5.679 l 0.76,-1.305 h -18.02 c -0.02,0.328 -0.17,0.691 -0.22,1.051 -0.1,0.363 -0.18,0.762 -0.27,1.199 l -0.36,3.539 v 8.606 c 0,12.609 -3.48,20.91 -10.28,24.957 -4.09,2.336 -11.12,3.511 -21.28,3.511 h -15.19 v -42.863 h -19.12 v 108.652 z m 20.44,-17.117 c -4.7,2.735 -12.4,4.043 -22.98,4.043 h -16.42 v -39.351 h 17.27 c 8.1,0 14.26,0.797 18.28,2.414 7.47,2.976 11.12,8.601 11.2,16.972 0,7.918 -2.46,13.246 -7.35,15.922 z m 51.56,-107.734 c -19.37,-19.426 -42.75,-29.117 -70.15,-29.117 -27.37,0 -50.76,9.691 -69.98,29.117 -19.14,19.332 -28.7,42.715 -28.7,70.238 0,27.25 9.64,50.527 28.93,69.848 19.28,19.269 42.51,28.855 69.75,28.855 27.4,0 50.78,-9.586 70.15,-28.855 19.37,-19.211 28.93,-42.504 28.93,-69.848 0,-27.414 -9.56,-50.816 -28.93,-70.238 z m -130.32,130.523 c -16.52,-16.636 -24.77,-36.718 -24.77,-60.285 0,-23.726 8.23,-43.945 24.62,-60.691 16.58,-16.692 36.71,-25.067 60.32,-25.067 23.62,0 43.69,8.375 60.26,25.067 16.53,16.746 24.81,36.965 24.85,60.691 0,23.567 -8.32,43.649 -24.85,60.285 -16.59,16.707 -36.71,25.102 -60.26,25.102 -23.46,0 -43.53,-8.395 -60.17,-25.102 v 0"
         style="fill:#fee60e;fill-opacity:1;fill-rule:evenodd;stroke:none"
         id="path50" /></g></g></svg>