<svg width="256" height="256" viewBox="0 0 256 256" fill="none" xmlns="http://www.w3.org/2000/svg">
<rect width="256" height="256" fill="#00173A"/>
<path d="M201 66.1205V75.0244C200.992 75.2643 200.906 75.4953 200.754 75.6827L159.627 127.998C159.473 128.183 159.388 128.416 159.388 128.656C159.388 128.896 159.473 129.128 159.627 129.314L200.754 181.283C200.906 181.47 200.992 181.701 201 181.941V190.88C200.995 191.102 200.925 191.319 200.797 191.503C200.67 191.687 200.49 191.83 200.281 191.914C200.072 191.999 199.842 192.022 199.62 191.979C199.398 191.937 199.194 191.832 199.032 191.676L129.537 129.349C129.419 129.251 129.324 129.129 129.259 128.992C129.194 128.854 129.16 128.704 129.16 128.552C129.16 128.4 129.194 128.25 129.259 128.112C129.324 127.975 129.419 127.853 129.537 127.755L199.032 65.3237C199.194 65.1683 199.398 65.063 199.62 65.0208C199.842 64.9785 200.072 65.0011 200.281 65.0857C200.49 65.1704 200.67 65.3134 200.797 65.4973C200.925 65.6811 200.995 65.8977 201 66.1205V66.1205ZM56.001 66.1205V75.0244C55.9953 75.1448 56.0141 75.2651 56.0563 75.3782C56.0986 75.4912 56.1635 75.5948 56.2471 75.6827L97.374 127.998C97.5282 128.183 97.6125 128.416 97.6125 128.656C97.6125 128.896 97.5282 129.128 97.374 129.314L56.2471 181.283C56.1635 181.371 56.0986 181.474 56.0563 181.587C56.0141 181.7 55.9953 181.821 56.001 181.941V190.88C56.0055 191.102 56.076 191.319 56.2037 191.503C56.3315 191.687 56.5109 191.83 56.7201 191.914C56.9292 191.999 57.1589 192.022 57.3808 191.979C57.6028 191.937 57.8074 191.832 57.9695 191.676L127.604 129.349C127.722 129.251 127.817 129.129 127.883 128.992C127.948 128.854 127.982 128.704 127.982 128.552C127.982 128.4 127.948 128.25 127.883 128.112C127.817 127.975 127.722 127.853 127.604 127.755L57.9695 65.3237C57.8074 65.1683 57.6028 65.063 57.3808 65.0208C57.1589 64.9785 56.9292 65.0011 56.7201 65.0857C56.5109 65.1704 56.3315 65.3134 56.2037 65.4973C56.076 65.6811 56.0055 65.8977 56.001 66.1205" fill="#D52316"/>
</svg>
