<svg width="231" height="24" viewBox="0 0 231 24" fill="none" xmlns="http://www.w3.org/2000/svg">
<g clip-path="url(#clip0_1609_9487)">
<path d="M24.4587 0.496094H22.3555V23.4994H24.4587V0.496094Z" fill="#00173A"/>
<path d="M75.4512 0.502791H63.0078V23.4935H65.111V13.0466H75.4512C77.1163 13.0466 78.7132 12.3852 79.8906 11.2078C81.0679 10.0304 81.7294 8.43351 81.7294 6.76843C81.7294 5.10335 81.0679 3.50647 79.8906 2.32908C78.7132 1.15169 77.1163 0.490234 75.4512 0.490234M75.4512 10.9309H65.111V2.60599H75.4512C76.5568 2.60599 77.6171 3.04519 78.3989 3.82698C79.1807 4.60876 79.6199 5.6691 79.6199 6.77471C79.6199 7.88032 79.1807 8.94066 78.3989 9.72244C77.6171 10.5042 76.5568 10.9434 75.4512 10.9434" fill="#00173A"/>
<path d="M0 23.4994H2.1032V13.0525H14.4712V10.9493H2.1032V2.59929H16.5996V0.496094H0V23.4994Z" fill="#00173A"/>
<path d="M173.494 0.496094H171.391V23.4994H173.494V0.496094Z" fill="#00173A"/>
<path d="M228.892 20.0599L212.436 0.365234H210.578V23.4878H212.681V3.93753L229.143 23.6322H231.001V0.497077H228.892V20.0599Z" fill="#00173A"/>
<path d="M146.039 2.60515H155.205V23.4927H157.308V2.60515H166.481V0.501953H146.039V2.60515Z" fill="#00173A"/>
<path d="M141.197 0.501953H139.094V23.4927H141.197V0.501953Z" fill="#00173A"/>
<path d="M56.7102 0.714769V2.32827C56.7089 2.37174 56.6935 2.41359 56.6663 2.44755L49.3208 11.9276C49.2933 11.9613 49.2782 12.0034 49.2782 12.0469C49.2782 12.0904 49.2933 12.1325 49.3208 12.1662L56.6663 21.5835C56.6935 21.6175 56.7089 21.6593 56.7102 21.7028V23.3226C56.7094 23.3629 56.6969 23.4022 56.674 23.4355C56.6512 23.4688 56.6192 23.4947 56.5818 23.5101C56.5445 23.5254 56.5034 23.5295 56.4638 23.5218C56.4242 23.5142 56.3876 23.4951 56.3587 23.467L43.9467 12.1725C43.9256 12.1548 43.9086 12.1327 43.8969 12.1078C43.8853 12.0828 43.8793 12.0556 43.8793 12.0281C43.8793 12.0005 43.8853 11.9733 43.8969 11.9484C43.9086 11.9235 43.9256 11.9014 43.9467 11.8837L56.3587 0.57037C56.3876 0.54222 56.4242 0.523141 56.4638 0.515481C56.5034 0.507821 56.5445 0.511913 56.5818 0.527253C56.6192 0.542594 56.6512 0.568515 56.674 0.601829C56.6969 0.635143 56.7094 0.674398 56.7102 0.714769ZM30.8127 0.714769V2.32827C30.8117 2.35008 30.815 2.37187 30.8226 2.39236C30.8301 2.41285 30.8417 2.43162 30.8566 2.44755L38.2021 11.9276C38.2297 11.9613 38.2447 12.0034 38.2447 12.0469C38.2447 12.0904 38.2297 12.1325 38.2021 12.1662L30.8566 21.5835C30.8417 21.5994 30.8301 21.6182 30.8226 21.6387C30.815 21.6592 30.8117 21.681 30.8127 21.7028V23.3226C30.8135 23.3629 30.8261 23.4022 30.8489 23.4355C30.8717 23.4688 30.9038 23.4947 30.9411 23.5101C30.9785 23.5254 31.0195 23.5295 31.0591 23.5218C31.0988 23.5142 31.1353 23.4951 31.1643 23.467L43.6014 12.1725C43.6225 12.1548 43.6395 12.1327 43.6511 12.1078C43.6628 12.0828 43.6688 12.0556 43.6688 12.0281C43.6688 12.0005 43.6628 11.9733 43.6511 11.9484C43.6395 11.9235 43.6225 11.9014 43.6014 11.8837L31.1643 0.57037C31.1353 0.54222 31.0988 0.523141 31.0591 0.515481C31.0195 0.507821 30.9785 0.511913 30.9411 0.527253C30.9038 0.542594 30.8717 0.568515 30.8489 0.601829C30.8261 0.635143 30.8135 0.674398 30.8127 0.714769Z" fill="#D52316"/>
<path d="M118.864 23.3553C117.257 23.28 115.865 23.1775 114.689 23.0477V21.0952C115.945 21.204 117.349 21.3003 118.902 21.384C120.454 21.4677 121.725 21.5117 122.713 21.5158C123.782 21.5278 124.851 21.4796 125.914 21.3714C126.634 21.2849 127.334 21.0724 127.98 20.7436C128.245 20.62 128.482 20.4421 128.674 20.2215C128.867 20.001 129.011 19.7425 129.097 19.4629C129.302 18.6933 129.395 17.8983 129.374 17.1023C129.406 16.2498 129.339 15.3964 129.173 14.5596C129.05 14.2784 128.863 14.0296 128.628 13.8324C128.393 13.6353 128.115 13.4953 127.817 13.4232C127.031 13.2196 126.228 13.0872 125.418 13.0277L119.008 12.3999C117.836 12.3657 116.688 12.0514 115.662 11.4833C114.987 11.0724 114.488 10.426 114.262 9.66888C114.027 8.6823 113.924 7.66902 113.954 6.65534C113.954 4.94349 114.277 3.64599 114.921 2.76286C115.62 1.84558 116.629 1.21401 117.759 0.986129C119.41 0.641099 121.095 0.487317 122.782 0.527821C124.194 0.527821 125.619 0.571768 127.045 0.659663C128.18 0.715268 129.312 0.834743 130.435 1.01752V3.0391C129.455 2.93237 128.288 2.8382 126.919 2.76286C125.55 2.68752 124.295 2.64985 123.152 2.64985C121.99 2.63537 120.827 2.7004 119.674 2.84448C118.969 2.90875 118.28 3.09572 117.64 3.39696C117.388 3.50209 117.159 3.65688 116.969 3.85211C116.778 4.04734 116.628 4.27901 116.529 4.53331C116.304 5.21676 116.216 5.93794 116.271 6.65534C116.241 7.38522 116.322 8.1154 116.51 8.82132C116.581 9.04558 116.7 9.25187 116.858 9.42624C117.016 9.60062 117.21 9.73903 117.426 9.83211C118.125 10.0962 118.859 10.2549 119.605 10.303L125.827 10.8931C127.089 10.9657 128.338 11.1955 129.543 11.5774C129.945 11.7246 130.308 11.9584 130.609 12.2623C130.91 12.5661 131.139 12.9325 131.282 13.3353C131.622 14.5092 131.769 15.7306 131.715 16.9516C131.715 18.9104 131.387 20.3606 130.73 21.3024C130.1 22.2307 129.134 22.8788 128.036 23.1105C126.498 23.4085 124.932 23.539 123.365 23.4997C121.98 23.4997 120.48 23.4621 118.864 23.3867" fill="#00173A"/>
<path d="M105.055 3.23955C103.209 1.09241 100.629 0 97.383 0C94.1372 0 91.5694 1.08613 89.6985 3.22072C87.8276 5.3553 86.8984 8.28722 86.8984 11.96C86.8984 15.6327 87.8276 18.6023 89.6734 20.7494C91.5192 22.8966 94.1121 24.0016 97.3516 24.0016C100.591 24.0016 103.184 22.9091 105.042 20.7494C106.901 18.5897 107.817 15.6578 107.817 11.9976C107.817 8.33745 106.888 5.38042 105.055 3.24583M103.372 19.362C101.997 21.0382 99.9759 21.8732 97.3516 21.8732C94.7273 21.8732 92.7246 21.0131 91.3497 19.3243C89.9748 17.6355 89.2402 15.143 89.2402 11.9788C89.2402 8.81459 89.9559 6.37237 91.3685 4.67726C92.7811 2.98214 94.7839 2.16598 97.383 2.16598C99.9822 2.16598 102.004 3.00726 103.379 4.67726C104.754 6.34726 105.476 8.78948 105.476 11.9914C105.476 15.1932 104.772 17.6417 103.379 19.3557" fill="#00173A"/>
<path d="M199.817 3.23955C197.971 1.09241 195.384 0 192.114 0C188.843 0 186.3 1.08613 184.429 3.22072C182.558 5.3553 181.629 8.28722 181.629 11.96C181.629 15.6327 182.564 18.6023 184.404 20.7494C186.243 22.8966 188.843 24.0016 192.082 24.0016C195.322 24.0016 197.921 22.9091 199.773 20.7494C201.625 18.5897 202.548 15.6578 202.548 11.9976C202.548 8.33745 201.619 5.38042 199.792 3.24583M198.109 19.362C196.734 21.0382 194.706 21.8732 192.082 21.8732C189.458 21.8732 187.461 21.0131 186.08 19.3243C184.699 17.6355 183.977 15.143 183.977 11.9788C183.977 8.81459 184.693 6.37237 186.099 4.67726C187.505 2.98214 189.521 2.16598 192.114 2.16598C194.706 2.16598 196.734 3.00726 198.109 4.67726C199.484 6.34726 200.206 8.82087 200.206 12.0039C200.206 15.187 199.497 17.6543 198.109 19.3682" fill="#00173A"/>
</g>
<defs>
<clipPath id="clip0_1609_9487">
<rect width="231" height="23.9953" fill="white"/>
</clipPath>
</defs>
</svg>
