<svg xmlns="http://www.w3.org/2000/svg" xmlns:xlink="http://www.w3.org/1999/xlink" viewBox="0 0 215.385 28" overflow="visible"><path d="M 10.897 0 L 8.55 4.075 L 7.048 6.677 L 4.694 10.752 L 14.639 28 L 20.777 17.343 L 17.257 15.305 L 14.639 19.85 L 9.389 10.752 L 13.245 4.076 L 23.717 4.076 L 21.105 8.627 L 24.626 10.665 L 30.769 0 L 10.898 0 Z M 6.182 0 L 2.347 6.662 L 0 2.587 L 1.491 0 Z M 51.479 21.691 C 50.42 21.691 49.489 21.463 48.688 21.004 C 47.89 20.536 47.242 19.85 46.82 19.027 C 46.376 18.168 46.155 17.18 46.155 16.062 L 46.155 11.937 C 46.155 10.819 46.376 9.839 46.82 8.993 C 47.278 8.134 47.915 7.474 48.731 7.016 C 49.546 6.543 50.491 6.307 51.565 6.307 L 53.841 6.307 C 54.857 6.307 55.759 6.529 56.546 6.973 C 57.325 7.394 57.96 8.037 58.371 8.821 C 58.8 9.608 59.015 10.526 59.015 11.572 L 56.546 11.572 C 56.546 10.655 56.296 9.917 55.794 9.358 C 55.294 8.8 54.642 8.521 53.841 8.521 L 51.565 8.521 C 50.691 8.521 49.99 8.843 49.46 9.488 C 48.931 10.132 48.666 10.977 48.666 12.023 L 48.666 15.977 C 48.666 17.036 48.924 17.889 49.439 18.533 C 49.955 19.163 50.635 19.478 51.478 19.478 L 53.798 19.478 C 54.628 19.478 55.301 19.163 55.816 18.533 C 56.332 17.903 56.589 17.086 56.589 16.083 L 59.058 16.083 C 59.058 17.201 58.836 18.183 58.393 19.028 C 57.983 19.852 57.341 20.539 56.546 21.004 C 55.759 21.463 54.842 21.692 53.798 21.692 L 51.479 21.692 Z M 76.094 21.52 C 75.536 21.52 75.085 21.355 74.742 21.025 C 74.413 20.682 74.248 20.238 74.248 19.694 L 74.248 6.479 L 85.263 6.479 L 85.263 8.649 L 76.759 8.649 L 76.759 12.732 L 84.619 12.732 L 84.619 14.923 L 76.76 14.923 L 76.76 19.35 L 85.263 19.35 L 85.263 21.52 Z M 100.633 6.479 L 108.384 6.479 C 109.615 6.479 110.61 6.815 111.368 7.489 C 112.127 8.163 112.507 9.05 112.507 10.153 L 112.507 11.679 C 112.516 12.398 112.273 13.097 111.82 13.656 C 111.375 14.214 110.753 14.63 109.952 14.902 L 109.952 14.945 C 110.409 15.217 110.774 15.568 111.046 15.998 C 111.332 16.413 111.576 16.957 111.776 17.63 L 112.979 21.52 L 110.38 21.52 L 109.221 17.803 C 109.036 17.158 108.749 16.663 108.363 16.32 C 107.993 15.983 107.51 15.799 107.01 15.804 L 103.145 15.804 L 103.145 21.52 L 100.633 21.52 L 100.633 6.478 Z M 107.825 13.634 C 108.484 13.634 109.007 13.455 109.393 13.097 C 109.794 12.738 109.995 12.274 109.995 11.701 L 109.995 10.218 C 109.995 9.76 109.844 9.387 109.543 9.101 C 109.243 8.814 108.842 8.67 108.341 8.67 L 103.145 8.67 L 103.145 13.634 Z M 128.088 6.479 L 135.839 6.479 C 137.07 6.479 138.065 6.815 138.823 7.489 C 139.582 8.163 139.962 9.05 139.962 10.153 L 139.962 11.679 C 139.962 12.424 139.732 13.083 139.274 13.656 C 138.83 14.214 138.208 14.63 137.406 14.902 L 137.406 14.945 C 137.864 15.217 138.229 15.568 138.501 15.998 C 138.787 16.413 139.031 16.957 139.231 17.63 L 140.433 21.52 L 137.835 21.52 L 136.676 17.803 C 136.49 17.158 136.203 16.663 135.818 16.32 C 135.448 15.983 134.965 15.799 134.465 15.804 L 130.6 15.804 L 130.6 21.52 L 128.088 21.52 L 128.088 6.478 Z M 135.28 13.634 C 135.939 13.634 136.462 13.455 136.847 13.097 C 137.249 12.738 137.449 12.274 137.449 11.701 L 137.449 10.218 C 137.449 9.76 137.299 9.387 136.998 9.101 C 136.698 8.814 136.297 8.67 135.796 8.67 L 130.6 8.67 L 130.6 13.634 Z M 156.748 6.479 L 159.261 6.479 L 159.261 21.521 L 156.748 21.521 L 156.748 6.478 Z M 180.256 21.691 C 179.169 21.691 178.209 21.463 177.379 21.004 C 176.56 20.543 175.889 19.857 175.446 19.027 C 174.989 18.168 174.759 17.18 174.759 16.062 L 174.759 11.937 C 174.759 10.819 174.989 9.839 175.446 8.993 C 175.881 8.158 176.554 7.469 177.379 7.016 C 178.209 6.543 179.169 6.307 180.256 6.307 L 182.532 6.307 C 183.62 6.307 184.579 6.543 185.409 7.016 C 186.244 7.464 186.924 8.153 187.363 8.993 C 187.821 9.839 188.05 10.819 188.05 11.937 L 188.05 16.062 C 188.05 17.18 187.821 18.168 187.363 19.028 C 186.916 19.861 186.237 20.548 185.409 21.004 C 184.579 21.463 183.62 21.692 182.532 21.692 L 180.256 21.692 Z M 182.532 19.478 C 183.419 19.478 184.142 19.156 184.7 18.512 C 185.258 17.868 185.538 17.022 185.538 15.977 L 185.538 12.023 C 185.538 10.977 185.258 10.133 184.7 9.488 C 184.157 8.843 183.433 8.521 182.532 8.521 L 180.277 8.521 C 179.376 8.521 178.645 8.843 178.087 9.488 C 177.544 10.132 177.271 10.977 177.271 12.023 L 177.271 15.977 C 177.271 17.022 177.544 17.867 178.087 18.512 C 178.645 19.156 179.376 19.478 180.277 19.478 Z M 203.082 6.479 L 205.336 6.479 L 212.937 17.481 L 212.937 6.479 L 215.385 6.479 L 215.385 21.521 L 213.109 21.521 L 205.53 10.561 L 205.53 21.52 L 203.082 21.52 L 203.082 6.478 Z" fill="rgb(53,60,65)"></path></svg>
