<svg width="110" height="21" viewBox="0 0 110 21" fill="none" xmlns="http://www.w3.org/2000/svg">
<path d="M24.9435 20.8108L33.1704 0H37.2836L29.4944 20.8108H24.9435Z" fill="#111111"/>
<path d="M37.2836 0H41.6595L49.7114 20.8108H45.1605L37.2836 0Z" fill="#111111"/>
<path d="M32.9694 11.5265H41.6465L42.8688 14.7564H31.7601L32.9694 11.5265Z" fill="#111111"/>
<path d="M58.6383 0H54.0873V20.8102H58.6383V0Z" fill="#111111"/>
<path d="M58.6383 0L65.1147 20.8108H70.1912L67.7407 16.9194L62.3143 0H58.6383Z" fill="#111111"/>
<path d="M72.9044 0L67.7407 16.9194L70.1912 20.8108L76.8426 0H72.9044Z" fill="#111111"/>
<path d="M85.2321 20.8108L93.459 0H97.5722L89.783 20.8108H85.2321Z" fill="#111111"/>
<path d="M97.5722 0H101.948L110 20.8108H105.449L97.5722 0Z" fill="#111111"/>
<path d="M93.258 11.5265H101.935L103.157 14.7564H92.0487L93.258 11.5265Z" fill="#111111"/>
<path d="M21.3547 0H0.476175V3.46826H21.3547V0Z" fill="#111111"/>
<path d="M81.3935 0H76.8426L76.8426 20.8102H81.3935V0Z" fill="#111111"/>
<path d="M21.7131 17.5733H0V20.8102H21.7131V17.5733Z" fill="#111111"/>
<path d="M0 17.5733L21.3547 3.46826L21.3547 7.65457L6.51413 17.5733L0 17.5733Z" fill="#111111"/>
</svg>
