<svg width="100%" height="100%" viewbox="0 0 52 53" fill="none" xmlns="http://www.w3.org/2000/svg">
<path d="M39.1431 9.17285C39.4738 9.20564 39.7849 9.35182 40.022 9.58887L45.7993 15.3672L45.8735 15.4463C46.065 15.6688 46.178 15.9409 46.2104 16.2236C46.2131 16.2463 46.2147 16.2691 46.2163 16.292C46.2182 16.32 46.22 16.3479 46.2202 16.376C46.2203 16.3825 46.2222 16.389 46.2222 16.3955V19.458C46.2221 21.6542 45.0674 23.5792 43.3335 24.6641V27.9443C43.3335 28.7421 42.6869 29.3896 41.8892 29.3896C41.0915 29.3895 40.4448 28.742 40.4448 27.9443V25.585C40.3252 25.5919 40.2048 25.5967 40.0835 25.5967C38.1997 25.5966 36.5152 24.7468 35.3892 23.4111C34.2631 24.747 32.5788 25.5967 30.6948 25.5967C28.8107 25.5966 27.1255 24.7472 25.9995 23.4111C24.8735 24.7467 23.1899 25.5966 21.3062 25.5967C19.4205 25.5966 17.7339 24.7461 16.6079 23.4082C15.482 24.7417 13.7995 25.5897 11.9175 25.5898C11.7966 25.5898 11.6763 25.585 11.5571 25.5781V40.9443H20.2241V37.9248C20.2244 37.1273 20.8709 36.4805 21.6685 36.4805C22.4658 36.4808 23.1125 37.1275 23.1128 37.9248V42.3887C23.1128 43.1862 22.4659 43.8327 21.6685 43.833H10.1128C9.31507 43.833 8.6685 43.1864 8.66846 42.3887V24.6592C6.93338 23.5746 5.7789 21.6482 5.77881 19.4512V16.3809C5.77904 16.341 5.78116 16.3013 5.78467 16.2617C5.78575 16.2493 5.78621 16.2369 5.7876 16.2246C5.79684 16.144 5.81284 16.0643 5.83545 15.9863C5.84088 15.9676 5.84687 15.9491 5.85303 15.9307C5.86148 15.9054 5.87052 15.8803 5.88037 15.8555C5.88594 15.8415 5.89098 15.8273 5.89697 15.8135C5.91235 15.778 5.92949 15.7432 5.94775 15.709C5.95326 15.6987 5.95959 15.6889 5.96533 15.6787C5.98209 15.649 5.99913 15.6194 6.01807 15.5908C6.02376 15.5822 6.02977 15.5739 6.03564 15.5654C6.04361 15.5539 6.05173 15.5425 6.06006 15.5312L6.10791 15.4697C6.11173 15.4651 6.11575 15.4606 6.11963 15.4561C6.14544 15.4255 6.17306 15.3958 6.20166 15.3672L11.98 9.58887L12.0854 9.49316C12.3423 9.28276 12.6655 9.16612 13.0005 9.16602H39.0005L39.1431 9.17285ZM30.4819 27.9521C31.21 28.0263 31.7787 28.641 31.7788 29.3887V40.9434H40.4448V37.2891C40.445 36.4915 41.0917 35.8449 41.8892 35.8447C42.6868 35.8448 43.3334 36.4915 43.3335 37.2891V42.3877C43.3335 43.1854 42.6869 43.832 41.8892 43.832H30.353C30.3468 43.8321 30.3407 43.833 30.3345 43.833C29.6732 43.833 29.1162 43.3886 28.9448 42.7822C28.9093 42.6568 28.8892 42.5245 28.8892 42.3877C28.8892 42.3815 28.8901 42.3753 28.8901 42.3691V30.833H23.1118V33.7217C23.1118 34.5193 22.4651 35.1658 21.6675 35.166C20.8697 35.166 20.2231 34.5194 20.2231 33.7217V29.3887L20.231 29.2412C20.3049 28.5128 20.9196 27.9443 21.6675 27.9443H30.3345L30.4819 27.9521ZM41.8892 30.832C42.8863 30.832 43.6948 31.6405 43.6948 32.6377C43.6948 33.6348 42.8863 34.4434 41.8892 34.4434C40.8921 34.4432 40.0835 33.6348 40.0835 32.6377C40.0835 31.6406 40.8921 30.8321 41.8892 30.832ZM18.0562 19.458C18.0563 21.2529 19.5113 22.7079 21.3062 22.708C23.101 22.7079 24.556 21.2528 24.5562 19.458V17.833H18.0562V19.458ZM27.4448 19.458C27.445 21.2529 28.8999 22.7079 30.6948 22.708C32.4898 22.708 33.9447 21.2529 33.9448 19.458V17.833H27.4448V19.458ZM36.8335 19.458C36.8337 21.2529 38.2886 22.7079 40.0835 22.708C41.8782 22.7077 43.3333 21.2527 43.3335 19.458V17.833H36.8335V19.458ZM8.66748 19.4512C8.66759 20.7908 9.47781 21.9411 10.6353 22.4385C10.6559 22.4465 10.6766 22.454 10.6968 22.4629C11.0737 22.6158 11.4857 22.7012 11.9175 22.7012C13.7122 22.7009 15.1673 21.2459 15.1675 19.4512V17.833H8.66748V19.4512ZM10.7104 14.9434H41.2915L38.4019 12.0547H13.5991L10.7104 14.9434Z" fill="#061602"></path>
</svg>