<svg xmlns="http://www.w3.org/2000/svg" id="b" viewBox="0 0 115.2 116"><defs><clipPath id="d"><path d="m40.1 84.6.4-.5-12-13.8H27c-3.3 0-6.3-1.4-8.5-3.9l-3.6-4.1L.1 83c-.2.3-.2.6 0 .9l22.2 25.5c1.9 2.2 5.2 2.8 7.7 1.3l18-10.2-7.6-8.7c-1.8-2-1.9-4.9-.3-7.1z" class="g"/></clipPath><clipPath id="e"><path d="m98.5 63.2 13.1 15c.3.3.2.8-.2 1.1l-19 10.8c-2.6 1.5-5.8.9-7.7-1.3L72.7 75h-1.5c-3.3 0-6.3-1.4-8.5-3.9L59.1 67 44.2 87.5c-.2.3-.2.6 0 .9l22.2 25.5c1.9 2.2 5.2 2.8 7.7 1.3l23.6-13.4c.4-.2.8-.6 1.1-1l16.1-22.2c.2-.3.2-.6 0-.9l-14.3-16.4c-.5-.5-1.2-.7-1.9-.3-.8.5-1 1.6-.4 2.3z" class="g"/></clipPath><clipPath id="f"><path d="m30.1 64.6 18-10.2-7.6-8.7c-1.7-2-1.9-5-.3-7.1l.4-.5-19.1-21.9c-.3-.3-.2-.8.2-1.1L42.1 3.6c1.7-1 3.9-.6 5.2.9l8.9 10.2c.5.5 1.3.7 1.9.3.8-.5.9-1.5.3-2.2l-9-10.4C47.2-.1 43.6-.7 40.8.9L16.7 14.6c-.4.2-.8.6-1.1 1L.1 36.9c-.2.3-.2.6 0 .9l22.2 25.5c1.9 2.2 5.2 2.8 7.8 1.3z" class="g"/></clipPath><style>.g{fill:#ff8200}</style></defs><g id="c"><path d="M84.9 5.5 60.8 19.2c-.4.2-.8.6-1.1 1L44.2 41.6c-.2.3-.2.6 0 .9L66.4 68c1.9 2.2 5.2 2.8 7.7 1.3l23.6-13.4c.4-.2.8-.6 1.1-1l16.1-22.2c.2-.3.2-.6 0-.9L93.5 7c-2.2-2.5-5.8-3.1-8.6-1.5zm-.2 37.2L65.6 20.8c-.3-.3-.2-.8.2-1.1L86.2 8.1c1.7-1 3.9-.6 5.2.9l20.2 23.2c.3.3.2.8-.2 1.1l-19 10.8c-2.6 1.5-5.8.9-7.7-1.3zM40.1 84.6l.4-.5-12-13.8H27c-3.3 0-6.3-1.4-8.5-3.9l-3.6-4.1L.1 83c-.2.3-.2.6 0 .9l22.2 25.5c1.9 2.2 5.2 2.8 7.7 1.3l18-10.2-7.6-8.7c-1.8-2-1.9-4.9-.3-7.1z" class="g"/><g clip-path="url(#d)"><path d="M40.8 46.9 16.7 60.6c-.4.2-.8.6-1.1 1L.1 83c-.2.3-.2.6 0 .9l22.2 25.5c1.9 2.2 5.2 2.8 7.7 1.3l23.6-13.4c.4-.2.8-.6 1.1-1l16.1-22.2c.2-.3.2-.6 0-.9L49.3 48.5c-2.2-2.5-5.8-3.1-8.6-1.5zm-.2 37.2L21.5 62.2c-.3-.3-.2-.8.2-1.1l20.4-11.6c1.7-1 3.9-.6 5.2.9l20.2 23.2c.3.3.2.8-.2 1.1l-19 10.8c-2.6 1.5-5.8.9-7.7-1.3z" class="g"/></g><path d="m98.5 63.2 13.1 15c.3.3.2.8-.2 1.1l-19 10.8c-2.6 1.5-5.8.9-7.7-1.3L72.7 75h-1.5c-3.3 0-6.3-1.4-8.5-3.9L59.1 67 44.2 87.5c-.2.3-.2.6 0 .9l22.2 25.5c1.9 2.2 5.2 2.8 7.7 1.3l23.6-13.4c.4-.2.8-.6 1.1-1l16.1-22.2c.2-.3.2-.6 0-.9l-14.3-16.4c-.5-.5-1.2-.7-1.9-.3-.8.5-1 1.6-.4 2.3z" class="g"/><g clip-path="url(#e)"><path d="M84.9 51.5 60.8 65.2c-.4.2-.8.6-1.1 1L44.2 87.6c-.2.3-.2.6 0 .9L66.4 114c1.9 2.2 5.2 2.8 7.7 1.3l23.6-13.4c.4-.2.8-.6 1.1-1l16.1-22.2c.2-.3.2-.6 0-.9L93.4 53.1c-2.2-2.5-5.8-3.1-8.6-1.5zm-.2 37.2L65.6 66.8c-.3-.3-.2-.8.2-1.1l20.4-11.6c1.7-1 3.9-.6 5.2.9l20.2 23.2c.3.3.2.8-.2 1.1l-19 10.8c-2.6 1.5-5.8.9-7.7-1.3z" class="g"/></g><path d="m30.1 64.6 18-10.2-7.6-8.7c-1.7-2-1.9-5-.3-7.1l.4-.5-19.1-21.9c-.3-.3-.2-.8.2-1.1L42.1 3.6c1.7-1 3.9-.6 5.2.9l8.9 10.2c.5.5 1.3.7 1.9.3.8-.5.9-1.5.3-2.2l-9-10.4C47.2-.1 43.6-.7 40.8.9L16.7 14.6c-.4.2-.8.6-1.1 1L.1 36.9c-.2.3-.2.6 0 .9l22.2 25.5c1.9 2.2 5.2 2.8 7.8 1.3z" class="g"/><g clip-path="url(#f)"><path d="M40.8.9 16.7 14.6c-.4.2-.8.6-1.1 1L.1 36.9c-.2.3-.2.6 0 .9l22.2 25.5c1.9 2.2 5.2 2.8 7.7 1.3l23.6-13.4c.4-.2.8-.6 1.1-1L70.8 28c.2-.3.2-.6 0-.9L49.4 2.4C47.2-.1 43.6-.7 40.8.9zm-.2 37.2L21.5 16.2c-.3-.3-.2-.8.2-1.1L42.1 3.6c1.7-1 3.9-.6 5.2.9l20.2 23.2c.3.3.2.8-.2 1.1l-19 10.8c-2.6 1.5-5.8.9-7.7-1.3z" class="g"/></g></g></svg>
