<svg xmlns="http://www.w3.org/2000/svg" id="Layer_2" viewBox="0 0 507.14 223.68"><defs><clipPath id="clippath"><path d="m86.11 147.11.48-.66-15.89-18.24c-.65.09-1.3.13-1.95.13-4.32 0-8.42-1.87-11.26-5.12l-4.75-5.46-19.71 27.2c-.25.34-.23.82.05 1.14l29.44 33.82a8.22 8.22 0 0 0 10.28 1.75l23.82-13.52-10.08-11.58a7.56 7.56 0 0 1-.42-9.44z" class="cls-3"/></clipPath><clipPath id="clippath-1"><path d="m163.5 118.77 17.35 19.92a.92.92 0 0 1-.24 1.4l-25.16 14.29a8.25 8.25 0 0 1-10.28-1.75l-15.97-18.34a14.93 14.93 0 0 1-13.21-5l-4.75-5.46-19.71 27.2c-.25.34-.23.82.05 1.14l29.44 33.82a8.22 8.22 0 0 0 10.28 1.75l31.37-17.81c.57-.32 1.06-.77 1.45-1.3l21.37-29.51c.25-.34.23-.82-.05-1.14l-18.97-21.79a1.97 1.97 0 0 0-2.46-.42 1.963 1.963 0 0 0-.51 3" class="cls-3"/></clipPath><clipPath id="clippath-2"><path d="m72.81 120.58 23.82-13.52-10.08-11.58a7.6 7.6 0 0 1-.42-9.45l.48-.66-25.23-28.96a.92.92 0 0 1 .24-1.4l27.11-15.39c2.27-1.29 5.14-.8 6.85 1.17l11.83 13.59c.63.72 1.68.87 2.49.37l.05-.03c1.01-.63 1.22-2.02.44-2.91L98.4 38.03a9.156 9.156 0 0 0-11.42-1.95L55.06 54.2c-.57.32-1.06.76-1.45 1.29L33.04 83.88c-.25.34-.23.82.05 1.14l29.44 33.82a8.22 8.22 0 0 0 10.28 1.75z" class="cls-3"/></clipPath><style>.cls-3{fill:#ff7f00}</style></defs><g id="Layer_1-2"><path fill="#141b4d" d="M222.83 79.89h43.45v13.85H236v10.6h29.61v13.94H236v25.31h-16.43V83.14c0-1.8 1.46-3.25 3.25-3.25zm77.16 42.12h-8.4v21.58h-16.43V83.14c0-1.8 1.46-3.25 3.25-3.25h28.64c14.13 0 22.16 9.36 22.16 21.2 0 11.08-6.78 17-12.7 19.1l12.99 23.4h-18.81zm4.58-28.27h-12.99v14.33h12.99c4.3 0 7.93-2.77 7.93-7.16s-3.63-7.16-7.93-7.16zm37.47-13.85h13.17v63.7h-16.43V83.14c0-1.8 1.46-3.25 3.25-3.25zm28.24 42.41c4.58 4.58 11.65 8.4 20.34 8.4 5.63 0 9.07-2.39 9.07-5.44 0-3.63-4.11-5.06-10.89-6.49-10.51-2.1-25.21-4.78-25.21-19.86 0-10.7 9.07-19.96 25.4-19.96 10.22 0 19.1 3.06 25.88 8.88l-8.98 11.75c-5.35-4.39-12.32-6.59-17.96-6.59s-7.54 2.2-7.54 4.97c0 3.34 3.92 4.49 10.98 5.83 10.51 2.2 25.02 5.25 25.02 19.67 0 12.8-9.46 21.3-26.55 21.3-11.42 0-19.77-3.15-25.98-8.12-1.34-1.07-1.59-3.01-.6-4.4l7-9.92zm57.88 0c4.58 4.58 11.65 8.4 20.34 8.4 5.63 0 9.07-2.39 9.07-5.44 0-3.63-4.11-5.06-10.89-6.49-10.51-2.1-25.21-4.78-25.21-19.86 0-10.7 9.07-19.96 25.4-19.96 8.95 0 16.87 2.34 23.25 6.84 1.49 1.05 1.78 3.16.67 4.61l-7.02 9.19C458.42 95.2 451.45 93 445.82 93s-7.55 2.2-7.55 4.97c0 3.34 3.92 4.49 10.98 5.83 10.51 2.2 25.02 5.25 25.02 19.67 0 12.8-9.46 21.3-26.55 21.3-12.89 0-21.87-4.01-28.27-10.12l8.69-12.32z"/><path d="m145.46 42.14-31.92 18.12c-.57.32-1.06.76-1.45 1.29L91.52 89.94c-.25.34-.23.82.05 1.14l29.44 33.82a8.22 8.22 0 0 0 10.28 1.75l31.37-17.81c.57-.32 1.06-.77 1.45-1.3l21.37-29.51c.25-.34.23-.82-.05-1.14l-28.56-32.81a9.156 9.156 0 0 0-11.42-1.95zm-.29 49.39-25.31-29.06a.92.92 0 0 1 .24-1.4l27.11-15.39c2.27-1.29 5.14-.8 6.85 1.17l26.78 30.75a.92.92 0 0 1-.24 1.4l-25.16 14.29a8.25 8.25 0 0 1-10.28-1.75zm-59.06 55.58.48-.66-15.89-18.24c-.65.09-1.3.13-1.95.13-4.32 0-8.42-1.87-11.26-5.12l-4.75-5.46-19.71 27.2c-.25.34-.23.82.05 1.14l29.44 33.82a8.22 8.22 0 0 0 10.28 1.75l23.82-13.52-10.08-11.58a7.56 7.56 0 0 1-.42-9.44z" class="cls-3"/><g clip-path="url(#clippath)"><path d="m86.96 97.15-31.92 18.12c-.57.32-1.06.76-1.45 1.29l-20.57 28.39c-.25.34-.23.82.05 1.14l29.44 33.82a8.22 8.22 0 0 0 10.28 1.75l31.37-17.81c.57-.32 1.06-.77 1.45-1.3l21.37-29.51c.25-.34.23-.82-.05-1.14L98.37 99.09a9.156 9.156 0 0 0-11.42-1.95zm-.29 49.39-25.31-29.06a.92.92 0 0 1 .24-1.4l27.11-15.39c2.27-1.29 5.14-.8 6.85 1.17l26.78 30.75a.92.92 0 0 1-.24 1.4L96.94 148.3a8.25 8.25 0 0 1-10.28-1.75z" class="cls-3"/></g><path d="m163.5 118.77 17.35 19.92a.92.92 0 0 1-.24 1.4l-25.16 14.29a8.25 8.25 0 0 1-10.28-1.75l-15.97-18.34a14.93 14.93 0 0 1-13.21-5l-4.75-5.46-19.71 27.2c-.25.34-.23.82.05 1.14l29.44 33.82a8.22 8.22 0 0 0 10.28 1.75l31.37-17.81c.57-.32 1.06-.77 1.45-1.3l21.37-29.51c.25-.34.23-.82-.05-1.14l-18.97-21.79a1.97 1.97 0 0 0-2.46-.42 1.963 1.963 0 0 0-.51 3" class="cls-3"/><g clip-path="url(#clippath-1)"><path d="m145.45 103.22-31.92 18.12c-.57.32-1.06.76-1.45 1.29l-20.57 28.39c-.25.34-.23.82.05 1.14L121 185.98a8.22 8.22 0 0 0 10.28 1.75l31.37-17.81c.57-.32 1.06-.77 1.45-1.3l21.37-29.51c.25-.34.23-.82-.05-1.14l-28.56-32.81a9.156 9.156 0 0 0-11.42-1.95zm-.29 49.39-25.31-29.06a.92.92 0 0 1 .24-1.4l27.11-15.39c2.27-1.29 5.14-.8 6.85 1.17l26.78 30.75a.92.92 0 0 1-.24 1.4l-25.16 14.29a8.25 8.25 0 0 1-10.28-1.75z" class="cls-3"/></g><path d="m72.81 120.58 23.82-13.52-10.08-11.58a7.6 7.6 0 0 1-.42-9.45l.48-.66-25.23-28.96a.92.92 0 0 1 .24-1.4l27.11-15.39c2.27-1.29 5.14-.8 6.85 1.17l11.83 13.59c.63.72 1.68.87 2.49.37l.05-.03c1.01-.63 1.22-2.02.44-2.91L98.4 38.03a9.156 9.156 0 0 0-11.42-1.95L55.06 54.2c-.57.32-1.06.76-1.45 1.29L33.04 83.88c-.25.34-.23.82.05 1.14l29.44 33.82a8.22 8.22 0 0 0 10.28 1.75z" class="cls-3"/><g clip-path="url(#clippath-2)"><path d="M86.97 36.06 55.05 54.18c-.57.32-1.06.76-1.45 1.29L33.03 83.86c-.25.34-.23.82.05 1.14l29.44 33.82a8.22 8.22 0 0 0 10.28 1.75l31.37-17.81c.57-.32 1.06-.77 1.45-1.3l21.37-29.51c.25-.34.23-.82-.05-1.14L98.38 38a9.156 9.156 0 0 0-11.42-1.95zm-.29 49.39L61.37 56.39a.92.92 0 0 1 .24-1.4L88.72 39.6c2.27-1.29 5.14-.8 6.85 1.17l26.78 30.75a.92.92 0 0 1-.24 1.4L96.95 87.21a8.25 8.25 0 0 1-10.28-1.75z" class="cls-3"/></g><path fill="none" d="M0 0h507.14v223.68H0z"/></g></svg>
