<?xml version="1.0" encoding="UTF-8"?>
<svg xmlns="http://www.w3.org/2000/svg" width="208" height="51" viewBox="0 0 208 51" fill="none">
  <path d="M139.596 43.4638C139.49 43.1385 139.35 42.847 139.176 42.5893C139.005 42.3284 138.8 42.1061 138.562 41.9225C138.327 41.7389 138.06 41.5988 137.76 41.5022C137.46 41.4056 137.132 41.3572 136.774 41.3572C136.188 41.3572 135.655 41.5086 135.175 41.8114C134.695 42.1142 134.313 42.5603 134.03 43.1497C133.747 43.7392 133.605 44.4623 133.605 45.3191C133.605 46.1759 133.748 46.899 134.035 47.4884C134.322 48.0779 134.71 48.524 135.199 48.8268C135.689 49.1295 136.24 49.2809 136.852 49.2809C137.419 49.2809 137.918 49.1601 138.349 48.9186C138.784 48.6738 139.122 48.3291 139.364 47.8846C139.609 47.4369 139.731 46.9103 139.731 46.3047L140.098 46.382H137.122V45.3191H140.891V46.382C140.891 47.1969 140.717 47.9056 140.369 48.5079C140.024 49.1102 139.548 49.5773 138.939 49.909C138.333 50.2376 137.638 50.4018 136.852 50.4018C135.976 50.4018 135.206 50.1957 134.542 49.7834C133.882 49.3711 133.367 48.7849 132.996 48.0247C132.629 47.2646 132.445 46.3627 132.445 45.3191C132.445 44.5364 132.55 43.8326 132.759 43.2077C132.972 42.5796 133.272 42.0449 133.658 41.6036C134.045 41.1624 134.502 40.8242 135.03 40.589C135.558 40.3539 136.14 40.2363 136.774 40.2363C137.296 40.2363 137.783 40.3152 138.233 40.4731C138.688 40.6277 139.092 40.8483 139.446 41.135C139.804 41.4184 140.102 41.7583 140.34 42.1544C140.578 42.5474 140.743 42.9839 140.833 43.4638H139.596Z" fill="#14111F"></path>
  <path d="M149.882 50.2666V40.3716H153.225C153.998 40.3716 154.633 40.5037 155.129 40.7678C155.625 41.0287 155.992 41.3878 156.23 41.8452C156.469 42.3026 156.588 42.8228 156.588 43.4058C156.588 43.9888 156.469 44.5058 156.23 44.9567C155.992 45.4077 155.626 45.762 155.134 46.0197C154.641 46.2741 154.011 46.4013 153.245 46.4013H150.539V45.3191H153.206C153.734 45.3191 154.159 45.2418 154.481 45.0872C154.807 44.9326 155.042 44.7135 155.187 44.4301C155.335 44.1434 155.409 43.802 155.409 43.4058C155.409 43.0096 155.335 42.6634 155.187 42.367C155.039 42.0707 154.802 41.842 154.477 41.681C154.151 41.5167 153.721 41.4345 153.187 41.4345H151.08V50.2666H149.882ZM154.539 45.8216L156.974 50.2666H155.583L153.187 45.8216H154.539Z" fill="#14111F"></path>
  <path d="M173.872 45.3191C173.872 46.3627 173.684 47.2646 173.307 48.0247C172.93 48.7849 172.413 49.3711 171.756 49.7834C171.099 50.1957 170.349 50.4018 169.505 50.4018C168.661 50.4018 167.91 50.1957 167.253 49.7834C166.596 49.3711 166.079 48.7849 165.702 48.0247C165.325 47.2646 165.137 46.3627 165.137 45.3191C165.137 44.2755 165.325 43.3736 165.702 42.6134C166.079 41.8533 166.596 41.2671 167.253 40.8548C167.91 40.4425 168.661 40.2363 169.505 40.2363C170.349 40.2363 171.099 40.4425 171.756 40.8548C172.413 41.2671 172.93 41.8533 173.307 42.6134C173.684 43.3736 173.872 44.2755 173.872 45.3191ZM172.713 45.3191C172.713 44.4623 172.569 43.7392 172.283 43.1497C171.999 42.5603 171.614 42.1142 171.128 41.8114C170.645 41.5086 170.104 41.3572 169.505 41.3572C168.905 41.3572 168.363 41.5086 167.876 41.8114C167.393 42.1142 167.008 42.5603 166.722 43.1497C166.438 43.7392 166.296 44.4623 166.296 45.3191C166.296 46.1759 166.438 46.899 166.722 47.4884C167.008 48.0779 167.393 48.524 167.876 48.8268C168.363 49.1295 168.905 49.2809 169.505 49.2809C170.104 49.2809 170.645 49.1295 171.128 48.8268C171.614 48.524 171.999 48.0779 172.283 47.4884C172.569 46.899 172.713 46.1759 172.713 45.3191Z" fill="#14111F"></path>
  <path d="M189.319 40.3716H190.518V46.9232C190.518 47.5996 190.358 48.2035 190.039 48.735C189.724 49.2632 189.278 49.6803 188.701 49.9863C188.124 50.2891 187.448 50.4405 186.672 50.4405C185.895 50.4405 185.219 50.2891 184.643 49.9863C184.066 49.6803 183.618 49.2632 183.299 48.735C182.984 48.2035 182.826 47.5996 182.826 46.9232V40.3716H184.024V46.8265C184.024 47.3097 184.13 47.7397 184.343 48.1165C184.556 48.4902 184.858 48.7849 185.251 49.0007C185.647 49.2133 186.121 49.3196 186.672 49.3196C187.223 49.3196 187.696 49.2133 188.092 49.0007C188.488 48.7849 188.791 48.4902 189.001 48.1165C189.213 47.7397 189.319 47.3097 189.319 46.8265V40.3716Z" fill="#14111F"></path>
  <path d="M199.849 50.2666V40.3716H203.193C203.969 40.3716 204.604 40.5117 205.096 40.792C205.592 41.069 205.96 41.4442 206.198 41.9177C206.436 42.3912 206.555 42.9194 206.555 43.5024C206.555 44.0854 206.436 44.6153 206.198 45.092C205.963 45.5687 205.599 45.9488 205.106 46.2322C204.613 46.5125 203.982 46.6526 203.212 46.6526H200.816V45.5897H203.173C203.705 45.5897 204.132 45.4979 204.454 45.3143C204.776 45.1307 205.009 44.8826 205.154 44.5702C205.302 44.2545 205.377 43.8986 205.377 43.5024C205.377 43.1063 205.302 42.7519 205.154 42.4395C205.009 42.1271 204.774 41.8823 204.449 41.7051C204.124 41.5247 203.692 41.4345 203.154 41.4345H201.048V50.2666H199.849Z" fill="#14111F"></path>
  <path d="M56.624 10.6633H47.4062V34.0989H53.5968V27.1601H56.3519C62.2363 27.1601 66.0459 24.9832 66.0459 18.7246C66.0459 13.6565 62.3383 10.6633 56.624 10.6633ZM56.9642 21.8879H53.5968V15.9015H56.9642C58.6989 15.9015 59.8893 17.0239 59.8893 18.9287C59.8893 20.8335 58.6989 21.8879 56.9642 21.8879Z" fill="#14111F"></path>
  <path d="M68.3912 34.0989H74.2076V26.0036C74.2076 22.7723 76.3505 21.8879 78.4253 21.8879H79.1056V16.2076H78.4593C76.4525 16.2756 74.8879 17.126 73.8675 18.3165H73.5613L72.9831 16.7178H68.3912V34.0989Z" fill="#14111F"></path>
  <path d="M89.9244 34.6431C95.4006 34.6431 99.7204 30.5955 99.7204 25.3913C99.7204 20.1872 95.2986 16.2076 89.9584 16.2076C84.6182 16.2076 80.1964 20.1872 80.1964 25.3913C80.1964 30.5955 84.4822 34.6431 89.9244 34.6431ZM89.9244 29.2009C87.7815 29.2009 86.0808 27.5342 86.0808 25.3913C86.0808 23.2825 87.7815 21.6158 89.9584 21.6158C92.1013 21.6158 93.836 23.2825 93.836 25.3913C93.836 27.5342 92.1013 29.2009 89.9244 29.2009Z" fill="#14111F"></path>
  <path d="M105.364 14.4729C107.167 14.4729 108.664 12.9763 108.664 11.2075C108.664 9.40481 107.133 7.9082 105.364 7.9082C103.664 7.9082 102.099 9.30277 102.099 11.2075C102.099 13.0103 103.562 14.4729 105.364 14.4729ZM101.691 41.65C106.147 41.65 108.29 39.201 108.29 34.303V16.7178H102.405V34.269C102.405 36.0377 101.827 36.752 100.262 36.752C99.8881 36.752 99.5139 36.6839 99.0717 36.5819H98.7996V41.4119C99.684 41.5819 100.5 41.65 101.691 41.65Z" fill="#14111F"></path>
  <path d="M128.948 23.7927C128.948 19.745 125.887 16.2076 120.377 16.2076C115.003 16.2076 111.023 19.677 111.023 25.4934C111.023 31.1057 114.969 34.6431 120.853 34.6431C123.778 34.6431 125.921 34.2009 127.758 33.1805V28.9628H127.35C125.649 29.6431 124.084 29.9492 121.737 29.9492C119.663 29.9492 117.282 29.439 116.601 27.058H128.336C128.846 26.0376 128.948 24.9151 128.948 23.7927ZM123.982 23.4866H116.635C117.18 21.3097 118.676 20.4933 120.445 20.4933C122.554 20.4933 123.914 21.8199 123.982 23.3165V23.4866Z" fill="#14111F"></path>
  <path d="M140.581 34.6431C142.792 34.6431 144.561 34.1669 145.82 33.4866V28.2825H145.445C144.357 28.8267 142.86 29.2689 141.126 29.2689C138.609 29.2689 136.976 27.7723 136.976 25.4254C136.976 23.0784 138.643 21.6158 141.092 21.6158C142.86 21.6158 144.357 22.024 145.445 22.6022H145.82V17.3981C144.561 16.6838 142.758 16.2076 140.581 16.2076C134.663 16.2076 130.819 20.0512 130.819 25.4254C130.819 30.7995 134.595 34.6431 140.581 34.6431Z" fill="#14111F"></path>
  <path d="M160.34 16.7178H156.496V13.0443H152.142L151.428 16.7178H147.788V21.6498H150.952V34.0989H156.836L156.802 21.6498H160.34V16.7178Z" fill="#14111F"></path>
  <path d="M165.754 14.4389C167.557 14.4389 169.053 12.9423 169.053 11.1735C169.053 9.3708 167.523 7.9082 165.754 7.9082C164.053 7.9082 162.454 9.30277 162.454 11.1735C162.454 13.0103 163.951 14.4389 165.754 14.4389ZM162.727 34.0989H168.747V16.7178H162.727V34.0989Z" fill="#14111F"></path>
  <path d="M178.893 34.0989H181.852L190.355 16.7178H184.301L180.491 25.3233H180.185L176.478 16.7178H170.389L178.893 34.0989Z" fill="#14111F"></path>
  <path d="M208.004 23.7927C208.004 19.745 204.943 16.2076 199.433 16.2076C194.058 16.2076 190.079 19.677 190.079 25.4934C190.079 31.1057 194.024 34.6431 199.909 34.6431C202.834 34.6431 204.977 34.2009 206.814 33.1805V28.9628H206.405C204.705 29.6431 203.14 29.9492 200.793 29.9492C198.718 29.9492 196.337 29.439 195.657 27.058H207.392C207.902 26.0376 208.004 24.9151 208.004 23.7927ZM203.038 23.4866H195.691C196.235 21.3097 197.732 20.4933 199.501 20.4933C201.61 20.4933 202.97 21.8199 203.038 23.3165V23.4866Z" fill="#14111F"></path>
  <path fill-rule="evenodd" clip-rule="evenodd" d="M0 23.2392V34.3101L18.8056 45.1675L37.6113 34.3101V23.2392L30.2282 18.9766V30.0475L18.8056 36.6423L7.38306 30.0475V18.9766L0 23.2392Z" fill="#14111F"></path>
  <path fill-rule="evenodd" clip-rule="evenodd" d="M37.6113 10.8574L18.8056 0L0 10.8574V19.5434L18.8056 8.68595L37.6113 19.5434V10.8574Z" fill="url(#paint0_linear_6071_21521)"></path>
  <defs>
    <linearGradient id="paint0_linear_6071_21521" x1="44.7028" y1="19.6577" x2="1.81317" y2="19.5478" gradientUnits="userSpaceOnUse">
      <stop offset="0.323783" stop-color="#FFA77C"></stop>
      <stop offset="0.612433" stop-color="#D15B30"></stop>
      <stop offset="0.966313" stop-color="#7B1B02"></stop>
    </linearGradient>
  </defs>
</svg>
