<svg width="345" height="133" viewBox="0 0 345 133" fill="none" xmlns="http://www.w3.org/2000/svg">
<rect x="1.11662" y="1.11662" width="130.673" height="130.673" stroke="black" stroke-width="2.23324"/>
<path fill-rule="evenodd" clip-rule="evenodd" d="M101.401 86.2574H115.95L104.996 44.7987L91.2323 44.7987L87.8582 62.0383H87.2735L83.8995 44.7987L70.1359 44.7987L70.1333 44.8088H60.1747L56.2348 62.9463H53.6203L49.62 44.8088H38.9806L34.9803 62.9463H32.3658L28.4259 44.8088H15.8113L26.768 86.2474H39.2511L42.851 67.868H45.7496L49.3495 86.2474H59.1848L59.1821 86.2574H73.7311L77.4239 69.2447H77.7897L81.5392 86.2574H93.5925L97.342 69.2447H97.7078L101.401 86.2574ZM103.001 47.3886L112.587 83.6675H103.489L99.7959 66.6548H95.2607L91.5112 83.6675L83.6205 83.6675L79.871 66.6548H75.3358L71.643 83.6675H62.5452L72.1304 47.3886L81.7673 47.3886L85.1414 64.6282H89.9903L93.3644 47.3886L103.001 47.3886Z" fill="black"/>
<path d="M167.021 58L158.635 25.5867H162.896L168.019 46.6667C168.563 48.8427 169.243 52.152 169.243 52.152H169.333C169.333 52.152 170.104 48.7067 170.693 46.576L176.541 25.5867H180.939L186.605 46.576C187.195 48.752 187.92 52.152 187.92 52.152H188.011C188.011 52.152 188.781 48.6613 189.28 46.6667L194.675 25.5867H198.8L189.779 58H185.88L179.941 35.152C179.443 33.248 178.763 30.2107 178.763 30.2107H178.672C178.672 30.2107 177.992 33.248 177.448 35.152L171.101 58H167.021ZM201.931 58V34.5627H205.603V58H201.931ZM201.931 30.12V25.5867H205.603V30.12H201.931ZM209.112 37.5547V34.5627H212.512V27.1733H216.184V34.5627H220.717V37.5547H216.184V52.7867C216.184 54.4187 217.045 54.9627 218.541 54.9627C219.267 54.9627 220.083 54.7813 220.491 54.6453H220.627V57.8187C219.765 58 218.768 58.136 217.68 58.136C214.688 58.136 212.512 56.912 212.512 53.6027V37.5547H209.112ZM222.349 37.5547V34.5627H225.749V27.1733H229.421V34.5627H233.954V37.5547H229.421V52.7867C229.421 54.4187 230.282 54.9627 231.778 54.9627C232.504 54.9627 233.32 54.7813 233.728 54.6453H233.864V57.8187C233.002 58 232.005 58.136 230.917 58.136C227.925 58.136 225.749 56.912 225.749 53.6027V37.5547H222.349ZM240.738 65.752C239.333 65.752 238.426 65.6613 237.429 65.2533V61.9893H237.61C238.109 62.2613 238.879 62.488 240.103 62.488C241.645 62.488 242.687 61.8987 243.594 59.632L244.501 57.32L235.343 34.5627H239.333L244.863 49.16C245.589 51.1093 246.45 53.7387 246.45 53.7387H246.541C246.541 53.7387 247.357 51.1093 248.082 49.16L253.431 34.5627H257.33L247.311 59.904C245.407 64.7547 243.594 65.752 240.738 65.752ZM161.037 107V74.5867H166.251L176.768 101.515H176.859L187.285 74.5867H192.589V107H188.691V80.344H188.6C188.6 80.344 187.739 82.8827 187.149 84.424L178.264 107H175.136L166.251 84.424C165.616 82.792 164.8 80.344 164.8 80.344H164.709V107H161.037ZM216.529 107.227C214.126 107.227 212.857 106.139 212.494 103.736H212.449C211.044 105.549 208.641 107.453 204.652 107.453C200.209 107.453 196.718 105.368 196.718 100.925C196.718 95.3947 201.07 94.2613 206.918 93.3547C210.228 92.856 212.54 92.5387 212.54 90C212.54 87.3707 210.636 85.8747 207.281 85.8747C203.473 85.8747 201.569 87.5067 201.433 91.0427H197.897C198.033 86.5093 201.025 83.1093 207.236 83.1093C212.222 83.1093 215.894 84.968 215.894 90.544V101.696C215.894 103.6 216.348 104.643 218.388 104.189H218.524V106.864C218.07 107.045 217.481 107.227 216.529 107.227ZM205.468 104.643C210.364 104.643 212.585 101.061 212.585 98.3413V94.352C211.361 95.1227 209.23 95.712 207.236 96.0747C203.564 96.7547 200.617 97.3893 200.617 100.835C200.617 103.963 203.065 104.643 205.468 104.643ZM231.252 107.635C224.27 107.635 219.918 102.104 219.918 95.304C219.918 88.504 224.27 82.9733 231.252 82.9733C236.782 82.9733 240.454 86.1467 241.27 91.1333H237.553C237.009 87.96 234.788 86.0107 231.252 86.0107C226.265 86.0107 223.681 90.136 223.681 95.304C223.681 100.472 226.265 104.552 231.252 104.552C235.06 104.552 237.326 102.376 237.644 98.7493H241.27C240.772 104.371 237.1 107.635 231.252 107.635ZM248.413 74.5867V86.6453H248.503C250.181 84.424 252.538 83.0187 255.938 83.0187C260.834 83.0187 263.826 85.6933 263.826 90.544V107H260.154V90.8613C260.154 87.824 258.159 86.1013 254.85 86.1013C251.133 86.1013 248.413 88.7307 248.413 92.584V107H244.741V74.5867H248.413ZM268.691 107V83.5627H272.363V107H268.691ZM268.691 79.12V74.5867H272.363V79.12H268.691ZM281.04 83.5627V86.6453H281.131C282.808 84.424 285.166 83.0187 288.566 83.0187C293.462 83.0187 296.454 85.6933 296.454 90.544V107H292.782V90.8613C292.782 87.824 290.787 86.1013 287.478 86.1013C283.76 86.1013 281.04 88.7307 281.04 92.584V107H277.368V83.5627H281.04ZM311.338 107.635C304.175 107.635 300.004 102.104 300.004 95.304C300.004 88.504 304.447 82.9733 311.111 82.9733C318.138 82.9733 321.9 88.4133 321.9 96.1653H303.767C304.039 100.925 306.623 104.552 311.338 104.552C314.738 104.552 317.004 102.92 317.82 99.7467H321.402C320.314 104.779 316.642 107.635 311.338 107.635ZM311.111 85.8747C306.759 85.8747 304.402 89.1387 303.858 93.4H317.956C317.73 88.7307 315.327 85.8747 311.111 85.8747ZM334.376 107.68C327.939 107.68 324.357 104.643 323.995 99.384H327.757C328.256 103.464 330.976 104.597 334.467 104.597C338.32 104.597 339.907 102.92 339.907 100.744C339.907 98.1147 338.093 97.4347 333.787 96.528C329.163 95.576 325.037 94.624 325.037 89.5013C325.037 85.6027 328.029 83.064 333.469 83.064C339.272 83.064 342.128 85.8293 342.672 90.408H338.909C338.547 87.3253 336.869 85.9653 333.379 85.9653C330.024 85.9653 328.664 87.4613 328.664 89.32C328.664 91.8587 330.931 92.3573 334.965 93.1733C339.68 94.1253 343.624 95.168 343.624 100.563C343.624 105.277 339.771 107.68 334.376 107.68Z" fill="black"/>
</svg>
