<svg width="25" height="25" viewBox="0 0 25 25" fill="none" xmlns="http://www.w3.org/2000/svg">
<g filter="url(#filter0_g_40002098_1600)">
<path d="M20.6902 3.21251C21.0621 3.6899 21.5763 4.04878 21.9692 4.51508C22.2549 4.90479 22.4384 5.35279 22.7087 5.75936C22.888 6.07248 23.0089 6.41546 23.1728 6.73677C23.4425 7.27148 23.775 7.80426 23.8293 8.42038C23.8631 9.3737 24.0424 10.3029 24.2438 11.2307C24.373 11.9278 24.3314 12.6349 24.2836 13.3339C24.2738 13.9091 24.0279 14.4534 23.8719 14.9939C23.6692 15.7372 23.5062 16.4998 23.1906 17.2031C22.9742 17.6415 22.8257 18.1256 22.5668 18.5336C22.2586 18.9334 21.891 19.2928 21.6353 19.7374C21.3192 20.1806 20.8476 20.4658 20.465 20.8415C19.8492 21.4177 19.334 22.0656 18.5463 22.3416C17.5319 22.7462 16.3148 22.2674 16.5925 20.9923C16.8037 20.3391 17.479 20.0168 18.0443 19.7384C20.0421 19.2056 21.0274 17.3611 21.7046 15.5026C21.9069 14.9848 22.2286 14.53 22.4651 14.031C22.6731 13.5748 22.8178 13.03 22.8543 12.5319C22.8979 11.7356 22.6665 10.9581 22.623 10.1632C22.5766 9.61023 22.2123 9.1656 22.0362 8.64968C21.9167 8.32934 21.9125 7.9825 21.7987 7.66215C21.6034 7.21512 21.2948 6.79072 21.115 6.32442C20.8897 5.68614 20.3943 5.44528 19.9414 5.00884C19.4558 4.5093 19.1748 3.81418 18.5739 3.43073C16.0853 1.61947 16.4712 1.68209 13.4595 1.81167C12.6493 1.80686 11.9441 1.3025 11.1123 1.54143C10.2324 1.83624 9.32479 2.08384 8.457 2.42201C7.60655 2.76403 6.81183 3.21589 6.02694 3.6846C5.12825 4.12152 4.38691 4.8176 3.83617 5.66543C3.49056 6.14089 3.28591 6.6202 3.06018 7.14479C2.92203 7.44538 2.73096 7.72333 2.62278 8.03645C2.36614 8.87079 2.39518 9.76919 2.20177 10.617C1.7002 12.2558 2.38019 13.9674 2.74548 15.5571C2.76655 16.152 3.0377 16.6409 3.45637 17.0388C3.82821 17.4459 4.24641 17.877 4.78216 18.0302C5.31323 18.1097 5.9595 17.9637 6.27514 17.4883C6.51257 16.8004 5.6149 15.4135 5.23978 14.808C4.7415 14.1538 4.41977 13.3908 4.18233 12.6065C3.88542 11.9841 4.08529 11.3772 4.10121 10.6907C4.10355 10.3232 4.11716 9.98163 4.16587 9.62034C4.24267 9.06396 4.37845 8.418 4.56016 7.90449C4.85285 7.16842 5.16524 6.52144 5.6654 5.91159C6.1693 5.37254 6.86568 5.10037 7.48104 4.728C8.18398 4.25495 9.0054 4.02806 9.75891 3.6581C11.2308 3.1812 12.9139 3.08582 14.4242 3.46734C15.4484 3.6793 16.4708 3.99242 17.2964 4.68031C18.455 5.68132 19.6422 6.77097 20.3039 8.19831C20.6593 9.02735 20.5867 9.99946 20.9024 10.8487C20.9923 11.1912 20.9136 11.5371 20.8485 11.8873C20.7876 12.4673 20.5483 12.9726 20.4374 13.5334C20.3694 14.438 19.9831 15.1982 19.5064 15.9458C19.2853 16.3028 19.1434 16.6992 18.9149 17.0489C18.5711 17.5494 18.0733 18.1299 17.6102 18.5505C17.2463 18.865 16.7766 19.0943 16.363 19.3549C15.182 19.9585 15.1234 21.3685 15.8348 22.3902C16.7836 23.3657 16.0652 23.7275 15.0508 23.9168C14.5057 24.0228 13.9901 24.1538 13.4305 24.201C12.905 24.3349 12.3815 24.3754 11.8466 24.2709C11.5113 24.241 11.176 24.2198 10.8477 24.1374C10.0549 23.8807 8.16337 23.6798 8.06877 22.672C8.05285 22.0131 8.90003 21.5227 9.24049 21.0082C9.45638 20.7182 9.52944 20.3381 9.66525 19.9961C9.95748 19.406 9.89706 18.7547 9.84836 18.1179C9.8685 17.5287 9.72988 16.9935 9.59266 16.4328C9.52475 15.9993 9.49619 15.5498 9.44748 15.1259C9.4147 14.7434 9.27515 14.386 9.16931 14.0218C9.07237 13.6408 8.98245 13.2636 8.83821 12.8888C8.59282 12.1238 8.05519 11.5246 7.96762 10.7061C7.77467 9.48594 8.44811 8.43242 9.33556 7.73586C9.80012 7.45887 10.2736 7.20693 10.703 6.86924C11.8288 6.19387 14.4509 6.36392 15.5482 7.06819C16.4881 7.7532 17.384 8.62078 17.7919 9.76245C18.0691 10.4455 18.2972 11.1753 18.1145 11.8974C17.9487 12.4668 17.9202 13.0868 17.7919 13.6576C17.5896 14.6066 16.6955 15.2502 15.8629 15.6365C14.8757 16.1847 14.3114 14.887 13.9775 14.1461C13.7569 13.7728 13.4089 13.437 13.0914 13.1547C12.6596 12.7795 12.3973 12.3811 12.0817 11.8921C11.774 11.381 11.5661 10.7076 11.7005 10.1098C11.9515 9.38623 12.6409 9.15789 13.3143 9.16464C14.3933 9.06251 15.2288 10.0134 15.3309 11.0645C15.4147 11.552 15.4231 12.0689 15.61 12.5343C15.8376 13.1499 16.1809 13.2135 16.4609 12.6041C17.0159 11.4355 16.8056 9.89589 15.9786 8.918C15.7542 8.67328 15.4503 8.549 15.1801 8.36835C14.871 8.14532 14.5839 7.91506 14.2097 7.80233C13.4759 7.52294 12.7697 7.90928 12.0653 8.09956C11.5966 8.25082 11.1222 8.38666 10.7742 8.75518C10.2834 9.27062 10.1256 10.117 10.2881 10.7943C10.3766 11.1421 10.3818 11.4003 10.5846 11.6821C10.8192 12.0063 11.0759 12.3589 11.2426 12.7043C11.6022 13.5647 12.2213 14.2579 12.662 15.0749C13.1177 16.0388 13.4544 17.1559 14.5226 17.5683C15.0682 17.746 15.8067 17.4382 16.2979 17.2219C16.8838 16.9483 17.1924 16.3413 17.5821 15.8128C17.7984 15.5137 18.0532 15.2468 18.2616 14.9409C18.6653 14.3229 18.9219 13.5637 19.0586 12.8459C19.2488 11.4408 19.7115 9.8877 18.9182 8.58513C18.6957 8.03356 18.485 7.45935 18.0649 7.02436C17.6991 6.67896 17.3235 6.36488 16.9377 6.04984C16.4834 5.78923 16.0315 5.48237 15.558 5.2762C14.8186 5.00788 13.9021 5.01896 13.0909 4.95152C12.5257 4.89516 11.9581 4.74486 11.3933 4.91491C10.6693 5.11338 9.95326 5.40723 9.26765 5.69481C8.66025 5.9824 7.95263 6.2353 7.54708 6.82734C6.76874 8.04127 6.31924 9.48498 6.45037 10.9277C6.43772 11.6633 6.58196 12.3681 6.90322 13.0251C7.10694 13.6364 7.60468 14.2203 7.84305 14.8142C8.14417 15.7897 8.38442 16.7782 8.54552 17.7898C8.457 19.0991 8.62367 20.525 6.80379 20.8344C6.3912 20.7299 5.7422 21.001 5.31651 20.934C4.99712 20.8627 4.73018 20.6594 4.43608 20.525C4.08672 20.3786 3.71535 20.2235 3.40345 19.9816C2.97308 19.7128 2.73189 19.2976 2.43779 18.8857C2.14182 18.5076 1.82009 18.1376 1.6707 17.6655C1.56112 17.1183 1.24032 16.6737 1.10545 16.1419C1.00429 15.6009 0.838511 15.044 0.596862 14.5498C0.50601 14.3576 0.420777 14.1711 0.37816 13.9592C0.274664 13.5305 0.357555 13.0945 0.445597 12.6725C0.507414 12.1402 0.473228 11.5752 0.605292 11.0462C0.794489 10.3964 0.717686 9.71572 0.796831 9.06203C1.03988 7.78307 1.45059 6.43425 2.30854 5.50213C2.70988 5.07147 2.93327 4.43656 3.31963 4.00928C3.7397 3.60656 4.30121 3.40183 4.70161 2.96443C5.56705 2.08433 6.68772 1.58286 7.8496 1.2707C9.02694 0.680114 10.3349 0.282214 11.6579 0.334721C12.9846 0.371332 14.3095 0.546196 15.6367 0.633869C16.2165 0.658437 16.7962 0.696974 17.3362 0.937352C18.1482 1.25288 18.8872 1.60068 19.644 2.01592C20.0674 2.31603 20.3531 2.80498 20.6846 3.20529L20.6907 3.21251H20.6902Z" fill="black"/>
</g>
<defs>
<filter id="filter0_g_40002098_1600" x="-0.000136107" y="-0.000136107" width="24.6604" height="24.6604" filterUnits="userSpaceOnUse" color-interpolation-filters="sRGB">
<feFlood flood-opacity="0" result="BackgroundImageFix"/>
<feBlend mode="normal" in="SourceGraphic" in2="BackgroundImageFix" result="shape"/>
<feTurbulence type="fractalNoise" baseFrequency="0.20685362815856934 0.20685362815856934" numOctaves="3" seed="8460" />
<feDisplacementMap in="shape" scale="0.66042846441268921" xChannelSelector="R" yChannelSelector="G" result="displacedImage" width="100%" height="100%" />
<feMerge result="effect1_texture_40002098_1600">
<feMergeNode in="displacedImage"/>
</feMerge>
</filter>
</defs>
</svg>
