<svg width="135" height="45" viewBox="0 0 135 45" fill="none" xmlns="http://www.w3.org/2000/svg">
<g filter="url(#filter0_g_187_13550)">
<path d="M38.3098 5.40761C39.0066 6.27734 39.9702 6.93118 40.7065 7.78073C41.2418 8.49073 41.5858 9.30693 42.0922 10.0477C42.4283 10.6181 42.6547 11.243 42.9619 11.8284C43.4674 12.8025 44.0904 13.7732 44.1922 14.8957C44.2554 16.6325 44.5915 18.3255 44.9689 20.0158C45.2111 21.2858 45.133 22.5741 45.0435 23.8476C45.0251 24.8955 44.5643 25.8872 44.2721 26.8719C43.8921 28.2261 43.5867 29.6154 42.9952 30.8967C42.5898 31.6954 42.3116 32.5774 41.8263 33.3207C41.2488 34.0492 40.5599 34.7039 40.0808 35.514C39.4884 36.3214 38.6047 36.8409 37.8877 37.5255C36.7337 38.5751 35.7683 39.7556 34.2922 40.2584C32.3914 40.9957 30.1105 40.1233 30.6309 37.8002C31.0267 36.6101 32.2922 36.023 33.3514 35.5157C37.0952 34.545 38.9417 31.1846 40.2106 27.7987C40.5898 26.8552 41.1927 26.0267 41.6358 25.1175C42.0255 24.2864 42.2967 23.2938 42.3651 22.3863C42.4467 20.9356 42.0132 19.5191 41.9316 18.071C41.8447 17.0635 41.1619 16.2534 40.832 15.3135C40.6082 14.7298 40.6003 14.0979 40.387 13.5143C40.0211 12.6999 39.4428 11.9267 39.1058 11.0771C38.6836 9.91425 37.7552 9.47544 36.9065 8.6803C35.9965 7.77019 35.4699 6.50377 34.344 5.80517C29.6805 2.50527 30.4036 2.61936 24.7599 2.85545C23.2417 2.84667 21.92 1.92779 20.3614 2.36309C18.7125 2.90021 17.0117 3.35131 15.3855 3.96741C13.7919 4.59053 12.3026 5.41375 10.8318 6.26769C9.14769 7.0637 7.75847 8.33188 6.72643 9.87652C6.07877 10.7427 5.69527 11.616 5.27227 12.5717C5.01339 13.1194 4.65533 13.6258 4.45261 14.1962C3.9717 15.7163 4.02611 17.3531 3.66366 18.8977C2.72377 21.8834 3.99802 25.0017 4.68254 27.8978C4.72203 28.9817 5.23015 29.8725 6.01471 30.5974C6.71151 31.339 7.49519 32.1245 8.49915 32.4036C9.49433 32.5484 10.7054 32.2825 11.2969 31.4163C11.7418 30.163 10.0596 27.6363 9.3567 26.5331C8.42295 25.3413 7.82005 23.9511 7.37511 22.5223C6.81873 21.3884 7.19326 20.2826 7.22309 19.032C7.22748 18.3624 7.25298 17.7401 7.34425 17.0819C7.48817 16.0682 7.74262 14.8914 8.08313 13.9558C8.63162 12.6148 9.21701 11.4361 10.1543 10.325C11.0986 9.34291 12.4035 8.84705 13.5567 8.16864C14.8739 7.30681 16.4132 6.89344 17.8252 6.21942C20.5835 5.35056 23.7375 5.17679 26.5677 5.87187C28.487 6.25803 30.4028 6.82849 31.9499 8.08176C34.1211 9.90548 36.3458 11.8907 37.5858 14.4911C38.2519 16.0015 38.1158 17.7726 38.7073 19.3199C38.8758 19.9438 38.7284 20.574 38.6064 21.212C38.4923 22.2687 38.0439 23.1893 37.8359 24.2109C37.7086 25.8591 36.9846 27.244 36.0913 28.6061C35.677 29.2564 35.4111 29.9787 34.9829 30.6159C34.3387 31.5277 33.4059 32.5853 32.5379 33.3515C31.856 33.9246 30.9758 34.3423 30.2009 34.8171C27.9877 35.9168 27.878 38.4856 29.211 40.3471C30.989 42.1243 29.6428 42.7834 27.7419 43.1283C26.7204 43.3214 25.7542 43.5601 24.7055 43.6461C23.7208 43.8901 22.7397 43.9638 21.7375 43.7734C21.1091 43.7189 20.4808 43.6803 19.8656 43.5303C18.3799 43.0625 14.8353 42.6965 14.658 40.8605C14.6282 39.6599 16.2157 38.7665 16.8537 37.8291C17.2583 37.3008 17.3952 36.6084 17.6497 35.9852C18.1973 34.9101 18.0841 33.7236 17.9929 32.5633C18.0306 31.49 17.7708 30.5149 17.5137 29.4934C17.3864 28.7035 17.3329 27.8847 17.2416 27.1124C17.1802 26.4155 16.9187 25.7643 16.7204 25.1008C16.5387 24.4066 16.3702 23.7194 16.0999 23.0366C15.64 21.643 14.6326 20.5512 14.4685 19.0601C14.1069 16.837 15.3689 14.9176 17.0319 13.6486C17.9025 13.1439 18.7897 12.6849 19.5944 12.0697C21.7042 10.8393 26.6177 11.1491 28.6739 12.4322C30.4352 13.6802 32.1141 15.2608 32.8784 17.3408C33.398 18.5853 33.8253 19.9149 33.4831 21.2305C33.1724 22.2678 33.1189 23.3973 32.8784 24.4373C32.4993 26.1663 30.824 27.3388 29.2637 28.0427C27.4137 29.0414 26.3562 26.6771 25.7305 25.3273C25.3172 24.6471 24.6651 24.0354 24.0701 23.5211C23.261 22.8374 22.7694 22.1116 22.1779 21.2208C21.6014 20.2896 21.2117 19.0627 21.4636 17.9736C21.934 16.6554 23.2259 16.2394 24.4879 16.2516C26.5098 16.0656 28.0754 17.798 28.2667 19.713C28.4238 20.6012 28.4396 21.5429 28.7898 22.3907C29.2163 23.5123 29.8595 23.6282 30.3843 22.518C31.4243 20.3888 31.0302 17.5839 29.4804 15.8023C29.0601 15.3565 28.4905 15.13 27.9841 14.8009C27.4049 14.3946 26.867 13.9751 26.1658 13.7697C24.7906 13.2607 23.4672 13.9645 22.1473 14.3112C21.2689 14.5868 20.3799 14.8343 19.7278 15.5057C18.8081 16.4447 18.5124 17.9867 18.8169 19.2207C18.9828 19.8543 18.9926 20.3247 19.3726 20.8382C19.8122 21.4288 20.2931 22.0712 20.6055 22.7005C21.2795 24.268 22.4397 25.5309 23.2655 27.0193C24.1194 28.7755 24.7503 30.8108 26.7521 31.562C27.7745 31.8859 29.1583 31.325 30.0789 30.9309C31.1768 30.4325 31.7551 29.3266 32.4853 28.3639C32.8907 27.8189 33.3681 27.3326 33.7586 26.7754C34.5151 25.6493 34.996 24.2662 35.2523 22.9585C35.6086 20.3985 36.4756 17.569 34.989 15.1959C34.5722 14.191 34.1772 13.1448 33.3901 12.3523C32.7047 11.7231 32.0008 11.1508 31.2777 10.5769C30.4265 10.1021 29.5796 9.54302 28.6924 9.16739C27.3067 8.67855 25.5892 8.69873 24.0692 8.57586C23.01 8.47318 21.9464 8.19936 20.888 8.50916C19.5313 8.87075 18.1894 9.4061 16.9046 9.93005C15.7664 10.454 14.4404 10.9148 13.6804 11.9934C12.2219 14.205 11.3795 16.8353 11.6253 19.4638C11.6016 20.8039 11.8719 22.0879 12.4739 23.285C12.8556 24.3987 13.7883 25.4624 14.235 26.5445C14.7993 28.3217 15.2495 30.1226 15.5514 31.9657C15.3855 34.351 15.6979 36.9489 12.2875 37.5125C11.5144 37.322 10.2982 37.816 9.50047 37.694C8.90196 37.5641 8.40174 37.1937 7.85062 36.9489C7.19594 36.6821 6.50001 36.3995 5.91554 35.9589C5.10904 35.4692 4.65709 34.7127 4.10597 33.9623C3.55133 33.2734 2.94843 32.5993 2.66848 31.7392C2.46313 30.7423 1.86198 29.9322 1.60924 28.9633C1.41968 27.9777 1.10902 26.9632 0.656184 26.0627C0.485933 25.7125 0.326213 25.3729 0.246353 24.9867C0.0524069 24.2056 0.207739 23.4114 0.372725 22.6426C0.488566 21.6728 0.424502 20.6433 0.671981 19.6797C1.02652 18.4958 0.882601 17.2557 1.03091 16.0647C1.48638 13.7346 2.25602 11.2772 3.86375 9.579C4.61584 8.79439 5.03445 7.63767 5.75846 6.85921C6.54565 6.12551 7.59787 5.75251 8.34821 4.95562C9.96998 3.35219 12.07 2.43857 14.2473 1.86986C16.4536 0.793885 18.9047 0.0689596 21.3838 0.164622C23.87 0.231322 26.3527 0.549903 28.8398 0.709632C29.9262 0.754391 31.0127 0.824602 32.0245 1.26254C33.5463 1.83739 34.9311 2.47104 36.3493 3.22756C37.1426 3.77433 37.6779 4.66513 38.2993 5.39444L38.3107 5.40761H38.3098Z" fill="black"/>
</g>
<path d="M118.879 25.343C118.879 20.6861 122.695 17.4127 126.848 17.4127C131.002 17.4127 134.818 20.6861 134.818 25.343C134.818 29.9998 131.002 33.2732 126.848 33.2732C122.695 33.2732 118.879 29.9998 118.879 25.343ZM122.154 25.343C122.154 29.19 124.383 31.9571 126.848 31.9571C129.314 31.9571 131.542 29.19 131.542 25.343C131.542 21.496 129.314 18.7288 126.848 18.7288C124.383 18.7288 122.154 21.5634 122.154 25.343Z" fill="black"/>
<path d="M112.248 31.5859V10.4611L108.938 8.90884L115.22 6.61414V31.5859H117.651V32.9357H109.816V31.5859H112.248Z" fill="black"/>
<path d="M106.534 19.1H103.731V17.7502H109.708V19.1H108.155L99.6789 39.8198C99.0373 41.3721 98.1931 42.722 96.3695 42.722C94.985 42.722 94.1746 41.7096 94.1746 40.6635C94.1746 40.0898 94.4109 39.5161 94.9175 39.0437L97.9904 40.1573L100.523 33.9143L94.985 19.1H93.4316V17.7502H100.962V19.1H98.2606L102.144 30.4386L106.534 19.1Z" fill="black"/>
<path d="M78.2137 10.4611L74.9043 8.90884L81.1853 6.61414V19.9774H81.962C83.1439 18.8301 84.6973 17.4127 86.9598 17.4127C89.7289 17.4127 91.0121 19.4375 91.0121 22.3733V31.5859H93.4434V32.9357H85.609V31.5859H88.0404V23.217C88.0404 20.956 86.8247 19.7749 84.7311 19.7749C83.3465 19.7749 82.0633 20.7198 81.1853 21.5634V31.5859H83.6167V32.9357H75.7823V31.5859H78.2137V10.4611Z" fill="black"/>
<path d="M55.6592 11.1361V9.65127H64.9119C70.585 9.65127 74.6035 11.811 74.6035 16.4004C74.6035 20.5174 70.5513 22.7108 66.9042 22.7108L64.304 21.4622C69.2343 21.4622 71.2942 19.4712 71.2942 16.2992C71.2942 12.6884 68.6264 11.1361 64.8781 11.1361H62.3792V31.4509H66.7016V32.9358H55.6592V31.4509H59.1374V11.1361H55.6592Z" fill="black"/>
<defs>
<filter id="filter0_g_187_13550" x="8.90791e-05" y="1.3411e-06" width="45.2869" height="44.0374" filterUnits="userSpaceOnUse" color-interpolation-filters="sRGB">
<feFlood flood-opacity="0" result="BackgroundImageFix"/>
<feBlend mode="normal" in="SourceGraphic" in2="BackgroundImageFix" result="shape"/>
<feTurbulence type="fractalNoise" baseFrequency="0.43740782141685486 0.43740782141685486" numOctaves="3" seed="8460" />
<feDisplacementMap in="shape" scale="0.31232184171676636" xChannelSelector="R" yChannelSelector="G" result="displacedImage" width="100%" height="100%" />
<feMerge result="effect1_texture_187_13550">
<feMergeNode in="displacedImage"/>
</feMerge>
</filter>
</defs>
</svg>
