<svg width="225" height="58" viewBox="0 0 225 58" fill="none" xmlns="http://www.w3.org/2000/svg">
<path d="M71.793 17.5057C74.7731 17.5058 77.0797 18.5558 78.0967 20.3123L78.3389 17.7987H83.7471L83.7441 17.8016V35.3192C83.7441 41.0026 79.3685 43.9324 73.668 43.9325C69.9129 43.9325 66.6927 42.6078 64.4189 40.0057L67.0889 36.9569C68.6383 38.6957 70.7907 39.4383 73.2207 39.4383C75.8225 39.4383 78.079 37.8527 78.0967 35.0614V33.6307C77.0797 35.5437 74.7731 36.2654 71.793 36.2655C66.8493 36.2655 62.9727 32.4595 62.9727 26.9803C62.9727 21.5012 66.8494 17.5057 71.793 17.5057ZM104.307 17.5106C107.287 17.5106 109.593 18.5608 110.61 20.3172L110.853 17.8036H116.261V36.7528H110.853L110.61 34.2391C109.593 36.152 107.287 37.0457 104.307 37.0457C99.363 37.0457 95.4863 33.0653 95.4863 27.2782C95.4863 21.4911 99.363 17.5106 104.307 17.5106ZM127.699 17.5135C132.436 17.5135 135.449 19.3407 135.709 22.9217L130.06 23.2323L130.054 23.2274C129.882 22.2633 128.933 21.3846 127.556 21.3846C126.024 21.3847 124.989 21.9711 124.989 23.0916C124.99 24.2119 126.315 24.6758 127.97 25.0897C133.62 26.4323 136.323 27.5708 136.187 31.0155C136.048 34.8919 133.07 37.0456 127.627 37.0457C122.184 37.0457 119.171 34.9961 118.896 31.2586L124.527 30.827C124.803 32.2729 126.148 33.0652 127.629 33.0653C129.249 33.0653 130.506 32.4113 130.506 31.2049C130.506 29.9129 128.593 29.138 126.511 28.6737C121.31 27.4345 119.347 26.5561 119.347 22.9901C119.347 19.4241 122.516 17.5136 127.699 17.5135ZM147.06 17.5135C151.796 17.5135 154.809 19.3407 155.069 22.9217L149.42 23.2323L149.414 23.2274C149.242 22.2633 148.294 21.3846 146.916 21.3846C145.384 21.3846 144.35 21.9711 144.35 23.0916C144.35 24.2119 145.675 24.6758 147.33 25.0897C152.98 26.4323 155.683 27.5708 155.547 31.0155C155.408 34.892 152.43 37.0457 146.986 37.0457C141.544 37.0456 138.53 34.996 138.255 31.2586L143.888 30.827C144.163 32.2729 145.508 33.0653 146.989 33.0653C148.609 33.0653 149.866 32.4113 149.866 31.2049C149.866 29.9129 147.953 29.138 145.871 28.6737C140.67 27.4345 138.707 26.5562 138.707 22.9901C138.707 19.4241 141.877 17.5136 147.06 17.5135ZM199.462 17.5614C203.063 17.5614 205.887 18.9216 207.179 21.16L207.3 17.8016H210.263V36.7498H207.3L207.179 33.3905C205.887 35.9748 203.063 36.99 199.462 36.9901C194.329 36.9901 190.23 32.8201 190.23 27.2752C190.231 21.7306 194.329 17.5614 199.462 17.5614ZM92.8545 36.7498H87.2041V10.911H92.8545V36.7498ZM165.346 33.7694L171.254 17.8016H174.577L180.467 33.7694L186.186 17.8016H189.458L182.673 36.7498H178.471L172.906 21.6424L167.359 36.7498H163.158L156.372 17.8016H159.646L165.346 33.7694ZM217.605 36.7498H214.522V10.911H217.605V36.7498ZM225.21 36.7498H222.126V10.911H225.21V36.7498ZM200.239 20.2137C196.416 20.2137 193.332 23.2626 193.332 27.2752C193.332 31.2881 196.434 34.3377 200.239 34.3377C204.045 34.3375 207.179 31.288 207.179 27.2752C207.178 23.2627 204.062 20.2139 200.239 20.2137ZM105.874 22.2987C103.272 22.2987 101.154 24.2797 101.154 27.2752C101.154 30.271 103.275 32.2547 105.874 32.2547C108.473 32.2545 110.61 30.2734 110.61 27.2752C110.61 24.2774 108.475 22.2989 105.874 22.2987ZM73.3574 22.2987C70.7556 22.2987 68.6387 24.2802 68.6387 26.9832C68.6389 29.6861 70.7406 31.6668 73.3574 31.6668C75.9742 31.6668 78.0936 29.686 78.0938 26.9832C78.0938 24.2778 75.9591 22.2988 73.3574 22.2987Z" fill="white"/>
<path d="M48.4401 20.007L37.5358 13.0842L31.0958 17.2031L37.3289 21.1604C37.6923 21.3901 37.6923 21.9201 37.3289 22.1498L25.6701 29.5521C25.014 29.9685 24.1787 29.9685 23.5251 29.5521L11.8739 22.1498C11.5105 21.9201 11.5105 21.3901 11.8739 21.1604L31.0629 8.97294L26.7628 6.24217C25.4834 5.4295 23.8532 5.4295 22.5737 6.24217L0.906583 20.007C-0.302194 20.7743 -0.302194 22.5384 0.906583 23.3057L22.5737 37.0705C23.8507 37.8832 25.4834 37.8832 26.7628 37.0705L48.4426 23.3057C49.6514 22.5384 49.6514 20.7743 48.4426 20.007H48.4401Z" fill="white"/>
<path d="M28.5823 27.7097L37.3314 22.1548C37.6948 21.9251 37.6948 21.3951 37.3314 21.1655L31.0982 17.2081C31.0982 17.2081 28.6349 18.7427 28.5831 21.9144L28.5823 27.7097Z" fill="url(#paint0_linear_3855_86)"/>
<path d="M48.4401 27.8208L44.8844 25.5619L26.7603 37.068C26.1092 37.4819 25.3673 37.6838 24.6254 37.6762C24.5901 37.6762 24.5522 37.6762 24.5169 37.6712C23.838 37.6459 23.1668 37.4466 22.5712 37.068L4.46226 25.5645L0.906583 27.8233C-0.302194 28.5905 -0.302194 30.3547 0.906583 31.1219L22.5737 44.8868C23.8507 45.6994 25.4834 45.6994 26.7628 44.8868L48.4426 31.1219C49.6514 30.3547 49.6514 28.5905 48.4426 27.8233L48.4401 27.8208Z" fill="url(#paint1_linear_3855_86)"/>
<path d="M48.4401 35.6496L44.8718 33.3858L26.7603 44.8842C26.1875 45.2477 25.5414 45.447 24.8904 45.4849C24.6658 45.5177 24.4361 45.5076 24.2115 45.4647C23.6387 45.3966 23.0784 45.2048 22.5737 44.8842L4.47235 33.3858L0.906583 35.6496C-0.302194 36.4169 -0.302194 38.181 0.906583 38.9482L22.5737 52.7131C23.8507 53.5258 25.4834 53.5258 26.7628 52.7131L48.4426 38.9482C49.6514 38.181 49.6514 36.4169 48.4426 35.6496H48.4401Z" fill="url(#paint2_linear_3855_86)"/>
<defs>
<linearGradient id="paint0_linear_3855_86" x1="33.0918" y1="17.2031" x2="33.0918" y2="27.7097" gradientUnits="userSpaceOnUse">
<stop stop-color="#5FEFC0" stop-opacity="0.8"/>
<stop offset="1" stop-color="#5FEFC0" stop-opacity="0.3"/>
</linearGradient>
<linearGradient id="paint1_linear_3855_86" x1="24.6733" y1="45.4925" x2="24.6733" y2="25.5645" gradientUnits="userSpaceOnUse">
<stop stop-color="#5FEFC0" stop-opacity="0.8"/>
<stop offset="1" stop-color="#5FEFC0" stop-opacity="0.3"/>
</linearGradient>
<linearGradient id="paint2_linear_3855_86" x1="24.6733" y1="53.3213" x2="24.6733" y2="33.3858" gradientUnits="userSpaceOnUse">
<stop stop-color="#43C2DA" stop-opacity="0.4"/>
<stop offset="1" stop-color="#43C2DA" stop-opacity="0.2"/>
</linearGradient>
</defs>
</svg>
