<?xml version="1.0" encoding="UTF-8"?>
<svg xmlns="http://www.w3.org/2000/svg" width="150" height="36" viewBox="0 0 150 36" fill="none">
  <path d="M58.6314 7.6058V4.87299H40.5053V8.366H53.332L40.1338 26.3506V29.0834H59.0029V25.5903H45.4004L58.6314 7.6058Z" fill="#043DE1"></path>
  <path d="M73.094 12.206C71.8228 11.5142 70.3538 11.1682 68.6889 11.1682C67.0241 11.1682 65.5889 11.5434 64.3177 12.2917C63.0466 13.0411 62.0559 14.1017 61.3479 15.4735C60.6387 16.8453 60.2842 18.4427 60.2842 20.2635C60.2842 22.0843 60.6493 23.6416 61.3817 25.0026C62.1131 26.3625 63.1482 27.4177 64.4871 28.167C65.826 28.9164 67.3956 29.2905 69.1959 29.2905C71.2661 29.2905 72.9934 28.7147 74.3768 27.5608C75.7611 26.408 76.61 24.9321 76.9254 23.1341H73.2792C73.0315 24.1253 72.5246 24.892 71.7604 25.4342C70.9952 25.9764 70.05 26.2464 68.926 26.2464C67.5077 26.2464 66.371 25.7964 65.5158 24.8974C64.6607 23.9984 64.1886 22.7762 64.0986 21.2319V21.0248H77.1275C77.1953 20.5401 77.2281 20.0683 77.2281 19.6063C77.2059 17.9005 76.8291 16.4137 76.0977 15.1449C75.3664 13.8772 74.3641 12.8968 73.0929 12.205L73.094 12.206ZM64.2341 18.2931C64.3696 17.0481 64.8692 16.0515 65.737 15.3011C66.6028 14.5517 67.6326 14.1776 68.8255 14.1776C70.1082 14.1776 71.1709 14.5409 72.0155 15.2675C72.859 15.994 73.3607 17.0026 73.5173 18.2942H64.2352L64.2341 18.2931Z" fill="#043DE1"></path>
  <path d="M92.9427 12.3091C91.6038 11.5489 90.0681 11.1682 88.3355 11.1682C86.6029 11.1682 85.0661 11.5489 83.7272 12.3091C82.3894 13.0704 81.3532 14.1375 80.6219 15.5082C79.8905 16.88 79.5254 18.4536 79.5254 20.2288C79.5254 22.0041 79.8905 23.6134 80.6219 24.9841C81.3532 26.356 82.3884 27.4177 83.7272 28.1659C85.0661 28.9153 86.6018 29.2894 88.3355 29.2894C90.0692 29.2894 91.6038 28.9153 92.9427 28.1659C94.2805 27.4177 95.3167 26.356 96.0481 24.9841C96.7794 23.6134 97.1446 22.0268 97.1446 20.2288C97.1446 18.4308 96.7794 16.88 96.0481 15.5082C95.3167 14.1375 94.2816 13.0704 92.9427 12.3091ZM92.0314 24.4658C91.0969 25.5611 89.8649 26.1087 88.3355 26.1087C86.8061 26.1087 85.5784 25.5611 84.6555 24.4658C83.7325 23.3705 83.2721 21.9585 83.2721 20.2288C83.2721 18.4991 83.7325 17.0883 84.6555 15.9919C85.5784 14.8966 86.8051 14.3489 88.3355 14.3489C89.8659 14.3489 91.0969 14.8966 92.0314 15.9919C92.9649 17.0872 93.4317 18.4991 93.4317 20.2288C93.4317 21.9585 92.9649 23.3705 92.0314 24.4658Z" fill="#043DE1"></path>
  <path d="M105.145 25.3648C104.875 25.0774 104.739 24.5861 104.739 23.8954V14.6612H108.892V11.3754H104.739V6.42917H101.06V11.3754H98.0557V14.6612H101.06V24.276C101.06 25.9135 101.437 27.1238 102.191 27.9078C102.944 28.6919 104.143 29.0834 105.786 29.0834H109.296V25.7975H106.528C105.875 25.7975 105.414 25.6532 105.145 25.3648Z" fill="#043DE1"></path>
  <path d="M125.735 24.5872V17.6012C125.735 15.5256 125.105 13.9357 123.846 12.8285C122.586 11.7224 120.797 11.1693 118.478 11.1693C116.296 11.1693 114.529 11.6595 113.179 12.6387C111.828 13.6191 111.064 14.9963 110.883 16.7716H114.461C114.596 15.9875 115.006 15.3596 115.693 14.8868C116.38 14.414 117.252 14.1776 118.31 14.1776C119.502 14.1776 120.436 14.4595 121.111 15.0245C121.787 15.5895 122.124 16.3682 122.124 17.3594V18.4319H117.77C115.361 18.4319 113.528 18.9221 112.267 19.9013C111.007 20.8817 110.377 22.2817 110.377 24.1025C110.377 25.7172 110.962 26.986 112.133 27.9067C113.303 28.8296 114.855 29.2905 116.791 29.2905C119.29 29.2905 121.191 28.2765 122.496 26.2475C122.496 27.1693 122.742 27.8731 123.238 28.3568C123.732 28.8415 124.543 29.0834 125.668 29.0834H127.592V25.8322H126.884C126.117 25.8322 125.735 25.4179 125.735 24.5872ZM122.124 21.8197C122.102 23.2035 121.669 24.3107 120.824 25.1403C119.981 25.971 118.804 26.3863 117.297 26.3863C116.306 26.3863 115.525 26.1564 114.951 25.6945C114.378 25.2336 114.091 24.6219 114.091 23.8607C114.091 22.9844 114.396 22.3218 115.002 21.8718C115.61 21.4217 116.475 21.1972 117.602 21.1972H122.124V21.8197Z" fill="#043DE1"></path>
  <path d="M145.953 15.4052C145.255 14.0333 144.287 12.9847 143.05 12.257C141.812 11.5304 140.405 11.1682 138.831 11.1682C136.469 11.1682 134.589 12.1139 133.194 14.0041L132.755 11.3754H129.582V36H133.227V26.5935C133.79 27.4242 134.545 28.0803 135.489 28.565C136.434 29.0498 137.548 29.2916 138.83 29.2916C140.404 29.2916 141.812 28.9174 143.049 28.1681C144.286 27.4198 145.254 26.3581 145.952 24.9863C146.649 23.6156 146.999 22.029 146.999 20.231C146.999 18.433 146.65 16.7781 145.952 15.4063L145.953 15.4052ZM141.887 24.4831C140.952 25.5893 139.731 26.1423 138.224 26.1423C136.717 26.1423 135.501 25.5893 134.578 24.4831C133.655 23.3759 133.194 21.9347 133.194 20.1594C133.194 18.3842 133.655 17.0297 134.578 15.9572C135.501 14.8846 136.716 14.3489 138.224 14.3489C139.732 14.3489 140.952 14.8912 141.887 15.9745C142.82 17.059 143.287 18.4763 143.287 20.2288C143.287 21.9813 142.82 23.3759 141.887 24.4831Z" fill="#043DE1"></path>
  <path d="M8.74647 5.39894C4.92141 9.67494 1.89545 15.0441 0.193545 20.5769C-0.162077 21.733 -0.0223684 22.9898 0.569277 24.0396C1.50173 25.6955 2.25954 27.0403 3.19305 28.6962C3.78469 29.746 4.77747 30.4986 5.93218 30.761C11.4591 32.0168 17.51 32.0168 23.038 30.761C24.1927 30.4986 25.1855 29.746 25.7772 28.6962C26.7096 27.0403 27.4674 25.6955 28.4009 24.0407C28.9926 22.9909 29.1323 21.734 28.7767 20.578C27.0748 15.0451 24.0499 9.67602 20.2237 5.39894C19.4247 4.50535 18.2922 4 17.1089 4H11.8613C10.678 4 9.54662 4.50427 8.74647 5.39894ZM3.29571 25.535L14.4851 5.67873L25.6745 25.535H3.29571Z" fill="#043DE1"></path>
</svg>
