<?xml version="1.0" encoding="utf-8"?>
<!-- Generator: Adobe Illustrator 22.0.1, SVG Export Plug-In . SVG Version: 6.00 Build 0)  -->
<svg version="1.1" id="Layer_1" xmlns="http://www.w3.org/2000/svg" xmlns:xlink="http://www.w3.org/1999/xlink" x="0px" y="0px"
	 viewBox="0 0 64 24" style="enable-background:new 0 0 64 24;" xml:space="preserve">
<style type="text/css">
	.st0{fill:#27292C;}
</style>
<path class="st0" d="M48.7302246,23.9895439h13.3295555v-4.3239174H48.7302246V23.9895439z M55.3944969,0.0044101
	c-4.7452202,0-8.6044884,3.9399035-8.6044884,8.7808752c0,4.841979,3.8602753,8.7828894,8.6044884,8.7828894
	C60.1397209,17.5681744,64,13.6272631,64,8.785284C64,3.9443126,60.1397209,0.0044091,55.3944969,0.0044101z M55.3944969,13.298686
	c-2.4371147,0-4.4196663-2.0238752-4.4196663-4.513401c0-2.4875116,1.9825478-4.5103784,4.4196663-4.5103784
	c2.4361115,0,4.4216843,2.0228667,4.4216843,4.5103784c0,2.4895267-1.9855728,4.512394-4.4216843,4.512394V13.298686z
	 M4.6424136,0.6797069H0v23.3158836h12.7167463v-4.3299637H4.6424136V0.6797069z M19.0363159,9.3255224l-3.5841122-8.6155787
	h-5.1806364l6.4505968,13.4686441v9.810956h4.6272945v-9.8139791l6.8114281-13.465621H22.946991L19.0363159,9.3255224z
	 M46.122776,0.7099441h-5.4134636L34.6941338,9.464613l0.0645027-8.7546692h-4.6262856v23.2796001h4.6262856v-7.3708153
	l2.0158119-2.9350204l4.8278694,10.3058357h5.4729309L39.9291954,9.821413L46.122776,0.7099441z"/>
</svg>
