<svg xmlns="http://www.w3.org/2000/svg" xmlns:xlink="http://www.w3.org/1999/xlink" version="1.1" id="Layer_1" x="0px" y="0px" xml:space="preserve" viewBox="163.6 425.9 752.9 228.2" data-v-ceeb40f4=""><g data-v-ceeb40f4=""><g data-v-ceeb40f4=""><path fill="#00FFFF" d="M303.4,540c0,14.2-11.5,25.7-25.7,25.7s-25.7-11.5-25.7-25.7c0-14.2,11.5-25.7,25.7-25.7    S303.4,525.8,303.4,540" data-v-ceeb40f4=""></path> <path fill="#00FFFF" d="M356,450.4c2.9,0,5.8,1.1,8,3.3c4.4,4.4,4.4,11.5,0,15.9c-2.2,2.2-5.1,3.3-8,3.3c-2.9,0-5.8-1.1-8-3.3    c-4.4-4.4-4.4-11.5,0-15.9C350.2,451.5,353.1,450.4,356,450.4" data-v-ceeb40f4=""></path> <path fill="#00FFFF" d="M383.4,497.1c-2.8-7-6.3-13.6-10.4-19.9c-0.2,0.2-0.5,0.5-0.7,0.7c-1.4,1.4-2.9,2.5-4.5,3.5    c3.7,5.7,6.9,11.8,9.5,18.1c5.2,12.9,7.9,26.5,7.9,40.4c0,14-2.6,27.6-7.9,40.4c-5.4,13.3-13.3,25.3-23.6,35.5    c-10.3,10.3-22.2,18.2-35.5,23.6c-12.9,5.2-26.5,7.9-40.4,7.9s-27.6-2.6-40.4-7.9c-13.3-5.4-25.3-13.3-35.5-23.6    c-10.3-10.3-18.2-22.2-23.6-35.5c-5.2-12.9-7.9-26.5-7.9-40.4c0-14,2.6-27.6,7.9-40.4c5.4-13.3,13.3-25.3,23.6-35.5    c10.3-10.3,22.2-18.2,35.5-23.6c12.9-5.2,26.5-7.9,40.4-7.9s27.6,2.6,40.4,7.9c6.4,2.6,12.4,5.7,18.1,9.5c1-1.6,2.1-3.1,3.5-4.5    c0.2-0.2,0.5-0.5,0.7-0.7c-6.2-4.1-12.9-7.6-19.9-10.4c-13.7-5.5-28.1-8.4-42.9-8.4c-14.8,0-29.3,2.8-42.9,8.4    c-14.2,5.7-26.9,14.2-37.7,25.1s-19.3,23.6-25.1,37.7c-5.5,13.7-8.4,28.1-8.4,42.9c0,14.8,2.8,29.3,8.4,42.9    c5.7,14.2,14.2,26.9,25.1,37.7c10.9,10.9,23.6,19.3,37.7,25.1c13.7,5.5,28.1,8.4,42.9,8.4c14.8,0,29.3-2.8,42.9-8.4    c14.2-5.7,26.9-14.2,37.7-25.1c10.9-10.9,19.3-23.6,25.1-37.7c5.5-13.7,8.4-28.1,8.4-42.9C391.7,525.2,388.9,510.7,383.4,497.1" data-v-ceeb40f4=""></path></g> <rect x="487.9" y="483.5" fill="white" width="20.5" height="114.7" data-v-ceeb40f4=""></rect> <polygon fill="white" points="536.8,502.3 610.8,502.3 610.8,598.2 631.2,598.2 631.2,502.3 704.5,502.3 704.5,483.5 536.8,483.5     " data-v-ceeb40f4=""></polygon> <polygon fill="white" points="814.4,483.5 732.8,483.5 732.8,598.2 753.3,598.2 753.3,502.3 814.4,502.3 814.4,598.2 834.9,598.2    834.9,502.3 896,502.3 896,598.2 896.1,598.2 916.5,598.2 916.5,483.5 814.4,483.5 814.4,483.5  " data-v-ceeb40f4=""></polygon></g></svg>