<svg xmlns="http://www.w3.org/2000/svg" width="82" height="30" viewBox="0 0 82 30">
  <g transform="translate(-95 -2863.914)">
    <rect  width="82" height="30" transform="translate(95 2863.914)" fill="none"/>
    <g transform="translate(1 58.93)">
      <path d="M1.826.935.3,4.376l-.3,8.4,13.759.216L13.28.282Z" transform="translate(104 2813.363)" fill="#e12b1a"/>
      <path d="M16.461.274V12.988h8.955V11.2H19.185V7.338h4.5V5.552l-4.5,0V2.055h6.069V.274Z" transform="translate(104.017 2813.363)" fill="#2f2f30"/>
      <path d="M27.837.274V12.987h8.042l0-1.807H30.559V.274Z" transform="translate(104.028 2813.363)" fill="#2f2f30"/>
      <path d="M47.661,9.115A5.282,5.282,0,0,1,42.4,13.237a5.663,5.663,0,0,1-3.931-1.4c-1.092-1.034-1.793-2.682-1.793-5.283a6.826,6.826,0,0,1,1.77-5.057A5.64,5.64,0,0,1,42.419.018a4.748,4.748,0,0,1,5.1,3.968l-2.735.241c-.344-1.526-1.019-2.4-2.379-2.4-1.656,0-2.941,1.317-2.941,4.824,0,3.573,1.36,4.787,2.913,4.787,1.478,0,2.285-1.271,2.518-2.639Z" transform="translate(104.038 2813.363)" fill="#2f2f30"/>
      <path d="M56.09,4.825c-.293-.97-.58-1.9-.858-3.028H55.1c-.267,1.119-.562,2.094-.838,3.029l-.895,3.03h3.621ZM52.78,9.636l-.989,3.35H48.833L53.338.273H57.02l4.511,12.713H58.572l-1.007-3.35Z" transform="translate(104.05 2813.363)" fill="#2f2f30"/>
    </g>
  </g>
</svg>
