<svg width="142" height="30" viewBox="0 0 142 30" fill="none" xmlns="http://www.w3.org/2000/svg">
<path d="M116.017 23.8776H115.783L114.808 23.8776H111.211H109.767V22.4725V7.71957V4.90949V0H141.017V5.89436V6.12245V23.8776H135.742L134.767 23.8776V7.71957V6.12245H133.48H129.648H128.517V23.8776L128.205 23.8776H126.761H123.789L122.267 23.8776V22.4725V7.71957V6.12245H120.902H117.07H116.017V23.8776Z" fill="#291E4B"/>
<path d="M128.517 6.12245H128.752L129.727 6.12245H133.323H134.767V7.52749V22.2804V25.0905V30H103.517V24.1056V23.8776V6.12245H108.792L109.767 6.12245V22.2804V23.8776H111.055H114.886H116.017V6.12245L116.33 6.12245H117.773H120.745L122.267 6.12245V7.52749V22.2804V23.8776H123.633H127.464H128.517V6.12245Z" fill="#291E4B" fill-opacity="0.15"/>
<path d="M0 29.7187H5.16538V15.6562C5.16538 12.6094 6.94979 10.875 9.34465 10.875C12.0682 10.875 13.5239 12.6094 13.5239 15.6562V29.7187H18.6893V15.6562C18.6893 12.6094 20.4737 10.875 22.8686 10.875C25.6391 10.875 27.0478 12.6094 27.0478 15.6562V29.7187H32.2132V14.3438C32.2132 8.57813 29.3018 6 24.5121 6C21.1311 6 19.2058 7.35938 17.4214 9.23438C16.1536 7.17188 14.1344 6 11.2699 6C8.68723 6 6.43325 7.21875 5.16538 8.95313V6.28125H0V29.7187Z" fill="#291E4B"/>
<path d="M58.2929 19.7812C58.3868 19.2188 58.4337 18.6094 58.4337 18C58.4337 11.3438 53.1745 6 46.5064 6C39.8384 6 34.5791 11.3438 34.5791 18C34.5791 24.6563 39.8384 30 46.6473 30C51.9535 30 56.5085 27.1406 58.105 22.875H51.9535C50.9674 24.375 49.0421 25.125 46.6473 25.125C43.2663 25.125 40.5897 22.7344 40.0262 19.7812H58.2929ZM46.5064 10.7813C49.4648 10.7813 52.0005 12.75 52.7518 15.1875H40.261C41.0123 12.75 43.5481 10.7813 46.5064 10.7813Z" fill="#291E4B"/>
<path d="M61.3041 29.7187H66.4694V15.6562C66.4694 12.6094 68.2538 10.875 70.6487 10.875C73.3723 10.875 74.828 12.6094 74.828 15.6562V29.7187H79.9933V15.6562C79.9933 12.6094 81.7777 10.875 84.1726 10.875C86.9431 10.875 88.3519 12.6094 88.3519 15.6562V29.7187H93.5173V14.3438C93.5173 8.57813 90.6059 6 85.8161 6C82.4352 6 80.5099 7.35938 78.7255 9.23438C77.4576 7.17188 75.4384 6 72.574 6C69.9913 6 67.7373 7.21875 66.4694 8.95313V6.28125H61.3041V29.7187Z" fill="#291E4B"/>
</svg>
