<svg width="146" height="32" viewBox="0 0 146 32" fill="none" xmlns="http://www.w3.org/2000/svg">
<g clip-path="url(#clip0_6619_567)">
<path d="M47.5481 1.84834H39.8107V25.5641H47.5148C55.1191 25.5641 60.0398 21.2608 60.0398 13.5716C60.0398 5.8824 55.149 1.84834 47.5481 1.84834ZM47.1086 22.2065H43.7493V5.20093H47.1086C53.1514 5.20093 55.968 8.24934 55.968 13.5683C55.968 18.8872 53.1514 22.2065 47.1086 22.2065Z" fill="#0E1114"/>
<path d="M70.5572 7.60773C65.5681 7.60773 61.563 11.2329 61.563 16.6532C61.563 22.3794 65.5681 25.9364 70.5572 25.9364C75.5462 25.9364 79.5514 22.278 79.5514 16.6532C79.5514 11.0285 75.6128 7.60773 70.5572 7.60773ZM70.5572 22.7168C67.4675 22.7168 65.3301 20.2435 65.3301 16.6515C65.3301 13.2641 67.4342 10.8256 70.5572 10.8256C73.6801 10.8256 75.7842 13.2658 75.7842 16.6515C75.7842 20.2767 73.6467 22.7168 70.5572 22.7168Z" fill="#0E1114"/>
<path d="M90.5546 7.60938H90.5528L90.5563 7.60605C87.8395 7.60605 85.9421 8.82606 85.0231 10.2472V8.01163H81.3576V32H85.0231V23.2604C86.007 24.7862 87.941 25.9381 90.4864 25.9381C94.8996 25.9381 98.6665 22.652 98.6665 16.6549C98.6665 10.6577 95.001 7.60938 90.5546 7.60938ZM89.9443 22.8182C87.1607 22.8182 84.9549 20.5127 84.9549 16.6532C84.9549 12.9948 87.0258 10.7259 89.9443 10.7259C92.6943 10.7259 94.8646 12.792 94.8646 16.6532C94.8646 20.5144 92.6943 22.8182 89.9443 22.8182Z" fill="#0E1114"/>
<path d="M109.905 7.60938H109.904L109.907 7.60605C107.19 7.60605 105.292 8.82606 104.373 10.2472V8.01163H100.707V32H104.373V23.2604C105.358 24.7862 107.292 25.9381 109.837 25.9381C114.249 25.9381 118.017 22.652 118.017 16.6549C118.017 10.6577 114.352 7.60938 109.905 7.60938ZM109.294 22.8182C106.511 22.8182 104.305 20.5127 104.305 16.6532C104.305 12.9948 106.376 10.7259 109.294 10.7259C112.044 10.7259 114.214 12.792 114.214 16.6532C114.214 20.5144 112.044 22.8182 109.294 22.8182Z" fill="#0E1114"/>
<path d="M128.432 7.60605L128.431 7.60938V7.60605C123.883 7.60605 119.71 11.095 119.71 16.6515C119.71 22.2081 123.783 25.9348 128.671 25.9348C132.098 25.9348 135.798 24.3091 136.851 20.5477H133.186C132.303 22.2414 130.539 22.8182 128.773 22.8182C126.093 22.8182 123.816 20.9532 123.477 17.9048H137.019V17.0588C137.019 10.7575 132.98 7.60605 128.432 7.60605ZM123.44 14.9927C123.746 12.315 125.851 10.6893 128.361 10.6893C131.008 10.6893 132.976 12.3832 133.182 14.9927H123.44Z" fill="#0E1114"/>
<path d="M142.719 22.6586V1.84335H139.053V22.1168C139.053 24.02 140.6 25.5641 142.506 25.5641H145.297V22.6586L142.719 22.6586Z" fill="#0E1114"/>
<path d="M17.1145 0V1.74361C20.9432 2.83731 23.7465 6.3528 23.7465 10.5249C23.7465 14.6969 20.9432 18.2157 17.1145 19.306V27.4407C23.5851 26.2123 28.4758 20.5377 28.4758 13.7195C28.4758 6.90133 23.5851 1.22834 17.1145 0Z" fill="#0E1114"/>
<path d="M4.72933 16.9175V16.9158C4.72933 12.7422 7.53265 9.22498 11.3614 8.13463V0.00166357C4.89247 1.22834 0 6.90297 0 13.7212C0 20.5394 4.89247 26.214 11.3614 27.4423V25.6988C7.53264 24.605 4.72933 21.0896 4.72933 16.9175Z" fill="#0E1114"/>
<path d="M11.6927 9.01726L10.5757 15.5462L16.7267 18.475L17.8437 11.9427L11.6927 9.01726Z" fill="#0E1114"/>
</g>
<defs>
<clipPath id="clip0_6619_567">
<rect width="145.297" height="32" fill="white"/>
</clipPath>
</defs>
</svg>
