<svg width="171" height="48" viewBox="0 0 171 48" fill="none" xmlns="http://www.w3.org/2000/svg"><g clip-path="url(#clip0_3777_34179)"><path d="M63.352 13.584c-.263 0-.5.156-.603.399-.88 2.093-4.26 10.13-5.05 12.095a.326.326 0 00.302.445h1.689c.313 0 .605-.165.723-.472 0 0 .268-.662.3-.755.509-1.458 3.698-2.147 5.705-1.988.224.018.374.094.459.307.055.15.979 2.436.979 2.436a.696.696 0 00.656.472h1.754c.23 0 .391-.234.305-.448-.792-1.966-4.12-9.871-5.052-12.092a.652.652 0 00-.603-.399h-1.564zm2.284 7.265c-1.439.113-2.721.715-3.547 1.506-.074.071-.192-.01-.154-.105.397-1 1.301-3.248 1.977-4.938a.24.24 0 01.447.002c.63 1.581 1.187 2.977 1.36 3.405a.095.095 0 01-.083.13zm15.35.017v5.206a.45.45 0 01-.45.45h-1.553a.45.45 0 01-.45-.45v-4.685c0-1.302-.713-2.5-1.877-2.447-1.567.071-2.304 1.425-2.304 3.47v3.662a.45.45 0 01-.45.45H72.35a.45.45 0 01-.45-.45v-8.654a.45.45 0 01.45-.45h1.552a.45.45 0 01.45.45v.656c0 .094.123.132.175.053.605-.914 1.632-1.343 2.742-1.343 2.23 0 3.716 1.774 3.716 4.082zm8.08-1.712a.455.455 0 00.454-.455v-1.277a.454.454 0 00-.454-.455h-2.593a.096.096 0 01-.097-.096v-2.832a.454.454 0 00-.454-.455h-1.606a.454.454 0 00-.454.455v2.832a.096.096 0 01-.096.096h-1.543a.454.454 0 00-.454.455V18.7c0 .251.203.455.454.455h1.543c.053 0 .096.043.096.096v3.323a3.947 3.947 0 003.944 3.95h1.26a.455.455 0 00.454-.455v-1.553a.454.454 0 00-.454-.454h-1.192c-.817 0-1.485-.67-1.485-1.488V19.25c0-.053.043-.096.096-.096h2.581zm9.293 15.894v1.678a.444.444 0 01-.409.444c-1.643.12-3.543.965-3.543 2.933v3.779a.45.45 0 01-.45.45h-1.622a.45.45 0 01-.45-.45v-8.655a.45.45 0 01.45-.45h1.623a.45.45 0 01.45.45v1.477c0 .099.132.133.178.045.584-1.11 1.847-2.01 3.291-2.147a.445.445 0 01.482.446zM90.266 40.2h-6.843a.098.098 0 00-.096.118c.29 1.308 1.266 2.102 2.428 2.102.722 0 1.619-.086 2.31-1.078a.449.449 0 01.37-.185H90.1c.207 0 .35.2.282.391-.617 1.742-2.266 3.034-4.626 3.034-2.765 0-4.969-2.048-4.969-5.052 0-3.005 2.204-5.072 5.008-5.072 3.307 0 4.937 2.627 4.772 5.451a.303.303 0 01-.3.29zm-6.754-1.78h4.466a.098.098 0 00.093-.126c-.363-1.136-1.274-1.635-2.277-1.635-.945 0-2.017.533-2.375 1.635a.098.098 0 00.093.126zm71.363.255v5.206a.45.45 0 01-.45.451h-1.552a.45.45 0 01-.451-.45v-4.685c0-1.303-.713-2.501-1.876-2.448-1.567.072-2.304 1.425-2.304 3.471v3.661a.45.45 0 01-.45.451h-1.553a.45.45 0 01-.45-.45v-8.654a.45.45 0 01.45-.451h1.553a.45.45 0 01.45.45v.656c0 .094.122.132.175.053.605-.914 1.631-1.343 2.742-1.343 2.23 0 3.716 1.775 3.716 4.082zm10.963 5.657h-1.548a.45.45 0 01-.45-.45v-.786c0-.093-.122-.128-.17-.049-.603 1-1.671 1.536-2.913 1.536-2.373 0-4.577-1.973-4.577-4.91 0-2.938 2.204-4.959 4.577-4.959 1.142 0 2.328.378 2.91 1.41.047.082.173.048.173-.047v-.85a.45.45 0 01.45-.45h1.548a.45.45 0 01.449.45v8.655a.45.45 0 01-.449.45zm-1.998-4.66c0-1.72-1.327-2.806-2.653-2.806-1.495 0-2.616 1.085-2.616 2.807 0 1.721 1.121 2.788 2.616 2.788 1.326 0 2.653-1.067 2.653-2.788zm-44.128 4.659h-1.548a.45.45 0 01-.45-.45v-.786c0-.093-.122-.128-.17-.048-.603 1-1.671 1.535-2.913 1.535-2.373 0-4.577-1.973-4.577-4.91 0-2.938 2.204-4.958 4.577-4.958 1.142 0 2.328.378 2.91 1.409.047.083.173.049.173-.047v-.85a.45.45 0 01.45-.45h1.548a.45.45 0 01.449.45v8.655a.45.45 0 01-.449.45zm-1.998-4.66c0-1.72-1.327-2.806-2.653-2.806-1.495 0-2.616 1.085-2.616 2.807 0 1.721 1.121 2.788 2.616 2.788 1.326 0 2.653-1.067 2.653-2.788zm14.881 4.661h-1.592a.454.454 0 01-.454-.455v-8.646c0-.25.203-.454.454-.454h1.592c.251 0 .454.203.454.454v8.646a.454.454 0 01-.454.455zm.027-10.554h-1.593a.455.455 0 01-.454-.454v-1.595c0-.251.204-.455.454-.455h1.593c.25 0 .454.204.454.455v1.595a.455.455 0 01-.454.454zm11.863 5.751c0 2.99-2.298 4.99-5.026 4.99-2.784 0-5.082-2-5.082-4.99 0-2.991 2.298-4.991 5.082-4.991 2.728 0 5.026 2 5.026 4.99zm-2.392 0c0-1.772-1.345-2.839-2.634-2.839-1.345 0-2.691 1.067-2.691 2.839 0 1.771 1.346 2.838 2.691 2.838 1.289 0 2.634-1.067 2.634-2.838zm-70.627-.854v5.206a.45.45 0 01-.45.451h-1.553a.45.45 0 01-.45-.45v-4.685c0-1.303-.713-2.501-1.877-2.448-1.566.072-2.303 1.425-2.303 3.471v3.661a.45.45 0 01-.45.451H62.83a.45.45 0 01-.45-.45v-8.654a.45.45 0 01.45-.451h1.552a.45.45 0 01.45.45v.656c0 .094.123.132.175.053.605-.914 1.632-1.343 2.743-1.343 2.23 0 3.716 1.775 3.716 4.082zm8.081-1.712c.25 0 .454-.203.454-.455v-1.277a.454.454 0 00-.454-.454h-2.594a.096.096 0 01-.096-.097v-2.832a.454.454 0 00-.454-.454h-1.607a.454.454 0 00-.454.454v2.832a.096.096 0 01-.096.097h-1.543a.454.454 0 00-.454.454v1.277c0 .252.203.455.454.455h1.543c.053 0 .096.043.096.097v3.323a3.947 3.947 0 003.945 3.95h1.26c.25 0 .454-.204.454-.456v-1.552a.454.454 0 00-.454-.455h-1.192c-.817 0-1.486-.67-1.486-1.488V37.06c0-.054.043-.097.097-.097h2.58zm49.22 0c.25 0 .453-.203.453-.455v-1.277a.454.454 0 00-.453-.454h-2.594a.097.097 0 01-.097-.097v-2.832a.454.454 0 00-.454-.454h-1.606a.454.454 0 00-.454.454v2.832a.096.096 0 01-.096.097h-1.543a.454.454 0 00-.454.454v1.277c0 .252.203.455.454.455h1.543c.053 0 .096.043.096.097v3.323a3.947 3.947 0 003.944 3.95h1.26a.454.454 0 00.454-.456v-1.552a.454.454 0 00-.454-.455h-1.191c-.817 0-1.486-.67-1.486-1.488V37.06c0-.054.043-.097.096-.097h2.582zm41.774 7.367h-1.593a.454.454 0 01-.454-.454V31.291c0-.252.203-.455.454-.455h1.593c.25 0 .454.203.454.455v12.585a.455.455 0 01-.454.455zm-110.82 0H58.13a.454.454 0 01-.454-.454V31.847c0-.251.203-.455.454-.455h1.592c.251 0 .454.204.454.455v12.029a.454.454 0 01-.454.455zm49.029-5.655v5.206a.45.45 0 01-.45.451h-1.552a.45.45 0 01-.451-.45v-4.685c0-1.303-.713-2.501-1.876-2.448-1.567.072-2.304 1.425-2.304 3.471v3.661a.45.45 0 01-.45.451h-1.553a.45.45 0 01-.45-.45v-8.654a.45.45 0 01.45-.451h1.553a.45.45 0 01.45.45v.656c0 .094.122.132.175.053.605-.914 1.631-1.343 2.742-1.343 2.23 0 3.716 1.775 3.716 4.082zm-81.751-24.91c-.308-.064-.593-.292-.724-.691-.117-.353-.082-.737-.016-1.102.338-1.883.642-3.771 1.082-5.638.356-1.512.856-3.012 1.774-4.283.66-.914 1.617-1.698 2.726-1.975 1.892-.475 2.678 1.376 2.021 2.945-.555 1.325-1.896 1.998-2.882 2.95-1.802 1.74-2.365 4.68-2.886 7.027-.132.597-.639.862-1.095.767zM10.912 4.514c.17-.502.434-.958.828-1.28a1.798 1.798 0 012.517.242c1.497 1.792.363 4.538.303 6.601-.05 1.739.533 3.535 1.233 5.07.136.298.363.602.404.942.07.57-.176 1.04-.616 1.257-.747.37-1.225-.415-1.533-.974-.711-1.29-1.319-2.678-1.893-4.036-.59-1.398-1.09-2.845-1.336-4.346a12.873 12.873 0 01-.158-1.556c-.021-.598.041-1.295.252-1.92zM21.74 28.38l-.092.027.092-.028z" fill="#fff"/><path d="M29.13 24.755c-.592-1.315-1.485-2.8-2.285-3.822a1.55 1.55 0 00-1.535-.57c-8.095 1.682-15.193 5.231-19.385 8.907C-.425 34.838.12 39.617 3.09 42.227c-1.024-1.93.53-4.6 3.504-6.874 6.664-5.096 18.201-8.24 21.713-8.982a1.167 1.167 0 00.822-1.616z" fill="url(#paint0_linear_3777_34179)"/><path d="M40.21 20.722a18.456 18.456 0 00-6.298-6.587 18.324 18.324 0 00-8.892-2.75c-.505-.022-1.012-.002-1.51-.02-.66-.026-1.305-.12-1.913-.467-.573-.329-1.33-.914-2.041-.666-.78.272-1.082 1.358-1.688 1.888-.851.747-1.888 1.155-2.847 1.727a19.71 19.71 0 00-2.382 1.65 18.449 18.449 0 00-3.834 4.29 18.336 18.336 0 00-2.898 9.499l.018-.016c4.192-3.676 11.29-7.225 19.385-8.906a1.55 1.55 0 011.535.57c.8 1.02 1.693 2.506 2.284 3.82.304.677-.1 1.465-.822 1.617-3.483.735-14.862 3.836-21.55 8.86 2.516 7.924 10.256 13.444 19.045 12.696 9.363-.797 16.68-8.702 16.745-18.094a18.38 18.38 0 00-2.338-9.111z" fill="#fff"/><path d="M3.09 42.227l.011.01c2.522 2.226 6.871 3.407 12.12 3.397a18.412 18.412 0 01-4.58-3.66c-3.866.101-5.86-.76-7.612-2.357-.345.94-.35 1.835.06 2.61z" fill="url(#paint1_linear_3777_34179)" opacity=".8"/><path d="M42.293 32.731a18.147 18.147 0 01-1.822 5.393c4.058-2.686 6.87-5.794 7.768-8.715.008-1.109-.353-1.914-.97-2.506-.795 3.092-3.953 5.105-4.976 5.828z" fill="url(#paint2_linear_3777_34179)"/><path d="M42.554 21.52a19.54 19.54 0 011.142 3.433c.071.31.314.552.625.618 2.263.48 3.933 1.463 3.918 3.838 1.098-3.238-.325-6.666-5.081-8.534-.395-.155-.773.255-.604.645z" fill="url(#paint3_linear_3777_34179)"/></g><defs><linearGradient id="paint0_linear_3777_34179" x1=".098" y1="37.129" x2="28.693" y2="23.814" gradientUnits="userSpaceOnUse"><stop stop-color="#fff"/><stop offset=".9" stop-color="#fff" stop-opacity=".6"/></linearGradient><linearGradient id="paint1_linear_3777_34179" x1="2.68" y1="40.368" x2="15.002" y2="46.106" gradientUnits="userSpaceOnUse"><stop stop-color="#fff"/><stop offset="1" stop-color="#fff" stop-opacity=".6"/></linearGradient><linearGradient id="paint2_linear_3777_34179" x1="48.068" y1="27.462" x2="40.551" y2="38.181" gradientUnits="userSpaceOnUse"><stop stop-color="#fff"/><stop offset="1" stop-color="#fff" stop-opacity=".6"/></linearGradient><linearGradient id="paint3_linear_3777_34179" x1="42.371" y1="21.266" x2="49.381" y2="28.265" gradientUnits="userSpaceOnUse"><stop stop-color="#fff"/><stop offset="1" stop-color="#fff" stop-opacity=".4"/></linearGradient><clipPath id="clip0_3777_34179"><path fill="#fff" d="M0 0h171v48H0z"/></clipPath></defs></svg>