<svg fill="none" height="500" viewBox="0 0 500 500" width="500" xmlns="http://www.w3.org/2000/svg" xmlns:xlink="http://www.w3.org/1999/xlink"><linearGradient id="a" gradientUnits="userSpaceOnUse" x1="204.514" x2="473.618" y1=".000002" y2="133.054"><stop offset="0" stop-color="#053d52"/><stop offset="1" stop-color="#021e29"/></linearGradient><rect fill="url(#a)" height="500" rx="88" width="500"/><path d="m421.369 264.865c-8.199-8.245-8.199-21.475 0-29.72l17.922-15.148c3.623-3.067 5.148-7.861 4.195-12.463-23.261-104.498-126.411-170.2651-230.324-146.8728-103.912 23.3923-169.501 127.1238-146.2398 231.6228 23.2611 104.498 126.4108 170.457 230.3238 147.065 72.834-16.49 129.843-73.629 146.24-147.065.953-4.602-.572-9.204-4.004-12.272zm-164.163 132.301c-80.842 0-146.24-65.767-146.24-147.065s65.398-147.065 146.24-147.065c57.771 0 110.204 34.321 133.656 87.433 1.526 3.26.572 7.287-2.097 9.779l-18.876 15.915c-1.525 1.15-3.623 1.15-5.148 0l-45.569-37.773c-39.468-35.472-99.908-32.021-135.181 7.669-35.273 39.691-31.842 100.472 7.626 135.944 17.541 15.723 40.231 24.543 63.873 24.543 26.884 0 49.382-11.888 68.449-29.144l30.888-26.269c1.716-1.534 1.906-4.026.381-5.752-.191-.192-.381-.384-.572-.575l-29.935-25.118c-1.525-1.342-3.622-1.342-5.148 0l-38.705 32.404c-9.533 5.944-20.782 8.436-32.031 6.903-26.884-3.644-45.76-28.378-42.137-55.413 3.622-27.036 28.218-46.018 55.102-42.375 6.483.959 12.774 3.068 18.494 6.327.763.576 3.242 2.493 4.004 3.068l105.438 87.434c2.67 2.301 3.814 6.136 2.479 9.395-23.261 54.263-76.266 89.735-134.991 89.735z" fill="#a5ce39"/></svg>