<svg fill="none" height="39" viewBox="0 0 132 39" xmlns="http://www.w3.org/2000/svg"><g fill="#02171f"><path d="m36.0567 20.861c-.8229-.823-.8229-2.1435 0-2.9664l1.799-1.5119c.3636-.3063.5168-.7847.4211-1.244-2.3349-10.43035-12.6887-16.99475-23.119-14.659889-10.4303 2.334859-17.01384 12.688589-14.678982 23.118989 2.334862 10.4303 12.688582 17.0138 23.118982 14.679 7.3108-1.6459 13.0331-7.3491 14.679-14.679.0957-.4594-.0575-.9187-.4019-1.2249zm-16.478 13.2053c-8.1146 0-14.67896-6.5644-14.67896-14.6789 0-8.1146 6.56436-14.67905 14.67896-14.67905 5.7989 0 11.0619 3.42574 13.4159 8.72705.1531.3253.0574.7272-.2105.976l-1.8947 1.5885c-.1531.1148-.3636.1148-.5167 0l-4.574-3.7702c-3.9617-3.5406-10.0285-3.19611-13.569.7655-3.54059 3.9616-3.19611 10.0284.7655 13.569 1.7607 1.5693 4.0382 2.4497 6.4113 2.4497 2.6985 0 4.9568-1.1866 6.8706-2.909l3.1004-2.622c.1722-.1531.1914-.4019.0383-.5741-.0192-.0192-.0383-.0383-.0574-.0574l-3.0047-2.5071c-.1531-.134-.3637-.134-.5168 0l-3.885 3.2343c-.9569.5933-2.0861.8421-3.2152.689-2.6985-.3636-4.5932-2.8325-4.2296-5.5309.3636-2.6985 2.8325-4.5932 5.531-4.2296.6507.0957 1.2822.3062 1.8564.6316.0765.0574.3253.2488.4019.3062l10.5834 8.727c.2679.2297.3828.6124.2488.9378-2.3349 5.4161-7.6553 8.9566-13.5499 8.9566z"/><path d="m54.295 31.2919c3.5597 0 6.6218-1.2439 8.727-3.5979l-2.1244-2.0478c-1.7607 1.8564-3.9233 2.7367-6.4304 2.7367-5.1673 0-8.9758-3.7319-8.9758-8.7844s3.8276-8.7844 8.9758-8.7844c2.5071 0 4.6697.842 6.4304 2.7176l2.1244-2.0669c-2.0861-2.35403-5.1673-3.55974-8.6888-3.55974-6.9663 0-12.1144 4.93764-12.1144 11.69344s5.1481 11.6934 12.0762 11.6934zm25.1858-17.5688-5.9711 13.856-6.0477-13.856h-3.2726l7.6361 17.2818-.555 1.2057c-.842 1.9903-1.799 2.6793-3.2917 2.6793-1.1675 0-2.2775-.4593-3.1004-1.2822l-1.3397 2.354c1.0717 1.0526 2.775 1.6076 4.4401 1.6076 2.641 0 4.6314-1.1483 6.1816-4.8037l8.4017-19.0425zm12.9374 17.5114c5.1865 0 8.9758-3.6936 8.9758-8.861 0-5.1673-3.7893-8.8227-8.9758-8.8227-5.1864 0-9.0141 3.6554-9.0141 8.8227 0 5.1674 3.8086 8.861 9.0141 8.861zm0-2.7559c-3.33 0-5.8371-2.4114-5.8371-6.1051 0-3.6936 2.5071-6.0668 5.8371-6.0668 3.3301 0 5.8181 2.3923 5.8181 6.0668 0 3.6746-2.488 6.1051-5.8181 6.1051zm13.3198 2.5645h3.139v-24.24806h-3.139zm16.536.1914c5.186 0 8.976-3.6936 8.976-8.861 0-5.1673-3.79-8.8227-8.976-8.8227-5.187 0-9.014 3.6746-9.014 8.8227 0 5.1482 3.827 8.861 9.014 8.861zm0-2.7559c-3.33 0-5.856-2.4114-5.856-6.1051 0-3.6936 2.526-6.0668 5.856-6.0668s5.818 2.3923 5.818 6.0668c0 3.6746-2.488 6.1051-5.818 6.1051z" stroke="#02171f" stroke-width=".191382"/></g></svg>