<svg xmlns="http://www.w3.org/2000/svg" viewbox="0 0 94 18" fill="none" class="h-[22px]" data-sentry-element="svg" data-sentry-source-file="InworldLogo.tsx" data-sentry-component="InworldLogo"><g fill="currentColor" clip-path="url(#inworldLogo)" data-sentry-element="g" data-sentry-source-file="InworldLogo.tsx"><path d="m23.969 3.006.095.019c.951.185 1.183.422 1.183 1.204v10.42c0 .783-.232 1.018-1.183 1.204l-.095.019v1.02h4.948v-1.02l-.095-.019c-.921-.18-1.16-.432-1.16-1.227V4.229c0-.786.228-1.022 1.16-1.204l.095-.019v-1.02h-4.948v1.02ZM40.811 14.718v-4.577c0-2.6-1.242-4.092-3.41-4.092-1.616 0-2.843.701-3.835 1.43V6.212l-.1.042a9.958 9.958 0 0 1-2.092.612l-1.335.237v.986l.098.017c.767.132 1.11.324 1.11 1.111v5.502c0 .764-.33.96-1.116 1.136l-.092.02v1.018h4.783V15.87l-.098-.017c-.72-.128-1.063-.333-1.063-1.158V8.478a5.743 5.743 0 0 1 2.581-.602c1.507 0 2.178.798 2.178 2.589v4.23c0 .821-.35 1.027-1.086 1.158l-.097.017v1.022h4.782v-1.017l-.092-.02c-.786-.177-1.115-.373-1.115-1.137h-.001ZM59.076 7.246V6.212H55.24v1.052l.106.01c.426.046.696.16.825.351.117.173.124.418.022.75l-1.927 6.21-2.704-8.234h-1.688l-2.772 8.234-1.881-6.254c-.093-.325-.09-.545.009-.696.117-.177.392-.291.865-.36l.1-.016V6.212h-4.71v1.025l.073.03c.65.263.815.504 1.046 1.202l2.963 8.423h2.229l2.472-7.062 2.448 7.062h2.254l2.915-8.424c.242-.71.542-1.034 1.105-1.197l.085-.025ZM64.138 6.05c-1.458 0-2.78.549-3.724 1.545-.971 1.025-1.484 2.426-1.484 4.05 0 1.623.499 2.93 1.443 3.913.927.965 2.247 1.496 3.718 1.496 1.47 0 2.86-.557 3.827-1.568.967-1.011 1.5-2.433 1.5-4.003 0-3.148-2.22-5.433-5.28-5.433Zm.42 9.873c-1.635.125-2.833-1.58-3.054-4.344-.099-1.236.052-2.3.437-3.08.39-.788 1.004-1.236 1.778-1.295 1.65-.125 2.856 1.56 3.074 4.294.163 2.044-.338 4.28-2.235 4.425ZM77.695 1.996v.989l.098.017c.767.132 1.11.324 1.11 1.111v10.605c0 .764-.33.96-1.115 1.136l-.092.02v1.017h4.806v-1.016l-.091-.02c-.787-.181-1.116-.379-1.116-1.136V1.178a13.492 13.492 0 0 1-3.6.819ZM89.146 2.005v.986l.098.017c.767.132 1.11.324 1.11 1.111v2.248a3.065 3.065 0 0 0-1.09-.284c-1.655-.133-3.234.584-4.43 1.643-1.223 1.084-1.897 2.541-1.897 4.103 0 3.4 2.677 5.21 4.608 5.21 0 0 1.815.079 3.084-1.62l.01.322v1.22c.8-.308 1.633-.53 2.482-.663l.88-.136v-.99l-.103-.014c-.865-.114-1.13-.379-1.13-1.134V1.178c-1.123.44-2.328.721-3.621.827h-.001ZM88.6 15.312c-.735-.012-1.482-.391-2.05-1.041-.472-.54-1.035-1.52-1.035-3.119 0-3.723 2.3-3.767 2.782-3.768.475 0 1.916.286 2.13 1.814l.01-.057.154 5.018c-.446.666-1.24 1.152-1.99 1.152ZM76.37 8.171c-1.228 0-2.735 1.835-2.76 3.667l.032 2.858c0 .812.375 1.027 1.11 1.157l.098.018v1.02h-4.83v-1.016l.092-.02c.787-.176 1.115-.373 1.115-1.136V9.217c0-.787-.342-.98-1.11-1.112l-.098-.016v-.986l1.336-.237a9.994 9.994 0 0 0 2.092-.613l.1-.042.025 2.239c.565-1.606 1.886-2.397 2.838-2.396.884 0 .987.158.987.158V8.31s-.274-.138-1.03-.138h.002ZM4.321 2.988c-.029.006-.03-.021-.013-.03.57-.326 1.381-.404 1.442-.448.054-.075-.371-.07-.52-.07a4.2 4.2 0 0 0-2.777 1.138C1.268 4.564.88 6.187 1.043 7.645a5.597 5.597 0 0 0 2.301 3.817c2.627 1.724 6.335.9 8.3-1.446 2.42-2.864 1.697-6.942-.832-8.806A6.956 6.956 0 0 0 8.664.213C8.303.108 7.8.007 7.569 0c-.354-.011-.236.273-.299.343-.062.07-.71.098.023.35.434.148.17.157-.161.45-.293.258-.037.548-.139.65-.434.437.231.629.574.82 1.664.867 2.58 2.427 2.277 4.264-.426 2.428-4.128 3.476-5.766 1.557-1.26-1.456-.784-3.878 1.01-4.668.249-.118.81-.289.569-.269-.929.076-1.654.558-1.888.733-.02.015-.047-.008-.035-.03.17-.291 1.155-.972 3.091-1.211.346-.073-.956-.34-2.504-.001ZM5.116 17.583c.105 0 .21.014.308.024.253.008.537-.02.815.015.604.033 1.212.165 1.817.18.418.03.816.011 1.242.027.322.04.704.016.992.058.18.02.345.011.525.037.478.067.954.077 1.438.07.184.006.372.01.556-.002.196-.011.41-.003.567-.126.093-.053.089-.163.108-.238.024-.04.075-.063.098-.104a.713.713 0 0 0 .042-.22V17.3c.005-.25-.117-.496-.21-.727a8.62 8.62 0 0 0-.537-.965c-.22-.304-.332-.72-.707-.884-.676-.29-1.372-.26-2.12-.348a59.988 59.988 0 0 0-4.217-.228c-1.222.017-3.381.095-4.493.191-1.974.172-1.055.478-1.117 1.019-.023.2-.246.183-.221.378.041.283.585.638.859.71 1.204.314-.394.36-.215.675.148.262.811.187 1.082.29l3.387.172Z" data-sentry-element="path" data-sentry-source-file="InworldLogo.tsx"></path></g><defs data-sentry-element="defs" data-sentry-source-file="InworldLogo.tsx"><clippath id="inworldLogo" data-sentry-element="clipPath" data-sentry-source-file="InworldLogo.tsx"><path fill="#fff" d="M0 0h94v18H0z" data-sentry-element="path" data-sentry-source-file="InworldLogo.tsx"></path></clippath></defs></svg>