<svg viewbox="0 0 282 87" class="logo_header"><path d="M32.1554 77.5652H0V44.0577H32.1554C36.3709 44.0577 39.9243 42.5951 45.5319 35.1616L53.8441 23.13L54.0306 22.8795C59.0552 16.1596 63.9586 11.3465 69.4613 7.73368C76.8012 2.91584 85.0365 0.472656 93.9409 0.472656H126.096V33.9802H93.9409C89.7254 33.9802 86.172 35.4428 80.5644 42.8763L72.2522 54.9079L72.0657 55.1584C67.041 61.8783 62.1376 66.6914 56.635 70.3042C49.2951 75.1221 41.0598 77.5652 32.1554 77.5652Z" fill="#FF5A36"></path><path d="M148.312 72.9245H166.238V77.5675H142.336V44.06H166.049V48.703H148.312V58.1331H160.971V62.7761H148.312V72.9245ZM186.868 54.0997C185.805 53.5185 184.557 53.2255 183.123 53.2255C181.55 53.2255 180.144 53.5445 178.908 54.1824C177.672 54.8204 176.702 55.7135 176.003 56.8643C175.72 57.3274 175.499 57.8141 175.329 58.3269V53.7051H170.108V77.5675H175.658V62.9202C175.658 61.8664 175.865 60.9614 176.282 60.203C176.7 59.4445 177.283 58.8703 178.031 58.4804C178.78 58.0906 179.649 57.8945 180.64 57.8945C181.932 57.8945 182.927 58.2371 183.627 58.9247C184.326 59.6099 184.679 60.5928 184.679 61.8688V77.5699H190.253V60.5054C190.253 59.005 189.955 57.7102 189.356 56.6162C188.757 55.5245 187.926 54.6857 186.863 54.1021L186.868 54.0997ZM214.041 58.3954C214.906 60.0541 215.339 61.994 215.339 64.2103V66.8189H199.515V67.92C199.515 69.1818 199.731 70.2663 200.165 71.176C200.599 72.0857 201.224 72.7757 202.042 73.2459C202.861 73.7161 203.854 73.9524 205.017 73.9524C205.931 73.9524 206.733 73.8082 207.426 73.5223C208.118 73.2341 208.69 72.7969 209.137 72.2062C209.585 71.6155 209.888 70.8972 210.047 70.0513H214.983C214.731 71.71 214.169 73.1419 213.295 74.347C212.42 75.552 211.275 76.4688 209.858 77.0997C208.44 77.7306 206.803 78.0448 204.945 78.0448C202.725 78.0448 200.771 77.5911 199.088 76.6814C197.402 75.7718 196.101 74.4793 195.18 72.804C194.259 71.1288 193.798 69.1747 193.798 66.9394V64.3072C193.798 62.0885 194.25 60.1392 195.155 58.4544C196.059 56.7721 197.335 55.4796 198.981 54.577C200.627 53.6768 202.536 53.2255 204.707 53.2255C206.878 53.2255 208.741 53.672 210.34 54.5652C211.938 55.4584 213.171 56.7343 214.036 58.3954H214.041ZM199.517 63.062V63.5157H209.862V63.1093C209.862 61.8499 209.662 60.7748 209.261 59.8911C208.86 59.005 208.282 58.3316 207.524 57.8685C206.768 57.4053 205.854 57.1738 204.784 57.1738C203.651 57.1738 202.695 57.4101 201.914 57.8803C201.135 58.3505 200.541 59.0263 200.13 59.9029C199.72 60.7795 199.517 61.8333 199.517 63.062ZM227.928 54.3029C227.063 54.7022 226.317 55.2835 225.696 56.0491C225.074 56.8146 224.605 57.7243 224.29 58.7782V53.7051H219.096V77.5675H224.645V63.3266C224.645 62.3059 224.822 61.46 225.176 60.7889C225.531 60.1179 226.046 59.6241 226.722 59.3051C227.398 58.9861 228.243 58.8254 229.25 58.8254H232.225V53.7028H230.807C229.753 53.7028 228.79 53.9036 227.925 54.3006L227.928 54.3029ZM250.934 53.7051H256.154V78.0708C256.154 79.9374 255.8 81.5324 255.091 82.8579C254.382 84.1811 253.319 85.2042 251.904 85.9225C250.486 86.6408 248.747 87 246.683 87H243.848C241.973 87 240.355 86.6692 238.994 86.0076C237.632 85.346 236.585 84.3914 235.853 83.1486C235.121 81.9033 234.755 80.436 234.755 78.7442V78.3851H239.856V78.8387C239.856 79.7319 240.034 80.4904 240.388 81.1118C240.742 81.7332 241.253 82.2081 241.922 82.5366C242.591 82.8626 243.398 83.0281 244.342 83.0281H246.161C247.122 83.0281 247.928 82.8721 248.581 82.5602C249.234 82.2483 249.726 81.771 250.057 81.1236C250.388 80.4785 250.554 79.6752 250.554 78.7182V72.4685C249.873 73.8815 248.943 74.9873 247.756 75.7741C246.457 76.6366 244.918 77.0666 243.139 77.0666C241.36 77.0666 239.777 76.6436 238.439 75.7977C237.1 74.9518 236.065 73.7515 235.333 72.1968C234.601 70.642 234.235 68.825 234.235 66.7528V63.6173C234.235 61.5427 234.601 59.7233 235.333 58.1591C236.065 56.5949 237.1 55.3827 238.439 54.5203C239.777 53.6579 241.344 53.2278 243.139 53.2278C244.935 53.2278 246.457 53.6508 247.756 54.4967C249.055 55.3426 250.05 56.5476 250.743 58.1118C250.81 58.2631 250.871 58.4214 250.932 58.5773V53.7075L250.934 53.7051ZM249.987 69.5598C250.461 68.4682 250.696 67.1946 250.696 65.7415V64.7845C250.696 63.2699 250.463 61.9609 249.999 60.8598C249.535 59.7587 248.866 58.9128 247.991 58.3221C247.117 57.7314 246.091 57.4361 244.909 57.4361C243.869 57.4361 242.981 57.6511 242.239 58.0835C241.498 58.5135 240.941 59.1279 240.563 59.9265C240.185 60.7251 239.996 61.6986 239.996 62.847V67.5632C239.996 68.6974 240.185 69.6662 240.563 70.4719C240.941 71.2776 241.5 71.8967 242.239 72.3267C242.978 72.7568 243.869 72.9718 244.909 72.9718C246.089 72.9718 247.112 72.6764 247.98 72.0857C248.845 71.495 249.514 70.6538 249.987 69.5598ZM276.204 53.7051L270.629 73.9547L265.056 53.7051H259.316L266.425 77.1375H269.701L268.764 80.5612C268.605 81.0078 268.416 81.3717 268.197 81.6505C267.976 81.9293 267.71 82.1325 267.395 82.2601C267.08 82.3877 266.703 82.4515 266.262 82.4515H261.419V86.6645H267.561C268.505 86.6645 269.351 86.492 270.1 86.1494C270.848 85.8068 271.478 85.2917 271.988 84.6064C272.499 83.9212 272.921 83.0351 273.252 81.9506L281.707 53.7075H276.204V53.7051ZM163.251 16.6415C161.969 15.8831 160.357 15.3301 158.422 14.9781L151.148 13.8061C150.045 13.5982 149.156 13.3194 148.478 12.9697C147.802 12.62 147.305 12.1639 146.99 11.6063C146.675 11.0487 146.517 10.3705 146.517 9.57189V9.52463C146.517 8.55114 146.813 7.68161 147.403 6.91605C147.993 6.15049 148.821 5.5645 149.884 5.15573C150.947 4.74932 152.201 4.54612 153.652 4.54612C155.102 4.54612 156.375 4.77059 157.431 5.21716C158.485 5.66374 159.336 6.32298 159.982 7.1925C160.628 8.06203 161.045 9.11822 161.234 10.3634H166.69C166.501 8.22507 165.855 6.37732 164.753 4.82257C163.65 3.26782 162.169 2.07458 160.313 1.24522C158.455 0.415861 156.275 0 153.771 0C151.266 0 148.932 0.415861 147.004 1.24522C145.076 2.07458 143.595 3.24419 142.565 4.75168C141.534 6.25918 141.019 8.01005 141.019 10.0043V10.0752C141.019 11.7835 141.352 13.2556 142.024 14.4913C142.693 15.7271 143.661 16.7219 144.929 17.4709C146.198 18.2223 147.75 18.7563 149.595 19.0753L156.988 20.2968C158.058 20.4882 158.928 20.7671 159.597 21.1333C160.266 21.4995 160.765 21.9674 161.097 22.5345C161.428 23.1015 161.593 23.7915 161.593 24.6043V24.6752C161.593 25.729 161.285 26.6505 160.672 27.4397C160.059 28.2289 159.187 28.8409 158.063 29.2709C156.937 29.701 155.627 29.9184 154.13 29.9184C152.633 29.9184 151.259 29.6939 150.103 29.2473C148.946 28.8007 148.009 28.1391 147.293 27.2602C146.578 26.3835 146.109 25.3226 145.887 24.0774H140.385C140.62 26.263 141.324 28.1344 142.5 29.6892C143.672 31.2439 145.246 32.4301 147.223 33.2429C149.198 34.0557 151.495 34.4645 154.109 34.4645C156.722 34.4645 159.077 34.0462 161.029 33.2074C162.98 32.371 164.48 31.1683 165.529 29.6065C166.576 28.0423 167.1 26.1922 167.1 24.0538V23.9829C167.1 22.2911 166.781 20.8356 166.145 19.614C165.508 18.3924 164.547 17.4047 163.263 16.6463L163.251 16.6415ZM179.015 29.3867C178.654 29.0205 178.472 28.5007 178.472 27.832V13.9266H183.998V10.1201H178.472V3.01027H173.181V8.18017C173.181 8.70709 173.125 9.10641 173.016 9.37577C172.906 9.6475 172.731 9.83889 172.496 9.94995C172.26 10.061 171.929 10.1177 171.505 10.1177H168.884V13.9243H172.946V28.5007C172.946 30.2562 173.414 31.6078 174.352 32.5577C175.289 33.5075 176.623 33.9825 178.355 33.9825H184.189V29.9373H180.552C179.889 29.9373 179.379 29.753 179.017 29.3867H179.015ZM206.435 14.8103C207.3 16.469 207.734 18.4089 207.734 20.6253V23.2339H191.909V24.335C191.909 25.5944 192.126 26.6813 192.559 27.591C192.993 28.5007 193.618 29.1906 194.436 29.6608C195.255 30.131 196.248 30.3673 197.412 30.3673C198.326 30.3673 199.128 30.2232 199.82 29.9373C200.513 29.649 201.084 29.2119 201.531 28.6212C201.979 28.0304 202.282 27.3121 202.441 26.4662H207.377C207.125 28.125 206.563 29.5568 205.689 30.7619C204.814 31.9669 203.67 32.8837 202.252 33.5146C200.834 34.1455 199.198 34.4597 197.339 34.4597C195.12 34.4597 193.166 34.0061 191.482 33.0964C189.796 32.1867 188.495 30.8942 187.574 29.219C186.653 27.5437 186.192 25.5896 186.192 23.3544V20.7222C186.192 18.5034 186.644 16.5541 187.549 14.8694C188.453 13.187 189.729 11.8946 191.375 10.992C193.021 10.0917 194.931 9.64041 197.101 9.64041C199.272 9.64041 201.135 10.087 202.735 10.9801C204.332 11.8733 205.565 13.1492 206.43 14.8103H206.435ZM191.911 19.4769V19.9306H202.257V19.5242C202.257 18.2648 202.056 17.1897 201.655 16.306C201.254 15.4199 200.676 14.7465 199.918 14.2834C199.163 13.8203 198.249 13.5887 197.178 13.5887C196.045 13.5887 195.089 13.825 194.308 14.2952C193.529 14.7654 192.935 15.4412 192.524 16.3178C192.114 17.1944 191.911 18.2483 191.911 19.4769ZM231.306 29.9373H232.558V33.9825H229.418C228.361 33.9825 227.485 33.8029 226.785 33.4437C226.083 33.0846 225.566 32.5458 225.225 31.8275C224.983 31.3124 224.829 30.7052 224.759 30.0081C224.601 30.4382 224.395 30.8446 224.139 31.2297C223.47 32.2339 222.537 33.0208 221.341 33.5879C220.145 34.1549 218.783 34.4385 217.256 34.4385C215.822 34.4385 214.568 34.1833 213.488 33.6729C212.408 33.1625 211.588 32.4277 211.019 31.4707C210.45 30.5138 210.168 29.3891 210.168 28.0966V27.2838C210.168 26.2158 210.38 25.2541 210.804 24.3988C211.229 23.5458 211.856 22.8322 212.681 22.2556C213.507 21.6815 214.519 21.2751 215.717 21.0341L223.038 19.5502C223.526 19.4391 223.889 19.2737 224.125 19.0587C224.36 18.8437 224.479 18.5294 224.479 18.1136V17.348C224.479 16.5494 224.321 15.8712 224.006 15.3136C223.691 14.756 223.223 14.333 222.6 14.0448C221.977 13.7565 221.217 13.6147 220.32 13.6147C219.422 13.6147 218.599 13.7707 217.899 14.0826C217.198 14.3945 216.647 14.8718 216.246 15.5192C215.845 16.1666 215.628 16.9676 215.596 17.9246H210.59C210.685 16.1524 211.128 14.6544 211.924 13.4257C212.719 12.197 213.84 11.2637 215.288 10.6257C216.736 9.98775 218.485 9.66877 220.532 9.66877C222.469 9.66877 224.153 9.96885 225.587 10.5666C227.018 11.1644 228.11 12.0222 228.858 13.1398C229.607 14.2574 229.98 15.5901 229.98 17.1377V28.6023C229.98 29.1126 230.078 29.4647 230.276 29.6561C230.472 29.8475 230.814 29.9443 231.304 29.9443L231.306 29.9373ZM224.479 25.9393V21.8587C224.428 21.9249 224.37 21.9886 224.302 22.0501C224.011 22.3124 223.575 22.5085 222.992 22.6361L218.527 23.6166C217.864 23.7608 217.319 23.9758 216.885 24.2617C216.452 24.55 216.132 24.9068 215.929 25.3392C215.724 25.7692 215.621 26.2819 215.621 26.8703V27.7091C215.621 28.6826 215.943 29.4434 216.589 29.994C217.235 30.5445 218.14 30.8186 219.305 30.8186C220.313 30.8186 221.206 30.6201 221.987 30.2208C222.766 29.8215 223.376 29.252 223.817 28.5101C224.258 27.7682 224.479 26.9105 224.479 25.937V25.9393ZM250.579 0.474932H256.152V33.9825H250.957L250.973 28.9567C250.908 29.1268 250.841 29.2946 250.768 29.46C250.059 31.0549 249.052 32.2836 247.744 33.146C246.436 34.0084 244.902 34.4385 243.139 34.4385C241.377 34.4385 239.73 34.0037 238.392 33.1342C237.054 32.2647 236.023 31.0289 235.298 29.4245C234.573 27.8202 234.211 25.9346 234.211 23.7631V20.3158C234.211 18.1608 234.573 16.2824 235.298 14.678C236.021 13.0736 237.054 11.8331 238.392 10.9565C239.73 10.0799 241.314 9.64041 243.139 9.64041C244.965 9.64041 246.429 10.0705 247.721 10.9329C248.936 11.7433 249.887 12.8846 250.579 14.3472V0.474932ZM250.719 21.4877C250.719 19.9235 250.479 18.5672 249.999 17.4189C249.519 16.2706 248.845 15.3892 247.98 14.7749C247.115 14.1605 246.082 13.8534 244.886 13.8534C243.862 13.8534 242.981 14.0778 242.239 14.5244C241.5 14.971 240.936 15.6208 240.551 16.4761C240.164 17.3291 239.973 18.3546 239.973 19.5526V24.602C239.973 25.8141 240.166 26.8396 240.551 27.6784C240.936 28.5172 241.5 29.1622 242.239 29.6159C242.978 30.0696 243.862 30.2988 244.886 30.2988C246.082 30.2988 247.112 29.9869 247.98 29.3655C248.845 28.744 249.519 27.8532 249.999 26.6978C250.479 25.54 250.719 24.1719 250.719 22.5935V21.4925V21.4877ZM276.204 10.1201L270.629 30.3697L265.056 10.1201H259.316L266.425 33.5524H269.701L268.764 36.9762C268.605 37.4228 268.416 37.7866 268.197 38.0654C267.976 38.3443 267.71 38.5475 267.395 38.6751C267.08 38.8027 266.703 38.8665 266.262 38.8665H261.419V43.0794H267.561C268.505 43.0794 269.351 42.9069 270.1 42.5643C270.848 42.2217 271.478 41.7066 271.988 41.0214C272.499 40.3361 272.921 39.4501 273.252 38.3655L281.707 10.1224H276.204V10.1201Z" fill="#253E28"></path></svg>