<svg width="21" height="27" viewbox="0 0 21 27" fill="none" xmlns="http://www.w3.org/2000/svg" data-v-62a1c79a="" data-v-915f865c=""><path d="M0.0128955 13.5036C0.0128955 9.2607 0.0257909 5.0178 0 0.774911C0 0.154303 0.193485 -0.0230045 0.799757 0.00231768C1.99938 0.0403204 3.21191 0.0403204 4.41153 0.00231768C5.0307 -0.0230045 5.22419 0.154303 5.21129 0.774911C5.1855 4.97981 5.1984 9.17204 5.1984 13.3769C5.1984 13.5416 5.1855 13.7188 5.1984 13.8836C5.22419 14.0861 5.28869 14.2762 5.34029 14.4662C5.50798 14.3648 5.71436 14.2888 5.85625 14.1495C7.89434 12.009 9.95821 9.8813 11.9576 7.70286C13.7119 5.80306 13.6861 5.77772 16.2531 5.77772C17.4398 5.77772 18.6136 5.77772 19.8003 5.77772C19.9552 5.77772 20.1099 5.85372 20.2647 5.89171C20.1744 6.0057 20.0971 6.13235 19.9938 6.23368C17.2463 9.08338 14.5116 11.9458 11.7512 14.7828C11.3384 15.2008 11.2997 15.4667 11.6996 15.9353C14.7567 19.4816 17.7752 23.0532 20.8065 26.6122C20.8838 26.7008 20.9355 26.8149 21 26.9161C20.8838 26.9415 20.7549 26.9795 20.6387 26.9795C18.6652 26.9795 16.6788 27.0049 14.7051 26.9542C14.3956 26.9415 13.9957 26.6755 13.7892 26.4096C11.2481 23.2432 8.73279 20.0642 6.20453 16.8852C5.95945 16.5813 5.64987 16.3533 5.36609 16.0874C5.31448 16.4673 5.21129 16.8473 5.21129 17.2272C5.1984 20.1655 5.1984 23.0913 5.1984 26.0297C5.1984 26.9795 5.1984 26.9795 4.20515 26.9795C3.04422 26.9795 1.88329 26.9542 0.722358 26.9921C0.154785 27.0428 0 26.8529 0 26.2956C0.0257909 22.0274 0.0128955 17.7718 0.0128955 13.5036Z" fill="#1C1C1C" data-v-915f865c=""></path></svg>