<svg class="logo-full" width="149" height="28" viewbox="0 0 149 28" fill="none" xmlns="http://www.w3.org/2000/svg" data-v-62a1c79a="" data-v-1983ef8e=""><path class="l3" d="M68.9873 13.756C68.9873 18.0743 68.9745 22.3926 69 26.7107C69 27.3424 68.822 27.5229 68.2121 27.4971C67.0431 27.4584 65.8868 27.4713 64.7178 27.4971C64.2731 27.5099 64.1079 27.3424 64.1333 26.9042C64.1588 26.1952 64.146 25.4861 64.1333 24.7773C64.1333 24.6097 64.019 24.442 63.9682 24.2745C63.8411 24.3776 63.6759 24.455 63.5997 24.5839C61.8716 27.1619 59.3049 28.0127 56.446 27.9999C50.9567 27.9611 47.221 24.4678 46.268 19.3763C45.7598 16.6434 45.9376 13.9365 47.1194 11.3842C48.7711 7.81363 51.5031 5.76408 55.4293 5.40315C57.9326 5.18402 60.2197 5.72541 62.2273 7.29802C62.5958 7.58161 62.9008 7.95542 63.2438 8.26479C63.371 8.38081 63.5361 8.47103 63.6886 8.57416C63.7395 8.38081 63.8665 8.18745 63.8665 7.9941C63.8792 5.63518 63.8792 3.26336 63.8792 0.904449C63.8792 0.0150221 63.8792 0.0150222 64.7306 0.0150222C65.9122 0.0150222 67.1067 0.040794 68.2884 0.00212962C68.8601 -0.0236555 69 0.182585 69 0.736872C68.9745 5.08089 68.9873 9.41203 68.9873 13.756ZM64.019 16.6822C64.019 12.8409 61.2998 9.99209 57.653 9.95342C54.1714 9.92764 51.1091 12.5057 51.1346 16.6692C51.1599 20.8715 54.2476 23.3336 57.5895 23.3336C61.2617 23.3336 64.0063 20.4977 64.019 16.6822Z" fill="#1C1C1C" data-v-1983ef8e=""></path><path class="l7" d="M148.987 13.837C148.987 18.0963 148.987 22.3558 148.987 26.6151C148.987 27.5186 148.987 27.5186 148.072 27.5186C147.015 27.5186 145.948 27.4928 144.892 27.5315C144.383 27.5444 144.154 27.3895 144.179 26.8475C144.217 26.1375 144.192 25.4277 144.179 24.7177C144.179 24.5758 144.064 24.4337 143.988 24.2789C143.874 24.3564 143.721 24.4209 143.645 24.5242C142.156 26.8345 139.93 27.751 137.348 27.9574C134.117 28.2156 131.267 27.3121 128.977 24.9243C127.361 23.2463 126.509 21.1812 126.178 18.8966C125.81 16.3927 125.975 13.9145 127.031 11.5783C128.684 7.89979 131.432 5.74431 135.478 5.39581C137.703 5.20221 139.777 5.60233 141.647 6.86723C142.219 7.25444 142.703 7.79653 143.237 8.24828C143.39 8.37736 143.569 8.4548 143.746 8.55805C143.809 8.36445 143.925 8.17084 143.925 7.96433C143.95 7.03501 143.937 6.11861 143.937 5.1893C143.937 3.67917 143.95 2.18194 143.925 0.671809C143.912 0.168436 144.077 -0.0122685 144.586 0.000640854C145.82 0.0264596 147.04 0.039369 148.275 0.000640854C148.834 -0.0122685 149 0.181346 149 0.736343C148.975 5.11186 148.987 9.47446 148.987 13.837ZM137.577 23.3625C141.266 23.3754 144.089 20.4713 144.089 16.6637C144.089 12.8819 141.279 9.97783 137.64 9.96492C133.951 9.96492 131.165 12.8174 131.152 16.5991C131.127 20.4713 133.875 23.3625 137.577 23.3625Z" fill="#1C1C1C" data-v-1983ef8e=""></path><path class="l1" d="M0.0128955 13.5036C0.0128955 9.2607 0.0257909 5.0178 0 0.774911C0 0.154303 0.193485 -0.0230045 0.799757 0.00231768C1.99938 0.0403204 3.21191 0.0403204 4.41153 0.00231768C5.0307 -0.0230045 5.22419 0.154303 5.21129 0.774911C5.1855 4.97981 5.1984 9.17204 5.1984 13.3769C5.1984 13.5416 5.1855 13.7188 5.1984 13.8836C5.22419 14.0861 5.28869 14.2762 5.34029 14.4662C5.50798 14.3648 5.71436 14.2888 5.85625 14.1495C7.89434 12.009 9.95821 9.8813 11.9576 7.70286C13.7119 5.80306 13.6861 5.77772 16.2531 5.77772C17.4398 5.77772 18.6136 5.77772 19.8003 5.77772C19.9552 5.77772 20.1099 5.85372 20.2647 5.89171C20.1744 6.0057 20.0971 6.13235 19.9938 6.23368C17.2463 9.08338 14.5116 11.9458 11.7512 14.7828C11.3384 15.2008 11.2997 15.4667 11.6996 15.9353C14.7567 19.4816 17.7752 23.0532 20.8065 26.6122C20.8838 26.7008 20.9355 26.8149 21 26.9161C20.8838 26.9415 20.7549 26.9795 20.6387 26.9795C18.6652 26.9795 16.6788 27.0049 14.7051 26.9542C14.3956 26.9415 13.9957 26.6755 13.7892 26.4096C11.2481 23.2432 8.73279 20.0642 6.20453 16.8852C5.95945 16.5813 5.64987 16.3533 5.36609 16.0874C5.31448 16.4673 5.21129 16.8473 5.21129 17.2272C5.1984 20.1655 5.1984 23.0913 5.1984 26.0297C5.1984 26.9795 5.1984 26.9795 4.20515 26.9795C3.04422 26.9795 1.88329 26.9542 0.722358 26.9921C0.154785 27.0428 0 26.8529 0 26.2956C0.0257909 22.0274 0.0128955 17.7718 0.0128955 13.5036Z" fill="#1C1C1C" data-v-1983ef8e=""></path><path class="l2" d="M43.9997 16.5923C44.0393 22.731 39.5176 27.5083 33.2556 27.9534C30.5268 28.1497 27.9561 27.744 25.5831 26.3828C22.2215 24.4587 20.4022 21.4875 20.0594 17.6788C19.7562 14.3411 20.6 11.3176 22.8938 8.77841C24.7658 6.71039 27.1651 5.58477 29.8808 5.17901C32.847 4.734 35.734 5.0874 38.3574 6.5926C41.9168 8.63443 43.7889 11.7496 43.9734 15.8332C43.9734 16.0688 43.9867 16.2913 43.9997 16.5923ZM25.3327 16.4877C25.3327 20.388 28.1539 23.2938 31.9505 23.3069C35.7867 23.32 38.7134 20.4142 38.7398 16.5531C38.7661 12.7182 35.8264 9.74697 32.0032 9.73389C28.1934 9.73389 25.3327 12.6265 25.3327 16.4877Z" fill="#1C1C1C" data-v-1983ef8e=""></path><path class="l5" d="M100.896 19.8774C100.896 22.1656 100.883 24.454 100.909 26.7422C100.922 27.3306 100.753 27.5529 100.142 27.5267C99.1009 27.4744 98.0602 27.4744 97.0196 27.5267C96.3952 27.5529 96.2262 27.3175 96.2652 26.7291C96.3042 26.1407 96.2782 25.5522 96.2652 24.9638C96.2652 24.807 96.1611 24.6501 96.1091 24.4931C95.966 24.5716 95.7839 24.6108 95.6929 24.7285C94.132 27.0167 91.8425 27.9451 89.215 27.9974C86.3143 28.0497 83.6737 27.3306 81.8916 24.7154C80.4608 22.6101 80.5779 18.269 83.5306 16.2422C85.2086 15.0916 87.0818 14.5032 89.0589 14.3071C91.1271 14.0978 93.2084 14.0717 95.2767 13.9802C96.2393 13.9409 96.3432 13.8233 96.2652 12.8426C96.0311 10.2405 94.119 9.1552 91.8166 8.94599C89.5012 8.74985 87.3939 9.36441 85.5599 10.8158C85.4168 10.9204 85.0395 10.9204 84.9225 10.8158C84.194 10.1359 83.5047 9.40365 82.7891 8.71063C82.464 8.39681 82.7111 8.22682 82.9193 8.03069C84.2461 6.8277 85.794 6.017 87.5241 5.57243C90.2947 4.86633 93.0784 4.73558 95.849 5.62473C98.8277 6.59235 100.48 8.74985 100.753 11.8226C100.987 14.4902 100.935 17.1707 101 19.8513C100.948 19.8774 100.922 19.8774 100.896 19.8774ZM93.7417 17.5761C93.7417 17.5629 93.7417 17.5499 93.7417 17.5238C92.8832 17.5891 92.0117 17.6152 91.1532 17.7199C89.8654 17.8898 88.5906 18.1514 87.472 18.8836C86.8606 19.2758 86.4444 19.7989 86.3013 20.5312C86.0021 21.9434 86.7956 23.3294 88.3565 23.7739C89.267 24.0355 90.2817 24.1009 91.2312 24.0486C93.0913 23.944 94.6132 23.1856 95.4457 21.3681C95.94 20.2828 95.94 19.132 95.875 17.9683C95.8619 17.8245 95.6018 17.5891 95.4327 17.5761C94.8734 17.5499 94.301 17.5761 93.7417 17.5761Z" fill="#1C1C1C" data-v-1983ef8e=""></path><path class="l6" d="M103.013 16.2828C103.013 12.9964 103.013 9.72301 103.013 6.43676C103.013 5.59281 103.026 5.56725 103.891 5.56725C105.004 5.56725 106.117 5.59281 107.23 5.55446C107.82 5.54167 108.003 5.75904 107.977 6.30889C107.938 6.94823 107.951 7.58759 107.977 8.22693C107.99 8.4571 108.108 8.68727 108.174 8.91743C108.331 8.7512 108.514 8.61054 108.632 8.43152C109.667 6.82037 111.003 5.58002 112.98 5.2092C116.307 4.56986 119.988 5.32429 121.834 8.46989C122.699 9.9276 122.961 11.5516 122.974 13.201C123.013 17.5742 122.974 21.9346 123 26.3077C123 26.832 122.843 27.011 122.293 26.9982C121.075 26.9599 119.843 26.9855 118.625 26.9855C117.722 26.9855 117.722 26.9855 117.722 26.1286C117.722 22.5739 117.748 19.0063 117.695 15.4515C117.682 14.3775 117.512 13.2778 117.198 12.2548C116.582 10.2856 114.853 9.32661 112.758 9.64629C110.046 10.0555 108.37 11.8968 108.331 14.5949C108.278 18.4437 108.252 22.3054 108.252 26.1542C108.252 26.7808 108.095 27.0238 107.414 26.9982C106.196 26.947 104.965 26.9599 103.746 26.9982C103.157 27.011 103 26.7937 103 26.2565C103.026 22.932 103.013 19.6073 103.013 16.2828Z" fill="#1C1C1C" data-v-1983ef8e=""></path><path class="l4" d="M77.9876 13.4869C77.9876 17.729 77.9754 21.9583 78 26.2004C78 26.7955 77.8642 27.0234 77.247 26.9981C76.037 26.9475 74.8272 26.9728 73.6048 26.9981C73.1358 27.0108 73 26.8335 73 26.3777C73.0123 17.7922 73.0123 9.20681 73 0.634054C73 0.102224 73.1974 -0.0117487 73.6542 0.000916387C74.8642 0.0262466 76.0864 0.0388987 77.2962 0.000916387C77.8396 -0.0117487 78 0.165537 78 0.722697C77.9754 4.96476 77.9876 9.23215 77.9876 13.4869Z" fill="#1C1C1C" data-v-1983ef8e=""></path></svg>