<svg xmlns="http://www.w3.org/2000/svg" fill="none" viewbox="0 0 41 40" class="header_calatrava__ybpZl"><path d="M28.3 19.422c1.383 0 2.766-.845 2.766-1.917 0-.383-.305-1.15-1.462-1.15-1.462 0-2.693 1.534-3.998 1.534-1.152 0-1.31-.92-1.31-.92.695 0 .921 0 1.768-.462.768-.383 1.846-1.533 2.614-2.305.695-.767 1.847-1.765 3.23-1.765s2.767.846 2.767 2.458c0 2.148-1.694 2.763-1.694 3.534 0 .231.08.536.537.536.694 0 1.999-.998 3.309-.998 1.767 0 3.308 1.996 3.308 1.996s-1.536 1.996-3.308 1.996c-1.31 0-2.615-.998-3.309-.998-.463 0-.537.305-.537.536 0 .767 1.694 1.46 1.694 3.534 0 1.613-1.383 2.458-2.767 2.458s-2.535-.998-3.23-1.765-1.767-1.917-2.614-2.305-1.078-.462-1.767-.462c0 0 .152-.92 1.31-.92 1.309 0 2.535 1.534 3.997 1.534 1.152 0 1.462-.767 1.462-1.15 0-1.15-1.383-1.917-2.767-1.917h-7.69v7.678c0 1.382.847 2.763 1.92 2.763.384 0 1.152-.305 1.152-1.46 0-1.46-1.536-2.689-1.536-3.992 0-1.15.92-1.307.92-1.307 0 .693 0 .92.464 1.765.384.767 1.536 1.843 2.309 2.61.768.693 1.767 1.843 1.767 3.225 0 1.381-.847 2.762-2.462 2.762-2.151 0-2.767-1.69-3.54-1.69-.23 0-.536.078-.536.535 0 .693 1 1.996 1 3.304 0 1.764-2 3.303-2 3.303s-1.998-1.534-1.998-3.303c0-1.308 1-2.61 1-3.304 0-.462-.306-.536-.538-.536-.768 0-1.462 1.691-3.54 1.691-1.614 0-2.461-1.381-2.461-2.762s1-2.532 1.767-3.225c.768-.693 1.92-1.765 2.31-2.61.383-.846.462-1.077.462-1.765 0 0 .92.152.92 1.307 0 1.308-1.535 2.532-1.535 3.992 0 1.15.768 1.46 1.152 1.46 1.152 0 1.92-1.381 1.92-2.763v-7.688h-7.69c-1.384 0-2.767.846-2.767 1.917 0 .384.305 1.15 1.462 1.15 1.462 0 2.693-1.533 3.998-1.533 1.152 0 1.31.919 1.31.919-.695 0-.921 0-1.768.462-.768.384-1.846 1.534-2.614 2.306-.695.767-1.847 1.764-3.23 1.764s-2.767-.845-2.767-2.457c0-2.149 1.694-2.763 1.694-3.535 0-.231-.08-.536-.537-.536-.694 0-1.999.998-3.309.998C1.541 21.95 0 19.953 0 19.953s1.536-1.995 3.308-1.995c1.31 0 2.615.997 3.309.997.463 0 .537-.304.537-.535 0-.767-1.694-1.46-1.694-3.535 0-1.612 1.383-2.458 2.767-2.458s2.535.998 3.23 1.765 1.767 1.917 2.614 2.305c.847.384 1.078.463 1.767.463 0 0-.152.919-1.31.919-1.309 0-2.535-1.534-3.997-1.534-1.152 0-1.462.767-1.462 1.15 0 1.15 1.383 1.918 2.767 1.918h7.69v-7.595c0-1.382-.847-2.763-1.92-2.763-.384 0-1.152.305-1.152 1.46 0 1.46 1.536 2.689 1.536 3.992 0 1.15-.92 1.307-.92 1.307 0-.693 0-.92-.464-1.765-.384-.766-1.536-1.843-2.309-2.61-.768-.693-1.767-1.843-1.767-3.225 0-1.381.847-2.762 2.462-2.762 2.151 0 2.767 1.69 3.54 1.69.23 0 .536-.078.536-.535 0-.693-1-1.996-1-3.304 0-1.764 2-3.303 2-3.303s1.998 1.534 1.998 3.303c0 1.308-1 2.61-1 3.304 0 .462.306.536.538.536.768 0 1.462-1.691 3.54-1.691 1.614 0 2.461 1.381 2.461 2.762s-1 2.532-1.767 3.225c-.768.693-1.92 1.765-2.31 2.61-.383.846-.462 1.077-.462 1.765 0 0-.92-.152-.92-1.307 0-1.308 1.535-2.532 1.535-3.992 0-1.15-.768-1.46-1.152-1.46-1.152 0-1.92 1.381-1.92 2.763v7.678h7.69z"></path></svg>