<svg width="115" height="24" viewBox="0 0 115 24" fill="none" xmlns="http://www.w3.org/2000/svg">
<path fill-rule="evenodd" clip-rule="evenodd" d="M8.625 5.92C12.1362 5.92 13.7715 8.23135 13.8958 8.48H14.375V6.4H18.6875V23.52H14.375V21.44H13.8958C12.576 22.9569 10.5299 24 8.38542 24C3.94209 24 0 20.6167 0 14.8667C1.77426e-05 9.58295 3.83989 5.92 8.625 5.92ZM8.94444 9.52C5.55757 9.52 3.51389 12.3803 3.51389 14.96C3.51389 17.8816 5.99258 20.4 8.94444 20.4C11.8031 20.4 14.375 18.1614 14.375 14.96C14.375 11.3857 11.3992 9.52 8.94444 9.52Z" fill="black"/>
<path d="M49.0187 0C53.4341 1.89814e-05 57.6264 1.98402 58.4583 6.88H53.9062C53.2663 4.80002 51.0984 3.77596 48.7627 3.77594C46.7789 3.77594 44.4028 4.56 44.4028 6.48C44.4028 7.91999 45.9149 8.83193 47.7067 9.21594L50.7145 9.85594C54.394 10.6239 58.9375 11.84 58.9375 16.64C58.9375 21.376 54.298 24 49.5306 24C43.7712 24 40.1873 21.024 39.4514 16.16H44.0035C44.6114 18.88 46.5548 20.192 49.6585 20.192C52.0902 20.192 54.1458 19.168 54.1458 17.12C54.1458 15.296 52.2503 14.432 49.5626 13.888L46.7468 13.312C43.1952 12.576 39.9306 10.8 39.9306 6.8C39.9306 2.128 44.5711 0 49.0187 0Z" fill="black"/>
<path fill-rule="evenodd" clip-rule="evenodd" d="M75.7083 5.92C79.2195 5.92 80.8549 8.23135 80.9792 8.48H81.4583V6.4H85.7708V23.52H81.4583V21.44H80.9792C79.6594 22.9569 77.6132 24 75.4688 24C71.0254 24 67.0833 20.6167 67.0833 14.8667C67.0834 9.58295 70.9232 5.92 75.7083 5.92ZM76.0278 9.52C72.6409 9.52 70.5972 12.3803 70.5972 14.96C70.5972 17.8816 73.0759 20.4 76.0278 20.4C78.8864 20.4 81.4583 18.1614 81.4583 14.96C81.4583 11.3857 78.4825 9.52 76.0278 9.52Z" fill="black"/>
<path fill-rule="evenodd" clip-rule="evenodd" d="M106.455 5.92C111.706 5.92 115 9.89507 115 15.3127V16.16H102.062C102.476 19.3336 104.465 20.4737 106.534 20.4737C108.698 20.4737 110.051 19.4902 110.688 18.24H114.857C113.584 21.8944 110.321 24 106.629 24C101.123 24 97.5903 20.3776 97.5903 14.8959C97.5903 9.41424 101.585 5.92 106.455 5.92ZM106.455 9.36C104.609 9.36 102.604 10.2987 102.062 13.28H110.547C110.388 10.9719 108.842 9.36 106.455 9.36Z" fill="black"/>
<path d="M25.5556 23.52H21.2431V6.4H25.5556V23.52Z" fill="black"/>
<path d="M32.4236 9.76C32.4236 9.76 32.903 9.7594 32.9028 9.76C33.7388 7.79862 34.9311 6.49536 37.2792 6.4H38.1736V10.72C38.1736 10.72 37.0556 10.72 36.5764 10.72C33.9889 10.72 32.4236 11.776 32.4236 14.88V23.52H28.1111V6.4H32.4236V9.76Z" fill="black"/>
<path d="M65.1667 2.08V23.52H60.8542V0.48L65.1667 2.08Z" fill="black"/>
<path d="M92.6389 3.68V6.4H96.1528V9.76H92.6389V18.08C92.6389 19.776 92.8625 20 94.5556 20H96.6319V23.52H92.1597C89.6042 23.52 88.3264 22.24 88.3264 19.68V2.08L92.6389 3.68Z" fill="black"/>
<path d="M25.5556 4.8H21.2431V0.48H25.5556V4.8Z" fill="black"/>
</svg>
