<svg viewBox="0 0 227 42" fill="none" xmlns="http://www.w3.org/2000/svg">
<path d="M76.3716 31.2631C72.4256 34.9182 68.3212 35.4995 65.016 35.4995C56.0498 35.4995 50.7525 27.8838 50.7525 21.0591C50.7525 14.7972 54.272 9.77064 59.4385 7.7119C68.0483 4.42085 74.3996 9.25784 74.9187 9.64962L79.8081 5.13281C73.2292 -0.256811 65.1676 -0.508921 60.6568 0.466242C52.466 2.23808 43.9226 9.7308 43.9226 21.0591C43.9226 32.4813 52.9925 41.8683 65.0383 41.9561C70.9967 42.0015 75.8919 40.4293 81.1706 35.8041C81.1227 35.7552 76.4178 31.2207 76.3716 31.2631Z" fill="#0070BC"/>
<path d="M106.845 19.0136C106.834 19.0051 100.113 17.8913 100.113 17.8913C95.2679 17.0704 92.9397 15.2285 92.9397 12.3398C92.9397 8.54754 96.8729 6.24578 102.458 6.24578C106.839 6.24578 110.261 7.20178 113.618 9.78187L118.437 5.00993C113.871 1.59334 109.441 0 103.031 0C93.4013 0 86.0476 4.93682 86.0476 12.2843C86.0476 15.6666 87.1814 18.2175 89.5261 20.0765C91.6347 21.7536 94.6925 23.0267 99.1346 23.7442L105.108 24.6811C110.189 25.4727 112.822 26.6561 112.822 29.506C112.822 35.0347 106.553 35.6963 102.1 35.6963C95.4402 35.6963 92.1734 34.5124 89.2065 31.5576L84.3835 36.0709C88.8629 40.1601 94.3133 41.9879 102.061 41.9879C107.249 41.9879 111.652 40.8499 114.774 38.6823C118.046 36.4173 119.775 33.3955 119.775 29.4702C119.776 21.7082 113.911 20.3408 106.845 19.0136Z" fill="#0070BC"/>
<path d="M223.403 7.34916C220.531 3.35422 215.666 0.0419922 209.083 0.0419922C203.731 0.0419922 198.908 2.34578 196.284 6.87116C193.655 2.34578 188.832 0.0419922 183.472 0.0419922C176.891 0.0419922 172.031 3.35422 169.149 7.34916C166.739 10.7088 166.44 16.1972 166.44 18.1506V41.9483H174.003V18.4259C174.003 12.0465 176.477 6.57367 183.316 6.57367C190.098 6.57367 192.331 12.1478 192.331 18.4259V41.9483H200.226V18.4259C200.226 12.1478 202.459 6.57367 209.239 6.57367C216.085 6.57367 218.552 12.0465 218.552 18.4259V41.9483H226.122V18.1506C226.122 16.1972 225.821 10.7088 223.403 7.34916Z" fill="#0070BC"/>
<path d="M130.699 17.262C130.997 14.1459 133.829 6.61287 142.727 6.61287C151.621 6.61287 154.394 14.1444 154.679 17.262H130.699ZM142.435 0.123047C130.955 0.123047 123.225 9.12842 123.225 21.0921C123.225 33.9426 131.65 41.9996 143.891 41.9996C150.57 41.9996 155.284 40.3891 159.808 36.1138L155.07 31.5587C151.948 34.5734 147.631 35.9842 142.943 35.9842C136.554 35.9842 130.813 31.2818 130.599 23.2925L161.883 23.296C162.679 8.55966 153.466 0.123047 142.435 0.123047Z" fill="#0070BC"/>
<path d="M9.31 14.4191C9.31 16.9891 7.22665 19.0756 4.65551 19.0756C2.08335 19.0761 0 16.9891 0 14.4191C0 11.8481 2.08335 9.76562 4.65551 9.76562C7.22665 9.76613 9.31 11.8486 9.31 14.4191Z" fill="#84868C"/>
<path d="M23.7202 14.4191C23.7202 16.9891 21.6333 19.0756 19.0634 19.0756C16.4935 19.0756 14.4102 16.9891 14.4102 14.4191C14.4102 11.8481 16.4935 9.76562 19.0634 9.76562C21.6333 9.76613 23.7202 11.8486 23.7202 14.4191Z" fill="#84868C"/>
<path d="M9.31024 28.0842C9.31024 30.6542 7.2269 32.7377 4.65575 32.7377C2.08359 32.7372 0.000244141 30.6537 0.000244141 28.0842C0.000244141 25.5147 2.08359 23.4277 4.65575 23.4277C7.2269 23.4272 9.31024 25.5142 9.31024 28.0842Z" fill="#84868C"/>
<path d="M23.7202 28.0842C23.7202 30.6542 21.6333 32.7377 19.0634 32.7377C16.4935 32.7377 14.4102 30.6542 14.4102 28.0842C14.4102 25.5142 16.4935 23.4277 19.0634 23.4277C21.6333 23.4272 23.7202 25.5142 23.7202 28.0842Z" fill="#84868C"/>
</svg>
