<svg xmlns="http://www.w3.org/2000/svg" fill="none" viewBox="0 0 203 29">
  <g fill="#00F957" clip-path="url(#a)">
    <path d="M64.656 22.318v2.912c0 2.116.23 2.682.454 3.134v.19h-8.047c-.115-.19-.267-.72-.267-1.964v-2.308c0-3.625-1.32-5.287-5.243-5.287H41.418v9.553h-7.785V.454h18.93C63.26.454 64.47 4.91 64.47 7.97v.377c0 3.513-2.42 5.89-5.933 6.684 3.816.869 6.12 3.171 6.12 7.288Zm-23.238-9.706h10.846c3.174 0 4.043-1.357 4.043-2.981v-.077c0-1.585-.87-2.907-4.043-2.907H41.418v5.966ZM84.349 0c13.148 0 16.891 7.735 16.891 13.86V15c0 6.04-3.745 14.01-16.891 14.01H82.68C69.53 29.01 65.79 21.04 65.79 15v-1.133c0-6.117 3.745-13.86 16.89-13.86L84.35 0Zm-.832 6.42c-7.86 0-9.638 4.269-9.638 7.734v.53c0 3.398 1.89 7.851 9.638 7.851 7.898 0 9.636-4.453 9.636-7.852v-.529c0-3.465-1.7-7.734-9.636-7.734ZM0 .454h20.51c8.047 0 10.052 3.513 10.052 6.647v.414c0 3.513-3.064 5.287-5.179 5.552 3.174.451 6.577 2.455 6.577 6.948v.415c0 3.814-2.307 8.118-11.338 8.118H0V.454Zm7.775 5.853v5.023h11.61c2.343 0 3.062-1.133 3.062-2.455V8.8c0-1.36-.75-2.495-3.061-2.495l-11.61.002Zm0 10.535v5.551h12.207c2.774 0 3.524-1.405 3.524-2.832v-.152c0-1.395-.75-2.567-3.514-2.567H7.775ZM109.518 7.515h5.717c1.312 0 2.318.284 3.017.85a2.813 2.813 0 0 1 1.046 2.294 2.757 2.757 0 0 1-.5 1.604c-.32.467-.774.825-1.303 1.028a2.934 2.934 0 0 1 2.357 3.037 3.46 3.46 0 0 1-1.099 2.667c-.734.678-1.687 1.018-2.858 1.018h-6.377V7.515Zm2.147 1.774v3.44h2.996c.844 0 1.466-.131 1.865-.396.4-.264.599-.706.597-1.325 0-.7-.208-1.162-.624-1.387a3.809 3.809 0 0 0-1.768-.332h-3.066Zm0 5.02v3.915h3.288c.692.036 1.38-.11 1.998-.422.479-.282.721-.79.721-1.527a2.201 2.201 0 0 0-.219-1.028 1.366 1.366 0 0 0-.635-.606 3.237 3.237 0 0 0-.854-.25 6.587 6.587 0 0 0-1.036-.07l-3.263-.012ZM126.409 10.781v1.914a8.981 8.981 0 0 0-.704-.052c-1.748 0-2.622 1.128-2.622 3.385v3.992h-1.998v-9.057h1.883v1.792c.644-1.348 1.658-2.02 3.041-2.019l.4.045ZM126.976 13.753c.211-2.05 1.536-3.073 3.975-3.072 1.136 0 2.042.223 2.716.667.674.444 1.007 1.134.999 2.07v4.599a.997.997 0 0 0 .097.526.426.426 0 0 0 .38.14c.153 0 .306-.012.457-.035v1.405a5.526 5.526 0 0 1-1.304.194c-.854 0-1.348-.364-1.475-1.09-.764.725-1.825 1.089-3.184 1.09-.939 0-1.683-.25-2.234-.728a2.496 2.496 0 0 1-.827-1.976 2.9 2.9 0 0 1 .087-.719c.055-.198.126-.39.213-.576.087-.178.213-.334.369-.457.17-.142.312-.25.422-.351.165-.12.35-.209.547-.262l.562-.185c.21-.06.425-.105.642-.132l.606-.098c.1-.017.307-.042.624-.077.717-.095 1.201-.175 1.461-.25a.916.916 0 0 0 .527-.289c.107-.2.151-.427.125-.651 0-.913-.622-1.37-1.865-1.37-.657 0-1.139.125-1.444.37-.304.244-.499.66-.579 1.247l-1.897.01Zm5.77 1.719c-.17.088-.347.162-.529.22a3.04 3.04 0 0 1-.482.122l-.582.08-.52.07a8.649 8.649 0 0 0-.579.097 4.148 4.148 0 0 0-.519.15 1.36 1.36 0 0 0-.475.249c-.123.112-.222.25-.289.402-.087.19-.13.397-.125.606a1.22 1.22 0 0 0 .432.998c.348.253.774.378 1.203.352.891 0 1.577-.24 2.058-.721.27-.27.407-.789.407-1.562v-1.063ZM138.501 7.463v1.966h-1.998V7.463h1.998Zm0 3.493v9.057h-1.998v-9.057h1.998ZM142.059 10.956v1.335a3.461 3.461 0 0 1 2.996-1.58c1.032 0 1.804.28 2.315.841.511.56.766 1.368.764 2.423v6.038h-1.997V14.75a6.529 6.529 0 0 0-.053-.906 2.736 2.736 0 0 0-.22-.729 1.12 1.12 0 0 0-.536-.551 2.143 2.143 0 0 0-.949-.185c-1.478 0-2.217.915-2.217 2.745v4.878h-1.998v-9.057l1.895.01ZM149.982 7.515h5.927c1.244 0 2.257.278 3.041.833.784.556 1.177 1.437 1.179 2.643a3.33 3.33 0 0 1-.544 1.923c-.373.539-.91.942-1.531 1.148.279.062.547.169.792.317.199.119.375.274.519.457.136.192.24.405.307.63.073.222.129.448.167.677.03.192.055.447.08.764.013.082.025.249.043.474.017.224.03.389.037.464.008.075.018.21.035.396.018.188.032.317.042.395.01.077.033.187.063.334.021.112.047.223.08.332.022.077.052.164.087.264a1.16 1.16 0 0 0 .282.442h-2.357a.893.893 0 0 1-.097-.167 1.733 1.733 0 0 1-.132-.422c-.013-.065-.025-.15-.043-.262a3.8 3.8 0 0 1-.035-.272c-.005-.07-.017-.175-.027-.317-.01-.142-.02-.25-.028-.314a9.806 9.806 0 0 1-.025-.37c-.01-.174-.017-.299-.017-.369-.06-1.018-.274-1.716-.642-2.096-.368-.379-1.069-.57-2.102-.57h-2.919v5.159h-2.182V7.515Zm2.182 1.792v3.914h2.901a7.23 7.23 0 0 0 1.074-.07c.304-.049.601-.133.886-.249.292-.118.534-.332.687-.606a2.19 2.19 0 0 0 .25-1.07 2.1 2.1 0 0 0-.21-.999 1.345 1.345 0 0 0-.609-.586 2.937 2.937 0 0 0-.809-.265 5.836 5.836 0 0 0-.977-.07h-3.193ZM165.799 10.694c1.384 0 2.485.432 3.306 1.297.821.865 1.232 2.03 1.234 3.493 0 1.476-.408 2.646-1.224 3.51-.816.866-1.921 1.3-3.316 1.3-1.418 0-2.543-.433-3.376-1.3-.832-.866-1.248-2.036-1.248-3.51 0-1.462.416-2.626 1.248-3.493.833-.866 1.958-1.299 3.376-1.297Zm1.838 2.43a2.5 2.5 0 0 0-3.745 0c-.456.574-.685 1.358-.685 2.353 0 .995.229 1.79.685 2.388a2.294 2.294 0 0 0 1.9.86 2.218 2.218 0 0 0 1.855-.87c.451-.58.677-1.378.677-2.396 0-.988-.235-1.766-.687-2.335ZM179.766 16.59a3.996 3.996 0 0 1-4.169 3.653c-1.359 0-2.441-.43-3.246-1.29-.806-.86-1.21-1.988-1.214-3.381 0-1.497.408-2.688 1.224-3.57.815-.884 1.914-1.326 3.296-1.326 1.165 0 2.1.292 2.806.876a3.535 3.535 0 0 1 1.248 2.44h-1.997a2.286 2.286 0 0 0-.704-1.315 1.97 1.97 0 0 0-1.336-.456 2.182 2.182 0 0 0-1.83.868c-.446.579-.669 1.371-.669 2.378 0 1.006.214 1.79.641 2.353a2.12 2.12 0 0 0 1.786.84 2.064 2.064 0 0 0 1.47-.534c.41-.415.667-.957.729-1.537h1.965ZM188.9 10.956l-3.495 3.318 3.8 5.739h-2.445l-2.761-4.372-1.196 1.126v3.243h-1.953V7.515h1.955v7.039l3.623-3.598h2.472Z"/>
    <path d="M197.449 17.188a3.784 3.784 0 0 1-1.45 2.298c-.774.56-1.71.85-2.664.826-1.372 0-2.46-.442-3.264-1.325-.804-.883-1.205-2.016-1.203-3.398 0-1.414.416-2.584 1.248-3.51a4.052 4.052 0 0 1 3.159-1.385c1.331 0 2.381.453 3.148 1.36.768.906 1.155 2.144 1.161 3.712v.21h-6.701c.023.913.252 1.618.686 2.116a2.27 2.27 0 0 0 1.811.748 2.17 2.17 0 0 0 1.345-.394c.388-.328.673-.761.819-1.248l1.905-.01Zm-1.88-2.547a2.849 2.849 0 0 0-.714-1.799 2.31 2.31 0 0 0-3.201-.025 3.092 3.092 0 0 0-.749 1.824h4.664ZM203 10.956v1.457h-1.83v4.775c0 .28 0 .477.017.587.017.127.053.252.105.369a.488.488 0 0 0 .31.272c.197.053.402.077.607.07.264.004.528-.008.791-.035v1.58c-.45.049-.903.072-1.356.07a4.8 4.8 0 0 1-.923-.078 3.918 3.918 0 0 1-.66-.185.965.965 0 0 1-.439-.36 7.373 7.373 0 0 1-.272-.42 1.558 1.558 0 0 1-.14-.59 6.603 6.603 0 0 1-.045-.64v-5.415h-1.513v-1.457h1.513v-2.72h1.997v2.72H203Z"/>
  </g>
  <defs>
    <clipPath id="a">
      <path fill="#fff" d="M0 0h203v29H0z"/>
    </clipPath>
  </defs>
</svg>
