<svg width="100%" height="100%" viewbox="0 0 198 54" fill="none" xmlns="http://www.w3.org/2000/svg" aria-hidden="true" focusable="false" class="transition-colors"><path d="M98.6734 42.6625C98.8513 42.9302 98.792 43.1385 98.7327 43.2277C98.6438 43.3765 98.4659 43.4955 98.2583 43.4955H93.5737C93.129 43.4955 92.9511 43.2575 92.6249 42.722L82.3365 26.5382L78.8082 30.3461V42.8707C78.8082 43.2575 78.6303 43.4657 78.2152 43.4657H74.2718C73.8864 43.4657 73.6788 43.2872 73.6788 42.8707V10.8601C73.6788 10.4733 73.8567 10.2651 74.2718 10.2651H78.2152C78.6007 10.2651 78.8082 10.4733 78.8082 10.8601V23.4739L90.6977 10.6816C90.9645 10.4138 91.0831 10.2948 91.4389 10.2948H96.3311C96.7166 10.2948 96.8648 10.4733 96.8945 10.5626C96.9538 10.7411 96.8945 10.9493 96.6869 11.1576L85.9834 22.5815L98.6734 42.6625ZM120.11 20.2015V42.8707C120.11 43.2575 119.903 43.4657 119.517 43.4657H116.018C115.633 43.4657 115.425 43.2575 115.425 42.8707V41.4725C113.646 42.8112 111.571 43.436 108.843 43.436C102.587 43.436 98.199 38.5273 98.199 31.5361C98.199 24.5449 102.587 19.6362 108.843 19.6362C111.571 19.6362 113.646 20.261 115.425 21.5997V20.2015C115.425 19.8147 115.633 19.6065 116.018 19.6065H119.487C119.903 19.6065 120.11 19.8147 120.11 20.2015ZM115.752 31.5659C115.752 27.1629 113.142 24.1879 109.407 24.1879C105.671 24.1879 103.151 27.1332 103.151 31.5659C103.151 35.9986 105.671 38.9438 109.407 38.9438C113.142 38.9438 115.752 35.9688 115.752 31.5659ZM127.493 19.6065H123.816C123.49 19.6065 123.223 19.8742 123.223 20.2015V42.9005C123.223 43.2277 123.49 43.4955 123.816 43.4955H127.493C127.819 43.4955 128.086 43.2277 128.086 42.9005V20.2015C128.056 19.8742 127.789 19.6065 127.493 19.6065ZM127.849 10.2651H123.46C123.164 10.2651 122.897 10.5031 122.897 10.8006V15.2035C122.897 15.501 123.134 15.739 123.46 15.739H127.849C128.145 15.739 128.412 15.501 128.412 15.2035V10.8303C128.382 10.5328 128.145 10.2651 127.849 10.2651ZM150.768 38.8248H137.425L150.027 24.7532C150.442 24.3069 150.442 24.0392 150.442 23.6822V20.2015C150.442 19.8147 150.264 19.6065 149.849 19.6065H132.385C132 19.6065 131.792 19.8147 131.792 20.2015V23.6822C131.792 24.0689 131.97 24.2772 132.385 24.2772H144.393L131.496 38.6463C131.347 38.8248 131.199 39.0628 131.199 39.4198V42.9005C131.199 43.2872 131.377 43.4955 131.792 43.4955H150.768C151.153 43.4955 151.361 43.317 151.361 42.9005V39.4198C151.331 39.033 151.153 38.8248 150.768 38.8248ZM175.169 31.6254V32.4881C175.169 32.8748 174.991 33.0533 174.606 33.0533H157.083C157.617 36.7126 160.107 38.914 163.754 38.914C166.838 38.914 168.676 37.9025 169.773 35.5821C169.981 35.1953 170.159 35.1061 170.514 35.1061H174.339C174.636 35.1061 174.754 35.2548 174.754 35.5226C174.754 35.5523 174.754 35.5821 174.754 35.5821C174.754 35.6713 174.754 35.7606 174.665 35.9986C172.768 40.9965 169.299 43.317 163.784 43.317C157.083 43.317 152.221 38.319 152.221 31.4469C152.221 24.5747 157.053 19.5767 163.754 19.5767C170.425 19.6065 175.14 24.5449 175.169 31.6254ZM170.099 28.7694C169.358 25.8242 166.956 24.0689 163.695 24.0689C161.293 24.0689 158.21 25.2887 157.291 28.7694H170.099ZM189.757 19.6065C186.94 19.6065 184.598 20.5287 182.404 22.522V20.6775C182.404 20.2907 182.196 19.6065 181.811 19.6065H178.134C177.749 19.6065 177.541 19.8147 177.541 20.2015V42.9005C177.541 43.2872 177.749 43.4955 178.134 43.4955H181.811C182.196 43.4955 182.404 43.317 182.404 42.9005V32.2204C182.404 26.3597 185.725 24.2772 188.571 24.2772C191.595 24.2772 193.137 25.9729 193.137 29.3346V42.9005C193.137 43.2872 193.345 43.4955 193.73 43.4955H197.377C197.762 43.4955 197.97 43.317 197.97 42.9005V27.9661C198 22.641 195.005 19.6065 189.757 19.6065ZM25.0238 35.3738C24.9052 35.2251 24.9349 35.0168 25.1128 34.8978L29.6195 32.4881C29.6788 32.4583 29.7381 32.3989 29.7678 32.3096L33.2071 21.7782C33.2664 21.5997 33.0589 21.4807 32.9403 21.57L18.7678 32.1609C18.5306 32.3394 18.2044 32.0716 18.323 31.8039L23.2449 21.2427C23.2449 21.213 23.2745 21.1832 23.2745 21.1535L24.4605 12.9723C24.4902 12.7938 24.2826 12.7046 24.164 12.8236L0.503628 38.438C0.38503 38.557 0.32573 38.7058 0.35538 38.8843C0.503628 41.651 0.711175 44.4177 0.978021 47.1844C1.39312 50.0702 3.73543 52.4204 6.61144 52.8369C6.87829 52.8666 7.14514 52.8964 7.38233 52.8964C7.61953 52.9261 7.85673 52.7774 7.94568 52.5691L14.0535 40.9668C14.1128 40.8478 14.2017 40.7883 14.2907 40.7288L16.722 39.4198C16.9295 39.3008 17.1667 39.4495 17.1667 39.6875L17.4632 53.0451C17.4632 53.3724 17.73 53.6104 18.0265 53.6401C25.6168 53.9674 33.2071 53.8484 40.8271 53.3724C41.0643 53.3426 41.1829 53.0451 41.0346 52.8666C41.0346 52.8071 25.0238 35.3738 25.0238 35.3738ZM47.0238 0.953446C33.5036 -0.32579 20.102 -0.32579 6.58179 0.953446C3.70578 1.36994 1.36347 3.72017 0.948372 6.60588C0.207132 14.4003 -0.089364 22.165 0.0292344 29.9594C0.0292344 30.1974 0.32573 30.3461 0.503628 30.1974L24.4605 10.5031C24.6977 10.3246 25.0238 10.3246 25.2314 10.5328L33.7705 18.2083C33.8891 18.3273 34.067 18.3868 34.2449 18.357L38.0993 17.8513C38.2772 17.8215 38.4551 17.881 38.5737 18L53.0427 31.3279C53.2206 31.5064 53.5468 31.3576 53.5468 31.1196C53.695 22.9682 53.3985 14.8465 52.6276 6.66538C52.2422 3.72017 49.8702 1.36994 47.0238 0.953446Z" fill="currentColor"></path></svg>