<svg width="164" height="40" viewBox="0 0 164 40" fill="none" xmlns="http://www.w3.org/2000/svg">
<path d="M62.9282 15.2784H55.209V18.836H62.0508V21.0286H55.209V24.7235H63.0235V26.9161H52.8305V13.0858H62.9262V15.2784H62.9282ZM76.9054 26.9161L73.3195 21.6802L69.7127 26.9161H66.9661L71.9348 19.8821L67.1587 13.0858H69.9854L73.3768 18.0452L76.7871 13.0858H79.5357L74.7787 19.8434L79.7283 26.9161H76.9016H76.9054ZM96.4274 22.7456C96.0764 23.6156 95.5824 24.3755 94.9454 25.0271C94.3102 25.6787 93.5549 26.1968 92.6851 26.5777C91.8135 26.9606 90.8521 27.15 89.7993 27.15C88.7464 27.15 87.7851 26.9625 86.9153 26.5874C86.0436 26.2123 85.2979 25.7019 84.6741 25.0561C84.0504 24.4103 83.564 23.6524 83.2131 22.7842C82.8621 21.9161 82.6867 20.9938 82.6867 20.0174C82.6867 19.041 82.8621 18.1206 83.2131 17.2506C83.564 16.3805 84.0562 15.6206 84.6951 14.9691C85.3303 14.3175 86.0837 13.7993 86.9554 13.4184C87.827 13.0356 88.7884 12.8461 89.8412 12.8461C90.8941 12.8461 91.8554 13.0336 92.7252 13.4087C93.5969 13.7838 94.3426 14.2943 94.9663 14.9401C95.5901 15.5858 96.0783 16.3438 96.4274 17.2119C96.7783 18.082 96.9538 19.0043 96.9538 19.9787C96.9538 20.9532 96.7783 21.8755 96.4274 22.7456ZM94.0985 18.1129C93.8715 17.5135 93.553 16.9896 93.1429 16.5429C92.7328 16.0963 92.2426 15.7405 91.6723 15.4756C91.1001 15.2127 90.4764 15.0812 89.8012 15.0812C89.126 15.0812 88.5061 15.2088 87.9396 15.466C87.3731 15.7231 86.8905 16.0731 86.4881 16.5139C86.0856 16.9548 85.7709 17.4768 85.542 18.0742C85.315 18.6736 85.2006 19.3097 85.2006 19.9807C85.2006 20.6516 85.315 21.2877 85.542 21.8871C85.769 22.4865 86.0875 23.0104 86.4976 23.4571C86.9077 23.9056 87.3979 24.2614 87.9701 24.5244C88.5423 24.7873 89.166 24.9188 89.8412 24.9188C90.5164 24.9188 91.1363 24.7892 91.7009 24.534C92.2655 24.2769 92.7519 23.9288 93.1543 23.4861C93.5568 23.0452 93.8715 22.5251 94.0985 21.9258C94.3255 21.3264 94.4399 20.6903 94.4399 20.0193C94.4399 19.3484 94.3255 18.7123 94.0985 18.1129ZM109.256 13.0452H111.284L114.635 23.3391L117.891 13.0858H120.405L115.648 27.0147H113.582L110.229 17.0766L106.878 27.0147H104.81L100.055 13.0858H102.647L105.901 23.3391L109.254 13.0452H109.256ZM136.547 26.9161H134.012L132.627 23.577H126.175L124.771 26.9161H122.314L128.319 12.9872H130.541L136.543 26.9161H136.547ZM129.393 15.8894L127.052 21.4211H131.75L129.393 15.8894ZM144.795 26.9161H142.378V15.3384H138.05V13.0858H149.121V15.3384H144.795V26.9161ZM159.672 26.9161H157.256V15.3384H152.928V13.0858H164V15.3384H159.672V26.9161Z" fill="black"/>
<path d="M33.6863 5.85654L33.6672 5.83913C30.131 2.21578 25.1947 0.0908739 20.1191 0.00580046C19.9551 0.00193349 19.793 0 19.6289 0C14.6564 0 9.74873 1.99343 6.16668 5.46984C2.33476 9.13766 0.0878731 14.2923 0.000133825 19.6133C-0.0341989 22.3299 0.459811 25.0425 1.43257 27.4575C2.42441 29.9246 3.93124 32.2332 5.78902 34.1377C7.67351 36.0228 9.95282 37.5483 12.3771 38.5499C14.6907 39.4992 17.2752 40 19.8502 40H20.1153C25.3682 39.9053 30.4514 37.6276 34.0621 33.749C37.6193 29.9845 39.5839 24.8299 39.4542 19.6114C39.3703 14.4548 37.2684 9.44122 33.6844 5.85654H33.6863ZM32.9558 32.6237C29.6617 35.8101 25.1565 37.6353 20.5941 37.6353C20.4377 37.6353 20.2794 37.6353 20.1191 37.6295C15.4499 37.5464 10.9065 35.5839 7.65253 32.2448C4.36421 28.9501 2.43013 24.3445 2.34811 19.6075C2.22604 14.8067 4.0247 10.0657 7.28631 6.60093C10.6071 3.02398 15.2858 0.92034 20.1172 0.827533H20.3728C22.7513 0.827533 25.1298 1.28577 27.2489 2.15777C29.4844 3.07811 31.5844 4.48569 33.3239 6.2239L33.3411 6.2413C35.0482 8.00077 36.4291 10.1237 37.3351 12.3821C38.2278 14.6114 38.6836 17.1114 38.6493 19.6114C38.5596 24.5108 36.4844 29.2537 32.9558 32.6237ZM26.9895 12.6431L26.9838 12.6373C25.2061 10.8063 22.7074 9.70031 20.1249 9.60557C17.4793 9.49729 14.8376 10.4602 12.8711 12.2506C10.8264 14.0816 9.55609 16.8329 9.47216 19.6094C9.43592 21.075 9.68197 22.5174 10.1836 23.7819C10.7062 25.1005 11.5035 26.3341 12.4896 27.3492C13.4967 28.3469 14.7136 29.1531 16.0068 29.681C17.1837 30.1527 18.5093 30.4022 19.8426 30.4022C19.936 30.4022 20.0295 30.4022 20.1249 30.3983C22.8619 30.3094 25.5723 29.0217 27.3767 26.9548C29.1487 24.9575 30.1004 22.2776 29.9898 19.6056C29.8963 16.9799 28.8034 14.4432 26.9933 12.6431H26.9895ZM26.2666 25.8295C24.5862 27.3376 22.3489 28.1477 20.1249 28.0298C17.9485 27.9389 15.8428 27.0012 14.3493 25.4563C12.8311 23.9462 11.9079 21.8117 11.8182 19.6036C11.7152 17.3492 12.5068 15.0812 13.9888 13.3817C15.509 11.6164 17.8036 10.5124 20.1229 10.4273C20.2126 10.4254 20.3022 10.4234 20.39 10.4234C21.5249 10.4234 22.6445 10.6323 23.6268 11.0267C24.7293 11.4733 25.7669 12.1597 26.6271 13.0104C27.4683 13.8844 28.1454 14.9381 28.586 16.0538C29.0094 17.1307 29.2135 18.3585 29.1792 19.6056C29.0972 21.9606 28.008 24.2865 26.2666 25.8295ZM30.3389 9.24981C27.6819 6.51392 23.9568 4.89559 20.121 4.80472C16.2186 4.68484 12.3523 6.15429 9.51603 8.85924C6.56914 11.6338 4.82579 15.551 4.73424 19.6094C4.698 21.6995 5.06994 23.7761 5.80619 25.6187C6.56341 27.5116 7.71547 29.2827 9.13646 30.7425C10.5823 32.1848 12.3294 33.3507 14.1891 34.1145C15.9324 34.8241 17.8875 35.2011 19.8445 35.2011C19.936 35.2011 20.0257 35.2011 20.1172 35.1991C24.1227 35.1005 27.9852 33.3353 30.7146 30.3538C33.3849 27.4807 34.8441 23.5634 34.7182 19.6094C34.6305 15.7193 33.034 11.9451 30.335 9.24981H30.3389ZM29.6102 29.2285C27.1936 31.5236 23.9015 32.8403 20.5807 32.8403C20.4281 32.8403 20.2755 32.8364 20.1229 32.8326C16.7011 32.7456 13.3766 31.2954 11.0038 28.8534C8.60049 26.4501 7.17377 23.082 7.08604 19.6094C6.96778 16.0712 8.26289 12.5677 10.6395 9.99613C13.0809 7.31825 16.539 5.72506 20.1229 5.63032C20.2107 5.63032 20.2984 5.62838 20.3843 5.62838C22.141 5.62838 23.89 5.96288 25.4426 6.59513C27.1116 7.27958 28.6813 8.32753 29.9822 9.62297L29.9955 9.6365C31.2677 10.9532 32.2939 12.5387 32.9653 14.2227C33.6234 15.8778 33.9514 17.7417 33.919 19.6133C33.8274 23.2483 32.2577 26.7537 29.6141 29.2324L29.6102 29.2285Z" fill="url(#paint0_linear_1977_208)"/>
<defs>
<linearGradient id="paint0_linear_1977_208" x1="5.78711" y1="34.1338" x2="34.0637" y2="6.23909" gradientUnits="userSpaceOnUse">
<stop stop-color="#FF7212"/>
<stop offset="1" stop-color="#FF1010"/>
</linearGradient>
</defs>
</svg>
