<svg xmlns="http://www.w3.org/2000/svg" viewBox="0 0 900 380" font-family="system-ui, -apple-system, sans-serif" font-size="12">
  <style>
    .header { font-size: 18px; font-weight: 700; fill: #1a1a2e; }
    .subheader { font-size: 11px; fill: #6b7280; }
    .ind-name { font-weight: 600; font-size: 12px; fill: #1e293b; }
    .ind-kw { font-size: 10px; fill: #94a3b8; }
    .ind-id { font-size: 9px; font-weight: 700; fill: #fff; }
    .id-circle { fill: #64748b; }
    .card { fill: #f8fafc; stroke: #e2e8f0; stroke-width: 1; rx: 8; }
  </style>

  <text x="30" y="30" class="header">Industries</text>
  <text x="30" y="46" class="subheader">22 industries | assigned to companies | matched via keyword patterns</text>

  <!-- Row 1 -->
  <g transform="translate(30, 64)">
    <rect x="0" y="0" width="200" height="52" class="card"/>
    <circle cx="18" cy="16" r="9" class="id-circle"/><text x="14" y="20" class="ind-id">1</text>
    <text x="34" y="20" class="ind-name">Technology</text>
    <text x="18" y="40" class="ind-kw">software, SaaS, cloud, AI, IT</text>
  </g>
  <g transform="translate(240, 64)">
    <rect x="0" y="0" width="200" height="52" class="card"/>
    <circle cx="18" cy="16" r="9" class="id-circle"/><text x="14" y="20" class="ind-id">2</text>
    <text x="34" y="20" class="ind-name">Financial Services</text>
    <text x="18" y="40" class="ind-kw">banking, fintech, payments, insurance</text>
  </g>
  <g transform="translate(450, 64)">
    <rect x="0" y="0" width="200" height="52" class="card"/>
    <circle cx="18" cy="16" r="9" class="id-circle"/><text x="14" y="20" class="ind-id">3</text>
    <text x="34" y="20" class="ind-name">Healthcare</text>
    <text x="18" y="40" class="ind-kw">health, medical, clinical, wellness</text>
  </g>
  <g transform="translate(660, 64)">
    <rect x="0" y="0" width="200" height="52" class="card"/>
    <circle cx="18" cy="16" r="9" class="id-circle"/><text x="14" y="20" class="ind-id">4</text>
    <text x="34" y="20" class="ind-name">Manufacturing</text>
    <text x="18" y="40" class="ind-kw">industrial, factory, production</text>
  </g>

  <!-- Row 2 -->
  <g transform="translate(30, 126)">
    <rect x="0" y="0" width="200" height="52" class="card"/>
    <circle cx="18" cy="16" r="9" class="id-circle"/><text x="14" y="20" class="ind-id">5</text>
    <text x="34" y="20" class="ind-name">Retail &amp; E-commerce</text>
    <text x="18" y="40" class="ind-kw">retail, ecommerce, marketplace</text>
  </g>
  <g transform="translate(240, 126)">
    <rect x="0" y="0" width="200" height="52" class="card"/>
    <circle cx="18" cy="16" r="9" class="id-circle"/><text x="14" y="20" class="ind-id">6</text>
    <text x="34" y="20" class="ind-name">Media &amp; Entertainment</text>
    <text x="18" y="40" class="ind-kw">media, gaming, streaming, film</text>
  </g>
  <g transform="translate(450, 126)">
    <rect x="0" y="0" width="200" height="52" class="card"/>
    <circle cx="18" cy="16" r="9" class="id-circle"/><text x="14" y="20" class="ind-id">7</text>
    <text x="34" y="20" class="ind-name">Telecommunications</text>
    <text x="18" y="40" class="ind-kw">telecom, wireless, mobile network</text>
  </g>
  <g transform="translate(660, 126)">
    <rect x="0" y="0" width="200" height="52" class="card"/>
    <circle cx="18" cy="16" r="9" class="id-circle"/><text x="14" y="20" class="ind-id">8</text>
    <text x="34" y="20" class="ind-name">Energy</text>
    <text x="18" y="40" class="ind-kw">oil, gas, renewable, solar, utilities</text>
  </g>

  <!-- Row 3 -->
  <g transform="translate(30, 188)">
    <rect x="0" y="0" width="200" height="52" class="card"/>
    <circle cx="18" cy="16" r="9" class="id-circle"/><text x="14" y="20" class="ind-id">9</text>
    <text x="34" y="20" class="ind-name">Transport &amp; Logistics</text>
    <text x="18" y="40" class="ind-kw">logistics, shipping, supply chain</text>
  </g>
  <g transform="translate(240, 188)">
    <rect x="0" y="0" width="200" height="52" class="card"/>
    <circle cx="18" cy="16" r="9" class="id-circle"/><text x="10" y="20" class="ind-id">10</text>
    <text x="34" y="20" class="ind-name">Education</text>
    <text x="18" y="40" class="ind-kw">edtech, learning, university</text>
  </g>
  <g transform="translate(450, 188)">
    <rect x="0" y="0" width="200" height="52" class="card"/>
    <circle cx="18" cy="16" r="9" class="id-circle"/><text x="10" y="20" class="ind-id">11</text>
    <text x="34" y="20" class="ind-name">Real Estate &amp; Construction</text>
    <text x="18" y="40" class="ind-kw">property, building, architecture</text>
  </g>
  <g transform="translate(660, 188)">
    <rect x="0" y="0" width="200" height="52" class="card"/>
    <circle cx="18" cy="16" r="9" class="id-circle"/><text x="10" y="20" class="ind-id">12</text>
    <text x="34" y="20" class="ind-name">Professional Services</text>
    <text x="18" y="40" class="ind-kw">consulting, legal, accounting</text>
  </g>

  <!-- Row 4 -->
  <g transform="translate(30, 250)">
    <rect x="0" y="0" width="200" height="52" class="card"/>
    <circle cx="18" cy="16" r="9" class="id-circle"/><text x="10" y="20" class="ind-id">13</text>
    <text x="34" y="20" class="ind-name">Government &amp; Public</text>
    <text x="18" y="40" class="ind-kw">government, defense, military</text>
  </g>
  <g transform="translate(240, 250)">
    <rect x="0" y="0" width="200" height="52" class="card"/>
    <circle cx="18" cy="16" r="9" class="id-circle"/><text x="10" y="20" class="ind-id">14</text>
    <text x="34" y="20" class="ind-name">Agriculture &amp; Food</text>
    <text x="18" y="40" class="ind-kw">agriculture, food, farming</text>
  </g>
  <g transform="translate(450, 250)">
    <rect x="0" y="0" width="200" height="52" class="card"/>
    <circle cx="18" cy="16" r="9" class="id-circle"/><text x="10" y="20" class="ind-id">15</text>
    <text x="34" y="20" class="ind-name">Aerospace &amp; Defense</text>
    <text x="18" y="40" class="ind-kw">aerospace, aviation, space</text>
  </g>
  <g transform="translate(660, 250)">
    <rect x="0" y="0" width="200" height="52" class="card"/>
    <circle cx="18" cy="16" r="9" class="id-circle"/><text x="10" y="20" class="ind-id">16</text>
    <text x="34" y="20" class="ind-name">Automotive</text>
    <text x="18" y="40" class="ind-kw">vehicles, cars, mobility, EV</text>
  </g>

  <!-- Row 5 -->
  <g transform="translate(30, 312)">
    <rect x="0" y="0" width="200" height="52" class="card"/>
    <circle cx="18" cy="16" r="9" class="id-circle"/><text x="10" y="20" class="ind-id">17</text>
    <text x="34" y="20" class="ind-name">Hospitality &amp; Tourism</text>
    <text x="18" y="40" class="ind-kw">hotel, tourism, travel, restaurant</text>
  </g>
  <g transform="translate(240, 312)">
    <rect x="0" y="0" width="200" height="52" class="card"/>
    <circle cx="18" cy="16" r="9" class="id-circle"/><text x="10" y="20" class="ind-id">18</text>
    <text x="34" y="20" class="ind-name">Pharma &amp; Biotech</text>
    <text x="18" y="40" class="ind-kw">pharmaceutical, life sciences</text>
  </g>
  <g transform="translate(450, 312)">
    <rect x="0" y="0" width="200" height="52" class="card"/>
    <circle cx="18" cy="16" r="9" class="id-circle"/><text x="10" y="20" class="ind-id">19</text>
    <text x="34" y="20" class="ind-name">Non-profit</text>
    <text x="18" y="40" class="ind-kw">NGO, charity, foundation</text>
  </g>
  <g transform="translate(660, 312)">
    <rect x="0" y="0" width="200" height="52" class="card"/>
    <circle cx="18" cy="16" r="9" class="id-circle"/><text x="10" y="20" class="ind-id">20</text>
    <text x="34" y="20" class="ind-name">Robotics</text>
    <text x="18" y="40" class="ind-kw">robotics, automation, drones</text>
  </g>

  <!-- Row 6 (partial) -->
  <g transform="translate(30, 374)">
    <rect x="0" y="-6" width="200" height="0" class="card" style="display:none"/>
  </g>

  <!-- Remaining 2 inline -->
  <text x="30" y="378" class="ind-name" style="font-size: 11px">21</text>
  <text x="48" y="378" class="ind-name" style="font-size: 11px">Cybersecurity</text>
  <text x="155" y="378" class="ind-kw">infosec, security</text>
  <text x="280" y="378" class="ind-name" style="font-size: 11px">22</text>
  <text x="300" y="378" class="ind-name" style="font-size: 11px">Luxury Goods</text>
  <text x="400" y="378" class="ind-kw">watches, jewelry, fashion</text>
</svg>
