<svg xmlns="http://www.w3.org/2000/svg" viewBox="0 0 1100 820" font-family="system-ui, -apple-system, sans-serif" font-size="12">
  <style>
    .header { font-size: 18px; font-weight: 700; fill: #1a1a2e; }
    .subheader { font-size: 11px; fill: #6b7280; }
    .cat-label { font-size: 10px; font-weight: 700; fill: #fff; letter-spacing: 0.5px; }
    .cat-box { rx: 8; }
    .tech { font-size: 11px; fill: #374151; }
    .tech-box { fill: #fff; stroke: #e5e7eb; stroke-width: 1; rx: 4; }
    .count { font-size: 9px; fill: #9ca3af; }
    .flag-label { font-size: 9px; fill: #9ca3af; font-style: italic; }
  </style>

  <text x="30" y="30" class="header">Technologies Taxonomy</text>
  <text x="30" y="46" class="subheader">134 technologies across 14 categories | matched against job descriptions via pattern matching</text>

  <!-- ═══ LANGUAGES ═══ -->
  <rect x="30" y="66" width="200" height="24" class="cat-box" fill="#2563eb"/>
  <text x="42" y="83" class="cat-label">LANGUAGES (23)</text>

  <g transform="translate(30, 98)">
    <rect x="0" y="0" width="62" height="22" class="tech-box"/><text x="8" y="15" class="tech">Python</text>
    <rect x="68" y="0" width="76" height="22" class="tech-box"/><text x="76" y="15" class="tech">JavaScript</text>
    <rect x="150" y="0" width="76" height="22" class="tech-box"/><text x="158" y="15" class="tech">TypeScript</text>
    <rect x="232" y="0" width="46" height="22" class="tech-box"/><text x="240" y="15" class="tech">Java</text>
    <rect x="284" y="0" width="38" height="22" class="tech-box"/><text x="292" y="15" class="tech">Go</text>
    <rect x="328" y="0" width="50" height="22" class="tech-box"/><text x="336" y="15" class="tech">Ruby</text>
    <rect x="384" y="0" width="44" height="22" class="tech-box"/><text x="392" y="15" class="tech">PHP</text>
    <rect x="434" y="0" width="50" height="22" class="tech-box"/><text x="442" y="15" class="tech">Scala</text>
    <rect x="0" y="28" width="54" height="22" class="tech-box"/><text x="8" y="43" class="tech">Kotlin</text>
    <rect x="60" y="28" width="46" height="22" class="tech-box"/><text x="68" y="43" class="tech">Swift</text>
    <rect x="112" y="28" width="82" height="22" class="tech-box"/><text x="120" y="43" class="tech">Objective-C</text>
    <rect x="200" y="28" width="46" height="22" class="tech-box"/><text x="208" y="43" class="tech">Rust</text>
    <rect x="252" y="28" width="28" height="22" class="tech-box"/><text x="260" y="43" class="tech">R</text>
    <rect x="286" y="28" width="44" height="22" class="tech-box"/><text x="294" y="43" class="tech">C++</text>
    <rect x="336" y="28" width="34" height="22" class="tech-box"/><text x="344" y="43" class="tech">C#</text>
    <rect x="376" y="28" width="42" height="22" class="tech-box"/><text x="384" y="43" class="tech">Dart</text>
    <rect x="424" y="28" width="50" height="22" class="tech-box"/><text x="432" y="43" class="tech">Elixir</text>
    <rect x="0" y="56" width="62" height="22" class="tech-box"/><text x="8" y="71" class="tech">Haskell</text>
    <rect x="68" y="56" width="62" height="22" class="tech-box"/><text x="76" y="71" class="tech">Clojure</text>
    <rect x="136" y="56" width="42" height="22" class="tech-box"/><text x="144" y="71" class="tech">Perl</text>
    <rect x="184" y="56" width="38" height="22" class="tech-box"/><text x="192" y="71" class="tech">Lua</text>
    <rect x="228" y="56" width="58" height="22" class="tech-box"/><text x="236" y="71" class="tech">Groovy</text>
  </g>

  <!-- ═══ FRONTEND ═══ -->
  <rect x="540" y="66" width="200" height="24" class="cat-box" fill="#8b5cf6"/>
  <text x="552" y="83" class="cat-label">FRONTEND (14)</text>

  <g transform="translate(540, 98)">
    <rect x="0" y="0" width="52" height="22" class="tech-box"/><text x="8" y="15" class="tech">React</text>
    <rect x="58" y="0" width="62" height="22" class="tech-box"/><text x="66" y="15" class="tech">Angular</text>
    <rect x="126" y="0" width="52" height="22" class="tech-box"/><text x="134" y="15" class="tech">Vue.js</text>
    <rect x="184" y="0" width="56" height="22" class="tech-box"/><text x="192" y="15" class="tech">Svelte</text>
    <rect x="246" y="0" width="56" height="22" class="tech-box"/><text x="254" y="15" class="tech">Next.js</text>
    <rect x="308" y="0" width="56" height="22" class="tech-box"/><text x="316" y="15" class="tech">Nuxt.js</text>
    <rect x="0" y="28" width="68" height="22" class="tech-box"/><text x="8" y="43" class="tech">Ember.js</text>
    <rect x="74" y="28" width="78" height="22" class="tech-box"/><text x="82" y="43" class="tech">HTML/CSS</text>
    <rect x="158" y="28" width="76" height="22" class="tech-box"/><text x="166" y="43" class="tech">Sass/SCSS</text>
    <rect x="240" y="28" width="82" height="22" class="tech-box"/><text x="248" y="43" class="tech">Tailwind CSS</text>
    <rect x="0" y="56" width="76" height="22" class="tech-box"/><text x="8" y="71" class="tech">Bootstrap</text>
    <rect x="82" y="56" width="56" height="22" class="tech-box"/><text x="90" y="71" class="tech">jQuery</text>
    <rect x="144" y="56" width="68" height="22" class="tech-box"/><text x="152" y="71" class="tech">Webpack</text>
    <rect x="218" y="56" width="40" height="22" class="tech-box"/><text x="226" y="71" class="tech">Vite</text>
  </g>

  <!-- ═══ BACKEND ═══ -->
  <rect x="30" y="196" width="200" height="24" class="cat-box" fill="#059669"/>
  <text x="42" y="213" class="cat-label">BACKEND (16)</text>

  <g transform="translate(30, 228)">
    <rect x="0" y="0" width="62" height="22" class="tech-box"/><text x="8" y="15" class="tech">Node.js</text>
    <rect x="68" y="0" width="78" height="22" class="tech-box"/><text x="76" y="15" class="tech">Express.js</text>
    <rect x="152" y="0" width="62" height="22" class="tech-box"/><text x="160" y="15" class="tech">Django</text>
    <rect x="220" y="0" width="48" height="22" class="tech-box"/><text x="228" y="15" class="tech">Flask</text>
    <rect x="274" y="0" width="62" height="22" class="tech-box"/><text x="282" y="15" class="tech">FastAPI</text>
    <rect x="342" y="0" width="48" height="22" class="tech-box"/><text x="350" y="15" class="tech">Rails</text>
    <rect x="0" y="28" width="86" height="22" class="tech-box"/><text x="8" y="43" class="tech">Spring Boot</text>
    <rect x="92" y="28" width="110" height="22" class="tech-box"/><text x="100" y="43" class="tech">Spring Framework</text>
    <rect x="208" y="28" width="44" height="22" class="tech-box"/><text x="216" y="43" class="tech">.NET</text>
    <rect x="258" y="28" width="62" height="22" class="tech-box"/><text x="266" y="43" class="tech">Laravel</text>
    <rect x="326" y="28" width="68" height="22" class="tech-box"/><text x="334" y="43" class="tech">Symfony</text>
    <rect x="0" y="56" width="58" height="22" class="tech-box"/><text x="8" y="71" class="tech">NestJS</text>
    <rect x="64" y="56" width="36" height="22" class="tech-box"/><text x="72" y="71" class="tech">Gin</text>
    <rect x="106" y="56" width="48" height="22" class="tech-box"/><text x="114" y="71" class="tech">Actix</text>
    <rect x="160" y="56" width="90" height="22" class="tech-box"/><text x="168" y="71" class="tech">GraphQL API</text>
    <rect x="256" y="56" width="48" height="22" class="tech-box"/><text x="264" y="71" class="tech">gRPC</text>
  </g>

  <!-- ═══ DATABASE ═══ -->
  <rect x="540" y="196" width="200" height="24" class="cat-box" fill="#d97706"/>
  <text x="552" y="213" class="cat-label">DATABASE (16)</text>

  <g transform="translate(540, 228)">
    <rect x="0" y="0" width="48" height="22" class="tech-box"/><text x="8" y="15" class="tech">SQL</text>
    <rect x="54" y="0" width="56" height="22" class="tech-box"/><text x="62" y="15" class="tech">PL/SQL</text>
    <rect x="116" y="0" width="66" height="22" class="tech-box"/><text x="124" y="15" class="tech">GraphQL</text>
    <rect x="188" y="0" width="80" height="22" class="tech-box"/><text x="196" y="15" class="tech">PostgreSQL</text>
    <rect x="274" y="0" width="56" height="22" class="tech-box"/><text x="282" y="15" class="tech">MySQL</text>
    <rect x="0" y="28" width="72" height="22" class="tech-box"/><text x="8" y="43" class="tech">MongoDB</text>
    <rect x="78" y="28" width="50" height="22" class="tech-box"/><text x="86" y="43" class="tech">Redis</text>
    <rect x="134" y="28" width="98" height="22" class="tech-box"/><text x="142" y="43" class="tech">Elasticsearch</text>
    <rect x="238" y="28" width="76" height="22" class="tech-box"/><text x="246" y="43" class="tech">Cassandra</text>
    <rect x="0" y="56" width="76" height="22" class="tech-box"/><text x="8" y="71" class="tech">DynamoDB</text>
    <rect x="82" y="56" width="76" height="22" class="tech-box"/><text x="90" y="71" class="tech">Couchbase</text>
    <rect x="164" y="56" width="52" height="22" class="tech-box"/><text x="172" y="71" class="tech">Neo4j</text>
    <rect x="222" y="56" width="52" height="22" class="tech-box"/><text x="230" y="71" class="tech">SQLite</text>
    <rect x="0" y="84" width="110" height="22" class="tech-box"/><text x="8" y="99" class="tech">Oracle Database</text>
    <rect x="116" y="84" width="82" height="22" class="tech-box"/><text x="124" y="99" class="tech">SQL Server</text>
    <rect x="204" y="84" width="76" height="22" class="tech-box"/><text x="212" y="99" class="tech">Snowflake</text>
  </g>

  <!-- ═══ CLOUD ═══ -->
  <rect x="30" y="346" width="200" height="24" class="cat-box" fill="#0ea5e9"/>
  <text x="42" y="363" class="cat-label">CLOUD (7)</text>

  <g transform="translate(30, 378)">
    <rect x="0" y="0" width="48" height="22" class="tech-box"/><text x="8" y="15" class="tech">AWS</text>
    <rect x="54" y="0" width="52" height="22" class="tech-box"/><text x="62" y="15" class="tech">Azure</text>
    <rect x="112" y="0" width="98" height="22" class="tech-box"/><text x="120" y="15" class="tech">Google Cloud</text>
    <rect x="216" y="0" width="88" height="22" class="tech-box"/><text x="224" y="15" class="tech">AWS Lambda</text>
    <rect x="0" y="28" width="82" height="22" class="tech-box"/><text x="8" y="43" class="tech">Amazon S3</text>
    <rect x="88" y="28" width="86" height="22" class="tech-box"/><text x="96" y="43" class="tech">Amazon EC2</text>
    <rect x="180" y="28" width="86" height="22" class="tech-box"/><text x="188" y="43" class="tech">Cloudflare</text>
  </g>

  <!-- ═══ DEVOPS ═══ -->
  <rect x="540" y="346" width="200" height="24" class="cat-box" fill="#6366f1"/>
  <text x="552" y="363" class="cat-label">DEVOPS (17)</text>

  <g transform="translate(540, 378)">
    <rect x="0" y="0" width="58" height="22" class="tech-box"/><text x="8" y="15" class="tech">Docker</text>
    <rect x="64" y="0" width="82" height="22" class="tech-box"/><text x="72" y="15" class="tech">Kubernetes</text>
    <rect x="152" y="0" width="74" height="22" class="tech-box"/><text x="160" y="15" class="tech">Terraform</text>
    <rect x="232" y="0" width="62" height="22" class="tech-box"/><text x="240" y="15" class="tech">Ansible</text>
    <rect x="300" y="0" width="56" height="22" class="tech-box"/><text x="308" y="15" class="tech">Puppet</text>
    <rect x="0" y="28" width="46" height="22" class="tech-box"/><text x="8" y="43" class="tech">Chef</text>
    <rect x="52" y="28" width="46" height="22" class="tech-box"/><text x="60" y="43" class="tech">Helm</text>
    <rect x="104" y="28" width="60" height="22" class="tech-box"/><text x="112" y="43" class="tech">Jenkins</text>
    <rect x="170" y="28" width="102" height="22" class="tech-box"/><text x="178" y="43" class="tech">GitHub Actions</text>
    <rect x="278" y="28" width="72" height="22" class="tech-box"/><text x="286" y="43" class="tech">GitLab CI</text>
    <rect x="0" y="56" width="64" height="22" class="tech-box"/><text x="8" y="71" class="tech">CircleCI</text>
    <rect x="70" y="56" width="60" height="22" class="tech-box"/><text x="78" y="71" class="tech">ArgoCD</text>
    <rect x="136" y="56" width="82" height="22" class="tech-box"/><text x="144" y="71" class="tech">Prometheus</text>
    <rect x="224" y="56" width="64" height="22" class="tech-box"/><text x="232" y="71" class="tech">Grafana</text>
    <rect x="0" y="84" width="64" height="22" class="tech-box"/><text x="8" y="99" class="tech">Datadog</text>
    <rect x="70" y="84" width="54" height="22" class="tech-box"/><text x="78" y="99" class="tech">Splunk</text>
    <rect x="130" y="84" width="52" height="22" class="tech-box"/><text x="138" y="99" class="tech">Nginx</text>
  </g>

  <!-- ═══ DATA ═══ -->
  <rect x="30" y="466" width="200" height="24" class="cat-box" fill="#e11d48"/>
  <text x="42" y="483" class="cat-label">DATA (11)</text>

  <g transform="translate(30, 498)">
    <rect x="0" y="0" width="50" height="22" class="tech-box"/><text x="8" y="15" class="tech">Kafka</text>
    <rect x="56" y="0" width="50" height="22" class="tech-box"/><text x="64" y="15" class="tech">Spark</text>
    <rect x="112" y="0" width="62" height="22" class="tech-box"/><text x="120" y="15" class="tech">Hadoop</text>
    <rect x="180" y="0" width="56" height="22" class="tech-box"/><text x="188" y="15" class="tech">Airflow</text>
    <rect x="242" y="0" width="36" height="22" class="tech-box"/><text x="250" y="15" class="tech">dbt</text>
    <rect x="0" y="28" width="82" height="22" class="tech-box"/><text x="8" y="43" class="tech">Databricks</text>
    <rect x="88" y="28" width="48" height="22" class="tech-box"/><text x="96" y="43" class="tech">Flink</text>
    <rect x="142" y="28" width="62" height="22" class="tech-box"/><text x="150" y="43" class="tech">Tableau</text>
    <rect x="210" y="28" width="72" height="22" class="tech-box"/><text x="218" y="43" class="tech">Power BI</text>
    <rect x="288" y="28" width="56" height="22" class="tech-box"/><text x="296" y="43" class="tech">Looker</text>
    <rect x="0" y="56" width="76" height="22" class="tech-box"/><text x="8" y="71" class="tech">RabbitMQ</text>
    <rect x="82" y="56" width="56" height="22" class="tech-box"/><text x="90" y="71" class="tech">Celery</text>
  </g>

  <!-- ═══ ML ═══ -->
  <rect x="540" y="506" width="200" height="24" class="cat-box" fill="#dc2626"/>
  <text x="552" y="523" class="cat-label">ML / AI (10)</text>

  <g transform="translate(540, 538)">
    <rect x="0" y="0" width="82" height="22" class="tech-box"/><text x="8" y="15" class="tech">TensorFlow</text>
    <rect x="88" y="0" width="62" height="22" class="tech-box"/><text x="96" y="15" class="tech">PyTorch</text>
    <rect x="156" y="0" width="86" height="22" class="tech-box"/><text x="164" y="15" class="tech">scikit-learn</text>
    <rect x="248" y="0" width="58" height="22" class="tech-box"/><text x="256" y="15" class="tech">pandas</text>
    <rect x="0" y="28" width="56" height="22" class="tech-box"/><text x="8" y="43" class="tech">NumPy</text>
    <rect x="62" y="28" width="50" height="22" class="tech-box"/><text x="70" y="43" class="tech">Keras</text>
    <rect x="118" y="28" width="100" height="22" class="tech-box"/><text x="126" y="43" class="tech">Hugging Face</text>
    <rect x="224" y="28" width="62" height="22" class="tech-box"/><text x="232" y="43" class="tech">OpenCV</text>
    <rect x="0" y="56" width="56" height="22" class="tech-box"/><text x="8" y="71" class="tech">MLflow</text>
    <rect x="62" y="56" width="82" height="22" class="tech-box"/><text x="70" y="71" class="tech">LangChain</text>
  </g>

  <!-- ═══ MOBILE ═══ -->
  <rect x="30" y="606" width="200" height="24" class="cat-box" fill="#7c3aed"/>
  <text x="42" y="623" class="cat-label">MOBILE (4)</text>

  <g transform="translate(30, 638)">
    <rect x="0" y="0" width="96" height="22" class="tech-box"/><text x="8" y="15" class="tech">React Native</text>
    <rect x="102" y="0" width="56" height="22" class="tech-box"/><text x="110" y="15" class="tech">Flutter</text>
    <rect x="164" y="0" width="92" height="22" class="tech-box"/><text x="172" y="15" class="tech">Android SDK</text>
    <rect x="262" y="0" width="62" height="22" class="tech-box"/><text x="270" y="15" class="tech">iOS SDK</text>
  </g>

  <!-- ═══ TESTING ═══ -->
  <rect x="30" y="676" width="200" height="24" class="cat-box" fill="#16a34a"/>
  <text x="42" y="693" class="cat-label">TESTING (5)</text>

  <g transform="translate(30, 708)">
    <rect x="0" y="0" width="72" height="22" class="tech-box"/><text x="8" y="15" class="tech">Selenium</text>
    <rect x="78" y="0" width="64" height="22" class="tech-box"/><text x="86" y="15" class="tech">Cypress</text>
    <rect x="148" y="0" width="82" height="22" class="tech-box"/><text x="156" y="15" class="tech">Playwright</text>
    <rect x="236" y="0" width="40" height="22" class="tech-box"/><text x="244" y="15" class="tech">Jest</text>
    <rect x="282" y="0" width="56" height="22" class="tech-box"/><text x="290" y="15" class="tech">pytest</text>
  </g>

  <!-- ═══ ENTERPRISE ═══ -->
  <rect x="540" y="636" width="200" height="24" class="cat-box" fill="#78716c"/>
  <text x="552" y="653" class="cat-label">ENTERPRISE (4)</text>

  <g transform="translate(540, 668)">
    <rect x="0" y="0" width="66" height="22" class="tech-box"/><text x="8" y="15" class="tech">Workday</text>
    <rect x="72" y="0" width="42" height="22" class="tech-box"/><text x="80" y="15" class="tech">SAP</text>
    <rect x="120" y="0" width="82" height="22" class="tech-box"/><text x="128" y="15" class="tech">Salesforce</text>
    <rect x="208" y="0" width="86" height="22" class="tech-box"/><text x="216" y="15" class="tech">ServiceNow</text>
  </g>

  <!-- ═══ TOOLS ═══ -->
  <rect x="540" y="706" width="200" height="24" class="cat-box" fill="#475569"/>
  <text x="552" y="723" class="cat-label">TOOLS (5)</text>

  <g transform="translate(540, 738)">
    <rect x="0" y="0" width="38" height="22" class="tech-box"/><text x="8" y="15" class="tech">Jira</text>
    <rect x="44" y="0" width="82" height="22" class="tech-box"/><text x="52" y="15" class="tech">Confluence</text>
    <rect x="132" y="0" width="36" height="22" class="tech-box"/><text x="140" y="15" class="tech">Git</text>
    <rect x="174" y="0" width="52" height="22" class="tech-box"/><text x="182" y="15" class="tech">Figma</text>
    <rect x="232" y="0" width="50" height="22" class="tech-box"/><text x="240" y="15" class="tech">Linux</text>
  </g>

  <!-- Legend -->
  <text x="30" y="790" class="flag-label">cs = case-sensitive matching | Technologies are matched against job descriptions using configurable regex patterns</text>
</svg>
