<svg width="48" height="48" viewBox="0 0 48 48" fill="none" xmlns="http://www.w3.org/2000/svg">
    <style>
        .background {
            fill: #121212;
        }

        .icon {
            fill: #ffffff;
        }


        @media (prefers-color-scheme: dark) {
            .background {
                fill: #ffffff;
            }

            .icon {
                fill: #121212;
            }
        }
    </style>
    <rect class="background" width="48" height="48" rx="8" />
    <g class="icon">
        <path
            d="M31.9564 34.0379C26.2345 35.9808 19.1942 32.8162 16.9554 27.2913C16.9485 27.276 16.9417 27.259 16.9348 27.2438C15.5905 24.0843 16.5418 20.375 19.239 18.2115C20.1025 17.5192 21.0728 16.9626 22.1155 16.5809L22.0396 16.3823C17.2415 16.7709 13.3827 21.6544 13.2535 26.6651C12.6864 35.7534 22.7273 43.3908 30.3915 38.4429L30.3157 38.2443C27.5926 39.2285 24.4594 39.013 21.8122 37.6725C17.812 35.7534 15.2923 31.3874 15.1855 27.0367C15.6473 28.9474 16.6056 30.7766 17.993 32.2138C24.1199 39.0351 36.7046 37.4451 38.5711 28.6097L38.3746 28.5215C37.1561 31.1125 34.7864 33.142 31.9513 34.0362L31.9564 34.0379Z" />
        <path
            d="M29.999 11.4195C34.5679 15.3273 35.3055 22.9121 31.5656 27.5835C31.5553 27.5971 31.5449 27.6107 31.5329 27.6243C29.4251 30.3494 25.6869 31.3946 22.4347 30.1763C21.3937 29.786 20.42 29.2362 19.5617 28.5388L19.4238 28.7017C22.1641 32.5994 28.3893 33.4461 32.8616 31.0519C41.1394 26.9913 42.837 14.6112 34.6523 10.549L34.5144 10.7119C36.7411 12.5411 38.1199 15.3205 38.263 18.2475C38.5749 22.6186 35.9932 26.9489 32.2205 29.2159C33.6699 27.8669 34.8005 26.1344 35.371 24.234C38.3078 15.5988 30.616 5.66383 21.9125 8.49075L21.9332 8.70116C24.8217 8.44494 27.7912 9.45116 29.9955 11.4195H29.999Z" />
        <path
            d="M11.1103 24.2032C12.2633 18.3525 18.566 13.9323 24.5447 14.7858C24.5619 14.7875 24.5792 14.7909 24.5964 14.7926C28.0468 15.227 30.8353 17.891 31.3903 21.2728C31.5678 22.3554 31.5712 23.46 31.3868 24.5409L31.5988 24.5765C33.6566 20.292 31.2903 14.5601 26.9455 11.9436C19.2347 6.91588 7.49625 11.6585 8.01673 20.667L8.22872 20.7027C8.72507 17.8893 10.4796 15.3254 12.982 13.7389C16.6702 11.2869 21.7699 11.3226 25.6494 13.4063C23.7381 12.8446 21.6493 12.7479 19.6914 13.2111C10.6278 15.0234 5.73487 26.5499 12.5718 32.5584L12.7476 32.4363C11.0776 30.1014 10.4778 27.0658 11.1069 24.2015L11.1103 24.2032Z" />
    </g>
</svg>