<svg width="134" height="20" viewbox="0 0 134 20" fill="none" xmlns="http://www.w3.org/2000/svg" class="logo" aria-hidden="true" data-v-cd1e2802><g clip-path="url(#clip0_2582_22800)"><path d="M24.8684 3.5754H27.7718V8.57285H32.8569V3.5754H35.7602V16.1506H32.8569V11.3621H27.7718V16.1506H24.8684V3.5754Z" fill="white"></path><path d="M37.1936 13.684C37.1936 12.0071 38.4896 11.33 40.0317 11.0075C42.2303 10.5402 42.69 10.4595 42.69 9.91062C42.69 9.36172 42.2471 9.04015 41.5413 9.04015C40.9017 9.04015 40.2779 9.34618 39.9991 10.2973L37.4566 9.45887C38.0467 7.52459 39.7698 6.863 41.6401 6.863C44.1332 6.863 45.446 8.04047 45.446 10.136V13.3284C45.446 14.7954 45.5607 15.4405 45.7416 16.1497H43.0181C42.9035 15.8592 42.8709 15.5532 42.8709 15.2141H42.8382C42.3786 15.9874 41.3623 16.4236 40.3451 16.4236C38.7704 16.4236 37.1956 15.5366 37.1956 13.683L37.1936 13.684ZM41.1804 14.3767C42.1314 14.3767 42.7058 13.6509 42.7058 12.829V12.2811C42.2461 12.4103 41.2951 12.6357 41.049 12.6998C40.4588 12.8611 40.1958 13.1836 40.1958 13.6024C40.1958 14.1503 40.6387 14.3757 41.1804 14.3757V14.3767Z" fill="white"></path><path d="M47.1285 7.12239H49.8352V8.34746H49.9004C50.3601 7.6062 51.147 6.86396 52.3451 6.86396C52.6238 6.86396 52.8542 6.89602 53.1814 7.00872V10.0398C52.7879 9.91062 52.3451 9.87856 52.0663 9.87856C49.8678 9.87856 49.8678 11.8459 49.8678 12.9903V16.1506H47.1275V7.12239H47.1285Z" fill="white"></path><path d="M54.0444 7.12239H56.751V8.29889H56.7836C57.3906 7.37984 58.4573 6.86396 59.4409 6.86396C60.5401 6.86396 61.5405 7.4119 62.0655 8.31443H62.0981C63.0006 7.21857 64.0831 6.86396 64.9688 6.86396C66.6424 6.86396 68.2004 8.16968 68.2004 10.443V16.1506H65.4611V11.636C65.4611 10.7821 65.4611 9.44332 64.1325 9.44332C63.3941 9.44332 62.4915 9.86205 62.4915 11.636V16.1506H59.7523V11.6205C59.7523 10.7656 59.7522 9.4443 58.4236 9.4443C57.6852 9.4443 56.7827 9.86302 56.7827 11.637V16.1516H54.0434V7.12336L54.0444 7.12239Z" fill="white"></path><path d="M69.3441 13.684C69.3441 12.0071 70.6401 11.33 72.1822 11.0075C74.3808 10.5402 74.8404 10.4595 74.8404 9.91062C74.8404 9.36172 74.3976 9.04015 73.6917 9.04015C73.0522 9.04015 72.4284 9.34618 72.1496 10.2973L69.6071 9.45887C70.1972 7.52459 71.9203 6.863 73.7906 6.863C76.2837 6.863 77.5965 8.04047 77.5965 10.136V13.3284C77.5965 14.7954 77.7112 15.4405 77.8921 16.1497H75.1686C75.054 15.8592 75.0213 15.5532 75.0213 15.2141H74.9887C74.529 15.9874 73.5128 16.4236 72.4956 16.4236C70.9208 16.4236 69.3461 15.5366 69.3461 13.683L69.3441 13.684ZM73.3309 14.3767C74.2819 14.3767 74.8563 13.6509 74.8563 12.829V12.2811C74.3966 12.4103 73.4456 12.6357 73.1994 12.6998C72.6093 12.8611 72.3463 13.1836 72.3463 13.6024C72.3463 14.1503 72.7892 14.3757 73.3309 14.3757V14.3767Z" fill="white"></path><path d="M80.2082 13.2167V9.57254H78.4041V7.12239H80.2082V4.60715H82.9485V7.12239H85.3101V9.57254H82.9485V12.217C82.9485 13.0068 82.9485 13.9745 84.1792 13.9745C84.6221 13.9745 85.0155 13.8452 85.3111 13.7325V16.1186C84.8514 16.344 84.2445 16.4246 83.6049 16.4246C80.2092 16.4246 80.2092 14.1027 80.2092 13.2167H80.2082Z" fill="white"></path><path d="M87.7301 13.2167V9.57254H85.925V7.12239H87.7301V4.60715H90.4693V7.12239H92.832V9.57254H90.4693V12.217C90.4693 13.0068 90.4693 13.9745 91.7001 13.9745C92.1429 13.9745 92.5364 13.8452 92.832 13.7325V16.1186C92.3723 16.344 91.7653 16.4246 91.1257 16.4246C87.7301 16.4246 87.7301 14.1027 87.7301 13.2167Z" fill="white"></path><path d="M93.6485 13.684C93.6485 12.0071 94.9445 11.33 96.4866 11.0075C98.6852 10.5402 99.1439 10.4595 99.1439 9.91062C99.1439 9.36172 98.701 9.04015 97.9952 9.04015C97.3556 9.04015 96.7318 9.34618 96.453 10.2973L93.9105 9.45887C94.5006 7.52459 96.2237 6.863 98.094 6.863C100.588 6.863 101.9 8.04047 101.9 10.136V13.3284C101.9 14.7954 102.015 15.4405 102.195 16.1497H99.472C99.3574 15.8592 99.3248 15.5532 99.3248 15.2141H99.2921C98.8325 15.9874 97.8162 16.4236 96.798 16.4236C95.2233 16.4236 93.6485 15.5366 93.6485 13.683V13.684ZM97.6353 14.3767C98.5873 14.3767 99.1607 13.6509 99.1607 12.829V12.2811C98.701 12.4103 97.75 12.6357 97.5039 12.6998C96.9137 12.8611 96.6507 13.1836 96.6507 13.6024C96.6507 14.1503 97.0936 14.3757 97.6353 14.3757V14.3767Z" fill="white"></path><path d="M103.583 7.12239H106.29V8.29889H106.323C106.979 7.33126 107.996 6.86396 109.046 6.86396C110.752 6.86396 112.196 8.0735 112.196 10.443V16.1506H109.455V11.636C109.455 10.8297 109.455 9.44332 108.012 9.44332C107.224 9.44332 106.323 9.86205 106.323 11.636V16.1506H103.583V7.12239Z" fill="white"></path><path d="M121.58 3.5754H125.008L129.749 16.1506H126.649L125.567 13.2808H120.924C120.564 14.2319 120.219 15.1995 119.858 16.1506H116.84L121.581 3.5754H121.58ZM124.533 10.4916C124.303 9.86302 123.942 8.86333 123.269 7.04175H123.237L121.958 10.4916H124.533Z" fill="white"></path><path d="M130.656 3.5754H133.559V16.1506H130.656V3.5754Z" fill="white"></path><path d="M14.2169 15.7475C10.9349 16.8598 6.89667 15.048 5.61254 11.8847C5.60859 11.876 5.60464 11.8663 5.60068 11.8575C4.82962 10.0486 5.37529 7.92485 6.92237 6.68618C7.41763 6.2898 7.97418 5.97115 8.57225 5.75256L8.52876 5.63889C5.77664 5.86137 3.56329 8.65737 3.48915 11.5262C3.16392 16.7297 8.92319 21.1024 13.3193 18.2695L13.2758 18.1558C11.7139 18.7193 9.91667 18.5959 8.39827 17.8284C6.10385 16.7297 4.6586 14.23 4.59731 11.739C4.86224 12.8329 5.41187 13.8802 6.20765 14.7031C9.72193 18.6086 16.9403 17.6982 18.0109 12.6396L17.8982 12.5891C17.1993 14.0726 15.84 15.2345 14.2139 15.7465L14.2169 15.7475Z" fill="white"></path><path d="M13.0948 2.79722C15.7155 5.03461 16.1386 9.37726 13.9934 12.0518C13.9875 12.0596 13.9816 12.0674 13.9747 12.0751C12.7657 13.6354 10.6215 14.2338 8.75612 13.5363C8.15904 13.3128 7.60051 12.9981 7.10821 12.5988L7.02913 12.6921C8.60092 14.9236 12.1715 15.4084 14.7368 14.0376C19.4848 11.7128 20.4585 4.62463 15.7639 2.29884L15.6848 2.3921C16.962 3.43939 17.7529 5.03072 17.8349 6.70658C18.0139 9.20919 16.533 11.6885 14.3691 12.9864C15.2005 12.2141 15.8489 11.2222 16.1761 10.1341C17.8606 5.19005 13.4487 -0.498142 8.45659 1.12039L8.46845 1.24086C10.1253 1.09416 11.8285 1.67027 13.0929 2.79722H13.0948Z" fill="white"></path><path d="M2.26038 10.1166C2.92172 6.76682 6.53683 4.23603 9.9661 4.7247C9.97599 4.72567 9.98587 4.72761 9.99576 4.72859C11.9748 4.97729 13.5743 6.50256 13.8926 8.43878C13.9944 9.05861 13.9964 9.69106 13.8906 10.3099L14.0122 10.3303C15.1925 7.87725 13.8353 4.59549 11.3431 3.09742C6.92039 0.218833 0.187402 2.9342 0.485943 8.09195L0.607534 8.11236C0.892235 6.50159 1.89857 5.03364 3.33394 4.12528C5.44943 2.72144 8.37454 2.74185 10.5998 3.93486C9.50346 3.61329 8.30534 3.55792 7.18235 3.82314C1.98359 4.86071 -0.822892 11.4602 3.09867 14.9003L3.1995 14.8304C2.2416 13.4936 1.89759 11.7555 2.25841 10.1156L2.26038 10.1166Z" fill="white"></path></g><defs><clippath id="clip0_2582_22800"><rect width="134" height="20" fill="white"></rect></clippath></defs></svg>