<?xml version="1.0" encoding="UTF-8"?>
<!DOCTYPE svg PUBLIC "-//W3C//DTD SVG 1.1//EN" "http://www.w3.org/Graphics/SVG/1.1/DTD/svg11.dtd">
<!-- Creator: CorelDRAW -->
<svg xmlns="http://www.w3.org/2000/svg" xml:space="preserve" width="228.6mm" height="118.848mm" version="1.1" style="shape-rendering:geometricPrecision; text-rendering:geometricPrecision; image-rendering:optimizeQuality; fill-rule:evenodd; clip-rule:evenodd"
viewBox="0 0 7681.86 3993.77"
 xmlns:xlink="http://www.w3.org/1999/xlink"
 xmlns:xodm="http://www.corel.com/coreldraw/odm/2003">
 <defs>
  <style type="text/css">
   <![CDATA[
    .fil0 {fill:#43424A;fill-rule:nonzero}
    .fil1 {fill:#4982B9;fill-rule:nonzero}
   ]]>
  </style>
 </defs>
 <g id="Layer_x0020_1">
  <metadata id="CorelCorpID_0Corel-Layer"/>
  <polygon class="fil0" points="2238.81,2463.74 2533.78,2463.74 2533.78,1110.18 2238.81,1210.35 "/>
  <path class="fil0" d="M1606.19 1744.17l-60.15 0 0 -317.49 86.4 0c144.69,0 214.2,45.05 214.2,155.91 0,120.23 -78.93,161.58 -240.45,161.58zm390.76 -542.98c-90.17,-63.9 -197.32,-73.27 -338.2,-73.27l-443.37 0 0 1335.82 326.91 0 0 -430.31 93.92 0c139.02,0 244.26,-9.31 328.76,-60.02 133.46,-80.86 212.34,-223.63 212.34,-396.43 0,-167.3 -62,-293.14 -180.36,-375.78z"/>
  <path class="fil0" d="M4660.57 2003.9l0 -205.27c0,-231.08 -135.26,-362.58 -343.8,-362.58 -133.36,0 -227.32,52.61 -289.37,154.05l3.81 -135.32 -281.82 0 0 1008.95 291.24 0 0 -546.73c0,-135.32 61.94,-204.82 178.46,-204.82 114.56,0 144.63,63.9 144.63,204.82l0 546.73 296.84 0 0 -211.53 0 -248.31z"/>
  <path class="fil0" d="M3153.81 2202.61c-152.21,0 -261.16,-107.15 -261.16,-248.03 0,-135.26 108.94,-249.89 249.88,-249.89 138.97,0 246.07,108.96 246.07,253.64 0,139.02 -107.11,244.28 -234.8,244.28zm223.57 -747.8l0 114.57c-67.67,-86.4 -161.63,-127.69 -283.72,-127.69 -127.8,0 -242.36,46.96 -336.33,139.03 -105.14,101.44 -161.52,231.09 -161.52,375.78 0,157.75 60.08,293.01 176.61,396.37 88.3,78.88 193.44,118.36 315.64,118.36 120.23,0 210.38,-31.92 298.7,-118.36l0 112.76 287.41 0 0 -1010.81 -296.78 0z"/>
  <path class="fil0" d="M4979.15 1928.48c-9.42,-94.95 53.34,-180.47 168.22,-217.47 109.72,-35.3 204.89,-8.28 268.78,76.83l-437.01 140.65zm1156.92 -366.46l0 -451.88 -300.61 100.24 0 446.21 -158.85 50.02c-134.93,-233.11 -365.04,-323.22 -612.85,-243.41 -127.04,40.92 -233.87,132.93 -297.62,257.19 -62.59,121.98 -74.4,258.33 -32.35,388.91 42.6,132.33 127.69,235.55 249.07,302.19 128.23,70.15 258.87,81.92 401.6,35.95 208.92,-67.22 331.93,-216.38 359.71,-440.5l-302.94 97.52c-30.02,50 -70.23,80.24 -125.96,98.17 -120.11,38.68 -208.31,16.94 -264.63,-74.46l705.08 -226.95 79.74 -25.99 0 588.56 300.61 0 0 -681.66 190.6 -59.44 0 -222.86 -190.6 62.21z"/>
  <path class="fil1" d="M1607.2 3267.65c161.8,0 240.79,-41.29 240.79,-161.69 0,-111.01 -69.67,-156.18 -214.41,-156.18l-86.57 0 0 317.88 60.19 0zm-391.24 720.39l0 -1337.33 443.87 0c141.14,0 248.31,9.42 338.63,73.38 118.49,82.8 180.53,208.74 180.53,376.15 0,173.12 -78.94,316.02 -212.51,396.97 -84.66,50.71 -190.02,60.15 -329.21,60.15l-94.01 0 0 430.68 -327.3 0z"/>
  <path class="fil1" d="M2263.76 3988.07l0 -1337.35 284.04 0 0 453.3c62.05,-97.79 156.07,-144.8 283.93,-144.8 208.81,0 344.24,131.67 344.24,363.03l0 665.82 -297.12 0 0 -547.33c0,-141.14 -30.13,-205.05 -144.85,-205.05 -116.7,0 -178.74,69.63 -178.74,205.05l0 547.33 -291.5 0z"/>
  <path class="fil1" d="M3794.88 3724.77c127.95,0 235.17,-105.36 235.17,-244.6 0,-144.74 -107.21,-253.85 -246.39,-253.85 -141.16,0 -250.21,114.72 -250.21,250.16 0,141.08 109.05,248.29 261.44,248.29zm233.27 150.47c-88.42,86.44 -178.68,118.53 -299.08,118.53 -122.24,0 -227.6,-39.55 -316.02,-118.53 -116.62,-103.45 -176.83,-238.87 -176.83,-396.92 0,-144.79 56.5,-274.61 161.8,-376.2 94.03,-92.13 208.81,-139.13 336.65,-139.13 122.36,0 216.39,41.4 284.04,127.91l0 -112.88 297.23 0 0 1010.05 -287.79 0 0 -112.82z"/>
  <path class="fil1" d="M4720.41 2978l0 137.28c48.98,-101.59 133.58,-152.32 253.91,-152.32l0 274.56 -7.46 0c-188.1,0 -227.6,64.07 -227.6,250.21l0 500.32 -300.94 0 0 -1010.05 282.08 0z"/>
  <path class="fil1" d="M5054.07 3988.07l0 -1010.05 268.9 0 0 135.43c62.15,-103.45 152.43,-154.22 274.67,-154.22 122.24,0 214.41,52.63 280.23,161.79 105.36,-111.01 186.25,-161.79 312.25,-161.79 227.6,0 355.51,127.86 355.51,363.03l0 665.82 -289.69 0 0 -547.33c0,-141.14 -30.08,-205.05 -141.05,-205.05 -112.82,0 -173.01,69.63 -173.01,205.05l0 547.33 -291.61 0 0 -547.33c0,-141.14 -30.07,-205.05 -141.05,-205.05 -112.87,0 -173.06,69.63 -173.06,205.05l0 547.33 -282.08 0z"/>
  <path class="fil1" d="M7160.8 3724.77c127.97,0 235.18,-105.36 235.18,-244.6 0,-144.74 -107.21,-253.85 -246.41,-253.85 -141.14,0 -250.21,114.72 -250.21,250.16 0,141.08 109.07,248.29 261.44,248.29zm233.27 150.47c-88.41,86.44 -178.68,118.53 -299.07,118.53 -122.25,0 -227.6,-39.55 -316.02,-118.53 -116.64,-103.45 -176.83,-238.87 -176.83,-396.92 0,-144.79 56.48,-274.61 161.79,-376.2 94.03,-92.13 208.81,-139.13 336.67,-139.13 122.35,0 216.38,41.4 284.04,127.91l0 -112.88 297.22 0 0 1010.05 -287.79 0 0 -112.82z"/>
  <path class="fil1" d="M673.04 673.06c621.53,-621.51 1610.92,-650.93 2267.31,-88.3 -28.01,-32.69 -57.43,-64.5 -88.36,-95.45 -652.41,-652.41 -1710.24,-652.41 -2362.7,0 -652.4,652.46 -652.4,1710.29 0,2362.69 30.95,30.95 62.76,60.36 95.45,88.36 -562.63,-656.38 -533.22,-1645.77 88.3,-2267.3z"/>
 </g>
</svg>
