<svg viewbox="0 0 153 26" fill="none" xmlns="http://www.w3.org/2000/svg" class="lib-size-full"><path d="M12.9172 5.5816C12.6978 5.5816 12.5878 5.84706 12.7432 6.00219L19.8474 12.162C19.9725 12.2705 20.1329 12.3302 20.2985 12.3302L27.1433 12.3296C27.28 12.3296 27.3432 12.1597 27.2399 12.0701L21.662 7.2341C21.5522 7.12399 21.6181 6.92874 21.7728 6.91916C22.6159 6.86722 23.9361 6.82086 25.2131 6.68379C28.6456 6.31557 30.4613 5.34043 30.4613 3.39059C30.4613 1.06341 28.2758 0 23.8709 0H1.44797C1.31236 0 1.24845 0.167837 1.34977 0.258107L2.76552 1.51899C2.89155 1.63133 3.05455 1.69351 3.22356 1.69351H19.6528C22.6217 1.69351 23.8811 2.15579 23.8811 3.59565C23.8811 4.9107 22.2235 5.44319 18.8284 5.50181C14.7961 5.57157 12.9174 5.58071 12.9174 5.58071L12.9172 5.5816Z" class="lib-fill-rimac-white"></path><path d="M92.0771 19.6879C92.0771 20.0053 91.8201 20.2625 91.503 20.2625H28.1961C27.879 20.2625 27.6221 20.0053 27.6221 19.6879C27.6221 19.3705 27.879 19.1133 28.1961 19.1133H91.503C91.8201 19.1133 92.0771 19.3705 92.0771 19.6879Z" class="lib-fill-rimac-white"></path><path d="M44.3237 0.00195312H38.1368C38.0281 0.00195312 37.9399 0.090169 37.9399 0.198988V12.1343C37.9399 12.2431 38.0281 12.3313 38.1368 12.3313H44.3237C44.4325 12.3313 44.5206 12.2431 44.5206 12.1343V0.198988C44.5206 0.090169 44.4325 0.00195312 44.3237 0.00195312Z" class="lib-fill-rimac-white"></path><path d="M91.0205 6.2306C90.9729 6.2705 90.9555 6.33603 90.9767 6.39442C90.9978 6.45282 91.0533 6.4916 91.1154 6.4916H93.9266C94.0872 6.4916 94.2426 6.43544 94.3662 6.33313L99.9005 1.69101C100.09 1.53365 100.367 1.54101 100.548 1.7084L111.848 12.1483C111.976 12.2658 112.143 12.3311 112.316 12.3311H119.355C119.489 12.3311 119.554 12.1659 119.455 12.0748L106.585 0.184722C106.458 0.0672597 106.291 0.00195312 106.118 0.00195312H98.6969C98.5351 0.00195312 98.3785 0.0590127 98.2545 0.163102L91.021 6.23082L91.0205 6.2306Z" class="lib-fill-rimac-white"></path><path d="M77.6918 0.113621C77.8036 0.0407358 77.9343 0.00195312 78.0677 0.00195312H84.5203C84.6289 0.00195312 84.7171 0.090218 84.7171 0.198988V12.1343C84.7171 12.243 84.6289 12.3313 84.5203 12.3313H78.3342C78.2255 12.3313 78.1373 12.243 78.1373 12.1343L78.1347 2.80769C78.1347 2.67061 77.9539 2.59282 77.8274 2.67484L66.3201 10.1731C66.1567 10.2794 65.9456 10.2792 65.7826 10.1722L50.6752 0.273433C50.6206 0.237548 50.5959 0.170234 50.6146 0.107603C50.6333 0.0449706 50.6907 0.00195312 50.756 0.00195312H58.9053C59.0392 0.00195312 59.1701 0.04096 59.2821 0.114291L68.4059 5.83207C68.5684 5.93394 68.7751 5.93193 68.9359 5.82717L77.692 0.113621H77.6918Z" class="lib-fill-rimac-white"></path><path d="M150.036 0.00195312H132.69C129.753 0.00195312 127.298 0.321132 125.59 1.54212C123.977 2.69468 123.089 4.33693 123.089 6.16663C123.089 7.99633 124.449 12.3311 132.516 12.3311H141.486C141.618 12.3311 141.684 12.1722 141.591 12.079L140.356 10.9173C140.227 10.7876 140.051 10.7149 139.868 10.7149H137.676C132.548 10.7149 129.667 9.13842 129.667 6.16663C129.667 3.11973 132.512 1.69547 136.917 1.69547H148.418C148.601 1.69547 148.777 1.62258 148.906 1.49286L150.141 0.254042C150.233 0.160874 150.168 0.00195312 150.036 0.00195312H150.036Z" class="lib-fill-rimac-white"></path><path d="M101.475 25.9041H96.7751C96.3099 25.9041 95.9351 25.7619 95.6508 25.4772C95.3667 25.1928 95.2244 24.8175 95.2244 24.3519V20.6655C95.2244 20.1999 95.3667 19.825 95.6508 19.5401C95.9349 19.2557 96.3099 19.1133 96.7751 19.1133H101.088V19.7924L100.7 20.1805H97.1627C96.9236 20.1805 96.7426 20.2404 96.6199 20.3599C96.4969 20.4798 96.4357 20.6624 96.4357 20.908V24.1093C96.4357 24.3552 96.4969 24.538 96.6199 24.6574C96.7426 24.7771 96.9234 24.8371 97.1627 24.8371H100.264V22.1691H101.475V25.9041Z" class="lib-fill-rimac-white"></path><path d="M104.092 25.9041V19.1133H108.647C109.112 19.1133 109.487 19.2573 109.771 19.5452C110.055 19.833 110.198 20.2066 110.198 20.6655V21.8296C110.198 22.2565 110.072 22.6026 109.82 22.8676C109.568 23.1329 109.209 23.2882 108.744 23.3332L110.343 25.2735V25.9041H109.229L107.29 23.3818H105.304V25.9041H104.092ZM105.303 22.3146H108.259C108.505 22.3146 108.687 22.2533 108.807 22.1303C108.926 22.0075 108.986 21.8265 108.986 21.5869V20.9078C108.986 20.6688 108.926 20.4874 108.807 20.3646C108.687 20.2418 108.505 20.1803 108.259 20.1803H105.303V22.3146Z" class="lib-fill-rimac-white"></path><path d="M117.66 26.0003H114.268C113.809 26.0003 113.436 25.8579 113.149 25.5735C112.861 25.2891 112.717 24.9137 112.717 24.4481V20.5678C112.717 20.102 112.861 19.7271 113.149 19.4425C113.436 19.1578 113.809 19.0156 114.268 19.0156H117.66C118.119 19.0156 118.492 19.1581 118.779 19.4425C119.067 19.7269 119.21 20.102 119.21 20.5678V24.4481C119.21 24.9137 119.067 25.2889 118.779 25.5735C118.492 25.8579 118.118 26.0003 117.66 26.0003ZM114.655 24.9331H117.272C117.511 24.9331 117.692 24.8734 117.815 24.7537C117.938 24.634 117.999 24.4515 117.999 24.2056V20.8103C117.999 20.5645 117.938 20.3819 117.815 20.2622C117.692 20.1426 117.511 20.0826 117.272 20.0826H114.655C114.417 20.0826 114.235 20.1426 114.113 20.2622C113.99 20.3819 113.929 20.5645 113.929 20.8103V24.2056C113.929 24.4515 113.99 24.634 114.113 24.7537C114.235 24.8734 114.416 24.9331 114.655 24.9331Z" class="lib-fill-rimac-white"></path><path d="M126.625 26.0012H123.329C122.864 26.0012 122.49 25.8588 122.205 25.5744C121.921 25.29 121.779 24.9146 121.779 24.449V19.1133H122.99V24.2065C122.99 24.4524 123.05 24.6349 123.17 24.7546C123.289 24.8743 123.471 24.934 123.717 24.934H126.237C126.482 24.934 126.665 24.8743 126.784 24.7546C126.904 24.6349 126.964 24.4524 126.964 24.2065V19.1133H128.175V24.449C128.175 24.9146 128.033 25.2898 127.749 25.5744C127.464 25.8588 127.09 26.0012 126.625 26.0012Z" class="lib-fill-rimac-white"></path><path d="M130.889 25.9041V19.1133H135.444C135.909 19.1133 136.283 19.2573 136.568 19.5452C136.852 19.833 136.994 20.2066 136.994 20.6655V22.2177C136.994 22.6771 136.852 23.0504 136.568 23.3382C136.284 23.6259 135.909 23.7699 135.444 23.7699H132.1V25.9041H130.889ZM132.1 22.7029H135.056C135.295 22.7029 135.476 22.643 135.599 22.5233C135.722 22.4038 135.783 22.221 135.783 21.9752V20.908C135.783 20.6624 135.722 20.4798 135.599 20.3599C135.476 20.2404 135.295 20.1805 135.056 20.1805H132.1V22.7029Z" class="lib-fill-rimac-white"></path></svg>