<svg xmlns="http://www.w3.org/2000/svg" version="1.1" xmlns:xlink="http://www.w3.org/1999/xlink" xmlns:svgjs="http://svgjs.dev/svgjs" width="145" height="145"><svg id="SvgjsSvg1056" xmlns="http://www.w3.org/2000/svg" version="1.1" viewBox="0 0 145 145">
  <!-- Generator: Adobe Illustrator 29.4.0, SVG Export Plug-In . SVG Version: 2.1.0 Build 152)  -->
  <defs>
    <style>
      .st0 {
        fill: #d72864;
      }

      .st1 {
        fill: #8c195f;
      }

      .st2 {
        fill: #191919;
      }
    </style>
  </defs>
  <path class="st2" d="M112.4,26.2C87,.6,45.8.5,20.2,25.9c-25.6,25.4-25.7,66.6-.4,92.2,25.4,25.6,66.6,25.7,92.2.4,0,0,.1-.1.2-.2,11.8-11.8,32.4-28.1,32.4-46s-20.5-34.2-32.3-46h0ZM109,109c-9.8,9.8-23,15.2-36.8,15.2s-3.2,0-4.8-.2l-2.4-.2c-1.5.2-3.2.4-4.8.5h-2.4c-28.8.7-52.6-22.1-53.2-51-.7-28.8,22.1-52.6,51-53.2h4.8c1.7,0,3.2.2,4.8.5l2.4-.2c1.5,0,3.2-.2,4.8-.2,13.9,0,27.3,5.7,36.9,15.6,9.4,9.4,25.7,22.4,25.7,36.7s-16.4,27.3-25.8,36.7h-.1Z"></path>
  <path class="st0" d="M20.2,72.2c0-26,19.2-48,44.9-51.6h0c-32,.7-54.5,23.7-54.5,51.6s27,52.4,54.5,51.6h0c-25.7-3.6-44.9-25.6-44.9-51.6Z"></path>
  <path class="st1" d="M99.5,109c-9.6,9.6-22,13.5-34.4,14.8l2.4.2c1.5.1,3.2.2,4.8.2,13.8,0,27-5.5,36.8-15.2,9.4-9.4,25.8-22.5,25.8-36.8s-16.4-27.3-25.7-36.6c-9.8-9.9-23.1-15.4-36.9-15.4s-3.2,0-4.8.2l-2.4.2c12.5,1.2,26.2,6.4,34.5,14.9,9.4,9.4,25.7,22.4,25.7,36.7s-16.4,27.3-25.8,36.7h0Z"></path>
  <path class="st1" d="M10.6,72.2c0-27.9,22.5-50.8,54.5-51.6-1.5-.2-3.2-.4-4.8-.5h-2.4c-28.8-.7-52.6,22.1-53.2,51-.7,28.8,22.1,52.6,51,53.2h4.8c1.7,0,3.2-.2,4.8-.5-27.5.6-54.5-23.8-54.5-51.7h-.1Z"></path>
  <path class="st0" d="M94.8,109c-8,8.1-18.5,13.2-29.8,14.8,12.5-1.2,24.9-5.1,34.4-14.8,9.6-9.6,25.8-22.5,25.8-36.8s-16.3-27.3-25.7-36.6c-8.3-8.5-22-13.8-34.5-14.9,11.3,1.5,21.8,6.8,29.8,14.9,9.4,9.4,25.7,22.4,25.7,36.7s-16.4,27.3-25.8,36.7h.1Z"></path>
</svg><style>@media (prefers-color-scheme: light) { :root { filter: none; } }
@media (prefers-color-scheme: dark) { :root { filter: none; } }
</style></svg>