<svg class="SvgIcon_root__d2Y0U SvgIcon_color-inherit__Q5eSW SvgIcon_fontSize-lg__te6w8" focusable="false" viewbox="0 0 4676 1030" aria-hidden="true" style="display:block;width:auto"><path d="M4021.117 263.059h75.304v87.49h-74.195c-89.701 0-129.572 38.754-129.572 111.847v339.978h-88.592V263.059h81.952v85.272 h9.968C3913.699 298.5 3948.032 263.059 4021.117 263.059z M394.874 28.851c0 134.274-22.085 268.53-54.125 386.607h432.999 c-32.039-118.077-54.125-252.333-54.125-386.607H394.874z M16 802.066c155.985 0 264.54-164.712 324.749-386.607H16V802.066z M1098.497 802.066V415.459H773.748C833.958 637.354 942.513 802.066 1098.497 802.066z M1869.374 367.157l-131.782-23.255 c-110.741-19.935-150.608-64.227-150.608-120.706c0-89.701 99.668-122.924 192.689-122.924c152.827 0 214.839 80.835 230.345 151.71 l93.021-31.004C2076.464 114.669 1982.334 15 1779.673 15c-141.75 0-287.929 53.151-287.929 212.625 c0 104.098 63.126 177.184 225.916 207.087l131.782 24.365c130.677 24.365 166.11 66.446 166.11 129.564 c0 114.066-130.673 138.43-209.301 139.539c-172.758 0-232.556-104.098-248.062-190.479l-94.13 28.794 c28.794 138.43 132.891 248.059 339.977 248.059c139.535 0 305.649-53.151 305.649-227.022 C2109.687 462.396 2022.201 393.732 1869.374 367.157z M2348.754 114.669h-88.595v148.39h-99.668v81.952h99.668v331.12 c0 91.912 34.332 126.244 126.248 126.244h112.956v-81.952h-150.608V345.011h150.608v-81.952h-150.608V114.669z M3084.111 508.907 v52.049h-439.646c9.968 102.989 87.486 172.762 183.831 172.762c76.413 0 139.535-44.3 169.438-95.24l74.195 47.62 c-45.405 70.875-133.997 128.455-244.738 128.455c-162.79 0-272.427-121.815-272.427-281.282 c0-156.147 99.668-281.289 266.888-281.289C2985.551 251.982 3084.111 372.695 3084.111 508.907z M2996.625 487.87 c-7.753-94.138-80.843-156.147-174.973-156.147c-87.486 0-168.329 60.907-177.187 156.147H2996.625z M3600.282 263.059h86.381 V825.63c0 138.43-43.19 189.37-181.613 189.37h-262.463v-81.952h355.484V700.495h-12.178 c-37.66 56.478-94.138 91.912-177.191 91.912c-140.64 0-250.276-102.989-250.276-271.314c0-168.333 109.636-270.213 250.276-270.213 c83.053 0 141.75 37.652 179.402 95.24h12.178V263.059z M3599.18 521.093c0-137.321-85.272-188.268-172.758-188.268 c-87.486 0-177.187 52.049-177.187 188.268c0 136.212 89.701 189.362 177.187 189.362 C3513.908 710.455 3599.18 658.406 3599.18 521.093z M4660 720.423v81.952h-57.587c-58.696 0-93.021-34.332-93.021-93.021v-5.538 h-7.757c-34.324 69.766-104.098 110.738-188.26 110.738c-106.309 0-165.005-67.547-165.005-153.929 c0-105.207 86.381-159.467 200.446-169.435l157.248-14.397v-23.255c0-87.49-45.401-121.815-122.924-121.815 c-78.624 0-129.564 37.652-150.608 97.45l-76.413-43.191c33.223-81.952 116.284-134.001 225.92-134.001 c130.673 0 212.625 69.774 212.625 200.447v267.994H4660z M4506.064 548.778l-150.608 14.397 c-73.086 6.64-117.386 38.754-117.386 91.912c0 57.587 50.94 79.734 104.098 79.734c74.194 0 163.896-44.292 163.896-147.289 V548.778z"></path></svg>