<svg xmlns="http://www.w3.org/2000/svg" width="174" height="33" fill="none"><path fill="#000" d="m41.203 20.3 2.05-1.073c.566.976 1.504 1.562 2.734 1.562 1.269 0 1.933-.664 1.933-1.406 0-.86-1.23-1.035-2.578-1.328-1.816-.39-3.69-.976-3.69-3.163 0-1.68 1.6-3.242 4.1-3.223 1.973 0 3.457.782 4.277 2.07l-1.894 1.035c-.488-.742-1.328-1.21-2.383-1.21-1.21 0-1.835.605-1.835 1.269 0 .761.976.976 2.519 1.328 1.738.39 3.73.957 3.73 3.163 0 1.465-1.27 3.457-4.296 3.437-2.227 0-3.789-.879-4.667-2.46Zm9.9-2.187v-6.21h2.323V17.9c0 1.738.86 2.85 2.578 2.85 1.504 0 2.675-1.151 2.675-3.007v-5.858h2.285v10.682H58.7V21.18c-.723.977-1.875 1.602-3.242 1.602-2.812-.02-4.354-1.758-4.354-4.668Zm11.17-6.209h2.265v1.386c.722-.976 1.874-1.601 3.28-1.601 2.675 0 4.316 1.738 4.316 4.648v6.229h-2.305v-6.034c0-1.738-.878-2.851-2.577-2.851-1.543 0-2.695 1.152-2.695 3.027v5.858h-2.285V11.904Zm10.681 0h1.816v-.547c0-3.32 1.015-4.335 4.374-4.335h.195v2.11c-2.03 0-2.265.331-2.265 2.264v.527h2.265v2.05h-2.265v8.593H74.77v-8.612h-1.816v-2.05Zm7.713-4.882h2.285v15.544h-2.285V7.022Zm3.515 10.213c0-3.105 2.441-5.546 5.507-5.546s5.526 2.421 5.526 5.546a5.513 5.513 0 0 1-5.526 5.546c-3.066 0-5.507-2.46-5.507-5.546Zm8.807 0c0-1.875-1.445-3.398-3.28-3.398-1.836 0-3.262 1.543-3.262 3.398 0 1.855 1.426 3.398 3.261 3.398 1.816 0 3.28-1.524 3.28-3.398Zm2.246-5.351 2.323.02 2.422 7.557 2.792-7.557h2.265l2.754 7.557 2.519-7.557h2.323l-3.71 10.642h-2.187l-2.851-7.596-2.87 7.616h-2.226l-3.554-10.682Zm17.379 5.39c0-3.125 2.402-5.585 5.526-5.585 3.144 0 5.468 2.285 5.468 5.429v.898h-8.807c.293 1.64 1.582 2.734 3.437 2.734 1.445 0 2.558-.762 3.104-1.914l1.875 1.035c-.937 1.738-2.617 2.89-4.979 2.89-3.379 0-5.624-2.402-5.624-5.487Zm2.304-1.191h6.385c-.332-1.543-1.503-2.383-3.143-2.383-1.582 0-2.832.977-3.242 2.383Zm9.92-4.179h2.285v1.64c.546-1.035 1.542-1.64 2.929-1.64h1.25v2.167H129.7c-1.855 0-2.577.977-2.577 3.203v5.272h-2.305V11.904h.02Z"/><path fill="url(#a)" d="M26.885 26.823a6.066 6.066 0 0 1-3.416 1.702 3.363 3.363 0 0 1-.367.755 6.803 6.803 0 0 0 4.382-2.09 6.795 6.795 0 0 0 1.891-4.467v-.27a5.43 5.43 0 0 1-.733.405 6.047 6.047 0 0 1-1.757 3.965Zm3.281-15.28-.212-.193a6.52 6.52 0 0 1-.231.813 5.89 5.89 0 0 1 1.216 2.03c.27.755.386 1.548.347 2.34a6.224 6.224 0 0 1-.58 2.283 5.908 5.908 0 0 1-1.427 1.876 5.339 5.339 0 0 1-2.567 1.2 5.197 5.197 0 0 1-2.818-.31 10.554 10.554 0 0 1-3.493-2.224c-.618-.542-1.506-1.412-2.22-2.108.077-.136.135-.29.174-.445 1.003 0 2.238 0 3.05.077 1.37.039 2.74.348 3.994.909a5.538 5.538 0 0 1 2.78 2.766 3.64 3.64 0 0 0 .52-.387l.097-.097c-.038-.096-.096-.193-.135-.29a6.471 6.471 0 0 0-2.992-2.804c-.714-.348-1.466-.6-2.238-.774a10.173 10.173 0 0 0 2.238-.754 6.382 6.382 0 0 0 2.992-2.805 6.192 6.192 0 0 0 .656-2.998 6.939 6.939 0 0 0-2.007-4.583 6.91 6.91 0 0 0-4.574-2.012h-.27c.154.232.27.484.405.735a6.012 6.012 0 0 1 2.297.58c.714.348 1.37.832 1.891 1.412.54.6.946 1.277 1.197 2.031a6.04 6.04 0 0 1 .328 2.34 5.351 5.351 0 0 1-.927 2.689 5.254 5.254 0 0 1-2.2 1.798 10.54 10.54 0 0 1-3.995.89c-.81.058-2.065.077-3.05.077a1.776 1.776 0 0 0-.173-.444c.714-.697 1.602-1.567 2.22-2.109a10.362 10.362 0 0 1 3.493-2.224 5.686 5.686 0 0 1 3.918 0c.058-.213.077-.425.096-.638v-.116l-.328-.116a6.441 6.441 0 0 0-4.092.135c-.752.271-1.466.62-2.123 1.045a8.708 8.708 0 0 0 1.043-2.128 6.624 6.624 0 0 0 .154-4.1 6.133 6.133 0 0 0-1.64-2.573A6.851 6.851 0 0 0 16.328.5a6.924 6.924 0 0 0-4.651 1.818l-.193.193c.27.059.54.136.81.233a5.857 5.857 0 0 1 2.027-1.219 6.019 6.019 0 0 1 2.335-.348 6.04 6.04 0 0 1 2.297.6 6.2 6.2 0 0 1 1.891 1.43 5.36 5.36 0 0 1 1.197 2.573 5.42 5.42 0 0 1-.309 2.824 10.9 10.9 0 0 1-2.22 3.5c-.52.6-1.389 1.49-2.084 2.186a2.351 2.351 0 0 0-.463-.193c0-1.006 0-2.224.077-2.998.039-1.373.328-2.746.907-4.004A5.501 5.501 0 0 1 20.69 4.31a3.655 3.655 0 0 0-.386-.522l-.116-.155-.309.136a6.474 6.474 0 0 0-2.798 2.998 9.305 9.305 0 0 0-.753 2.243 10.282 10.282 0 0 0-.772-2.243 6.384 6.384 0 0 0-2.798-2.998 6.157 6.157 0 0 0-2.992-.658 6.855 6.855 0 0 0-4.44 1.895C4.13 6.149 3.397 7.715 3.243 9.358c.251-.135.502-.251.772-.367a6.008 6.008 0 0 1 2.143-3.83 5.962 5.962 0 0 1 4.169-1.354 5.305 5.305 0 0 1 2.663.967A5.422 5.422 0 0 1 14.765 7c.56 1.257.868 2.63.907 4.003 0 .793.058 2.012.077 2.998-.154.058-.328.116-.463.194a96.229 96.229 0 0 1-2.085-2.186 10.58 10.58 0 0 1-2.22-3.5 5.505 5.505 0 0 1-.038-3.888 6.456 6.456 0 0 0-.656-.097h-.116c-.038.097-.077.213-.115.31a6.48 6.48 0 0 0 .135 4.1c.231.58.501 1.14.83 1.682A8.923 8.923 0 0 0 8.029 9.34a6.67 6.67 0 0 0-5.54 1.45A6.763 6.763 0 0 0 .54 13.537c-.386.851-.54 1.74-.54 2.65 0 .909.154 1.798.483 2.65a7.145 7.145 0 0 0 2.219 2.997 7.13 7.13 0 0 0 .54 3.695 7.28 7.28 0 0 0 3.745 3.732 7.078 7.078 0 0 0 3.686.523 6.824 6.824 0 0 0 2.992 2.224 7.283 7.283 0 0 0 5.269 0 6.705 6.705 0 0 0 2.74-1.934 6.79 6.79 0 0 0 1.467-3.018c.135-.831.135-1.682-.058-2.495a9.372 9.372 0 0 0-1.274-2.997c.54.309 1.1.58 1.699.793a6.444 6.444 0 0 0 4.091.135 6.072 6.072 0 0 0 2.587-1.625A6.919 6.919 0 0 0 32 16.205a6.863 6.863 0 0 0-1.814-4.661h-.02ZM3.185 20.016c-.136-.135-.251-.29-.367-.445a5.778 5.778 0 0 1-1.1-3.404 5.78 5.78 0 0 1 1.1-3.404 4.783 4.783 0 0 1 3.165-1.934 7.194 7.194 0 0 1 5.038 1.625c.926.677 2.315 1.895 3.242 2.746a2.591 2.591 0 0 0-.135.348c-1.004 0-2.239 0-3.05-.077a10.54 10.54 0 0 1-3.995-.89 5.76 5.76 0 0 1-2.605-2.379 4.7 4.7 0 0 0-.599.484 6.553 6.553 0 0 0 2.992 2.708c.56.27 1.158.483 1.756.657a8.84 8.84 0 0 0-2.991 1.238 6.685 6.685 0 0 0-1.795 1.74 6.82 6.82 0 0 0-.656.987Zm6.234 7.06c.077.367.173.715.308 1.064h-.56a5.564 5.564 0 0 1-3.165-1.664A5.556 5.556 0 0 1 4.4 23.284l-.057-.561c.347.135.714.232 1.061.31.83.154 1.68.154 2.49 0a8.381 8.381 0 0 0 2.605-1.006 9.146 9.146 0 0 0-1.003 2.61 6.377 6.377 0 0 0-.077 2.418v.02Zm-3.417-5.57a4.06 4.06 0 0 1-1.466-.465c.154-.483.386-.947.694-1.354a7.205 7.205 0 0 1 4.748-2.436c1.139-.175 2.992-.29 4.246-.349.02.078.058.155.097.232-.946.87-2.316 2.09-3.243 2.747a7.138 7.138 0 0 1-5.076 1.625Zm5 4.95a7.162 7.162 0 0 1 1.62-5.008c.676-.929 1.873-2.302 2.722-3.23l.25.116c-.057 1.276-.173 3.094-.347 4.216a7.203 7.203 0 0 1-2.412 4.72 4.42 4.42 0 0 1-1.37.696 4.157 4.157 0 0 1-.464-1.51Zm10.614 0a5.052 5.052 0 0 1-.656 1.8 4.68 4.68 0 0 1-1.293 1.392 5.75 5.75 0 0 1-3.397 1.103 5.838 5.838 0 0 1-3.397-1.103 3.866 3.866 0 0 1-.424-.367 7.207 7.207 0 0 0 1.003-.542 6.687 6.687 0 0 0 1.737-1.799 9.175 9.175 0 0 0 1.236-3.055c.154.618.347 1.199.617 1.779a6.463 6.463 0 0 0 2.702 2.998c.174-.194.328-.387.483-.6a5.618 5.618 0 0 1-2.355-2.61 10.622 10.622 0 0 1-.907-4.005c0-.793-.077-2.011-.077-2.997a2.2 2.2 0 0 0 .366-.155c.85.948 2.066 2.32 2.722 3.23a7.38 7.38 0 0 1 1.621 4.932h.02Z"/><path fill="#000" d="M138.605 7.022h1.23v15.544h-1.23V7.022Zm15.309 13.318v2.226h-1.171V7.022h1.191v7.089c.878-1.524 2.655-2.402 4.276-2.402 3.144 0 5.487 2.5 5.487 5.526 0 3.046-2.382 5.546-5.487 5.546-1.621-.02-3.417-.879-4.296-2.441Zm8.573-3.105c0-2.44-1.894-4.433-4.296-4.433-2.5 0-4.394 1.992-4.394 4.433 0 2.44 1.894 4.433 4.394 4.433 2.402 0 4.296-1.992 4.296-4.433Zm2.245 3.535.957-.762c.723.976 1.894 1.699 3.339 1.699 1.836 0 2.754-.996 2.754-2.129 0-1.328-1.484-1.601-3.046-1.972-1.699-.43-3.496-.977-3.496-2.968 0-1.582 1.426-2.968 3.73-2.968 1.543 0 2.929.566 3.808 1.581l-.918.742c-.723-.84-1.66-1.269-2.89-1.269-1.621 0-2.539.84-2.539 1.894 0 1.25 1.426 1.582 2.968 1.953 1.719.43 3.574.957 3.574 3.007 0 1.445-1.191 3.203-3.984 3.203-1.835-.02-3.358-.82-4.257-2.012Zm-15.621-8.26c-.782-.567-1.797-.801-2.871-.801-1.543 0-2.929.566-3.808 1.581l.918.742c.82-.78 1.66-1.23 2.89-1.23 1.406 0 2.597.684 2.91 1.816.039.137.058.293.058.45.02.117.02.937.02.937h-1.582c-.527 0-1.113.039-1.796.097-.684.078-1.328.215-1.934.469-.019.02-.058.02-.078.039-.117.059-.254.098-.351.176a2.89 2.89 0 0 0-1.055.878c0 .02-.019.02-.039.04-.39.527-.625 1.171-.625 1.952 0 1.836 1.231 3.222 3.574 3.222 1.796 0 3.241-.878 3.905-2.5v2.285h1.309v-7.01c-.02-1.523-.489-2.519-1.445-3.144Zm.117 5.154c-.059 1.758-1.387 4.062-3.71 4.062-1.563 0-2.5-.86-2.5-2.07 0-.449.176-.937.508-1.328.254-.293.644-.527 1.074-.703a6.156 6.156 0 0 1 1.464-.39 11.944 11.944 0 0 1 1.68-.098h1.503l-.019.527Z"/><defs><linearGradient id="a" x1="21.977" x2="10.529" y1="10.48" y2="21.933" gradientUnits="userSpaceOnUse"><stop stop-color="#FF9F35"/><stop offset="1" stop-color="#D8505A"/></linearGradient></defs></svg>