<svg xmlns="http://www.w3.org/2000/svg" width="177" height="25" viewbox="0 0 177 25" fill="none">
  <path fill-rule="evenodd" clip-rule="evenodd" d="M127.144 12.0978C127.144 5.4569 132.533 0.0734863 139.168 0.0734863C145.803 0.0734863 151.193 5.46289 151.193 12.0978C151.193 18.7328 145.803 24.1222 139.168 24.1222C132.527 24.1641 127.144 18.7747 127.144 12.0978Z" fill="#52BAD5"></path>
  <path fill-rule="evenodd" clip-rule="evenodd" d="M145.233 7.76641L137.017 4.8674C136.884 4.82459 136.799 4.69004 136.799 4.5616V3.63808C136.799 3.46071 136.666 3.33228 136.491 3.33228H134.743C134.568 3.33228 134.435 3.46683 134.435 3.63808V20.7141C134.435 20.8915 134.568 21.0199 134.743 21.0199H136.491C136.666 21.0199 136.799 20.8853 136.799 20.7141V19.8823C136.799 19.7478 136.884 19.6193 137.017 19.5765L145.233 17.075C145.366 17.0322 145.451 16.8977 145.451 16.7692V14.8366C145.451 14.702 145.366 14.5736 145.233 14.5308L139.816 12.5553C139.556 12.4697 139.556 12.0721 139.816 11.9865L145.191 10.3168C145.324 10.274 145.409 10.1394 145.409 10.011V8.03552C145.451 7.90097 145.366 7.81534 145.233 7.77253V7.76641ZM141.956 15.5216L137.017 17.0567C136.884 17.0995 136.799 17.0139 136.799 16.8793V14.0721C136.799 13.9375 136.932 13.8519 137.017 13.8947L141.956 15.5216ZM141.956 8.93458L137.017 10.4697C136.884 10.5125 136.799 10.4269 136.799 10.2923V7.48507C136.799 7.35052 136.932 7.2649 137.017 7.30771L141.956 8.93458Z" fill="white"></path>
  <path d="M171.081 21.4415H168.396C168.08 21.4415 167.859 21.3784 167.669 21.2208C167.479 21.0631 167.353 20.8739 167.258 20.6532L165.868 16.8692H158.159L156.769 20.6532C156.705 20.8424 156.579 21.0316 156.358 21.1892C156.168 21.3469 155.916 21.4415 155.631 21.4415H152.914L160.244 2.83716H163.783L171.113 21.4415H171.081ZM164.952 14.4412L162.677 8.26079C162.551 7.977 162.456 7.66167 162.329 7.28328C162.203 6.90488 162.077 6.49496 161.982 6.0535C161.856 6.49496 161.761 6.90488 161.634 7.28328C161.508 7.66167 161.413 8.00853 161.287 8.29233L159.044 14.4412H164.983H164.952Z" fill="var(--ink--primary)"></path>
  <path d="M176.483 21.5355H173.007V2.93115H176.483V21.5355Z" fill="var(--ink--primary)"></path>
  <path d="M111.341 9.3654L111.435 9.20774C111.246 9.08161 111.025 8.98701 110.772 8.92394C110.519 8.86088 110.266 8.82935 110.014 8.82935C109.224 8.82935 108.56 9.05008 107.991 9.52307C107.581 9.86993 107.202 10.3114 106.854 10.879L106.759 9.86993C106.728 9.61766 106.633 9.39694 106.507 9.2708C106.349 9.11314 106.096 9.08161 105.811 9.08161H104.168V21.4424H107.075V13.8431C107.202 13.4962 107.36 13.2124 107.518 12.9286C107.676 12.6448 107.865 12.4241 108.055 12.2349C108.244 12.0457 108.465 11.9196 108.718 11.825C108.971 11.7304 109.255 11.6988 109.603 11.6988C109.95 11.6988 110.045 11.6988 110.266 11.7619C110.487 11.7934 110.677 11.825 110.803 11.825C110.93 11.825 111.056 11.7934 111.183 11.6988C111.309 11.6042 111.372 11.4781 111.404 11.3204L111.593 9.42847H111.404L111.341 9.3654Z" fill="var(--ink--primary)"></path>
  <path d="M111.342 9.36464L111.499 9.39611L111.531 9.27024L111.436 9.23877L111.342 9.36464Z" fill="var(--ink--primary)"></path>
  <path d="M60.3769 21.2535L60.5033 21.1274L55.448 15.2623C55.3217 15.1046 55.2269 14.9469 55.1005 14.7893C55.0373 14.6947 54.9109 14.6316 54.8161 14.537C55.0373 14.3793 55.2585 14.1586 55.448 13.9379L60.2189 9.36563L60.5349 9.05031H57.0594C56.8066 9.05031 56.6171 9.08184 56.4275 9.20797C56.2695 9.30257 56.1431 9.4287 56.0168 9.58636L52.6361 13.4334C52.5097 13.5595 52.4465 13.6541 52.3517 13.6856C52.2885 13.7172 52.1621 13.7487 52.0042 13.7487H51.625V4.0366V3.8474V3.6582H48.7183V21.4427H51.625V15.8298H52.0674C52.2885 15.8298 52.4465 15.8299 52.5097 15.8929C52.5729 15.8929 52.6677 16.019 52.794 16.1767L56.2695 20.8751C56.3959 21.0643 56.5539 21.222 56.7119 21.3165C56.8698 21.3796 57.091 21.4427 57.3122 21.4427H60.6928L60.4401 21.1589L60.3137 21.285L60.3769 21.2535Z" fill="var(--ink--primary)"></path>
  <path d="M4.61347 3.53149L4.45581 3.59443L4.61347 3.53149Z" fill="var(--ink--primary)"></path>
  <path d="M72.9524 11.7608C73.3315 11.6032 73.6791 11.4455 73.9634 11.2563C74.4057 10.9725 74.7533 10.6572 75.0376 10.2788C75.322 9.90041 75.5432 9.52201 75.6696 9.08055C75.8275 8.6391 75.8907 8.22917 75.8907 7.75618C75.8907 6.99939 75.7643 6.30567 75.5116 5.67502C75.2272 5.04436 74.8165 4.5083 74.2794 4.06685C73.7106 3.62539 73.0156 3.31006 72.1625 3.0578C71.3094 2.83707 70.2984 2.71094 69.0977 2.71094H62.8103V21.4414H69.7297C70.8039 21.4414 71.7517 21.3153 72.5732 21.0315C73.4263 20.7477 74.1214 20.4008 74.6901 19.8963C75.2588 19.4233 75.7011 18.8242 76.0171 18.162C76.333 17.4998 76.491 16.743 76.491 15.9547C76.491 14.8195 76.1435 13.8735 75.48 13.1483C74.8797 12.5176 74.0582 12.0762 72.984 11.7924L72.9524 11.7608ZM71.6886 10.0896C71.0882 10.5311 70.2036 10.7833 68.9398 10.7833H66.1278V5.42275H69.0662C70.2984 5.42275 71.183 5.64348 71.7517 6.05341C72.2889 6.46334 72.5732 7.12552 72.5732 8.10304C72.5732 9.08055 72.2889 9.64814 71.6886 10.0896ZM66.1278 13.2744H69.6349C70.8987 13.2744 71.7833 13.5267 72.3205 13.9681C72.8576 14.4096 73.1419 15.0718 73.1419 15.8916C73.1419 16.7115 73.0787 16.6799 72.9524 17.0268C72.826 17.3737 72.6364 17.6575 72.3521 17.9097C72.0677 18.162 71.7201 18.3512 71.2778 18.5089C70.8355 18.6665 70.2984 18.7296 69.6349 18.7296H69.4453H66.0962V13.2429L66.1278 13.2744Z" fill="var(--ink--primary)"></path>
  <path d="M122.842 3.6582H120.124V9.90169C119.777 9.61789 119.429 9.36563 119.05 9.17644C118.513 8.95571 117.913 8.82958 117.186 8.82958C116.459 8.82958 115.638 8.98724 114.943 9.3341C114.279 9.68096 113.711 10.1224 113.237 10.69L113.363 10.8161L113.237 10.7215C112.763 11.2891 112.415 11.9829 112.162 12.7712C111.91 13.5595 111.783 14.4109 111.783 15.2938C111.783 16.1767 111.878 17.1858 112.099 17.9741C112.32 18.7624 112.636 19.4246 113.047 19.9606C113.458 20.4967 113.963 20.9066 114.532 21.1904C114.848 21.3481 115.322 21.4427 115.827 21.5057C116.333 21.5688 116.838 21.6003 117.186 21.6003C117.534 21.6003 117.755 21.6003 117.944 21.5057C118.134 21.4427 118.292 21.3481 118.45 21.2535C118.545 21.1904 118.671 21.1274 118.797 21.0328C119.366 20.7174 119.872 20.3075 120.314 19.8345L120.472 20.7805C120.535 20.9697 120.63 21.1274 120.756 21.222C120.914 21.3165 121.072 21.3796 121.293 21.3796H123V3.8474V3.6582H122.81H122.842ZM114.943 17.1542C114.816 16.6497 114.753 16.019 114.753 15.2938C114.753 13.9064 115.038 12.8658 115.543 12.172C116.049 11.4783 116.775 11.163 117.723 11.163C118.671 11.163 118.639 11.2576 119.019 11.4153C119.398 11.5729 119.745 11.8567 120.061 12.2666V17.7218C119.682 18.1948 119.271 18.5732 118.861 18.8255C118.418 19.0777 117.913 19.2354 117.281 19.2354C116.649 19.2354 116.522 19.1723 116.207 19.0147C115.891 18.8885 115.638 18.6678 115.417 18.3525C115.195 18.0371 115.038 17.6587 114.911 17.1542H114.943Z" fill="var(--ink--primary)"></path>
  <path d="M46.6964 8.95422C46.4437 8.89115 46.1909 8.85962 45.9381 8.85962C45.1483 8.85962 44.4848 9.08035 43.916 9.55334C43.5053 9.9002 43.1262 10.3417 42.7786 10.9092L42.6838 9.9002C42.6522 9.64794 42.5574 9.42721 42.4311 9.26954C42.2731 9.11188 42.0203 9.08035 41.736 9.08035H40.093V21.4412H42.9998V13.8418C43.1262 13.4949 43.2841 13.2111 43.4421 12.9273C43.6001 12.6436 43.7897 12.4228 43.9792 12.2652C44.1688 12.076 44.39 11.9498 44.6427 11.8552C44.8955 11.7606 45.1798 11.7291 45.5274 11.7291C45.8749 11.7291 45.9697 11.7291 46.1909 11.7922C46.4121 11.8237 46.6016 11.8552 46.728 11.8552C46.8544 11.8552 46.9808 11.8237 47.1072 11.7291C47.2335 11.6345 47.2967 11.5084 47.3283 11.3507H47.1388C47.1388 11.3192 47.1388 11.3192 47.1388 11.3192H47.3283L47.5179 9.39568V9.26954L47.4231 9.20648C47.2335 9.08035 47.0124 8.98575 46.7596 8.92268L46.6964 8.95422Z" fill="var(--ink--primary)"></path>
  <path d="M94.4064 17.3735L94.2488 17.2791L94.4064 17.4049V17.3735Z" fill="var(--ink--primary)"></path>
  <path d="M100.346 10.1853C99.9669 9.7438 99.493 9.42847 98.9243 9.17621C98.3555 8.95548 97.7236 8.82935 96.997 8.82935C95.1012 8.82935 93.4583 9.46 92.0681 10.7213H91.8153L91.9733 10.9736L92.4156 11.7934C92.5104 11.9511 92.6368 12.0772 92.7632 12.1718C92.9212 12.2979 93.1107 12.3295 93.3003 12.3295C93.4899 12.3295 93.7742 12.2664 93.9954 12.1088C94.185 11.9826 94.4061 11.8565 94.6273 11.7304C94.8801 11.6042 95.1328 11.4781 95.4488 11.352C95.7647 11.2258 96.1439 11.1628 96.6178 11.1628C97.2813 11.1628 97.7868 11.352 98.1028 11.7304C98.4187 12.1088 98.6083 12.7079 98.6083 13.5593V14.1899C97.3129 14.2214 96.2071 14.3476 95.2908 14.5683C94.343 14.789 93.5847 15.1044 92.9844 15.4512C92.3841 15.7981 91.9733 16.2395 91.689 16.7125C91.4362 17.1855 91.3098 17.6585 91.3098 18.163C91.3098 18.6676 91.4046 19.2352 91.5942 19.6451C91.7838 20.055 92.0365 20.4334 92.3525 20.7172C92.6684 21.001 93.0791 21.2217 93.5215 21.3478C93.9638 21.5055 94.4377 21.5686 94.9433 21.5686C95.4488 21.5686 95.7963 21.537 96.1755 21.4424C96.5546 21.3794 96.9022 21.2533 97.2497 21.0956C97.5973 20.9379 97.9132 20.7487 98.1976 20.528C98.4187 20.3703 98.6715 20.1811 98.8927 19.9604L99.0822 20.6541H99.2402C99.2402 20.6331 99.2402 20.6226 99.2402 20.6226L99.0822 20.6857C99.177 20.9379 99.3034 21.1271 99.493 21.2217C99.651 21.3163 99.9037 21.3478 100.156 21.3478H101.452V13.5277C101.452 12.834 101.357 12.1718 101.168 11.6042C100.978 11.0051 100.662 10.5006 100.283 10.0907L100.346 10.1853ZM94.4062 17.3747C94.5325 17.154 94.7853 16.9648 95.1644 16.8071C95.5436 16.6495 96.0175 16.4918 96.6178 16.3972C97.1865 16.3026 97.8816 16.208 98.7031 16.1765V18.1315C98.2924 18.573 97.85 18.8883 97.4077 19.1406C96.9654 19.3613 96.4282 19.4874 95.7963 19.4874C95.1644 19.4874 95.3224 19.4874 95.1328 19.3928C94.9433 19.3298 94.7537 19.2352 94.6273 19.1406C94.5009 19.0144 94.3745 18.8883 94.3114 18.6991C94.2482 18.5414 94.185 18.3207 94.185 18.0684C94.185 17.8162 94.2482 17.5955 94.4062 17.3747Z" fill="var(--ink--primary)"></path>
  <path d="M37.5657 12.6127C37.2813 11.8244 36.8706 11.1622 36.365 10.6261C35.8279 10.0585 35.196 9.64859 34.4693 9.3648C33.7426 9.04947 32.8896 8.92334 32.0049 8.92334C31.1202 8.92334 30.2672 9.081 29.5089 9.3648C28.7822 9.64859 28.1187 10.0901 27.6132 10.6261C27.076 11.1937 26.6653 11.8559 26.381 12.6127C26.0966 13.401 25.9702 14.2839 25.9702 15.2299C25.9702 16.1759 26.0966 17.0588 26.381 17.8471C26.6653 18.6354 27.076 19.2976 27.6132 19.8652C28.1503 20.4328 28.7822 20.8427 29.5089 21.158C30.2672 21.4734 31.0886 21.5995 32.0049 21.5995C32.9212 21.5995 33.7426 21.4418 34.4693 21.158C35.196 20.8427 35.8279 20.4328 36.365 19.8652C36.9022 19.2976 37.2813 18.6354 37.5657 17.8471C37.85 17.0588 37.9764 16.1759 37.9764 15.2299C37.9764 14.2839 37.85 13.401 37.5657 12.6127ZM29.5405 18.3516L29.6985 18.257C29.1929 17.5948 28.9402 16.5858 28.9402 15.2614C28.9402 13.937 29.1929 12.928 29.6985 12.2343C30.204 11.5406 30.9623 11.1937 32.0049 11.1937C33.0475 11.1937 33.8058 11.5406 34.2798 12.2027C34.7853 12.8965 35.038 13.9055 35.038 15.2299C35.038 16.5543 34.7853 17.5633 34.2798 18.2255C33.8058 18.8877 33.0475 19.2346 32.0049 19.2346C30.9623 19.2346 30.204 18.8877 29.6985 18.2255L29.5405 18.3201V18.3516Z" fill="var(--ink--primary)"></path>
  <path d="M29.6697 18.2566L29.5436 18.351L29.6697 18.2566Z" fill="#013149"></path>
  <path d="M106.728 9.90037V9.8689L106.539 9.90037H106.728Z" fill="#013149"></path>
  <path d="M99.1738 20.748L99.3315 20.6851L99.1738 20.748Z" fill="#013149"></path>
  <path d="M27.4555 2.71069H24.6751C24.3907 2.71069 24.138 2.80529 23.9168 2.96296C23.6956 3.12062 23.5693 3.30982 23.5061 3.53055L20.0622 15.2923C19.999 15.5445 19.9358 15.8283 19.8726 16.1121L20.0622 16.1436H19.8726C19.8726 16.1436 19.8726 16.1436 19.8726 16.1752C19.8726 16.1752 19.8726 16.1436 19.8726 16.1121C19.8094 15.8283 19.7147 15.5761 19.6199 15.3238L15.7021 3.56208C15.6073 3.34135 15.4493 3.15215 15.2913 2.99449C15.1018 2.83682 14.8174 2.74223 14.533 2.74223H13.68C13.3956 2.74223 13.1428 2.83682 12.9217 2.99449C12.7321 3.15215 12.5741 3.34135 12.5109 3.56208L8.56154 15.3238C8.46676 15.5761 8.40357 15.8599 8.30878 16.1752C8.30878 16.1752 8.30878 16.2382 8.30878 16.2698C8.30878 16.2698 8.30878 16.2382 8.30878 16.2067C8.24559 15.9229 8.1824 15.6391 8.11921 15.3553L4.61214 3.53055C4.54895 3.27828 4.39098 3.08909 4.2014 2.93142C3.98024 2.77376 3.72748 2.71069 3.44312 2.71069H0.694336L0.757526 2.93142L6.47626 21.315V21.4412H9.4778V21.315C9.5094 21.315 13.8695 8.13433 13.8695 8.13433C13.9011 8.0082 13.9327 7.88207 13.9959 7.75593C14.0275 7.88207 14.0591 8.0082 14.1223 8.13433L18.4508 21.315V21.4412H21.4524V21.315C21.484 21.315 27.2027 2.99449 27.2027 2.99449L27.4871 2.71069H27.4555Z" fill="var(--ink--primary)"></path>
  <path d="M89.7619 12.6117H89.6356C89.6356 12.6433 89.604 12.6748 89.604 12.6748L89.7619 12.6117C89.4776 11.8234 89.0669 11.1612 88.5613 10.5936C88.0242 10.026 87.3923 9.61612 86.6656 9.33233C85.9389 9.017 85.0859 8.89087 84.2012 8.89087C83.3165 8.89087 82.4635 9.04853 81.7052 9.33233C80.9785 9.61612 80.3466 10.0576 79.8095 10.5936C79.2723 11.1612 78.8616 11.8234 78.5772 12.6117C78.2929 13.4001 78.1665 14.283 78.1665 15.229C78.1665 16.1749 78.2929 17.0579 78.5772 17.8462C78.8616 18.6345 79.2723 19.2967 79.8095 19.8643C80.3466 20.4319 80.9785 20.8418 81.7052 21.1571C82.4635 21.4724 83.2849 21.5986 84.2012 21.5986C85.1174 21.5986 85.9389 21.4409 86.6656 21.1571C87.3923 20.8418 88.0242 20.4319 88.5613 19.8643C89.0984 19.2967 89.4776 18.6345 89.7619 17.8462C90.0463 17.0579 90.1727 16.1749 90.1727 15.229C90.1727 14.283 90.0147 13.4001 89.7619 12.6117ZM81.7368 18.3507L81.8947 18.2561C81.3892 17.5939 81.1365 16.5849 81.1365 15.2605C81.1365 13.9361 81.3892 12.9271 81.8947 12.2333C82.4003 11.5396 83.1585 11.1928 84.2012 11.1928C85.2438 11.1928 86.0021 11.5396 86.476 12.2018C86.9816 12.8955 87.2343 13.9046 87.2343 15.229C87.2343 16.5533 86.9816 17.5624 86.476 18.2246C86.0021 18.8868 85.2438 19.2336 84.2012 19.2336C83.1585 19.2336 82.4003 18.8868 81.8947 18.2246L81.7684 18.3192L81.7368 18.3507Z" fill="var(--ink--primary)"></path>
</svg>