<svg width="652" height="201" viewBox="0 0 652 201" fill="none" xmlns="http://www.w3.org/2000/svg">
<path d="M179.839 152.078C173.326 169.216 158.105 178.627 139.359 178.627C137.128 178.627 107.226 175.624 96.6116 148.05C101.001 139.737 112.084 138.346 128.492 135.49C158.105 129.667 184.732 123.882 184.732 93.1951C184.732 67.1958 159.761 52.5483 133.673 52.5483C88.8394 52.5483 66.3145 87.3727 66.3145 126.372C66.3145 170.058 95.1003 200.744 135.041 200.744C166.849 200.744 189.122 179.469 195.347 162.588L179.875 152.078H179.839ZM92.9054 126.335C92.9054 98.1386 104.312 75.1787 129.859 75.1787C143.425 75.1787 158.105 79.0603 158.105 95.0993C158.105 108.648 141.805 113.079 126.585 115.569C114.747 117.547 101.397 119.817 92.9054 127.214C92.9054 126.921 92.9054 126.628 92.9054 126.335Z" fill="#160055"/>
<path d="M288.795 52.5117C246.408 52.5117 218.701 82.9419 218.701 126.884C218.701 170.827 246.695 200.964 288.795 200.964C330.894 200.964 358.601 170.277 358.601 126.884C358.601 83.4911 330.894 52.5117 288.795 52.5117ZM320.819 186.756C313.263 177.894 303.835 176.063 295.847 174.891C274.762 171.852 265.91 169.399 259.145 158.157C253.64 148.929 252.561 135.526 252.057 123.698C251.265 104.364 249.466 99.347 241.802 80.3785C262.708 80.3785 269.256 74.5562 286.888 74.9956C312.255 75.6181 331.002 92.719 331.002 143.436C331.002 155.886 325.677 177.601 320.783 186.719L320.819 186.756Z" fill="#160055"/>
<path d="M457.479 52.5112C436.286 52.5112 419.986 63.57 412.394 80.1583H409.407C408.579 75.1782 407.248 63.8264 405.053 55.2942H378.426C380.873 63.863 382.78 76.5697 383.86 89.8623V197.961H410.235V119.157C410.235 103.411 418.906 75.4711 448.808 75.4711C468.922 75.4711 481.408 89.5693 481.408 111.138V197.961H508.035V104.253C508.035 73.274 486.553 52.5478 457.515 52.5478L457.479 52.5112ZM37.7815 197.961C34.5071 187.195 32.3481 170.314 32.3481 156.472V0H0C3.81413 12.7067 5.43333 27.6471 5.43333 41.4524V197.924H37.7815V197.961ZM595.76 52.5112C578.38 52.5112 553.372 59.6885 540.347 89.02L559.094 99.5296C567.801 81.2935 580.539 74.3726 595.76 74.3726C613.967 74.3726 625.373 82.3921 625.373 104.803C625.373 114.214 610.44 115.312 588.959 119.45C554.992 125.785 536.245 138.236 536.245 162.294C536.245 186.353 554.164 201 580.251 201C598.458 201 612.311 193.53 624.006 176.685H626.992L629.187 197.961H652V98.724C652 70.2346 630.806 52.5478 595.76 52.5478V52.5112ZM585.972 179.725C571.831 179.725 563.411 173.097 563.411 162.038C563.411 150.979 571.831 144.351 592.737 139.371C608.209 135.782 618.536 132.743 625.337 128.861C625.337 163.136 607.958 179.725 585.936 179.725H585.972Z" fill="#160055"/>
</svg>
