<svg xmlns="http://www.w3.org/2000/svg" viewbox="0 0 522 49" fill="none" height="100%" aria-hidden="true"><path fill="currentColor" d="M419.938 12.626c1.822 0 3.493.208 5.069.63 1.576.423 2.971 1.076 4.177 1.963 1.205.887 2.155 2.035 2.86 3.438.699 1.404 1.055 3.084 1.055 5.051h-5.685c0-2.431-.726-4.148-2.177-5.155-1.451-1.007-3.216-1.508-5.299-1.508-2.082 0-3.81.376-5.121 1.122-1.31.746-1.962 1.915-1.962 3.506 0 .913.293 1.685.877 2.316.585.631 1.566 1.2 2.95 1.701 1.378.501 3.236 1.034 5.574 1.597 2.547.61 4.688 1.33 6.421 2.176 1.733.845 3.033 1.925 3.91 3.245.877 1.32 1.315 3.01 1.315 5.065 0 1.78-.345 3.314-1.034 4.613a8.756 8.756 0 0 1-2.876 3.193c-1.226.83-2.667 1.445-4.316 1.842-1.65.396-3.435.595-5.351.595V48c-1.916 0-3.738-.21-5.455-.632-1.717-.422-3.232-1.085-4.542-1.998-1.31-.913-2.333-2.108-3.069-3.595-.736-1.481-1.107-3.276-1.107-5.383h5.649c0 2.665.825 4.538 2.474 5.628 1.65 1.086 3.711 1.633 6.191 1.633 2.223 0 4.05-.427 5.491-1.277 1.441-.856 2.156-2.26 2.156-4.227 0-1.685-.647-2.931-1.947-3.75-1.3-.82-3.586-1.613-6.859-2.385-2.668-.632-4.912-1.362-6.734-2.192-1.821-.83-3.194-1.883-4.102-3.156-.914-1.273-1.368-2.88-1.368-4.821 0-1.518.323-2.86.965-4.012.642-1.158 1.545-2.124 2.699-2.89 1.153-.768 2.521-1.352 4.087-1.738 1.566-.386 3.263-.579 5.084-.579Z"></path><path fill="currentColor" fill-rule="evenodd" d="M285.654 12.626c4.656 0 8.3 1.403 10.947 4.205 2.641 2.807 3.961 6.835 3.961 12.1 0 .35-.011.767-.037 1.247-.026.48-.057.823-.104 1.032h-24.346c.021 2.222.382 4.263 1.071 6.12.689 1.858 1.785 3.35 3.278 4.472 1.498 1.121 3.471 1.685 5.93 1.685 2.62 0 4.666-.616 6.138-1.842 1.472-1.226 2.244-3 2.318-5.311h5.789c-.068 2.41-.69 4.482-1.859 6.225-1.169 1.742-2.808 3.082-4.912 4.032-2.104.95-4.593 1.42-7.47 1.42V48c-3.716 0-6.764-.777-9.139-2.332-2.375-1.555-4.134-3.668-5.278-6.345-1.148-2.676-1.717-5.687-1.717-9.026 0-3.34.553-6.553 1.665-9.203 1.112-2.65 2.808-4.728 5.084-6.225 2.281-1.497 5.173-2.243 8.681-2.243Zm.005 4.481c-2.829 0-5.094.836-6.718 2.51-1.623 1.67-2.568 4.106-2.824 7.31h18.661c-.068-3.177-.902-5.609-2.489-7.294-1.592-1.685-3.801-2.526-6.63-2.526ZM193.871 12.621c1.754 0 3.43.162 5.032.49 1.603.329 3.038.924 4.317 1.79 1.273.866 2.286 2.076 3.033 3.631.746 1.555 1.122 3.559 1.122 6.016v22.826h-5.471l-.245-5.191a18.807 18.807 0 0 1-5.455 4.226c-2.067 1.065-4.484 1.597-7.245 1.597l.01-.006c-1.963 0-3.758-.375-5.387-1.121-1.623-.746-2.923-1.853-3.894-3.314-.97-1.46-1.457-3.266-1.457-5.416.001-3.062.962-5.39 2.877-6.975 1.916-1.591 4.631-2.671 8.138-3.245 3.508-.574 7.611-.882 12.314-.929v-2.384c0-2.921-.726-4.925-2.177-6.015-1.451-1.086-3.283-1.628-5.507-1.628-2.365 0-4.348.594-5.961 1.789-1.613 1.19-2.422 3.073-2.422 5.645h-5.684c0-2.807.599-5.071 1.805-6.803 1.206-1.727 2.866-2.99 4.98-3.789 2.114-.793 4.542-1.194 7.277-1.194Zm7.657 18.125c-6.222.068-10.68.652-13.383 1.753-2.699 1.1-4.051 2.901-4.051 5.4 0 1.706.543 3.068 1.629 4.085 1.085 1.018 2.682 1.524 4.786 1.524v.006c2.338 0 4.442-.549 6.316-1.65 1.869-1.1 3.44-2.488 4.703-4.174v-6.944ZM470.604 12.548c3.34 0 6.331.714 8.753 2.139 2.422 1.424 4.281 3.464 5.576 6.12 1.299 2.655 1.947 5.839 1.947 9.553 0 3.715-.648 6.752-1.947 9.381-1.3 2.63-3.159 4.654-5.576 6.068-2.422 1.413-5.34 2.124-8.753 2.124-3.346 0-6.207-.705-8.592-2.124-2.386-1.414-4.203-3.438-5.455-6.068-1.253-2.63-1.879-5.755-1.879-9.38 0-3.627.626-6.904 1.879-9.554 1.252-2.65 3.069-4.69 5.455-6.12 2.385-1.425 5.251-2.14 8.592-2.14Zm0 4.675c-2.527 0-4.401.569-5.841 1.7-1.441 1.133-2.474 2.693-3.106 4.68-.631 1.988-.945 4.242-.945 6.767 0 2.525.314 4.69.945 6.642.632 1.951 1.665 3.485 3.106 4.591 1.435 1.112 3.382 1.664 5.841 1.665 2.526 0 4.537-.553 6.035-1.665 1.498-1.11 2.573-2.64 3.225-4.591.653-1.952.982-4.169.982-6.642 0-2.473-.329-4.779-.982-6.767-.652-1.987-1.733-3.547-3.225-4.68-1.498-1.131-3.509-1.7-6.035-1.7Z" clip-rule="evenodd"></path><path fill="currentColor" d="M375.574 34.717c0 1.544.177 2.921.527 4.136.349 1.216 1.018 2.161 2 2.84.981.677 2.395 1.016 4.243 1.016 2.573 0 4.725-.531 6.458-1.596 1.733-1.064 3.121-2.295 4.176-3.699V13.221h5.893v34.153h-5.648l-.178-5.26c-1.101 1.357-2.646 2.662-4.646 3.909-1.999 1.252-4.51 1.877-7.527 1.877v-.005c-3.951 0-6.807-1.096-8.56-3.297-1.754-2.197-2.631-5.223-2.631-9.083V13.22h5.893v21.496ZM231.909 18.167h-.809c-1.707 0-3.206.224-4.49.668-1.284.443-2.411 1.06-3.366 1.842-.96.782-1.812 1.69-2.563 2.718v23.984h-5.857l.005-.01V13.221h5.507l.209 5.823c.96-1.774 2.292-3.26 3.999-4.45 1.707-1.195 3.931-1.79 6.666-1.79h.699v5.363ZM313.91 36.047c0 2.129.276 3.751.824 4.873.548 1.122 1.864 1.685 3.947 1.685h1.577v4.769h-1.963v-.006c-2.782 0-4.912-.438-6.384-1.314-1.472-.877-2.48-2.14-3.017-3.788-.538-1.649-.809-3.632-.809-5.943V.178h5.825v35.869ZM365.009 5.437h-23.083v15.078h20.906v5.154h-20.906v21.705h-6.317V.178h29.4v5.259ZM447.469 47.374h-5.857V13.221h5.857v34.153ZM251.562 41.614l10.21-28.398h5.961l-12.909 34.153h-6.451l-13.118-34.153h6.207l10.1 28.398ZM511.263 12.73c3.742 0 6.468 1.107 8.175 3.314 1.706 2.207 2.562 5.311 2.562 9.308v22.017h-5.856V26.191c0-1.659-.178-3.13-.528-4.418-.35-1.284-.977-2.296-1.88-3.032-.903-.735-2.202-1.106-3.909-1.106-2.547 0-4.688.579-6.421 1.737-1.733 1.158-3.121 2.426-4.176 3.804v24.193h-5.856V13.221h5.611l.209 5.26c1.055-1.378 2.563-2.683 4.526-3.909 1.962-1.226 4.479-1.841 7.543-1.841ZM149.532 25.842 164.754.178h6.733v47.19h-6.212V9.11l-13.853 23.426h-4.14L133.178 9.058v38.31h-6.066V.178h6.911l15.509 25.664ZM444.52 0c1.096 0 1.988.323 2.667.965.678.642 1.018 1.456 1.018 2.436 0 .981-.34 1.795-1.018 2.437-.679.642-1.566.966-2.667.966-1.102 0-1.984-.324-2.647-.966-.668-.642-1.002-1.456-1.002-2.437 0-.98.334-1.794 1.002-2.436.668-.642 1.55-.965 2.647-.965ZM82.528 45.736 52.273 5.608C49.668 2.155 45.696.177 41.368.177c-4.327 0-8.3 1.983-10.91 5.437L.209 45.735a1.02 1.02 0 0 0 .815 1.634h9.881c1.065 0 2.073-.501 2.715-1.352l12.758-16.92 12.757 16.92a3.397 3.397 0 0 0 2.715 1.352h9.881c.84 0 1.32-.96.815-1.633L33.188 20.06l5.966-7.915c.726-.965 1.702-1.106 2.224-1.106.522 0 1.498.146 2.224 1.106l25.53 33.866a3.397 3.397 0 0 0 2.715 1.351h9.882c.84 0 1.32-.96.814-1.633l-.016.006Z"></path></svg>