<svg xmlns="http://www.w3.org/2000/svg" viewbox="0 0 140 28" fill="currentColor" aria-hidden="true"><path d="M5.25 20.125H0v-5.25L21 0 5.25 20.125ZM15.75 7.875H21v5.25L0 28 15.75 7.875ZM36.664 20.3h-1.186C28.774 20.3 28 17.55 28 15.947v-.18h4.178c.051.737.498 1.931 3.799 1.931h.24c3.37 0 3.748-.638 3.748-1.293 0-.703-.395-1.145-3.352-1.227l-2.2-.049c-4.78-.13-6.241-1.669-6.241-3.567v-.147c0-1.817 1.135-3.715 6.963-3.715h1.186c6.051 0 7.426 2.013 7.426 3.846v.163h-4.16c-.086-.458-.344-1.456-3.696-1.456h-.275c-3.095 0-3.318.523-3.318 1.047 0 .524.344.998 2.957 1.047l2.149.033c4.813.082 6.756 1.194 6.756 3.616v.23c0 2.012-1.066 4.074-7.495 4.074ZM55.025 15.113l-2.475-4.566-2.373 4.566h4.848Zm2.682 4.974-1.203-2.225H48.75l-1.152 2.225h-4.074l6.464-12.174h5.192l6.842 12.174h-4.315ZM66.388 10.678v2.39h6.068c1.152 0 1.616-.524 1.616-1.195v-.017c0-.638-.447-1.178-1.616-1.178h-6.068Zm0 5.09v4.32h-4.006V7.912h10.315c4.263 0 5.553 1.407 5.553 3.158v.196c0 1.751-1.53 2.406-2.373 2.668 1.307.36 2.424 1.227 2.424 2.798v1.783c0 .982.12 1.293.241 1.49v.081h-4.074c-.12-.147-.19-.327-.19-.769v-1.407c0-1.49-.687-2.144-2.664-2.144h-5.226ZM88.025 7.7h.739c8.045 0 8.99 3.846 8.99 6.022v.49c0 2.144-.928 6.088-8.99 6.088h-.74c-8.097 0-9.008-3.944-9.008-6.087v-.491c0-2.176.911-6.022 9.008-6.022Zm5.535 6.365v-.229c0-1.39-.842-3.19-5.175-3.19-4.4 0-5.174 1.8-5.174 3.19v.197c0 1.39.842 3.305 5.174 3.305 4.298 0 5.175-1.865 5.175-3.273ZM98.847 7.913h4.47l8.166 7.658V7.913h3.954v12.174h-3.954l-8.682-8.067v8.067h-3.954V7.913ZM121.061 7.913v12.174h-4.006V7.913h4.006ZM131.421 20.3h-.704c-7.41 0-8.562-3.944-8.562-6.104v-.474c0-2.21.997-6.022 8.562-6.022h.704c7.41 0 8.562 3.37 8.562 4.795v.18h-4.246c-.104-.328-.619-2.03-4.677-2.03-3.833 0-4.71 1.637-4.71 3.159V14c0 1.44 1.014 3.338 4.745 3.338 4.143 0 4.556-1.882 4.659-2.16H140v.18c0 1.538-1.272 4.942-8.579 4.942Z"></path></svg>