<svg aria-hidden="true" focusable="false" width="154" height="56" viewbox="0 0 154 56" fill="none" xmlns="http://www.w3.org/2000/svg">
                                <path fill="#ffffff" d="M9.49321 39.7314C9.49321 36.2068 13.0869 33.6018 18.2822 33.6018C23.4775 33.6018 26.8297 36.2068 26.8297 39.7314H9.49321ZM33.2846 44.6943C34.52 35.1818 30.4837 28.7928 18.1212 28.7928C8.59982 28.7928 2.5232 33.2817 2.5232 42.2959C2.5232 56.7065 20.0448 57.9746 31.9405 54.1501L30.9103 49.4425C29.0712 50.0745 12.0124 53.5465 9.49321 44.6903H33.2846V44.6943Z"></path>
                <path fill="#ffffff" d="M61.732 45.6342V29.4127H68.1869V55.3291L62.4604 55.325L44.7537 38.3823L44.7577 55.3291H38.3028V29.4127H44.7577L61.732 45.6342Z"></path>
                <path fill="#ffffff" d="M102.071 35.3762C83.1732 31.0373 79.7164 35.514 79.7164 42.3445C79.7164 48.1055 84.6018 51.8044 97.6162 50.3378V44.7065H87.9943V39.7233H104.043V49.4101C104.043 51.7963 102.977 53.2305 101.335 54.1218C98.7752 55.5114 95.0488 55.9246 90.3806 55.9246C80.7426 55.9246 72.9556 51.4398 72.9556 42.3445C72.9556 34.2824 78.2676 28.7928 89.2579 28.7928C94.5618 28.7928 98.4332 29.4937 102.075 30.4984V35.3722L102.071 35.3762Z"></path>
                <path fill="#ffffff" d="M115.585 36.2999H109.114V55.3291H115.585V36.2999Z"></path>
                <path fill="#ffffff" d="M115.585 29.4086H109.114V34.1284H115.585V29.4086Z"></path>
                <path fill="#ffffff" d="M127.472 39.7314C127.472 36.2068 131.066 33.6018 136.261 33.6018C141.456 33.6018 144.809 36.2068 144.809 39.7314H127.468H127.472ZM151.264 44.6943C152.499 35.1818 148.463 28.7928 136.1 28.7928C126.579 28.7928 120.502 33.2817 120.502 42.2959C120.502 56.7065 138.024 57.9746 149.919 54.1501L148.889 49.4425C147.05 50.0745 129.991 53.5465 127.472 44.6903H151.264V44.6943Z"></path>
                <path fill="#ffffff" fill-rule="evenodd" clip-rule="evenodd" d="M154 22.4849C133.364 8.48754 106.445 0 77 0C47.5546 0 20.6364 8.48754 0 22.4849C20.5237 15.5531 44.5163 10.9224 77 10.9224C109.484 10.9224 133.476 15.5531 154 22.4849Z"></path>
            </svg>