<svg xmlns="http://www.w3.org/2000/svg" width="1546.667" height="345.333" preserveAspectRatio="xMidYMid meet" version="1.0" viewBox="0 0 1160 259"><g fill="#044c7c" stroke="none" transform="matrix(.1 0 0 -.1 0 259)"><path d="M2795 1481c-147-42-284-151-343-272-47-96-63-170-63-289 0-176 48-307 151-414 69-72 124-105 228-136 63-19 89-22 185-17 79 3 130 11 172 26 66 24 165 85 165 102 0 12-109 197-121 204-4 3-29-8-54-24-151-96-308-41-371 129-22 62-23 200-1 266 56 164 219 229 350 139l36-24 77 105c63 86 74 107 64 119-20 24-111 72-169 89-73 21-227 20-306-3zM3739 1482c-91-31-157-72-222-142-102-108-157-255-157-414 1-285 154-497 405-561 135-34 323-11 456 55 98 49 96 40 37 149-28 53-52 97-53 99-1 1-32-12-69-29-49-23-85-32-144-36-140-10-229 34-281 138-17 34-31 68-31 76 0 11 61 13 329 13h329l6 31c11 55 6 192-9 263-34 159-115 270-242 333-70 35-81 37-186 40-88 2-124-1-168-15zm238-251c47-22 78-71 89-140l7-41h-197c-221 0-213-3-177 75 50 107 172 154 278 106zM5105 1486c-62-20-119-52-179-101-31-25-58-45-60-45s-7 25-11 57c-11 88-1 83-151 83h-134V370h330v749l43 35c57 47 105 66 164 66 56 0 85-17 111-63 15-29 17-73 20-409l3-378h329v378c0 390-6 463-42 560-29 79-106 155-178 176-63 19-189 20-245 2zM416 1678C293 1288 19 412 14 392l-6-22 168 2 168 3 45 173 45 172h435l15-52c8-29 24-91 36-138s26-102 31-122l10-38h175c137 0 175 3 171 13-2 6-105 333-228 725l-223 712H461l-45-142zm384-690c0-5-67-8-149-8H501l39 148c22 82 53 209 70 283s33 141 36 149c5 11 151-536 154-572zM5937 1733c-3-21-11-83-18-138-6-55-15-104-20-110-5-5-44-11-87-15l-77-5-3-122-3-123h151v-212c0-238 10-359 35-433 37-108 111-179 220-210 106-31 376-6 374 35 0 8-10 60-22 115l-23 100-72-4c-91-4-127 10-153 60-17 35-19 60-19 294v255h260v260h-260v290h-277l-6-37zM1699 1486c-79-23-140-59-189-113-57-63-82-129-82-217 1-152 86-241 322-336 172-69 210-105 179-173-36-80-193-73-343 15l-70 41-23-29c-12-16-45-61-73-101l-50-72 32-24c104-78 257-127 398-127 203 0 343 69 409 200 61 124 48 256-35 349-55 62-107 92-242 142-184 70-216 97-188 163 31 75 168 73 289-4 26-16 51-30 55-30 10 0 142 177 142 190 0 16-100 77-175 106-59 23-89 28-190 30-79 2-136-1-166-10zM6955 2568c-3-13-4-592-3-1288 3-1257 3-1265 23-1265s20 7 20 1285c0 1205-1 1285-17 1288-11 2-19-5-23-20z"/><g fill="#dc1c2c"><path d="M9412 1882c3-399 5-440 21-465 14-22 25-27 57-27 36 0 40 3 40 24 0 18-6 25-22 28l-23 3-3 438-2 437h-71l3-438zM10140 1860v-460h60v468l41 37c76 68 147 89 214 61 66-28 69-42 75-316l5-245 28-3 28-3-3 253c-3 223-5 257-22 291-28 56-69 81-142 85-71 5-128-16-187-68l-37-32v392h-60v-460zM7490 1825v-425h60v420h450v-420h60l-2 423-3 422-27 3-28 3v-371h-450v370h-60v-425zM8365 2012c-60-28-128-109-150-179-26-79-24-190 4-265 28-72 108-149 175-168 64-18 169-8 229 21 48 24 57 38 34 57-10 9-25 6-57-10-53-26-135-34-185-18-80 26-155 129-155 213v37h443l-6 76c-7 100-45 177-105 219-37 25-54 30-115 33-54 2-82-2-112-16zm169-46c58-24 106-109 106-188v-28h-380v23c1 12 7 39 14 60 41 115 159 175 260 133zM8954 2016c-46-15-124-56-124-66 0-3 6-14 13-23 11-16 17-15 72 15 51 28 70 33 127 33 60 0 70-3 97-29 32-30 51-79 51-128 0-24-5-28-37-33-173-28-285-72-325-128-31-43-36-139-10-187 53-99 218-106 338-15 35 27 44 20 44-31 0-19 5-24 26-24h25l-3 248c-3 233-4 249-25 289-35 64-75 87-158 90-38 2-88-3-111-11zm236-379v-104l-45-32c-138-99-285-71-285 54 0 84 69 138 215 169 123 26 115 32 115-87zM9735 2105l-7-85-50-6c-43-6-49-9-46-28 2-17 11-22 50-24l47-3 3-237c3-214 5-240 23-269 28-48 75-67 148-60 67 6 82 16 72 46-5 17-10 19-31 11-33-13-80-13-105 0-43 24-49 56-49 289v220l88 3c87 3 87 3 90 31l3 27h-181v85c0 83-1 85-24 85s-25-4-31-85zM7657 1236c-139-39-204-180-135-296 31-53 57-70 238-159 153-75 180-101 180-178 0-177-253-234-414-93l-37 33-22-22-22-22 35-30c85-73 211-109 317-89 129 25 203 106 203 223 0 116-46 165-237 251-173 77-203 104-203 186 0 142 172 197 326 104 53-32 59-33 73-19 15 15 13 19-22 50-69 60-191 86-280 61zM9774 1225c-15-23-15-27 0-50 28-42 96-24 96 25s-68 67-96 25zM8300 1011c-79-24-136-78-177-166-23-52-27-73-27-150s4-99 28-151c15-34 42-76 59-92 81-79 220-99 330-49 61 28 62 29 47 57-10 18-12 18-66-7-76-34-171-31-232 10-54 35-92 101-99 172l-6 55h446l-6 65c-10 101-27 145-77 196-60 62-141 84-220 60zm155-71c40-25 72-83 81-148l7-52h-383v25c0 32 23 88 50 122 62 79 167 101 245 53zM8905 1006c-17-7-50-35-73-61l-42-48v52c0 50-1 51-30 51h-30V390h60v416l33 54c42 72 88 102 146 99 38-3 45 0 53 20 5 13 6 26 4 29-12 12-94 11-121-2zM10197 1006c-156-56-234-239-181-425 47-168 216-251 371-182 69 30 88 52 73 81-10 19-13 20-28 7-38-33-102-57-154-57-101 0-176 67-204 182-21 83-13 157 24 230 38 73 88 110 156 116 67 5 92 0 138-32l36-24 19 20c17 19 17 21-12 44-63 50-162 67-238 40zM10780 1011c-127-41-203-160-203-316 0-140 55-240 160-292 78-38 174-38 256 0 61 28 62 29 47 57-10 18-12 18-63-5-68-32-153-34-214-4-66 32-123 127-123 205v34h440v48c0 110-48 211-121 251-44 25-136 36-179 22zm155-70c39-22 74-87 82-150l6-51h-383v23c0 34 44 119 78 150 60 57 148 69 217 28zM11306 1006c-108-40-147-156-79-237 28-33 72-58 160-91 88-32 130-62 143-102 14-44 5-77-31-112-28-27-36-29-113-29-76 0-87 3-136 33-51 32-55 33-67 16-20-27-17-31 38-63 151-86 335-46 370 82 26 96-25 168-154 218-121 46-155 66-173 100-29 57 7 120 79 140 49 13 99 5 154-26l42-23 15 23c15 23 15 24-41 51-67 33-150 41-207 20zM9112 988c2-7 54-145 114-305l109-293h70l84 227c46 126 97 263 113 306l28 78-31-3-32-3-95-267c-53-148-98-268-102-268-3 0-49 120-102 268l-95 267-33 3c-24 3-31 0-28-10zM9780 695V390h70v610h-70V695z"/></g></g></svg>