<svg viewbox="0 0 696 101" xmlns="http://www.w3.org/2000/svg" xml:space="preserve" class="h-4 w-auto md:h-4 mt-1" style="fill-rule:evenodd;clip-rule:evenodd;stroke-linejoin:round;stroke-miterlimit:2"><path fill="none" d="M226.243 291.723h695.688v197.289H226.243z" transform="matrix(1.00002 0 0 .50788 -226.248 -148.161)" style="fill:currentColor;fill-opacity:0"></path><g transform="translate(-76.534 -18.131)"><clippath id="sereact-logo-dark-theme_svg__a"><path d="M76.578 85.359v-4.695c0-3.383 2.848-6.121 6.371-6.156 3.574-.039 6.492 2.738 6.492 6.156v4.695c0 9.274 5.336 16.551 15.387 16.551 4.664 0 9.055-1.531 12.488-4.574 3.559-3.293 5.266-7.277 5.266-11.957V58.633c0-7.863 3.063-14.66 8.949-20.18 5.766-5.515 13.094-8.328 21.438-8.328 16.898 0 30.367 12.672 30.367 28.508V81.57c0 3.399-2.883 6.157-6.422 6.157h-.195c-3.578 0-6.457-2.793-6.422-6.211l.195-22.883c.125-9.27-7.472-16.656-17.508-16.656-5.015 0-8.929 1.996-12.238 4.929-3.558 3.168-5.391 7.047-5.391 11.727v26.746c0 7.742-2.933 14.785-8.824 20.18-5.761 5.39-13.34 8.203-21.668 8.203-16.773 0-28.25-12.672-28.25-28.383l-.035-.02Z"></path></clippath><g clip-path="url(#sereact-logo-dark-theme_svg__a)"><path d="M76.578 30.125h106.758v83.637H76.578z" style="fill:currentColor;fill-rule:nonzero"></path></g></g><path d="M742.867 79.438c.235 8.289 3.153 15.25 8.774 20.835 5.621 5.606 12.488 8.399 20.617 8.399v9.629c-10.727 0-19.836-3.719-27.309-11.16-7.469-7.438-11.347-16.672-11.633-27.703V36.391l.09-18.239h9.621c-.05 6.868-.086 12.903-.086 18.063h25.473v8.273h-25.473c0 6.707 0 13.114-.035 19.219-.039 6.102-.039 10.816-.039 14.109v1.622ZM682.492 118.051c-11.137-1.301-20.336-6.317-27.539-15.02-6.937-8.808-9.875-18.824-8.789-30.019 1.301-11.211 6.281-20.391 14.926-27.547 8.879-6.992 18.894-9.945 30.101-8.879 11.188 1.316 20.387 6.316 27.539 15.019l-7.507 5.981c-5.461-6.656-12.489-10.465-21.063-11.426-8.594-.855-16.262 1.387-23.023 6.746-6.653 5.516-10.492 12.563-11.508 21.157-.801 8.593 1.476 16.265 6.832 23.027 5.461 6.652 12.469 10.461 21.062 11.422 12.043.91 21.719-3.469 28.997-13.133l7.843 5.465c-9.09 11.656-20.261 17.492-33.515 17.492-1.422 0-2.864-.09-4.34-.25l-.016-.035ZM632.965 77.371c0 .871-.02 1.336-.09 2.352 0 .265-.016.515-.016.781v1.832l-.054 35.965h-9.555v-14.574c-8.289 9.714-18.73 14.574-31.273 14.574-11.243 0-20.883-4.004-28.891-12.031-8.004-8.008-12.023-17.653-12.023-28.899 0-11.246 4-20.98 12.023-28.984 8.008-8.008 17.648-12.032 28.891-12.032 11.242 0 20.972 4.004 28.98 12.032 8.004 8.004 12.008 17.668 12.008 28.984Zm-41.004 31.285c8.699 0 16.098-3.062 22.199-9.164 6.102-6.105 9.164-13.488 9.164-22.121 0-8.629-3.062-16.101-9.164-22.207-6.101-6.101-13.5-9.164-22.199-9.164-8.699 0-16.031 3.063-22.168 9.164-6.137 6.106-9.195 13.508-9.195 22.207 0 8.703 3.058 16.016 9.195 22.121 6.137 6.102 13.52 9.164 22.168 9.164ZM498.297 36.375c22.058 0 38.961 17.242 39.797 40.961v5.144h-69.489c.836 15.09 14.426 27.368 30.172 27.368 11.438 0 21.563-6.637 27.024-15.43l7.629 3.809c-7.133 11.941-19.231 20.074-34.653 20.074-24.05 0-40.453-18.418-40.453-41.141 0-22.726 18.074-40.805 39.953-40.805l.02.02Zm29.672 37.813c-.496-16.086-13.27-29.364-29.352-29.364s-29.176 13.098-30.012 29.364h59.364ZM445.371 45.91c-8.644 0-15.973 3.008-21.988 8.988-6.028 5.997-9.141 13.434-9.375 22.297v41.086h-9.551V77.195c.285-11.531 4.359-21.23 12.238-29.078 7.864-7.847 17.434-11.762 28.676-11.762v9.555ZM351.691 36.375c22.059 0 38.961 17.242 39.797 40.961v5.144H322c.836 15.09 14.43 27.368 30.172 27.368 11.437 0 21.562-6.637 27.023-15.43l7.633 3.809c-7.137 11.941-19.23 20.074-34.656 20.074-24.051 0-40.453-18.418-40.453-41.141 0-22.726 18.074-40.805 39.957-40.805l.015.02Zm29.672 37.813c-.496-16.086-13.269-29.364-29.351-29.364S322.836 57.922 322 74.188h59.363ZM268.082 118.301c-11.777 0-21.562-2.992-28.695-5.801v-8.793c5.976 2.652 17.574 6.141 28.855 6.141 13.27 0 20.883-4.645 20.883-13.098 0-19.91-50.574-10.125-50.574-38.473 0-14.429 13.769-21.886 30.347-21.886 13.274 0 21.723 2.988 26.204 5.48v8.953c-5.301-3.152-14.086-6.48-24.707-6.48-9.45 0-21.883 3.152-21.883 13.773 0 20.074 50.238 9.629 50.238 37.977 0 14.765-11.937 22.222-30.668 22.222v-.015Z" transform="translate(-76.534 -18.131)" style="fill:currentColor;fill-rule:nonzero"></path></svg>