<svg xmlns="http://www.w3.org/2000/svg" viewbox="0 0 127 12" class="tw:w-[127px]"><path fill="currentColor" d="M6.022 2.293c-1.738 0-2.546.448-2.546 1.507 0 .83.707 1.256 2.086 1.256h4.396c3.521 0 5.035.851 5.035 3.264 0 2.424-1.783 3.45-5.517 3.45H.639V9.719h8.31c1.76 0 2.58-.306 2.58-1.3 0-1.026-.752-1.332-2.356-1.332H5.26C1.65 7.086 0 6.093 0 3.778 0 1.278 1.783.24 5.54.24h8.69v2.053zm14.23 2.631h9.196v2.01H20.23c.023 2.074 1.144 2.828 3.757 2.828h5.45v2.009H23.83c-1.918 0-3.387-.11-4.923-1.016-1.626-.95-2.422-2.457-2.422-4.542C16.485 2.129 18.84.24 23.92.24h5.517v2.01h-5.45c-2.4-.012-3.6.862-3.734 2.674M36.548.23l6.47 8.288L42.86.229h3.387v11.53h-3.846l-6.796-8.724.157 8.725h-3.41V.23zm18.055 2.064c-1.739 0-2.546.448-2.546 1.507 0 .83.707 1.256 2.086 1.256h4.396c3.521 0 5.035.851 5.035 3.264 0 2.424-1.783 3.45-5.517 3.45h-8.837V9.719h8.31c1.76 0 2.567-.306 2.567-1.3 0-1.026-.75-1.332-2.354-1.332h-3.914c-3.611 0-5.26-.993-5.26-3.308 0-2.5 1.783-3.538 5.54-3.538H62.8v2.053zm11.483 9.478V.229h3.476v11.53h-3.476zm14.14-9.478c1.986 0 2.95.262 2.95 1.452 0 1.169-.964 1.463-2.95 1.463h-4.07V2.293zM72.836.229v11.53h3.32V7.23h3.914l3.476 4.53h3.735l-3.937-4.815c2.041-.316 3.185-1.463 3.185-3.242 0-2.424-1.783-3.473-5.517-3.473zm16.508 11.542V.229h3.476v11.53h-3.476zm13.614-9.784c2.927 0 4.261 1.3 4.261 4.018 0 2.72-1.345 4.019-4.261 4.019-2.972 0-4.25-1.3-4.25-4.106.011-2.631 1.39-3.93 4.25-3.93m-7.872 3.898c0 4.193 2.444 6.115 7.872 6.115 5.371 0 7.872-1.933 7.872-6.005 0-4.073-2.512-5.995-7.872-5.995-5.293.01-7.872 1.922-7.872 5.885M117.3.23l6.47 8.288-.157-8.288H127v11.53h-3.846l-6.796-8.724.157 8.725h-3.409V.23z"></path></svg>