<svg width="99" height="28" viewBox="0 0 99 28" fill="none" xmlns="http://www.w3.org/2000/svg">
<g clip-path="url(#clip0_5748_15351)">
<path d="M50.5684 14.6404C50.0858 9.35851 45.8865 6.67883 41.0541 6.67883C34.8485 6.67883 30.9463 11.262 30.9463 17.6692C30.9463 24.0763 35.2564 28 41.0541 28C46.2212 28 50.1595 24.932 50.7545 19.4952H44.6227C44.3257 21.6698 43.2476 22.9511 41.0175 22.9511C38.3409 22.9511 37.2642 20.2719 37.2642 17.6692C37.2642 14.8728 37.8216 11.7289 41.3516 11.7289C42.95 11.7289 44.4376 12.9321 44.4376 14.6404H50.5684Z" fill="#999999"/>
<path d="M70.6346 22.2523V13.4366C70.6346 7.72767 66.2115 6.67883 61.6395 6.67883C59.4104 6.67883 57.2546 7.02845 55.5077 8.07728C53.7613 9.12561 52.6088 10.8344 52.4975 13.4754H58.407C58.7035 11.8053 59.7446 10.9506 61.5658 10.9506C62.8656 10.9506 64.6131 11.5331 64.6131 13.0473C64.6131 14.2908 64.0181 14.6404 62.9394 14.9125C58.555 15.8436 51.7168 15.3778 51.7168 21.9017C51.7168 26.0573 54.578 27.9995 58.2941 27.9995C60.6361 27.9995 63.0147 27.339 64.6497 25.514C64.7616 26.1735 64.7616 26.7952 65.0215 27.4175H71.3771C70.6346 25.8244 70.6346 23.9606 70.6346 22.2518V22.2523ZM60.6732 23.9224C59.2238 23.9224 58.0348 23.3012 58.0348 21.6316C58.0348 19.962 59.1872 19.4177 60.6366 19.0681C62.0118 18.6411 63.6473 18.5631 64.5378 17.9806C64.6868 22.1749 63.6839 23.9224 60.6732 23.9224Z" fill="#999999"/>
<path d="M85.0967 7.26183H81.1945V1.16504H74.876V7.26235H71.6802V11.5336H74.876V20.5042C74.876 25.9416 76.2517 27.6117 81.6415 27.6117C82.7919 27.6117 83.9448 27.4562 85.0967 27.418V22.5622C84.5399 22.5622 84.0186 22.6401 83.4607 22.6401C82.0855 22.6401 81.1945 22.291 81.1945 20.6984V11.5331H85.0967V7.26183Z" fill="#999999"/>
<path d="M29.6984 27.4165V21.8247H17.3971C19.1069 20.1159 20.0727 19.4172 22.079 18.1742C25.8709 15.6887 29.438 13.8249 29.438 8.58178C29.438 2.79638 24.8675 0 19.738 0C13.3082 0 9.14606 4.54393 9.55547 11.262H15.4645C15.4645 8.31014 16.4303 5.78539 19.7757 5.78539C21.8196 5.78539 23.1195 7.02892 23.1195 9.16481C23.1195 10.9898 21.7082 12.3108 19.738 13.67C17.6941 15.0282 15.2041 16.3879 12.9741 18.4071C10.4099 20.7377 8.96044 23.9606 8.92383 27.4165H29.6984Z" fill="#FF5F00"/>
<path d="M0.406828 9.20251H6.7253V27.417H0.406828V9.20251ZM3.56555 0C1.59638 0 0 1.59882 0 3.57101C0 5.54319 1.59638 7.14201 3.56555 7.14201C5.53472 7.14201 7.13109 5.54319 7.13109 3.57101C7.13109 1.59882 5.53523 0 3.56555 0Z" fill="#FF5F00"/>
<path d="M95.3707 6.15105C95.3707 5.44305 94.9195 5.00254 94.0816 5.00254H92.8828V7.29956H94.0816C94.9195 7.29956 95.3707 6.81877 95.3707 6.15105ZM95.6285 8.80852L97.4847 12.6413H95.2418L93.6047 9.11579H92.8828V12.6413H90.8461V3.17289H94.4678C96.2725 3.17289 97.4322 4.45514 97.4322 6.13762C97.4322 7.41988 96.7489 8.39487 95.6275 8.80852M98.9991 1.16455H88.9976V18.6658H98.9991V1.16507V1.16455Z" fill="black"/>
</g>
<defs>
<clipPath id="clip0_5748_15351">
<rect width="99" height="28" fill="white"/>
</clipPath>
</defs>
</svg>
