<svg xmlns="http://www.w3.org/2000/svg" viewbox="0 0 999.1 177.5">
  <g id="Layer_2" data-name="Layer 2">
    <g id="Layer_1-2" data-name="Layer 1">
      <g>
        <path d="M0,173.08,56.3,2.46h29l55.56,170.62v1.47H115.55L98.34,120.71h-61L20.16,174.55H0Zm93.42-67.86L83.1,72.28C75.23,47.2,69.82,28,68.59,21.64h-1C66.13,28,60.48,47,52.61,72.28L42.29,105.22Z"></path>
        <path d="M161,49.66a215.1,215.1,0,0,0,22.86-1.72v79.41c0,21.88,4.67,33.92,24.59,33.92A41.24,41.24,0,0,0,235.77,151V49.66a215.1,215.1,0,0,0,22.86-1.72v91.45c0,11.07.25,25.57,3.2,32.21l-19.67,4.67c-2.71-3.93-4.67-8.36-5.66-15.24-6.88,8.36-18.68,16.47-37.37,16.47-27.28,0-38.1-17.21-38.1-45.48Z"></path>
        <path d="M376.88,176.52A31.53,31.53,0,0,1,371.22,162c-7.62,8.36-19.66,15.25-35.89,15.25-34.66,0-49.41-27.29-49.41-65.15,0-37.62,15-65.15,49.41-65.15,16.72,0,27.54,6.14,35.16,14.26V1.72A215.28,215.28,0,0,0,393.35,0V139.64c0,11.06.25,25.57,3.2,32ZM370.49,72.28c-6.64-6.88-16.72-11.06-27.29-11.06-24.1,0-32,18.44-32,50.89,0,32.69,7.86,50.89,32,50.89a38.46,38.46,0,0,0,27.29-11.31Z"></path>
        <path d="M490,62.94H472.75V49.66h18.19V17.21a205.94,205.94,0,0,0,21.88-1.72V49.66H541.1V62.94H512.82v78.18c0,16.47,4.68,21.39,18.93,21.39,3.94,0,8.61-.74,11.07-2,.49,1.23.74,4.42.74,7.62a30.26,30.26,0,0,1-.5,5.9c-1.47,1-8.36,2.46-17.21,2.46-24.83,0-35.89-7.87-35.89-34.67Z"></path>
        <path d="M645.83,176.52A31.53,31.53,0,0,1,640.17,162c-7.62,8.36-19.66,15.25-35.89,15.25-34.67,0-49.41-27.29-49.41-65.15,0-37.62,15-65.15,49.41-65.15,16.72,0,27.53,6.14,35.16,14.26V1.72A215.28,215.28,0,0,0,662.3,0V139.64c0,11.06.24,25.57,3.2,32ZM639.44,72.28c-6.64-6.88-16.72-11.06-27.29-11.06-24.1,0-32,18.44-32,50.89,0,32.69,7.86,50.89,32,50.89a38.46,38.46,0,0,0,27.29-11.31Z"></path>
        <path d="M771.7,176.27c-2.46-3.69-3.93-7.62-5.16-13-6.64,7.62-17.46,14-34.42,14-26.31,0-40.81-15-40.81-36.63,0-27.79,21.14-39.09,50.89-39.09a89.71,89.71,0,0,1,23.11,2.7V87c0-16-3.45-27.29-23.11-27.29-17.7,0-26.31,11.31-28.52,18.69-6.88-.25-16.23-3.2-19.42-6.64,6.88-15,24.58-25.08,48.68-25.08,36.13,0,45.23,18.69,45.23,41.8v51.38c0,14.26.74,25.32,3.2,31.71Zm-6.39-61.7c-3.45-1-9.84-2-18.44-2-17.7,0-32.45,6.14-32.45,26.06,0,18.44,11.06,24.58,25.56,24.58,10.33,0,19.43-3.69,25.33-9.09Z"></path>
        <path d="M828,62.94H810.79V49.66H829V17.21a205.94,205.94,0,0,0,21.88-1.72V49.66h28.27V62.94H850.86v78.18c0,16.47,4.67,21.39,18.93,21.39,3.93,0,8.6-.74,11.06-2,.49,1.23.74,4.42.74,7.62a31.28,31.28,0,0,1-.49,5.9c-1.48,1-8.36,2.46-17.21,2.46-24.83,0-35.89-7.87-35.89-34.67Z"></path>
        <path d="M979.43,176.27c-2.46-3.69-3.93-7.62-5.16-13-6.64,7.62-17.45,14-34.42,14-26.3,0-40.81-15-40.81-36.63,0-27.79,21.14-39.09,50.89-39.09a89.65,89.65,0,0,1,23.11,2.7V87c0-16-3.44-27.29-23.11-27.29-17.7,0-26.3,11.31-28.52,18.69-6.88-.25-16.22-3.2-19.42-6.64,6.89-15,24.59-25.08,48.68-25.08,36.14,0,45.24,18.69,45.24,41.8v51.38c0,14.26.73,25.32,3.19,31.71ZM973,114.57c-3.44-1-9.83-2-18.44-2-17.7,0-32.45,6.14-32.45,26.06,0,18.44,11.06,24.58,25.57,24.58,10.32,0,19.42-3.69,25.32-9.09Z"></path>
        <path d="M451.71,94.39s-.12-9.24-3-16.79h0c-2.05-6.07-8-17.86-14.35-27.56-1.79,1.78-5.26,14-7,22.48a112,112,0,0,0-1.86,22.74v0l0,79.34,28,.14c-1.23-2.7-1.72-13.5-1.72-27.25Z"></path>
        <path d="M425.67,2.23C443,2.09,451.8.56,451.8.56V6.12a116.12,116.12,0,0,1-2,21.37c-1.7,8.37-5.13,20.51-6.9,22.26a159.13,159.13,0,0,1-14.25-27.29,58.46,58.46,0,0,1-3-20.23"></path>
      </g>
    </g>
  </g>
</svg>