<?xml version="1.0" encoding="utf-8"?>
<!-- Generator: Adobe Illustrator 25.4.1, SVG Export Plug-In . SVG Version: 6.00 Build 0)  -->
<svg version="1.1" id="Layer_1" xmlns="http://www.w3.org/2000/svg" xmlns:xlink="http://www.w3.org/1999/xlink" x="0px" y="0px"
	 viewBox="0 0 501 144" style="enable-background:new 0 0 501 144;" xml:space="preserve">
<style type="text/css">
	.st0{fill:#373A36;}
	.st1{fill:#FDB61B;}
</style>
<path class="st0" d="M440.9,28.1c-29.8,0-54.1,24.3-54.1,54.1s24.3,54.1,54.1,54.1c29.8,0,54.1-24.3,54.1-54.1
	S470.8,28.1,440.9,28.1z M440.9,112.4c-16.6,0-30.2-13.5-30.2-30.2S424.3,52,440.9,52s30.2,13.5,30.2,30.2S457.6,112.4,440.9,112.4z
	"/>
<path class="st0" d="M60.4,28.1c-29.8,0-54.1,24.3-54.1,54.1s24.3,54.1,54.1,54.1c29.8,0,54.1-24.3,54.1-54.1S90.2,28.1,60.4,28.1z
	 M60.4,112.4c-16.6,0-30.2-13.5-30.2-30.2S43.7,52,60.4,52s30.2,13.5,30.2,30.2S77,112.4,60.4,112.4z"/>
<path class="st0" d="M358.7,3l-48.6,48.6v-23h-40.8c-10.1,0-18.8,2.5-26,7.5c-7.7,5.3-11.5,13-11.5,22.8c0,7.6,2.3,14.1,6.7,19.4
	c4.3,5,9.5,8.7,15.6,11c5.5,2,11.2,3.8,16.7,5.4c5.1,1.4,9.4,3.2,12.9,5.2c3.6,2.1,3.6,3.9,3.6,4.6c0,4.1-5.1,6.1-15.2,6.1h-40v25.8
	h40c35,0,42.3-17.4,42.3-31.9c0-2.9-0.3-5.9-0.9-8.8c-0.7-3.2-2.2-6.6-4.5-9.9c-2.4-3.4-5.9-6.2-10.3-8.1c-3.9-1.7-9.6-3.8-17.6-6.4
	c-7.7-2.5-12.1-3.9-13.1-4.2c-0.6-0.2-1.7-0.6-3.8-1.7c-1.9-0.9-2.8-1.6-3.1-1.9c-0.5-0.5-1-1.2-1.5-2.1c-0.4-0.7-0.5-1.5-0.5-2.5
	c0-0.6,0-1.6,2.1-2.7c2.3-1.2,5.1-1.8,8.4-1.8h38h2.8h21.6v38.4c0,15.4,4.4,26.6,13,33.5c8.3,6.7,23.6,10,40.4,10h4.2v-25.8H385
	c-3.8,0-9.5-0.2-12-0.6c-2.3-0.4-4.9-1.1-7.6-2.3c-2.1-0.9-3.7-2.5-4.8-4.7c-1.3-2.6-1.9-6-1.9-10.1V54.4h22.8V28.6h-22.8V3z"/>
<g>
	<path class="st1" d="M144.3,83.1c0-15.2,11.3-27.8,25.9-29.9v-24c-27.8,2.2-49.8,25.5-49.8,53.9s22,51.7,49.8,53.9v-24
		C155.6,110.9,144.3,98.3,144.3,83.1z"/>
	<path class="st1" d="M228.6,83.1c0-28.4-22-51.7-49.8-53.9v24c14.6,2.1,25.9,14.7,25.9,29.9s-11.3,27.8-25.9,29.9v24
		C206.6,134.8,228.6,111.5,228.6,83.1z"/>
</g>
</svg>
