<svg width="200" height="20" viewBox="0 0 200 20" fill="none" xmlns="http://www.w3.org/2000/svg">
<g clip-path="url(#clip0_3408_6584)">
<path d="M24.1314 0C21.2934 0 18.7386 1.21044 16.9512 3.14198C15.1691 1.21044 12.6143 0 9.7762 0C4.37817 0 0 4.37817 0 9.7762C0 15.1742 4.37817 19.5524 9.7762 19.5524C12.6143 19.5524 15.1691 18.342 16.9564 16.4104C18.7437 18.342 21.2985 19.5524 24.1366 19.5524C29.5346 19.5524 33.9128 15.1742 33.9128 9.7762C33.9128 4.37817 29.5295 0 24.1314 0ZM18.0072 10.76C17.8938 11.682 17.6569 12.5473 17.2448 13.3457C17.2345 13.3663 17.2242 13.3921 17.2139 13.4178C16.9564 13.9432 16.6474 14.4325 16.2713 14.8755L16.2507 14.9012L16.0808 15.097C14.7879 16.5804 12.9851 17.4663 11.0948 17.7084C10.7085 17.7651 10.317 17.8011 9.92042 17.8011C5.99037 17.8011 2.71447 14.9579 2.02941 11.2236C2.02941 11.2081 2.02941 11.1978 2.02426 11.1824C2.00366 11.0793 1.9882 10.9763 1.9779 10.8733C1.97275 10.8218 1.96245 10.7755 1.9573 10.7239C1.947 10.657 1.94185 10.5849 1.9367 10.5179C1.9264 10.4355 1.92124 10.3479 1.91609 10.2655C1.91609 10.2243 1.91609 10.1883 1.91094 10.1471C1.90579 10.0337 1.90064 9.92042 1.90064 9.8071C1.90064 9.7968 1.90064 9.7865 1.90064 9.7762C1.90064 9.77105 1.90064 9.7659 1.90064 9.76075C1.90064 9.18901 1.96245 8.60697 2.09122 8.02493C2.10152 7.97857 2.11697 7.93222 2.12728 7.88071C2.12728 7.87041 2.12728 7.8601 2.13243 7.8498C2.14273 7.80345 2.15303 7.76224 2.16848 7.71588C2.17878 7.67468 2.19424 7.63347 2.20454 7.59226C2.21484 7.55106 2.22514 7.5047 2.24059 7.45834C2.24574 7.43774 2.25605 7.41199 2.2612 7.39138C2.2921 7.29867 2.32301 7.2008 2.35391 7.10809C2.36936 7.06688 2.38482 7.02568 2.40027 6.97932C2.41572 6.93296 2.43632 6.89176 2.45178 6.85055C2.45178 6.8351 2.46208 6.8248 2.46723 6.80934C2.46723 6.80419 2.46723 6.79904 2.47238 6.79389C2.47753 6.77844 2.48268 6.76814 2.48783 6.75268C2.51359 6.69603 2.53419 6.63937 2.55994 6.57756C2.58055 6.5312 2.60115 6.48484 2.62175 6.43849C2.62175 6.43334 2.6269 6.42818 2.63205 6.41788C2.63205 6.41273 2.6372 6.40758 2.64236 6.40243C2.67326 6.33032 2.70932 6.25821 2.74537 6.1861C2.76597 6.14489 2.78658 6.10884 2.80203 6.06763C2.81233 6.04703 2.82263 6.02642 2.83809 6.00582C2.87414 5.93886 2.9102 5.8719 2.94625 5.80494C2.95655 5.78434 2.97201 5.75858 2.98231 5.73798C2.98231 5.73798 2.98231 5.73283 2.98231 5.72768C2.99776 5.70192 3.01321 5.67617 3.02866 5.64526C3.11108 5.50619 3.19349 5.37227 3.28105 5.23835C5.75343 1.58644 10.7548 0.623245 14.4171 3.10077C14.7158 3.30166 15.0043 3.52829 15.2772 3.77553L13.7784 5.99552C13.5208 5.73283 13.2375 5.49589 12.9388 5.28986C12.9182 5.27441 12.8924 5.26411 12.8718 5.24865C12.6349 5.09928 12.3876 4.96536 12.1301 4.84689V4.85719C11.7902 4.70782 11.4451 4.58935 11.0897 4.51209C11.0639 4.50694 11.0381 4.50179 11.0124 4.49664V4.50694C10.6518 4.43483 10.2861 4.39362 9.92042 4.39362C7.42744 4.39362 5.32592 6.09853 4.71812 8.40609C4.64601 8.68423 4.59966 8.96752 4.5739 9.25082C4.5739 9.25597 4.5739 9.26112 4.5739 9.26627C4.40908 11.1515 5.2435 13.0676 6.91751 14.2059C7.84465 14.8343 8.93147 15.133 10.0131 15.1382C10.1471 15.1382 10.281 15.1279 10.4149 15.1176C10.4303 15.1176 10.4407 15.1176 10.451 15.1176C10.5488 15.1073 10.6518 15.097 10.7497 15.0815C10.8424 15.0661 10.9351 15.0506 11.0227 15.0352C11.033 15.0352 11.0484 15.0352 11.0587 15.03C11.3266 14.9733 11.5893 14.8961 11.8417 14.8034C13.6496 14.1183 15.0712 12.5216 15.3803 10.6106L15.4163 10.3994L18.0535 10.5025L18.0226 10.76H18.0072ZM31.7804 11.5172C31.7701 11.5635 31.7546 11.6099 31.7443 11.6614C31.7443 11.6717 31.7443 11.682 31.7392 11.6871C31.7289 11.7335 31.7186 11.7747 31.7031 11.8211C31.6928 11.8623 31.6774 11.9035 31.6671 11.9498C31.6568 11.9962 31.6465 12.0374 31.631 12.0838C31.6258 12.1044 31.6155 12.1301 31.6104 12.1507C31.5795 12.2434 31.5486 12.3413 31.5177 12.434C31.5022 12.4752 31.4868 12.5164 31.4713 12.5628C31.4559 12.604 31.4404 12.6452 31.425 12.6915C31.425 12.707 31.4147 12.7173 31.4095 12.7328C31.4095 12.7379 31.4095 12.7431 31.4044 12.7482C31.3992 12.7637 31.3941 12.7791 31.3889 12.7894C31.3632 12.8461 31.3426 12.9027 31.3168 12.9645C31.2962 13.0109 31.2756 13.0521 31.255 13.0985C31.255 13.1036 31.2498 13.1139 31.2447 13.1191C31.2447 13.1242 31.2395 13.1345 31.2344 13.1397C31.2035 13.2118 31.1674 13.2839 31.1314 13.356C31.1108 13.3921 31.0953 13.4281 31.0747 13.4693C31.0644 13.4899 31.0541 13.5054 31.0438 13.526C31.0078 13.5981 30.9665 13.6702 30.9253 13.7423C30.915 13.7629 30.8996 13.7887 30.8893 13.8093C30.8893 13.8093 30.8893 13.8093 30.8893 13.8144C30.8738 13.8402 30.8584 13.8659 30.8429 13.8917C30.7605 14.0307 30.6781 14.1698 30.5854 14.3037C28.1027 17.966 23.1064 18.9291 19.4442 16.4465C19.1455 16.2456 18.857 16.019 18.584 15.7717L20.0881 13.5517C20.3456 13.8144 20.6289 14.0514 20.9277 14.2574C20.9483 14.2728 20.974 14.2831 20.9946 14.2986C21.2316 14.448 21.4788 14.5819 21.7363 14.6952V14.6849C22.0763 14.8343 22.4214 14.9527 22.7768 15.03C22.8025 15.0352 22.8283 15.0403 22.8541 15.0455V15.0352C23.2146 15.1073 23.5803 15.1485 23.946 15.1485C26.439 15.1485 28.5405 13.4436 29.1483 11.1412C29.2204 10.863 29.2668 10.5797 29.2925 10.2964C29.2925 10.2964 29.2925 10.2861 29.2925 10.281C29.4574 8.39579 28.6281 6.47454 26.9541 5.34137C26.0269 4.71297 24.9401 4.40908 23.8585 4.40908C23.7245 4.40908 23.5906 4.41938 23.4567 4.42968C23.4412 4.42968 23.4309 4.42968 23.4155 4.42968C23.3176 4.43998 23.2198 4.45028 23.1219 4.46573C23.0292 4.48119 22.9416 4.49664 22.8489 4.51209C22.8386 4.51209 22.8231 4.51209 22.8128 4.51724C22.545 4.5739 22.2823 4.65116 22.0248 4.74388C20.2168 5.42893 18.7952 7.02568 18.4913 8.93662L18.4553 9.1478L15.8181 9.04479L15.849 8.78725C15.9623 7.8601 16.1992 6.99992 16.6164 6.1964C16.6267 6.1758 16.6371 6.15519 16.6474 6.13459V6.12944C16.9049 5.60406 17.2139 5.11473 17.5951 4.67177L17.6157 4.64601L17.7857 4.45028C19.0785 2.96685 20.8813 2.08607 22.7716 1.83883C23.1579 1.78217 23.5494 1.74612 23.946 1.74612C27.8761 1.74612 31.1571 4.58935 31.837 8.32883C31.837 8.34428 31.837 8.35458 31.8422 8.37003C31.8576 8.47305 31.8782 8.57091 31.8885 8.67393C31.8937 8.72544 31.904 8.77179 31.9091 8.8233C31.9194 8.89026 31.9246 8.96237 31.9297 9.02933C31.94 9.11175 31.9452 9.19931 31.9503 9.28172C31.9503 9.32293 31.9503 9.35898 31.9555 9.40019C31.9607 9.51351 31.9658 9.62682 31.9658 9.74014C31.9658 9.75044 31.9658 9.76074 31.9658 9.77105C31.9658 9.7762 31.9658 9.78135 31.9658 9.7865C31.9658 10.3634 31.904 10.9454 31.7752 11.5275L31.7804 11.5172Z" fill="white"/>
<path d="M46.8979 18.0434C45.775 18.0434 44.7345 17.8374 43.792 17.4202C42.8442 17.0081 42.0252 16.4415 41.3247 15.7204C40.6294 15.0044 40.0834 14.1546 39.6919 13.1759C39.3005 12.1973 39.1047 11.1568 39.1047 10.0442V9.99788C39.1047 8.90076 39.3005 7.86545 39.6919 6.89195C40.0834 5.9133 40.6294 5.05827 41.3247 4.32686C42.0201 3.59545 42.8494 3.01856 43.8126 2.59619C44.7758 2.17383 45.8265 1.96265 46.9648 1.96265C47.6757 1.96265 48.3143 2.02446 48.8861 2.13777C49.4578 2.25624 49.9832 2.42107 50.4725 2.6374C50.9619 2.85373 51.41 3.11127 51.8272 3.41517C52.2393 3.71907 52.641 4.05387 53.0273 4.42472L51.8272 5.71242C51.1627 5.08918 50.4468 4.57925 49.6845 4.18264C48.9221 3.78087 48.0105 3.58515 46.9442 3.58515C46.0841 3.58515 45.2908 3.74997 44.5594 4.07447C43.828 4.39897 43.1893 4.85224 42.6485 5.42913C42.1076 6.00602 41.6853 6.68592 41.3814 7.45854C41.0775 8.23631 40.9281 9.07074 40.9281 9.95667V10.003C40.9281 10.9044 41.0775 11.744 41.3814 12.5218C41.6853 13.2995 42.1076 13.9743 42.6485 14.5512C43.1893 15.1281 43.8229 15.5813 44.5594 15.9161C45.2908 16.2509 46.0892 16.4158 46.9442 16.4158C48.0105 16.4158 48.9273 16.22 49.6999 15.8286C50.4674 15.4371 51.2245 14.886 51.9663 14.1752L53.12 15.3083C52.7183 15.7204 52.3011 16.0964 51.8632 16.4312C51.4254 16.766 50.9619 17.0493 50.4622 17.2862C49.9678 17.5232 49.4269 17.7086 48.8397 17.8425C48.2525 17.9764 47.6087 18.0434 46.8979 18.0434Z" fill="white"/>
<path d="M56.0457 14.3605C56.2826 14.8344 56.5865 15.2361 56.9574 15.5606C57.3283 15.8851 57.7403 16.1324 58.1987 16.3023C58.6572 16.4723 59.1362 16.5599 59.641 16.5599C60.4393 16.5599 61.1244 16.4105 61.6961 16.1169C62.2679 15.8233 62.7881 15.4267 63.262 14.9374L64.3282 15.8903C63.7513 16.5444 63.092 17.0647 62.3503 17.4561C61.6086 17.8476 60.6917 18.0433 59.5946 18.0433C58.8117 18.0433 58.07 17.8991 57.3746 17.6106C56.6793 17.3222 56.0715 16.9153 55.5564 16.3899C55.0362 15.8645 54.6292 15.231 54.3253 14.4893C54.0214 13.7475 53.8721 12.9337 53.8721 12.0478C53.8721 11.2185 54.0111 10.4407 54.2841 9.70418C54.5571 8.97277 54.9383 8.33407 55.4276 7.79324C55.9169 7.2524 56.499 6.82489 57.1686 6.51584C57.8433 6.20679 58.5799 6.04712 59.3783 6.04712C60.223 6.04712 60.975 6.20679 61.6446 6.52614C62.3091 6.84549 62.8757 7.27816 63.3341 7.82414C63.7925 8.37012 64.1427 9.01397 64.3797 9.75569C64.6166 10.4974 64.7351 11.2855 64.7351 12.1302V12.398C64.7351 12.4856 64.7299 12.5989 64.7145 12.7328H55.613C55.6697 13.3406 55.8191 13.8815 56.056 14.3553L56.0457 14.3605ZM62.9735 11.3627C62.9272 10.8477 62.819 10.3532 62.6387 9.88446C62.4584 9.42089 62.2215 9.00882 61.9176 8.65342C61.6137 8.29801 61.2429 8.01472 60.805 7.80869C60.3672 7.60266 59.8676 7.49964 59.3062 7.49964C58.8168 7.49964 58.3584 7.59751 57.9309 7.78809C57.5034 7.97867 57.1222 8.25166 56.7977 8.59676C56.4732 8.94186 56.2002 9.35393 55.989 9.8175C55.7727 10.2811 55.6388 10.7961 55.577 11.3627H62.9684H62.9735Z" fill="white"/>
<path d="M66.5945 6.29946H68.3046V8.29797C68.6909 7.67472 69.1905 7.14934 69.8137 6.71152C70.437 6.27371 71.2405 6.05737 72.2346 6.05737C72.93 6.05737 73.5481 6.17069 74.0889 6.39217C74.6297 6.61366 75.0882 6.92786 75.4642 7.33477C75.8402 7.74168 76.1286 8.22585 76.3295 8.78729C76.5304 9.34873 76.6282 9.97197 76.6282 10.6519V17.7806H74.9182V11.0588C74.9182 9.99258 74.6452 9.1427 74.0941 8.5246C73.5481 7.90135 72.76 7.58716 71.7401 7.58716C71.2508 7.58716 70.7976 7.67472 70.3752 7.8447C69.9528 8.01467 69.5871 8.26191 69.2781 8.58126C68.969 8.90061 68.7269 9.28177 68.557 9.72473C68.387 10.1677 68.2994 10.6622 68.2994 11.1927V17.7806H66.5894V6.29946H66.5945Z" fill="white"/>
<path d="M82.9998 17.9763C82.5414 17.9763 82.1138 17.9145 81.7121 17.8012C81.3103 17.6827 80.9704 17.4973 80.6819 17.2346C80.3935 16.9771 80.1668 16.6423 80.0072 16.2251C79.8423 15.813 79.7651 15.3185 79.7651 14.7416V7.82927H78.1683V6.29949H79.7651V2.83301H81.4751V6.29949H85.1168V7.82927H81.4751V14.5356C81.4751 15.2464 81.6503 15.7409 82.0057 16.0242C82.3611 16.3075 82.8246 16.4465 83.4067 16.4465C83.7003 16.4465 83.9784 16.4156 84.2411 16.3538C84.4987 16.292 84.7768 16.1839 85.0755 16.0242V17.487C84.7768 17.6518 84.4626 17.7703 84.133 17.8527C83.7981 17.9351 83.4273 17.9763 83.0101 17.9763H82.9998Z" fill="white"/>
<path d="M87.0225 6.29954H88.7326V9.2973C88.9386 8.82343 89.2013 8.38561 89.5104 7.989C89.8194 7.58724 90.1748 7.24728 90.5766 6.95884C90.9784 6.6704 91.411 6.44891 91.8849 6.29439C92.3588 6.13986 92.8687 6.07806 93.4147 6.10381V7.94779H93.2808C92.6575 7.94779 92.0703 8.06111 91.514 8.28259C90.9577 8.50408 90.4736 8.83888 90.0615 9.28185C89.6443 9.72481 89.3198 10.2759 89.0829 10.9249C88.8459 11.5791 88.7275 12.3363 88.7275 13.2119V17.7858H87.0174V6.29954H87.0225Z" fill="white"/>
<path d="M94.9496 1.90088H96.9017V3.78607H94.9496V1.90088ZM95.0629 6.29965H96.773V17.7808H95.0629V6.29965Z" fill="white"/>
<path d="M104.808 18.0433C103.963 18.0433 103.186 17.8836 102.465 17.5643C101.749 17.2449 101.125 16.8174 100.6 16.2766C100.075 15.7358 99.6626 15.1022 99.369 14.3759C99.0754 13.6497 98.926 12.8874 98.926 12.089V12.0426C98.926 11.2288 99.0754 10.4613 99.369 9.73508C99.6626 9.00882 100.075 8.37528 100.6 7.82414C101.125 7.27816 101.749 6.84549 102.465 6.52614C103.181 6.20679 103.963 6.04712 104.808 6.04712C105.354 6.04712 105.854 6.09863 106.297 6.20679C106.74 6.30981 107.147 6.45918 107.518 6.64461C107.888 6.83519 108.228 7.05152 108.537 7.30906C108.846 7.56145 109.135 7.82929 109.403 8.11259L108.27 9.31272C107.811 8.83885 107.312 8.43193 106.771 8.09198C106.23 7.75203 105.565 7.58205 104.782 7.58205C104.206 7.58205 103.665 7.69537 103.16 7.92716C102.655 8.15379 102.217 8.46799 101.852 8.86975C101.481 9.27151 101.192 9.74024 100.986 10.2759C100.78 10.8168 100.677 11.3936 100.677 12.0117V12.0581C100.677 12.6762 100.785 13.2582 101.002 13.7991C101.218 14.3399 101.512 14.8086 101.888 15.2155C102.264 15.6224 102.712 15.9366 103.232 16.1684C103.747 16.3951 104.303 16.5135 104.896 16.5135C105.638 16.5135 106.292 16.3487 106.863 16.0242C107.435 15.6997 107.945 15.2928 108.409 14.8035L109.495 15.8233C108.919 16.4775 108.264 17.008 107.528 17.4201C106.796 17.8321 105.89 18.0433 104.808 18.0433Z" fill="white"/>
<path d="M116.794 18.0022C115.579 18.0022 114.466 17.791 113.451 17.3687C112.437 16.9463 111.484 16.3282 110.598 15.5144L111.108 14.9581C111.937 15.741 112.813 16.3334 113.74 16.7248C114.667 17.1163 115.697 17.312 116.835 17.312C117.5 17.312 118.108 17.2296 118.654 17.0545C119.2 16.8845 119.673 16.6424 120.065 16.3334C120.456 16.0243 120.755 15.6586 120.966 15.2465C121.172 14.8345 121.275 14.3812 121.275 13.8919V13.8455C121.275 13.3871 121.203 12.9802 121.054 12.6248C120.904 12.2694 120.652 11.95 120.286 11.6719C119.926 11.3886 119.431 11.1362 118.808 10.9044C118.185 10.6726 117.407 10.4666 116.475 10.2709C115.527 10.0803 114.718 9.85881 114.044 9.60642C113.369 9.35403 112.823 9.06044 112.4 8.73079C111.978 8.39599 111.669 8.01483 111.478 7.57701C111.288 7.1392 111.19 6.63957 111.19 6.07813V6.03178C111.19 5.47034 111.314 4.95011 111.566 4.46594C111.818 3.98691 112.164 3.5594 112.612 3.18854C113.055 2.81768 113.59 2.52924 114.208 2.32321C114.832 2.11718 115.501 2.01416 116.228 2.01416C117.294 2.01416 118.257 2.17383 119.112 2.49318C119.972 2.81253 120.771 3.26065 121.512 3.83754L121.049 4.43503C119.596 3.28125 117.979 2.70437 116.186 2.70437C115.548 2.70437 114.971 2.79193 114.445 2.97221C113.92 3.14733 113.472 3.38427 113.101 3.68302C112.73 3.98176 112.447 4.32686 112.246 4.72863C112.045 5.13039 111.947 5.54245 111.947 5.96997V6.01632C111.947 6.45929 112.019 6.86105 112.169 7.21646C112.318 7.57186 112.576 7.89121 112.946 8.18481C113.317 8.47325 113.807 8.73079 114.425 8.96257C115.038 9.19436 115.821 9.40554 116.768 9.59612C117.732 9.7867 118.551 10.0133 119.22 10.2709C119.895 10.5284 120.436 10.8272 120.853 11.1723C121.265 11.5122 121.569 11.8985 121.754 12.326C121.94 12.7536 122.032 13.2429 122.032 13.7889V13.8352C122.032 14.4276 121.909 14.9787 121.656 15.4886C121.404 15.9986 121.054 16.4415 120.601 16.8227C120.147 17.1987 119.601 17.4923 118.957 17.6983C118.314 17.9043 117.592 18.0074 116.794 18.0074V18.0022Z" fill="white"/>
<path d="M129.475 18.0433C128.615 18.0433 127.832 17.8888 127.121 17.5746C126.411 17.2655 125.798 16.8432 125.288 16.3075C124.778 15.7769 124.381 15.1588 124.098 14.4532C123.815 13.7475 123.676 13.0058 123.676 12.2229V12.1765C123.676 11.3936 123.815 10.6416 124.098 9.93595C124.381 9.22514 124.773 8.60189 125.288 8.07136C125.798 7.54083 126.411 7.11331 127.132 6.79396C127.848 6.47462 128.636 6.31494 129.496 6.31494C130.356 6.31494 131.134 6.46946 131.84 6.78366C132.54 7.09271 133.148 7.51508 133.658 8.05076C134.168 8.58129 134.564 9.20453 134.848 9.90504C135.131 10.6107 135.27 11.3524 135.27 12.1353V12.1817C135.27 12.9646 135.131 13.7115 134.848 14.4223C134.564 15.1331 134.173 15.7563 133.658 16.2869C133.148 16.8226 132.535 17.2449 131.824 17.5643C131.113 17.8836 130.33 18.0433 129.47 18.0433H129.475ZM129.486 17.3531C130.227 17.3531 130.907 17.214 131.52 16.9462C132.138 16.6732 132.669 16.3023 133.112 15.8284C133.555 15.3546 133.9 14.8137 134.147 14.1905C134.389 13.5724 134.513 12.908 134.513 12.2023V12.1559C134.513 11.4503 134.384 10.7858 134.132 10.1677C133.879 9.54964 133.529 9.00365 133.076 8.52978C132.622 8.05591 132.087 7.68505 131.464 7.41206C130.84 7.13907 130.166 7.00515 129.439 7.00515C128.713 7.00515 128.018 7.13907 127.405 7.41206C126.787 7.68505 126.261 8.05591 125.823 8.52978C125.386 9.00365 125.046 9.54964 124.798 10.1677C124.551 10.7858 124.433 11.4503 124.433 12.1559V12.2023C124.433 12.908 124.556 13.5724 124.809 14.1905C125.061 14.8086 125.411 15.3546 125.865 15.8284C126.318 16.3023 126.854 16.6732 127.467 16.9462C128.079 17.2192 128.754 17.3531 129.48 17.3531H129.486Z" fill="white"/>
<path d="M138.221 7.23183H136.511V6.58798H138.221V5.18696C138.221 3.88381 138.541 2.93092 139.174 2.32313C139.72 1.77714 140.457 1.50415 141.374 1.50415C141.714 1.50415 142.012 1.5299 142.26 1.58141C142.512 1.63292 142.754 1.70503 142.991 1.79259V2.4828C142.502 2.29222 141.961 2.19436 141.368 2.19436C140.586 2.19436 139.983 2.43644 139.561 2.92577C139.138 3.41509 138.927 4.19286 138.927 5.25908V6.59313H142.945V7.23698H138.927V17.7858H138.216V7.23183H138.221Z" fill="white"/>
<path d="M147.503 17.9764C146.602 17.9764 145.881 17.7188 145.34 17.2089C144.799 16.699 144.531 15.9315 144.531 14.9116V7.22665H142.821V6.58281H144.531V2.82788H145.242V6.58281H149.306V7.22665H145.242V14.8241C145.242 15.6533 145.443 16.2663 145.855 16.6732C146.262 17.0801 146.834 17.281 147.575 17.281C148.121 17.281 148.683 17.1574 149.265 16.905V17.5952C148.744 17.8476 148.162 17.9712 147.508 17.9712L147.503 17.9764Z" fill="white"/>
<path d="M150.233 6.58796H151.031L154.539 16.8483L158.067 6.521H158.644L162.173 16.8483L165.701 6.58796H166.432L162.456 17.8682H161.858L158.351 7.65417L154.822 17.8682H154.225L150.228 6.58796H150.233Z" fill="white"/>
<path d="M171.351 18.0433C170.821 18.0433 170.295 17.9712 169.785 17.8322C169.276 17.6931 168.817 17.4768 168.42 17.1883C168.019 16.8999 167.705 16.5393 167.468 16.1067C167.231 15.674 167.112 15.1795 167.112 14.6129V14.5666C167.112 13.9897 167.236 13.4746 167.488 13.0213C167.741 12.5681 168.086 12.1921 168.518 11.883C168.956 11.5791 169.476 11.3473 170.084 11.1928C170.692 11.0383 171.351 10.961 172.062 10.961C172.845 10.961 173.571 11.0228 174.241 11.1464C174.905 11.2701 175.513 11.4194 176.059 11.6049V10.8528C176.059 9.58575 175.709 8.64316 175.003 8.02506C174.298 7.40697 173.319 7.09792 172.062 7.09792C171.367 7.09792 170.728 7.18548 170.141 7.35546C169.554 7.52544 168.982 7.75207 168.42 8.03021L168.153 7.40697C168.776 7.10822 169.399 6.86614 170.028 6.68071C170.656 6.49528 171.346 6.40771 172.103 6.40771C173.659 6.40771 174.844 6.81463 175.657 7.62845C176.013 7.99931 176.286 8.44743 176.476 8.97281C176.667 9.49819 176.765 10.1111 176.765 10.8065V17.7807H176.054V15.4473C175.905 15.7564 175.699 16.0654 175.431 16.3693C175.163 16.6732 174.833 16.9514 174.442 17.2038C174.05 17.4562 173.597 17.657 173.087 17.8167C172.577 17.9712 171.995 18.0485 171.346 18.0485L171.351 18.0433ZM171.398 17.3531C172.078 17.3531 172.706 17.2553 173.273 17.0544C173.844 16.8535 174.334 16.5857 174.751 16.2457C175.163 15.9058 175.493 15.5143 175.729 15.061C175.966 14.6129 176.085 14.1339 176.085 13.6343V12.2642C175.539 12.089 174.936 11.9397 174.287 11.8212C173.633 11.7027 172.886 11.6461 172.047 11.6461C171.423 11.6461 170.857 11.7079 170.347 11.8366C169.837 11.9603 169.399 12.1457 169.039 12.3878C168.678 12.6299 168.39 12.9338 168.184 13.2943C167.978 13.6549 167.875 14.0669 167.875 14.5202V14.5666C167.875 15.025 167.972 15.4267 168.163 15.7718C168.354 16.117 168.616 16.4105 168.941 16.6475C169.265 16.8844 169.646 17.0595 170.074 17.178C170.501 17.2965 170.95 17.3531 171.408 17.3531H171.398Z" fill="white"/>
<path d="M179.567 6.58786H180.278V10.008C180.442 9.53411 180.669 9.07569 180.968 8.63273C181.261 8.18976 181.612 7.7983 182.013 7.45835C182.415 7.11839 182.868 6.8454 183.378 6.64967C183.888 6.44879 184.439 6.35608 185.032 6.37153V7.10294H184.918C184.239 7.10294 183.615 7.25746 183.054 7.55621C182.492 7.86011 182.003 8.25672 181.586 8.75634C181.174 9.25082 180.849 9.82256 180.618 10.4664C180.386 11.1103 180.272 11.7799 180.272 12.4752V17.7805H179.562V6.58786H179.567Z" fill="white"/>
<path d="M190.703 18.0433C189.946 18.0433 189.23 17.9042 188.555 17.6312C187.88 17.3582 187.288 16.9668 186.788 16.4517C186.283 15.9418 185.882 15.3237 185.588 14.5974C185.289 13.8711 185.145 13.0625 185.145 12.1765V12.1302C185.145 11.3009 185.279 10.5334 185.547 9.83293C185.815 9.12727 186.186 8.51433 186.67 7.98895C187.149 7.46357 187.715 7.0515 188.369 6.75791C189.018 6.46431 189.729 6.31494 190.502 6.31494C191.347 6.31494 192.083 6.47977 192.722 6.81457C193.361 7.14937 193.896 7.58719 194.329 8.13317C194.767 8.67915 195.091 9.30755 195.308 10.0081C195.524 10.7137 195.632 11.44 195.632 12.1971V12.4392H185.907C185.938 13.1912 186.088 13.8711 186.366 14.4841C186.639 15.097 186.994 15.6121 187.427 16.0293C187.86 16.4517 188.359 16.7762 188.931 17.0028C189.503 17.2295 190.1 17.3479 190.729 17.3479C191.604 17.3479 192.387 17.1471 193.072 16.7504C193.757 16.3487 194.324 15.8645 194.767 15.2825L195.297 15.7048C194.777 16.3693 194.144 16.9256 193.386 17.3685C192.629 17.8115 191.738 18.033 190.718 18.033L190.703 18.0433ZM194.865 11.8057C194.834 11.203 194.72 10.6107 194.52 10.039C194.319 9.46207 194.035 8.95215 193.67 8.50403C193.304 8.05591 192.851 7.69535 192.31 7.42236C191.769 7.14937 191.146 7.01545 190.445 7.01545C189.807 7.01545 189.219 7.13907 188.684 7.38115C188.148 7.62324 187.679 7.95804 187.277 8.38556C186.876 8.81307 186.551 9.31785 186.309 9.89989C186.062 10.4819 185.928 11.1206 185.897 11.8108H194.87L194.865 11.8057Z" fill="white"/>
<path d="M197.548 6.32013C197.548 6.10379 197.605 5.89776 197.713 5.70718C197.821 5.5166 197.971 5.36723 198.161 5.25906C198.352 5.1509 198.558 5.09424 198.774 5.09424C198.99 5.09424 199.196 5.1509 199.387 5.25906C199.578 5.36723 199.727 5.5166 199.835 5.70718C199.943 5.89776 200 6.10379 200 6.32013C200 6.53646 199.948 6.73734 199.84 6.92277C199.732 7.1082 199.588 7.26272 199.397 7.37604C199.207 7.48935 199.001 7.54601 198.774 7.54601C198.547 7.54601 198.341 7.48935 198.151 7.37604C197.96 7.26272 197.811 7.11335 197.708 6.92792C197.605 6.74249 197.548 6.53646 197.548 6.32528V6.32013ZM197.718 6.32013C197.718 6.50555 197.765 6.68583 197.862 6.84551C197.96 7.00518 198.084 7.1391 198.249 7.23182C198.414 7.32453 198.589 7.37089 198.774 7.37089C198.96 7.37089 199.14 7.32453 199.299 7.22666C199.459 7.1288 199.588 7.00518 199.686 6.84551C199.784 6.68583 199.83 6.50555 199.83 6.31498C199.83 6.1244 199.784 5.94927 199.686 5.78959C199.588 5.62992 199.464 5.50115 199.305 5.40329C199.145 5.30542 198.965 5.25906 198.774 5.25906C198.584 5.25906 198.408 5.30542 198.249 5.40329C198.089 5.50115 197.96 5.62477 197.862 5.78444C197.765 5.94412 197.718 6.1244 197.718 6.31498V6.32013ZM199.269 6.02138C199.269 6.10894 199.248 6.18621 199.202 6.25317C199.155 6.32013 199.088 6.37163 199.006 6.40254L199.392 7.04639H199.119L198.784 6.4695H198.563V7.04639H198.321V5.59386H198.748C198.929 5.59386 199.063 5.62992 199.145 5.70203C199.227 5.77414 199.274 5.88231 199.274 6.02653L199.269 6.02138ZM198.563 6.26862H198.738C198.826 6.26862 198.893 6.24801 198.949 6.20166C199.006 6.1553 199.026 6.09864 199.026 6.03168C199.026 5.94927 199.001 5.89261 198.954 5.85655C198.908 5.8205 198.836 5.80505 198.733 5.80505H198.558V6.27377L198.563 6.26862Z" fill="white"/>
</g>
<defs>
<clipPath id="clip0_3408_6584">
<rect width="200" height="19.5472" fill="white"/>
</clipPath>
</defs>
</svg>
