<svg viewbox="0 0 213 44" fill="none" xmlns="http://www.w3.org/2000/svg">
						<g clip-path="url(#clip0_5959_2768)">
							<path class="logo-text" d="M64.1125 28.4271V16.7251H61.3675C60.7914 16.7251 60.4816 16.414 60.4816 15.8354V13.7449C60.4816 13.1664 60.7914 12.8552 61.3675 12.8552C64.9984 12.8115 65.3083 12.4566 65.3567 7.38104C65.3567 6.75875 65.6665 6.44761 66.2426 6.44761H67.3949C67.971 6.44761 68.2808 6.75875 68.2808 7.33729V12.8552H78.4716C79.0477 12.8552 79.3576 13.1664 79.3576 13.7449V15.8354C79.3576 16.414 79.0477 16.7251 78.4716 16.7251H68.2808V28.782C68.2808 32.788 69.5202 33.9888 73.9547 33.9888H78.4716C79.0477 33.9888 79.3576 34.3 79.3576 34.8785V36.969C79.3576 37.5475 79.0477 37.8587 78.4716 37.8587H73.9547C65.9328 37.8587 64.1173 34.6549 64.1173 28.4271H64.1125Z" fill="black"></path>
							<path class="logo-text" d="M81.6427 30.9649C81.6427 26.1129 83.5502 24.0662 89.5727 23.4002L100.562 22.1993C101.627 22.0681 101.981 21.4895 101.981 20.42C101.981 17.571 101.138 16.8175 97.4155 16.8175H84.5184C83.9423 16.8175 83.6324 16.5063 83.6324 15.9278V13.7449C83.6324 13.1664 83.9423 12.8553 84.5184 12.8553H97.5026C103.883 12.8553 106.144 15.1256 106.144 20.1963V36.969C106.144 37.5475 105.834 37.8587 105.258 37.8587H102.867C102.291 37.8587 101.981 37.5475 101.981 36.969V34.0326C100.829 36.6578 99.1438 37.8587 94.2687 37.8587H90.9476C85.0074 37.8587 81.6427 35.7244 81.6427 30.96V30.9649ZM95.9534 33.9888C100.562 33.9888 101.981 32.3845 101.981 28.2035V25.758L90.2407 27.0026C86.697 27.3575 85.8546 28.2035 85.8546 30.6051C85.8546 32.7831 87.4038 33.9888 90.9524 33.9888H95.9582H95.9534Z" fill="black"></path>
							<path class="logo-text" d="M109.62 27.9798V22.598C109.62 16.1466 111.392 12.8553 118.794 12.8553H126.148C132.839 12.8553 135.143 15.393 135.322 21.8882C135.322 22.5105 135.012 22.8216 134.436 22.8216H132.045C131.469 22.8216 131.159 22.5105 131.159 21.8882C131.028 17.7072 130.094 16.8175 126.061 16.8175H118.881C114.762 16.8175 113.784 17.7947 113.784 22.2917V28.3444C113.784 32.929 114.757 33.9062 118.881 33.9062H126.061C130.181 33.9062 131.067 32.929 131.159 28.7431C131.159 28.1208 131.469 27.8097 132.045 27.8097H134.436C135.012 27.8097 135.322 28.1208 135.322 28.7431C135.1 35.4619 132.752 37.8635 126.148 37.8635H118.794C111.397 37.8635 109.62 34.616 109.62 27.9847V27.9798Z" fill="black"></path>
							<path class="logo-text" d="M141.156 28.4271V16.7251H138.411C137.835 16.7251 137.525 16.414 137.525 15.8354V13.7449C137.525 13.1664 137.835 12.8552 138.411 12.8552C142.047 12.8115 142.357 12.4566 142.4 7.38104C142.4 6.75875 142.71 6.44761 143.286 6.44761H144.438C145.015 6.44761 145.324 6.75875 145.324 7.33729V12.8552H155.515C156.091 12.8552 156.401 13.1664 156.401 13.7449V15.8354C156.401 16.414 156.091 16.7251 155.515 16.7251H145.324V28.782C145.324 32.788 146.564 33.9888 150.998 33.9888H155.52C156.096 33.9888 156.406 34.3 156.406 34.8785V36.969C156.406 37.5475 156.096 37.8587 155.52 37.8587H150.998C142.976 37.8587 141.161 34.6549 141.161 28.4271H141.156Z" fill="black"></path>
							<path class="logo-text" d="M158.744 27.9798V22.598C158.744 16.1466 160.516 12.8553 167.918 12.8553H175.272C182.67 12.8553 184.446 16.1466 184.446 22.598V27.9798C184.446 34.6111 182.675 37.8587 175.272 37.8587H167.918C160.521 37.8587 158.744 34.6111 158.744 27.9798ZM175.185 33.9013C179.305 33.9013 180.283 32.9241 180.283 28.3396V22.2868C180.283 17.7947 179.31 16.8126 175.185 16.8126H168.006C163.886 16.8126 162.908 17.7898 162.908 22.2868V28.3396C162.908 32.9241 163.881 33.9013 168.006 33.9013H175.185Z" fill="black"></path>
							<path class="logo-text" d="M213 22.7292V37.0128C213 37.5913 212.69 37.9024 212.114 37.9024H209.722C209.146 37.9024 208.836 37.5913 208.836 37.0128V22.3743C208.836 17.7898 207.863 16.8126 203.787 16.8126H197.493C193.993 16.8126 192.396 17.6148 192.396 22.3743V36.969C192.396 37.5475 192.086 37.8587 191.51 37.8587H189.118C188.542 37.8587 188.232 37.5475 188.232 36.969V13.7449C188.232 13.1664 188.542 12.8553 189.118 12.8553H191.51C192.086 12.8553 192.396 13.1664 192.396 13.7449V16.1028C193.369 13.9248 195.407 12.8553 199.44 12.8553H203.826C211.223 12.8553 213 16.1028 213 22.7341V22.7292Z" fill="black"></path>
							<path d="M29.6429 23.8571C24.8114 23.8571 20.8948 19.9241 20.8948 15.0722V0.0545464H17.4575V11.0905L7.69273 1.28454C4.92838 2.32007 3.07903 4.0022 1.88808 6.32607L12.045 16.5258H0.00484124C0.00484124 16.7348 0 16.9439 0 17.1578V19.997H15.584C20.4155 19.997 24.3321 23.9301 24.3321 28.782V43.9455H27.842V32.8317L37.6116 42.6425C40.3324 41.5778 42.1381 39.8617 43.2952 37.4795L33.2545 27.3964H45.0961C45.0961 27.1339 45.101 26.8762 45.101 26.604V23.8523H29.6429V23.8571Z" fill="#91BCD4"></path>
							<path d="M15.6227 20.9207H0V26.6088C0 27.1096 0.00968248 27.5909 0.019365 28.0673H11.5754L1.9365 37.7469C3.00157 39.8082 4.58949 41.3493 6.86972 42.38L16.3489 32.8609V43.9455H23.4655V28.7966C23.4655 24.4551 19.9459 20.9207 15.6227 20.9207Z" fill="#4D4DF0"></path>
							<path d="M38.2555 1.63458L28.9216 11.0078V0.0545464H21.8049V15.0722C21.8049 19.4136 25.3245 22.948 29.6477 22.948H45.1058V17.1578C45.1058 16.6959 45.0961 16.2438 45.0865 15.8014H33.6902L43.1838 6.26773C42.1188 4.21611 40.5357 2.67011 38.2506 1.63458H38.2555Z" fill="#4D4DF0"></path>
						</g>
						<defs>
							<clippath id="clip0_5959_2768">
								<rect width="213" height="43.8909" fill="white" transform="translate(0 0.0545464)"></rect>
							</clippath>
						</defs>
					</svg>