<svg width="99" height="28" viewBox="0 0 99 28" xmlns="http://www.w3.org/2000/svg"><title>Preply + Imported Layers</title><desc>Created with Sketch.</desc><g fill="none"><path d="M40.05 15.489v5.511h-3.223v-15.641h6.102c1.174 0 2.208.215 3.099.645.892.43 1.577 1.04 2.057 1.832.48.791.72 1.692.72 2.702 0 1.533-.525 2.741-1.574 3.625-1.049.884-2.501 1.327-4.356 1.327h-2.825zm0-2.61h2.879c.852 0 1.502-.201 1.95-.602.448-.401.671-.974.671-1.719 0-.766-.226-1.386-.677-1.858-.451-.473-1.074-.716-1.869-.73h-2.954v4.909zm17.295-.591c-.423-.057-.795-.086-1.117-.086-1.174 0-1.944.397-2.31 1.192v7.605h-3.104v-11.623h2.933l.086 1.386c.623-1.067 1.486-1.601 2.589-1.601.344 0 .666.047.967.14l-.043 2.986zm6.843 8.927c-1.704 0-3.092-.523-4.163-1.568-1.071-1.046-1.606-2.438-1.606-4.179v-.301c0-1.167.226-2.211.677-3.131.451-.92 1.09-1.629 1.917-2.127.827-.498 1.771-.747 2.831-.747 1.59 0 2.841.501 3.754 1.504.913 1.003 1.37 2.424 1.37 4.265v1.268h-7.401c.1.759.403 1.368.908 1.826.505.458 1.144.688 1.917.688 1.196 0 2.131-.433 2.804-1.3l1.525 1.708c-.465.659-1.096 1.173-1.891 1.542-.795.369-1.676.553-2.643.553zm-.354-9.539c-.616 0-1.115.208-1.499.623-.383.415-.628 1.01-.736 1.783h4.318v-.247c-.014-.688-.201-1.219-.559-1.595-.358-.376-.867-.564-1.525-.564zm17.359 3.62c0 1.79-.406 3.224-1.219 4.302-.813 1.078-1.91 1.617-3.292 1.617-1.174 0-2.123-.408-2.847-1.225v5.479h-3.104v-16.092h2.879l.107 1.139c.752-.902 1.733-1.354 2.943-1.354 1.432 0 2.546.53 3.341 1.59.795 1.06 1.192 2.521 1.192 4.383v.161zm-3.104-.226c0-1.081-.192-1.916-.575-2.503-.383-.587-.94-.881-1.67-.881-.974 0-1.644.372-2.009 1.117v4.759c.38.766 1.056 1.149 2.03 1.149 1.482 0 2.224-1.214 2.224-3.642zm8.304 5.93h-3.115v-16.5h3.115v16.5zm6.896-4.394l2.148-7.229h3.33l-4.673 13.428-.258.612c-.695 1.518-1.84 2.277-3.438 2.277-.451 0-.91-.068-1.375-.204v-2.353l.473.011c.587 0 1.026-.09 1.316-.269.29-.179.517-.476.682-.892l.365-.956-4.071-11.655h3.341l2.159 7.229z" fill="#000"/><g><path d="M12.598 6.54c0-1.161-2.096-1.753-4.594-2.459-2.55-.72-5.445-1.538-7.555-3.394l-.072-.031-.129.012-.005.002v10.756c0 .65.132 1.247.393 1.791.269.558.678 1.074 1.227 1.545 1.759 1.508 4.38 2.248 6.693 2.901 1.537.434 2.959.836 4.042 1.413v-12.535" fill="#3BB3BD"/><path d="M14.682 6.286c.112.391.482.714 1.03 1.002.9-.367 1.967-.668 3.099-.988 1.7-.48 3.563-1.007 5.155-1.851.277-.146.621-.039.767.239.146.278.04.622-.238.768-1.698.901-3.622 1.444-5.377 1.94-.631.178-1.239.35-1.798.528.587.189 1.239.373 1.92.566l1.274.365c1.185-.363 2.38-.787 3.452-1.355.277-.147.621-.04.767.238.146.278.04.622-.238.769-.687.364-1.412.67-2.147.938 1.567.559 3.099 1.281 4.361 2.363l.252.225c.027-.197.04-.399.04-.607v-10.756l-.004-.002-.129-.012-.072.031c-2.11 1.856-5.006 2.674-7.555 3.394-2.309.652-4.275 1.208-4.559 2.205" fill="#F9463D"/><path d="M14.646 21.586c0 1.161 2.096 1.753 4.594 2.459 2.55.72 5.445 1.538 7.555 3.394l.072.031.129-.012.004-.002v-10.756c0-.65-.132-1.247-.393-1.79-.269-.558-.679-1.074-1.228-1.545-1.759-1.507-4.38-2.248-6.692-2.901-1.537-.434-2.959-.836-4.042-1.413v12.535" fill="#F9463D"/><path d="M11.533 20.838c-.9.366-1.967.668-3.1.988-1.7.48-3.563 1.007-5.155 1.85-.277.146-.621.04-.767-.238-.146-.278-.039-.623.238-.769 1.698-.901 3.622-1.444 5.377-1.939.631-.179 1.239-.35 1.798-.528-.587-.19-1.239-.374-1.92-.566l-1.274-.365c-1.185.363-2.38.787-3.452 1.356-.277.147-.621.039-.767-.238-.146-.278-.039-.622.238-.769.687-.364 1.412-.67 2.147-.938-1.567-.558-3.099-1.281-4.361-2.363l-.252-.225c-.027.197-.04.4-.04.607v10.756l.005.002.129.012.072-.031c2.11-1.856 5.006-2.674 7.555-3.394 2.309-.652 4.275-1.207 4.559-2.205-.111-.391-.481-.714-1.03-1.002" fill="#3BB3BD"/></g></g></svg>