<svg width="46" height="20" viewBox="0 0 46 20" fill="none" xmlns="http://www.w3.org/2000/svg">
<path d="M40.5427 2.26667C42.3503 2.26667 43.7665 3.73174 43.7665 5.60171C43.7665 7.36865 42.2742 8.86051 40.5042 8.86051H34.0252L36.2555 11.1271H40.5072C41.9425 11.1261 43.3204 10.5544 44.3464 9.53432C44.8691 9.02615 45.2851 8.4156 45.5693 7.73952C45.8535 7.06345 46 6.33586 45.9998 5.60068C46.0056 4.85715 45.8651 4.11995 45.5866 3.43239C45.308 2.74484 44.897 2.12081 44.3778 1.59698C43.3583 0.569021 41.9788 -0.00539211 40.5427 3.8154e-05H27.7347L29.965 2.26667H40.5427Z" fill="#010101"/>
<path d="M33.5811 17.3016L19.4644 2.95284L17.6335 1.08184C16.9428 0.394307 16.0162 0.00641514 15.0494 3.92305e-05H9.8427C7.23346 -0.00119039 4.73061 1.05103 2.88475 2.92523C1.03889 4.79943 0.00121097 7.34208 1.05923e-06 9.99382C-0.00120885 12.6456 1.03415 15.1892 2.8783 17.0651C4.72245 18.9411 7.22434 19.9957 9.83357 19.9969H15.0038C15.4951 20.0065 15.9833 19.9143 16.4384 19.7258C16.8935 19.5374 17.306 19.2566 17.6508 18.9007L20.2115 16.3054L18.6361 14.7002L16.0754 17.2965C15.9367 17.4412 15.7696 17.5546 15.585 17.6295C15.4004 17.7044 15.2024 17.7391 15.0038 17.7313H9.83357C7.81571 17.7301 5.88098 16.9142 4.455 15.4633C3.02901 14.0123 2.22858 12.0451 2.22979 9.99434C2.231 7.9436 3.03375 5.97735 4.46145 4.52813C5.88914 3.07891 7.82484 2.26544 9.8427 2.26667H15.0494C15.4236 2.27103 15.7826 2.41812 16.0551 2.67879L17.886 4.54876L32.0047 18.9037C32.3476 19.253 32.7552 19.5298 33.204 19.718C33.6527 19.9061 34.1338 20.002 34.6192 20H45.8153V17.7333H34.6192C34.4267 17.7346 34.2359 17.697 34.0577 17.6229C33.8796 17.5489 33.7176 17.4397 33.5811 17.3016Z" fill="#010101"/>
</svg>
