<svg width="280" height="81" viewBox="0 0 280 81" fill="none" xmlns="http://www.w3.org/2000/svg">
<g clip-path="url(#clip0_93_1699)">
<path d="M53.7067 25.3125H47.6988C47.638 25.2631 47.5764 25.2153 47.5148 25.1667C40.5252 19.6855 30.01 24.2061 29.1888 33.0497C28.349 33.47 27.5351 33.9366 26.752 34.4453V37.4382C33.1108 32.5483 36.2335 32.8067 43.8027 32.9565C47.223 32.899 51.0363 34.5425 54.3147 35.4132V32.98L51.7659 32.2178C51.6589 31.5908 51.4968 30.9744 51.2852 30.375H53.7067V25.3125Z" fill="#367041"/>
<path d="M8.10587 46.17C8.10587 39.4211 9.77504 33.1047 12.6797 27.7036C13.5301 26.1201 14.4875 24.6159 15.5405 23.2024C15.5421 23.2 15.5438 23.1976 15.5454 23.1952C21.2727 15.5074 29.8148 10.5065 39.4163 10.1452C39.4949 10.1428 39.5728 10.1404 39.6506 10.138C39.8046 10.1339 39.9587 10.1307 40.1135 10.1282C40.2521 10.1258 40.3907 10.125 40.5294 10.125H40.5334C49.1273 10.125 56.8886 13.6882 62.4174 19.4165L71.5942 14.4796C64.1595 5.62707 53.0039 0 40.5334 0C18.1476 0 0 18.1327 0 40.5C0 57.5748 10.576 72.1815 25.5393 78.1383C15.1781 72.1216 8.10587 60.0639 8.10587 46.17Z" fill="#367041"/>
<path d="M55.7334 30.375L80.9776 37.7938C80.441 29.6711 77.5079 22.2029 72.8782 16.0883L55.7334 25.3125V30.375Z" fill="#367041"/>
<path d="M70.7201 36.8898C70.8612 38.0733 70.9334 39.2785 70.9334 40.5C70.9334 46.7475 69.0461 52.5536 65.8099 57.3812C60.3557 65.5185 51.0712 70.875 40.5333 70.875C40.4741 70.875 40.4141 70.875 40.3549 70.875C33.4416 70.7794 27.8666 65.1499 27.8666 58.2196C27.8666 53.9695 29.9638 50.2079 33.1805 47.9131C33.448 47.7228 33.7229 47.5422 34.005 47.3721C36.0884 47.8451 38.2561 48.0946 40.483 48.0946C48.1171 48.0946 53.6596 46.4211 57.9562 45.39C58.5188 45.2547 58.9727 44.8457 59.083 44.2779L60.0453 40.56C60.0453 40.56 60.0461 40.5575 60.0461 40.5559C60.1823 39.8472 59.7567 39.1506 59.0627 38.9472L54.3146 37.5281L51.6451 36.7303L47.6955 35.5493C46.4123 35.1735 45.1403 34.9823 43.8027 34.9823H36.7499C34.8359 34.9823 32.228 36.1908 29.7319 37.823C27.8893 39.0274 26.1074 40.4636 24.7123 41.8163C24.6101 41.9143 24.5096 42.0131 24.4115 42.1111C24.3459 42.1759 24.2818 42.2407 24.2194 42.3055C24.1902 42.3347 24.1618 42.3638 24.1343 42.393C24.0791 42.4505 24.0232 42.508 23.9681 42.5663C23.9405 42.5947 23.9138 42.6238 23.887 42.6522C23.8651 42.6749 23.8441 42.6984 23.8238 42.721C23.7946 42.751 23.767 42.7802 23.7403 42.8101C23.2458 43.3472 22.7772 43.9077 22.337 44.4909C19.4462 48.3084 17.7324 53.0639 17.7324 58.2196C17.7324 59.0749 17.7794 59.919 17.871 60.7492C19.0911 71.7814 28.1949 80.4403 39.43 80.9749C39.4875 80.9773 39.5459 80.9798 39.6043 80.9822C39.8158 80.9911 40.029 80.9968 40.2423 80.9992C40.3387 81.0008 40.436 81.0008 40.5325 81.0008C62.9183 81.0008 81.0659 62.8682 81.0659 40.5008C81.0659 40.3105 81.0643 40.1193 81.0618 39.9298L70.7193 36.8907L70.7201 36.8898ZM40.5333 37.9688C41.9325 37.9688 43.0666 39.102 43.0666 40.5C43.0666 41.8981 41.9325 43.0313 40.5333 43.0313C39.1341 43.0313 37.9999 41.8981 37.9999 40.5C37.9999 39.102 39.1341 37.9688 40.5333 37.9688Z" fill="#367041"/>
<path d="M123.212 27.4145C121.801 26.7835 120.221 26.4668 118.47 26.4668C114.481 26.4668 111.502 27.8406 109.532 30.5856C109.471 30.6715 109.41 30.759 109.35 30.8465V27.1958H101.324V62.1878H109.35V42.7235C109.35 39.7103 110.079 37.4998 111.539 36.0896C112.998 34.6802 114.845 33.9755 117.084 33.9755C118.105 33.9755 119.005 34.1213 119.783 34.4129C120.561 34.7045 121.267 35.1913 121.899 35.8709L127.152 30.4763C125.936 29.0669 124.622 28.0463 123.212 27.4145Z" fill="#367041"/>
<path d="M153.709 28.8725C150.936 27.2687 147.823 26.4668 144.37 26.4668C140.916 26.4668 137.876 27.2808 135.104 28.9089C132.331 30.5379 130.13 32.7119 128.501 35.4335C126.871 38.1559 126.057 41.2177 126.057 44.6189C126.057 48.0201 126.871 51.107 128.501 53.8772C130.129 56.6474 132.331 58.8465 135.104 60.4746C137.876 62.1036 140.965 62.9168 144.37 62.9168C147.774 62.9168 150.936 62.1036 153.709 60.4746C156.481 58.8474 158.681 56.6474 160.311 53.8772C161.941 51.107 162.756 48.0209 162.756 44.6189C162.756 41.2169 161.941 38.1429 160.311 35.397C158.681 32.652 156.481 30.4763 153.709 28.8725ZM153.234 50.0864C152.383 51.6902 151.191 52.9417 149.659 53.8407C148.127 54.7407 146.363 55.1894 144.37 55.1894C142.376 55.1894 140.685 54.7407 139.153 53.8407C137.621 52.9417 136.428 51.6902 135.578 50.0864C134.727 48.4826 134.301 46.6601 134.301 44.6189C134.301 42.5777 134.727 40.7803 135.578 39.2243C136.428 37.6691 137.621 36.4428 139.153 35.5428C140.685 34.6446 142.424 34.1942 144.37 34.1942C146.315 34.1942 148.115 34.6437 149.623 35.5428C151.13 36.4428 152.322 37.6691 153.198 39.2243C154.073 40.7803 154.511 42.5777 154.511 44.6189C154.511 46.6601 154.085 48.4826 153.234 50.0864Z" fill="#367041"/>
<path d="M193.435 28.9089C190.881 27.2808 188.024 26.4667 184.862 26.4667C182.236 26.4667 179.876 27.0386 177.785 28.1799C176.368 28.9542 175.152 29.9238 174.137 31.0878V9.69971H166.111V62.1877H174.137V58.3596C175.13 59.4953 176.321 60.4446 177.712 61.2036C179.803 62.3448 182.187 62.9167 184.862 62.9167C188.024 62.9167 190.881 62.1148 193.435 60.511C195.989 58.9072 198.006 56.7324 199.491 53.9865C200.973 51.2414 201.716 48.1666 201.716 44.7646C201.716 41.3626 200.974 38.2158 199.491 35.4699C198.006 32.7248 195.989 30.5378 193.435 28.9089ZM192.195 50.2321C191.343 51.8359 190.175 53.0874 188.692 53.9865C187.208 54.8864 185.494 55.3351 183.549 55.3351C181.604 55.3351 179.876 54.8864 178.369 53.9865C176.861 53.0874 175.693 51.8359 174.867 50.2321C174.039 48.6283 173.626 46.7815 173.626 44.6917C173.626 42.6019 174.039 40.7551 174.867 39.1513C175.693 37.5475 176.86 36.2969 178.369 35.397C179.876 34.4979 181.603 34.0483 183.549 34.0483C185.494 34.0483 187.208 34.4979 188.692 35.397C190.175 36.2969 191.343 37.5475 192.195 39.1513C193.045 40.7551 193.471 42.6027 193.471 44.6917C193.471 46.7807 193.045 48.6283 192.195 50.2321Z" fill="#367041"/>
<path d="M232.358 28.8725C229.585 27.2687 226.473 26.4668 223.019 26.4668C219.566 26.4668 216.526 27.2808 213.753 28.9089C210.981 30.5379 208.78 32.7119 207.15 35.4335C205.52 38.1559 204.706 41.2177 204.706 44.6189C204.706 48.0201 205.52 51.107 207.15 53.8772C208.779 56.6474 210.981 58.8465 213.753 60.4746C216.526 62.1036 219.614 62.9168 223.019 62.9168C226.424 62.9168 229.585 62.1036 232.358 60.4746C235.13 58.8474 237.331 56.6474 238.961 53.8772C240.59 51.107 241.405 48.0209 241.405 44.6189C241.405 41.2169 240.59 38.1429 238.961 35.397C237.331 32.652 235.13 30.4763 232.358 28.8725ZM231.884 50.0864C231.033 51.6902 229.841 52.9417 228.309 53.8407C226.777 54.7407 225.013 55.1894 223.019 55.1894C221.026 55.1894 219.335 54.7407 217.802 53.8407C216.27 52.9417 215.078 51.6902 214.227 50.0864C213.376 48.4826 212.951 46.6601 212.951 44.6189C212.951 42.5777 213.376 40.7803 214.227 39.2243C215.078 37.6691 216.27 36.4428 217.802 35.5428C219.335 34.6446 221.073 34.1942 223.019 34.1942C224.965 34.1942 226.764 34.6437 228.272 35.5428C229.779 36.4428 230.972 37.6691 231.847 39.2243C232.723 40.7803 233.161 42.5777 233.161 44.6189C233.161 46.6601 232.734 48.4826 231.884 50.0864Z" fill="#367041"/>
<path d="M271.974 27.1958V31.0846C270.965 29.9223 269.762 28.9535 268.363 28.1799C266.295 27.0387 263.924 26.4668 261.249 26.4668C258.087 26.4668 255.23 27.2808 252.676 28.9089C250.123 30.5379 248.104 32.7249 246.621 35.4699C245.136 38.2158 244.396 41.3141 244.396 44.7647C244.396 48.2153 245.136 51.2415 246.621 53.9865C248.104 56.7325 250.123 58.9073 252.676 60.5111C255.23 62.1149 258.087 62.9168 261.249 62.9168C263.924 62.9168 266.308 62.3449 268.399 61.2036C269.791 60.4447 270.981 59.4954 271.974 58.3589V62.1878H280V27.1958H271.974ZM269.749 52.3463C267.925 54.3397 265.529 55.3352 262.563 55.3352C260.617 55.3352 258.902 54.8865 257.419 53.9865C255.935 53.0875 254.767 51.836 253.917 50.2322C253.066 48.6284 252.64 46.7816 252.64 44.6918C252.64 42.602 253.066 40.7552 253.917 39.1514C254.767 37.5476 255.935 36.297 257.419 35.397C258.902 34.4979 260.617 34.0484 262.563 34.0484C264.508 34.0484 266.295 34.4979 267.779 35.397C269.263 36.297 270.417 37.5476 271.245 39.1514C272.072 40.7552 272.485 42.6028 272.485 44.6918C272.485 47.8022 271.573 50.3537 269.749 52.3463Z" fill="#367041"/>
</g>
<defs>
<clipPath id="clip0_93_1699">
<rect width="280" height="81" fill="white"/>
</clipPath>
</defs>
</svg>
