<svg xmlns="http://www.w3.org/2000/svg" width="85" height="30" fill="none"><path fill="#fff" d="M47.765 17.173a5.5 5.5 0 0 1-2.097 2.187q-1.347.79-3.068.788-1.722 0-3.07-.788a5.5 5.5 0 0 1-2.096-2.187q-.75-1.398-.75-3.13t.75-3.13a5.5 5.5 0 0 1 2.097-2.186q1.346-.79 3.069-.79t3.068.79a5.5 5.5 0 0 1 2.097 2.186q.75 1.398.75 3.13t-.75 3.13m-8.064-1.106q.41.891 1.16 1.398.75.505 1.739.505.971 0 1.722-.505.75-.507 1.159-1.398.409-.893.41-2.024 0-1.133-.41-2.024t-1.16-1.397q-.75-.506-1.721-.506-.99 0-1.74.506t-1.159 1.397q-.408.893-.409 2.024 0 1.133.41 2.024M84.25 17.173a5.5 5.5 0 0 1-2.097 2.187q-1.347.79-3.069.788-1.721 0-3.069-.788a5.5 5.5 0 0 1-2.097-2.187q-.75-1.398-.75-3.13t.75-3.13a5.5 5.5 0 0 1 2.097-2.186q1.346-.79 3.069-.79t3.069.79a5.5 5.5 0 0 1 2.097 2.186q.75 1.398.75 3.13t-.75 3.13m-8.064-1.106q.41.891 1.16 1.398.75.505 1.738.505.972 0 1.722-.505.75-.507 1.16-1.398.409-.893.409-2.024 0-1.133-.41-2.024-.409-.891-1.159-1.397t-1.722-.506q-.99 0-1.739.506t-1.16 1.397q-.408.893-.408 2.024 0 1.133.409 2.024M19.853 17.94l-.563-1.61-.741-2.118-.537-1.534-.701-2.006-.816-2.331H12.54l-.631 1.805-.563 1.609-2.795 7.99h2.608l.818-2.332h3.956l-.702-2.006h-2.555l.537-1.534 1.12-3.201.185-.53.185.53 3.173 9.072v.002h2.609zM32.899 9.361q.886 1.02.886 2.633 0 1.697-.878 2.735t-2.72 1.038h-3.409v3.979H24.17V8.34h6.018q1.825 0 2.71 1.02m-3.53 4.382q.904 0 1.313-.463.41-.463.41-1.27 0-1.646-1.705-1.646h-2.609v3.38zM54.622 8.34v9.33h5.302v2.076h-7.91V8.34zM65.416 8.34v9.33h5.302v2.076h-7.91V8.34z"></path><path fill="#fff" d="M22.479 4.63a1.5 1.5 0 0 0 1.219-.62 1.525 1.525 0 0 0-.73-2.34 1.5 1.5 0 0 0-1.354.191 14.45 14.45 0 0 0-14.74.329 14.6 14.6 0 0 0-5.209 5.625 14.68 14.68 0 0 0 .72 14.815 14.55 14.55 0 0 0 5.73 5.087 14.45 14.45 0 0 0 14.702-1.121.595.595 0 0 0 .147-.83.593.593 0 0 0-.824-.147A13.267 13.267 0 0 1 8.653 26.65a13.36 13.36 0 0 1-5.26-4.66 13.48 13.48 0 0 1-.69-13.588 13.4 13.4 0 0 1 4.76-5.175 13.272 13.272 0 0 1 13.521-.356 1.53 1.53 0 0 0 .345 1.226 1.51 1.51 0 0 0 1.15.532"></path></svg>