<svg width="120" height="28" viewBox="0 0 120 28" fill="none" xmlns="http://www.w3.org/2000/svg">
<path d="M23.7831 6.11578C22.411 6.05781 21.0388 6.46359 19.8096 7.18821C18.8948 7.73892 18.8662 7.73892 18.8662 6.57953C18.8662 6.20273 18.8662 5.85492 18.8662 5.47811C18.8662 4.05786 18.8662 2.6666 18.8662 1.24634C18.8662 0.173908 18.7233 0 17.6941 0C17.3797 0 17.0938 0 16.7793 0C15.8074 0 15.7502 0.0579695 15.7216 1.01447C15.7216 3.13035 15.7216 5.24624 15.7216 7.33314C15.7216 9.44902 15.7216 11.5649 15.7216 13.6518C15.7216 14.0286 15.6645 14.4054 16.0075 14.6663C16.665 15.188 17.3797 15.6807 18.1229 16.0865C18.5231 16.2894 18.809 16.1155 18.8662 15.6228C18.8948 15.188 18.8948 14.7532 18.8662 14.3474C18.809 13.333 19.1521 12.4055 19.6666 11.5649C21.5248 8.63745 25.4984 8.49253 27.528 11.2751C28.6143 12.7533 28.7858 14.4054 28.5286 16.1445C28.3285 17.4488 27.6424 18.4633 26.5847 19.2169C24.8123 20.5212 22.8112 20.6081 20.8101 20.0284C18.8948 19.4777 17.2653 18.3763 15.6645 17.2169C14.4924 16.3764 13.3489 15.4489 12.1769 14.5793C10.2044 13.1011 7.97458 12.6084 5.60187 13.1591C3.02905 13.7677 1.19948 15.3329 0.141768 17.7966C-0.172688 18.5212 0.0274204 18.8111 0.827854 18.8401C1.48535 18.8691 2.14285 18.8401 2.82894 18.8401C3.28633 18.8691 3.5722 18.6952 3.77231 18.2604C3.82948 18.1155 3.91524 17.9995 4.001 17.8546C4.88719 16.3764 6.48806 15.7387 8.11751 16.1735C8.86077 16.3764 9.51827 16.6952 10.1758 17.101C11.6337 18.0285 13.0059 19.072 14.378 20.1154C17.1796 22.2313 20.124 23.7675 23.7831 23.4486C26.2702 23.2458 28.3285 22.3182 29.9293 20.3763C31.1871 18.8401 31.7589 17.043 31.7875 15.0431C31.8161 13.246 31.5016 11.5649 30.5868 10.0287C29.0145 7.594 26.699 6.23172 23.7831 6.11578Z" fill="white"/>
<path d="M81.6144 14.4637C81.2142 13.942 81.2428 13.913 81.643 13.4783C82.3005 12.7536 82.9866 12.058 83.6441 11.3624C84.8161 10.145 85.9596 8.95665 87.1317 7.76827C87.3032 7.59437 87.5605 7.44944 87.4175 7.15959C87.3032 6.86975 87.0173 6.84076 86.7314 6.84076C86.0739 6.84076 85.4164 6.86975 84.7304 6.84076C84.2444 6.81178 83.8727 6.98569 83.5583 7.36249C81.5 9.59431 79.4132 11.7972 77.3263 14C77.1262 14.2029 76.9261 14.6087 76.6403 14.5217C76.5545 14.4927 76.4973 14.4348 76.4687 14.3768V13.6232C76.4687 9.68127 76.4687 5.73934 76.4687 1.79742C76.4687 1.59453 76.4687 1.36265 76.4687 1.15975C76.4402 0.695999 76.2686 0.464121 75.8112 0.464121C75.1823 0.435137 74.5534 0.435137 73.9245 0.464121C73.5815 0.464121 73.3813 0.667015 73.3813 1.04382C73.3813 1.27569 73.3813 1.53656 73.3813 1.76843C73.3813 5.10168 73.3813 8.43492 73.3813 11.7682C73.3813 13.7681 73.3813 15.7391 73.3813 17.739C73.3813 19.3042 73.3813 20.8694 73.3813 22.4056C73.3813 23.0722 73.4957 23.1592 74.096 23.1882C74.6392 23.2171 75.1823 23.2171 75.7255 23.1882C76.2972 23.1592 76.4687 22.9853 76.4973 22.4056C76.4973 22.2896 76.4973 22.2027 76.4973 22.0867C76.5259 21.7679 76.5259 21.4201 76.4973 21.1013V20.3187C76.4973 20.3187 76.4402 19.71 76.5831 19.1303C76.6403 18.9274 76.726 18.7245 76.8404 18.5216C77.0976 18.1448 77.7837 17.4202 78.3555 16.8695C79.1845 16.0869 79.013 15.9999 80.0707 17.3912C81.3857 19.1013 82.7007 20.8114 83.9871 22.5505C84.3015 22.9853 84.6732 23.1882 85.2163 23.1592C85.7023 23.1302 86.1883 23.1592 86.6743 23.1592C87.0173 23.1592 87.4461 23.2461 87.6462 22.8403C87.8463 22.4345 87.4461 22.1737 87.246 21.9128C85.3307 19.4201 83.4725 16.9564 81.6144 14.4637Z" fill="white"/>
<path d="M46.4239 18.8693C44.5372 21.0722 40.9066 21.362 38.7054 18.7534C36.7329 16.4346 36.9616 12.6666 39.1342 10.6956C40.1348 9.79711 41.2497 9.33336 42.336 9.39133C44.5372 9.36234 45.9665 10.2609 46.967 11.855C48.282 14.0289 48.0819 16.9274 46.4239 18.8693ZM42.5932 6.46387C37.3618 6.46387 34.2173 10.7246 34.2173 14.9564C34.2173 19.2751 37.2761 23.4199 42.4789 23.4489C47.7103 23.4779 50.9692 19.42 50.9406 14.9564C50.9978 10.6377 47.7675 6.49285 42.5932 6.46387Z" fill="white"/>
<path d="M67.2067 15.0718C67.1209 17.1877 66.3205 18.9268 64.4338 19.9702C61.5179 21.5644 57.8302 20.0572 56.9154 16.4341C56.5152 14.8399 56.7153 13.3327 57.5443 11.9125C58.4305 10.3763 59.7741 9.50674 61.5751 9.36182C65.1485 9.10096 67.3496 12.3762 67.2067 15.0718ZM62.0039 6.49233C56.944 6.49233 53.6279 10.4343 53.6279 14.9849C53.6279 19.5934 56.8868 23.5064 61.9467 23.5064C67.464 23.4774 70.437 19.0427 70.3227 15.0138C70.4942 10.84 67.2925 6.46335 62.0039 6.49233Z" fill="white"/>
<path d="M119.063 6.81171C118.663 6.81171 118.291 6.81171 117.891 6.81171C116.976 6.81171 116.976 6.81171 116.662 7.65227C115.376 11.0145 114.118 14.3767 112.803 17.739C112.774 17.7969 112.774 17.8259 112.746 17.8839C112.688 17.9998 112.631 18.1447 112.603 18.2317C112.488 18.4636 112.317 18.4346 112.202 18.4346C112.088 18.4346 112.002 18.2317 112.002 18.2317L111.716 17.652C110.344 14.4927 109.001 11.3333 107.629 8.20298C106.942 6.6378 107.314 6.81171 105.542 6.81171C105.142 6.81171 104.741 6.78273 104.37 6.81171C103.941 6.84069 103.798 7.07257 103.969 7.50734C104.084 7.79719 104.198 8.05805 104.312 8.3479C106.314 12.7826 108.286 17.2462 110.344 21.6809C110.716 22.4925 110.602 23.1011 110.173 23.7968C109.544 24.8692 108.629 25.304 107.428 25.1301C107.057 25.0721 106.657 24.9272 106.314 24.8112C105.513 24.5214 105.456 24.5214 105.084 25.333C104.941 25.6518 104.856 25.9706 104.684 26.2605C104.312 27.0141 104.57 27.159 105.199 27.4199C106.171 27.7967 107.143 27.9706 108.2 27.9995C110.03 28.0285 111.373 27.217 112.403 25.7387C112.917 25.0141 113.289 24.2026 113.603 23.391C115.033 19.8259 116.462 16.2607 117.891 12.6956C118.52 11.1015 119.149 9.53628 119.778 7.94211C120.178 6.92765 120.092 6.81171 119.063 6.81171Z" fill="white"/>
<path d="M99.1096 14.1156C98.0519 13.6519 96.937 13.42 95.8507 13.0142C95.3076 12.8113 94.7644 12.6374 94.307 12.2896C93.3065 11.565 93.3351 10.4056 94.3928 9.73894C94.9931 9.36213 95.7078 9.21721 96.3939 9.27518C97.566 9.36213 98.7094 9.70995 99.7386 10.3186C99.9101 10.4346 100.11 10.5215 100.31 10.6085C100.653 10.7824 100.939 10.7244 101.168 10.3766C101.397 9.9998 101.625 9.65198 101.825 9.27518C102.197 8.60853 102.168 8.40564 101.511 8.02884C99.9101 7.13031 98.2235 6.52163 96.3653 6.60859C96.0509 6.60859 95.765 6.5796 95.4505 6.60859C94.0212 6.69554 92.7634 7.24625 91.7628 8.34767C90.1334 10.1157 89.9904 13.42 92.6776 14.9562C93.3065 15.304 93.964 15.6228 94.6501 15.8257C95.3076 16.0286 95.9937 16.2025 96.6512 16.4054C97.3659 16.6373 98.1091 16.8402 98.7094 17.304C99.5956 17.9416 99.71 19.0141 98.9381 19.8256C98.4807 20.3184 97.8804 20.5213 97.2515 20.5792C95.4505 20.7241 93.8211 20.2604 92.3631 19.2459C91.0767 18.3474 91.1625 18.7532 90.5336 19.5937C89.6188 20.8401 89.6474 20.927 90.991 21.7676C92.9349 22.956 95.0217 23.5067 97.2801 23.3618C98.6808 23.2748 99.9101 22.7821 100.968 21.8256C102.626 20.2604 102.912 17.246 101.368 15.6228C100.739 14.9272 99.9673 14.4924 99.1096 14.1156Z" fill="white"/>
</svg>
