<svg class="neu-assets" focusable="false" role="img" viewbox="0 0 32 32" xmlns="http://www.w3.org/2000/svg"><title>Arrow Right</title><path style="fill:var(--neu-orange-50)" d="M2.00001 15.1128V16.6379C2.00258 16.7049 2.03104 16.7683 2.07937 16.8147C2.1277 16.8612 2.19214 16.8871 2.25918 16.8871H26.2321L16.633 26.4962C16.6089 26.5195 16.5897 26.5473 16.5766 26.5782C16.5635 26.609 16.5567 26.6421 16.5567 26.6756C16.5567 26.7091 16.5635 26.7423 16.5766 26.7731C16.5897 26.8039 16.6089 26.8318 16.633 26.8551C16.7971 27.0214 16.9927 27.1535 17.2083 27.2437C17.4239 27.3338 17.6552 27.3803 17.8889 27.3803C18.1226 27.3803 18.354 27.3338 18.5696 27.2437C18.7852 27.1535 18.9808 27.0214 19.1449 26.8551L30 15.9999L19.1748 5.14484C19.0107 4.97848 18.8151 4.84638 18.5995 4.75622C18.3839 4.66606 18.1525 4.61963 17.9188 4.61963C17.6851 4.61963 17.4538 4.66606 17.2382 4.75622C17.0226 4.84638 16.827 4.97848 16.6629 5.14484C16.6388 5.16809 16.6196 5.19596 16.6065 5.22679C16.5934 5.25761 16.5866 5.29077 16.5866 5.32427C16.5866 5.35776 16.5934 5.39092 16.6065 5.42175C16.6196 5.45257 16.6388 5.48044 16.6629 5.50369L26.0128 14.8536H2.22928C2.16585 14.861 2.10738 14.8915 2.06507 14.9393C2.02276 14.9872 1.99958 15.0489 2.00001 15.1128Z"></path></svg>