<svg version="1.2" xmlns="http://www.w3.org/2000/svg" viewBox="0 0 1590 273" width="1590" height="273">
	<title>Vontobel_RGB_graphite_90px-svg</title>
	<style>
		.s0 { fill: #373a36 } 
	</style>
	<path id="Layer" fill-rule="evenodd" class="s0" d="m1291.6 168.6c0 58-40.4 101.7-93.4 101.7-5.5 0.2-11-0.3-16.4-1.3-5.4-1.1-10.7-2.8-15.7-5.1-5-2.2-9.7-5.1-14-8.5-4.3-3.3-8.3-7.2-11.7-11.5v21.4h-50.9v-265.3h51.8v92.2c3.4-4.2 7.3-7.9 11.6-11.1 4.2-3.2 8.8-5.9 13.7-8.1 4.9-2.2 10-3.8 15.3-4.9 5.2-1 10.6-1.4 15.9-1.2 53.5 0 93.8 43.6 93.8 101.7zm-83.3 49.2c6.4-2.6 12.1-6.6 16.9-11.5 4.8-5 8.6-10.9 11-17.3 2.5-6.5 3.6-13.4 3.3-20.3 0.3-6.9-0.8-13.7-3.3-20.2-2.4-6.4-6.2-12.3-11-17.3-4.8-5-10.5-8.9-16.9-11.6-6.3-2.6-13.1-4-20-3.9-6.8 0-13.6 1.4-19.8 4.2-6.2 2.7-11.8 6.6-16.5 11.6-4.6 5-8.2 10.8-10.5 17.2-2.3 6.4-3.3 13.2-2.9 20-0.4 6.8 0.6 13.6 2.9 20 2.3 6.4 5.9 12.3 10.5 17.3 4.7 4.9 10.3 8.9 16.5 11.6 6.2 2.7 13 4.2 19.8 4.2 6.9 0.1 13.7-1.3 20-4zm-387.9-99.5h-58.1v70.8c0 24.2 12.7 32.9 29 32.9q4.8-0.4 9.6-1.4 4.7-1 9.3-2.6 4.6-1.6 8.9-3.7 4.4-2.2 8.4-4.9l19.1 40.7q-6.9 5-14.6 8.8-7.6 3.9-15.8 6.5-8.1 2.6-16.6 3.8-8.4 1.3-17 1.2c-53.8 0-72.2-33.9-72.2-84v-171.7h51.9v57.3h58.1zm717.7-118.3h51.9v265.3h-51.9zm-33.1 168.2q0 2.2 0 4.4-0.1 2.2-0.2 4.4-0.2 2.3-0.4 4.5-0.2 2.2-0.4 4.4h-136.8c0.8 5.8 2.7 11.4 5.6 16.5 2.9 5.2 6.7 9.7 11.3 13.4 4.6 3.7 9.8 6.5 15.4 8.2 5.6 1.8 11.5 2.5 17.4 2q6.6 0 13.1-1.2 6.5-1.2 12.8-3.4 6.2-2.3 11.9-5.6 5.8-3.3 10.9-7.5l30.6 33.5c-5.7 4.9-11.8 9.2-18.3 13-6.5 3.7-13.3 6.8-20.4 9.2-7.1 2.5-14.4 4.2-21.8 5.3-7.4 1-14.9 1.3-22.4 0.9-13.4 0.7-26.8-1.4-39.3-6.3-12.5-4.8-23.9-12.3-33.4-21.8-9.4-9.6-16.8-21-21.5-33.6-4.7-12.6-6.8-26-5.9-39.4 0-60.9 39.7-102.3 97.5-102.3 57.8 0 93.6 41.2 93.8 101.6zm-137.6-17.7h85.5c-1-10.7-5.9-20.6-13.8-27.9-7.9-7.2-18.3-11.2-29-11.2-10.7 0-21 4-28.9 11.2-7.9 7.3-12.9 17.2-13.8 27.9zm-306.7 17.8c0 27.8-11 54.3-30.6 73.9-19.6 19.7-46.1 30.7-73.8 30.7-27.7 0-54.3-11-73.9-30.7-19.5-19.6-30.5-46.1-30.5-73.9 0-27.7 11-54.3 30.5-73.9 19.6-19.6 46.2-30.6 73.9-30.6 27.7 0 54.2 11 73.8 30.6 19.6 19.6 30.6 46.2 30.6 73.9zm-155.8 0c-0.9 14.2 4.2 28 13.9 38.4 9.7 10.3 23.2 16.1 37.4 16.1 14.1 0 27.7-5.8 37.4-16.1 9.7-10.4 14.7-24.2 13.9-38.4 0.8-14.1-4.2-28-13.9-38.3-9.7-10.3-23.3-16.2-37.4-16.2-14.2 0-27.7 5.9-37.4 16.2-9.7 10.3-14.8 24.2-13.9 38.3zm-237-26.9v123.9h-51.9v-106.2c0-27.9-14-43.3-37.6-43.3-5.7-0.2-11.3 0.8-16.5 2.9-5.2 2.2-9.9 5.4-13.7 9.5-3.9 4.1-6.8 9-8.7 14.3-1.8 5.4-2.5 11-1.9 16.6v106.2h-52.2v-193.4h50.6v22.9c3.1-4.6 6.8-8.7 11-12.3 4.1-3.6 8.7-6.7 13.7-9.1 4.9-2.5 10.2-4.3 15.6-5.4 5.4-1.1 10.9-1.5 16.4-1.2 9.9-0.5 19.9 1.1 29.2 4.7 9.3 3.6 17.7 9.1 24.8 16.1 7.1 7 12.6 15.4 16.3 24.7 3.6 9.3 5.3 19.2 4.9 29.1zm-210.4 27.1c0.2 13.6-2.4 27.2-7.6 39.8-5.2 12.6-12.9 24-22.7 33.5-9.7 9.5-21.3 16.9-34 21.8-12.7 4.9-26.3 7.1-39.9 6.6-13.6 0.6-27.2-1.7-39.9-6.5-12.7-4.9-24.3-12.4-34.1-21.9-9.7-9.5-17.5-20.9-22.7-33.5-5.2-12.6-7.7-26.2-7.5-39.8-0.2-13.6 2.3-27.2 7.5-39.8 5.2-12.6 13-24 22.7-33.5 9.8-9.5 21.4-17 34.1-21.8 12.7-4.9 26.3-7.1 39.9-6.6 13.6-0.5 27.2 1.7 39.9 6.6 12.7 4.9 24.3 12.3 34 21.8 9.8 9.6 17.5 21 22.7 33.6 5.2 12.6 7.8 26.1 7.6 39.7zm-155.8 0c-0.8 14.2 4.2 28 13.9 38.3 9.7 10.4 23.3 16.2 37.4 16.2 14.2 0 27.7-5.8 37.4-16.2 9.8-10.3 14.8-24.1 14-38.3 0.8-14.1-4.2-28-14-38.3-9.7-10.3-23.2-16.2-37.4-16.2-14.1 0-27.7 5.9-37.4 16.2-9.7 10.3-14.7 24.2-13.9 38.3zm-132.7 96.8h-69.4l-99.6-265.4h59.5l75.3 209.8 75.8-209.8h58.1z"/>
</svg>