<svg width="100%" height="100%" viewbox="0 0 2211 120" fill="none" xmlns="http://www.w3.org/2000/svg">
<path fill-rule="evenodd" clip-rule="evenodd" d="M1623.23 93.205C1623.47 91.0892 1623.76 88.5279 1623.76 85.5209C1623.89 82.5216 1623.95 78.8852 1623.89 74.7445H1588.94C1589.12 78.0081 1588.57 81.271 1587.34 84.2999C1586.18 86.536 1584.22 88.2516 1581.84 89.1042C1580.59 89.6764 1579.28 90.121 1577.94 90.4313C1576.07 90.7922 1574.18 90.9964 1572.28 91.0418C1569.78 91.3072 1566.52 91.3072 1562.43 91.3072H1546.2C1539.39 91.3781 1532.58 91.1035 1525.79 90.4844C1521.78 90.3005 1517.91 88.9845 1514.61 86.6888C1511.97 84.37 1510.29 81.154 1509.88 77.6642C1509.14 72.1132 1508.81 66.5151 1508.9 60.9157C1508.9 58.3115 1508.96 55.9492 1509.01 53.8288V53.8213V53.8145V53.8083V53.8027C1509.05 52.0866 1509.09 50.5293 1509.09 49.1307C1509.16 46.5138 1509.43 43.9059 1509.88 41.3271C1510.19 39.6098 1510.73 37.941 1511.48 36.3636C1512.16 35.1168 1513.06 34.0021 1514.13 33.0723C1515.27 32.0971 1516.56 31.3168 1517.96 30.7631C1520.02 30.0371 1522.16 29.5647 1524.33 29.3563C1527.12 29.0113 1530.82 28.7724 1535.44 28.6397C1540.04 28.5335 1546.01 28.4804 1553.34 28.4804C1561.18 28.4804 1567.29 28.5866 1571.8 28.8255C1575.3 28.8777 1578.77 29.4778 1582.08 30.6038C1583.11 30.9273 1584.04 31.477 1584.83 32.2123C1585.61 32.9475 1586.21 33.8493 1586.6 34.8507C1587.36 37.324 1587.81 39.8835 1587.93 42.4685H1622.46V38.4605C1622.73 31.2824 1621.58 24.1214 1619.09 17.3855C1617.12 12.3399 1613.33 8.21799 1608.46 5.83942C1605.9 4.63205 1603.23 3.65496 1600.49 2.91971C1596.82 2.01174 1593.08 1.39053 1589.31 1.06171C1584.71 0.583942 1578.84 0.1858 1571.75 0.1858C1564.65 0.0619332 1555.6 0 1544.6 0C1536.18 0 1529.17 0.106171 1523.35 0.345056C1517.52 0.592789 1512.55 1.00863 1508.42 1.59257C1504.82 2.07424 1501.26 2.87363 1497.8 3.98142C1494.86 4.95701 1492.04 6.23811 1489.38 7.80358C1486.46 9.43976 1483.86 11.5682 1481.67 14.0942C1479.4 16.8597 1477.71 20.0558 1476.71 23.4904C1475.29 28.01 1474.4 32.6765 1474.05 37.3988C1473.57 42.8312 1473.33 49.4492 1473.33 57.2528C1473.33 66.0119 1473.57 73.4439 1474.05 79.6019C1474.37 84.831 1475.17 90.0197 1476.44 95.1029C1477.32 98.7863 1478.89 102.271 1481.06 105.375C1483.06 108.101 1485.56 110.425 1488.42 112.223C1490.87 113.782 1493.49 115.055 1496.23 116.019C1499.6 117.153 1503.07 117.953 1506.59 118.407C1511.53 119.082 1516.51 119.499 1521.49 119.655C1527.36 120 1534.53 120 1543.06 120C1554.87 120.035 1564.42 119.982 1571.7 119.841C1578.97 119.699 1584.45 119.46 1588.11 119.124C1595.5 118.964 1602.79 117.368 1609.58 114.426C1614.53 112.035 1618.48 107.988 1620.76 102.986C1621.37 101.611 1621.88 100.191 1622.27 98.7392C1622.73 96.9348 1623.05 95.098 1623.23 93.2449V93.205ZM36.5201 0.859375V119.108H0.5V0.859375H36.5201ZM119.843 0.859375L191.564 90.7333L190.634 0.859375H224.689V119.108H166.86L96.1215 30.1095L97.0247 119.108H62.4922V0.859375H119.843ZM376.795 27.6411V0.859375H251.203V119.108H287.037V77.9927H372.2V51.2111H287.037V27.6411H376.795ZM433.72 0.859375V119.108H397.727V0.859375H433.72ZM588.782 90.7333L517.061 0.859375H459.816V119.108H494.349L493.472 30.1095L564.078 119.108H621.907V0.859375H587.852L588.782 90.7333ZM684.345 0.859375V119.108H648.352V0.859375H684.345ZM703.156 0.859375V30.1095H755.832V119.108H791.852V30.0564H844.554V0.859375H703.156ZM994.657 27.6411H899.029V48.0259H989.158V71.4101H899.029V92.3524H995.906V119.108H863.566V0.859375H994.657V27.6411ZM1167.25 79.3995L1124.14 0.859375H1066.87V119.108H1101.64L1100.58 27.8269L1152.22 119.108H1180.96L1233.47 27.8269L1231.69 119.108H1266.81V0.859375H1210.04L1167.25 79.3995ZM1399.38 0.859375L1464.14 119.108H1424.75L1413.06 97.8733H1336.77L1325.4 119.108H1284.6L1351.01 0.859375H1399.38ZM1374.92 26.2077L1349.71 73.3743H1400.39L1374.92 26.2077ZM1683.14 0.859375V44.655H1765.12V0.859375H1801.14V119.108H1765.12V73.9848H1683.14V119.108H1647.12V0.859375H1683.14ZM1863.47 119.108V0.859375H1827.45V119.108H1863.47ZM1946.81 0.859375L2018.53 90.7333L2017.6 0.859375H2051.65V119.108H1993.82L1923.22 30.1095L1924.09 119.108H1889.56V0.859375H1946.81ZM2113.65 27.6411H2209.27V0.859375H2078.16V119.108H2210.57V92.3524H2113.65V71.4101H2203.77V48.0259H2113.65V27.6411Z" fill="currentColor"></path>
</svg>