<svg xmlns="http://www.w3.org/2000/svg" version="1.1" xmlns:xlink="http://www.w3.org/1999/xlink" width="1000" height="1000"><metadata><rdf:RDF xmlns:rdf="http://www.w3.org/1999/02/22-rdf-syntax-ns#" xmlns:dc="http://purl.org/dc/elements/1.1/"><rdf:Description><dc:creator>RealFaviconGenerator</dc:creator><dc:source>https://realfavicongenerator.net</dc:source></rdf:Description></rdf:RDF></metadata><style>
    #light-icon {
      display: inline;
    }
    #dark-icon {
      display: none;
    }

    @media (prefers-color-scheme: dark) {
      #light-icon {
        display: none;
      }
      #dark-icon {
        display: inline;
      }
    }
  </style><g id="light-icon"><svg xmlns="http://www.w3.org/2000/svg" version="1.1" xmlns:xlink="http://www.w3.org/1999/xlink" width="1000" height="1000"><g><g transform="matrix(33.00863705317479,0,0,33.00863705317479,59.4170584912917,0)"><svg xmlns="http://www.w3.org/2000/svg" version="1.1" id="Layer_1" viewBox="0 0 26.6950096 30.2951012" width="26.6950096" height="30.2951012"><defs>
    <style>
      .st0 {
        fill: #1b0a3d;
      }

      .st1 {
        fill: #04b88e;
      }
    </style>
  </defs><path class="st0" d="M26.6950077.158535c0-.087556-.0709991-.158535-.1585007-.158535H9.7324375c-.0427904,0-.0837498.017293-.1135998.047949L2.2178177,7.6504698c-.0488999.05023-.01331.1345596.0567999.1345596h12.0454903L.0448908,22.4638996c-.02878.0296001-.0448826.0692997-.0448826.1105003v7.5622005c0,.0874996.0709786.1585007.158535.1585007h26.3779657c.0874996,0,.1585007-.0709991.1585007-.1585007v-7.455101c0-.0876007-.0709991-.1585999-.1585007-.1585999h-14.1616001l14.2751999-14.6788702c.0287991-.0295897.0449009-.0692396.0449009-.1105299l-.0000019-7.5749645Z"></path><path class="st1" d="M.0000004.158535C.0000004.070979.070979,0,.1585354,0h6.2619848c.0700998,0,.1057.084316.0567999.134553L.136073,6.6500998c-.0496163.0509801-.136073.0158601-.136073-.0552802L.0000004.158535Z"></path></svg></g></g></svg></g><g id="dark-icon"><svg xmlns="http://www.w3.org/2000/svg" version="1.1" xmlns:xlink="http://www.w3.org/1999/xlink" width="1000" height="1000"><g><g transform="matrix(33.00863705317479,0,0,33.00863705317479,59.4170584912917,0)"><svg xmlns="http://www.w3.org/2000/svg" version="1.1" id="Layer_1" viewBox="0 0 26.6950096 30.2951012" width="26.6950096" height="30.2951012"><defs>
    <style>
      .st0 {
        fill: #fff;
      }

      .st1 {
        fill: #04b88e;
      }
    </style>
  </defs><path class="st0" d="M26.6950077.158535c0-.087556-.0709991-.158535-.1585007-.158535H9.7324375c-.0427904,0-.0837498.017293-.1135998.047949L2.2178177,7.6504698c-.0488999.05023-.01331.1345596.0567999.1345596h12.0454903L.0448908,22.4638996c-.02878.0296001-.0448826.0692997-.0448826.1105003v7.5622005c0,.0874996.0709786.1585007.158535.1585007h26.3779657c.0874996,0,.1585007-.0709991.1585007-.1585007v-7.455101c0-.0876007-.0709991-.1585999-.1585007-.1585999h-14.1616001l14.2751999-14.6788702c.0287991-.0295897.0449009-.0692396.0449009-.1105299l-.0000019-7.5749645Z"></path><path class="st1" d="M.0000004.158535C.0000004.070979.070979,0,.1585354,0h6.2619848c.0700998,0,.1057.084316.0567999.134553L.136073,6.6500998c-.0496163.0509801-.136073.0158601-.136073-.0552802L.0000004.158535Z"></path></svg></g></g></svg></g></svg>