<svg fill="none" height="42" viewBox="0 0 121 42" width="121" xmlns="http://www.w3.org/2000/svg"><path d="m38.6964 6.87263v5.28867h13.204c.0875 0 .1585.071.1585.1585v6.297c0 .0876-.071.1585-.1585.1585h-13.204v5.2329h13.204c.0875 0 .1585.071.1585.1586v6.2927c0 .0875-.071.1585-.1585.1585h-21.9209c-.0876 0-.1586-.071-.1586-.1585v-30.050965c0-.087556.071-.158535.1586-.158535h21.9209c.0875 0 .1585.070979.1585.158535v6.292825c0 .0875-.0709.15845-.1584.15854zm38.0523 13.43397c.9183-.5116 1.7524-1.1612 2.4732-1.9259 1.8421-2.0147 2.8634-4.6446 2.8634-7.3732 0-2.72858-1.0213-5.35854-2.8634-7.37326-1.0474-1.07799-2.3029-1.93257-3.6904-2.51204-1.3875-.579474-2.8782-.871793-4.3821-.85932h-15.7631c-.0875 0-.1585.070979-.1585.158535v29.977985c0 .0876.071.1585.1585.1585h8.5584c.0876 0 .1585-.0709.1585-.1585v-8.7031h3.5725l4.5972 8.7724c.0274.0523.0815.085.1404.085h9.4449c.1192 0 .1958-.1266.1404-.2322zm-2.7309-9.2991c0 .8064-.3006 2.6851-3.0616 2.6851h-6.8702v-5.37879h6.8702c2.761 0 3.0616 1.87869 3.0616 2.68509m40.5172 4.4437c.001-3.0025-.89-5.93774-2.559-8.4346-1.669-2.49685-4.042-4.44312-6.819-5.59269-2.777-1.149578-5.8322-1.4508077-8.7802-.86558-2.948.58523-5.6561 2.03062-7.7818 4.15337-2.1256 2.12275-3.5733 4.8275-4.16 7.7722s-.286 5.997.864 8.771c1.1501 2.774 3.0978 5.145 5.5969 6.8132 2.499 1.6681 5.4372 2.5585 8.4428 2.5585 1.9953.0006 3.9713-.3915 5.8153-1.1539 1.843-.7624 3.519-1.8801 4.93-3.2894 1.411-1.4092 2.53-3.0823 3.294-4.9237.764-1.8415 1.157-3.8152 1.157-5.8084zm-8.837 0c0 1.2564-.373 2.4845-1.072 3.5292-.699 1.0446-1.692 1.8588-2.854 2.3396s-2.4403.6066-3.6739.3615-2.3667-.8501-3.256-1.7385c-.8894-.8884-1.495-2.0203-1.7404-3.2525-.2454-1.2323-.1194-2.5095.3619-3.6703.4813-1.1607 1.2963-2.1528 2.3421-2.8508 1.0458-.69805 2.2753-1.07063 3.533-1.07063 1.6863 0 3.3043.66928 4.4963 1.86063 1.193 1.1913 1.863 2.807 1.863 4.4918zm-79.003-15.034065c0-.087556-.071-.158535-.1585-.158535h-16.80407c-.04279 0-.08375.017293-.1136.047949l-7.40102 7.602521c-.0489.05023-.01331.13456.0568.13456h12.04549l-14.2752174 14.67887c-.02878.0296-.0448826.0693-.0448826.1105v7.5622c0 .0875.0709786.1585.158535.1585h26.377965c.0875 0 .1585-.071.1585-.1585v-7.4551c0-.0876-.071-.1586-.1585-.1586h-14.1616l14.2752-14.67887c.0288-.02959.0449-.06924.0449-.11053z" fill="#fff"/><path d="m0 .408535c0-.087556.0709786-.158535.158535-.158535h6.261985c.0701 0 .1057.084316.0568.134553l-6.341247 6.515547c-.0496163.05098-.136073.01586-.136073-.05528z" fill="#04b88e"/><path d="m119.945 25.2802c.377.5643.578 1.2277.578 1.9064 0 .91-.361 1.7828-1.006 2.4264-.644.6435-1.518 1.005-2.429 1.005-.679 0-1.343-.2012-1.908-.5783-.565-.377-1.005-.913-1.265-1.54s-.328-1.3169-.196-1.9826c.133-.6656.46-1.277.94-1.7569.481-.4799 1.093-.8067 1.759-.9391.667-.1324 1.357-.0644 1.985.1953s1.164.6995 1.542 1.2638z" fill="#04b88e"/><g fill="#fff"><path d="m6.34301 33.1602h1.84953v8.4408h-1.78747l-4.55554-6.1071v6.1071h-1.84953v-8.4408h2.29639l4.04662 5.4245z"/><path d="m16.7708 38.9819h-5.0768c.1986.8069.9185 1.2537 2.0729 1.2537.7696 0 1.4896-.211 2.1723-.633l.5586 1.4026c-.7821.4965-1.7254.7448-2.8302.7448-2.4577 0-3.91006-1.2165-3.91006-3.2894 0-1.9737 1.43986-3.2895 3.59976-3.2895 2.0978 0 3.4384 1.2786 3.4384 3.2895 0 .1862 0 .3351-.0249.5213zm-3.4259-2.3336c-.8317 0-1.4151.422-1.6261 1.142h3.2646c-.2234-.72-.8069-1.142-1.6385-1.142z"/><path d="m22.9585 39.9377.3227 1.4275c-.5213.2607-1.1171.3848-1.8247.3848-1.6136 0-2.3957-.6455-2.3957-1.9737v-3.0535h-1.5143v-1.4027h1.5143v-2.1599h1.862v2.1599h2.1971v1.4027h-2.1971v2.6563c0 .5958.2606.8317.9061.8317.3848 0 .7572-.0869 1.1296-.2731z"/><path d="m32.9578 35.3201h1.8744l-2.1723 6.2809h-1.8495l-1.4027-4.059-1.4027 4.059h-1.8619l-2.1723-6.2809h1.9613l1.2785 4.0839 1.4275-4.0839h1.6137l1.4275 4.0839z"/><path d="m39.0317 41.75c-2.1598 0-3.5997-1.3158-3.5997-3.2894 0-1.9737 1.4399-3.2895 3.5997-3.2895 2.1599 0 3.5997 1.3158 3.5997 3.2895 0 1.9736-1.4398 3.2894-3.5997 3.2894zm0-1.5392c1.0427 0 1.7006-.6827 1.7006-1.7502s-.6579-1.7503-1.7006-1.7503-1.7006.6828-1.7006 1.7503.6579 1.7502 1.7006 1.7502z"/><path d="m48.4048 35.1711c.1738 0 .36.0125.5089.0497l-.1117 1.7378c-.2358-.0372-.5213-.0621-.7944-.0621-.9434 0-1.6013.3104-2.0978.9807v3.7238h-1.8619v-6.2809h1.8619v1.3034c.571-.9683 1.3654-1.4524 2.495-1.4524z"/><path d="m55.0614 41.601-1.8248-2.6563-1.2537 1.1544v1.5019h-1.8619v-8.8131h1.8619v5.2134l2.855-2.6812h2.3461l-2.5819 2.3709 2.706 3.91z"/><path d="m61.3537 41.75c-1.4026 0-2.5943-.3227-3.4135-.8813l.6206-1.291c.7324.4841 1.6509.7696 2.7805.7696.9186 0 1.3406-.1862 1.3406-.5337 0-.3724-.2606-.4717-1.4523-.5834-2.2591-.211-2.9915-.7076-2.9915-2.0357 0-1.2786 1.142-2.0234 3.0536-2.0234 1.1544 0 2.1598.2607 2.917.7572l-.5958 1.2289c-.6082-.3724-1.3406-.5834-2.2468-.5834-.8316 0-1.2537.1862-1.2537.5213 0 .3724.2731.4717 1.4648.5835 2.2343.211 2.9791.7075 2.9791 2.0357s-1.1172 2.0357-3.2026 2.0357z"/></g></svg>