<?xml version="1.0" encoding="UTF-8"?>
<svg id="COMARCH" xmlns="http://www.w3.org/2000/svg" viewBox="0 0 239.99995732 36.85648426">
  <defs>
    <style>
      .cls-1, .cls-2 {
        fill: #152a94;
      }

      .cls-3 {
        fill: #152a94;
      }

      .cls-2 {
        fill-rule: evenodd;
      }
    </style>
  </defs>
  <path class="cls-2" d="M50.7814482,0c-10.17777321,0-18.42839597,8.25054341-18.42839597,18.42823726,0,10.17761449,8.25062276,18.42823726,18.42839597,18.42823726,10.17761449,0,18.42807854-8.25062276,18.42807854-18.42823726,0-10.17769385-8.25046405-18.42823726-18.42807854-18.42823726ZM50.78135694,29.48513304c-6.10663724,0-11.05703263-4.95039539-11.05703263-11.05686918,0-6.10663724,4.95039539-11.05695091,11.05703263-11.05695091,6.10647379,0,11.05686918,4.95031367,11.05686918,11.05695091,0,6.10647379-4.95039539,11.05686918-11.05686918,11.05686918Z"/>
  <path class="cls-1" d="M103.05317157,36.31974158h3.5255125c1.08714886,0,1.92303865-.96157896,1.77173927-2.03814811l-4.52599695-32.2046838c-.1241287-.88323645-.87982304-1.54015306-1.77173927-1.54015306h-4.08209428c-.77510556,0-1.46205968.49910023-1.7015821,1.2362689l-5.69083459,17.51445655-5.69090862-17.51446288c-.2395244-.73716545-.92647693-1.23626257-1.70158005-1.23626257h-4.08203889c-.89190906,0-1.64759962.65690632-1.77173664,1.54013435l-4.52634366,32.2046838c-.1513118,1.07657508.68458018,2.03816681,1.77173664,2.03816681h3.52558521c.89191097,0,1.64760254-.65690906,1.77173734-1.54013934l2.50755099-17.84145048,4.47953772,13.78702166,1.23047245,3.78712869c.78247232,2.40828096,4.18954421,2.40829445,4.9720356.00001969l1.23041186-3.78684018,4.47953772-13.78671347,2.50725762,17.84081424c.12412596.88323922.87982154,1.5401592,1.77174013,1.5401592Z"/>
  <path class="cls-1" d="M122.49937113,1.7730253l-10.46401896,32.2046838c-.3756104,1.1560008.48608994,2.34203248,1.70158203,2.34203248h3.6706989c.77510587,0,1.46206018-.49910061,1.70158236-1.23626968l2.50500068-7.70955361h11.13119666l2.50492998,7.70954035c.23951802.73717582.92647566,1.23628293,1.70158666,1.23628293h3.67068321c1.21549355,0,2.07719406-1.18603434,1.70158096-2.34203579L131.86010531,1.77302199c-.23952352-.73716688-.92647676-1.23626537-1.70158096-1.23626537h-5.95757118c-.77510548,0-1.46205955.49910012-1.70158203,1.23626869ZM123.93950766,20.21744457l3.24030682-9.97271147,3.24030682,9.97271147h-6.48061364Z"/>
  <path class="cls-1" d="M220.31930036,34.53058061v-12.52402679h12.52405443v12.52404756c0,.98812329.80103422,1.78915441,1.7891575,1.78915058l3.57830136-.00001384c.98811788-.00000382,1.78914366-.8010327,1.78914366-1.78915058V2.32589681c0-.98812058-.80103-1.78915058-1.78915058-1.78915058h-3.57830136c-.98812058,0-1.78915058.80103-1.78915058,1.78915058v12.52405448h-12.52405443V2.32589681c0-.98812058-.80103-1.78915058-1.78915058-1.78915058h-3.57830136c-.98812058,0-1.78915058.80103-1.78915058,1.78915058v32.2046838c0,.98812058.80103,1.78915058,1.78915058,1.78915058h3.57830136c.98812058,0,1.78915058-.80103,1.78915058-1.78915058Z"/>
  <path class="cls-2" d="M25.00247178,27.31565203c-2.20061907,1.63183425-5.02696619,2.46685159-8.05526366,2.07293587-4.97851119-.64759617-8.95775041-4.71587548-9.50681207-9.70621473-.7336745-6.66825779,4.46812375-12.31104861,10.98792104-12.31104861,2.47077905,0,4.75083491.81198123,6.59120372,2.18212529.72317528.53839986,1.73604908.44504484,2.37356892-.19247015l2.62949826-2.62947825c.77827284-.77826692.70882379-2.06512051-.15348421-2.74910364C26.57082333,1.36620016,22.35640255-.14486656,17.78451779.0109895,8.39453544.33109503.61750148,7.87701608.03642918,17.25446728c-.66360456,10.70937179,7.82562689,19.60200514,18.39196728,19.60200514,4.3173268,0,8.28706363-1.48549549,11.42792754-3.97234913.8679963-.6872567.94889532-1.97653362.16603539-2.75939356l-2.62979787-2.62979787c-.6431876-.6431876-1.65944776-.72107583-2.39008973-.17927983Z"/>
  <path class="cls-2" d="M202.23381627,27.31566387c-2.20061907,1.63183425-5.02696619,2.46685159-8.05526366,2.07293587-4.97851119-.64759617-8.95775041-4.71587548-9.50681207-9.70621473-.7336745-6.66825779,4.46812375-12.31104861,10.98792104-12.31104861,2.47077905,0,4.75083491.81198123,6.59120372,2.18212529.72317528.53839986,1.73604908.44504484,2.37356892-.19247015l2.62949826-2.62947825c.77827284-.77826692.70882379-2.06512051-.15348421-2.74910364-3.29828045-2.61619765-7.51270123-4.12726437-12.084586-3.97140831-9.38998235.32010554-17.1670163,7.86602658-17.74808861,17.24347778-.66360456,10.70937179,7.82562689,19.60200514,18.39196728,19.60200514,4.3173268,0,8.28706363-1.48549549,11.42792754-3.97234913.8679963-.6872567.94889532-1.97653362.16603539-2.75939356l-2.62979787-2.62979787c-.6431876-.6431876-1.65944776-.72107583-2.39008973-.17927983Z"/>
  <path class="cls-3" d="M165.67805455,22.97727077c4.35932766-1.72203418,7.43339172-5.99283816,7.36204879-10.98097786-.09161992-6.40586254-5.51964433-11.45955214-11.92616203-11.45955115l-11.33158772.00000175c-.98812047.00000015-1.78915031.80103011-1.78915031,1.78915058v32.20471176c0,.98812058.80103,1.78915058,1.78915058,1.78915058h3.57828296c.98812777,0,1.78916075-.80104122,1.78915058-1.78916898l-.00011041-10.73476476h2.38508032l8.56346571,11.78640325c.33663479.46333033.87473383.7375028,1.44744491.7375028h4.31503672c1.46186703,0,2.30671868-1.65813934,1.4474406-2.84080429l-7.6300907-10.50165368ZM161.41178412,16.63904079l-6.26197831.00005869V7.69334631l6.26197831.00017938c2.47044887,0,4.47275755,2.00261686,4.47275755,4.47275755s-2.00230867,4.47275755-4.47275755,4.47275755Z"/>
</svg>