<svg viewbox="0 0 933 131" class="fill-black dark:fill-white hidden h-6.25 sm:block lg:h-6.5 2xl:h-7.75"><path d="M61.54,94.18l34.85-60.36h-44.79L.51,122.31c-1.46,2.51.36,5.65,3.26,5.65h175.01l19.5-33.77H61.54Z"></path><path d="M115.89.05l-19.5,33.77h136.74l-34.85,60.36h44.79L294.17,5.7c1.46-2.51-.36-5.65-3.26-5.65H115.89Z"></path><path d="M446.61,0h-22.94v24.15h22.94V0Z"></path><path d="M351.2,19.64v34.2h61.24v19.48h-61.24v54.75h-22.6V0h84.83v19.64h-62.23Z"></path><path d="M446.12,33.42h-21.95v94.65h21.95V33.42Z"></path><path d="M483.55,0h-21.95v128.07h21.95V0Z"></path><path d="M635.31,66.75v61.32h-21.98v-57.37c0-18.46-9.1-23.59-18.16-23.59s-16.98,5.11-16.98,25.62v55.34h-21.96v-57.38c0-12.99-5.16-23.59-18.16-23.59-11.23,0-16.98,8.65-16.98,24.83v56.14h-21.96V33.42h21.8v20.31s6.11-22.63,26.4-22.63,28.97,19.95,30.26,23.23c0,0,5.18-23.23,26.68-23.23s31.04,15.22,31.04,35.65Z"></path><path d="M731.39,66.75v61.32h-21.95v-58.53c0-18.47-9.11-22.9-18.16-22.9s-19.67,4.97-19.67,24.4v57.03h-21.95V0h21.99v53.58s6.27-22.95,27.95-22.95c19.97,0,31.79,15.69,31.79,36.12Z"></path><path d="M825.97,33.42v94.65h-21.76l-.03-19.75s-3.06,14.38-17.03,19.75c-3.2,1.22-6.98,1.98-11.43,1.98s-8.16-.69-11.57-1.98c-12.42-4.69-18.88-17.3-18.88-33.33v-61.32h21.95v58.53c0,16.59,8.76,21.93,17.81,21.93s18.99-4.33,18.99-23.76v-56.7h21.95Z"></path><path d="M894.4,32.85c-20.41,0-30.03,19.85-31.2,25.45l.15-58.3h-21.94v128.07h21.75l.04-21.39s4.35,15.75,19.6,21.39c3.33,1.23,7.17,1.98,11.6,1.98,4.07,0,8.06-.66,11.82-1.98,14.73-5.18,26.13-20.56,26.13-46.71,0-28.78-15.65-48.51-37.95-48.51ZM885.64,114.2c-17.51,0-23.1-15.11-23.1-34.32s8.42-31.18,23.1-31.18c17.58,0,24.42,15.23,24.42,32.66s-6.93,32.84-24.42,32.84Z"></path></svg>