<svg width="160" height="40" viewbox="0 0 160 40" fill="none" xmlns="http://www.w3.org/2000/svg"><path d="M99.7888 25.0127L94.4218 14.332H90.2717V33.4308H94.57V22.9374L98.2521 30.2867H101.326L105 22.9374V33.4308H109.306V14.332H105.148L99.7888 25.0127Z" fill="#0A0B12" class="logo-text"></path><path d="M81.176 29.4987L77.9308 20.8465H68.5697L64.8331 25.7773V14.332H60.5037V33.423H64.8331V27.5951L69.1938 33.423H74.4516L68.9286 26.4638L73.2893 21.1118L77.7124 31.8081C78.3131 33.423 78.9683 34.5933 78.9683 35.2799C78.9683 35.9664 78.5159 36.1771 77.9542 36.1771C76.9353 36.0237 75.9523 35.6881 75.0523 35.1863L73.5857 38.6269C74.9215 39.404 76.414 39.8731 77.9542 40C81.176 40 82.3461 38.0885 83.9843 33.6649C85.1232 30.6456 88.735 21.182 88.8287 20.8465H84.1481L81.176 29.4987Z" fill="#0A0B12"></path><path d="M146.383 20.8466H142.233V33.4309H146.383V20.8466Z" fill="#0A0B12" class="logo-text"></path><path d="M159.169 29.5065C159.169 27.6575 157.71 26.4638 155.854 25.7772L153.514 24.997C152.944 24.7318 152.64 24.6069 152.64 24.1622C152.64 23.7175 152.999 23.5615 153.896 23.5615C155.185 23.62 156.451 23.9163 157.632 24.4353L158.748 21.3146C157.317 20.7435 155.795 20.4343 154.255 20.4017C150.58 20.4017 148.849 21.9621 148.849 24.4665C148.849 26.4013 150.339 27.6574 152.437 28.5L154.239 29.0618C154.808 29.2724 155.526 29.5143 155.526 29.9902C155.526 30.4661 154.808 30.5909 154.028 30.5909C152.368 30.5361 150.753 30.0407 149.348 29.1554L148.092 32.5336C149.743 33.4282 151.597 33.8798 153.475 33.8443C156.837 33.8131 159.349 32.5024 159.169 29.5065Z" fill="#0A0B12" class="logo-text"></path><path d="M133.746 28.7655L131.055 20.8466H126.421L131.71 33.4309H133.746H135.751L141.063 20.8466H136.437L133.746 28.7655Z" fill="#0A0B12" class="logo-text"></path><path d="M144.269 13.8248C143.759 13.8248 143.26 13.9762 142.835 14.26C142.41 14.5438 142.079 14.9471 141.884 15.4189C141.689 15.8908 141.637 16.4101 141.737 16.911C141.837 17.4119 142.083 17.8721 142.444 18.2332C142.805 18.5944 143.265 18.8403 143.766 18.94C144.267 19.0396 144.786 18.9885 145.258 18.793C145.729 18.5976 146.133 18.2666 146.416 17.8419C146.7 17.4172 146.852 16.9179 146.852 16.4072C146.85 15.7229 146.577 15.0673 146.093 14.5834C145.609 14.0996 144.954 13.8268 144.269 13.8248Z" fill="#0A0B12" class="logo-text"></path><path d="M55.121 22.5472L51.9538 20.55C50.8773 19.918 50.5185 19.4733 50.5185 18.9272C50.5185 18.3811 50.8773 17.8505 52.2503 17.8505C53.8206 17.9344 55.3527 18.3661 56.7358 19.1144L58.1087 15.2135C56.2406 14.3344 54.2056 13.8661 52.1411 13.8404C48.069 13.8404 45.9472 15.8689 45.9472 18.9428C45.9472 21.1195 47.0471 22.8437 49.4654 24.326L52.4219 26.0893C53.5608 26.7446 54.2785 27.2907 54.2785 28.1567C54.2785 29.0227 53.4984 29.7171 51.9382 29.7171C50.073 29.6022 48.2695 29.0054 46.7039 27.9851L44.4728 31.886C46.6773 33.2083 49.2039 33.8968 51.7744 33.8755C56.1585 33.8755 58.7952 31.8704 58.7952 28.2035C58.764 25.4417 57.3676 23.8579 55.121 22.5472Z" fill="#0A0B12" class="logo-text"></path><path d="M121.202 22.563C120.727 21.8633 120.087 21.2911 119.339 20.8966C118.591 20.5021 117.757 20.2974 116.912 20.3004C113.479 20.3004 110.827 23.1871 110.827 27.088C110.827 31.145 113.479 33.8756 116.912 33.8756C117.758 33.9344 118.604 33.7621 119.359 33.3774C120.115 32.9926 120.752 32.4098 121.202 31.6911V33.4231H125.259V20.8466H121.202V22.563ZM117.926 30.0527C117.537 30.0641 117.15 29.9947 116.79 29.8487C116.429 29.7027 116.103 29.4834 115.831 29.2047C115.56 28.9259 115.35 28.5938 115.213 28.2295C115.077 27.8651 115.018 27.4764 115.04 27.088C115.019 26.7036 115.08 26.3193 115.218 25.9599C115.356 25.6005 115.568 25.2741 115.84 25.0019C116.112 24.7297 116.438 24.5178 116.798 24.3799C117.157 24.242 117.541 24.1811 117.926 24.2013C118.314 24.1796 118.703 24.2387 119.067 24.375C119.431 24.5114 119.764 24.7219 120.042 24.9933C120.321 25.2647 120.54 25.591 120.686 25.9516C120.832 26.3122 120.902 26.6992 120.89 27.088C120.903 27.4809 120.835 27.8722 120.691 28.2378C120.547 28.6034 120.329 28.9355 120.051 29.2134C119.773 29.4913 119.441 29.7092 119.075 29.8536C118.71 29.998 118.319 30.0657 117.926 30.0527Z" fill="#0A0B12"></path><path d="M27.7086 4.61869C27.5297 4.62075 27.3522 4.58741 27.1862 4.5206C27.0203 4.45379 26.8691 4.35482 26.7415 4.22938C26.6139 4.10395 26.5124 3.95452 26.4428 3.7897C26.3731 3.62488 26.3367 3.4479 26.3357 3.26897C26.3214 3.07942 26.3464 2.88896 26.4091 2.70952C26.4719 2.53008 26.5709 2.36553 26.7002 2.22617C26.8294 2.0868 26.9861 1.97563 27.1603 1.8996C27.3345 1.82357 27.5225 1.78431 27.7125 1.78431C27.9026 1.78431 28.0906 1.82357 28.2648 1.8996C28.439 1.97563 28.5956 2.0868 28.7249 2.22617C28.8541 2.36553 28.9532 2.53008 29.0159 2.70952C29.0787 2.88896 29.1037 3.07942 29.0894 3.26897C29.0884 3.44857 29.0517 3.62619 28.9816 3.79153C28.9115 3.95687 28.8093 4.10663 28.6808 4.23217C28.5524 4.35771 28.4004 4.45651 28.2335 4.52286C28.0666 4.5892 27.8882 4.62179 27.7086 4.61869ZM22.8955 4.61869C22.5376 4.61869 22.1943 4.47648 21.9412 4.22336C21.6881 3.97024 21.546 3.62693 21.546 3.26897C21.5439 2.90746 21.6844 2.55972 21.937 2.30119C22.1897 2.04266 22.5341 1.89421 22.8955 1.88805C23.0792 1.88495 23.2616 1.9183 23.4322 1.98622C23.6029 2.05413 23.7584 2.15525 23.8898 2.28369C24.0211 2.41213 24.1256 2.56534 24.1973 2.73447C24.269 2.9036 24.3065 3.08527 24.3075 3.26897C24.3044 3.45064 24.2654 3.6299 24.1926 3.79637C24.1198 3.96284 24.0147 4.1132 23.8833 4.23874C23.752 4.36429 23.5971 4.46252 23.4275 4.52774C23.2579 4.59296 23.0771 4.62388 22.8955 4.61869ZM27.7944 0C27.3243 0.00790726 26.8611 0.11483 26.435 0.313782C26.0089 0.512735 25.6295 0.79926 25.3216 1.15468C25.008 0.795921 24.6221 0.507572 24.1891 0.308568C23.7562 0.109564 23.2861 0.00439946 22.8097 0C21.9428 0 21.1115 0.344417 20.4985 0.957466C19.8855 1.57052 19.5411 2.40198 19.5411 3.26897C19.5411 4.13595 19.8855 4.96742 20.4985 5.58047C21.1115 6.19352 21.9428 6.53793 22.8097 6.53793C23.2951 6.54761 23.7769 6.45177 24.2217 6.25705V8.90188H26.3903V6.25705C26.8327 6.45067 27.3116 6.54648 27.7944 6.53793C28.6613 6.53793 29.4927 6.19352 30.1057 5.58047C30.7187 4.96742 31.063 4.13595 31.063 3.26897C31.063 2.40198 30.7187 1.57052 30.1057 0.957466C29.4927 0.344417 28.6613 0 27.7944 0Z" fill="#2065EE" class="logo-bird"></path><path d="M0 39.9843H2.51186C4.6103 39.9843 6.04566 39.5084 6.99737 38.0729L15.5783 24.8098C16.0542 25.59 15.9216 26.7212 14.8762 28.344L7.34842 39.9843H9.68868C11.7871 39.9843 13.2225 39.5084 14.1742 38.0729L22.7552 24.8098C23.231 25.59 23.1062 26.7212 22.0531 28.344L14.6032 39.8829H16.8265C18.9639 39.8829 20.3759 39.3758 21.3042 37.9168L22.7942 35.6621H22.8488C28.481 35.6621 33.38 32.1435 33.38 24.7864V20.3081C33.38 16.9299 39.3554 17.2966 39.3554 14.3397H33.5282C33.0757 14.3397 33.0211 14.2851 32.6232 13.856C31.7357 12.7654 30.6182 11.8844 29.3505 11.2761C28.0829 10.6678 26.6964 10.3472 25.2904 10.3374C20.6957 10.3374 18.02 12.4517 15.4301 16.2824L0 39.9843Z" fill="#2065EE" class="logo-bird"></path></svg>