<svg id="Capa_1" xmlns="http://www.w3.org/2000/svg" version="1.1" viewbox="0 0 123.1 29.5">
        
    <defs>
        <style>
                .st0 {
                    fill: #fff !important;
                }
        </style>
    </defs>
    <g>
        <circle class="st0" cx="4.4" cy="4.4" r="4.4"></circle>
        <circle class="st0" cx="14.8" cy="4.4" r="4.4"></circle>
        <circle class="st0" cx="25.1" cy="4.4" r="4.4"></circle>
        <circle class="st0" cx="14.8" cy="14.8" r="4.4"></circle>
        <circle class="st0" cx="14.8" cy="25.1" r="4.4"></circle>
    </g>
    <g>
        <path class="st0" d="M38.9,11.3h-4.1v-2.5h10.8v2.4h-4.1v11.2h-2.5v-11.2Z"></path>
        <path class="st0" d="M54.2,19.7c-.2.8-1.4,3.1-4.6,3.1s-5.1-2.2-5.1-5.2,2.2-5.2,5.1-5.2,4.9,2.2,4.9,5,0,.5,0,.7v.3h-7.5c.2,1.4,1.3,2.4,2.6,2.4s1.9-.7,2.1-1.1h2.5ZM52,16.7c-.2-1.3-1.1-2.3-2.4-2.3s-2.4,1-2.6,2.3h5.1Z"></path>
        <path class="st0" d="M55.9,8.9h2.4v13.7h-2.4v-13.7Z"></path>
        <path class="st0" d="M69.5,19.7c-.2.8-1.4,3.1-4.6,3.1s-5.1-2.2-5.1-5.2,2.2-5.2,5.1-5.2,4.9,2.2,4.9,5,0,.5,0,.7v.3h-7.5c.2,1.4,1.3,2.4,2.6,2.4s1.9-.7,2.1-1.1h2.5ZM67.4,16.7c-.2-1.3-1.1-2.3-2.4-2.3s-2.4,1-2.6,2.3h5.1Z"></path>
        <path class="st0" d="M72.1,15h-1.7v-2.4h1.7v-1.5c0-1.5,1-2.4,2.4-2.4h2.2v2.2h-1.5c-.4,0-.7.3-.7.7v1.1h2.1v2.4h-2.2v7.6h-2.4v-7.6h0Z"></path>
        <path class="st0" d="M87.2,17.6c0,3-2.2,5.2-5.1,5.2s-5.1-2.2-5.1-5.2,2.2-5.2,5.1-5.2,5.1,2.2,5.1,5.2ZM84.8,17.6c0-1.8-1.2-2.9-2.6-2.9s-2.7,1.2-2.7,2.9,1.2,2.9,2.6,2.9,2.7-1.2,2.7-2.9Z"></path>
        <path class="st0" d="M88.7,12.6h2.3l.2,1h0c.2-.2.4-.4.7-.6.5-.3,1.1-.6,2.1-.6,2.3,0,3.9,1.7,3.9,4.2v6h-2.4v-5.8c0-1.3-.9-2.2-2.2-2.2s-2.2.9-2.2,2.2v5.8h-2.4v-10h0Z"></path>
        <path class="st0" d="M113.5,18.9c-.3,1.6-1.5,3.9-4.7,3.9s-5.1-2.2-5.1-5.2,2.2-5.2,5.1-5.2,4.4,2.4,4.7,3.8h-2.4c-.2-.6-.8-1.6-2.3-1.6s-2.6,1.2-2.6,2.9,1.2,2.9,2.6,2.9,2-1,2.3-1.7c0,0,2.4,0,2.4,0Z"></path>
        <path class="st0" d="M120.8,21.6h0c-.2.2-.4.4-.7.6-.5.3-1.2.6-2.2.6-2.3,0-3.6-1.4-3.6-3s1.4-3.3,4.1-3.3h2.3v-.2c0-1.1-.7-1.9-1.8-1.9s-1.7.7-1.8,1.3h-2.4c.2-1.6,1.5-3.2,4.2-3.2s4.2,1.7,4.2,3.8v6.4h-2.1l-.2-.9ZM120.6,18.3h-2.1c-1.3,0-1.9.5-1.9,1.3s.6,1.3,1.6,1.3c1.5,0,2.4-.9,2.4-2.3v-.3Z"></path>
        <path class="st0" d="M99.8,12.6h2.4v10h-2.4v-10Z"></path>
        <circle class="st0" cx="101" cy="9.7" r="1.4"></circle>
        <polygon class="st0" points="83 8.4 85.6 8.4 83.2 11.2 81.2 11.2 83 8.4"></polygon>
    </g>
</svg>