<svg xmlns="http://www.w3.org/2000/svg" width="138" height="49" fill="none" viewbox="0 0 138 28" class="text-neutral-50 transition-colors hover:text-primary-400 pb-0.5"><path fill="currentColor" d="M62.2774 3.34775 64.7174 0l1.964 2.98812L64.35 6.188h-4.1365L57.877 2.9785 59.8366 0l2.4408 3.34775ZM55.8108 26.9163V8.43806h12.9366v3.64524H59.435v3.7686h7.5478v3.6497H59.435v3.7607h9.3124v3.654H55.8108Zm44.5562.0006h3.7V8.43867h-3.7V26.9169ZM83.2698 12.1901V8.43806h15.2024v3.75204h-5.7365v14.7262H89.002V12.1901h-5.7322Zm43.8912-3.75204L120.73 26.9163h3.82l1.372-3.9112h6.469l1.362 3.9112h3.827l-6.49-18.47824h-3.929Zm1.965 5.31824 1.951 5.6035h-3.919l1.968-5.6035ZM20.4081 17.7285c0 3.1228 2.5013 5.6638 5.5744 5.6638 3.0739 0 5.5752-2.541 5.5752-5.6638 0-3.115-2.5013-5.6499-5.5752-5.6499-3.0731 0-5.5744 2.5349-5.5744 5.6499Zm-3.8295-.0035c0-5.2597 4.2185-9.54016 9.4039-9.54016 5.1862 0 9.4046 4.28046 9.4046 9.54016 0 5.2631-4.2184 9.5453-9.4046 9.5453-5.1854 0-9.4039-4.2822-9.4039-9.5453ZM6.55501 23.0967h-2.8566V12.2213h2.8566c2.95664 0 5.36129 2.4351 5.36129 5.4294 0 3.003-2.40465 5.446-5.36129 5.446ZM6.51705 8.41594H0V26.8872h6.51705c5.01805 0 9.10115-4.1449 9.10115-9.2409 0-5.0899-4.0831-9.23036-9.10115-9.23036Zm34.17755.0217 4.6376 8.68526 4.6317-8.68526h4.171V26.9168H50.427V15.2399l-5.0948 9.5331-5.0939-9.5322v11.676h-3.6992V8.43764h4.1555Zm79.7554.00026h-4.48l-6.033 8.1629V8.4379h-3.649V26.917h3.649v-4.0049l1.799-2.478 4.292 6.4829h4.5l-6.444-9.716 6.366-8.7631Zm-44.131 7.326c.9513.2258 2.0881.5189 3.4819 1.2924 2.6763 1.4831 3.5966 4.3024 2.3727 6.8696-1.0307 2.1621-3.2645 3.4423-5.9728 3.4221-1.5715-.0113-3.1602-.4777-4.3513-1.2915-1.5327-1.0482-2.1519-2.4526-2.4081-3.0546l3.4397-1.4429c.7581 1.7483 2.2502 2.093 3.3818 2.1009.1182.0009.2398-.0017.3614-.0087.947-.0534 2.0286-.7237 2.2002-1.7518.1208-.7192-.2992-1.337-1.1531-1.6949-.8151-.343-1.3843-.4935-1.9864-.6518-.7339-.1943-1.4912-.3955-2.7125-.966-1.5818-.7403-2.6945-2.086-3.0524-3.6934-.364-1.6275.0768-3.3049 1.2385-4.7224 1.117-1.36323 2.9412-2.13673 5.0043-2.12098 1.687.01312 3.274.588 4.3858 1.54175 1.3457 1.15203 1.7782 2.38363 1.9267 2.80653.0087.0249.0165.047.0234.0661l.0155.0464-3.412 1.4306-.0846-.2013c-.0017-.0052-.2553-.5486-.8374-1.197-.4347-.4856-1.2239-.791-2.0588-.7971-.8944-.0061-1.6879.3299-2.1218.8986-.7159.938-.1397 1.9662.1518 2.2339.5429.5001 1.2565.6694 2.1605.8839l.007.0016Z"></path></svg>