<svg width="101" height="23" viewBox="0 0 101 23" fill="none" xmlns="http://www.w3.org/2000/svg">
<g clip-path="url(#clip0_1_5)">
<path d="M0 2.49397H4.37294V8.6631C5.9282 6.9652 8.00926 6.9652 8.61463 6.9652C11.671 6.9652 15.8069 9.20166 15.8069 14.8599C15.8069 20.5181 12.1443 22.9425 8.43007 22.9425C6.37443 22.9425 4.79374 21.9182 4.24087 20.8403H4.18919V22.43H0V2.49397ZM7.77138 18.7666C10.0116 18.7666 11.4339 16.9068 11.4339 14.9404C11.4339 12.9741 10.0116 11.1411 7.85094 11.1411C5.53282 11.1411 4.21544 13.0538 4.21544 14.9136C4.21544 16.9881 5.58532 18.7657 7.7722 18.7657" fill="black"/>
<path d="M32.435 17.7419C31.7238 19.413 30.696 20.7057 29.4582 21.568C28.2458 22.4572 26.798 22.9161 25.2952 22.9161C21.106 22.9161 17.5493 19.4406 17.5493 14.9946C17.5493 10.8186 20.764 6.96565 25.2165 6.96565C29.669 6.96565 32.9353 10.5762 32.9353 15.1296C32.9353 15.7219 32.8828 15.9643 32.8295 16.3141H21.8705C22.133 18.0934 23.5825 19.1428 25.2952 19.1428C26.6397 19.1428 27.3508 18.5229 27.9562 17.7419H32.435ZM28.5616 13.2975C28.377 12.4083 27.5075 10.7381 25.2419 10.7381C22.9763 10.7381 22.1068 12.4083 21.923 13.2975H28.5616Z" fill="black"/>
<path d="M39.7322 2.49313H35.3593V22.4308H39.7322V2.49313Z" fill="black"/>
<path d="M47.2664 7.47754H42.8935V22.4306H47.2664V7.47754Z" fill="black"/>
<path d="M64.523 17.7423C63.8119 19.4134 62.784 20.7061 61.5462 21.5684C60.3347 22.4576 58.886 22.9165 57.3833 22.9165C53.1941 22.9165 49.6373 19.441 49.6373 14.995C49.6373 10.819 52.852 6.96605 57.3045 6.96605C61.757 6.96605 65.0234 10.5766 65.0234 15.13C65.0234 15.7223 64.9709 15.9647 64.9176 16.3145H53.9586C54.2211 18.0938 55.6705 19.1432 57.3833 19.1432C58.7277 19.1432 59.4389 18.5233 60.0451 17.7423H64.523ZM60.6497 13.2979C60.4651 12.4087 59.5956 10.7385 57.33 10.7385C55.0643 10.7385 54.1948 12.4087 54.0111 13.2979H60.6497Z" fill="black"/>
<path d="M75.2176 22.4306H71.0284L65.7851 7.47754H70.3164L73.1103 16.8H73.1619L75.9542 7.47754H80.4863L75.2176 22.4306Z" fill="black"/>
<path d="M96.0839 17.7423C95.3727 19.4133 94.3449 20.7061 93.1071 21.5684C91.8947 22.4576 90.4461 22.9165 88.9441 22.9165C84.755 22.9165 81.1982 19.441 81.1982 14.995C81.1982 10.819 84.4129 6.96605 88.8654 6.96605C93.3179 6.96605 96.5843 10.5766 96.5843 15.13C96.5843 15.7223 96.5318 15.9647 96.4785 16.3145H85.5195C85.782 18.0938 87.2314 19.1432 88.9441 19.1432C90.2886 19.1432 90.9998 18.5233 91.6043 17.7423H96.0831H96.0839ZM92.2105 13.2979C92.026 12.4087 91.1565 10.7385 88.8908 10.7385C86.6252 10.7385 85.7557 12.4087 85.5719 13.2979H92.2105Z" fill="black"/>
<path d="M100.999 21.0329C100.999 22.0765 100.172 22.9229 99.1627 22.9229C98.1529 22.9229 97.3195 22.0714 97.3195 21.0329C97.3195 19.9944 98.1185 19.1438 99.1717 19.1438C100.225 19.1438 100.999 20.0145 100.999 21.0329ZM97.7182 21.0329C97.7182 21.8693 98.3728 22.5429 99.1619 22.5429C99.951 22.5429 100.6 21.8793 100.6 21.0329C100.6 20.1865 99.9797 19.5229 99.166 19.5229C98.3523 19.5229 97.7174 20.2066 97.7174 21.0329M99.2398 19.9659C99.6335 19.9659 99.9904 20.1336 99.9904 20.5556C99.9904 20.7284 99.9321 20.9339 99.6582 21.0623C99.8075 21.1269 99.9329 21.23 99.951 21.5497C99.9756 21.9137 99.9756 21.9532 100.014 22.0614H99.5179C99.4802 21.9876 99.4605 21.6285 99.4506 21.5589C99.4367 21.4414 99.408 21.2544 99.0856 21.2544H98.883V22.0614H98.3736V19.9659H99.2398ZM98.883 20.3241V20.9146H99.1291C99.2349 20.9146 99.4802 20.9146 99.4802 20.5942C99.4802 20.3291 99.2636 20.3241 99.1578 20.3241H98.883Z" fill="black"/>
<path d="M47.5374 2.49311C47.5374 1.1056 46.4374 -0.0193363 45.0806 -0.0193363C43.7239 -0.0193363 42.6239 1.1056 42.6239 2.49311C42.6239 3.88062 43.7239 5.00555 45.0806 5.00555C46.4374 5.00555 47.5374 3.88062 47.5374 2.49311Z" fill="black"/>
</g>
<defs>
<clipPath id="clip0_1_5">
<rect width="101" height="23" fill="white"/>
</clipPath>
</defs>
</svg>
