<svg width="112" height="20" viewBox="0 0 112 20" fill="none" xmlns="http://www.w3.org/2000/svg">
<path d="M104.743 13.8264C104.743 15.7348 105.86 16.8595 107.778 16.8595H110.965C111.122 16.8595 111.25 16.7319 111.25 16.5744V14.4057C111.25 14.2482 111.122 14.1206 110.965 14.1206H108.58C108.119 14.1206 107.851 13.8524 107.851 13.3864V7.55698C107.851 7.45201 107.936 7.36692 108.041 7.36692H110.965C111.122 7.36692 111.25 7.23928 111.25 7.08183V4.91305C111.25 4.7556 111.122 4.62796 110.965 4.62796H108.041C107.936 4.62796 107.851 4.54287 107.851 4.4379V1.97883C107.851 1.82138 107.723 1.69374 107.566 1.69374H105.026C104.868 1.69374 104.741 1.82138 104.741 1.97883V13.8264H104.743ZM91.5803 16.8595H94.405C94.5624 16.8595 94.6901 16.7319 94.6901 16.5744V10.0356C94.6901 8.34846 95.7344 7.29662 97.2648 7.29662C98.7952 7.29662 99.6689 8.27556 99.6689 9.84031V16.5744C99.6689 16.7319 99.7966 16.8595 99.954 16.8595H102.491C102.649 16.8595 102.776 16.7319 102.776 16.5744V9.22847C102.776 6.29425 101.052 4.4353 98.1851 4.4353C96.7701 4.4353 95.5078 5.0389 94.8153 5.90134C94.7638 5.96558 94.6572 5.94481 94.6382 5.86464L94.3982 4.85002C94.3678 4.72141 94.2529 4.63057 94.1208 4.63057H91.8628C91.7053 4.63057 91.5777 4.75821 91.5777 4.91566V16.8569C91.5777 16.8584 91.5788 16.8595 91.5803 16.8595ZM81.5253 9.619C81.41 9.619 81.3209 9.51671 81.343 9.40353C81.6283 7.93824 82.6915 7.02585 84.2206 7.02585C85.7574 7.02585 86.6905 7.94743 86.7875 9.42565C86.7944 9.5316 86.7083 9.619 86.6021 9.619H81.5253ZM78.0785 10.7203C78.0785 14.4877 80.5808 17.0548 84.2232 17.0548C86.8701 17.0548 88.9943 15.6693 89.8091 13.5041C89.8763 13.3256 89.7394 13.1416 89.5487 13.1416H86.8912C86.7767 13.1416 86.675 13.2113 86.6198 13.3116C86.2298 14.0201 85.3747 14.4616 84.2258 14.4616C82.6944 14.4616 81.6067 13.5014 81.3437 12.0078C81.324 11.8956 81.4127 11.7956 81.5266 11.7956H89.7932C89.9507 11.7956 90.0783 11.6679 90.0783 11.5105V10.7203C90.0783 6.97899 87.7233 4.45873 84.2258 4.45873C80.7282 4.45873 78.0811 6.97899 78.0811 10.7203M73.3943 16.5744C73.3943 16.7319 73.522 16.8595 73.6794 16.8595H76.2165C76.374 16.8595 76.5016 16.7319 76.5016 16.5744V0.999891C76.5016 0.84244 76.374 0.714801 76.2165 0.714801H73.6794C73.522 0.714801 73.3943 0.84244 73.3943 0.999891V16.5744ZM62.5862 10.7437C62.5862 8.61663 63.7288 7.22112 65.4272 7.22112C67.1256 7.22112 68.294 8.61403 68.294 10.7177C68.294 12.8214 67.1514 14.2638 65.4272 14.2638C63.7029 14.2638 62.5862 12.8709 62.5862 10.7411M64.6025 17.0027C66.1078 17.0027 67.442 16.4194 68.1619 15.4578C68.2129 15.3896 68.325 15.4105 68.3428 15.4938L68.5869 16.6316C68.6151 16.763 68.7313 16.8569 68.8657 16.8569H71.1187C71.2762 16.8569 71.4038 16.7293 71.4038 16.5718V4.91305C71.4038 4.7556 71.2762 4.62796 71.1187 4.62796H68.8657C68.7313 4.62796 68.6151 4.72184 68.5869 4.85326L68.3439 5.98595C68.3259 6.06989 68.2121 6.09033 68.1612 6.02123C67.4567 5.06581 66.1046 4.5056 64.6025 4.5056C61.5186 4.5056 59.3807 6.97638 59.3807 10.7177C59.3807 14.459 61.5186 17.0027 64.6025 17.0027ZM52.0702 13.8238C52.0702 15.7322 53.1869 16.8569 55.105 16.8569H58.2917C58.4491 16.8569 58.5768 16.7293 58.5768 16.5718V14.4031C58.5768 14.2456 58.4491 14.118 58.2917 14.118H55.9064C55.4437 14.118 55.1774 13.8498 55.1774 13.3838V7.55698C55.1774 7.45201 55.2625 7.36692 55.3675 7.36692H58.2917C58.4491 7.36692 58.5768 7.23928 58.5768 7.08183V4.91305C58.5768 4.7556 58.4491 4.62796 58.2917 4.62796H55.3675C55.2625 4.62796 55.1774 4.54287 55.1774 4.4379V1.97883C55.1774 1.82138 55.0498 1.69374 54.8923 1.69374H52.3527C52.1952 1.69374 52.0676 1.82138 52.0676 1.97883V13.8264L52.0702 13.8238ZM39.667 4.45613C39.667 3.62559 40.2254 3.01375 41.0268 3.01375C41.8281 3.01375 42.3632 3.62559 42.3632 4.48216C42.3632 5.33874 41.8049 5.90111 41.0268 5.90111C40.2487 5.90111 39.667 5.28927 39.667 4.45873M38.0152 11.4051C38.0152 9.71794 39.2534 8.51769 41.0268 8.51769C42.8001 8.51769 44.1831 9.71534 44.1831 11.4051V13.4853C43.3559 13.9513 42.2159 14.269 41.05 14.269C39.2767 14.269 38.0152 13.0948 38.0152 11.4077M41.05 17.0574C42.508 17.0574 44.0125 16.6408 45.1784 15.9821C45.76 16.5445 46.5614 16.8621 47.4868 16.8621H50.309C50.4665 16.8621 50.5941 16.7345 50.5941 16.577V14.4083C50.5941 14.2508 50.4665 14.1232 50.309 14.1232H48.2624C49.6415 12.7342 50.5939 10.2998 50.6625 7.82903C50.6669 7.67164 50.5388 7.54396 50.3814 7.54396H47.9632C47.8058 7.54396 47.6786 7.67165 47.6738 7.82903C47.6416 8.90349 47.4289 9.94621 47.0939 10.8219C46.9492 9.1087 46.0004 7.68976 44.545 6.83579C45.031 6.20052 45.3232 5.36738 45.3232 4.46394C45.3232 2.16499 43.5498 0.527344 41.0242 0.527344C38.4986 0.527344 36.702 2.16499 36.702 4.46394C36.702 5.36998 36.9682 6.15105 37.4542 6.81236C35.7791 7.76526 34.7347 9.42894 34.7347 11.5092C34.7347 14.7637 37.3586 17.0626 41.05 17.0626M24.7047 10.7281C24.7047 8.62444 25.8706 7.23153 27.5715 7.23153C29.2725 7.23153 30.4125 8.62444 30.4125 10.7542C30.4125 12.8839 29.2699 14.2768 27.5715 14.2768C25.8731 14.2768 24.7047 12.8578 24.7047 10.7307M28.3962 17.0157C31.5034 17.0157 33.618 14.4955 33.618 10.7307C33.618 6.96597 31.5293 4.51861 28.3962 4.51861C26.9574 4.51861 25.6215 5.04576 24.8987 5.95443C24.8389 6.02959 24.7047 5.98914 24.7047 5.89309V0.999891C24.7047 0.84244 24.5771 0.714801 24.4196 0.714801H21.8825C21.7251 0.714801 21.5974 0.84244 21.5974 0.999891V16.5744C21.5974 16.7319 21.7251 16.8595 21.8825 16.8595H24.1356C24.27 16.8595 24.3862 16.7656 24.4144 16.6342L24.6584 15.4964C24.6763 15.4131 24.7884 15.3922 24.8395 15.4603C25.5619 16.422 26.9153 17.0053 28.3987 17.0053M11.0581 10.7437C11.0581 8.64006 12.224 7.22112 13.925 7.22112C15.626 7.22112 16.8151 8.64006 16.8151 10.7437C16.8151 12.8474 15.6492 14.2664 13.925 14.2664C12.2007 14.2664 11.0581 12.8474 11.0581 10.7437ZM13.925 17.0548C17.5673 17.0548 20.0206 14.5111 20.0206 10.7437C20.0206 6.97638 17.5673 4.4327 13.925 4.4327C10.2826 4.4327 7.85267 6.97638 7.85267 10.7437C7.85267 14.5111 10.3059 17.0548 13.925 17.0548ZM3.16337 3.2676C3.16337 3.42505 3.291 3.55269 3.44846 3.55269H5.98552C6.14297 3.55269 6.27061 3.42505 6.27061 3.2676V0.999892C6.27061 0.84244 6.14297 0.714801 5.98552 0.714801H3.44846C3.29101 0.714801 3.16337 0.84244 3.16337 0.999891V3.2676ZM0.25 19.2405C0.25 19.3979 0.377639 19.5256 0.535091 19.5256H3.23833C5.15645 19.5256 6.2732 18.4008 6.2732 16.4924V4.91305C6.2732 4.7556 6.14556 4.62796 5.9881 4.62796H3.44846C3.291 4.62796 3.16337 4.7556 3.16337 4.91305V16.0524C3.16337 16.5185 2.8971 16.7866 2.43438 16.7866H0.53509C0.377639 16.7866 0.25 16.9143 0.25 17.0717V19.2405Z" fill="#252525"/>
</svg>
