<svg width="247" height="42" viewBox="0 0 247 42" fill="none" xmlns="http://www.w3.org/2000/svg">
<path d="M136.839 19.1203V17.3181C136.831 17.2117 136.784 17.1118 136.707 17.0375C136.629 16.9633 136.526 16.92 136.418 16.916H126.519C126.408 16.9189 126.302 16.9638 126.224 17.0414C126.145 17.1189 126.1 17.2233 126.097 17.333V19.1089C126.1 19.2179 126.145 19.3218 126.222 19.3997C126.3 19.4776 126.404 19.5238 126.515 19.5293H129.753C129.81 19.5313 129.864 19.5545 129.904 19.5942C129.943 19.6339 129.966 19.6871 129.968 19.7429V29.8847C129.968 29.9953 130.011 30.1017 130.088 30.1817C130.166 30.2618 130.271 30.3092 130.384 30.3143H132.546C132.655 30.3094 132.758 30.2643 132.835 30.1879C132.911 30.1114 132.956 30.0093 132.96 29.9019V19.6901C132.972 19.6443 132.998 19.6036 133.036 19.574C133.073 19.5444 133.119 19.5275 133.167 19.5258H136.421C136.528 19.5204 136.63 19.4761 136.707 19.4013C136.784 19.3265 136.83 19.2265 136.836 19.1203" fill="#FF8000"/>
<path d="M142.353 21.5701C142.011 21.1526 141.559 20.8349 141.048 20.6512C140.379 20.4227 139.674 20.3168 138.967 20.3388C138.209 20.3368 137.456 20.4614 136.74 20.7075C136.175 20.899 135.646 21.1841 135.178 21.5506C135.102 21.6326 135.061 21.7404 135.064 21.8515C135.066 21.9626 135.112 22.0684 135.192 22.1468L136.09 23.0542C136.131 23.0944 136.179 23.1263 136.232 23.148C136.285 23.1697 136.342 23.1809 136.4 23.1809C136.457 23.1809 136.514 23.1697 136.568 23.148C136.621 23.1263 136.669 23.0944 136.71 23.0542C136.93 22.8607 137.175 22.6955 137.438 22.5626C137.84 22.3659 138.284 22.2655 138.733 22.2697C139.204 22.2626 139.664 22.4205 140.029 22.7154C140.368 22.9922 140.549 23.4862 140.574 24.2799C140.565 24.3309 140.539 24.3773 140.499 24.4111C140.46 24.4449 140.409 24.4639 140.357 24.4648C140.021 24.4648 139.658 24.4648 139.281 24.4844C138.813 24.4969 138.347 24.5353 137.884 24.5992C137.426 24.6611 136.974 24.759 136.533 24.8921C136.116 25.0148 135.723 25.2033 135.368 25.4504C135.031 25.6875 134.755 25.9986 134.561 26.359C134.352 26.7762 134.25 27.2377 134.264 27.703C134.253 28.1279 134.346 28.5493 134.533 28.9321C134.706 29.2781 134.954 29.5818 135.261 29.8211C135.578 30.067 135.94 30.2507 136.328 30.3622C136.731 30.4819 137.151 30.5422 137.573 30.5414C138.148 30.545 138.719 30.4357 139.252 30.2197C139.665 30.0541 140.029 29.7896 140.312 29.4501H140.341C140.37 29.4365 140.403 29.432 140.435 29.4374C140.467 29.4427 140.497 29.4576 140.52 29.48C140.55 29.5077 140.567 29.5456 140.568 29.5857V29.9176C140.571 30.0258 140.616 30.1286 140.693 30.2055C140.77 30.2824 140.874 30.3277 140.984 30.3323H142.798C142.909 30.3279 143.013 30.2821 143.09 30.2041C143.168 30.1262 143.212 30.0221 143.214 29.913V25.656C143.221 24.7916 143.157 23.928 143.022 23.0738C142.914 22.5368 142.681 22.0319 142.342 21.5989M140.581 26.8828C140.586 27.1464 140.524 27.4071 140.398 27.6398C140.276 27.8524 140.106 28.0341 139.901 28.1705C139.686 28.3118 139.45 28.4195 139.202 28.4898C138.937 28.5676 138.663 28.6063 138.387 28.6047C138.062 28.6046 137.743 28.5198 137.462 28.3589C137.323 28.2876 137.208 28.1782 137.13 28.044C137.052 27.9097 137.016 27.7562 137.024 27.6019C137.017 27.4635 137.042 27.3252 137.096 27.1975C137.151 27.0698 137.234 26.9559 137.34 26.8644C137.565 26.6807 137.826 26.545 138.107 26.4658C138.413 26.3777 138.729 26.3241 139.047 26.3062C139.378 26.287 139.65 26.2775 139.862 26.2775H140.361C140.416 26.2814 140.468 26.3055 140.506 26.3449C140.544 26.3844 140.566 26.4365 140.568 26.4911L140.581 26.8828Z" fill="#FF8000"/>
<path d="M171.005 21.5701C170.663 21.1524 170.213 20.8346 169.701 20.6512C169.032 20.4228 168.327 20.3169 167.619 20.3387C166.861 20.3373 166.108 20.4619 165.391 20.7075C164.826 20.8981 164.299 21.1833 163.832 21.5506C163.755 21.6322 163.713 21.74 163.716 21.8512C163.718 21.9625 163.764 22.0685 163.845 22.1468L164.741 23.0542C164.824 23.1352 164.936 23.1807 165.053 23.1807C165.17 23.1807 165.282 23.1352 165.364 23.0542C165.585 22.8607 165.829 22.6955 166.091 22.5626C166.494 22.3651 166.939 22.2648 167.39 22.2697C167.861 22.2618 168.319 22.4199 168.682 22.7154C169.021 22.9922 169.203 23.4861 169.229 24.2799C169.22 24.3308 169.194 24.3773 169.154 24.4111C169.115 24.4449 169.064 24.4639 169.012 24.4648C168.675 24.4648 168.313 24.4648 167.935 24.4843C167.467 24.4969 167 24.5352 166.537 24.5992C166.079 24.66 165.626 24.758 165.184 24.8921C164.768 25.0148 164.374 25.2033 164.019 25.4504C163.684 25.6882 163.408 25.9991 163.215 26.359C163.004 26.7757 162.901 27.2375 162.916 27.703C162.907 28.1278 162.999 28.5489 163.186 28.932C163.358 29.278 163.606 29.5818 163.912 29.8211C164.23 30.0668 164.592 30.2504 164.979 30.3622C165.945 30.6434 166.98 30.5932 167.914 30.2197C168.326 30.0545 168.69 29.7899 168.972 29.4501H169C169.03 29.4366 169.063 29.4322 169.096 29.4375C169.128 29.4429 169.158 29.4576 169.182 29.48C169.209 29.5087 169.225 29.5462 169.227 29.5856V29.9176C169.231 30.0257 169.276 30.1286 169.353 30.2055C169.43 30.2824 169.534 30.3277 169.643 30.3323H171.456C171.567 30.3282 171.672 30.2825 171.749 30.2045C171.827 30.1265 171.871 30.0222 171.873 29.913V25.656C171.88 24.7916 171.816 23.9281 171.683 23.0738C171.575 22.5367 171.341 22.0318 171.001 21.5988M169.23 26.8828C169.236 27.1464 169.174 27.4072 169.048 27.6398C168.927 27.8531 168.756 28.035 168.55 28.1705C168.335 28.3116 168.099 28.4193 167.851 28.4898C167.586 28.5676 167.312 28.6063 167.036 28.6047C166.712 28.6044 166.393 28.5196 166.113 28.3589C165.974 28.2879 165.858 28.1787 165.78 28.0444C165.702 27.9101 165.665 27.7565 165.673 27.6019C165.665 27.4633 165.69 27.3248 165.745 27.197C165.8 27.0692 165.884 26.9555 165.99 26.8644C166.215 26.6807 166.475 26.545 166.756 26.4658C167.063 26.3778 167.379 26.3242 167.698 26.3062C168.03 26.2866 168.303 26.2774 168.513 26.2774H169.012C169.067 26.2809 169.119 26.3048 169.157 26.3444C169.196 26.384 169.217 26.4364 169.218 26.4911L169.23 26.8828Z" fill="#FF8000"/>
<path d="M195.732 21.5701C195.39 21.1526 194.938 20.8349 194.427 20.6512C193.758 20.4227 193.053 20.3168 192.345 20.3388C191.588 20.3373 190.836 20.462 190.121 20.7075C189.554 20.8983 189.025 21.1834 188.556 21.5506C188.48 21.6329 188.44 21.7407 188.442 21.8517C188.445 21.9627 188.491 22.0684 188.571 22.1468L189.468 23.0542C189.551 23.1353 189.663 23.1807 189.779 23.1807C189.896 23.1807 190.008 23.1353 190.091 23.0542C190.312 22.8606 190.558 22.6954 190.821 22.5626C191.223 22.3652 191.668 22.2648 192.117 22.2697C192.588 22.2627 193.046 22.4206 193.41 22.7154C193.749 22.9922 193.928 23.4862 193.955 24.2799C193.947 24.3315 193.921 24.3787 193.88 24.4126C193.84 24.4466 193.789 24.4651 193.736 24.4648C193.402 24.4648 193.037 24.4648 192.662 24.4844C192.195 24.4968 191.728 24.5352 191.265 24.5992C190.806 24.6611 190.354 24.759 189.911 24.8921C189.495 25.0148 189.102 25.2033 188.747 25.4504C188.411 25.6873 188.135 25.9984 187.942 26.359C187.731 26.7757 187.629 27.2375 187.644 27.703C187.634 28.1279 187.726 28.5491 187.913 28.9321C188.084 29.2793 188.334 29.5834 188.642 29.8211C188.96 30.0688 189.323 30.2537 189.711 30.3656C190.678 30.6469 191.714 30.5967 192.648 30.2232C193.062 30.0594 193.426 29.7946 193.707 29.4536H193.735C193.764 29.4401 193.797 29.4357 193.829 29.4411C193.861 29.4464 193.891 29.4612 193.914 29.4834C193.928 29.4973 193.939 29.5138 193.947 29.5319C193.955 29.5501 193.958 29.5695 193.958 29.5891V29.9211C193.963 30.0293 194.009 30.1317 194.087 30.2083C194.164 30.285 194.268 30.3304 194.378 30.3358H196.189C196.3 30.3317 196.405 30.2862 196.483 30.2083C196.562 30.1304 196.607 30.0261 196.61 29.9165V25.656C196.616 24.7915 196.551 23.9279 196.416 23.0738C196.307 22.537 196.075 22.0322 195.736 21.5989M193.961 26.8828C193.969 27.1462 193.907 27.4072 193.781 27.6398C193.66 27.8524 193.489 28.0341 193.284 28.1705C193.069 28.3118 192.834 28.4195 192.585 28.4898C192.321 28.5676 192.046 28.6063 191.77 28.6047C191.446 28.6046 191.128 28.5198 190.848 28.3589C190.708 28.2879 190.593 28.1787 190.515 28.0444C190.436 27.9101 190.399 27.7565 190.408 27.6019C190.4 27.4635 190.425 27.3252 190.48 27.1975C190.534 27.0698 190.618 26.9559 190.723 26.8644C190.948 26.6807 191.21 26.545 191.491 26.4658C191.798 26.3778 192.114 26.3242 192.433 26.3062C192.757 26.2866 193.03 26.2775 193.248 26.2775H193.746C193.802 26.2809 193.853 26.3049 193.892 26.3445C193.93 26.3842 193.951 26.4365 193.951 26.4911L193.961 26.8828Z" fill="#FF8000"/>
<path d="M161.584 21.655C161.205 21.2294 160.733 20.8937 160.204 20.6729C159.63 20.4401 159.014 20.323 158.393 20.3283C157.702 20.3263 157.017 20.4429 156.367 20.6729C155.757 20.8903 155.197 21.2241 154.718 21.655C154.248 22.0834 153.872 22.6022 153.613 23.1793C153.075 24.6397 153.075 26.2402 153.613 27.7006C153.87 28.2776 154.246 28.7956 154.718 29.2214C155.194 29.6554 155.755 29.9899 156.367 30.2047C157.016 30.437 157.702 30.5537 158.393 30.5493C159.148 30.5488 159.894 30.3874 160.58 30.076C161.117 29.8417 161.603 29.5079 162.012 29.0928C162.086 29.0132 162.127 28.9093 162.127 28.8016C162.127 28.6938 162.086 28.59 162.012 28.5104L160.713 27.5604L160.618 27.4938C160.535 27.4472 160.439 27.4287 160.344 27.4412C160.249 27.4536 160.16 27.4963 160.092 27.5627C159.908 27.7627 159.7 27.9394 159.473 28.0888C159.112 28.3043 158.696 28.412 158.274 28.399C157.755 28.4116 157.249 28.2368 156.851 27.9073C156.415 27.467 156.154 26.8869 156.116 26.2727C156.116 26.2226 156.134 26.1742 156.167 26.1359C156.2 26.0977 156.245 26.0721 156.296 26.0637H162.368C162.479 26.0573 162.584 26.0093 162.66 25.9295C162.737 25.8497 162.78 25.7441 162.781 25.6341V25.1643C162.791 24.4897 162.688 23.8181 162.475 23.177C162.289 22.6167 161.991 22.0985 161.6 21.6527M159.679 24.1109H156.335C156.28 24.1101 156.226 24.0886 156.186 24.0507C156.146 24.0128 156.122 23.9612 156.119 23.9065C156.146 23.7515 156.193 23.6006 156.258 23.4573C156.354 23.25 156.491 23.0643 156.662 22.9117C156.844 22.7454 157.055 22.6127 157.284 22.52C157.553 22.4156 157.841 22.3648 158.13 22.3707C158.368 22.3624 158.605 22.4036 158.825 22.4917C159.046 22.5798 159.246 22.7127 159.411 22.8818C159.688 23.1567 159.857 23.52 159.887 23.9065C159.883 23.9614 159.859 24.013 159.818 24.0509C159.778 24.0887 159.724 24.1102 159.668 24.1109" fill="#FF8000"/>
<path d="M150.544 25.5759L150.479 25.4874C150.439 25.421 150.417 25.345 150.417 25.2675C150.417 25.19 150.439 25.1139 150.479 25.0475L153.841 20.9191C153.868 20.8889 153.885 20.8516 153.891 20.8118C153.897 20.772 153.891 20.7315 153.874 20.695C153.857 20.6586 153.829 20.6278 153.795 20.6064C153.76 20.585 153.72 20.5739 153.679 20.5745H151.036C150.901 20.5741 150.767 20.6045 150.646 20.6633C150.525 20.722 150.419 20.8076 150.337 20.9134L150.193 21.0949L147.611 24.3686L147.577 24.4077L147.556 24.4272H147.539C147.509 24.4412 147.476 24.4459 147.444 24.4407C147.412 24.4356 147.383 24.4209 147.359 24.3985C147.338 24.3762 147.324 24.3489 147.317 24.3192V16.4117C147.311 16.3066 147.267 16.2073 147.192 16.1322C147.117 16.0572 147.017 16.0116 146.911 16.0039H144.839C144.731 16.0122 144.631 16.0591 144.556 16.1358C144.481 16.2124 144.437 16.3134 144.433 16.4197V29.8984C144.437 30.0059 144.483 30.1077 144.56 30.1839C144.636 30.2602 144.739 30.3054 144.848 30.3108H146.895C147.002 30.3061 147.105 30.262 147.182 30.1871C147.258 30.1121 147.304 30.0117 147.31 29.9053V26.0894C147.316 26.0596 147.331 26.0321 147.352 26.0101C147.376 25.9877 147.405 25.973 147.437 25.9679C147.469 25.9627 147.502 25.9674 147.532 25.9814H147.549C147.558 25.9853 147.566 25.9922 147.57 26.0009V26.0124L147.621 26.0721L150.131 29.7916L150.275 29.9731C150.357 30.0763 150.46 30.1602 150.579 30.2184C150.697 30.2767 150.828 30.3079 150.96 30.3096H153.755C153.786 30.305 153.815 30.2914 153.838 30.2706C153.871 30.2399 153.894 30.1995 153.902 30.1553C153.911 30.1112 153.905 30.0654 153.886 30.0248L150.544 25.5759Z" fill="#FF8000"/>
<path d="M187.791 21.2536C187.825 21.1619 187.842 21.0651 187.841 20.9676C187.842 20.9504 187.842 20.9331 187.841 20.9159C187.822 20.8223 187.771 20.7377 187.698 20.6753C187.624 20.613 187.532 20.5764 187.435 20.5713H185.793C185.592 20.5709 185.398 20.6383 185.241 20.7622C185.085 20.8862 184.976 21.0592 184.933 21.2525L184.881 21.4466L183.496 26.4606C183.462 26.4989 183.413 26.5224 183.361 26.5261C183.329 26.5237 183.298 26.5133 183.271 26.4958C183.244 26.4784 183.221 26.4544 183.206 26.4261L183.189 26.3457L181.806 21.2812L181.784 21.1904C181.727 21.0151 181.615 20.8621 181.464 20.7535C181.313 20.6449 181.131 20.5864 180.945 20.5862H179.161C178.961 20.5855 178.767 20.6517 178.611 20.774C178.455 20.8964 178.346 21.0676 178.301 21.2594V21.3053L178.264 21.4581L177.003 26.4514C176.992 26.4708 176.977 26.4877 176.959 26.5013C176.941 26.5149 176.921 26.5248 176.899 26.5305C176.877 26.5362 176.855 26.5375 176.833 26.5344C176.81 26.5312 176.789 26.5237 176.77 26.5123C176.745 26.4971 176.724 26.4762 176.709 26.4514L175.214 21.4535L175.142 21.2237C175.144 21.2089 175.144 21.1938 175.142 21.1789C175.082 21.0077 174.969 20.8592 174.82 20.7539C174.67 20.6487 174.491 20.5921 174.308 20.592H172.499C172.402 20.5973 172.31 20.6339 172.237 20.6962C172.163 20.7585 172.113 20.843 172.093 20.9366C172.092 20.9546 172.092 20.9726 172.093 20.9906C172.093 21.088 172.11 21.1847 172.143 21.2766L175.117 29.7539C175.127 29.7865 175.14 29.818 175.157 29.8481C175.222 29.9851 175.322 30.1026 175.448 30.1888C175.574 30.2749 175.721 30.3266 175.874 30.3386H177.621C177.797 30.3252 177.965 30.2601 178.103 30.1515C178.241 30.043 178.343 29.8961 178.395 29.7298L178.468 29.4839L179.838 24.6227C179.854 24.6017 179.874 24.5845 179.898 24.5722C179.921 24.5598 179.947 24.5528 179.973 24.5515C180 24.5534 180.026 24.561 180.05 24.5737C180.073 24.5864 180.094 24.6039 180.11 24.625L181.682 29.5793C181.711 29.6732 181.747 29.7649 181.789 29.8538C181.854 29.9909 181.954 30.1087 182.08 30.195C182.206 30.2814 182.353 30.3333 182.506 30.3454H184.206C184.358 30.3339 184.505 30.2823 184.631 30.1958C184.757 30.1094 184.857 29.9913 184.921 29.8538C184.94 29.8171 185.001 29.6528 185.037 29.5425L187.832 21.3444C187.833 21.3262 187.838 21.3085 187.847 21.2927" fill="#FF8000"/>
<path d="M206.767 20.9092C206.757 20.8852 206.75 20.8606 206.744 20.8357C206.711 20.7629 206.659 20.7003 206.593 20.6544C206.526 20.6085 206.449 20.5811 206.368 20.5749H204.621C204.458 20.5804 204.299 20.6307 204.163 20.7202C204.027 20.8097 203.92 20.9348 203.852 21.0815C203.84 21.1067 203.831 21.1332 203.821 21.1596L203.81 21.2044C203.801 21.2278 203.794 21.2515 203.789 21.2756L203.737 21.4399L202.15 26.5607L202.128 26.6227C202.116 26.6681 202.089 26.7081 202.051 26.7359C202.013 26.7638 201.966 26.7778 201.918 26.7755C201.875 26.7768 201.832 26.7647 201.796 26.7408C201.76 26.7169 201.732 26.6824 201.717 26.6423L199.828 21.4376L199.806 21.3709L199.679 21.0194C199.605 20.8867 199.497 20.7754 199.366 20.6966C199.235 20.6178 199.085 20.5742 198.931 20.5703H196.961C196.892 20.5832 196.826 20.6122 196.771 20.655C196.715 20.6978 196.671 20.753 196.642 20.8161C196.631 20.8382 196.624 20.8613 196.618 20.8851C196.605 20.9595 196.61 21.0359 196.634 21.1079L200.39 30.1366C200.448 30.3259 200.436 30.5291 200.358 30.7109V30.7385L200.289 30.9085C200.189 31.1531 200.092 31.3794 200.003 31.5713C199.92 31.7526 199.807 31.9188 199.668 32.0629C199.524 32.201 199.349 32.3043 199.157 32.365C198.902 32.4419 198.636 32.4776 198.37 32.4707H197.125C197.013 32.4736 196.907 32.5189 196.828 32.5972C196.749 32.6755 196.703 32.7807 196.701 32.8911V34.4338C196.704 34.5444 196.75 34.6496 196.829 34.7279C196.908 34.8061 197.015 34.8513 197.127 34.8542H198.795C199.358 34.8705 199.921 34.8035 200.464 34.6555C200.854 34.5409 201.212 34.3402 201.512 34.0685C201.796 33.7947 202.027 33.4715 202.192 33.1151C202.371 32.7322 202.557 32.2965 202.748 31.8079L206.769 21.0861C206.781 21.03 206.781 20.9722 206.769 20.9161" fill="#FF8000"/>
<path d="M206.37 28.3373C206.23 28.3332 206.09 28.3593 205.961 28.4136C205.832 28.468 205.716 28.5493 205.622 28.6521C205.425 28.8474 205.315 29.1118 205.315 29.3874C205.316 29.6629 205.428 29.9269 205.626 30.1212C205.824 30.3156 206.092 30.4244 206.371 30.4238C206.65 30.4231 206.918 30.3131 207.115 30.1178L207.14 30.0948C207.328 29.9005 207.433 29.6422 207.433 29.3734C207.433 29.1047 207.328 28.8463 207.14 28.6521C207.045 28.5498 206.93 28.4688 206.801 28.4145C206.672 28.3602 206.532 28.3339 206.392 28.3373" fill="#FF8000"/>
<path d="M224.283 21.6656C223.843 21.2433 223.322 20.9138 222.749 20.6973C221.498 20.2389 220.121 20.2389 218.87 20.6973C218.297 20.9131 217.775 21.2427 217.337 21.6656C216.908 22.0867 216.569 22.5882 216.34 23.1405C216.091 23.7149 215.972 24.8475 215.972 25.5528C215.963 26.296 216.088 27.0349 216.34 27.7353C216.569 28.2953 216.913 28.8027 217.351 29.2255C217.788 29.6483 218.309 29.9774 218.881 30.1923C220.133 30.6507 221.509 30.6507 222.76 30.1923C223.335 29.9741 223.859 29.6422 224.299 29.2171C224.726 28.7954 225.065 28.2946 225.296 27.7433C225.547 27.0427 225.672 26.304 225.664 25.5608C225.664 24.8578 225.539 23.7229 225.296 23.1486C225.065 22.597 224.726 22.0957 224.299 21.6737M223.809 27.1219C223.668 27.5138 223.446 27.8728 223.158 28.1764C222.869 28.4769 222.523 28.7175 222.139 28.884C221.287 29.224 220.335 29.224 219.483 28.884C219.1 28.716 218.754 28.4756 218.464 28.1764C218.179 27.8714 217.959 27.5128 217.817 27.1219C217.66 26.6102 217.581 26.0782 217.584 25.5436C217.581 24.9335 217.66 24.3257 217.817 23.7356C217.956 23.3454 218.175 22.9879 218.462 22.6858C218.748 22.3836 219.095 22.1434 219.48 21.9804C220.33 21.6334 221.285 21.6334 222.135 21.9804C222.52 22.1448 222.867 22.3848 223.154 22.6857C223.443 22.989 223.664 23.3481 223.805 23.7402C223.957 24.3311 224.031 24.9387 224.026 25.5482C224.031 26.0821 223.957 26.6138 223.805 27.1265" fill="#FF8000"/>
<path d="M210.005 22.7078C210.264 22.3966 210.594 22.1499 210.967 21.9875C211.389 21.8141 211.844 21.7304 212.302 21.7417C212.73 21.7337 213.155 21.8175 213.548 21.9875C213.839 22.1272 214.104 22.3144 214.333 22.5412C214.411 22.6094 214.511 22.6481 214.616 22.6502C214.72 22.6523 214.822 22.6177 214.903 22.5527L215.454 22.061C215.536 21.9869 215.587 21.8846 215.595 21.7751C215.603 21.6655 215.569 21.557 215.498 21.4718C215.124 21.1352 214.69 20.8703 214.217 20.6907C213.607 20.4587 212.958 20.3418 212.304 20.3461C211.65 20.3383 211.001 20.4593 210.395 20.7021C209.834 20.925 209.325 21.2598 208.9 21.6854C208.482 22.1145 208.156 22.6224 207.941 23.1787C207.49 24.6571 207.49 26.2341 207.941 27.7126C208.154 28.268 208.478 28.7758 208.893 29.2059C209.308 29.6365 209.814 29.9721 210.375 30.1891C211.599 30.6509 212.953 30.6509 214.177 30.1891C214.649 30.0065 215.08 29.7332 215.445 29.3851C215.514 29.3035 215.55 29.1997 215.546 29.0937C215.541 28.9876 215.498 28.8868 215.423 28.8107L214.957 28.3604C214.875 28.2871 214.769 28.2465 214.659 28.2465C214.548 28.2465 214.442 28.2871 214.361 28.3604C214.096 28.6287 213.777 28.839 213.424 28.9775C213.071 29.116 212.693 29.1798 212.313 29.1645C211.879 29.1695 211.449 29.0813 211.052 28.9061C210.683 28.7363 210.355 28.4898 210.091 28.1835C209.822 27.8687 209.612 27.5088 209.471 27.121C209.319 26.5762 209.245 26.0134 209.249 25.4485C209.246 24.885 209.311 24.3232 209.443 23.7749C209.56 23.3864 209.751 23.0235 210.006 22.7055" fill="#FF8000"/>
<path d="M240.086 22.5547C239.984 22.1222 239.785 21.7176 239.504 21.3704C239.218 21.0393 238.851 20.7855 238.438 20.633C237.916 20.4455 237.363 20.3574 236.808 20.3734C236.206 20.348 235.61 20.5047 235.101 20.8225C234.727 21.0832 234.402 21.4058 234.14 21.7759L234.094 21.8403L234.072 21.8724C234.058 21.8884 234.04 21.9011 234.019 21.9094C233.999 21.9178 233.978 21.9216 233.956 21.9207C233.927 21.9208 233.899 21.9131 233.874 21.8986C233.85 21.884 233.829 21.863 233.816 21.838C233.816 21.8207 233.788 21.7932 233.775 21.7667C233.731 21.6944 233.686 21.6209 233.639 21.537C233.502 21.3238 233.328 21.1356 233.125 20.981C232.875 20.7939 232.597 20.6455 232.301 20.5411C231.561 20.312 230.769 20.2993 230.022 20.5043C229.714 20.5914 229.421 20.7206 229.15 20.888C228.9 21.036 228.674 21.219 228.479 21.4313C228.415 21.5025 228.362 21.5738 228.302 21.6473L228.284 21.6668C228.279 21.6783 228.272 21.6885 228.262 21.6967C228.242 21.7166 228.217 21.7309 228.19 21.7379C228.162 21.7449 228.134 21.7445 228.106 21.7366C228.079 21.7287 228.055 21.7136 228.036 21.693C228.017 21.6724 228.003 21.6471 227.998 21.6197V20.9983C227.994 20.889 227.948 20.7852 227.87 20.7081C227.791 20.631 227.686 20.5865 227.575 20.5836H227.029C226.916 20.5874 226.81 20.6341 226.731 20.7138C226.653 20.7934 226.609 20.8999 226.608 21.0109V29.8833C226.61 29.9945 226.655 30.1008 226.735 30.18C226.814 30.2591 226.921 30.3051 227.033 30.3084H227.689C227.804 30.3045 227.912 30.257 227.992 30.1758C228.072 30.0947 228.117 29.9861 228.118 29.873V25.1795C228.113 24.7086 228.169 24.239 228.282 23.7815C228.377 23.3909 228.546 23.0215 228.78 22.6926C229.006 22.3859 229.308 22.1408 229.656 21.9804C230.057 21.8069 230.492 21.723 230.929 21.7346C231.55 21.7346 231.996 21.9417 232.267 22.356C232.538 22.7703 232.674 23.4748 232.674 24.4696V29.8765C232.675 29.9889 232.72 30.0964 232.8 30.1765C232.88 30.2567 232.988 30.3031 233.102 30.3061H233.759C233.874 30.3022 233.982 30.2547 234.062 30.1735C234.142 30.0924 234.187 29.9838 234.188 29.8707V24.3811C234.182 24.0135 234.245 23.6479 234.373 23.3025C234.482 22.9956 234.651 22.7126 234.87 22.4697C235.079 22.2425 235.334 22.06 235.618 21.9333C235.904 21.8052 236.215 21.7398 236.529 21.7415C236.903 21.7276 237.275 21.8 237.616 21.9528C237.884 22.0803 238.117 22.2703 238.294 22.5065C238.463 22.7423 238.582 23.0096 238.643 23.2922C238.706 23.5872 238.738 23.8879 238.738 24.1893V29.8902C238.74 30.0014 238.787 30.1073 238.866 30.1859C238.946 30.2646 239.053 30.31 239.166 30.313H239.821C239.935 30.31 240.044 30.2629 240.124 30.1818C240.204 30.1007 240.249 29.9919 240.249 29.8787V24.1135C240.256 23.5882 240.199 23.064 240.078 22.5524" fill="#FF8000"/>
<path d="M45.1343 16.9258H41.4391C40.2407 16.9258 40.2407 16.9258 39.9915 18.3042C39.7423 19.6826 39.7411 19.7332 40.8405 19.7332H43.0369L41.7884 26.7758C41.4891 28.3517 40.7904 29.435 38.6441 30.0759C38.0944 30.223 37.9453 30.4205 37.9453 30.6663C37.9453 30.9627 38.0443 31.2085 38.2947 31.799C38.6441 32.6363 38.8444 32.7845 39.1437 32.7845C39.443 32.7845 39.9927 32.6363 40.1918 32.5881C43.2383 31.6025 44.4868 29.2879 44.9852 26.5299L46.3827 18.604C46.6319 16.9258 46.6319 16.9258 45.1343 16.9258Z" fill="#FF8000"/>
<path d="M57.6675 16.9263C56.1698 16.9263 56.1698 16.9263 55.9695 18.1565L54.8713 24.5605C54.572 26.4317 54.0724 27.5149 52.2254 27.5149C50.4272 27.5149 49.7797 26.4317 50.0779 24.758L51.1248 18.6493C51.4253 16.9263 51.3752 16.9263 49.8275 16.9263C48.3287 16.9263 48.2786 16.9263 48.0806 18.1083L46.9824 24.5076C46.3326 28.1524 48.6291 30.4176 51.8737 30.4176C55.5188 30.4176 57.3658 28.7922 57.9656 24.951L59.0638 18.5965C59.313 16.9229 59.2129 16.9229 57.6663 16.9229" fill="#FF8000"/>
<path d="M64.5087 27.4147C65.7082 27.3665 66.3568 26.8243 66.3568 26.2821C66.3568 25.5929 65.5079 25.3471 64.3596 25.0014C62.1119 24.3122 60.0646 23.5242 60.0646 21.1602C60.0646 18.3528 62.4124 16.8262 65.3576 16.8262C66.6061 16.8262 68.0047 16.8756 68.9038 16.9732C69.7027 17.072 69.9018 17.3178 69.6526 18.5492C69.4034 19.7806 69.1029 19.8794 68.4042 19.83C67.5552 19.7806 66.457 19.683 65.1585 19.683C63.6608 19.683 63.2113 20.224 63.2113 20.7168C63.2113 21.3566 63.8099 21.7023 65.2086 22.0952C67.8044 22.8338 69.5024 23.8676 69.5024 26.0846C69.5024 28.6944 67.5552 30.2198 64.4097 30.3198C62.9072 30.372 61.403 30.2897 59.9155 30.074C58.9163 29.9258 58.8674 29.9258 59.1166 28.498C59.3659 27.2172 59.3659 27.1195 60.315 27.2172C62.162 27.4136 63.3103 27.463 64.5075 27.4136" fill="#FF8000"/>
<path d="M80.8372 16.9258H72.3987C71.2003 16.9258 71.2003 16.9258 70.9511 18.3536C70.7019 19.7814 70.7508 19.7814 71.8001 19.7814H74.5462L72.9984 28.5964C72.698 30.3194 72.748 30.3194 74.2958 30.3194C75.7445 30.3194 75.7946 30.3194 75.9937 29.0881L77.5915 19.7837H80.2398C81.4382 19.7837 81.4382 19.7837 81.6874 18.3559C81.9366 16.9281 81.9366 16.9258 80.8372 16.9258Z" fill="#FF8000"/>
<path d="M95.7186 19.7328C96.917 19.7328 96.917 19.7328 97.1662 18.3038C97.4154 16.8748 97.4166 16.876 96.3172 16.876H90.2754C88.1279 16.876 88.1791 16.876 87.8297 18.993L86.2808 27.9079C85.8814 30.2225 85.9315 30.2225 88.0789 30.2225H93.9706C95.219 30.2225 95.1689 30.2225 95.4193 28.8441C95.6685 27.4152 95.6685 27.4152 94.5703 27.4152H89.4764L89.8759 24.8524H94.1208C95.2691 24.8524 95.2691 24.8524 95.4682 23.5223C95.6685 22.1438 95.6685 22.1438 94.1208 22.1438H90.372L90.7715 19.7316L95.7186 19.7328Z" fill="#FF8000"/>
<path d="M102.11 24.4607L104.057 20.2244C104.207 19.8798 104.207 19.8798 104.456 19.8798C104.706 19.8798 104.707 19.8798 104.757 20.2738L105.355 24.4607H102.11ZM107.403 18.5496C107.104 16.876 107.104 16.876 104.707 16.876C102.459 16.876 102.509 16.876 101.81 18.2544L96.7667 28.6431C96.0179 30.1215 96.1681 30.2685 98.0151 30.2685C99.4639 30.2685 99.4639 30.2685 100.062 28.9395L100.861 27.1659H105.753L106.003 28.9395C106.202 30.2685 106.252 30.2685 107.7 30.2685C109.348 30.2685 109.498 30.1709 109.199 28.5455L107.403 18.5496Z" fill="#FF8000"/>
<path d="M119.337 16.9258H110.848C109.65 16.9258 109.65 16.9258 109.4 18.3536C109.149 19.7814 109.2 19.7814 110.249 19.7814H112.995L111.45 28.5964C111.151 30.3194 111.201 30.3194 112.749 30.3194C114.197 30.3194 114.247 30.3194 114.447 29.0881L116.045 19.7837H118.691C119.889 19.7837 119.889 19.7837 120.139 18.3559C120.439 16.9281 120.439 16.9281 119.341 16.9281" fill="#FF8000"/>
<path d="M32.9352 20.0539C32.8525 19.8414 31.7077 17.7565 29.5835 15.141C29.5294 15.0778 29.4954 15.0003 29.4857 14.9181C29.3574 13.3944 29.1435 11.8789 28.8452 10.3785C28.8114 10.228 28.7306 10.0917 28.6143 9.98868C28.498 9.88568 28.3519 9.82117 28.1965 9.8042L25.9838 9.54115C25.9644 9.53944 25.9449 9.53944 25.9256 9.54115C25.802 9.54115 25.6835 9.58956 25.5962 9.67573C25.5088 9.7619 25.4597 9.87876 25.4597 10.0006V10.7565C25.4597 10.7638 25.4568 10.7708 25.4516 10.776C25.4463 10.7811 25.4392 10.784 25.4318 10.784C25.4249 10.7842 25.4182 10.7817 25.4132 10.7771C24.0336 9.54023 22.5439 8.42841 20.9621 7.45514C20.6386 7.24151 20.2579 7.12792 19.8686 7.12891C19.4793 7.12792 19.0985 7.24151 18.775 7.45514C11.1517 12.1016 6.95684 19.6404 6.79496 20.0539C6.74738 20.1533 6.72268 20.2618 6.72266 20.3717C6.72263 20.4816 6.74727 20.5901 6.79481 20.6895C6.84235 20.7889 6.91161 20.8766 6.99761 20.9465C7.08362 21.0163 7.18423 21.0665 7.29224 21.0935L9.48748 21.5104C9.6326 21.5497 9.76244 21.631 9.86022 21.7439C9.95801 21.8567 10.0192 21.9959 10.036 22.1434C10.0535 22.5259 10.4692 31.0641 10.9898 33.2787C11.0327 33.4378 11.1276 33.5784 11.2599 33.6787C11.3921 33.7791 11.5543 33.8335 11.7212 33.8335H11.7375C13.0185 33.8014 14.1912 33.7807 15.4641 33.7635H15.5689C15.6341 33.7629 15.6964 33.737 15.7424 33.6914C15.7884 33.6458 15.8144 33.5842 15.8147 33.5199V33.5142C15.7623 32.7687 15.6516 31.0641 15.5619 29.2641C15.5619 29.2193 15.5561 29.163 15.5538 29.117C15.5478 29.0434 15.524 28.9723 15.4843 28.9097C15.4445 28.8471 15.3901 28.7949 15.3255 28.7575C14.9911 28.5608 14.711 28.2857 14.5101 27.9567C14.3092 27.6277 14.1937 27.2549 14.1738 26.8714C14.0573 23.8779 14.0002 20.4169 14.1656 17.7094C14.1679 17.594 14.2167 17.4842 14.3011 17.4041C14.3855 17.3241 14.4987 17.2804 14.6157 17.2827C14.7328 17.285 14.8441 17.3331 14.9253 17.4163C15.0064 17.4996 15.0507 17.6112 15.0484 17.7267V17.7611C14.9401 19.5657 14.9319 21.7 14.9692 23.8055C14.9704 23.8734 14.9852 23.9404 15.0126 24.0026C15.0401 24.0649 15.0797 24.1212 15.1293 24.1683C15.1788 24.2155 15.2372 24.2525 15.3013 24.2774C15.3653 24.3023 15.4337 24.3144 15.5026 24.3132C15.5714 24.312 15.6393 24.2975 15.7024 24.2704C15.7655 24.2433 15.8226 24.2042 15.8704 24.1553C15.9182 24.1065 15.9558 24.0488 15.981 23.9856C16.0062 23.9225 16.0185 23.855 16.0173 23.7871C15.9777 21.6678 15.9893 19.5198 16.1 17.7094C16.1011 17.6523 16.1137 17.5959 16.1369 17.5435C16.1602 17.4911 16.1936 17.4438 16.2354 17.4041C16.2772 17.3645 16.3265 17.3334 16.3805 17.3126C16.4345 17.2917 16.4921 17.2816 16.5501 17.2827C16.6081 17.2838 16.6652 17.2962 16.7183 17.3191C16.7715 17.3421 16.8195 17.3751 16.8596 17.4163C16.8998 17.4575 16.9314 17.5062 16.9525 17.5594C16.9736 17.6127 16.9839 17.6695 16.9827 17.7267C16.9827 17.7382 16.9827 17.7497 16.9827 17.7611C16.8756 19.5565 16.8663 21.6782 16.9035 23.7722C16.9057 23.9093 16.963 24.0399 17.0628 24.1354C17.1626 24.2308 17.2968 24.2832 17.4358 24.2811C17.5748 24.2789 17.7072 24.2224 17.8039 24.124C17.9007 24.0255 17.9538 23.8932 17.9517 23.7561C17.9121 21.646 17.9237 19.506 18.0344 17.7083C18.0355 17.6511 18.0481 17.5947 18.0713 17.5424C18.0945 17.49 18.128 17.4426 18.1698 17.403C18.2116 17.3634 18.2609 17.3322 18.3149 17.3114C18.3689 17.2906 18.4265 17.2804 18.4845 17.2816C18.5424 17.2827 18.5996 17.2951 18.6527 17.318C18.7058 17.3409 18.7538 17.3739 18.794 17.4152C18.8342 17.4564 18.8657 17.505 18.8869 17.5583C18.908 17.6115 18.9183 17.6684 18.9171 17.7255C18.9171 17.737 18.9171 17.7485 18.9171 17.76C18.7599 20.3928 18.8111 23.724 18.9171 26.6474C18.9171 26.6474 18.9171 26.6726 18.9171 26.6749C18.9171 26.6772 18.9171 26.7048 18.9171 26.7197V26.7484C18.9174 27.1277 18.8241 27.5013 18.6451 27.8369C18.4661 28.1726 18.2069 28.4602 17.8899 28.6748C17.8337 28.7132 17.7869 28.7636 17.753 28.8222C17.7191 28.8809 17.6991 28.9463 17.6943 29.0137C17.6943 29.0137 17.6407 29.4628 17.841 31.6373C17.9354 32.5872 18.0064 33.2454 18.0402 33.5429C18.0476 33.5985 18.0753 33.6496 18.1182 33.6864C18.1611 33.7232 18.2162 33.7433 18.2731 33.7428H18.4769C18.8996 33.7428 19.3364 33.7428 19.7894 33.7428H19.9594H21.6038L22.8487 33.7531C22.906 33.7535 22.9613 33.7332 23.0043 33.6959C23.0473 33.6586 23.0748 33.607 23.0817 33.551C23.3705 30.9446 23.438 29.48 23.438 29.48C23.4364 29.4176 23.412 29.3578 23.3692 29.3117C23.3263 29.2657 23.2681 29.2365 23.2051 29.2296L21.6911 29.024C21.5905 29.0118 21.4958 28.9707 21.4188 28.9057C21.3417 28.8407 21.2858 28.7548 21.2579 28.6587C21.239 28.5837 21.2327 28.506 21.2393 28.429C21.8437 19.7369 24.747 16.8112 24.747 16.8112C24.7901 16.7684 24.8373 16.7299 24.8879 16.6963C24.9455 16.6552 25.0119 16.6276 25.082 16.6157C25.1521 16.6038 25.224 16.6078 25.2922 16.6276C25.3605 16.6473 25.4232 16.6822 25.4757 16.7295C25.5281 16.7769 25.5689 16.8355 25.5948 16.9008C25.6155 16.9688 25.628 17.0389 25.6321 17.1098C25.8825 19.8403 25.7602 24.4878 25.6053 28.1131C25.4737 31.1904 25.3142 33.6061 25.3142 33.6061C25.3142 33.6536 25.3333 33.6992 25.3674 33.7328C25.4015 33.7664 25.4477 33.7853 25.4958 33.7853C26.3204 33.7991 27.1263 33.8152 27.9927 33.837H28.009C28.1759 33.8369 28.338 33.7825 28.4703 33.6822C28.6026 33.5818 28.6975 33.4412 28.7404 33.2822C29.2609 31.0675 29.672 22.5293 29.6942 22.1468C29.7106 21.9992 29.7717 21.8599 29.8696 21.747C29.9674 21.6341 30.0974 21.5529 30.2427 21.5139L32.4379 21.0969C32.5459 21.07 32.6466 21.0198 32.7326 20.9499C32.8186 20.8801 32.8878 20.7923 32.9354 20.6929C32.9829 20.5935 33.0075 20.485 33.0075 20.3751C33.0075 20.2652 32.9828 20.1567 32.9352 20.0574V20.0539Z" fill="#FF8000"/>
</svg>
