<svg xmlns="http://www.w3.org/2000/svg" width="126.691" height="61.159" viewBox="0 0 126.691 61.159"><defs><style>.a{fill:#ffdb00;}</style></defs><g transform="translate(-73.881 -74.182)"><path d="M99.151,87.229a6.569,6.569,0,0,0,5.046-2.216l-.937-.919a5.476,5.476,0,0,1-4.073,1.82A4.977,4.977,0,0,1,94.3,80.705v-.036A4.946,4.946,0,0,1,99.187,75.5a5.483,5.483,0,0,1,3.965,1.73l.973-1.045a6.565,6.565,0,0,0-4.92-2,6.355,6.355,0,0,0-6.379,6.523v.036a6.292,6.292,0,0,0,6.325,6.487m-10.884-.216h1.424V74.4H88.267Zm-7.658.216a6.569,6.569,0,0,0,5.046-2.216l-.937-.919a5.476,5.476,0,0,1-4.073,1.82,4.977,4.977,0,0,1-4.883-5.208v-.036A4.946,4.946,0,0,1,80.645,75.5a5.482,5.482,0,0,1,3.964,1.73l.973-1.045a6.565,6.565,0,0,0-4.92-2,6.355,6.355,0,0,0-6.379,6.523v.036a6.292,6.292,0,0,0,6.325,6.487" transform="translate(-0.329)"/><path d="M719.2,185.474v1.28h-9.081v-12.44h8.992v1.28h-7.588v4.247h6.789v1.28h-6.789v4.354Z" transform="translate(-518.624 -81.621)"/><path d="M635.534,176.553v10.2h-1.368v-12.44h1.315l7.837,9.97v-9.97h1.368v12.44h-1.12Z" transform="translate(-456.714 -81.621)"/><path d="M565.313,186.949c-3.075,0-5.172-1.884-5.172-5.4v-7.233h1.4v7.144c0,2.683,1.422,4.194,3.8,4.194,2.293,0,3.75-1.386,3.75-4.105v-7.233h1.4v7.126c0,3.626-2.079,5.509-5.189,5.509" transform="translate(-396.373 -81.621)"/><path d="M482.847,179.629v-.035a6.243,6.243,0,0,1,6.238-6.433,6.554,6.554,0,0,1,4.638,1.653l-.906,1.066a5.292,5.292,0,0,0-3.785-1.422,4.86,4.86,0,0,0-4.727,5.1v.036c0,2.968,1.9,5.171,4.923,5.171a5.858,5.858,0,0,0,3.59-1.244v-3.092h-3.785v-1.262h5.136v4.958a7.538,7.538,0,0,1-4.994,1.9,6.1,6.1,0,0,1-6.327-6.4" transform="translate(-333.367 -80.682)"/><path d="M238.418,178.522H233.1c.279-1.6,1.231-2.649,2.7-2.649a2.671,2.671,0,0,1,2.625,2.649m3.439,1.278c0-3.532-1.905-6.761-6.064-6.761a6.2,6.2,0,0,0-6.157,6.482v.046a6.578,6.578,0,0,0,11.594,4.113l-2.021-1.789a4.081,4.081,0,0,1-3.021,1.278,2.888,2.888,0,0,1-3.044-2.44h8.666c.023-.325.047-.65.047-.929" transform="translate(-126.962 -80.583)"/><path d="M162.475,178.778c0-1.673-.79-2.532-2.137-2.532s-2.207.86-2.207,2.532v6.947H154.6V173.271h3.532v1.766a4.405,4.405,0,0,1,3.648-2c2.672,0,4.229,1.766,4.229,4.624v8.062h-3.532Z" transform="translate(-65.797 -80.583)"/><path d="M83.066,178.522h-5.32c.279-1.6,1.231-2.649,2.7-2.649a2.671,2.671,0,0,1,2.625,2.649M86.5,179.8c0-3.532-1.905-6.761-6.064-6.761a6.2,6.2,0,0,0-6.157,6.482v.046a6.578,6.578,0,0,0,11.594,4.113l-2.022-1.789a4.08,4.08,0,0,1-3.02,1.278,2.889,2.889,0,0,1-3.044-2.44h8.666c.023-.325.047-.65.047-.929" transform="translate(-0.328 -80.583)"/><rect width="3.531" height="12.454" transform="translate(142.845 92.688)"/><path d="M313.482,181.1v4.6H309.95V173.248h3.532v2.51a3.847,3.847,0,0,1,3.973-2.742v3.694h-.186c-2.347,0-3.787,1.417-3.787,4.391" transform="translate(-192.431 -80.559)"/><path d="M366.251,179.252A2.753,2.753,0,1,1,363.5,176.5a2.753,2.753,0,0,1,2.753,2.753M370.7,183.3v-9.643h-3.532v1.429a5.741,5.741,0,1,0,.046,8.293v.292c0,2.23-1.138,3.392-3.555,3.392a8.735,8.735,0,0,1-1.134-.074V189.8c.4.038.811.07,1.227.07,2.416,0,4.206-.511,5.367-1.673a6.683,6.683,0,0,0,1.58-4.9" transform="translate(-231.176 -80.966)"/><path d="M75.481,304.765h.76l1.236,2.069,1.236-2.069h.76v4.375h-.713V306l-1.282,2.063h-.023l-1.27-2.05v3.125h-.7Z" transform="translate(-1.304 -187.959)"/><path d="M101.786,304.765H104.8v.688h-2.3v1.138h2.036v.687H102.5v1.175h2.326v.687h-3.04Z" transform="translate(-22.747 -187.959)"/><path d="M121.874,304.765h.76l1.236,2.069,1.236-2.069h.76v4.375h-.713V306l-1.282,2.063h-.023l-1.27-2.05v3.125h-.7Z" transform="translate(-39.121 -187.959)"/><path d="M150.012,307.259h-1.131v1.2h1.183c.487,0,.783-.206.783-.6v-.012c0-.369-.272-.588-.835-.588m.609-1.256c0-.344-.255-.556-.713-.556h-1.027v1.162h.974c.458,0,.766-.194.766-.594Zm-2.442-1.238H150a1.4,1.4,0,0,1,1.062.388,1.019,1.019,0,0,1,.273.725v.012a1.106,1.106,0,0,0,.226,2.038v.012c0,.782-.6,1.2-1.5,1.2h-1.88Z" transform="translate(-60.564 -187.959)"/><path d="M169.9,304.765h3.011v.688h-2.3v1.138h2.036v.687h-2.036v1.175h2.327v.687H169.9Z" transform="translate(-78.27 -187.959)"/><path d="M191.747,306.934a.737.737,0,0,0,.835-.731v-.012c0-.469-.313-.725-.841-.725H190.7v1.469Zm-1.758-2.169h1.81a1.567,1.567,0,0,1,1.172.438,1.38,1.38,0,0,1,.336.944v.013a1.3,1.3,0,0,1-.963,1.325l1.1,1.656h-.847l-1-1.525H190.7v1.525h-.714Z" transform="translate(-94.645 -187.959)"/><path d="M222.741,306.634v-.012a1.454,1.454,0,0,0-1.381-1.556,1.434,1.434,0,0,0-1.369,1.544v.012a1.448,1.448,0,0,0,1.381,1.55,1.428,1.428,0,0,0,1.369-1.538m-3.5,0v-.012a2.127,2.127,0,1,1,4.246-.012v.012a2.127,2.127,0,1,1-4.246.012" transform="translate(-118.491 -187.628)"/><path d="M245.957,304.765h3.022v.7H246.67v1.194h2.048v.7H246.67v1.781h-.713Z" transform="translate(-140.267 -187.959)"/><path d="M275.914,307.259h-1.131v1.2h1.183c.487,0,.783-.206.783-.6v-.012c0-.369-.273-.588-.835-.588m.609-1.256c0-.344-.255-.556-.713-.556h-1.027v1.162h.974c.458,0,.766-.194.766-.594Zm-2.442-1.238H275.9a1.4,1.4,0,0,1,1.062.388,1.019,1.019,0,0,1,.273.725v.012a1.106,1.106,0,0,0,.226,2.038v.012c0,.782-.6,1.2-1.5,1.2h-1.88Z" transform="translate(-163.192 -187.959)"/><path d="M296.726,307.265l-.7-1.75-.7,1.75ZM295.7,304.6h.661L298.153,309H297.4l-.412-1.056h-1.92L294.649,309h-.731Z" transform="translate(-179.362 -187.821)"/><path d="M317.807,308.228l.429-.55a1.812,1.812,0,0,0,1.282.569c.441,0,.719-.225.719-.55v-.012c0-.313-.162-.481-.917-.669-.864-.225-1.352-.5-1.352-1.306V305.7a1.277,1.277,0,0,1,1.387-1.269,2.153,2.153,0,0,1,1.473.55l-.383.582a1.768,1.768,0,0,0-1.1-.45c-.418,0-.661.232-.661.519v.012c0,.338.185.488.969.688.858.225,1.3.556,1.3,1.281v.013a1.3,1.3,0,0,1-1.45,1.306,2.4,2.4,0,0,1-1.694-.7" transform="translate(-198.835 -187.684)"/><path d="M340.286,307.973l-.7-.644.458-.563.714.7a1.745,1.745,0,0,0,.2-.831v-.013a1.454,1.454,0,0,0-1.381-1.556,1.434,1.434,0,0,0-1.369,1.544v.012a1.448,1.448,0,0,0,1.381,1.55,1.3,1.3,0,0,0,.7-.2m1.009.969-.487-.469a2.035,2.035,0,0,1-1.236.412,2.145,2.145,0,0,1-2.117-2.25v-.012a2.127,2.127,0,1,1,4.246-.012v.012a2.386,2.386,0,0,1-.412,1.344l.464.425Z" transform="translate(-214.851 -187.629)"/><path d="M363.823,307.283v-2.519h.714v2.488c0,.813.389,1.244,1.027,1.244s1.021-.406,1.021-1.213v-2.519h.713v2.482c0,1.306-.685,1.963-1.746,1.963s-1.729-.656-1.729-1.925" transform="translate(-236.345 -187.958)"/><path d="M386.987,304.765H390v.688h-2.3v1.138h2.036v.687H387.7v1.175h2.327v.687h-3.04Z" transform="translate(-255.227 -187.959)"/><path d="M417.31,306.934a.737.737,0,0,0,.836-.731v-.012c0-.469-.313-.725-.841-.725h-1.038v1.469Zm-1.758-2.169h1.81a1.567,1.567,0,0,1,1.172.438,1.38,1.38,0,0,1,.336.944v.013a1.3,1.3,0,0,1-.963,1.325l1.1,1.656h-.847l-1-1.525h-.894v1.525h-.713v-4.375Z" transform="translate(-278.512 -187.959)"/><path d="M437.3,304.765h3.011v.688h-2.3v1.138h2.036v.687h-2.036v1.175h2.326v.687H437.3Z" transform="translate(-296.243 -187.959)"/><path d="M455.919,308.228l.429-.55a1.813,1.813,0,0,0,1.282.569c.441,0,.719-.225.719-.55v-.012c0-.313-.163-.481-.917-.669-.864-.225-1.352-.5-1.352-1.306V305.7a1.278,1.278,0,0,1,1.387-1.269,2.153,2.153,0,0,1,1.474.55l-.383.582a1.768,1.768,0,0,0-1.1-.45c-.418,0-.661.232-.661.519v.012c0,.338.185.488.969.688.858.225,1.3.556,1.3,1.281v.013a1.3,1.3,0,0,1-1.45,1.306,2.4,2.4,0,0,1-1.694-.7" transform="translate(-311.417 -187.684)"/><path d="M476.541,304.765h3.01v.688h-2.3v1.138h2.037v.687h-2.037v1.175h2.326v.687h-3.04Z" transform="translate(-328.227 -187.959)"/><path d="M497.556,307.265l-.7-1.75-.7,1.75Zm-1.021-2.669h.661L498.983,309h-.754l-.412-1.056H495.9L495.479,309h-.731Z" transform="translate(-343.068 -187.821)"/><path d="M522.243,306.934a.737.737,0,0,0,.835-.731v-.012c0-.469-.313-.725-.841-.725H521.2v1.469Zm-1.758-2.169h1.81a1.568,1.568,0,0,1,1.172.438,1.381,1.381,0,0,1,.336.944v.013a1.3,1.3,0,0,1-.963,1.325l1.1,1.656h-.847l-1-1.525H521.2v1.525h-.714v-4.375Z" transform="translate(-364.048 -187.959)"/><path d="M541.266,306.634v-.012a2.141,2.141,0,0,1,2.094-2.263,2.044,2.044,0,0,1,1.59.681l-.458.569a1.565,1.565,0,0,0-1.137-.543,1.43,1.43,0,0,0-1.34,1.544v.012a1.432,1.432,0,0,0,1.34,1.55,1.539,1.539,0,0,0,1.166-.562l.458.5a2.032,2.032,0,0,1-1.647.775,2.128,2.128,0,0,1-2.066-2.251" transform="translate(-380.987 -187.628)"/><path d="M565.091,304.765h.714v1.819h1.938v-1.819h.714v4.375h-.714V307.3H565.8v1.844h-.714Z" transform="translate(-400.408 -187.959)"/><path d="M76.022,343.046v-.013a.456.456,0,0,0-.458-.494.485.485,0,0,0-.487.525v.013a.957.957,0,0,0,.307.65c.418-.163.638-.369.638-.681m.023,2.381-.905-.994a.8.8,0,0,0-.54.725v.013a.637.637,0,0,0,.679.637,1.085,1.085,0,0,0,.766-.381m.406.45a1.721,1.721,0,0,1-1.241.569,1.236,1.236,0,0,1-1.328-1.25v-.012a1.3,1.3,0,0,1,.864-1.225,1.484,1.484,0,0,1-.336-.913v-.013a1.1,1.1,0,0,1,1.166-1.1,1.036,1.036,0,0,1,1.079,1.056V343a1.2,1.2,0,0,1-.893,1.138l.7.763a6.463,6.463,0,0,0,.435-.844l.54.306a6.644,6.644,0,0,1-.551.994l.644.7-.534.412Z" transform="translate(0 -218.256)"/><path d="M103.326,343.052h-1.288v-.713h3.295v.713h-1.288v3.663h-.719Z" transform="translate(-22.952 -218.587)"/><path d="M123,342.339h3.011v.688h-2.3v1.138h2.036v.688h-2.036v1.175h2.326v.687H123Z" transform="translate(-40.042 -218.587)"/><path d="M142.12,344.209V344.2a2.141,2.141,0,0,1,2.094-2.263,2.042,2.042,0,0,1,1.59.681l-.458.569a1.565,1.565,0,0,0-1.137-.543,1.43,1.43,0,0,0-1.34,1.544v.012a1.432,1.432,0,0,0,1.34,1.55,1.539,1.539,0,0,0,1.166-.562l.458.5a2.033,2.033,0,0,1-1.647.775,2.128,2.128,0,0,1-2.065-2.25" transform="translate(-55.625 -218.257)"/><path d="M165.945,342.339h.714v1.819H168.6v-1.819h.714v4.375H168.6v-1.844h-1.938v1.844h-.714Z" transform="translate(-75.046 -218.587)"/><path d="M189.487,342.339h.661l2.176,3.026v-3.026h.7v4.375h-.6l-2.239-3.113v3.113h-.7Z" transform="translate(-94.236 -218.587)"/><path d="M216.5,344.209V344.2a1.454,1.454,0,0,0-1.381-1.556,1.434,1.434,0,0,0-1.369,1.544v.012a1.448,1.448,0,0,0,1.381,1.55,1.428,1.428,0,0,0,1.369-1.538m-3.5,0V344.2a2.127,2.127,0,1,1,4.247-.012v.012a2.127,2.127,0,1,1-4.247.012" transform="translate(-113.4 -218.257)"/><path d="M240.338,342.339h.714v3.675h2.135v.7h-2.849Z" transform="translate(-135.687 -218.587)"/><path d="M260.722,344.209V344.2a1.454,1.454,0,0,0-1.38-1.556,1.434,1.434,0,0,0-1.369,1.544v.012a1.448,1.448,0,0,0,1.381,1.55,1.428,1.428,0,0,0,1.369-1.538m-3.5,0V344.2a2.127,2.127,0,1,1,4.247-.012v.012a2.127,2.127,0,1,1-4.247.012" transform="translate(-149.451 -218.257)"/><path d="M283.592,344.209V344.2a2.155,2.155,0,0,1,2.094-2.263,2.1,2.1,0,0,1,1.561.594l-.453.581a1.53,1.53,0,0,0-1.137-.469,1.439,1.439,0,0,0-1.317,1.544v.012a1.417,1.417,0,0,0,1.381,1.563,1.578,1.578,0,0,0,.98-.331v-.819h-1.039v-.669h1.729v1.838a2.487,2.487,0,0,1-1.694.681,2.1,2.1,0,0,1-2.106-2.25" transform="translate(-170.945 -218.257)"/><path d="M307.9,344.989l-1.613-2.65h.847l1.131,1.932,1.148-1.932h.818l-1.613,2.632v1.744H307.9Z" transform="translate(-189.445 -218.587)"/><path d="M339.479,344.839l-.7-1.75-.7,1.75Zm-1.021-2.669h.661l1.787,4.407h-.754l-.412-1.056h-1.92l-.418,1.056h-.731Z" transform="translate(-214.212 -218.449)"/><path d="M362.41,342.339h.714v3.675h2.135v.7H362.41Z" transform="translate(-235.193 -218.587)"/><path d="M380.9,342.339h.714v3.675h2.135v.7H380.9Z" transform="translate(-250.263 -218.587)"/><rect width="0.714" height="4.375" transform="translate(134.092 123.752)"/><path d="M409.32,344.839l-.7-1.75-.7,1.75ZM408.3,342.17h.661l1.787,4.407h-.754l-.412-1.056h-1.92l-.418,1.056h-.731Z" transform="translate(-271.143 -218.449)"/><path d="M432.25,342.339h.661l2.176,3.026v-3.026h.7v4.375h-.6l-2.239-3.113v3.113h-.7Z" transform="translate(-292.123 -218.587)"/><path d="M455.133,344.209V344.2a2.141,2.141,0,0,1,2.094-2.263,2.043,2.043,0,0,1,1.59.681l-.458.569a1.565,1.565,0,0,0-1.137-.543,1.43,1.43,0,0,0-1.34,1.544v.012a1.432,1.432,0,0,0,1.34,1.55,1.539,1.539,0,0,0,1.166-.562l.458.5a2.033,2.033,0,0,1-1.647.775,2.128,2.128,0,0,1-2.066-2.25" transform="translate(-310.776 -218.257)"/><path d="M478.329,342.339h3.011v.688h-2.3v1.138h2.037v.688h-2.037v1.175h2.326v.687h-3.04Z" transform="translate(-329.684 -218.587)"/><rect class="a" width="20.676" height="2.63" transform="translate(74.119 132.711)"/></g></svg>