<?xml version="1.0" encoding="utf-8"?>
<!-- Generator: Adobe Illustrator 24.2.0, SVG Export Plug-In . SVG Version: 6.00 Build 0)  -->
<svg version="1.1" id="Ebene_1" xmlns="http://www.w3.org/2000/svg" xmlns:xlink="http://www.w3.org/1999/xlink" x="0px" y="0px"
	 width="138px" height="24px" viewBox="0 0 138 24" style="enable-background:new 0 0 138 24;" xml:space="preserve">
<style type="text/css">
	.st0{fill:#FFFFFF;}
	.st1{fill-rule:evenodd;clip-rule:evenodd;fill:#20BBFF;}
</style>
<g id="Logo" transform="translate(-23 -31.594)">
	<g id="Gruppe_64" transform="translate(23 31.594)">
		<g>
			<path class="st0" d="M102.9,16.6c0-0.1-0.1-0.2-0.1-0.2c-1.6-5.2-3.1-10.5-4.7-15.7c0-0.2-0.1-0.2-0.3-0.2c-1.1,0-2.3,0-3.4,0
				h-0.2l-4.8,16.1c-0.1-0.1-0.1-0.2-0.1-0.3c-1.5-5.2-3-10.5-4.7-15.7c0-0.1-0.2-0.2-0.3-0.2c-1.4,0-2.8,0-4.1,0
				c-0.1,0-0.1,0-0.2,0c0,0.1,0,0.1,0.1,0.2l6.7,19.8c0.3,1,0.7,2,1,3.1c0,0.1,0.1,0.2,0.2,0.2c1.1,0,2.1,0,3.2,0
				c0.9-2.7,1.8-5.3,2.6-8c0.8-2.7,1.6-5.3,2.5-8c0,0.1,0.1,0.2,0.1,0.3c0.9,2.8,1.7,5.6,2.6,8.5c0.7,2.4,1.5,4.7,2.3,7c0,0,0,0,0,0
				c0,0.1,0.1,0.2,0.3,0.2c0.5,0,1.1,0,1.6,0h1.5l7.9-23.2h-4.6C105.9,5.8,104.4,11.2,102.9,16.6z"/>
			<path class="st0" d="M73.7,3c-2-1.6-4.4-2.6-6.9-2.8c-2.6-0.3-5.3,0.1-7.7,1.3c-2.2,1-4.1,2.8-5.1,5c-0.6,1.2-1,2.5-1.1,3.8
				c-0.2,1.8-0.1,3.6,0.4,5.4c0.7,2.7,2.5,5,4.9,6.4c3,1.8,6.6,2.4,10.1,1.6c1.7-0.3,3.4-1.1,4.8-2.1c1.5-1.1,2.7-2.5,3.5-4.1
				c0.1-0.3,0.3-0.6,0.4-1c0,0-0.1,0-0.1,0c-1.4,0-2.8,0-4.3,0c-0.1,0-0.2,0.1-0.2,0.1c-0.3,0.4-0.6,0.8-0.9,1.2
				c-2,2-4.9,2.9-7.6,2.3c-1.4-0.2-2.8-0.8-3.9-1.7c-1.3-1-2.2-2.3-2.6-3.9c-0.1-0.5-0.2-1-0.2-1.5h20.4c0-0.4,0.1-0.7,0.1-1.1
				c0-1.1-0.1-2.1-0.4-3.2C76.7,6.5,75.5,4.5,73.7,3z M57.2,9.6c0.2-0.5,0.3-1,0.6-1.5c1-2.1,2.9-3.6,5.2-4c1.8-0.4,3.6-0.3,5.3,0.2
				c2,0.6,3.7,2.1,4.4,4.1c0.1,0.4,0.2,0.8,0.4,1.2L57.2,9.6z"/>
			<path class="st0" d="M17.4,12c-1.1-0.7-2.3-1.2-3.6-1.5c-1.5-0.3-3.1-0.5-4.7-0.5c-0.8,0-1.5-0.1-2.3-0.3c-0.6-0.1-1.2-0.5-1.6-1
				C4.7,8,4.5,7.1,4.8,6.2c0.3-0.9,1-1.6,1.9-1.9c1.9-0.7,4-0.8,5.9-0.1c0.8,0.2,1.5,0.8,2,1.5c0.2,0.4,0.3,0.7,0.5,1.1h4.2
				c0-0.1,0-0.2,0-0.3C19.2,5.2,18.7,4,17.9,3c-1.2-1.4-2.8-2.3-4.7-2.7C11.5,0,9.7-0.1,7.9,0.1c-1.5,0.2-3,0.6-4.4,1.4
				C2.5,2.1,1.7,2.9,1.2,4C0.5,5.1,0.3,6.5,0.4,7.8c0.1,2,1.3,3.8,3.2,4.6c1.5,0.7,3,1.1,4.7,1.3c1.1,0.1,2.1,0.2,3.2,0.3
				c1,0.1,2,0.4,2.9,0.8c0.2,0.1,0.4,0.3,0.6,0.4c1,0.9,1,2.5,0.1,3.5c-0.5,0.5-1.1,0.9-1.8,1.1c-0.9,0.3-1.9,0.5-2.8,0.5
				c-1.3,0.1-2.5-0.1-3.7-0.7c-1.1-0.5-2-1.4-2.2-2.6c0-0.2-0.1-0.4-0.1-0.6H0c0.1,0.4,0.1,0.7,0.2,1.1c0.3,1.6,1.1,3,2.3,4.1
				c1.4,1.1,3.1,1.8,4.8,2.1C8.9,24,10.5,24,12,23.8c1.6-0.1,3.2-0.6,4.6-1.3c1.3-0.6,2.4-1.8,3-3.1c0.4-1.1,0.6-2.4,0.3-3.6
				C19.7,14.3,18.8,12.9,17.4,12z"/>
			<path class="st0" d="M44.2,14.8c-0.1,0-0.1,0.1-0.2,0.1c-0.1,0.3-0.2,0.7-0.4,1c-0.8,1.8-2.4,3.2-4.3,3.8
				c-2.1,0.7-4.3,0.7-6.3-0.2c-1.9-0.7-3.4-2.2-4.1-4.1c-0.8-1.9-0.9-3.9-0.4-5.8c0.5-2,1.8-3.7,3.6-4.7c1.8-1,3.8-1.4,5.8-1
				c1.4,0.2,2.7,0.8,3.8,1.7C42.8,6.5,43.6,7.7,44,9c0,0,0,0,0,0c0,0.2,0.2,0.3,0.4,0.3c1.3,0,2.6,0,4,0h0.3
				c-0.1-0.2-0.1-0.4-0.1-0.6c-0.6-2.5-2.1-4.6-4.2-6.1c-1.9-1.4-4.2-2.2-6.6-2.3c-2.5-0.2-5.1,0.2-7.4,1.3c-2.2,1-4.1,2.8-5.2,5
				c-0.7,1.4-1.1,2.9-1.2,4.4c-0.1,1.6,0,3.2,0.5,4.8c0.9,3.1,3.2,5.7,6.2,7c2.3,1,4.7,1.4,7.2,1.2c1.8-0.2,3.6-0.7,5.2-1.5
				c2.6-1.3,4.6-3.7,5.4-6.5c0.1-0.3,0.2-0.7,0.3-1c0,0-0.1,0-0.1,0C47,14.8,45.6,14.8,44.2,14.8z"/>
			<path class="st0" d="M137.3,8c-1.8-4.7-6.3-7.8-11.3-7.8c-2.4-0.1-4.8,0.5-6.9,1.7c-4.4,2.5-6.7,7.5-5.7,12.5
				c0.7,3.7,3.2,6.8,6.5,8.3c1.5,0.7,3.1,1.2,4.8,1.3c0.5,0.1,1-0.1,1.4-0.5c0.9-0.8,1.7-1.7,2.6-2.5c0.2-0.2,0.3-0.4,0.2-0.7
				c-0.1-0.2-0.4-0.4-0.6-0.3c-0.6,0-1.1,0-1.7,0c-0.9,0-1.8-0.1-2.6-0.2c-2.7-0.4-5-2.3-6-4.8c-0.7-1.7-0.8-3.6-0.2-5.3
				c0.5-1.7,1.6-3.1,3.1-4.1c1.6-1.1,3.6-1.6,5.5-1.5c1.9,0.1,3.6,0.9,5,2.1c1.5,1.3,2.5,3.2,2.6,5.2c0.1,1.1,0.1,2.1,0.1,3.2
				c0,0.3,0.1,0.5,0.4,0.6c0.3,0.1,0.5,0,0.7-0.2c0.9-0.8,1.7-1.7,2.6-2.5c0.3-0.3,0.5-0.7,0.5-1.2C138,10.2,137.7,9.1,137.3,8z"/>
		</g>
		<path id="Spickel" class="st1" d="M136.7,16.1c0.2,0,0.3,0.1,0.4,0.2c0.1,0.1,0.1,0.3,0,0.4c-1.3,2.9-3.7,5.3-6.7,6.4
			c-0.1,0.1-0.3,0-0.4,0c-0.1-0.1-0.2-0.2-0.2-0.4c0-1.3,0-4.3,0-5.7c0-0.2,0.1-0.5,0.3-0.6c0.2-0.2,0.4-0.3,0.7-0.3L136.7,16.1z"/>
	</g>
</g>
</svg>
