<svg viewbox="0 0 589.02 111.49" style="height:100%;width:auto"><path fill="none" stroke="#fff" stroke-linecap="round" stroke-miterlimit="10" stroke-width="15" d="M134.35 91.9V59.15a25.25 25.25 0 0125-25.49h0a25.25 25.25 0 0125 25.49V91.9M265.61 33.66v32.75a25.25 25.25 0 01-25 25.49h0a25.25 25.25 0 01-25-25.49V33.66M296.88 91.9V59.15a25.25 25.25 0 0125-25.49h0a25.25 25.25 0 0125 25.49V91.9M428.14 33.66v32.75a25.25 25.25 0 01-25 25.49h0a25.25 25.25 0 01-25-25.49V33.66"></path><circle cx="517.47" cy="62.78" r="29.12" fill="none" stroke="#fff" stroke-miterlimit="10" stroke-width="15"></circle><path fill="none" stroke="#fff" stroke-linecap="round" stroke-miterlimit="10" stroke-width="15" d="M546.59 33.66L546.59 91.9"></path><circle cx="459.41" cy="91.9" r="7.5" fill="#fff"></circle><path fill="none" stroke="#fff" stroke-linecap="round" stroke-miterlimit="10" stroke-width="15" d="M581.52 92.05L581.52 33.82"></path><circle cx="581.52" cy="7.5" r="7.5" fill="#fff"></circle><path fill="#805ce5" d="M88.08 96.83l-87-2.91a1.17 1.17 0 00-.47 2.22l28.5 13.51A18.85 18.85 0 0042 110.88l46.3-12.06a1 1 0 00-.22-1.99z"></path><path fill="#e55cd8" d="M10.66 86l67.58 4a2.15 2.15 0 002-3.08C69.85 68.68 56.77 29 55.38 5.25 55.08.24 53 3 52.2 4.52L9.05 82.72A2.16 2.16 0 0010.66 86z"></path></svg>