<svg width="141" height="33" viewBox="0 0 141 33" fill="none" xmlns="http://www.w3.org/2000/svg">
<path fill-rule="evenodd" clip-rule="evenodd" d="M6.5 6.59961H8.66744H10.8348V26.3996H8.66744H6.5V24.1996H8.66744V8.79959H6.5V6.59961Z" fill="black"/>
<path fill-rule="evenodd" clip-rule="evenodd" d="M19.5022 24.1992C21.8962 24.1992 23.837 22.2292 23.837 19.7992C23.837 17.3692 21.8962 15.3992 19.5022 15.3992C17.1082 15.3992 15.1674 17.3692 15.1674 19.7992C15.1674 22.2292 17.1082 24.1992 19.5022 24.1992ZM19.5022 26.3992C23.0933 26.3992 26.0044 23.4443 26.0044 19.7992C26.0044 16.1541 23.0933 13.1992 19.5022 13.1992C15.9111 13.1992 13 16.1541 13 19.7992C13 23.4443 15.9111 26.3992 19.5022 26.3992Z" fill="black"/>
<path d="M135.387 23.8258C137.649 23.8258 138.688 22.7516 139.034 21.2803H140.719C140.488 23.0552 139.15 25.2504 135.318 25.2504C131.348 25.2504 129.594 22.5414 129.594 19.0149C129.594 15.5352 131.486 12.8262 135.318 12.8262C138.78 12.8262 140.742 15.2316 140.742 18.6413C140.742 18.9449 140.742 19.1784 140.696 19.4587H131.417C131.556 22.6581 133.079 23.8258 135.387 23.8258ZM135.341 14.2508C133.148 14.2508 131.717 15.3017 131.463 18.0574H138.942C138.85 15.3717 137.488 14.2508 135.341 14.2508Z" fill="white"/>
<path d="M128.102 13.0371H128.517V14.8821H128.033C124.616 14.7653 123.878 17.2875 123.878 20.5804V24.8775H122.031V13.2006H123.878V16.2833C124.57 14.3449 125.909 13.0371 128.102 13.0371Z" fill="white"/>
<path d="M113.817 25.2504C109.916 25.2504 108 22.5414 108 19.0149C108 15.5352 109.916 12.8262 113.817 12.8262C117.694 12.8262 119.61 15.5586 119.61 19.0149C119.61 22.518 117.694 25.2504 113.817 25.2504ZM109.87 19.0383C109.87 22.3078 111.208 23.7324 113.817 23.7324C116.425 23.7324 117.741 22.3078 117.741 19.0383C117.741 15.7454 116.425 14.3442 113.817 14.3442C111.208 14.3442 109.87 15.7454 109.87 19.0383Z" fill="white"/>
<path d="M101.183 24.877H98.8521L94.4896 19.2488L92.1122 21.5374V24.877H90.2656V8.5293H92.1122V19.4589C92.4584 19.0152 92.8508 18.5948 93.2201 18.2445L98.4135 13.2001H100.699V13.2468L95.6437 18.1278L101.183 24.877Z" fill="white"/>
<path d="M76.6875 19.0383C76.6875 15.4652 78.7187 12.8262 82.458 12.8262C85.9202 12.8262 87.6514 14.7645 87.836 17.4736H86.1049C85.8279 15.5586 84.6738 14.3442 82.5272 14.3442C80.0805 14.3442 78.5571 15.6753 78.5571 19.0383C78.5571 22.4246 80.0344 23.7324 82.458 23.7324C84.7892 23.7324 85.9895 22.4012 86.2203 20.4162H87.9745C87.836 23.1019 85.9664 25.2504 82.458 25.2504C78.6725 25.2504 76.6875 22.6114 76.6875 19.0383Z" fill="white"/>
<path d="M68.2851 25.1803C66.0692 25.1803 64.4766 24.0126 64.4766 21.794C64.4766 19.9023 65.4922 18.7113 67.985 18.2909L70.9164 17.8005C72.1397 17.5903 72.6475 17.2633 72.6475 16.3759C72.6475 15.1848 72.0474 14.274 69.8085 14.274C67.5464 14.274 66.6924 15.3483 66.577 16.8663H64.7535C64.8228 14.3908 66.5539 12.8027 69.7392 12.8027C72.9014 12.8027 74.3325 14.274 74.3325 16.3759V21.9808C74.3325 22.8215 74.3556 23.7323 74.471 24.8767H72.786C72.6937 23.8725 72.6245 23.0084 72.6245 22.1443C72.1859 23.5455 70.9626 25.1803 68.2851 25.1803ZM68.6544 23.709C71.378 23.709 72.6475 21.5604 72.6475 19.3418V18.3376C72.0705 18.758 71.4473 18.9448 70.5702 19.1316L68.6544 19.5286C67.0848 19.8556 66.3462 20.4628 66.3462 21.7239C66.3462 23.0551 67.2925 23.709 68.6544 23.709Z" fill="white"/>
<path d="M61.6903 24.877H59.8438V8.5293H61.6903V24.877Z" fill="white"/>
<path d="M52.0059 12.8264C55.6297 12.8264 57.2916 15.4421 57.2916 19.0386C57.2916 22.6117 55.6297 25.2507 52.0059 25.2507C49.8824 25.2507 48.4282 24.2932 47.6434 22.6351V24.877H45.7969V8.5293H47.6434V15.4187C48.4282 13.7606 49.8824 12.8264 52.0059 12.8264ZM51.6366 23.7326C54.2679 23.7326 55.422 22.168 55.422 19.0386C55.422 15.8858 54.2679 14.3444 51.6366 14.3444C49.1899 14.3444 47.6434 15.7457 47.6434 19.0386C47.6434 22.3315 49.1899 23.7326 51.6366 23.7326Z" fill="white"/>
<rect width="32.9758" height="33" fill="white"/>
<path fill-rule="evenodd" clip-rule="evenodd" d="M6.82031 6.82812H8.98775H11.1551V26.6281H8.98775H6.82031V24.4281H8.98775V9.02811H6.82031V6.82812Z" fill="black"/>
<path fill-rule="evenodd" clip-rule="evenodd" d="M19.8225 24.4277C22.2165 24.4277 24.1573 22.4578 24.1573 20.0277C24.1573 17.5977 22.2165 15.6277 19.8225 15.6277C17.4285 15.6277 15.4877 17.5977 15.4877 20.0277C15.4877 22.4578 17.4285 24.4277 19.8225 24.4277ZM19.8225 26.6277C23.4136 26.6277 26.3247 23.6728 26.3247 20.0277C26.3247 16.3827 23.4136 13.4277 19.8225 13.4277C16.2314 13.4277 13.3203 16.3827 13.3203 20.0277C13.3203 23.6728 16.2314 26.6277 19.8225 26.6277Z" fill="black"/>
</svg>
