<svg width="300" height="61" viewBox="0 0 300 61" fill="none" xmlns="http://www.w3.org/2000/svg">
<path d="M300 6.60821V0.887207H259.93V59.6271H300V53.9092H266.35V33.1084H294.753V27.4152H266.35V6.60821H300Z" fill="#1562FC"/>
<path d="M250.887 8.84479C246.615 4.62152 241.173 1.74544 235.248 0.580246C229.323 -0.584951 223.182 0.0130716 217.6 2.29869C212.019 4.58431 207.249 8.45486 203.893 13.4209C200.536 18.3869 198.745 24.2254 198.745 30.198C198.745 36.1706 200.536 42.0091 203.893 46.9751C207.249 51.9412 212.019 55.8117 217.6 58.0974C223.182 60.383 229.323 60.981 235.248 59.8158C241.173 58.6506 246.615 55.7745 250.887 51.5512L246.558 47.2717C243.143 50.6485 238.791 52.9482 234.054 53.8799C229.316 54.8116 224.406 54.3334 219.943 52.5058C215.48 50.6783 211.666 47.5835 208.983 43.6127C206.299 39.642 204.867 34.9736 204.867 30.198C204.867 25.4224 206.299 20.7541 208.983 16.7833C211.666 12.8126 215.48 9.71773 219.943 7.89019C224.406 6.06265 229.316 5.58448 234.054 6.51615C238.791 7.44783 243.143 9.74749 246.558 13.1243L250.887 8.84479Z" fill="#1562FC"/>
<path d="M191.25 0.880859H180.883V59.627H191.25V0.880859Z" fill="#1562FC"/>
<path d="M152.885 0.88395H152.875L152.878 0.880859H142.558L124.346 59.627H134.638L152.885 0.88395Z" fill="#1562FC"/>
<path d="M174.342 59.627L156.12 0.880859L151.087 17.0888L157.71 38.4274H144.465L141.435 48.1881H160.737L164.289 59.627H174.342Z" fill="#1562FC"/>
<path d="M126.448 0.883789L111.418 48.1879L96.3843 0.883789H89.9792L74.9491 48.1879L59.9158 0.883789H53.5107L71.745 59.6237H78.1501L93.1398 12.3227L108.213 59.6237H114.619L132.853 0.883789H126.448Z" fill="#1562FC"/>
<path d="M48.7974 6.59894L47.0246 0.887207H0V6.59894H21.2117V59.6271H27.6013V6.59894H48.7974Z" fill="#1562FC"/>
</svg>
