<svg width="84" viewbox="0 0 384 101" fill="none" xmlns="http://www.w3.org/2000/svg"><path d="M121.541 13.1326H131.299V44.94H169.922V13.1326H179.68V87.1082H169.922V53.2286H131.299V87.1082H121.541V13.1326Z" fill="currentColor"></path><path d="M228.028 55.1971C227.891 53.125 227.412 51.1565 226.59 49.2915C225.837 47.4266 224.776 45.8379 223.406 44.5256C222.105 43.1442 220.53 42.0735 218.681 41.3138C216.9 40.4849 214.914 40.0705 212.723 40.0705C210.463 40.0705 208.409 40.4849 206.56 41.3138C204.779 42.0735 203.239 43.1442 201.937 44.5256C200.636 45.907 199.609 47.5302 198.856 49.3951C198.103 51.191 197.657 53.125 197.521 55.1971H228.028ZM236.451 70.1166C235.287 76.1258 232.719 80.65 228.747 83.6892C224.776 86.7283 219.777 88.2479 213.75 88.2479C209.505 88.2479 205.807 87.5572 202.657 86.1757C199.575 84.7943 196.973 82.8603 194.85 80.3737C192.727 77.8871 191.118 74.9171 190.022 71.4635C188.995 68.0099 188.413 64.2455 188.276 60.1703C188.276 56.0951 188.892 52.3652 190.125 48.9807C191.357 45.5962 193.069 42.6607 195.261 40.1741C197.521 37.6875 200.157 35.7535 203.17 34.3721C206.252 32.9906 209.607 32.2999 213.237 32.2999C217.962 32.2999 221.865 33.3015 224.947 35.3045C228.097 37.2385 230.596 39.7251 232.445 42.7643C234.363 45.8034 235.664 49.1188 236.349 52.7106C237.102 56.3023 237.41 59.7213 237.273 62.9677H197.521C197.452 65.3161 197.726 67.5609 198.342 69.7022C198.959 71.7743 199.952 73.6392 201.321 75.297C202.691 76.8856 204.437 78.1634 206.56 79.1304C208.683 80.0974 211.182 80.5809 214.058 80.5809C217.756 80.5809 220.77 79.7175 223.098 77.9908C225.495 76.264 227.07 73.6392 227.823 70.1166H236.451Z" fill="currentColor"></path><path d="M249.611 60.7919C249.611 63.2785 249.919 65.7305 250.535 68.1481C251.22 70.4965 252.213 72.6032 253.514 74.4681C254.884 76.333 256.596 77.8181 258.65 78.9232C260.773 80.0284 263.238 80.5809 266.046 80.5809C268.991 80.5809 271.49 79.9938 273.545 78.8196C275.599 77.6454 277.277 76.1258 278.578 74.2609C279.879 72.3269 280.804 70.1511 281.351 67.7336C281.968 65.3161 282.276 62.8641 282.276 60.3775C282.276 57.7528 281.968 55.2317 281.351 52.8142C280.735 50.3276 279.742 48.1518 278.373 46.2869C277.071 44.422 275.359 42.9369 273.236 41.8318C271.114 40.6576 268.546 40.0705 265.533 40.0705C262.588 40.0705 260.088 40.6576 258.034 41.8318C255.98 43.006 254.336 44.5601 253.103 46.4941C251.871 48.4281 250.98 50.6384 250.433 53.125C249.885 55.6116 249.611 58.1672 249.611 60.7919ZM290.699 87.1082H281.968V79.8557H281.762C280.324 82.8258 278.064 84.967 274.983 86.2793C271.901 87.5917 268.511 88.2479 264.813 88.2479C260.705 88.2479 257.109 87.4881 254.028 85.9685C251.015 84.4489 248.481 82.4113 246.427 79.8557C244.441 77.3 242.934 74.33 241.907 70.9454C240.88 67.5609 240.366 63.9692 240.366 60.1703C240.366 56.3714 240.845 52.7796 241.804 49.3951C242.831 46.0106 244.338 43.0751 246.324 40.5885C248.378 38.0329 250.912 36.0298 253.925 34.5793C257.007 33.0597 260.568 32.2999 264.608 32.2999C265.978 32.2999 267.45 32.4381 269.025 32.7144C270.6 32.9906 272.175 33.4741 273.75 34.1649C275.325 34.7865 276.797 35.6499 278.167 36.755C279.605 37.7911 280.804 39.1035 281.762 40.6921H281.968V13.1326H290.699V87.1082Z" fill="currentColor"></path><path d="M300.742 33.5432H308.96V44.8364H309.165C311.288 40.4849 313.89 37.2731 316.972 35.2009C320.054 33.1288 323.957 32.1618 328.682 32.2999V41.6246C325.19 41.6246 322.211 42.1081 319.745 43.0751C317.28 44.0421 315.294 45.4581 313.788 47.323C312.281 49.1879 311.185 51.4673 310.501 54.1611C309.816 56.7858 309.473 59.8249 309.473 63.2785V87.1082H300.742V33.5432Z" fill="currentColor"></path><path d="M379.221 86.901C377.715 87.7989 375.626 88.2479 372.955 88.2479C370.695 88.2479 368.881 87.6262 367.511 86.3829C366.21 85.0706 365.559 82.9639 365.559 80.0629C363.163 82.9639 360.355 85.0706 357.136 86.3829C353.986 87.6262 350.562 88.2479 346.864 88.2479C344.468 88.2479 342.173 87.9716 339.982 87.419C337.859 86.8664 336.01 86.003 334.435 84.8288C332.86 83.6546 331.593 82.135 330.635 80.2701C329.744 78.3361 329.299 76.0222 329.299 73.3284C329.299 70.2893 329.813 67.8027 330.84 65.8687C331.867 63.9347 333.203 62.3806 334.846 61.2064C336.558 59.9631 338.476 59.0306 340.598 58.409C342.79 57.7873 345.015 57.2693 347.275 56.8549C349.672 56.3714 351.932 56.026 354.055 55.8188C356.246 55.5425 358.164 55.1971 359.807 54.7827C361.451 54.2992 362.752 53.643 363.71 52.8142C364.669 51.9162 365.149 50.6384 365.149 48.9807C365.149 47.0467 364.772 45.4926 364.019 44.3184C363.334 43.1442 362.409 42.2462 361.245 41.6246C360.15 41.0029 358.883 40.5885 357.445 40.3813C356.075 40.1741 354.705 40.0705 353.336 40.0705C349.638 40.0705 346.556 40.7957 344.091 42.2462C341.626 43.6277 340.29 46.2869 340.085 50.224H331.354C331.491 46.9086 332.175 44.1112 333.408 41.8318C334.641 39.5524 336.284 37.722 338.339 36.3406C340.393 34.8901 342.721 33.854 345.324 33.2324C347.994 32.6107 350.836 32.2999 353.849 32.2999C356.246 32.2999 358.609 32.4726 360.937 32.818C363.334 33.1633 365.491 33.8886 367.408 34.9937C369.326 36.0298 370.867 37.5148 372.031 39.4488C373.195 41.3828 373.777 43.9039 373.777 47.0122V74.5717C373.777 76.6439 373.88 78.1634 374.085 79.1304C374.359 80.0974 375.181 80.5809 376.551 80.5809C377.304 80.5809 378.194 80.4082 379.221 80.0629V86.901ZM365.046 59.445C363.95 60.2739 362.512 60.8955 360.732 61.31C358.951 61.6553 357.068 61.9661 355.082 62.2424C353.165 62.4496 351.213 62.7259 349.227 63.0713C347.241 63.3476 345.461 63.8311 343.885 64.5218C342.31 65.2125 341.009 66.2141 339.982 67.5264C339.023 68.7697 338.544 70.4965 338.544 72.7068C338.544 74.1573 338.818 75.4006 339.366 76.4366C339.982 77.4036 340.735 78.198 341.626 78.8196C342.584 79.4413 343.68 79.8902 344.913 80.1665C346.145 80.4428 347.446 80.5809 348.816 80.5809C351.692 80.5809 354.157 80.201 356.212 79.4412C358.266 78.6124 359.944 77.6109 361.245 76.4366C362.546 75.1933 363.505 73.881 364.121 72.4996C364.738 71.0491 365.046 69.7022 365.046 68.4589V59.445Z" fill="currentColor"></path><g clip-path="url(#clip0_51_68)"><path d="M41.843 95.7443L48.8724 83.5795L59.0225 101.148L71.8231 93.7636L60.2752 73.7791L57.4038 68.8118L54.0362 62.981H43.7071L40.3396 68.8118L37.4668 73.7791L29.0425 88.3611L41.843 95.7443Z" fill="currentColor"></path><path d="M7.02441 65.7483L21.0817 65.7496L10.9316 83.3169L23.7321 90.7027L35.28 70.7183L38.1487 65.7496L41.5176 59.9201L36.3537 50.982H29.6159L23.8745 50.9792L7.02441 50.9806V65.7483Z" fill="currentColor"></path><path d="M15.6179 20.6277L22.6459 32.7938L2.34424 32.7924V47.5615H25.44L31.1814 47.5588L37.9193 47.5601L43.0832 38.622L39.7142 32.7924L36.8456 27.8238L28.4171 13.2432L15.6179 20.6277Z" fill="currentColor"></path><path d="M59.0225 5.49759L51.9932 17.6623L41.843 0.09375L29.0425 7.47828L40.5904 27.4641L43.4631 32.4314L46.8307 38.2623H57.1598L60.5274 32.4314L63.3988 27.4641L71.8231 12.8821L59.0225 5.49759Z" fill="currentColor"></path><path d="M93.8329 35.4929L79.7756 35.4915L89.9271 17.9243L77.1266 10.5398L65.5787 30.5242L62.71 35.4929L59.3411 41.3224L64.5049 50.2606L71.2428 50.2592L76.9842 50.2619L93.8343 50.2606L93.8329 35.4929Z" fill="currentColor"></path><path d="M85.2436 80.615L78.2157 68.4503L98.5174 68.4517L98.5187 53.6826H75.4243L69.6829 53.684H62.945L57.7798 62.6221L61.1487 68.4517L64.0174 73.4203L72.4431 88.0009L85.2436 80.615Z" fill="currentColor"></path></g><defs><clippath id="clip0_51_68"><rect width="101" height="101" fill="white"></rect></clippath></defs></svg>