<svg width="209" height="28" viewBox="0 0 209 28" fill="none" xmlns="http://www.w3.org/2000/svg">
<path d="M56.1272 7.63855H42.2514V10.3608H53.405V17.6012H42.2514V20.3234H56.1272V27.8662H33.5176V1.04092C33.5176 0.511599 33.9335 0.0957031 34.4628 0.0957031H56.1272V7.63855Z" fill="white"/>
<path d="M85.5421 0.0957031L78.9634 13.9715L85.5421 27.8473H76.1088L71.5529 18.1305C71.4016 17.7902 71.0614 17.5823 70.7022 17.5823H67.6018V27.8473H58.8491V1.04092C58.8491 0.511599 59.265 0.0957031 59.7943 0.0957031H67.6208V10.3608H70.7022C71.0614 10.3608 71.4016 10.1528 71.5529 9.81255L76.0899 0.0957031H85.5421Z" fill="white"/>
<path d="M123.597 0.0957031H114.863V27.8473H123.597V0.0957031Z" fill="white"/>
<path d="M138.55 20.2478C140.403 20.2289 141.934 19.605 143.125 18.4329C144.335 17.242 144.921 15.7674 144.921 13.9904C144.921 12.1945 144.316 10.7011 143.125 9.51008C141.915 8.3191 140.403 7.73307 138.55 7.73307H135.015V20.2667L138.55 20.2478ZM138.55 0.0957031C142.993 0.0957031 146.641 1.34339 149.515 3.85767C152.388 6.37195 153.825 9.73693 153.825 13.9715C153.825 18.1683 152.388 21.5333 149.515 24.0665C146.641 26.5996 142.993 27.8473 138.55 27.8473H126.338V0.0957031H138.55Z" fill="white"/>
<path d="M199.97 0.0957031H208.534V27.8473H199.97L189.233 13.2531V27.8473H180.669V0.0957031H188.76C189.062 0.0957031 189.346 0.228034 189.516 0.473791L199.97 14.3307V0.0957031Z" fill="white"/>
<path d="M113.539 0.0957031L106.961 13.9715L113.539 27.8473H104.106L99.5501 18.1494C99.3988 17.8091 99.0586 17.6012 98.6994 17.6012H95.6369V27.8662H86.8652V1.04092C86.8652 0.511599 87.2811 0.0957031 87.8105 0.0957031H95.6369V10.3608H98.7183C99.0775 10.3608 99.4177 10.1528 99.569 9.81255L104.106 0.0957031H113.539Z" fill="white"/>
<path d="M177.947 7.63855H164.071V10.3608H175.224V17.6012H164.071V20.3234H177.947V27.8662H155.337V1.04092C155.337 0.511599 155.753 0.0957031 156.282 0.0957031H177.947V7.63855Z" fill="white"/>
<path d="M20.8137 13.9906L27.8461 27.9232H19.3014L14.424 18.2819C14.235 17.9038 13.838 17.677 13.4221 17.677H7.22147V18.4899C7.22147 18.6978 7.39161 18.868 7.59956 18.868H12.9684C13.3276 18.868 13.649 19.0759 13.8002 19.3784L18.1293 27.9421H0V0.984422C0 0.474003 0.415898 0.0581055 0.926316 0.0581055H18.1104L13.7813 8.62179C13.6301 8.94316 13.3087 9.13221 12.9495 9.13221H8.41245H7.59956C7.39161 9.13221 7.22147 9.30235 7.22147 9.51029V10.3232H13.4221C13.838 10.3232 14.235 10.0774 14.424 9.71824L19.3014 0.077011H27.8461L20.8137 13.9906Z" fill="white"/>
</svg>
