<svg width="227" height="32" viewBox="0 0 227 32" fill="none" xmlns="http://www.w3.org/2000/svg">
<path d="M0.208008 30.8022V0.552245H8.36816V24.185H20.5203V30.8022H0.208008Z" fill="#161616"/>
<path d="M18.5783 7.16942V0.552245H44.7026V7.16942H35.6618V30.8022H27.6191V7.16942H18.5783Z" fill="#161616"/>
<path d="M63.1499 10.0054C63.0717 9.02065 62.7048 8.25259 62.0492 7.70115C61.4034 7.14972 60.4201 6.87401 59.0992 6.87401C58.2578 6.87401 57.568 6.9774 57.0298 7.18419C56.5015 7.38113 56.1101 7.65192 55.8557 7.99656C55.6013 8.34121 55.4692 8.73509 55.4594 9.1782C55.4399 9.54254 55.5035 9.87241 55.6502 10.1678C55.8068 10.4534 56.0514 10.7143 56.3841 10.9507C56.7167 11.1771 57.1423 11.3839 57.6609 11.571C58.1795 11.7581 58.7959 11.9255 59.5102 12.0732L61.9758 12.605C63.6392 12.9594 65.0628 13.4272 66.2467 14.0081C67.4306 14.5891 68.3992 15.2735 69.1526 16.0612C69.906 16.8392 70.4589 17.7155 70.8111 18.6904C71.1731 19.6652 71.359 20.7287 71.3688 21.8808C71.359 23.8699 70.8649 25.5537 69.8865 26.9323C68.908 28.3109 67.5089 29.3596 65.689 30.0784C63.8789 30.7973 61.7019 31.1567 59.1579 31.1567C56.5455 31.1567 54.2657 30.7677 52.3187 29.9898C50.3814 29.2119 48.8746 28.0155 47.7983 26.4006C46.7318 24.7758 46.1937 22.6981 46.1839 20.1674H53.9331C53.982 21.0931 54.2119 21.871 54.6229 22.5012C55.0338 23.1314 55.6111 23.609 56.3547 23.9339C57.1081 24.2589 58.0034 24.4213 59.0405 24.4213C59.9113 24.4213 60.6402 24.313 61.2273 24.0964C61.8144 23.8797 62.2596 23.5794 62.5629 23.1954C62.8662 22.8113 63.0227 22.3732 63.0325 21.8808C63.0227 21.418 62.8711 21.0143 62.5776 20.6696C62.2938 20.3151 61.8242 20 61.1686 19.7243C60.5131 19.4388 59.6276 19.1729 58.5121 18.9267L55.5181 18.2768C52.8568 17.6958 50.758 16.7259 49.2219 15.367C47.6955 13.9983 46.9373 12.1323 46.947 9.76902C46.9373 7.84886 47.446 6.16995 48.4734 4.73229C49.5105 3.28478 50.944 2.1573 52.7736 1.34985C54.6131 0.542398 56.7216 0.138672 59.0992 0.138672C61.5257 0.138672 63.6245 0.547322 65.3954 1.36462C67.1664 2.18192 68.5313 3.33402 69.4902 4.82091C70.4589 6.29796 70.9481 8.02611 70.9579 10.0054H63.1499Z" fill="#161616"/>
<path d="M73.6463 30.8022V0.552245H95.3089V7.16942H81.8064V12.3686H94.1934V18.9858H81.8064V24.185H95.2502V30.8022H73.6463Z" fill="#161616"/>
<path d="M113.913 13.773V4.84858H115.53V12.4178H119.461V13.773H113.913Z" fill="#161616"/>
<path d="M128.491 9.31079C128.491 10.2724 128.311 11.096 127.95 11.7816C127.593 12.4643 127.105 12.9872 126.486 13.3503C125.87 13.7134 125.172 13.895 124.39 13.895C123.609 13.895 122.909 13.7134 122.29 13.3503C121.674 12.9843 121.186 12.4599 120.826 11.7772C120.468 11.0916 120.29 10.2695 120.29 9.31079C120.29 8.3492 120.468 7.52706 120.826 6.84437C121.186 6.15877 121.674 5.6344 122.29 5.27127C122.909 4.90813 123.609 4.72656 124.39 4.72656C125.172 4.72656 125.87 4.90813 126.486 5.27127C127.105 5.6344 127.593 6.15877 127.95 6.84437C128.311 7.52706 128.491 8.3492 128.491 9.31079ZM126.865 9.31079C126.865 8.6339 126.759 8.06305 126.547 7.59824C126.338 7.13052 126.047 6.77755 125.676 6.53934C125.304 6.29821 124.875 6.17765 124.39 6.17765C123.905 6.17765 123.476 6.29821 123.105 6.53934C122.733 6.77755 122.441 7.13052 122.229 7.59824C122.02 8.06305 121.915 8.6339 121.915 9.31079C121.915 9.98767 122.02 10.56 122.229 11.0277C122.441 11.4925 122.733 11.8455 123.105 12.0866C123.476 12.3248 123.905 12.4439 124.39 12.4439C124.875 12.4439 125.304 12.3248 125.676 12.0866C126.047 11.8455 126.338 11.4925 126.547 11.0277C126.759 10.56 126.865 9.98767 126.865 9.31079Z" fill="#161616"/>
<path d="M137.353 4.84858V13.773H135.915L131.71 7.69411H131.636V13.773H130.019V4.84858H131.466L135.667 10.9318H135.745V4.84858H137.353Z" fill="#161616"/>
<path d="M145.093 7.69846C145.021 7.46315 144.92 7.25253 144.793 7.06661C144.668 6.87778 144.517 6.71655 144.339 6.58291C144.165 6.44928 143.965 6.34905 143.738 6.28224C143.511 6.21251 143.264 6.17765 142.997 6.17765C142.518 6.17765 142.091 6.29821 141.716 6.53934C141.341 6.78046 141.046 7.13488 140.831 7.6026C140.619 8.06741 140.513 8.6339 140.513 9.30207C140.513 9.97605 140.619 10.5469 140.831 11.0146C141.044 11.4823 141.338 11.8382 141.716 12.0822C142.094 12.3234 142.532 12.4439 143.032 12.4439C143.485 12.4439 143.877 12.3568 144.209 12.1825C144.543 12.0082 144.8 11.7612 144.98 11.4417C145.16 11.1192 145.25 10.7415 145.25 10.3087L145.616 10.3653H143.193V9.10162H146.814V10.1736C146.814 10.9376 146.652 11.5985 146.326 12.1563C146.001 12.7141 145.554 13.144 144.984 13.4462C144.415 13.7454 143.761 13.895 143.023 13.895C142.201 13.895 141.479 13.7105 140.858 13.3416C140.239 12.9697 139.755 12.4425 139.406 11.7598C139.061 11.0742 138.888 10.2607 138.888 9.3195C138.888 8.59904 138.99 7.95556 139.193 7.38907C139.399 6.82258 139.687 6.34179 140.056 5.9467C140.425 5.5487 140.858 5.24657 141.354 5.04031C141.851 4.83115 142.391 4.72656 142.975 4.72656C143.469 4.72656 143.93 4.79919 144.357 4.94444C144.784 5.08679 145.163 5.29015 145.494 5.55451C145.828 5.81887 146.103 6.13262 146.318 6.49576C146.533 6.8589 146.674 7.2598 146.74 7.69846H145.093Z" fill="#161616"/>
<path d="M152.365 8.6615V9.96007H148.347V8.6615H152.365Z" fill="#161616"/>
<path d="M153.15 6.2038V4.84858H160.271V6.2038H157.512V13.773H155.909V6.2038H153.15Z" fill="#161616"/>
<path d="M161.643 13.773V4.84858H167.448V6.2038H163.26V8.62664H167.147V9.98186H163.26V12.4178H167.483V13.773H161.643Z" fill="#161616"/>
<path d="M169.097 13.773V4.84858H172.444C173.129 4.84858 173.705 4.96768 174.169 5.2059C174.637 5.44412 174.99 5.7782 175.228 6.20816C175.469 6.6352 175.59 7.13343 175.59 7.70282C175.59 8.27512 175.468 8.77189 175.224 9.19313C174.983 9.61146 174.627 9.93538 174.156 10.1649C173.686 10.3915 173.108 10.5048 172.422 10.5048H170.038V9.16263H172.204C172.605 9.16263 172.933 9.10743 173.189 8.99704C173.445 8.88374 173.633 8.7196 173.755 8.50463C173.88 8.28674 173.943 8.01948 173.943 7.70282C173.943 7.38617 173.88 7.11599 173.755 6.8923C173.631 6.66571 173.44 6.49431 173.185 6.3781C172.929 6.259 172.599 6.19944 172.195 6.19944H170.714V13.773H169.097ZM173.708 9.72912L175.917 13.773H174.113L171.943 9.72912H173.708Z" fill="#161616"/>
<path d="M177.078 4.84858H179.057L181.706 11.3153H181.811L184.46 4.84858H186.438V13.773H184.887V7.64182H184.804L182.338 13.7469H181.179L178.712 7.62874H178.63V13.773H177.078V4.84858Z" fill="#161616"/>
<path d="M118.763 22.1295C118.723 21.7489 118.551 21.4526 118.249 21.2405C117.95 21.0284 117.561 20.9224 117.081 20.9224C116.744 20.9224 116.455 20.9732 116.214 21.0749C115.973 21.1766 115.789 21.3146 115.661 21.4889C115.533 21.6632 115.468 21.8622 115.465 22.0859C115.465 22.2718 115.507 22.4331 115.591 22.5696C115.678 22.7061 115.796 22.8223 115.944 22.9182C116.092 23.0112 116.256 23.0896 116.436 23.1535C116.616 23.2174 116.798 23.2712 116.981 23.3147L117.818 23.5239C118.155 23.6024 118.479 23.7084 118.789 23.842C119.103 23.9757 119.384 24.1441 119.63 24.3475C119.88 24.5509 120.078 24.7963 120.223 25.0839C120.368 25.3715 120.441 25.7085 120.441 26.0949C120.441 26.6178 120.307 27.0783 120.04 27.4763C119.773 27.8714 119.386 28.1808 118.881 28.4045C118.378 28.6252 117.77 28.7356 117.055 28.7356C116.361 28.7356 115.758 28.6281 115.247 28.4132C114.738 28.1982 114.34 27.8844 114.053 27.4719C113.768 27.0594 113.614 26.5568 113.591 25.9642H115.181C115.205 26.275 115.3 26.5336 115.469 26.7398C115.637 26.9461 115.857 27.1001 116.127 27.2018C116.4 27.3034 116.705 27.3543 117.042 27.3543C117.394 27.3543 117.702 27.302 117.966 27.1974C118.233 27.0899 118.442 26.9417 118.593 26.7529C118.744 26.5612 118.821 26.3375 118.824 26.0818C118.821 25.8494 118.753 25.6577 118.62 25.5066C118.486 25.3527 118.299 25.2248 118.057 25.1232C117.819 25.0186 117.54 24.9256 117.221 24.8443L116.205 24.5828C115.47 24.394 114.889 24.1078 114.462 23.7244C114.038 23.338 113.826 22.8252 113.826 22.1861C113.826 21.6603 113.968 21.1998 114.253 20.8048C114.541 20.4097 114.932 20.1032 115.425 19.8853C115.919 19.6645 116.478 19.5541 117.103 19.5541C117.736 19.5541 118.291 19.6645 118.768 19.8853C119.247 20.1032 119.623 20.4068 119.896 20.796C120.169 21.1824 120.31 21.6269 120.319 22.1295H118.763Z" fill="#161616"/>
<path d="M121.49 21.0314V19.6761H128.61V21.0314H125.852V28.6005H124.248V21.0314H121.49Z" fill="#161616"/>
<path d="M137.562 24.1383C137.562 25.0999 137.382 25.9235 137.022 26.6091C136.664 27.2918 136.176 27.8147 135.558 28.1779C134.942 28.541 134.243 28.7226 133.462 28.7226C132.68 28.7226 131.98 28.541 131.361 28.1779C130.745 27.8118 130.257 27.2875 129.897 26.6048C129.54 25.9192 129.361 25.097 129.361 24.1383C129.361 23.1768 129.54 22.3546 129.897 21.6719C130.257 20.9863 130.745 20.462 131.361 20.0988C131.98 19.7357 132.68 19.5541 133.462 19.5541C134.243 19.5541 134.942 19.7357 135.558 20.0988C136.176 20.462 136.664 20.9863 137.022 21.6719C137.382 22.3546 137.562 23.1768 137.562 24.1383ZM135.937 24.1383C135.937 23.4615 135.831 22.8906 135.619 22.4258C135.409 21.9581 135.119 21.6051 134.747 21.3669C134.375 21.1258 133.947 21.0052 133.462 21.0052C132.976 21.0052 132.548 21.1258 132.176 21.3669C131.804 21.6051 131.512 21.9581 131.3 22.4258C131.091 22.8906 130.986 23.4615 130.986 24.1383C130.986 24.8152 131.091 25.3875 131.3 25.8552C131.512 26.3201 131.804 26.673 132.176 26.9141C132.548 27.1524 132.976 27.2715 133.462 27.2715C133.947 27.2715 134.375 27.1524 134.747 26.9141C135.119 26.673 135.409 26.3201 135.619 25.8552C135.831 25.3875 135.937 24.8152 135.937 24.1383Z" fill="#161616"/>
<path d="M146.729 22.6873H145.1C145.053 22.42 144.968 22.1832 144.843 21.977C144.718 21.7678 144.562 21.5906 144.376 21.4453C144.19 21.3001 143.978 21.1911 143.74 21.1185C143.505 21.043 143.251 21.0052 142.978 21.0052C142.492 21.0052 142.062 21.1272 141.688 21.3712C141.313 21.6124 141.02 21.9668 140.807 22.4345C140.595 22.8993 140.489 23.4673 140.489 24.1383C140.489 24.821 140.595 25.3962 140.807 25.864C141.022 26.3288 141.316 26.6803 141.688 26.9185C142.062 27.1538 142.491 27.2715 142.973 27.2715C143.24 27.2715 143.49 27.2366 143.723 27.1669C143.958 27.0943 144.169 26.9882 144.355 26.8488C144.543 26.7093 144.702 26.5379 144.83 26.3346C144.96 26.1312 145.05 25.8988 145.1 25.6374L146.729 25.6461C146.668 26.0702 146.536 26.4682 146.333 26.8401C146.132 27.2119 145.87 27.5402 145.544 27.8249C145.219 28.1067 144.838 28.3275 144.403 28.4872C143.967 28.6441 143.483 28.7226 142.951 28.7226C142.167 28.7226 141.467 28.541 140.851 28.1779C140.235 27.8147 139.75 27.2904 139.396 26.6048C139.041 25.9192 138.864 25.097 138.864 24.1383C138.864 23.1768 139.043 22.3546 139.4 21.6719C139.757 20.9863 140.244 20.462 140.86 20.0988C141.476 19.7357 142.173 19.5541 142.951 19.5541C143.448 19.5541 143.91 19.6238 144.337 19.7633C144.764 19.9027 145.145 20.1075 145.479 20.3777C145.813 20.645 146.087 20.9732 146.302 21.3625C146.52 21.7489 146.663 22.1905 146.729 22.6873Z" fill="#161616"/>
<path d="M148.21 28.6005V19.6761H149.827V23.7767H149.936L153.417 19.6761H155.391L151.94 23.6808L155.422 28.6005H153.478L150.816 24.7746L149.827 25.9424V28.6005H148.21Z" fill="#161616"/>
<path d="M159.558 28.6005V19.6761H165.363V21.0314H161.175V23.4542H165.062V24.8094H161.175V27.2453H165.398V28.6005H159.558Z" fill="#161616"/>
<path d="M168.363 19.6761L170.328 22.9443H170.398L172.372 19.6761H174.215L171.466 24.1383L174.259 28.6005H172.385L170.398 25.3541H170.328L168.341 28.6005H166.476L169.295 24.1383L166.511 19.6761H168.363Z" fill="#161616"/>
<path d="M182.8 22.6873H181.17C181.124 22.42 181.038 22.1832 180.913 21.977C180.788 21.7678 180.633 21.5906 180.447 21.4453C180.261 21.3001 180.049 21.1911 179.81 21.1185C179.575 21.043 179.321 21.0052 179.048 21.0052C178.563 21.0052 178.133 21.1272 177.758 21.3712C177.383 21.6124 177.09 21.9668 176.878 22.4345C176.666 22.8993 176.56 23.4673 176.56 24.1383C176.56 24.821 176.666 25.3962 176.878 25.864C177.093 26.3288 177.386 26.6803 177.758 26.9185C178.133 27.1538 178.561 27.2715 179.043 27.2715C179.311 27.2715 179.561 27.2366 179.793 27.1669C180.028 27.0943 180.239 26.9882 180.425 26.8488C180.614 26.7093 180.772 26.5379 180.9 26.3346C181.031 26.1312 181.121 25.8988 181.17 25.6374L182.8 25.6461C182.739 26.0702 182.607 26.4682 182.403 26.8401C182.203 27.2119 181.94 27.5402 181.614 27.8249C181.289 28.1067 180.909 28.3275 180.473 28.4872C180.037 28.6441 179.553 28.7226 179.022 28.7226C178.237 28.7226 177.537 28.541 176.921 28.1779C176.305 27.8147 175.82 27.2904 175.466 26.6048C175.111 25.9192 174.934 25.097 174.934 24.1383C174.934 23.1768 175.113 22.3546 175.47 21.6719C175.828 20.9863 176.314 20.462 176.93 20.0988C177.546 19.7357 178.243 19.5541 179.022 19.5541C179.518 19.5541 179.98 19.6238 180.407 19.7633C180.834 19.9027 181.215 20.1075 181.549 20.3777C181.883 20.645 182.158 20.9732 182.373 21.3625C182.591 21.7489 182.733 22.1905 182.8 22.6873Z" fill="#161616"/>
<path d="M184.28 28.6005V19.6761H185.897V23.4542H190.032V19.6761H191.653V28.6005H190.032V24.8094H185.897V28.6005H184.28Z" fill="#161616"/>
<path d="M194.558 28.6005H192.832L195.974 19.6761H197.97L201.116 28.6005H199.39L197.007 21.5063H196.937L194.558 28.6005ZM194.614 25.1014H199.321V26.3999H194.614V25.1014Z" fill="#161616"/>
<path d="M209.625 19.6761V28.6005H208.187L203.982 22.5217H203.908V28.6005H202.291V19.6761H203.738L207.939 25.7594H208.017V19.6761H209.625Z" fill="#161616"/>
<path d="M217.366 22.526C217.293 22.2907 217.193 22.0801 217.065 21.8942C216.94 21.7053 216.789 21.5441 216.612 21.4105C216.437 21.2768 216.237 21.1766 216.01 21.1098C215.784 21.0401 215.537 21.0052 215.27 21.0052C214.79 21.0052 214.363 21.1258 213.988 21.3669C213.614 21.608 213.319 21.9624 213.104 22.4301C212.892 22.895 212.786 23.4615 212.786 24.1296C212.786 24.8036 212.892 25.3745 213.104 25.8422C213.316 26.3099 213.611 26.6658 213.988 26.9098C214.366 27.1509 214.805 27.2715 215.304 27.2715C215.758 27.2715 216.15 27.1843 216.481 27.01C216.815 26.8357 217.072 26.5888 217.252 26.2692C217.432 25.9468 217.522 25.5691 217.522 25.1362L217.888 25.1929H215.466V23.9292H219.087V25.0011C219.087 25.7652 218.924 26.4261 218.599 26.9839C218.273 27.5416 217.826 27.9716 217.257 28.2737C216.687 28.573 216.034 28.7226 215.296 28.7226C214.474 28.7226 213.752 28.5381 213.13 28.1691C212.511 27.7973 212.027 27.27 211.679 26.5873C211.333 25.9017 211.16 25.0883 211.16 24.1471C211.16 23.4266 211.262 22.7831 211.465 22.2166C211.672 21.6501 211.959 21.1693 212.328 20.7743C212.697 20.3763 213.13 20.0741 213.627 19.8679C214.123 19.6587 214.664 19.5541 215.248 19.5541C215.742 19.5541 216.202 19.6267 216.629 19.772C217.056 19.9143 217.435 20.1177 217.766 20.3821C218.101 20.6464 218.375 20.9602 218.59 21.3233C218.805 21.6864 218.946 22.0873 219.013 22.526H217.366Z" fill="#161616"/>
<path d="M220.65 28.6005V19.6761H226.454V21.0314H222.267V23.4542H226.154V24.8094H222.267V27.2453H226.489V28.6005H220.65Z" fill="#161616"/>
</svg>
