<?xml version="1.0" encoding="UTF-8"?>
<svg id="Layer_1" data-name="Layer 1" xmlns="http://www.w3.org/2000/svg" version="1.1" viewBox="0 0 150.1 135">
  <defs>
    <style>
      .cls-1 {
        fill: #fff;
        stroke-width: 0px;
      }
    </style>
  </defs>
  <path class="cls-1" d="M61.8,18c-1.4-.9-3.4-2.2-4.7-2.9-.5-.3-1.5-.4-2.3-.3-1.3.2-3.1,1.5-4.7,1-.5-.2-.7-1.3-.9-1.7-.8-1.2-1.8-1-3.2-.2-1,.6-2.9-.3-3.5-1.4-.2-.3-.8-.7-1.2-.9-.2,0-.2-.3-.2-.5,0-.2.2-.5.3-.7.2-.4,1.6-1.6,2.7-1.3,1.1.7,3.8-2.2,4.8-3,.2-.1.4-.1.5,0,0,0,.1.1.2.2.2.2.2.4,0,.6-.8.8-2.2,2.8-2.4,3.7,0,.3.2.7.5.7,1.7.4,5.3.9,6.4,1.3.6.2,1.5-.2,2.3-.5,1.4-.5,2.4,0,3.8-1.3.3-.3.8-.3,1.5,0,1.2.7,2.3.3,3.4-1,.3-.4,1.1-.4,1.9-.3,1.4.2,3,.6,3.3.7.7.2,2.6.5,1.9-.8-.2-.3-.3-.8.2-1.6.3-.6,1-1.5,1.5-1.9.4-.3,1.2,0,1.9-.2,3.7-1,12-3.1,15-1.7,3,1.4,3.3,0,6,4,.5.8,1.5,1.1,2.4.8,1.5-.6,3.6-.6,4.8-.5.8,0,3.3.7,3.1,1.8,0,.3-.2.6-.2.9,0,.2.2.3.3.2.6-.3,1-.6,1.5-.6,1.3,0,2.7.4,3.6,1.6.3.5.8,1,1.3,1.2,1,.4,1.1,1,.8,2-.5,1.6,2.1,1.8,1.4,2.8,0,0-.5.8-.5,1.3,0,.1,0,.3,0,.4.4.4.9,1,1.3,1,.9,0,1.3-.6,2.1-1,0,0,.6-.2.8,0,.4.2,1.5,1.1,2.4,1.5.1,0,.2.2.1.3-.5,2.1,1.7,2.3,2.6,3.7.1.2.4.1.4,0,.2-.6,0-1.4.2-1.8,0-.2.5,0,.6.2.8.6,3,2,4.5,4.6.2.3.4.7.4,1,0,.9,0,1.8,0,2.7,0,1.7,1.7,3.5,3.5,3.4.1,0,.2,0,.2.2.2,1,.4,1.9.8,2.8.4,1,.9,2,1.4,3,.3.6.6,1.6,1.1,1.8,1.1.4,1.2,1.1,1.3,2.1.4,2.3.9,4.3,3,4.7.1,0,.2.1.2.2,0,1.7.7,3.1,1.6,4.5.5.8,2.8,7.1,3.1,10,.4.8.7,1.6,1,2.4C144.5,29.4,112.9,0,74.3,0S29.1,11.4,15.6,29c.8.7,1.5,1.6,2.6.7.2-.2.6-.3,1,0,.2,0,.4,0,.6,0s.2,0,.3.2c.4,1.1,1,2.1,1,3.1,0,1.1-1.4,3.1-1.5,3-.3.3-.6.5-.8.8-.2.4-.1.9-.3,1.3-.3.9-1,.9-1.5.5-1.2-.8-1.3-2.3,0-3.6,0,0,0-.3,0-.3-.5-.2-.9-.5-1.4-.7-.2,0-.4,0-.4.2,0,.6-.2,1.3-.4,1.9,0,.1-.1.2-.2.3-.5.5-1.2.9-2,1.1-.1,0-.2,0-.3,0-.6-.4-1-1-1.2-1.7C5.3,45,1.7,55.6.6,66.9,11.2,41.6,34.4,22.9,62.3,18.7c0-.3-.3-.5-.6-.7h0Z"/>
  <path class="cls-1" d="M122.9,27.7c-.3-.4-.6-.8-.9-1.3-.1-.2-.3-.3-.5-.3-.3,0-.7,0-1.1,0-1,.1-1.1.8-.4,1.5.2.2.2.6,0,.8-.6,1,0,1.9.4,2.8.1.3.4.4.7.4.2,0,.3-.1.4-.2,0,0,.2-.2.3-.3.2-.2.5-.3.8-.2.1,0,.2,0,.4,0,.5,0,1.2.2,1.3,0,.2-.3.3-1,.1-1.4-.4-.7-1-1.2-1.5-1.9h0Z"/>
  <path class="cls-1" d="M87.2,8.7c-.1.2,0,.4.2.5,1.6.3,3.2.7,4.8,1,.3,0,.7-.1.7-.5h0c0-.2,0-.4-.2-.6-1.5-1.5-2.5-4.7-5.5-.5h0Z"/>
  <path class="cls-1" d="M86.1,12.3c-2.2-.2-4.2.8-4.3,2.4-.2,1.6,1.5,3.1,3.7,3.3,2.2.2,4.2-.8,4.3-2.4.2-1.6-1.5-3.1-3.7-3.3Z"/>
  <path class="cls-1" d="M96.9,14.9c-1.7-.4-3.4.3-3.7,1.5-.3,1.2.9,2.6,2.6,3,1.7.4,3.4-.3,3.7-1.5s-.9-2.6-2.6-3Z"/>
  <path class="cls-1" d="M105.2,18.9c-1-.3-2.1,0-2.3.8-.2.7.4,1.6,1.4,1.9,1,.3,2.1,0,2.3-.8.2-.7-.4-1.6-1.4-1.9h0Z"/>
  <path class="cls-1" d="M.4,132.5c-.2-.2-.4-.5-.4-.8,0-.6.5-1,1-1s.5.1.6.2c1.8,1.5,3.5,2.2,5.9,2.2s4.2-1.3,4.2-3.2h0c0-1.8-.9-2.8-4.9-3.6-4.3-.9-6.3-2.3-6.3-5.4h0c0-3,2.6-5.2,6.2-5.2s4.3.6,6,1.9c.2.2.5.5.5.9s-.5,1-1,1-.4,0-.6-.2c-1.6-1.2-3.1-1.6-4.9-1.6s-4,1.3-4,3h0c0,1.8,1,2.8,5.1,3.7,4.2.9,6.1,2.4,6.1,5.3h0c0,3.3-2.7,5.4-6.4,5.4s-5-.9-7.1-2.5H.4Z"/>
  <path class="cls-1" d="M19.3,126.9v-10c0-.6.5-1.1,1-1.1s1.1.5,1.1,1.1v9.8c0,4.1,2.2,6.3,5.7,6.3s5.7-2.1,5.7-6.2v-10c0-.6.5-1.1,1.1-1.1s1,.5,1,1.1v9.8c0,5.5-3.1,8.3-7.8,8.3s-7.8-2.8-7.8-8.2h0Z"/>
  <path class="cls-1" d="M41.3,117c0-.6.5-1.1,1-1.1h7c2.3,0,4.2.7,5.3,1.9.9.9,1.5,2.2,1.5,3.7h0c0,3.1-2.1,4.9-5,5.5l4.7,6c.2.2.3.5.3.8,0,.6-.5,1-1.1,1s-.8-.2-1-.6l-5.3-6.9h-5.4v6.4c0,.6-.5,1.1-1.1,1.1s-1-.5-1-1.1v-16.8h0ZM49.2,125.5c2.8,0,4.8-1.5,4.8-3.9h0c0-2.4-1.8-3.8-4.8-3.8h-5.8v7.6h5.8Z"/>
  <path class="cls-1" d="M61.3,125.4h0c0-5.2,3.8-9.8,9.4-9.8s4.7.8,6.4,2c.2.2.4.5.4.9,0,.6-.5,1.1-1,1.1s-.5-.1-.7-.3c-1.3-1-2.8-1.7-5.2-1.7-4.2,0-7.1,3.5-7.1,7.7h0c0,4.5,2.9,7.9,7.4,7.9s4.1-.8,5.4-1.9v-4.7h-5c-.5,0-.9-.4-.9-.9s.4-1,.9-1h6c.6,0,1,.5,1,1.1v5.7c0,.5-.2,1-.7,1.3-1.7,1.3-4,2.3-6.8,2.3-5.9,0-9.6-4.3-9.6-9.7h0Z"/>
  <path class="cls-1" d="M84.7,116.9c0-.6.5-1.1,1-1.1s1.1.5,1.1,1.1v16.9c0,.6-.5,1.1-1.1,1.1s-1-.5-1-1.1v-16.9Z"/>
  <path class="cls-1" d="M92.8,125.4h0c0-5.4,4-9.8,9.5-9.8s5,1,6.7,2.4c.2.2.4.5.4.9,0,.6-.5,1-1.1,1s-.5-.1-.7-.2c-1.5-1.3-3.1-2.1-5.4-2.1-4.2,0-7.3,3.4-7.3,7.7h0c0,4.4,3.1,7.8,7.3,7.8s4-.8,5.6-2.3c.2-.2.4-.3.7-.3.5,0,1,.5,1,1s-.2.6-.3.8c-1.9,1.7-3.9,2.8-7,2.8-5.4,0-9.4-4.3-9.4-9.7h0Z"/>
  <path class="cls-1" d="M113.7,133.3l7.6-16.7c.3-.6.7-.9,1.3-.9h.1c.6,0,1.1.3,1.3.9l7.6,16.6c0,.2.1.4.1.5,0,.6-.5,1-1,1s-.9-.3-1-.8l-2-4.3h-10.3l-2,4.4c-.2.5-.5.7-1,.7s-1-.4-1-1,0-.3.1-.6ZM127,127.8l-4.3-9.6-4.3,9.6h8.6Z"/>
  <path class="cls-1" d="M137.2,116.9c0-.6.5-1.1,1-1.1s1.1.5,1.1,1.1v15.9h9.7c.5,0,1,.5,1,1s-.4,1-1,1h-10.8c-.6,0-1-.5-1-1.1v-16.8Z"/>
  <path class="cls-1" d="M40.4,89.9h0c0-8.7,6.4-16.2,15.9-16.2s15.8,7.4,15.8,16h0c0,8.7-6.4,16.2-15.9,16.2s-15.8-7.4-15.8-16ZM68.5,89.9h0c0-7.1-5.2-12.9-12.3-12.9s-12.2,5.7-12.2,12.7h0c0,7.1,5.2,12.9,12.3,12.9s12.2-5.7,12.2-12.7Z"/>
  <path class="cls-1" d="M80.4,89.9h0c0-8.7,6.4-16.2,15.9-16.2s15.8,7.4,15.8,16h0c0,8.7-6.4,16.2-15.9,16.2s-15.8-7.4-15.8-16ZM108.5,89.9h0c0-7.1-5.2-12.9-12.3-12.9s-12.2,5.7-12.2,12.7h0c0,7.1,5.2,12.9,12.3,12.9s12.2-5.7,12.2-12.7Z"/>
  <path class="cls-1" d="M121.8,75.9c0-.9.8-1.7,1.7-1.7h.5c.8,0,1.3.4,1.8,1l18.9,24.1v-23.4c0-.9.8-1.7,1.7-1.7s1.7.8,1.7,1.7v28.1c0,.9-.7,1.6-1.6,1.6h-.2c-.8,0-1.3-.4-1.8-1.1l-19.3-24.6v24.1c0,.9-.8,1.7-1.7,1.7s-1.7-.8-1.7-1.7v-28h0Z"/>
  <path class="cls-1" d="M28.1,74.1h-.6c-1.1,0-1.8.8-2.1,1.5l-10,24.4-10-24.4c-.3-.7-1-1.5-2.1-1.5h-.6c-1.5,0-2.2,1.3-2.2,2.2v27.5c0,1,.8,1.7,1.7,1.7s1.7-.8,1.7-1.7v-23.2s9.5,23.3,9.7,23.9c.2.6,1,1,1.6,1h.3c.6,0,1.3-.4,1.6-1,.3-.6,9.7-23.9,9.7-23.9v23.2c0,1,.8,1.7,1.7,1.7s1.7-.8,1.7-1.7v-27.5c0-.9-.7-2.2-2.2-2.2Z"/>
</svg>