<?xml version="1.0" encoding="utf-8"?>
<!-- Generator: Adobe Illustrator 25.4.1, SVG Export Plug-In . SVG Version: 6.00 Build 0)  -->
<svg version="1.1" id="Layer_1" xmlns="http://www.w3.org/2000/svg" xmlns:xlink="http://www.w3.org/1999/xlink" x="0px" y="0px"
	 viewBox="0 0 229 139" style="enable-background:new 0 0 229 139;" xml:space="preserve">
<style type="text/css">
	.st0{fill:#FFFFFF;}
</style>
<g>
	<path class="st0" d="M27.1,129.2c-0.3-0.9-0.7-1.6-1.2-2.3c-0.5-0.7-1.2-1.3-1.9-1.7c-0.8-0.4-1.6-0.7-2.6-0.7h-8.1h0H1.9
		c-0.4,0-0.8,0.2-1.1,0.5c-0.2,0.2-0.4,0.5-0.4,0.8c0,0,0,0,0,0.1c0,0.1,0,0.2,0,0.3c0,0.4,0.2,0.8,0.5,1.1c0.3,0.3,0.7,0.5,1.1,0.5
		h1.6h9.8h7.4c0.8,0,1.4,0.1,1.9,0.4c0.5,0.3,0.9,0.6,1.2,1c0.3,0.4,0.5,0.8,0.6,1.3c0.1,0.5,0.2,0.9,0.2,1.3c0,0.4,0,0.8-0.2,1.3
		c-0.1,0.5-0.3,0.9-0.6,1.3c-0.3,0.4-0.7,0.7-1.2,1c-0.5,0.3-1.1,0.4-1.9,0.4h-7.4H3.5H1.9c-0.4,0-0.8,0.2-1.1,0.5
		c-0.3,0.3-0.5,0.7-0.5,1.1s0.2,0.8,0.5,1.1c0.3,0.3,0.7,0.5,1.1,0.5h0h11.4h8.5c0.9,0,1.7-0.3,2.4-0.8c0.7-0.5,1.3-1,1.8-1.7
		c0.5-0.7,0.9-1.5,1.2-2.3c0.3-0.8,0.4-1.7,0.4-2.5C27.6,130.9,27.4,130,27.1,129.2"/>
	<path class="st0" d="M53.4,130.6c0.3,0.3,0.5,0.7,0.5,1.1s-0.2,0.8-0.5,1.1c-0.3,0.3-0.7,0.5-1.1,0.5H42.2c-0.4,0-0.7-0.2-1-0.5
		c-0.3-0.3-0.4-0.7-0.4-1.1c0-0.4,0.2-0.8,0.5-1.1c0.3-0.3,0.7-0.5,1.1-0.5h9.9C52.7,130.1,53.1,130.3,53.4,130.6"/>
	<path class="st0" d="M94.3,131.7c0,0.8-0.1,1.7-0.4,2.6c-0.3,0.9-0.7,1.6-1.2,2.3c-0.5,0.7-1.2,1.3-1.9,1.7
		c-0.8,0.4-1.6,0.7-2.6,0.7H72.8c-0.9,0-1.7-0.3-2.4-0.8c-0.7-0.5-1.3-1-1.8-1.7c-0.5-0.7-0.9-1.5-1.2-2.3c-0.3-0.8-0.4-1.7-0.4-2.5
		c0-0.8,0.1-1.7,0.4-2.6c0.3-0.9,0.7-1.6,1.2-2.3c0.5-0.7,1.2-1.3,1.9-1.7c0.8-0.4,1.6-0.7,2.6-0.7h15.3c0.9,0,1.7,0.3,2.4,0.8
		c0.7,0.5,1.3,1,1.8,1.7c0.5,0.7,0.9,1.5,1.2,2.3C94.1,130.1,94.3,130.9,94.3,131.7 M89.3,135.4c0.5-0.3,0.9-0.6,1.2-1
		c0.3-0.4,0.5-0.8,0.6-1.3c0.1-0.5,0.2-0.9,0.2-1.3c0-0.4-0.1-0.8-0.2-1.3s-0.3-0.9-0.6-1.3c-0.3-0.4-0.7-0.7-1.2-1
		c-0.5-0.3-1.1-0.4-1.9-0.4H73.8c-0.8,0-1.4,0.1-1.9,0.4c-0.5,0.3-0.9,0.6-1.1,1c-0.3,0.4-0.5,0.8-0.6,1.3c-0.1,0.5-0.2,0.9-0.2,1.3
		c0,0.4,0,0.8,0.2,1.3c0.1,0.5,0.3,0.9,0.6,1.3c0.3,0.4,0.7,0.7,1.1,1c0.5,0.3,1.1,0.4,1.9,0.4h13.5
		C88.1,135.8,88.8,135.7,89.3,135.4"/>
	<path class="st0" d="M171.9,131.8c0.3-0.4,0.6-0.8,0.8-1.3c0.2-0.5,0.3-1,0.3-1.6c0-0.6-0.1-1.2-0.4-1.8c-0.2-0.5-0.6-1-1-1.4
		c-0.4-0.4-0.9-0.7-1.4-1c-0.5-0.2-1.1-0.4-1.8-0.4h-8.7h-11.4h0c-0.1,0-0.1,0-0.2,0c-0.1,0-0.1,0-0.2,0c0,0-0.1,0-0.1,0
		c-0.1,0-0.1,0-0.2,0c0,0-0.1,0-0.1,0.1c-0.1,0-0.1,0.1-0.2,0.1c-0.1,0.1-0.2,0.1-0.2,0.2c-0.3,0.3-0.5,0.7-0.5,1.1s0.2,0.8,0.5,1.1
		c0.3,0.3,0.7,0.5,1.1,0.5h1.6v0v0h9.8l0,0h8.8c0.3,0,0.6,0.1,0.9,0.4c0.3,0.3,0.4,0.6,0.4,0.9c0,0.4-0.1,0.6-0.4,0.9
		c-0.2,0.2-0.5,0.3-0.9,0.3H150h-1.6c-0.4,0-0.8,0.2-1.1,0.5c-0.3,0.3-0.5,0.7-0.5,1.1c0,0.4,0.2,0.8,0.5,1.1
		c0.3,0.3,0.7,0.5,1.1,0.5h1.6v0h9.8h8.8c0.3,0,0.6,0.1,0.9,0.4c0.3,0.2,0.4,0.5,0.4,0.9c0,0.3-0.1,0.6-0.4,0.9
		c-0.3,0.2-0.6,0.4-0.9,0.4h-8.8H150h-1.6c-0.4,0-0.8,0.2-1.1,0.5c-0.3,0.3-0.5,0.7-0.5,1.1c0,0.4,0.2,0.8,0.5,1.1
		c0.3,0.3,0.7,0.5,1.1,0.5h0h11.4h8.7c0.6,0,1.2-0.1,1.8-0.4c0.5-0.2,1-0.6,1.4-1c0.4-0.4,0.7-0.9,1-1.4c0.2-0.5,0.4-1.1,0.4-1.7
		c0-0.5-0.1-1-0.3-1.5C172.5,132.6,172.2,132.2,171.9,131.8"/>
	<path class="st0" d="M132.3,132c0.1-0.1,0.2-0.2,0.3-0.3h0.1c0.1-0.1,0.2-0.2,0.2-0.3c0,0,0,0,0,0c0.1-0.2,0.3-0.4,0.4-0.7
		c0,0,0-0.1,0-0.1c0,0,0,0,0,0c0,0,0-0.1,0.1-0.1c0.1-0.2,0.1-0.4,0.2-0.6c0,0,0,0,0,0c0.1-0.3,0.1-0.6,0.1-0.9c0,0,0,0,0,0
		c0,0,0,0,0,0c0-0.3,0-0.6-0.1-0.8c0-0.2-0.1-0.3-0.1-0.5c0-0.1,0-0.2-0.1-0.2c0,0,0,0,0,0c0-0.1,0-0.1-0.1-0.2
		c-0.2-0.4-0.4-0.7-0.7-1.1c0,0,0,0,0,0c0,0,0,0,0,0h-0.1c-0.1-0.1-0.2-0.2-0.3-0.3c-0.4-0.4-0.9-0.7-1.4-1
		c-0.5-0.2-1.1-0.4-1.8-0.4h-8.7H109c-0.1,0-0.1,0-0.2,0c-0.1,0-0.1,0-0.2,0c0,0-0.1,0-0.1,0c-0.1,0-0.1,0-0.2,0c0,0-0.1,0-0.1,0.1
		c-0.1,0-0.1,0.1-0.2,0.1c-0.1,0.1-0.2,0.1-0.2,0.2c-0.3,0.3-0.5,0.7-0.5,1.1c0,0.4,0.2,0.8,0.5,1.1c0.3,0.3,0.7,0.5,1.1,0.5l0,0
		h1.6h0.5h9.3l0,0h8.8c0.3,0,0.6,0.1,0.9,0.4c0.3,0.2,0.4,0.5,0.4,0.9c0,0.3-0.1,0.6-0.4,0.9c-0.3,0.2-0.6,0.4-0.9,0.4h-18.1h-0.5
		l0,0H109c-0.4,0-0.8,0.2-1.1,0.5c-0.2,0.2-0.4,0.5-0.4,0.9l0,0v0.3v5.7c0,0.4,0.2,0.8,0.5,1.1c0.3,0.3,0.7,0.5,1.1,0.5
		c0.4,0,0.8-0.2,1.1-0.5c0.3-0.3,0.5-0.7,0.5-1.1v-4.1h6.9c1.4,0,2.6,0,3.8,0.1c1.2,0.1,2.3,0.3,3.4,0.6c1.1,0.3,2.1,0.8,3.1,1.5
		c1,0.6,1.9,1.5,2.8,2.7c0.1,0.1,0.2,0.2,0.3,0.3c0.2,0.1,0.3,0.2,0.5,0.3c0.2,0.1,0.4,0.1,0.6,0.1c0.4,0,0.8-0.2,1.1-0.5
		c0.3-0.3,0.5-0.7,0.5-1.1c0-0.3-0.1-0.6-0.3-0.9c-0.8-1.2-1.7-2.2-2.7-3c-0.1-0.1-0.3-0.2-0.4-0.3c0.2-0.1,0.5-0.1,0.7-0.2
		C131.4,132.8,131.9,132.4,132.3,132"/>
	<path class="st0" d="M188.9,138.6c-0.3,0.3-0.7,0.5-1.1,0.5s-0.8-0.2-1.1-0.5c-0.3-0.3-0.5-0.7-0.5-1.1V126c0-0.4,0.2-0.8,0.5-1.1
		c0.3-0.3,0.7-0.5,1.1-0.5s0.8,0.2,1.1,0.5c0.3,0.3,0.5,0.7,0.5,1.1v11.4C189.4,137.9,189.2,138.3,188.9,138.6"/>
	<path class="st0" d="M203.2,124.9c-0.3,0.3-0.5,0.7-0.5,1.1c0,0.4,0.2,0.8,0.5,1.1c0.3,0.3,0.7,0.5,1.1,0.5h7.5
		c0.5-1.2,1.2-2.3,2.1-3.2h-9.7C203.9,124.4,203.5,124.6,203.2,124.9"/>
	<path class="st0" d="M228.5,124.9c-0.3-0.3-0.7-0.5-1.1-0.5h-5.8c-3.8,0-6.9,2.8-7.3,6.5c0,0.3-0.1,0.6-0.1,0.9c0,0,0,0.1,0,0.1
		v5.5c0,0.4,0.2,0.8,0.5,1.1c0.3,0.3,0.7,0.5,1.1,0.5s0.8-0.2,1.1-0.5c0.2-0.2,0.3-0.4,0.4-0.7c0-0.1,0.1-0.3,0.1-0.4v-5.7
		c0-0.4,0-0.8,0.1-1.3c0.1-0.5,0.3-0.9,0.5-1.3c0.2-0.4,0.6-0.7,1-1c0.4-0.3,1-0.4,1.7-0.5h6.7c0.1,0,0.1,0,0.2,0
		c0.3-0.1,0.6-0.2,0.9-0.5c0.3-0.3,0.4-0.7,0.4-1.1C229,125.6,228.8,125.2,228.5,124.9"/>
	<path class="st0" d="M111.7,6.7c-22.5,0-41.8,14-49.6,33.8c9.1-14.5,25.1-24.1,43.5-24.1c26.9,0,48.9,20.7,51.1,47.1l8.2-6.2
		C163.5,29.1,140.2,6.7,111.7,6.7"/>
	<path class="st0" d="M83.4,37.6c-38.6,25.2-62.2,51.1-55.6,63.8c4.4,8.4,21.1,9.2,44.4,3.9c18.5-4.8,22.9-6.8,22.9-6.8l-24.4-3.3
		c0,0,1.1,7.1,1.2,7.3c-17.8,2.7-30.6,1.3-34.5-6.1c-6.4-12.3,13.1-35.7,46.1-58.3v0c6-4.1,12.4-8.2,19.2-12.1l0-0.1
		C95.9,29.8,89.5,33.7,83.4,37.6"/>
	<path class="st0" d="M201.4,7.6c-4.7-8.9-23.4-9.3-49.1-2.7c-8.3,2-11.5,3.3-11.5,3.3l12.8,4.1c0,0-1-5.5-1-5.3
		c20.3-3.9,35.1-2.5,39.3,5.6c8,15.4-24.6,48.4-73.7,75.2l0,0C172.6,58.2,209.4,23,201.4,7.6"/>
	<path class="st0" d="M156.9,67.6c0,14.1-5.7,26.8-14.9,36.1c13.5-9.4,22.5-24.8,22.9-42.3c-2.6,1.9-5.3,3.8-8.1,5.7
		C156.8,67.2,156.9,67.4,156.9,67.6"/>
</g>
</svg>
