<svg width="174" height="36" viewBox="0 0 174 36" fill="none" xmlns="http://www.w3.org/2000/svg"><path d="M15.4629 19.0537C18.2028 19.0537 20.9128 19.7648 23.2852 21.125L30.9092 25.4639L29.5469 27.791L20.04 22.3643C18.6166 21.5474 16.8252 22.5609 16.8252 24.1934V35.0469H14.1006V24.1934C14.1006 22.5609 12.3091 21.5474 10.8857 22.3643L1.36426 27.791L0.00195312 25.4639L7.64062 21.1094V21.125C10.029 19.7648 12.723 19.0537 15.4629 19.0537ZM67.2422 7.38184C68.9183 7.38184 70.4109 7.80549 71.6631 8.65332C72.9153 9.50115 73.8915 10.6903 74.5957 12.2217C75.2988 13.753 75.6504 15.568 75.6504 17.668C75.6504 19.768 75.2988 21.559 74.5957 23.0996C73.8926 24.6401 72.9152 25.8348 71.6631 26.6826C70.4109 27.5305 68.9367 27.9541 67.2422 27.9541V27.9521C65.5661 27.9521 64.1071 27.5328 62.8652 26.6953C61.6234 25.8578 60.6503 24.6686 59.9473 23.127C59.2443 21.5865 58.8926 19.7669 58.8926 17.667C58.8926 15.5669 59.2442 13.7466 59.9473 12.2061C60.6503 10.6658 61.6236 9.4761 62.8652 8.63867C64.1071 7.80121 65.5661 7.38187 67.2422 7.38184ZM49.0703 7.38184C50.4374 7.38184 51.6463 7.64715 52.6963 8.17676C53.7463 8.70637 54.6176 9.48165 55.3115 10.5029C56.0053 11.5242 56.4761 12.7572 56.7266 14.2012H53.9531C53.6062 12.7378 53.024 11.6347 52.2051 10.8926C51.386 10.1516 50.3311 9.78032 49.041 9.78027C47.7509 9.78027 46.6959 10.0882 45.8193 10.7051C44.943 11.3219 44.2745 12.2166 43.8115 13.3916C43.3497 14.5668 43.1172 15.9918 43.1172 17.668C43.1172 19.3441 43.339 20.7734 43.7812 21.959C44.2247 23.1433 44.8799 24.0389 45.7461 24.6455C46.6134 25.252 47.6815 25.5556 48.9531 25.5557C50.2247 25.5557 51.3026 25.1907 52.1309 24.458C52.9592 23.7262 53.5565 22.6179 53.9219 21.1348H56.6953C56.4449 22.5787 55.9729 23.8129 55.2803 24.833C54.5864 25.8543 53.7051 26.6297 52.6367 27.1582C51.5672 27.6878 50.3399 27.9531 48.9521 27.9531L48.9551 27.9521C47.1641 27.9521 45.6264 27.5436 44.3467 26.7246C43.0657 25.9066 42.0884 24.7306 41.4141 23.1992C40.7398 21.6679 40.4024 19.8243 40.4023 17.667C40.4023 15.5095 40.7452 13.6368 41.4287 12.1055C42.1123 10.5741 43.0993 9.40465 44.3906 8.59473C45.6807 7.78606 47.2404 7.38189 49.0703 7.38184ZM166.312 7.37988C167.776 7.37988 169.047 7.63526 170.127 8.14648C171.205 8.65648 172.058 9.36996 172.684 10.2842C173.31 11.1986 173.661 12.2833 173.738 13.5342H171.022C170.888 12.3604 170.392 11.436 169.535 10.7617C168.678 10.0874 167.604 9.75 166.313 9.75C165.023 9.75004 163.969 10.0296 163.207 10.5879C162.446 11.1462 162.066 11.9458 162.066 12.9854C162.066 13.5058 162.172 13.9437 162.385 14.2998C162.596 14.6558 162.914 14.9639 163.338 15.2246C163.762 15.4842 164.321 15.706 165.015 15.8887C165.708 16.0724 166.535 16.2396 167.499 16.3936C168.539 16.567 169.459 16.8029 170.259 17.1016C171.058 17.4003 171.738 17.7759 172.296 18.2285C172.854 18.6811 173.278 19.2153 173.567 19.832C173.856 20.4489 174.001 21.1619 174.001 21.9707C174.001 23.1457 173.702 24.1804 173.104 25.0752C172.507 25.9713 171.67 26.6745 170.591 27.1846C169.512 27.6946 168.279 27.9502 166.893 27.9502L166.891 27.9521C165.311 27.9521 163.933 27.6736 162.759 27.1152C161.584 26.5569 160.669 25.7673 160.015 24.7461C159.36 23.7249 159.004 22.5312 158.945 21.1631H161.661C161.758 22.5116 162.287 23.5854 163.25 24.3838C164.213 25.1833 165.436 25.583 166.919 25.583C168.266 25.583 169.347 25.2848 170.155 24.6875C170.964 24.0913 171.368 23.2721 171.368 22.2314C171.368 21.711 171.263 21.2634 171.051 20.8877C170.838 20.5121 170.521 20.1908 170.097 19.9209C169.673 19.6509 169.119 19.4196 168.436 19.2266C167.752 19.0347 166.928 18.8611 165.966 18.7061C164.945 18.5326 164.025 18.3022 163.206 18.0127C162.387 17.7243 161.699 17.3575 161.141 16.9141C160.582 16.4718 160.159 15.9421 159.869 15.3252C159.581 14.7095 159.436 13.9873 159.436 13.1592C159.436 12.0036 159.724 10.9923 160.302 10.125C160.88 9.25879 161.689 8.5839 162.729 8.10254C163.769 7.62125 164.964 7.37989 166.312 7.37988ZM85.9951 7.55469C87.3621 7.55473 88.5657 7.81029 89.6064 8.32031C90.6461 8.83038 91.4509 9.55236 92.0195 10.4863C92.587 11.4203 92.872 12.5233 92.8721 13.7949C92.8721 15.2011 92.4715 16.4199 91.6719 17.4492C90.8724 18.4796 89.8183 19.1786 88.5088 19.5439L93.0742 27.7783H90.127L86.2227 20.7812C85.9757 20.339 85.5076 20.0645 85.001 20.0645H82.7725C81.9993 20.0645 81.373 20.6907 81.373 21.4639V27.7783H78.7139V7.55469H85.9951ZM107.17 9.71973H104.177C103.404 9.71976 102.778 10.3461 102.777 11.1191V24.2129C102.777 24.9859 103.404 25.6123 104.177 25.6123H107.17V27.7783H95.6992V25.6123H98.75C99.5229 25.6122 100.149 24.9858 100.149 24.2129V11.1191C100.149 10.3462 99.5229 9.71987 98.75 9.71973H95.6992V7.55371H107.17V9.71973ZM120.973 20.1377C121.464 20.9292 122.687 20.5813 122.687 19.6484V7.55469H125.2V27.7783H122.715L114.866 15.1631C114.373 14.3721 113.153 14.7211 113.152 15.6523V27.7783H110.61V7.55469H113.152L120.973 20.1377ZM143.314 9.95215H138.185C137.411 9.95215 136.785 10.5784 136.785 11.3516V27.7783H134.156V11.3516C134.156 10.5784 133.53 9.95215 132.757 9.95215H127.655V7.55469H143.314V9.95215ZM156.776 9.71973H153.784C153.011 9.71973 152.385 10.3461 152.385 11.1191V24.2129C152.385 24.9859 153.011 25.6123 153.784 25.6123H156.776V27.7783H145.307V25.6123H148.356C149.13 25.6123 149.756 24.9859 149.756 24.2129V11.1191C149.756 10.3461 149.13 9.71973 148.356 9.71973H145.307V7.55371H156.776V9.71973ZM67.2422 9.78027C66.0487 9.78031 65.0851 10.0882 64.2373 10.7051C63.3895 11.3219 62.7388 12.2165 62.2861 13.3916C61.8335 14.5668 61.6074 15.9918 61.6074 17.668C61.6074 19.3441 61.8335 20.7702 62.2861 21.9443C62.7388 23.1194 63.3895 24.014 64.2373 24.6309C65.0851 25.2477 66.0866 25.5556 67.2422 25.5557V25.5547C68.4358 25.5547 69.4623 25.2423 70.3193 24.6162C71.1763 23.9901 71.8306 23.0891 72.2832 21.915C72.7358 20.7409 72.9629 19.3246 72.9629 17.668C72.9629 16.0115 72.7358 14.5918 72.2832 13.4062C71.8306 12.222 71.1762 11.3208 70.3193 10.7051C69.4623 10.0893 68.4358 9.78027 67.2422 9.78027ZM82.7705 9.95215C81.9974 9.95215 81.3711 10.5784 81.3711 11.3516V16.2676C81.3712 17.0407 81.9974 17.667 82.7705 17.667H85.7627C87.1103 17.667 88.1848 17.3101 88.9844 16.5967C89.7837 15.8845 90.1836 14.9493 90.1836 13.7949C90.1835 12.6406 89.7837 11.686 88.9844 10.9922C88.1848 10.2983 87.1202 9.95215 85.791 9.95215H82.7705ZM16.8086 11.1553C16.8086 12.7878 18.6 13.8012 20.0234 12.9844L29.5449 7.55762L30.9072 9.88477L23.2686 14.2383V14.2236C20.8802 15.5838 18.1862 16.2949 15.4463 16.2949C12.7064 16.2949 9.99631 15.5838 7.62402 14.2236L0 9.88477L1.3623 7.55762L10.8691 12.9844C12.2925 13.8011 14.084 12.7877 14.084 11.1553V0.300781H16.8086V11.1553Z" fill="white"></path></svg>