<svg width="311" height="20" viewBox="0 0 311 20" fill="none" xmlns="http://www.w3.org/2000/svg">
<path d="M248.699 1.78809H241.757V0.433594H257.164V1.78809H250.222V19.6929H248.688V1.78809H248.699Z" fill="#00204D"/>
<path d="M259.895 0.422852H272.836V1.77735H261.365V9.25883H269.154V10.6133H261.365V18.2853H273.122V19.6715H259.895V0.422852Z" fill="#00204D"/>
<path d="M273.757 10.032C273.757 4.286 277.577 0.148438 282.963 0.148438C288.349 0.148438 290.699 2.75161 291.746 7.02675H290.159C289.228 3.48177 286.529 1.47119 282.91 1.47119C279.291 1.47119 275.376 5.03733 275.376 9.96854C275.376 14.8997 278.466 18.6352 283.133 18.6352C287.799 18.6352 289.312 16.6775 290.275 12.9103H291.81C290.794 17.2701 287.503 19.9579 283.09 19.9579C278.677 19.9579 273.767 15.7674 273.767 10.0109L273.757 10.032Z" fill="#00204D"/>
<path d="M295.439 0.422852H296.91V9.17417H309.461V0.422852H310.932V19.6821H309.461V10.5287H296.91V19.6821H295.439V0.422852Z" fill="#00204D"/>
<path d="M177.206 19.5557H181.746V4.39162H187.534V0.328125H171.418V4.39162H177.206V19.5557Z" fill="#1C2747"/>
<path d="M161.365 19.9684C165.926 19.9684 169.767 16.889 170.953 12.7409H166.476C165.545 14.7197 163.619 16.1166 161.365 16.1166C159.111 16.1166 155.683 13.397 155.683 10.0213C155.683 6.64563 158.212 3.97897 161.397 3.97897C164.582 3.97897 165.683 5.35463 166.593 7.47103H171.016C169.894 3.21706 165.99 0.137695 161.408 0.137695C156.826 0.137695 151.439 4.59272 151.439 10.053C151.439 15.5134 155.916 19.9684 161.387 19.9684" fill="#1C2747"/>
<path d="M140.159 19.8837C145.323 19.8837 148.677 16.5292 148.677 12.307V0.328125H144.286V11.6403C144.286 14.8255 142.36 16.0319 140.307 16.0319C138.254 16.0319 136.264 14.8255 136.264 11.6403V0.328125H131.735V12.3599C131.735 16.2329 135.005 19.8837 140.169 19.8837" fill="#1C2747"/>
<path d="M124.085 12.4764C127.852 11.4923 128.645 8.63516 128.645 6.34945C128.645 2.94204 126.582 0.338867 122.434 0.338867H111.799V19.5664H116.328V12.8679H119.407L124.264 19.5664H129.46L124.074 12.4764H124.085ZM121.365 8.95262H116.339V4.25421H121.45C123.1 4.25421 123.947 5.16426 123.947 6.56109C123.947 7.95791 123.153 8.95262 121.365 8.95262Z" fill="#1C2747"/>
<path d="M99.0372 19.5557H103.566V4.39162H109.334V0.328125H93.2383V4.39162H99.0372V19.5557Z" fill="#1C2747"/>
<path d="M83.9261 19.8305C88.9208 19.8305 92.1695 17.7459 92.1695 13.5448C92.1695 9.34374 89.8944 8.76173 86.6245 8.21146L82.6668 7.55538C80.6351 7.22734 80.1906 6.59242 80.1906 5.76702C80.1906 4.4231 81.3758 3.62945 83.4287 3.62945C85.4817 3.62945 86.8891 4.28554 87.3018 6.17972H91.9155C91.3652 2.03157 87.852 0.0527344 83.4605 0.0527344C79.069 0.0527344 75.8203 2.39136 75.8203 6.04215C75.8203 9.69295 77.6086 10.8252 81.1219 11.4284L85.3758 12.1691C86.8044 12.4125 87.7674 13.2379 87.7674 14.2855C87.7674 15.3332 86.6457 16.2644 84.3388 16.2644C82.0319 16.2644 80.2436 15.3861 79.9684 13.7141H75.3018C75.7674 17.7564 78.9314 19.8411 83.9261 19.8411" fill="#1C2747"/>
<path d="M55.5234 19.5557H59.7033V7.38632L68.5711 19.5557H72.3382V0.328125H68.1584V11.9472L59.7562 0.328125H55.5234V19.5557Z" fill="#1C2747"/>
<path d="M42.73 0.137695C37.2379 0.137695 32.7617 4.59272 32.7617 10.053C32.7617 15.5134 37.2379 19.9684 42.73 19.9684C48.222 19.9684 52.6771 15.5134 52.6771 10.053C52.6771 4.59272 48.2009 0.137695 42.73 0.137695ZM42.6982 16.1271C39.5342 16.1271 37.0157 13.4076 37.0157 10.0319C37.0157 6.65621 39.5448 3.98955 42.6982 3.98955C45.8517 3.98955 48.4125 6.65621 48.4125 10.0319C48.4125 13.4076 45.8622 16.1271 42.6982 16.1271Z" fill="#DB4E3D"/>
<path d="M22.0957 15.3229H26.5825L30.4237 10.053L26.5825 4.7832H22.0957L26.0534 10.053L22.0957 15.3229Z" fill="#1C2747"/>
<path d="M9.95718 19.9684C14.518 19.9684 18.3593 16.889 19.5445 12.7409H15.0683C14.1371 14.7197 12.2112 16.1166 9.95718 16.1166C7.70321 16.1166 4.27464 13.397 4.27464 10.0213C4.27464 6.64563 6.80374 3.97897 9.98892 3.97897C13.1741 3.97897 14.2747 5.35463 15.1847 7.47103H19.608C18.4863 3.21706 14.5815 0.137695 9.9995 0.137695C5.41749 0.137695 0.03125 4.59272 0.03125 10.053C0.03125 15.5134 4.50744 19.9684 9.97834 19.9684" fill="#008CE2"/>
<path d="M222.92 12.4764C226.688 11.4923 227.481 8.63516 227.481 6.34945C227.481 2.94204 225.418 0.338867 221.27 0.338867H210.635V19.5664H215.164V12.8679H218.243L223.1 19.5664H228.296L222.91 12.4764H222.92ZM220.201 8.95262H215.174V4.25421H220.286C221.936 4.25421 222.783 5.16426 222.783 6.56109C222.783 7.95791 221.989 8.95262 220.201 8.95262Z" fill="#1C2747"/>
<path d="M197.947 0.137695C192.455 0.137695 187.979 4.59272 187.979 10.053C187.979 15.5134 192.455 19.9684 197.947 19.9684C203.439 19.9684 207.894 15.5134 207.894 10.053C207.894 4.59272 203.418 0.137695 197.947 0.137695ZM197.915 16.1271C194.751 16.1271 192.232 13.4076 192.232 10.0319C192.232 6.65621 194.762 3.98955 197.915 3.98955C201.068 3.98955 203.629 6.65621 203.629 10.0319C203.629 13.4076 201.079 16.1271 197.915 16.1271Z" fill="#1C2747"/>
</svg>
