<?xml version="1.0" encoding="UTF-8"?>
<svg xmlns="http://www.w3.org/2000/svg" xmlns:xlink="http://www.w3.org/1999/xlink" viewBox="0 0 397.5 91.5">
  <defs>
    <clipPath id="clippath">
      <rect width="397.5" height="91.5" fill="none"></rect>
    </clipPath>
  </defs>
  <!-- Generator: Adobe Illustrator 28.6.0, SVG Export Plug-In . SVG Version: 1.2.0 Build 709)  -->
  <g>
    <g id="Ebene_1">
      <g clip-path="url(#clippath)">
        <g>
          <path d="M211.6,15.6c-2.6,2.6-6,4-9.6,4s-7.1-1.4-9.6-4l-3.7-3.7-2.8,2.8,3.7,3.7c3.3,3.3,7.7,5.1,12.4,5.1s9.1-1.8,12.4-5.1l15.6-15.6L227.2,0l-15.6,15.6h0ZM244.5,30.8c-3.5-.9-6.5-1.6-6.5-4s2.3-4,5.6-4,6.4,1.1,8.5,3.3l2.4-3.4c-2.6-2.5-6.2-4.1-10.9-4.1s-10.6,3.6-10.6,8.3,5.4,7.1,10.2,8.2c3.7.9,7,1.7,7,4.6s-1.9,4.3-6.4,4.3-7.4-1.9-9.3-3.9l-2.4,3.7c2.4,2.5,6.4,4.4,11.6,4.4,7.7,0,11.4-3.7,11.4-8.7s-5.8-7.7-10.7-8.8M210.4,39c0-3.6,1.4-7.1,4-9.6l3.7-3.7-2.8-2.8-3.7,3.7c-3.3,3.3-5.1,7.7-5.1,12.4s1.8,9.1,5.1,12.4l15.6,15.6,2.8-2.8-15.6-15.6c-2.6-2.6-4-6-4-9.6M359.2,47.7h4.8v-28.3h-4.8v28.3ZM381.6,43.4h-5.9v-19.9h5.9c6.9,0,10.3,4.5,10.3,10s-3.6,9.9-10.3,9.9M381.6,19.3h-10.7v28.3h10.7c9.3,0,15.3-6,15.3-14.1s-5.9-14.2-15.3-14.2M178.6,48.6l-15.6,15.6,2.8,2.8,15.6-15.6c5.3-5.3,13.9-5.3,19.3,0l3.7,3.7,2.8-2.8-3.7-3.7c-6.8-6.8-17.9-6.8-24.8,0M273.8,23c3.2,0,6,1.6,7.6,4l3.9-2.1c-2.4-3.6-6.2-6.2-11.5-6.2-8.7,0-15.3,6-15.3,14.8s6.6,14.8,15.3,14.8,9.2-2.6,11.5-6.2l-3.9-2c-1.5,2.4-4.4,4-7.6,4-5.9,0-10.3-4.4-10.3-10.5s4.4-10.5,10.3-10.5M337.2,38.9l-8.6-19.6h-6.5v28.3h4.8v-21l9.2,21h2.2l9.2-21v21h4.9v-28.3h-6.5l-8.6,19.6h0ZM310.4,31h-16v-11.7h-4.8v28.3h4.8v-12.4h16v12.4h4.8v-28.3h-4.8v11.7ZM48.1,36.3c0,4.7-2.7,7.7-7.6,7.7s-7.7-3-7.7-7.7v-17h-4.8v17.4c0,7,4.1,11.6,12.5,11.6s12.5-4.6,12.5-11.7v-17.3h-4.9v17ZM64.6,19.3h-4.8v28.3h18.2v-4.2h-13.4v-24.1h0ZM12.4,30.8c-3.5-.9-6.5-1.6-6.5-4s2.3-4,5.6-4,6.4,1.1,8.5,3.3l2.4-3.4c-2.6-2.5-6.2-4.1-10.9-4.1S.9,22.3.9,27s5.4,7.1,10.2,8.2c3.7.9,7,1.7,7,4.6s-1.8,4.3-6.4,4.3-7.4-1.9-9.3-3.9L0,43.9c2.4,2.5,6.4,4.4,11.6,4.4,7.7,0,11.4-3.7,11.4-8.7s-5.8-7.7-10.7-8.8M103.8,22.9v-3.6h-22.4v4.3h15.9l-15.9,20.5v3.6h22.8v-4.3h-16.2l15.8-20.5ZM109.3,47.7h20.2v-4.2h-15.4v-8.1h15.1v-4.2h-15.1v-7.5h15.4v-4.2h-20.2v28.3h0ZM139.9,32.8v-9.3h7.5c3.2,0,5.1,1.9,5.1,4.6s-1.8,4.7-5.1,4.7h-7.5ZM157.4,28.1c0-4.9-3.4-8.8-9.5-8.8h-12.8v28.3h4.8v-10.6h5.3l6.9,10.6h5.6l-7.7-11c4.1-.4,7.3-3.5,7.3-8.5M178.6,37.6l-3.7,3.7,2.8,2.8,3.7-3.7c6.8-6.8,6.8-17.9,0-24.8L165.8,0l-2.8,2.8,15.6,15.6c5.3,5.3,5.3,14,0,19.3" fill="#fff"></path>
          <path d="M388,89.5l-.3,1.8c.3,0,.9.1,1.2.1,1.5,0,2.7-.6,3.4-2.3l5.2-12.7h-2.1l-3.3,8.3-3.3-8.3h-2.1l4.4,10.7-.6,1.4c-.3.8-.8,1-1.5,1s-.6,0-.9-.2M383,87.1h2v-7.5c0-2.2-1.2-3.4-3.4-3.4s-3.1.9-3.8,1.8v-1.5h-2v10.6h2v-7.6c.6-.8,1.7-1.5,2.9-1.5s2.3.6,2.3,2.3v6.8h0ZM370.4,84.8c-.6.8-1.6,1.2-2.7,1.2s-2.4-.9-2.4-2.1,1-2.1,2.4-2.1,2.1.4,2.7,1.2v1.8ZM370.4,87.1h2v-7.2c0-2.7-2-3.7-4.3-3.7s-3.2.6-4.4,1.7l.9,1.4c1-.9,2-1.4,3.2-1.4s2.6.8,2.6,2.1v1.8c-.8-.9-2-1.4-3.5-1.4s-3.7,1.1-3.7,3.5,1.9,3.5,3.7,3.5,2.6-.5,3.5-1.4v1.2h0ZM358.9,81.8c0,2.2-1.2,3.8-3.2,3.8s-2.4-.7-3-1.6v-4.5c.5-.9,1.7-1.6,3-1.6,2,0,3.2,1.6,3.2,3.8M352.8,91.2v-5.6c.9,1.2,2.1,1.8,3.5,1.8,2.8,0,4.7-2.1,4.7-5.6s-2-5.6-4.7-5.6-2.7.7-3.5,1.8v-1.5h-2v14.7h2ZM345.3,87.1h2v-7.7c0-2.1-1.1-3.2-3-3.2s-3,1-3.6,2c-.3-1.1-1.3-2-2.9-2s-3,1.1-3.4,1.8v-1.5h-2v10.6h2v-7.6c.5-.8,1.6-1.5,2.6-1.5s1.9.8,1.9,2.1v7.1h2v-7.6c.5-.8,1.6-1.5,2.6-1.5s1.9.8,1.9,2.1v7.1h0ZM324.2,85.6c-2.1,0-3.3-1.8-3.3-3.8s1.2-3.8,3.3-3.8,3.3,1.8,3.3,3.8-1.2,3.8-3.3,3.8M324.2,87.4c3.3,0,5.4-2.5,5.4-5.6s-2-5.6-5.4-5.6-5.4,2.5-5.4,5.6,2.1,5.6,5.4,5.6M307.9,81.8c0,3.2,2.2,5.6,5.4,5.6s3.2-.8,4-1.9l-1.3-1.2c-.6.9-1.5,1.3-2.6,1.3-2.1,0-3.4-1.6-3.4-3.8s1.3-3.8,3.4-3.8,1.9.4,2.6,1.3l1.3-1.2c-.8-1-2-1.9-4-1.9-3.2,0-5.4,2.4-5.4,5.6M288.1,85.1c1.2,1.4,3.2,2.3,5.8,2.3,4,0,5.5-2.1,5.5-4.4s-2.8-3.9-5.2-4.5c-1.8-.5-3.4-.9-3.4-2.2s1.1-2.1,2.8-2.1,3.1.5,4.2,1.7l1.3-1.6c-1.3-1.3-3.1-2.1-5.4-2.1s-5.2,1.8-5.2,4.2,2.7,3.7,5.1,4.3c1.9.5,3.5.9,3.5,2.5s-.8,2.3-3.2,2.3-3.6-1-4.6-2.1l-1.2,1.7h0ZM276,87.1h9.9v-1.9h-7.7v-4.6h7.5v-1.9h-7.5v-4.3h7.7v-1.9h-9.9v14.7h0ZM270.5,77c0,1.5-1.1,2.6-2.7,2.6h-3.7v-5.2h3.7c1.6,0,2.7,1,2.7,2.6M270.3,87.1h2.5l-3.8-5.9c1.9-.2,3.6-1.7,3.6-4.3s-1.9-4.5-4.7-4.5h-6.2v14.7h2.2v-5.7h2.8l3.5,5.7ZM246.3,74.4l3,7.8h-5.9l3-7.8ZM251.1,87.1h2.4l-5.8-14.7h-2.8l-5.8,14.7h2.4l1.2-3h7.2l1.2,3h0Z" fill="#fff"></path>
        </g>
      </g>
    </g>
  </g>
</svg>
