<?xml version="1.0" encoding="UTF-8"?>
<svg xmlns="http://www.w3.org/2000/svg" width="150" height="34" viewBox="0 0 150 34" fill="none">
  <mask id="mask0_1_7" style="mask-type:luminance" maskUnits="userSpaceOnUse" x="0" y="0" width="150" height="34">
    <path d="M150 0H0V33.642H150V0Z" fill="white"></path>
  </mask>
  <g mask="url(#mask0_1_7)">
    <path d="M127.734 12.0886H120.524V2.71532V0H127.734V12.0886ZM127.734 19.2984C123.752 19.2984 120.524 22.5264 120.524 26.5082V31.3871H127.734V19.2984ZM150 4.87886V0H142.79V12.0886C146.772 12.0886 150 8.86071 150 4.87886ZM150 19.2984H142.79V31.3871H150V23.7877V19.2984Z" fill="#004461"></path>
    <path d="M142.79 12.0886C142.79 16.0705 139.562 19.2984 135.581 19.2984H127.734C127.734 15.3166 130.962 12.0886 134.944 12.0886H142.79Z" fill="#06C49C"></path>
    <path d="M0 4.55282H4.74491V13.5272H14.132V4.55282H18.8772V26.834H14.132V17.4814H4.74491V26.834H0V4.55282ZM22.9687 33.6422H27.9202L37.5478 11.3266H32.6307L28.8828 20.6449L25.2381 11.3266H20.2178L26.4758 25.768L22.9687 33.6422ZM38.8555 33.6422H43.4287L43.3943 25.3556C44.426 26.4558 46.1108 27.1435 48.1395 27.1435C52.3688 27.1435 55.6699 23.98 55.6699 19.0288C55.6699 14.4212 52.7127 11.0171 48.1051 11.0171C46.042 11.0171 44.2197 11.7049 43.1192 13.0115L43.0161 11.3266H38.8555V33.6422ZM47.1422 23.2925C44.8043 23.2925 43.2224 21.5043 43.2224 19.0632C43.2224 16.8282 44.5979 14.8338 47.1078 14.8338C49.4116 14.8338 50.9591 16.5186 50.9591 18.9945C50.9591 21.5043 49.4804 23.2925 47.1422 23.2925ZM57.5366 26.834H62.1098V19.682C62.1098 16.9999 62.3849 14.7994 64.9979 14.7994C67.1642 14.7994 67.508 16.4498 67.508 18.3067V26.834H72.0812V17.6189C72.0812 13.2177 69.9494 11.0171 66.3047 11.0171C64.4479 11.0171 63.038 11.6017 62.1098 12.6676V4.03711H57.5366V26.834ZM82.7403 27.1435C85.6972 27.1435 87.6918 26.4214 88.7576 25.8712V22.1577C87.8635 22.6391 86.1443 23.4645 83.4966 23.4645C80.9179 23.4645 79.1297 22.6047 78.8205 20.5073H89.4454C89.5485 19.9227 89.5829 19.51 89.5829 18.9601C89.5829 14.7994 87.4854 11.0171 81.9838 11.0171C76.826 11.0171 74.1097 14.5243 74.1097 19.2006C74.1097 24.4959 77.4793 27.1435 82.7403 27.1435ZM78.8549 17.6189C79.061 15.831 80.299 14.6619 81.9838 14.6619C83.8061 14.6619 84.9065 15.9341 84.9753 17.6189H78.8549ZM91.5599 26.834H96.1331V19.682C96.1331 17.0343 96.4082 14.7994 98.9871 14.7994C101.188 14.7994 101.532 16.4498 101.532 18.3067V26.834H106.105V17.6189C106.105 13.2177 103.973 11.0171 100.328 11.0171C98.265 11.0171 96.7177 11.7736 95.8236 13.0459L95.7205 11.3266H91.5599V26.834Z" fill="#004461"></path>
  </g>
</svg>
