<svg viewbox="0 0 191 33" fill="none" xmlns="http://www.w3.org/2000/svg"> <g clip-path="url(#clip0)"> <path d="M51.2607 25.2441V11.7028H46.4617V8.34351H59.8418V11.7028H55.1207V25.2441H51.2607Z" fill="white"></path> <path d="M71.8014 25.0222L68.2335 19.4664L68.1633 19.455H65.6406V25.0222H61.9019V8.34351H69.1041C72.3799 8.34351 74.9444 10.7562 74.9444 13.8386C74.9444 15.9668 73.7741 17.7801 71.8905 18.5692L71.8659 18.5787L76.0654 25.0203H71.8014V25.0222ZM65.6406 16.238H68.683C70.2005 16.238 71.1811 15.3143 71.1811 13.8879C71.1811 12.5962 70.265 11.6591 69.0036 11.6591H65.6406V16.238Z" fill="white"></path> <path d="M116.995 25.2441V8.34351H128.727V11.7028H120.76V14.933H128.207V18.2183H120.76V21.8867H128.901V25.2441H116.995Z" fill="white"></path> <path d="M135.269 15.7553V25.2432H131.555V7.70337L143.138 17.8589V8.34259H146.851V25.5467L135.269 15.7553Z" fill="white"></path> <path d="M153.928 25.2441V11.7028H149.25V8.34351H162.293V11.7028H157.689V25.2441H153.928Z" fill="white"></path> <path d="M160.591 25.2417L169.394 7.66772L178.199 25.2417H174.242L172.949 22.5463L165.839 22.533L164.502 25.2568L160.591 25.2417ZM167.188 19.3824H171.575L169.371 14.8377L167.188 19.3824Z" fill="white"></path> <path d="M180.505 25.2441V8.34351H184.27V21.8184H191V25.2441H180.505Z" fill="white"></path> <path d="M42.0452 15.5507C41.1518 15.1979 40.4007 14.8583 39.7823 14.6535C38.1473 14.111 37.0737 13.7544 37.0471 12.6353C37.0282 11.8462 37.9007 11.1197 39.2209 11.1197C41.1139 11.1197 42.0244 11.9752 42.5763 12.7263L45.1579 10.7309C43.244 8.29917 41.5615 7.96533 38.8548 7.96533C36.81 7.96533 34.917 8.77337 33.9781 10.4255C34.6837 12.3318 35.0896 14.3803 35.1086 16.5256C35.5961 16.7533 36.222 16.996 37.0794 17.3432C37.785 17.6258 38.4678 17.8477 39.0691 18.0431C40.7269 18.5818 41.9257 19.3045 41.9257 20.3989C41.8631 21.3473 41.1803 22.0757 39.3309 22.0757C37.4417 22.0757 35.9261 21.2658 35.0612 19.9665L34.7842 20.0841C34.5433 21.3473 34.1811 22.567 33.6917 23.724C34.9758 24.6193 36.7152 25.4065 38.8112 25.5241C43.3123 25.5241 45.6776 23.4642 45.7459 20.5526C45.7914 18.6918 45.3552 16.8462 42.0452 15.5507Z" fill="white"></path> <path class="mark" d="M16.9962 0.439941C8.03754 0.439941 0.75 7.72749 0.75 16.6861C0.75 25.6448 8.03754 32.9323 16.9962 32.9323C25.9548 32.9323 33.2424 25.6448 33.2424 16.6861C33.2405 7.72749 25.9529 0.439941 16.9962 0.439941ZM9.49429 25.2407H5.6267V8.30791H9.49429V25.2407ZM16.852 15.6467V25.2407H13.0375V7.75214L24.7864 17.6269V8.34016H28.6009V25.3792L16.852 15.6467Z" fill="white"></path> <path d="M85.1453 25.5229C81.5281 25.5229 77.3684 24.1572 77.3684 18.7475V8.34351H81.2113V18.3473C81.2113 21.1811 82.4348 22.2794 84.8494 22.2794C87.247 22.2794 88.4629 21.1811 88.4629 18.3473V8.34351H92.3058V18.7475C92.3058 23.2069 89.673 25.5229 85.1453 25.5229Z" fill="white"></path> <path d="M111.65 7.75537L104.374 19.2538L97.0955 7.75537L93.9165 25.2421H97.7044L99.1384 17.3532L104.374 25.2648L109.607 17.3532L111.041 25.2421H114.829L111.65 7.75537Z" fill="white"></path> </g> <defs> <clippath id="clip0"> <rect width="190.25" height="32.4924" fill="white" transform="translate(0.75 0.439941)"></rect> </clippath> </defs> </svg>