<svg width="1199" height="366" viewBox="0 0 1199 366" fill="none" xmlns="http://www.w3.org/2000/svg">
<g clip-path="url(#clip0_799_2346)">
<mask id="mask0_799_2346" style="mask-type:luminance" maskUnits="userSpaceOnUse" x="0" y="0" width="1199" height="366">
<path d="M1198.39 0H0V365.64H1198.39V0Z" fill="white"/>
</mask>
<g mask="url(#mask0_799_2346)">
<path d="M576.95 120.047C571.14 123.827 566.49 129.377 561.15 134.257C561.15 127.507 561.15 120.447 561.15 113.227C546.24 113.227 531.32 113.227 516.41 113.227C516.49 119.457 516.57 125.697 516.64 131.927C518.45 134.287 520.25 136.647 522.06 139.007C522.14 140.817 522.22 142.627 522.3 144.437C524.35 190.327 524.43 237.017 522.33 284.457C522.25 286.147 522.18 287.847 522.1 289.537C518.9 289.677 516.01 289.807 513.07 289.937C513.07 296.377 513.07 302.297 513.07 308.407C534.17 308.407 554.91 308.407 575.87 308.407C575.87 302.067 575.87 296.037 575.87 289.557C570.88 289.557 566.27 289.557 561.48 289.557C561.48 275.667 561.48 262.227 561.48 247.957C572.77 256.117 584.86 258.427 597.61 258.167C617.98 257.747 636 251.497 649.64 235.737C673.84 207.777 672 156.497 646.11 129.987C627.77 111.207 597.58 106.597 576.95 120.047ZM613.93 229.157C605.65 239.087 592.39 242.637 580.54 238.217C569.45 234.077 561.3 222.087 561.28 209.837C561.27 203.177 561.28 196.517 561.28 189.857C561.28 183.197 561.27 176.537 561.28 169.877C561.31 156.737 570.22 144.547 582.77 140.437C595.74 136.187 609.15 140.547 617.29 151.677C624.48 161.507 626.77 172.877 626.94 184.667C627.17 200.747 624.71 216.227 613.93 229.157Z" fill="white"/>
<path d="M810.18 235.358C810.18 216.518 810.24 197.688 810.15 178.848C810.11 170.858 810.36 162.798 809.39 154.898C806.99 135.388 796.34 121.998 777.51 115.978C757.67 109.648 739.25 115.248 726.68 130.728C724.65 133.228 722.84 135.888 720.22 139.418C720.22 111.268 720.22 84.3284 720.22 56.8984C698.98 61.1984 678.19 65.4084 657.61 69.5784C657.61 75.7284 657.61 81.1584 657.61 87.1984C665.64 87.1984 673.36 87.1984 681.09 87.1984C681.09 138.788 681.09 189.758 681.09 241.378C676.84 241.378 672.78 241.378 668.63 241.378C668.63 247.438 668.63 252.828 668.63 258.348C689.69 258.348 710.42 258.348 731.28 258.348C731.28 252.598 731.28 247.188 731.28 241.348C727.66 241.348 724.38 241.348 720.38 241.348C720.38 238.798 720.38 236.978 720.38 235.158C720.38 214.818 720.46 194.488 720.34 174.148C720.29 165.338 723.5 157.898 729.21 151.458C736.96 142.698 747.88 139.958 758.21 143.988C766.59 147.248 771.28 155.508 771.3 167.248C771.33 188.248 771.31 209.248 771.31 230.258C771.31 233.738 771.31 237.218 771.31 241.298C766.88 241.298 762.8 241.298 758.55 241.298C758.55 247.428 758.55 252.948 758.55 258.338C779.7 258.338 800.41 258.338 820.96 258.338C820.96 252.488 820.96 247.088 820.96 241.578C817.26 241.408 813.98 241.258 810.18 241.088C810.18 238.958 810.18 237.158 810.18 235.358Z" fill="white"/>
<path d="M850.56 123.918C832.39 138.788 824.38 158.548 823.93 181.358C823.39 209.148 833.2 232.308 857.51 247.568C873.61 257.678 891.47 259.338 910.01 256.958C939.04 253.218 962.49 223.758 959.65 193.988C953.05 193.988 946.42 193.988 940.81 193.988C935.77 201.988 931.58 209.978 926.1 216.968C919.64 225.208 910.78 229.578 899.85 228.628C878.55 226.788 861.15 205.068 863.91 183.028C895.75 183.028 927.67 183.028 960.23 183.028C960.59 164.348 957.34 147.768 946.48 133.128C926.06 105.628 876.32 102.828 850.56 123.918ZM863.51 165.608C864.93 155.358 867.4 145.798 873.75 137.738C884.77 123.778 903.14 124.978 912.49 140.118C917.23 147.798 919.16 156.308 920.15 165.598C901.02 165.608 882.45 165.608 863.51 165.608Z" fill="white"/>
<path d="M1180.94 193.653C1178.32 193.563 1177.39 194.703 1176.23 196.913C1172.77 203.513 1169.47 210.363 1164.93 216.193C1157.9 225.233 1148.4 229.943 1136.49 228.493C1113.45 225.693 1101.47 204.123 1101.86 183.073C1133.78 183.073 1165.71 183.073 1197.84 183.073C1199.97 167.043 1194.35 146.903 1185.62 134.383C1165.59 105.683 1114.74 102.653 1088.35 124.083C1059.62 147.403 1052.9 195.423 1074.85 227.623C1091.86 252.583 1116.66 260.223 1145.57 257.263C1166.25 255.153 1181.56 245.153 1190.28 225.923C1194.83 215.893 1197.33 205.333 1198.37 193.713C1192.21 193.713 1186.57 193.853 1180.94 193.653ZM1112.19 137.383C1122.82 124.223 1140.23 124.893 1149.78 138.813C1155.19 146.693 1157.25 155.723 1158.35 165.633C1139.22 165.633 1120.64 165.633 1101.73 165.633C1103.08 155.203 1105.62 145.513 1112.19 137.383Z" fill="white"/>
<path d="M484.56 172.602C474.44 168.852 463.92 166.182 453.71 162.662C447.93 160.672 441.91 158.722 436.88 155.412C428.05 149.612 428.52 136.762 437.85 131.782C442.41 129.352 448.4 127.972 453.51 128.492C467.59 129.902 475.52 139.052 479.26 152.202C479.92 154.522 480.25 156.732 483.48 156.702C491.95 156.612 500.43 156.672 510.26 156.672C508.76 152.222 508.11 148.542 506.39 145.452C490.59 116.952 454.89 98.8017 418.6 117.662C397.32 128.722 389.8 153.322 401.12 172.982C406.87 182.962 416.31 188.232 426.7 191.802C436.45 195.152 446.48 197.672 456.26 200.922C460.14 202.212 464 204.072 467.31 206.452C473.1 210.622 475.03 216.732 473.84 223.692C472.63 230.742 468.37 235.442 461.61 237.522C452.67 240.282 444.13 238.862 436.19 234.052C426.67 228.282 421.42 219.362 418.52 208.952C417.38 204.862 415.76 204.422 412.71 207.072C408.31 210.892 403.85 214.652 399.4 218.432C390.18 226.262 389.97 228.912 398.51 237.972C401.23 240.852 404.35 243.472 407.63 245.692C418.37 252.972 430.54 256.342 443.29 257.482C461.54 259.132 478.79 256.462 493.95 245.052C518.82 226.352 517.51 184.802 484.56 172.602Z" fill="white"/>
<path d="M1057.02 112.978C1043.91 111.758 1032.09 114.978 1023.06 124.978C1018.69 129.808 1015.28 135.508 1011.21 141.108C1011.21 131.018 1011.21 120.988 1011.21 110.078C995.45 115.948 980.44 121.538 965.07 127.268C966.08 129.108 966.67 130.688 967.68 131.938C971.45 136.568 972.4 141.758 972.35 147.698C972.1 176.678 972.24 205.668 972.24 234.648C972.24 236.428 972.24 238.208 972.24 240.228C968.77 240.448 965.86 240.638 962.78 240.838C962.78 246.598 962.78 251.998 962.78 257.578C983.82 257.578 1004.55 257.578 1025.49 257.578C1025.49 251.888 1025.49 246.498 1025.49 240.398C1020.67 240.398 1016.13 240.398 1011.44 240.398C1011.44 215.218 1011.26 190.738 1011.56 166.268C1011.64 159.498 1015.57 154.018 1021.76 151.378C1026.53 149.338 1031.93 147.908 1037.08 147.798C1044.09 147.638 1051.14 148.998 1058.62 149.758C1059.33 138.758 1060.17 127.488 1060.62 116.198C1060.65 115.118 1058.36 113.108 1057.02 112.978Z" fill="white"/>
<path d="M185.586 274.15C185.586 276.43 185.687 278.35 185.567 280.25C184.787 292.18 186.257 303.75 190.257 315.09C191.327 318.11 191.537 321.62 191.367 324.87C190.647 338.33 189.627 351.77 188.687 365.66H176.327C175.327 350.71 174.287 335.96 173.437 321.21C173.327 319.3 174.017 317.25 174.687 315.4C178.507 304.77 180.217 293.87 179.357 282.58C179.167 280.1 179.327 277.6 179.327 274.53C181.267 274.41 182.987 274.31 185.586 274.15ZM163.54 272.25C162.71 276.03 162.34 279.66 161.11 282.97C157.39 292.97 158.23 303.26 158.39 313.56C158.44 316.81 158.02 320.22 157.06 323.32C153.11 336.15 148.87 348.89 144.62 362.03C140.61 361.06 136.96 360.17 132.73 359.14C134.45 349.34 136.54 339.94 137.67 330.43C139.05 318.77 143.6 308.62 149.25 298.47C152.87 291.97 153.99 284.08 156.19 276.8C156.71 275.07 157.1 273.29 157.67 271.15C159.51 271.5 161.2 271.81 163.54 272.25ZM204.082 269.74C208.512 284.74 212.892 299.54 217.232 314.34C220.092 324.07 222.642 333.89 225.832 343.5C227.322 348 230.012 352.11 232.452 356.97C228.802 358.06 225.252 359.11 221.742 360.15C217.692 330.16 206.151 302.73 198.931 274.16C198.741 273.39 198.582 272.61 198.332 271.52C200.261 270.92 201.962 270.4 204.082 269.74ZM142.716 265.27C140.286 269.99 138.297 274.71 135.577 278.98C131.127 285.95 130.026 293.84 128.376 301.63C127.856 304.07 127.816 306.81 126.606 308.85C118.896 321.85 110.926 334.69 102.886 347.84C99.1463 345.9 95.7762 344.16 91.8862 342.15C95.9962 332.941 100.296 324.17 103.846 315.11C107.666 305.35 113.106 297.01 120.436 289.42C125.396 284.29 128.646 277.49 132.516 271.35C134.186 268.69 135.517 265.82 137.247 262.6C139.027 263.46 140.586 264.23 142.716 265.27ZM227.454 258.21C233.154 267 238.753 275.6 244.303 284.23C252.403 296.83 260.293 309.58 268.643 322.01C271.473 326.23 275.434 329.7 279.154 333.82C276.054 335.8 272.883 337.83 269.843 339.77C257.723 312.6 239.164 289.74 224.244 264.67C223.654 263.69 223.083 262.69 222.253 261.27C224.133 260.16 225.534 259.34 227.454 258.21ZM124.096 253.34C121.406 256.47 119.026 259.65 116.226 262.42C110.226 268.36 106.147 275.411 102.437 282.94C99.7871 288.32 96.0867 293.35 92.0669 297.85C83.907 307.009 75.2168 315.7 66.5269 324.81C62.4769 321.13 59.5666 318.5 56.4566 315.67C65.8065 303.66 74.8162 291.96 84.0161 280.42C85.3961 278.68 87.5467 277.39 89.5767 276.34C100.107 270.86 108.337 262.79 115.657 253.63C116.787 252.22 118.096 250.97 119.596 249.35C121.156 250.73 122.476 251.9 124.096 253.34ZM246.443 240.37C252.573 245.62 258.463 250.64 264.323 255.71C277.043 266.71 289.612 277.88 302.472 288.68C306.872 292.37 312.023 295.16 317.323 298.68C314.933 301.44 312.552 304.18 310.252 306.83C290.372 283.34 264.792 266.41 242.792 244.93C243.842 243.62 244.943 242.24 246.443 240.37ZM108.997 237.229C105.517 239.709 102.457 242.23 99.0767 244.22C91.4767 248.7 85.7167 254.97 80.1568 261.7C76.7468 265.83 72.4667 269.5 67.9468 272.39C57.4368 279.09 46.5466 285.19 35.2866 291.85C32.8567 288.33 30.7068 285.22 28.2769 281.71C37.0969 274.74 45.8773 268.18 54.2173 261.1C60.6772 255.62 67.5671 251.22 75.8569 249.34C85.2768 247.21 92.4469 241.13 100.117 235.9C101.747 234.79 103.427 233.74 105.427 232.44C106.577 233.98 107.617 235.38 108.997 237.229ZM259.672 218.271C288.182 229.271 314.162 245.32 344.052 254.12C342.592 257.3 341.032 260.68 339.602 263.78C315.812 247.87 289.012 239.27 264.122 226.79C262.042 225.75 259.932 224.78 257.402 223.58C258.192 221.72 258.922 220 259.672 218.271ZM98.1275 218.02C95.4875 219.05 93.1373 220.16 90.6773 220.91C79.8573 224.2 70.2974 229.66 61.5874 236.87C59.1174 238.91 55.9572 240.39 52.8472 241.38C40.0172 245.47 27.0973 249.27 13.5474 253.37C11.9874 249.33 10.6272 245.82 9.09717 241.89C20.7971 236.53 32.1676 231.09 43.7476 226.15C48.2374 224.23 53.197 222.48 57.9868 222.37C69.7668 222.09 80.5272 218.55 91.1372 214.03C92.5072 213.45 93.9574 213.09 95.7974 212.49C96.5173 214.2 97.1876 215.8 98.1275 218.02ZM266.287 192.97C296.647 195.53 326.227 203.59 357.376 203.56C356.846 207.099 356.327 210.66 355.817 214.1C327.527 205.46 298.297 204.57 269.787 199.49C268.487 199.26 267.207 198.96 265.527 198.61C265.787 196.71 266.017 194.98 266.287 192.97ZM92.1802 196.75C87.2702 197.43 82.4999 197.82 77.8599 198.82C71.4299 200.21 64.8495 201.45 58.7896 203.89C51.4697 206.84 44.2999 209.1 36.23 209.17C24.8 209.27 13.37 210.3 1.56005 210.96C1.02007 206.79 0.539967 203.07 -0.0200195 198.74C8.55999 197.08 16.8903 195.81 25.0503 193.81C38.3602 190.55 51.4404 190.64 64.9702 193.08C71.8801 194.33 79.4399 192.03 86.6997 191.32C88.0096 191.19 89.3099 191 91.1597 190.771C91.5196 192.87 91.7902 194.48 92.1802 196.75ZM1.56787 154.521C11.9579 155.081 22.0482 156.11 32.1382 156.05C43.6182 155.98 53.8083 159.72 64.2183 163.91C70.3782 166.39 77.4885 166.52 84.1685 167.67C86.7384 168.11 89.3385 168.45 92.0884 168.86C91.7884 170.95 91.5585 172.58 91.2486 174.71C87.2686 174.3 83.2782 174.26 79.4683 173.41C70.4783 171.41 61.6878 172.82 52.7778 174C47.7879 174.66 42.538 174.57 37.5581 173.8C26.3883 172.08 15.3184 169.73 4.20849 167.61C2.93851 167.36 1.69807 166.96 0.0581055 166.53C0.558086 162.53 1.02789 158.81 1.56787 154.521ZM357.484 162.74C340.294 159.96 324.183 164.98 307.793 166.89C294.124 168.48 280.523 170.74 266.584 172.75C266.144 170.75 265.764 169.04 265.324 167.02C295.294 160.76 325.974 160.26 355.824 151.43C356.344 154.98 356.864 158.54 357.484 162.74ZM13.5991 112.04C22.669 114.8 31.2893 117.781 40.0991 120.021C51.8889 123.021 62.209 128.36 71.8589 135.84C77.0589 139.87 83.9988 141.7 90.1987 144.43C92.5886 145.49 95.0985 146.31 97.9683 147.39C97.2483 149.44 96.6685 151.1 95.9185 153.24C92.0686 151.8 88.4889 150.59 85.0191 149.12C77.2991 145.85 69.4187 143.53 60.9087 143.63C53.7887 143.72 47.3185 141.38 40.9585 138.23C30.6885 133.17 20.1887 128.59 9.19873 123.53C10.7387 119.51 12.0891 115.99 13.5991 112.04ZM344.204 112.02C322.794 116.19 304.984 127.76 285.724 135.75C277.144 139.31 268.784 143.4 259.944 147.42C258.994 145.61 258.174 144.05 257.074 141.95C265.174 138.19 273.104 134.47 281.074 130.82C296.494 123.76 312.004 116.9 327.314 109.61C331.444 107.65 334.983 104.44 339.463 101.34C341.143 105.13 342.664 108.54 344.204 112.02ZM35.4009 73.5605C48.4108 81.3705 61.1313 88.9102 73.7212 96.6602C75.6211 97.8301 77.1605 99.8103 78.4605 101.7C85.1104 111.34 93.9206 118.57 103.791 124.65C105.471 125.69 107.031 126.91 108.941 128.25C107.741 129.99 106.741 131.44 105.491 133.26C103.331 131.82 101.31 130.69 99.5405 129.26C90.4706 121.93 80.2204 117.06 69.0405 113.87C66.1007 113.03 63.2107 111.4 60.7808 109.5C50.0308 101.14 39.4509 92.5502 28.4409 83.7402C30.8409 80.2304 33.041 77.0204 35.4009 73.5605ZM317.266 66.8701C292.606 82.0501 273.326 103.29 251.196 121.04C249.676 122.26 248.176 123.53 246.386 125.01C245.036 123.47 243.876 122.14 242.386 120.44C252.276 111.82 261.897 103.43 271.537 95.0801C280.717 87.1201 290.096 79.3699 299.056 71.1699C303.046 67.5199 306.236 62.9798 310.006 58.5898C312.486 61.4198 314.976 64.2501 317.266 66.8701ZM65.7329 41.6396C72.6329 48.3896 79.1024 55.2805 86.1724 61.4805C95.3924 69.5705 101.703 79.3903 106.613 90.5303C108.613 95.08 112.682 98.7499 115.922 102.72C118.542 105.92 121.333 108.99 124.193 112.28C122.623 113.66 121.273 114.84 119.643 116.28C117.003 113.38 114.353 110.85 112.153 107.98C106.583 100.73 99.5028 95.44 91.8628 90.54C87.2328 87.58 83.0332 83.5596 79.5132 79.3096C71.6933 69.8297 64.4327 59.9003 56.6128 49.7305C59.8928 46.8205 62.6129 44.3996 65.7329 41.6396ZM279.412 31.9004C264.732 44.6703 257.372 61.9897 246.902 77.0596C240.102 86.8394 233.922 97.0597 227.322 107.31C225.422 106.15 223.922 105.24 222.332 104.28C237.352 77.6403 256.892 54.0503 269.812 25.8604C272.672 27.6603 275.822 29.6405 279.412 31.9004ZM102.926 17.75C105.716 22.25 108.426 26.5702 111.096 30.9102C113.716 35.1601 116.106 39.56 118.936 43.6699C124.686 52.0198 127.736 61.2099 130.196 71.0498C132.696 81.0498 137.667 90.4404 141.787 100.65C141.007 101.13 139.516 102.05 137.486 103.3C135.666 99.9699 133.646 96.9598 132.266 93.6699C128.446 84.57 122.146 77.3996 115.466 70.3496C112.346 67.0596 109.706 63.0601 107.776 58.9502C102.356 47.3802 97.4262 35.59 92.1362 23.5C95.7962 21.55 99.1263 19.78 102.926 17.75ZM232.191 8.58984C220.591 30.5697 217.032 54.6798 209.372 77.4297C207.372 83.3796 205.761 89.4599 203.881 95.7598C201.791 95.1498 200.101 94.6601 198.261 94.1201C205.221 64.2702 217.321 36.1402 221.681 5.40039C225.241 6.48035 228.791 7.55988 232.191 8.58984ZM144.791 3.54004C147.691 12.61 150.161 21.71 153.521 30.46C157.921 41.8999 158.781 53.53 158.321 65.6699C158.071 72.1199 160.461 78.6804 161.751 85.1904C162.251 87.7602 162.951 90.2999 163.631 93.1396C161.481 93.6996 159.761 94.1504 157.871 94.6504C157.351 93.0004 156.741 91.6099 156.491 90.1699C154.261 77.4 149.461 65.7596 142.711 54.6396C140.011 50.1897 139.571 44.2696 138.531 38.9297C136.781 29.9499 135.581 20.86 133.721 11.9102C132.881 7.87018 133.341 5.54963 137.901 5.09961C140.021 4.89962 142.081 4.17002 144.791 3.54004ZM188.767 0C189.257 6.73 189.777 13.6102 190.267 20.4902C190.577 24.9702 190.807 29.4603 191.147 33.9502C191.697 40.9401 191.957 47.8697 189.277 54.5996C185.907 63.0896 185.047 71.97 185.557 81.04C185.737 84.1799 185.587 87.3398 185.587 91.0996H179.417C179.418 86.3198 179.777 81.7 179.337 77.1602C178.667 70.2702 178.008 63.3099 176.328 56.6299C174.528 49.4799 173.147 42.5898 173.977 35.0898C175.257 23.5499 175.667 11.91 176.467 0H188.767Z" fill="white"/>
</g>
</g>
<defs>
<clipPath id="clip0_799_2346">
<rect width="1199" height="366" fill="white"/>
</clipPath>
</defs>
</svg>
