<svg id="Artwork" xmlns="http://www.w3.org/2000/svg" viewbox="0 0 180 50">
    <defs>
      <style>.logo-footer-cls-1{fill:#dcff46;}.logo-footer-cls-2{fill:#230f14;}.logo-footer-cls-3{fill:#230f14;}</style>
    </defs>
    <circle class="logo-footer-cls-1" cx="25.28" cy="25" r="24.63"></circle>
    <path class="logo-footer-cls-2" d="M46.28,23.88a1.92,1.92,0,0,1-.61,1.38A2.53,2.53,0,0,1,44,26h0L28,27.18c-.09,6.8-.48,11-.67,13.08,0,.46-.08.81-.09,1.06-.1,1.61-.67,2.43-1.69,2.43-1.29,0-1.52-1.28-1.64-2.47-.36-3.09-.4-4.45-.57-13.8l-4.25.17c-4.36.18-9.79.4-10.55.4-1.54,0-3.64,0-3.64-2.52,0-1.48.62-2.15,2.15-2.31l35.24-1.07h0c2-.06,3.07.14,3.61.67A1.43,1.43,0,0,1,46.28,23.88ZM34.61,28.73a1.67,1.67,0,0,0-1.3.57c-.75.89-.68,2.56-.49,3.79l1,8.88c.1.92.38,1.78,1.68,1.78,1.52,0,1.73-1.63,1.73-3.39,0-1.27,0-2.55.06-3.91s.07-2.91.07-4.46A3,3,0,0,0,34.61,28.73ZM16.14,30.48a1.61,1.61,0,0,0-1.27.56c-.8.93-.67,2.75-.52,3.74l1,7.18c.11.93.38,1.79,1.67,1.79,1.51,0,1.71-1.63,1.71-3.39l.13-6.62A3,3,0,0,0,16.14,30.48ZM16,20.7a1.64,1.64,0,0,0,1.31-.57c.74-.86.67-2.46.48-3.63L16.8,8c-.11-.89-.39-1.72-1.69-1.72-1.52,0-1.73,1.57-1.73,3.27,0,1.22,0,2.45-.06,3.76s-.06,2.8-.06,4.29A3,3,0,0,0,16,20.7Zm18.77-.3A1.56,1.56,0,0,0,36,19.86c.84-1,.71-2.94.56-4l-1-7.69c-.11-1-.38-1.89-1.67-1.89s-1.71,1.44-1.71,3.6l-.13,7.09C32.06,18.85,33.28,20.4,34.77,20.4ZM23.56,18.51c.11,1,.38,1.89,1.67,1.89s1.71-1.44,1.71-3.6l.13-7.09c0-1.91-1.22-3.46-2.71-3.46a1.53,1.53,0,0,0-1.23.55c-.84,1-.72,2.94-.57,4Z"></path>
    <path class="logo-footer-cls-3" d="M153.74,43.76h5.35V29.84c0-4,1.92-8.19,7.43-8.19,5.3,0,7.48,4,7.48,8.3V43.76h5.35V29.35c0-8.47-6.06-12.67-12.83-12.73-6.93,0-12.78,4.26-12.78,12.84ZM127.37,13l14.58-4-1.42-4.7L126,8.27Zm6.72,26.42a8.48,8.48,0,0,1-8.69-8.84,8.53,8.53,0,0,1,8.69-8.9,8.65,8.65,0,0,1,8.84,8.9A8.6,8.6,0,0,1,134.09,39.39Zm-.28,5A11.72,11.72,0,0,0,143,40.49v3.27h5.35V17.28H143v3.44a11.87,11.87,0,0,0-9.23-4.1,13.74,13.74,0,0,0-13.87,13.93A13.69,13.69,0,0,0,133.81,44.42Zm-23.37-.66h5.35V6.2h-5.35Zm-17.74,0h5.35V29.84c0-4,1.91-8.19,7.42-8.19h.88v-5h-.88c-6.93,0-12.77,4.26-12.77,12.84Zm-10.92,0h5.35V17.28H81.78ZM69,43.76h5.62V11.87l12.51-.65v-5L55.84,7.4v5.4L69,12.15Z"></path>
  </svg>