<svg width="128" height="43" viewBox="0 0 128 43" fill="none" xmlns="http://www.w3.org/2000/svg">
<path d="M125.661 13.992C124.569 12.5845 123.169 11.4454 121.57 10.6618C119.97 9.87814 118.212 9.47074 116.431 9.47074C114.649 9.47074 112.891 9.87814 111.292 10.6618C109.692 11.4454 108.293 12.5845 107.201 13.992C105.737 16.08 104.969 18.5764 105.007 21.126C104.969 23.6756 105.737 26.172 107.201 28.26C108.293 29.6675 109.692 30.8066 111.292 31.5902C112.891 32.3739 114.649 32.7813 116.431 32.7813C118.212 32.7813 119.97 32.3739 121.57 31.5902C123.169 30.8066 124.569 29.6675 125.661 28.26C127.124 26.1718 127.891 23.6755 127.855 21.126C127.891 18.5765 127.124 16.0802 125.661 13.992ZM122.004 23.8C121.668 25.0456 120.948 26.1535 119.946 26.9654C118.943 27.7773 117.71 28.2518 116.422 28.321C113.666 28.383 111.678 26.306 110.848 23.8C110.254 22.0657 110.254 20.1833 110.848 18.449C111.182 17.2045 111.901 16.0975 112.902 15.2857C113.903 14.4739 115.135 13.9987 116.422 13.928C119.169 13.866 121.166 15.943 122.004 18.449C122.594 20.1807 122.594 22.0593 122.004 23.791V23.8ZM37.9546 32.184C37.9546 32.359 37.8851 32.5269 37.7613 32.6507C37.6375 32.7745 37.4696 32.844 37.2946 32.844H33.4606C33.2856 32.844 33.1177 32.7745 32.9939 32.6507C32.8701 32.5269 32.8006 32.359 32.8006 32.184V0.66C32.8006 0.484957 32.8701 0.317084 32.9939 0.19331C33.1177 0.0695355 33.2856 0 33.4606 0H37.2916C37.4666 0 37.6345 0.0695355 37.7583 0.19331C37.8821 0.317084 37.9516 0.484957 37.9516 0.66L37.9546 32.184ZM28.9476 32.184C28.9476 32.359 28.8781 32.5269 28.7543 32.6507C28.6305 32.7745 28.4626 32.844 28.2876 32.844H24.4536C24.2785 32.844 24.1107 32.7745 23.9869 32.6507C23.8631 32.5269 23.7936 32.359 23.7936 32.184V0.66C23.7936 0.486505 23.8619 0.319981 23.9837 0.196463C24.1055 0.0729444 24.2711 0.00236584 24.4446 0H28.2796C28.4546 0 28.6225 0.0695355 28.7463 0.19331C28.8701 0.317084 28.9396 0.484957 28.9396 0.66V32.184H28.9476ZM104.142 10.784V13.459C104.156 13.5742 104.141 13.6912 104.099 13.7994C104.057 13.9076 103.989 14.0036 103.9 14.0788C103.812 14.154 103.706 14.206 103.592 14.2301C103.479 14.2542 103.361 14.2497 103.25 14.217C98.9156 13.325 96.2496 15.251 96.2496 19.255V32.184C96.2496 32.359 96.1801 32.5269 96.0563 32.6507C95.9325 32.7745 95.7646 32.844 95.5896 32.844H91.7556C91.5806 32.844 91.4127 32.7745 91.2889 32.6507C91.1651 32.5269 91.0956 32.359 91.0956 32.184V18.977C91.0729 17.7281 91.3129 16.4884 91.7999 15.3382C92.2869 14.188 93.0101 13.1529 93.9226 12.3C95.7971 10.4672 98.319 9.44808 100.941 9.464C101.838 9.46652 102.733 9.5502 103.616 9.714C104.071 9.866 104.142 10.133 104.142 10.82V10.784ZM87.7246 21.117C87.7731 18.5658 87.0043 16.066 85.5306 13.983C84.4387 12.5755 83.0393 11.4364 81.4395 10.6528C79.8398 9.86914 78.082 9.46174 76.3006 9.46174C74.5192 9.46174 72.7614 9.86914 71.1617 10.6528C69.5619 11.4364 68.1625 12.5755 67.0706 13.983C65.6214 16.0798 64.8451 18.5682 64.8451 21.117C64.8451 23.6658 65.6214 26.1542 67.0706 28.251C68.145 29.6775 69.5409 30.8303 71.1447 31.6159C72.7484 32.4015 74.5149 32.7976 76.3006 32.772C78.6393 32.7795 80.9273 32.0902 82.8726 30.792V33.61C82.8726 37.436 79.5286 38.131 77.3886 38.265C75.916 38.3136 74.4421 38.2329 72.9836 38.024C72.3946 37.935 71.9836 38.024 71.9836 38.657V42.046C71.9871 42.1221 72.0055 42.1968 72.0378 42.2658C72.0702 42.3347 72.1158 42.3967 72.172 42.448C72.2283 42.4994 72.2942 42.5392 72.3658 42.5651C72.4374 42.591 72.5135 42.6025 72.5896 42.599C77.5566 43.027 80.9006 42.938 83.4156 41.499C85.1774 40.4572 86.485 38.7932 87.0806 36.835C87.5254 35.3242 87.7388 33.7547 87.7136 32.18V21.117H87.7246ZM76.3006 28.3C73.5446 28.3 71.5566 26.285 70.7186 23.779C70.1254 22.0447 70.1254 20.1623 70.7186 18.428C71.5566 15.922 73.5456 13.907 76.3006 13.907C82.4626 13.907 82.6676 20.194 82.6676 21.107C82.6676 22.02 82.4626 28.3 76.3006 28.3ZM20.2796 18.8C20.2796 15.759 19.6016 13.449 18.1396 11.853C16.6776 10.257 13.7346 9.463 11.0056 9.463C8.26747 9.45285 5.57575 10.17 3.20559 11.541C3.13131 11.5848 3.06991 11.6475 3.02759 11.7226C2.98528 11.7978 2.96354 11.8828 2.96459 11.969L3.16959 15.322C3.18849 15.4259 3.23448 15.523 3.30291 15.6034C3.37134 15.6838 3.45978 15.7448 3.55931 15.7801C3.65884 15.8154 3.76592 15.8238 3.86974 15.8045C3.97356 15.7852 4.07044 15.7388 4.15059 15.67C7.49459 13.61 11.5076 13.227 13.5506 14.261C14.1125 14.5847 14.5755 15.0555 14.8898 15.6227C15.2041 16.1898 15.3579 16.832 15.3346 17.48V17.97H9.75759C7.35759 17.97 0.0105934 18.862 0.0105934 25.612V25.683C-0.0480034 26.7118 0.137098 27.7398 0.550838 28.6836C0.964578 29.6273 1.59527 30.46 2.39159 31.114C4.12872 32.3363 6.22803 32.9354 8.34859 32.814H19.6296C19.8046 32.814 19.9725 32.7445 20.0963 32.6207C20.2201 32.4969 20.2896 32.329 20.2896 32.154V18.781L20.2796 18.8ZM15.3306 28.7H8.66959C7.81499 28.6755 6.98917 28.3858 6.30659 27.871C5.95498 27.6242 5.6694 27.2947 5.47498 26.9116C5.28055 26.5285 5.18324 26.1035 5.19159 25.674C5.19159 24.474 6.00359 22.062 10.0606 22.062H15.3306V28.7ZM52.0716 9.471C45.2496 9.471 42.2626 14.046 41.3076 17.916C41.0452 18.96 40.9136 20.0325 40.9156 21.109C40.8788 23.6585 41.6465 26.1548 43.1096 28.243C44.2029 29.6489 45.6026 30.7869 47.202 31.5703C48.8015 32.3538 50.5586 32.762 52.3396 32.764C56.0226 32.898 58.4836 32.274 60.3656 31.203C60.5492 31.0846 60.6911 30.9116 60.7711 30.7083C60.8511 30.5051 60.8653 30.2818 60.8116 30.07V27.1C60.8116 26.494 60.4456 26.208 59.9196 26.574C57.7174 27.9855 55.1038 28.614 52.5006 28.358C51.018 28.3384 49.5939 27.7772 48.4966 26.7801C47.3992 25.783 46.7046 24.4189 46.5436 22.945H61.7036C61.8675 22.945 62.0249 22.8805 62.1417 22.7654C62.2584 22.6503 62.3252 22.4939 62.3276 22.33C62.5916 18.183 61.3916 9.471 52.0716 9.471ZM46.6226 18.843C46.6532 18.1602 46.8193 17.4904 47.1112 16.8724C47.4031 16.2544 47.815 15.7007 48.3229 15.2434C48.8308 14.7861 49.4246 14.4344 50.0697 14.2088C50.7148 13.9831 51.3984 13.888 52.0806 13.929C52.7334 13.8891 53.3873 13.9894 53.9982 14.2231C54.609 14.4569 55.1628 14.8186 55.6223 15.2841C56.0818 15.7495 56.4364 16.308 56.6622 16.9218C56.8881 17.5357 56.9799 18.1907 56.9316 18.843H46.6226Z" fill="#FF5A00"/>
</svg>
