<svg version="1.2" xmlns="http://www.w3.org/2000/svg" viewbox="0 0 270 137"><g id="Layer"><path fill-rule="evenodd" fill="#fff" d="M0 0h269.5v136.6H0"></path><path fill-rule="evenodd" fill="#d71920" d="M3.7 3.7h129.2v129.2H3.7z"></path><path fill-rule="evenodd" fill="#0090cb" d="M136.6 3.7h129.2v129.2H136.6z"></path><path fill-rule="evenodd" fill="#fff" d="M74.5 33.8c.4-.4 4.2-3.8 4.5-4.1h1.1c-.4.3-1.7 1.4-2.1 1.9-.8.8-1.2 1.9-1.2 3.1V46c0 1.4-.6 2.9-1.6 4-.4.4-3.8 3.4-4.1 3.7h-1.2c.1-.1 2.1-1.8 2.4-2.1.6-.6.9-1.5.9-2.4V37.5c-.1-1.4.4-2.7 1.3-3.8zM73 76.4c2.1-.1 4.1-1 5.5-2.5 4-3.9 4-6.4 2.8-7.7l-1.7-1.7v-4.6l1.5 1.3c1 .9 1.6 2.2 1.6 3.6v6.1c.1 2.3-.8 4.6-2.4 6.3-2 1.9-4.6 3-7.3 3h-2.9l-4.2-3.8zm4.7-25c-.6.9-.9 1.8-.9 2.9v2.2h2.3c.9-.1 1.8-.5 2.4-1.2V53s.6.7 1.1 1.3c.8-.7 2.8-2.9 4.3-2.9 3 0 2.3 3.8 1.1 5-.4.3-2.2 2-2.7 2.5-1.4 1.3-3.8.7-3.8-2.8 0 0-2.6 2.5-3 2.8l-1.7 1.7v6.1c0 2.9-1 4-1.8 4.8-.4.3-3.5 3.2-4.1 3.7h-1.1s2-1.8 2.4-2.2c.7-.8 1-1.8.9-2.9v-9.5h-15c-5.1 0-6.2-5.8-6.3-7.4v-5.7c0-1.2-.6-2.3-1.5-3h1.5c.1.1 1.1.4 1.1 4 0 0-.1 4.1-.1 4.3 0 2 1.5 3.7 3.5 3.8h16.8c.2-1.1.6-2.1 1.3-3 .5-.5 4.1-3.9 4.5-4.2H80c-.2.2-1.9 1.7-2.3 2.2zm5.4 3.5q.8.9 1.7 1.8c1.6 1.2 2.3-.2 1.3-1.9-.3-.4-1.3-1-3 .1zM49.9 57s1.1 0 1.1 4v3.9c0 4.1 3.3 7.4 7.4 7.4h8.5c1.8 0 3.4-2.7 1.4-4.3l-1.4-1.4v-4.8l1.4 1.3c1.1.8 1.7 2.1 1.7 3.4v2.4c.1 1.5-.5 3-1.7 4q-.6.8-1.4 1.5c-1.1 1.2-2.8 1.9-4.5 1.8h-3.9c-4.6 0-8.4-4.3-8.4-8.9v-7.2c0-1.2-.6-2.4-1.6-3h1.4zM70 33c.6.5 1.8 2.1 1.1 2.8l-1.7 1.7q-.4-.7-1-1.3v3.1c.1.6-.1 1.2-.5 1.7 1.3 1.4 2.1 3.2 2.2 5.2v3c.1.5-.1 1.1-.5 1.5-.2.2-2.4 2.4-2.7 2.6-.4.5-1.1.7-1.7.7h-7.9c-1.2 0-2.5-1-2.5-2v-2.9c.3.6 1 1 1.8 1 .6-.1 1.3-.4 1.8-.9.2-.2 6-6.2 6-6.2q-2.1-2-4.5-3.7c-.4-.2-.9-.2-1.3-.1-.4.2-.8.6-.9 1q-.4 3 0 6l-2.1-2.1c-.9-1.2-.8-2.8.2-3.9.9-1.1 2.3-1.9 3.8-2h3.1c2.2 0 4.4 2 4.4 2q.3-.2.4-.7v-4c-1.6-1.6-1.8-3.2-1-4l1.9-1.9c.1 1.3.6 2.5 1.6 3.4zm-9.9 16q-.7.8-1.7 1.4h9c2.4 0 1.9-1.5 1.5-2.2q-1.7-2.4-3.7-4.5zM65 65.8c0 .8-2.6 3-2.7 3.1-.2-.9-.8-1.9-2.8-3.8l2.9-2.9c1.9 2 2.7 2.4 2.7 3.6zm-5.8 0c0 .8-2.6 3-2.8 3.1-.2-.9-.8-1.9-2.8-3.8l2.9-2.9c1.9 2 2.7 2.4 2.7 3.6zm-4 30.6c0 1.2.6 2.4 1.6 3.1h-4.1s-1.3 0-1.3-3.1v-7.6c0-1.2-1-2.2-2.2-2.2-1-.1-1.9.6-2.2 1.6v8.2c0 1.2.6 2.4 1.5 3.1h-4.1s-1.2 0-1.2-3.1v-7.6c0-1.2-.9-2.1-2-2.2-1.1-.1-2.1.5-2.5 1.6v8.1c0 1.2.6 2.4 1.6 3.1h-4.1s-1.2-.1-1.2-3.1V87c0-2.4-1.4-3-1.4-3H36c2.6 0 2.6 3 2.6 3 .5-1.8 2.1-3 3.9-3 2-.1 3.7 1.1 4.3 2.9.5-1.7 2-2.9 3.8-2.9 2 0 4.6.8 4.6 4v8.4zm7.1 0c.1 1.2.6 2.4 1.6 3.1h-4s-1.2 0-1.2-3v-9.4c0-2.4-1.4-3-1.4-3h2.4c.9 0 2.7 0 2.7 3.5v8.8zm12.6-11.2v2.7c-1.1-1.3-2.9-1.6-4.3-.7-.5.4-.9.9-1 1.6v7.5c0 1.3.6 2.4 1.6 3.1h-4.1s-1.2 0-1.2-3v-9.3c0-2.5-1.4-3-1.4-3h2.4c1.8 0 2.5.6 2.7 3 0 0 .6-3 3.2-3 .8 0 1.7.4 2.1 1.1zm19 .6h-1v10.7c0 1.2.6 2.3 1.5 3h-4s-1.2 0-1.2-3V85.7h-2.6q1.9-.9 3.6-2.2c1.1-.8 2-1.8 2.7-3V84h3.5v2.4c-.8-.4-1.6-.6-2.5-.6zm12.5 4.7c-2.3 2.4-4.1 2-5.5 3.8 0 0 .2 2.4 2 3.2 1.8.8 3.9 0 4.8-1.8v2.8s-1 1-4.4 1c-4 0-6.8-3.1-6.8-7.4 0-4.3 2.3-8 6.5-8s6.4 3.3 3.4 6.4zm-2.5-.9c.6-1.3 1.2-4.5-1.1-4.3-2.7.2-2.2 7.3-2.2 7.3.9-1 2.2-1.1 3.3-3zM58.6 81c0-1 .8-1.8 1.9-1.8 1 0 1.8.8 1.8 1.8s-.8 1.9-1.8 1.9c-1.1 0-1.9-.9-1.9-1.9zm56.9 14.3c-.1-.9-.8-1.8-1.7-2.2q-1.1-.6-2.1-1.3c-1.4-.9-2.3-2.4-2.3-4.1-.1-2.1 2.1-3.7 4.5-3.7 1.5 0 2.8.5 4 1.2v2.6c-.5-1.1-1.6-1.9-2.9-2.1-2.7-.2-3 2.1-1.1 3.1 1.5.8 2.8 1.8 4 3 .6.8.9 1.8.9 2.8.1 2.9-2.7 5-5.5 5-1.4 0-2.7-.4-3.9-1.1v-2.8l3 2.2c.7.1 1.5-.1 2-.6.6-.5.9-1.2 1-1.9zM82 87.5c0-.9-.5-1.7-2.3-1.7-1.3 0-2.5.9-3 2.1v-2.7c1.2-.8 2.5-1.1 3.8-1.1 2.5 0 4.8 1.6 4.8 3.7v8.7c0 1.2.6 2.3 1.6 3h-4.1s-.9 0-1.1-1.8c-.6 1.2-1.9 2-3.3 1.9-2.4 0-4.1-1.4-4.1-3.8 0-3.5 3.1-4.7 5.6-5.7 1.1-.4 2-1.4 2-2.6zm-2.2 10.2c.7.1 1.4-.2 1.8-.8v-6.5c-.8 1-4 1.7-4 5.2 0 .6.2 1.2.6 1.6.5.4 1 .6 1.6.6zm96.3-18.9-4.2 3.8v-3.8zm-4.2 0-3.9 3.5h-6.6c-1.7 0-3.4.7-4.7 2-1.2 1.2-1.9 3-1.9 4.7 0 3.8 3 6.9 6.7 7 4.4 0 6.7-3.9 6.7-7.2v-6h3.7v6c0 5.7-4.2 10.7-10.4 10.7h-.3c-2.7 0-5.3-1.2-7.2-3.2-1.9-1.9-2.9-4.6-2.9-7.3v-.4c0-2.6 1.1-5.1 2.9-6.9 1.8-1.9 4.3-2.9 6.9-2.9h7.4v-6.6h3.6v6.6zm15.3-.8c4.1 0 8 1.7 8 8.7V99h-3.7V87.2c0-3.3-.9-6.1-5.1-6.1-2.5 0-6.3 1.8-6.3 5.3V99h-3.9V78.8h3.5v3.1c1-1.9 4.2-3.8 7.6-3.8zm39.3 18q1.5-.1 3-.7l1 3.3c-1.5.6-3.1.8-4.6.8-4.5 0-5.5-3.4-5.5-5.5V72.2h3.7v6.5h6.2V82h-6.2v11.1c0 1.5.5 2.9 2.3 2.9zM251 84.8v14.1h-3.4v-1.4c-2.2 1.1-4.5 1.7-6.9 1.8-4.6 0-8.7-2.1-8.7-6.4.1-1.6.8-3.1 2-4.1 1.4-1.4 3.6-2.4 7.1-2.7 2.4-.3 6.5-.6 6.5-.6v-.3c0-1.2-.5-3.7-5.8-3.7-2.3 0-4.6.6-6.5 1.8l-1.6-2.7c2.5-1.4 5.2-2.1 8.1-2.3 6.9 0 9.4 3.6 9.4 6.6zm-10.4 11.6c2.9 0 5.8-1 7-2.7v-5.3l-6.3.5c-2.4.2-5.4 1.2-5.4 3.6 0 3.3 3.3 3.9 4.7 3.9zm-23.8 2.5h-3.4v-1.3c-2.2 1-4.6 1.7-7 1.8-4.5 0-8.6-2.2-8.6-6.4 0-4.9 5-6.7 8.9-7l6.5-.6v-.3c0-1.2-.5-3.7-5.9-3.7-2.2 0-4.5.6-6.4 1.8l-1.6-2.7c2.5-1.3 5.2-2.1 8.1-2.3 6.4 0 9.4 3.1 9.4 6.6zm-10.6-2.6c2.9 0 5.8-1 7-2.7v-5.3l-6.3.5c-2.4.2-5.3 1.2-5.3 3.7 0 3.2 3.2 3.8 4.6 3.8zm-176.9.9c2.9 0 3.6-1.4 3.6-1.4v1.1c0 .9-.8 2.4-3 2.4h-9.6s-1.2 0-1.2-3V84.4c.1-1.7-.5-3.3-1.7-4.5h9.7c5.1 0 5.5 3.5 5.5 3.5-2.1-1.3-4.1-1.3-6.7-1.3h-3q.4 1.1.4 2.3v2.1h2.1c1.8-.1 3.5 1 4.3 2.7-1.3-.7-2.8-.9-4.3-.7h-2.1v6.6c.1 1 0 2.2 1.4 2.2h4.6z"></path></g></svg>