<svg xmlns="http://www.w3.org/2000/svg" version="1.1" xmlns:xlink="http://www.w3.org/1999/xlink" xmlns:svgjs="http://svgjs.dev/svgjs" width="32" height="32"><svg width="32" height="32" viewBox="0 0 32 32" fill="none" xmlns="http://www.w3.org/2000/svg">
<path d="M10.3918 18.1594C10.2201 17.9972 10.0548 17.8287 9.90216 17.6538C9.95304 17.9845 10.0325 18.3088 10.1375 18.6236C10.217 18.4678 10.3028 18.312 10.395 18.1626L10.3918 18.1594Z" fill="#EA1D22"></path>
<path d="M16.8562 13.4086V12.4292C16.8562 12.4292 16.8562 12.0381 16.3983 12.0381H15.3776C15.2632 12.0381 14.9897 12.0603 14.659 12.391C14.659 12.391 14.5763 12.4833 14.7481 12.5278C14.9198 12.5723 15.1233 12.8171 15.1233 13.0238V13.4117C13.5175 13.5834 12.0484 14.2162 10.856 15.1797C11.0818 15.5167 11.3425 15.8347 11.6319 16.1241C11.7305 16.2226 11.8354 16.318 11.9403 16.4102C13.0946 15.4977 14.5096 15.0048 16.0009 15.0048C17.7529 15.0048 19.4032 15.6884 20.6433 16.9285C21.8834 18.1686 22.5671 19.8157 22.5671 21.571C22.5671 23.3262 21.8834 24.9733 20.6433 26.2134C19.4032 27.4535 17.7561 28.1372 16.0009 28.1372C14.2457 28.1372 12.5985 27.4535 11.3584 26.2134C10.2837 25.1386 9.62866 23.7586 9.47285 22.2673C8.8369 21.5233 8.33768 20.6902 7.98791 19.7967C7.86072 20.369 7.79395 20.9636 7.79395 21.5742C7.79395 26.1053 11.4666 29.7779 15.9977 29.7779C20.5288 29.7779 24.2014 26.1053 24.2014 21.5742C24.2014 17.3324 20.9804 13.841 16.8499 13.4149L16.8562 13.4086Z" fill="#EA1D22"></path>
<path d="M11.3618 16.3977C10.8625 15.8984 10.4523 15.3324 10.1407 14.7188C9.93405 15.342 9.82275 16.0034 9.82275 16.6807C9.82275 16.8492 9.82911 17.0145 9.84183 17.1799C11.3459 18.8874 13.5462 19.9622 15.9978 19.9622C17.947 19.9622 19.734 19.2817 21.1427 18.1497C20.9169 17.8126 20.6593 17.4978 20.3668 17.2053C20.2682 17.1067 20.1633 17.0113 20.0584 16.9191C18.9041 17.8317 17.4891 18.3246 15.9978 18.3246C14.2458 18.3246 12.5955 17.6409 11.3554 16.4008L11.3618 16.3977Z" fill="#EA1D22"></path>
<path d="M9.4729 11.1C9.62235 9.596 10.2806 8.2001 11.3617 7.1158C12.6018 5.8757 14.2489 5.19205 16.0041 5.19205C17.7593 5.19205 19.4064 5.8757 20.6465 7.1158C21.8866 8.3559 22.5703 10.003 22.5703 11.7582C22.5703 12.9538 22.2523 14.0985 21.6577 15.1002C21.9057 15.3196 22.1442 15.5517 22.37 15.7997C22.5258 15.9714 22.6752 16.1495 22.8151 16.3339C23.6959 15.027 24.211 13.453 24.211 11.7582C24.211 7.51645 20.9899 4.02509 16.8595 3.599V2.61328C16.8595 2.61328 16.8595 2.22217 16.4016 2.22217H15.3809C15.2664 2.22217 14.9929 2.24443 14.6622 2.57512C14.6622 2.57512 14.5796 2.66733 14.7513 2.71185C14.923 2.75637 15.1265 3.00121 15.1265 3.20789V3.59582C11.0087 4.03462 7.80035 7.51963 7.80035 11.7519C7.80035 12.3719 7.87031 12.9761 8.00068 13.5548C8.34727 12.6645 8.84331 11.8314 9.47608 11.0937L9.4729 11.1Z" fill="#EA1D22"></path>
<path d="M20.6432 21.3196C19.4031 22.5597 17.756 23.2433 16.0008 23.2433C14.2456 23.2433 12.5985 22.5597 11.3584 21.3196C10.1183 20.0795 9.43463 18.4324 9.43463 16.6772C9.43463 14.9219 10.1183 13.2748 11.3584 12.0347C12.5985 10.7946 14.2456 10.111 16.0008 10.111C17.756 10.111 19.4031 10.7946 20.6432 12.0347C21.1425 12.534 21.5527 13.1 21.8611 13.7136C22.071 13.0872 22.1791 12.4258 22.1791 11.7549C22.1791 11.5864 22.1727 11.421 22.16 11.2557C20.834 9.7485 18.9643 8.73416 16.8562 8.51793V7.53857C16.8562 7.53857 16.8562 7.14746 16.3983 7.14746H15.3776C15.2631 7.14746 14.9897 7.16972 14.659 7.50041C14.659 7.50041 14.5763 7.59263 14.748 7.63714C14.9197 7.68166 15.1232 7.9265 15.1232 8.13318V8.52111C11.0054 8.95992 7.79706 12.4449 7.79706 16.6772C7.79706 21.2083 11.4697 24.8809 16.0008 24.8809C18.4524 24.8809 20.6528 23.8062 22.1536 22.1018C22.1695 21.9238 22.1759 21.7457 22.1759 21.5676C22.1759 20.8967 22.0709 20.2448 21.8674 19.6248C21.5558 20.2417 21.1456 20.814 20.6401 21.3164L20.6432 21.3196Z" fill="#EA1D22"></path>
<path d="M23.1328 16.5468L23.0565 16.6613C23.4476 17.2209 23.7688 17.8251 24.0136 18.4578C24.1408 17.8855 24.2076 17.2877 24.2076 16.6772C24.2076 16.0667 24.1376 15.4562 24.0073 14.8774C23.7783 15.4625 23.4858 16.0222 23.1328 16.55V16.5468Z" fill="#EA1D22"></path>
</svg><style>@media (prefers-color-scheme: light) { :root { filter: none; } }
@media (prefers-color-scheme: dark) { :root { filter: none; } }
</style></svg>