<svg width="111" height="26" viewBox="0 0 111 26" fill="none" xmlns="http://www.w3.org/2000/svg">
<g clip-path="url(#clip0_3379_8486)">
<path d="M48.3184 6.73633C49.8982 6.73635 51.3002 7.08919 52.5176 7.80176H52.5166C53.746 8.48897 54.7097 9.39713 55.4014 10.5273H55.4004C56.0296 11.5079 56.3911 12.5645 56.4805 13.6953C56.5097 14.0657 56.2079 14.3584 55.8545 14.3584H52.6699C52.3202 14.3582 52.0541 14.0824 52.0127 13.7607C51.9545 13.3087 51.8209 12.88 51.6104 12.4746L51.6055 12.4668V12.4658C51.3592 11.9367 50.971 11.499 50.4326 11.1533C49.9071 10.816 49.2075 10.6387 48.3184 10.6387C47.2503 10.6387 46.3892 10.8753 45.7207 11.333C45.0452 11.7956 44.5414 12.4324 44.21 13.25C43.8963 14.0539 43.7373 14.9711 43.7373 16.0049C43.7373 17.0173 43.8955 17.9245 44.209 18.7285C44.5394 19.5244 45.0426 20.151 45.7178 20.6143L45.9775 20.7686C46.6053 21.1062 47.3824 21.2803 48.3184 21.2803C49.2485 21.2803 49.9659 21.0929 50.4893 20.7383L50.4912 20.7363H50.4922C51.0492 20.3718 51.4596 19.8941 51.7275 19.3018C51.9481 18.8139 52.0865 18.2932 52.1416 17.7393C52.1745 17.4104 52.4443 17.1339 52.7939 17.1338H55.917C56.2709 17.1339 56.5677 17.4257 56.5459 17.792C56.4674 19.1134 56.1179 20.3135 55.4951 21.3877C54.8036 22.5803 53.8389 23.522 52.6055 24.2109H52.6045C51.3867 24.8818 49.9556 25.2139 48.3184 25.2139C46.5165 25.2139 44.9412 24.8306 43.6006 24.0566L43.5986 24.0557C42.2617 23.263 41.2166 22.1668 40.4658 20.7715L40.4648 20.7695C39.7343 19.3731 39.3721 17.7827 39.3721 16.0049C39.3721 14.2074 39.7342 12.6076 40.4648 11.2109L40.4658 11.209C41.2166 9.81368 42.2617 8.71746 43.5986 7.9248C44.9396 7.12974 46.5156 6.73633 48.3184 6.73633ZM66.3311 6.73633C67.521 6.73635 68.6407 6.97622 69.6875 7.45703H69.6865C70.7536 7.91741 71.6739 8.60694 72.4463 9.52344C73.2233 10.4251 73.7875 11.533 74.1406 12.8398C74.4679 14.051 74.553 15.4063 74.4023 16.9023C74.3695 17.2283 74.0928 17.4688 73.7715 17.4688H61.8721C61.9509 17.9215 62.0677 18.3513 62.2227 18.7588L62.3545 19.0498C62.6819 19.7104 63.1411 20.2419 63.7334 20.6475C64.4019 21.1052 65.263 21.3418 66.3311 21.3418C67.3148 21.3418 68.0895 21.1161 68.6738 20.6846C69.1929 20.2832 69.5697 19.8141 69.8105 19.2773C69.9147 19.0452 70.1445 18.8721 70.4189 18.8721H73.6455C74.0505 18.8721 74.3696 19.252 74.251 19.6602C73.9615 20.6538 73.5045 21.5441 72.8799 22.3281L72.8789 22.3271C72.1643 23.2295 71.242 23.941 70.1152 24.4619L70.1133 24.4629C69.0026 24.9651 67.7404 25.2139 66.3311 25.2139C64.5292 25.2139 62.9539 24.8306 61.6133 24.0566L61.6113 24.0557C60.2744 23.263 59.2293 22.1668 58.4785 20.7715L58.4775 20.7695C57.747 19.3731 57.3848 17.7827 57.3848 16.0049C57.3848 14.2074 57.7469 12.6076 58.4775 11.2109L58.4785 11.209C59.2293 9.81368 60.2744 8.71746 61.6113 7.9248C62.9523 7.12974 64.5283 6.73633 66.3311 6.73633ZM109.572 1.43066C109.925 1.43085 110.212 1.71718 110.212 2.07031V24.0859C110.212 24.4391 109.925 24.7254 109.572 24.7256H106.577C106.224 24.7256 105.938 24.4392 105.938 24.0859V22.9805C105.481 23.5756 104.917 24.0686 104.241 24.4541L104.24 24.4531C103.364 24.9644 102.267 25.2138 100.96 25.2139C99.357 25.2139 97.9513 24.8282 96.752 24.0508L96.75 24.0498C95.5544 23.2539 94.6336 22.1545 93.9873 20.7598L93.9863 20.7578C93.3614 19.3641 93.0518 17.778 93.0518 16.0049C93.0518 14.212 93.3614 12.6165 93.9863 11.2227L93.9873 11.2197C94.6336 9.82499 95.5544 8.72656 96.75 7.93066C97.9496 7.13209 99.3558 6.73633 100.96 6.73633C102.229 6.73636 103.316 6.98569 104.211 7.49609H104.21C104.893 7.87 105.468 8.36955 105.938 8.99121V2.07031C105.938 1.71709 106.224 1.43069 106.577 1.43066H109.572ZM25.9307 7.22363C26.2838 7.22365 26.5702 7.51013 26.5703 7.86328V17.5596C26.5703 18.3392 26.6403 19.0342 26.7783 19.6455C26.9115 20.2154 27.1745 20.6613 27.5625 20.9941C27.9375 21.2959 28.502 21.4628 29.2881 21.4629C29.9579 21.4629 30.6236 21.2725 31.2871 20.8828C31.9385 20.5002 32.4839 19.9027 32.917 19.0771C33.2907 18.3469 33.5057 17.4354 33.5537 16.3359L33.5645 15.8525V7.86328C33.5645 7.51012 33.8509 7.22364 34.2041 7.22363H37.1982C37.5514 7.22363 37.8378 7.51012 37.8379 7.86328V24.0859C37.8377 24.439 37.5513 24.7256 37.1982 24.7256H34.2041C33.851 24.7256 33.5647 24.439 33.5645 24.0859V22.6562C33.4758 22.7991 33.3803 22.9408 33.2773 23.0811C32.8256 23.704 32.1854 24.2121 31.3672 24.6104L31.3682 24.6113C30.5555 25.017 29.5226 25.2128 28.2812 25.2129C27.1523 25.2129 26.1305 24.9828 25.2217 24.5186L25.2197 24.5176C24.3173 24.0455 23.6058 23.2663 23.0811 22.1973L23.0801 22.1943C22.5731 21.1185 22.3271 19.7007 22.3271 17.9561V7.86328C22.3272 7.51012 22.6136 7.22364 22.9668 7.22363H25.9307ZM47.377 24.9629C47.5778 24.9792 47.7818 24.9905 47.9893 24.9961C47.7818 24.9905 47.5777 24.9791 47.377 24.9629ZM65.3896 24.9629C65.5904 24.9792 65.7945 24.9905 66.002 24.9961C65.7945 24.9905 65.5904 24.9791 65.3896 24.9629ZM100.125 24.9629C100.303 24.9792 100.484 24.9905 100.668 24.9961C100.484 24.9905 100.303 24.9792 100.125 24.9629ZM47.0459 24.9307C47.1077 24.9376 47.1699 24.9433 47.2324 24.9492C47.1699 24.9433 47.1077 24.9376 47.0459 24.9307ZM65.0586 24.9307C65.1204 24.9376 65.1826 24.9433 65.2451 24.9492C65.1826 24.9433 65.1204 24.9376 65.0586 24.9307ZM99.832 24.9307C99.8883 24.9378 99.9451 24.9432 100.002 24.9492C99.9451 24.9432 99.8883 24.9378 99.832 24.9307ZM49.3965 24.9473C49.4053 24.9464 49.4141 24.9452 49.4229 24.9443C49.4141 24.9452 49.4053 24.9464 49.3965 24.9473ZM27.1191 24.9082C27.2084 24.9226 27.2986 24.9344 27.3896 24.9453C27.2986 24.9344 27.2084 24.9226 27.1191 24.9082ZM103.812 24.4404C103.366 24.6538 102.865 24.806 102.308 24.8975H102.309C102.866 24.806 103.367 24.6539 103.812 24.4404H103.812ZM99.5537 24.8896C99.6342 24.9027 99.7152 24.915 99.7969 24.9258C99.7152 24.915 99.6342 24.9027 99.5537 24.8896ZM46.7578 24.8945C46.8338 24.9053 46.9103 24.9147 46.9873 24.9238C46.9103 24.9147 46.8338 24.9053 46.7578 24.8945ZM64.7705 24.8945C64.8465 24.9053 64.923 24.9147 65 24.9238C64.923 24.9147 64.8465 24.9053 64.7705 24.8945ZM15.6621 0C16.2176 0.000286578 16.5764 0.586418 16.3242 1.08105L7.63184 18.124C7.5931 18.2008 7.67661 18.2988 7.7627 18.2988H19.8262C20.2369 18.299 20.5703 18.6322 20.5703 19.043V23.9863C20.5703 24.3971 20.2369 24.7302 19.8262 24.7305H12.9082C10.2697 24.7304 8.0444 22.9648 7.34766 20.5508C7.24088 20.1811 6.63998 20.0707 6.46484 20.4131L4.35742 24.5459C4.208 24.8388 3.85849 24.9694 3.55371 24.8457C0.460178 23.5897 -0.893349 19.9575 0.624023 16.9844L9.08691 0.40625C9.21414 0.157077 9.47103 3.98001e-05 9.75098 0H15.6621ZM26.7666 24.8418C26.8527 24.8605 26.9396 24.8772 27.0273 24.8926C26.9396 24.8772 26.8527 24.8606 26.7666 24.8418ZM99.335 24.8506C99.4045 24.864 99.4744 24.8771 99.5449 24.8887C99.4744 24.8771 99.4045 24.8639 99.335 24.8506ZM49.9014 24.8838C49.9206 24.8808 49.9398 24.8781 49.959 24.875C49.9398 24.8781 49.9206 24.8808 49.9014 24.8838ZM46.4551 24.8467C46.5207 24.8581 46.5869 24.8678 46.6533 24.8779C46.5869 24.8678 46.5207 24.8581 46.4551 24.8467ZM64.4678 24.8467C64.5334 24.8581 64.5996 24.8678 64.666 24.8779C64.5996 24.8678 64.5334 24.8581 64.4678 24.8467ZM30.6514 24.6738C30.4416 24.7425 30.2192 24.7997 29.9844 24.8467C30.2193 24.7998 30.4416 24.7424 30.6514 24.6738ZM46.1787 24.7939C46.235 24.8054 46.2917 24.8156 46.3486 24.8262C46.2917 24.8156 46.235 24.8054 46.1787 24.7939ZM64.1914 24.7939C64.2477 24.8054 64.3044 24.8156 64.3613 24.8262C64.3044 24.8156 64.2477 24.8054 64.1914 24.7939ZM99.0664 24.7939C99.1069 24.8033 99.1477 24.8116 99.1885 24.8203C99.1477 24.8116 99.1069 24.8033 99.0664 24.7939ZM26.4297 24.7578C26.5023 24.7779 26.5755 24.7969 26.6494 24.8145C26.5755 24.7969 26.5023 24.7779 26.4297 24.7578ZM98.8027 24.7285C98.8548 24.7426 98.9073 24.7556 98.96 24.7686C98.9073 24.7556 98.8548 24.7425 98.8027 24.7285ZM45.9268 24.7383C45.9589 24.7458 45.9911 24.7535 46.0234 24.7607C45.9911 24.7535 45.9589 24.7458 45.9268 24.7383ZM63.9395 24.7383C63.9716 24.7458 64.0038 24.7535 64.0361 24.7607C64.0038 24.7535 63.9716 24.7458 63.9395 24.7383ZM50.668 24.7314C50.6855 24.7271 50.7032 24.7232 50.7207 24.7188C50.7032 24.7232 50.6855 24.7271 50.668 24.7314ZM85.626 6.73633C86.7544 6.73639 87.766 6.96567 88.6553 7.43066C89.5588 7.90326 90.2611 8.68426 90.7656 9.75488H90.7646C91.2928 10.8122 91.5488 12.2303 91.5488 13.9932V24.0859C91.5488 24.4392 91.2624 24.7256 90.9092 24.7256H87.915C87.5618 24.7256 87.2754 24.4392 87.2754 24.0859V14.3896C87.2754 13.6093 87.2047 12.9135 87.0664 12.3018C86.9325 11.7099 86.6691 11.2674 86.2852 10.957L86.2812 10.9541C85.9284 10.6546 85.3761 10.4863 84.5869 10.4863C83.9171 10.4864 83.2514 10.6767 82.5879 11.0664C81.9365 11.4491 81.392 12.0465 80.959 12.8721L80.958 12.874C80.5325 13.6658 80.3115 14.7252 80.3115 16.0664V24.0859C80.3115 24.4392 80.0251 24.7256 79.6719 24.7256H76.6777C76.3245 24.7256 76.0381 24.4392 76.0381 24.0859V7.86328C76.0382 7.51014 76.3246 7.22363 76.6777 7.22363H79.6719C80.025 7.22363 80.3114 7.51013 80.3115 7.86328V9.02637C80.3114 9.0202 80.3078 9.01774 80.3125 9.02246C80.3201 9.03 80.3388 9.04269 80.3672 9.0498C80.395 9.05669 80.4219 9.0555 80.4404 9.05078C80.4489 9.04859 80.4544 9.04662 80.457 9.04492C80.4591 9.04359 80.4597 9.04233 80.46 9.04199C80.6067 8.83564 80.7708 8.63757 80.9521 8.44824L81.1436 8.26074C81.6032 7.83446 82.1654 7.48489 82.8262 7.20996C83.5925 6.89116 84.5285 6.73633 85.626 6.73633ZM26.0986 24.6562C26.1582 24.6765 26.2179 24.6964 26.2783 24.7148C26.2179 24.6964 26.1582 24.6765 26.0986 24.6562ZM98.582 24.665C98.6226 24.6774 98.6632 24.6895 98.7041 24.7012C98.6632 24.6895 98.6226 24.6774 98.582 24.665ZM45.6445 24.668C45.6741 24.6759 45.7037 24.6838 45.7334 24.6914C45.7037 24.6838 45.6741 24.6759 45.6445 24.668ZM63.6572 24.668C63.6868 24.6759 63.7164 24.6838 63.7461 24.6914C63.7164 24.6838 63.6868 24.6759 63.6572 24.668ZM50.8838 24.6748C50.9216 24.6644 50.9595 24.6545 50.9971 24.6436C50.9595 24.6545 50.9217 24.6644 50.8838 24.6748ZM45.3623 24.5869C45.397 24.5975 45.4318 24.608 45.4668 24.6182C45.4318 24.608 45.397 24.5975 45.3623 24.5869ZM63.375 24.5869C63.4097 24.5975 63.4445 24.608 63.4795 24.6182C63.4445 24.608 63.4097 24.5975 63.375 24.5869ZM98.3398 24.5869C98.3687 24.5969 98.3977 24.6066 98.4268 24.6162C98.3977 24.6066 98.3687 24.5969 98.3398 24.5869ZM25.7246 24.5146C25.8005 24.5463 25.8766 24.5779 25.9541 24.6064C25.8766 24.5779 25.8005 24.5463 25.7246 24.5146ZM51.1309 24.6025C51.1639 24.5923 51.1967 24.5819 51.2295 24.5713C51.1967 24.5819 51.1639 24.5923 51.1309 24.6025ZM45.0146 24.4727C45.0869 24.4983 45.16 24.5222 45.2334 24.5459C45.16 24.5222 45.0869 24.4983 45.0146 24.4727ZM63.0273 24.4727C63.0996 24.4983 63.1727 24.5222 63.2461 24.5459C63.1727 24.5222 63.0996 24.4983 63.0273 24.4727ZM98.0449 24.4775C98.1044 24.5011 98.1643 24.5239 98.2246 24.5459C98.1643 24.5239 98.1044 24.5011 98.0449 24.4775ZM51.3691 24.5254C51.4084 24.5118 51.4474 24.4976 51.4863 24.4834C51.4474 24.4976 51.4084 24.5118 51.3691 24.5254ZM76.4424 24.4404C76.4872 24.4702 76.5373 24.4928 76.5918 24.5039C76.5372 24.4928 76.4872 24.4702 76.4424 24.4404ZM79.7578 24.5039C79.783 24.4988 79.8067 24.4898 79.8301 24.4805C79.8067 24.4898 79.783 24.4988 79.7578 24.5039ZM90.9951 24.5039C91.0203 24.4988 91.044 24.4898 91.0674 24.4805C91.044 24.4898 91.0203 24.4988 90.9951 24.5039ZM106.345 24.4424C106.389 24.4712 106.438 24.493 106.491 24.5039C106.438 24.493 106.389 24.4712 106.345 24.4424ZM109.804 24.4424C109.76 24.471 109.711 24.493 109.658 24.5039C109.711 24.493 109.76 24.471 109.804 24.4424ZM34.0449 24.4805C34.061 24.4869 34.0777 24.4916 34.0947 24.4961C34.0777 24.4916 34.061 24.4869 34.0449 24.4805ZM37.3154 24.4932C37.3286 24.4894 37.3419 24.4864 37.3545 24.4814C37.3419 24.4864 37.3286 24.4894 37.3154 24.4932ZM25.3184 24.3291C25.4227 24.3824 25.5292 24.4316 25.6367 24.4785C25.5293 24.4316 25.4226 24.3824 25.3184 24.3291ZM79.8477 24.4727C79.8657 24.4644 79.8828 24.4549 79.8994 24.4443C79.8828 24.4549 79.8657 24.4644 79.8477 24.4727ZM91.085 24.4727C91.103 24.4644 91.1201 24.4549 91.1367 24.4443C91.1201 24.4549 91.103 24.4644 91.085 24.4727ZM33.9805 24.4473C33.9952 24.4564 34.0105 24.4644 34.0264 24.4717C34.0105 24.4644 33.9952 24.4564 33.9805 24.4473ZM87.6914 24.4473C87.7062 24.4564 87.7214 24.4644 87.7373 24.4717C87.7214 24.4644 87.7062 24.4564 87.6914 24.4473ZM37.3936 24.4629C37.4027 24.4582 37.4112 24.4526 37.4199 24.4473C37.4112 24.4526 37.4027 24.4582 37.3936 24.4629ZM44.8096 24.3965C44.8652 24.4179 44.9212 24.4387 44.9775 24.459C44.9212 24.4387 44.8652 24.4179 44.8096 24.3965ZM62.8223 24.3965C62.8779 24.4179 62.9339 24.4387 62.9902 24.459C62.9339 24.4387 62.8779 24.4179 62.8223 24.3965ZM97.8232 24.3848C97.8814 24.4103 97.94 24.4351 97.999 24.459C97.94 24.4351 97.8814 24.4103 97.8232 24.3848ZM51.6133 24.4355C51.6247 24.4311 51.636 24.4263 51.6475 24.4219C51.636 24.4263 51.6247 24.4311 51.6133 24.4355ZM80.0195 24.3301C79.9911 24.3704 79.9564 24.4052 79.916 24.4336C79.9564 24.4052 79.9911 24.3704 80.0195 24.3301ZM91.2568 24.3301C91.2284 24.3704 91.1937 24.4052 91.1533 24.4336C91.1937 24.4052 91.2284 24.3704 91.2568 24.3301ZM33.8584 24.335C33.8853 24.3721 33.9178 24.4049 33.9551 24.4316C33.9178 24.4048 33.8853 24.3722 33.8584 24.335ZM87.5693 24.335C87.5962 24.3722 87.6288 24.4048 87.666 24.4316C87.6288 24.4048 87.5962 24.3722 87.5693 24.335ZM76.3877 24.3965C76.3996 24.4076 76.4117 24.4181 76.4248 24.4277C76.4117 24.4181 76.3996 24.4076 76.3877 24.3965ZM106.287 24.3965C106.299 24.4076 106.311 24.4181 106.324 24.4277C106.311 24.4181 106.299 24.4076 106.287 24.3965ZM37.4502 24.4268C37.4624 24.4178 37.4742 24.4086 37.4854 24.3984C37.4742 24.4087 37.4624 24.4177 37.4502 24.4268ZM109.827 24.4248C109.839 24.4158 109.85 24.4066 109.861 24.3965C109.85 24.4066 109.839 24.4158 109.827 24.4248ZM109.882 24.376C109.893 24.3636 109.904 24.3506 109.914 24.3369C109.904 24.3506 109.893 24.3636 109.882 24.376ZM37.5088 24.375C37.5208 24.3621 37.5326 24.3492 37.543 24.335C37.5326 24.3493 37.5208 24.3621 37.5088 24.375ZM76.332 24.334C76.3419 24.3478 76.3528 24.3606 76.3643 24.373C76.3528 24.3606 76.3419 24.3478 76.332 24.334ZM106.232 24.335C106.242 24.3483 106.253 24.3609 106.264 24.373C106.253 24.3609 106.242 24.3483 106.232 24.335ZM97.6465 24.3047C97.6815 24.3212 97.7166 24.3375 97.752 24.3535C97.7166 24.3376 97.6815 24.3212 97.6465 24.3047ZM62.6006 24.3066C62.6306 24.3192 62.6602 24.3325 62.6904 24.3447C62.6602 24.3325 62.6306 24.3192 62.6006 24.3066ZM37.5908 24.252C37.581 24.2751 37.5683 24.2965 37.5547 24.3174C37.5833 24.2736 37.6053 24.2249 37.6162 24.1719L37.5908 24.252ZM76.2949 24.2725C76.3019 24.2867 76.3099 24.3002 76.3184 24.3135C76.3099 24.3002 76.3019 24.2867 76.2949 24.2725ZM91.2676 24.3135C91.2782 24.2969 91.2877 24.2798 91.2959 24.2617C91.2877 24.2798 91.2782 24.2969 91.2676 24.3135ZM106.192 24.2676C106.2 24.2835 106.208 24.2987 106.218 24.3135C106.208 24.2987 106.2 24.2835 106.192 24.2676ZM80.0312 24.3115C80.0398 24.2979 80.0477 24.2841 80.0547 24.2695C80.0477 24.2841 80.0398 24.2979 80.0312 24.3115ZM109.937 24.3047C109.942 24.2953 109.946 24.2852 109.951 24.2754C109.946 24.2852 109.942 24.2953 109.937 24.3047ZM33.8203 24.2695C33.8259 24.2811 33.8313 24.2927 33.8379 24.3037C33.8313 24.2927 33.8259 24.2811 33.8203 24.2695ZM87.5322 24.2725C87.5374 24.2831 87.5428 24.2936 87.5488 24.3037C87.5428 24.2936 87.5374 24.2831 87.5322 24.2725ZM32.3271 23.7656C32.0981 23.9486 31.8431 24.1171 31.5625 24.2715L31.835 24.1123C32.0104 24.0031 32.1746 23.8876 32.3271 23.7656ZM62.2725 24.1611C62.3336 24.1901 62.395 24.2186 62.457 24.2461C62.395 24.2186 62.3336 24.1901 62.2725 24.1611ZM106.166 24.1924C106.171 24.2097 106.175 24.2267 106.182 24.2432C106.175 24.2268 106.17 24.2097 106.166 24.1924ZM109.967 24.2432C109.974 24.2261 109.979 24.2085 109.983 24.1904C109.979 24.2085 109.974 24.2261 109.967 24.2432ZM109.989 24.166C109.994 24.14 109.998 24.1134 109.998 24.0859C109.998 24.1134 109.994 24.14 109.989 24.166ZM24.5674 23.8232C24.6608 23.9022 24.7566 23.9771 24.8555 24.0469C24.7566 23.9771 24.6608 23.9023 24.5674 23.8232ZM97.2129 24.0801C97.2402 24.0955 97.2674 24.1109 97.2949 24.126C97.2674 24.1109 97.2402 24.0955 97.2129 24.0801ZM43.4668 23.7236H43.4658H43.4668ZM32.9365 23.1729V23.1738V23.1729ZM23.9189 23.1455H23.918H23.9189ZM42.3613 22.8789H42.3623H42.3613ZM60.374 22.8789H60.375H60.374ZM33.291 22.6895C33.3061 22.6665 33.3202 22.6431 33.335 22.6201C33.3202 22.6431 33.3061 22.6665 33.291 22.6895ZM33.459 22.4199C33.4789 22.386 33.4975 22.3515 33.5166 22.3174C33.4975 22.3515 33.4789 22.386 33.459 22.4199ZM33.5947 22.1709C33.6155 22.1311 33.6366 22.0917 33.6562 22.0518C33.6366 22.0917 33.6155 22.1311 33.5947 22.1709ZM22.6426 19.7549C22.7227 20.3975 22.8498 20.9741 23.0234 21.4844C23.073 21.63 23.1264 21.7704 23.1836 21.9053H23.1846C22.9268 21.2978 22.7457 20.5811 22.6426 19.7549ZM29.2881 21.6768V21.6758V21.6768ZM40.6533 20.6709C40.3861 20.1601 40.169 19.6218 40.002 19.0566C40.0576 19.2452 40.1187 19.4308 40.1855 19.6133C40.2524 19.7957 40.3253 19.975 40.4033 20.1514C40.4812 20.3275 40.5643 20.5008 40.6533 20.6709C40.6991 20.756 40.7459 20.84 40.7939 20.9229C40.842 21.0057 40.8911 21.0874 40.9414 21.168C41.0419 21.329 41.1474 21.4849 41.2568 21.6367C41.038 21.3331 40.8365 21.0113 40.6533 20.6709ZM58.666 20.6709C58.3988 20.1601 58.1817 19.6218 58.0146 19.0566C58.0703 19.2452 58.1314 19.4308 58.1982 19.6133C58.2651 19.7957 58.338 19.975 58.416 20.1514C58.4939 20.3275 58.577 20.5008 58.666 20.6709C58.7118 20.756 58.7586 20.84 58.8066 20.9229C58.8547 21.0057 58.9038 21.0874 58.9541 21.168C59.0546 21.329 59.1601 21.4849 59.2695 21.6367C59.0507 21.3331 58.8492 21.0113 58.666 20.6709ZM101.57 10.6074C100.694 10.6074 99.9451 10.8402 99.3135 11.2988L99.3125 11.2998C98.6997 11.7397 98.2237 12.3638 97.8906 13.1836C97.5757 14.0091 97.417 14.949 97.417 16.0049C97.417 17.0377 97.5759 17.9654 97.8896 18.79L98.0205 19.082C98.3429 19.7454 98.7748 20.277 99.3145 20.6816C99.9454 21.1194 100.694 21.3418 101.57 21.3418C102.575 21.3418 103.383 21.1057 104.01 20.6504L104.013 20.6484C104.668 20.1863 105.151 19.5607 105.463 18.7646C105.778 17.9382 105.938 17.019 105.938 16.0049C105.937 14.9699 105.778 14.0408 105.463 13.2148C105.151 12.3975 104.667 11.7622 104.013 11.3008L104.01 11.2988C103.383 10.8436 102.575 10.6074 101.57 10.6074ZM55.3154 21.2715C55.3859 21.1495 55.4523 21.0257 55.5156 20.9004C55.4523 21.0257 55.3859 21.1495 55.3154 21.2715ZM55.5674 20.793C55.6134 20.6981 55.6582 20.6027 55.7002 20.5059C55.6582 20.6027 55.6134 20.6981 55.5674 20.793ZM93.9658 20.1504V20.1514V20.1504ZM55.7559 20.3711C55.7896 20.2888 55.8217 20.2057 55.8525 20.1221C55.8217 20.2057 55.7896 20.2888 55.7559 20.3711ZM55.916 19.9443C55.941 19.871 55.9645 19.797 55.9873 19.7227C55.9645 19.797 55.941 19.871 55.916 19.9443ZM74.0459 19.6006C74.0553 19.5684 74.0592 19.5363 74.0605 19.5049C74.0592 19.5363 74.0553 19.5684 74.0459 19.6006ZM56.0479 19.5186C56.0677 19.4468 56.0856 19.3744 56.1035 19.3018C56.0856 19.3744 56.0677 19.4468 56.0479 19.5186ZM74.0596 19.4756C74.059 19.457 74.0579 19.4389 74.0547 19.4209C74.0579 19.4389 74.059 19.457 74.0596 19.4756ZM74.0449 19.3828C74.0409 19.3685 74.0369 19.3545 74.0312 19.3408C74.0369 19.3545 74.0409 19.3685 74.0449 19.3828ZM74.0098 19.2969C74.0029 19.2847 73.9954 19.2731 73.9873 19.2617C73.9954 19.2731 74.0029 19.2847 74.0098 19.2969ZM26.4062 18.6348C26.4272 18.8561 26.4547 19.0696 26.4893 19.2754C26.4547 19.0696 26.4272 18.8561 26.4062 18.6348ZM70.0703 19.2588C70.0661 19.2641 70.0626 19.2699 70.0586 19.2754C70.0626 19.2699 70.0661 19.2641 70.0703 19.2588ZM73.9658 19.2324C73.9554 19.2201 73.9435 19.2093 73.9316 19.1982C73.9435 19.2093 73.9554 19.2201 73.9658 19.2324ZM73.9014 19.1719C73.8857 19.1599 73.869 19.1494 73.8516 19.1396C73.869 19.1494 73.8857 19.1599 73.9014 19.1719ZM56.1494 19.1094C56.1664 19.0321 56.1815 18.9542 56.1963 18.876C56.1815 18.9543 56.1664 19.0321 56.1494 19.1094ZM56.2324 18.6807C56.2554 18.5409 56.2758 18.3997 56.292 18.2568C56.2758 18.3998 56.2554 18.5409 56.2324 18.6807ZM56.333 17.7793C56.3346 17.7523 56.3326 17.7259 56.3291 17.7002C56.3326 17.7258 56.3346 17.7523 56.333 17.7793ZM56.3203 17.6582C56.3168 17.644 56.3136 17.6298 56.3086 17.6162C56.3136 17.6298 56.3168 17.644 56.3203 17.6582ZM56.2959 17.5879C56.2899 17.5748 56.2837 17.5621 56.2764 17.5498C56.2837 17.5621 56.2899 17.5748 56.2959 17.5879ZM56.2559 17.5195C56.249 17.5101 56.242 17.501 56.2344 17.4922C56.242 17.501 56.249 17.5101 56.2559 17.5195ZM56.2041 17.46C56.1958 17.4522 56.1867 17.4455 56.1777 17.4385C56.1867 17.4455 56.1958 17.4522 56.2041 17.46ZM56.1484 17.416C56.1311 17.4046 56.1128 17.3945 56.0938 17.3857C56.1128 17.3945 56.131 17.4047 56.1484 17.416ZM73.8506 17.248C73.8725 17.2439 73.8934 17.2368 73.9141 17.2295C73.8934 17.2368 73.8725 17.2439 73.8506 17.248ZM73.9385 17.2197C73.9543 17.213 73.9696 17.2058 73.9844 17.1973C73.9696 17.2058 73.9543 17.213 73.9385 17.2197ZM74.0967 17.1025C74.0683 17.1367 74.0348 17.1658 73.9971 17.1895C74.0348 17.1658 74.0684 17.1367 74.0967 17.1025ZM74.1172 17.0752C74.1231 17.0667 74.1285 17.0578 74.1338 17.0488C74.1285 17.0578 74.1232 17.0667 74.1172 17.0752ZM74.1904 16.8809C74.2074 16.7123 74.2206 16.5456 74.2314 16.3809C74.2206 16.5456 74.2074 16.7123 74.1904 16.8809ZM106.15 16.0049C106.15 16.2523 106.141 16.4944 106.122 16.7314C106.141 16.4945 106.15 16.2522 106.15 16.0049ZM74.2471 16.0664C74.2499 16.0013 74.2521 15.9366 74.2539 15.8721C74.2521 15.9366 74.2499 16.0013 74.2471 16.0664ZM97.2109 15.6064C97.2059 15.7375 97.2041 15.8703 97.2041 16.0049C97.2041 15.8703 97.2059 15.7375 97.2109 15.6064ZM43.5312 15.6143H43.5322H43.5312ZM74.2578 15.6523C74.2588 15.5602 74.2589 15.4688 74.2578 15.3779C74.2589 15.4688 74.2588 15.5602 74.2578 15.6523ZM93.3203 14.7344C93.306 14.8936 93.2969 15.0548 93.2881 15.2178C93.2969 15.0548 93.3059 14.8936 93.3203 14.7344ZM74.2539 15.1631C74.2511 15.0696 74.2472 14.9769 74.2422 14.8848C74.2472 14.9769 74.2511 15.0696 74.2539 15.1631ZM74.2295 14.6758C74.2228 14.5856 74.2149 14.4961 74.2061 14.4072C74.2149 14.4961 74.2228 14.5856 74.2295 14.6758ZM87.4746 13.8096V13.8105V13.8096ZM39.7305 14.1318C39.719 14.2024 39.7093 14.2734 39.6992 14.3447C39.7093 14.2734 39.719 14.2024 39.7305 14.1318ZM74.1865 14.2217C74.1738 14.1138 74.1586 14.0072 74.1426 13.9014C74.1586 14.0072 74.1738 14.1138 74.1865 14.2217ZM52.5146 14.1152C52.5376 14.1242 52.5613 14.1318 52.5859 14.1367C52.5613 14.1318 52.5376 14.1243 52.5146 14.1152ZM55.9414 14.1367C55.9666 14.1315 55.9904 14.1227 56.0137 14.1133C55.9904 14.1227 55.9666 14.1315 55.9414 14.1367ZM70.2412 13.4482C70.2942 13.6678 70.3316 13.8901 70.3535 14.1152C70.3316 13.8901 70.2944 13.6678 70.2412 13.4482ZM56.0361 14.1025C56.0506 14.0956 56.0647 14.0885 56.0781 14.0801C56.0647 14.0885 56.0506 14.0957 56.0361 14.1025ZM52.4443 14.0791C52.4566 14.0867 52.4694 14.0932 52.4824 14.0996C52.4694 14.0932 52.4566 14.0867 52.4443 14.0791ZM56.2002 13.9629C56.1738 14.0019 56.1409 14.0356 56.1025 14.0635C56.1408 14.0355 56.1739 14.0019 56.2002 13.9629ZM52.3828 14.0342C52.3927 14.043 52.4034 14.0507 52.4141 14.0586C52.4034 14.0507 52.3927 14.043 52.3828 14.0342ZM52.3291 13.9775C52.338 13.9885 52.3476 13.9987 52.3574 14.0088C52.3476 13.9987 52.338 13.9885 52.3291 13.9775ZM39.7764 13.874C39.7687 13.9146 39.7611 13.9553 39.7539 13.9961C39.7611 13.9553 39.7687 13.9146 39.7764 13.874ZM52.2803 13.9033C52.2891 13.9197 52.298 13.936 52.3086 13.9512C52.298 13.936 52.2891 13.9197 52.2803 13.9033ZM56.2158 13.9355C56.2236 13.9218 56.2312 13.9082 56.2373 13.8936C56.2312 13.9082 56.2236 13.9218 56.2158 13.9355ZM66.3311 10.6084C65.263 10.6084 64.4019 10.845 63.7334 11.3027C63.0593 11.7644 62.555 12.3986 62.2236 13.2139L62.2246 13.2148C62.1402 13.4361 62.0679 13.6652 62.0059 13.9014H70.1123C70.059 13.5447 69.9653 13.195 69.8281 12.8525L69.8262 12.8477C69.5763 12.176 69.1653 11.6418 68.5908 11.2402L68.5869 11.2373C68.0221 10.8238 67.276 10.6084 66.3311 10.6084ZM52.251 13.8379C52.2568 13.8539 52.2631 13.8696 52.2705 13.8848C52.2631 13.8696 52.2568 13.8539 52.251 13.8379ZM56.2451 13.8721C56.2533 13.8484 56.2611 13.8243 56.2646 13.7988C56.2611 13.8243 56.2534 13.8484 56.2451 13.8721ZM57.8652 13.5049C57.8875 13.4071 57.9105 13.31 57.9355 13.2139C57.8855 13.4063 57.8407 13.602 57.8018 13.8008L57.8652 13.5049ZM74.124 13.7754C74.1 13.6299 74.0733 13.4863 74.043 13.3447C74.0733 13.4863 74.1 13.6299 74.124 13.7754ZM93.4775 13.5908C93.47 13.6313 93.4632 13.6721 93.4561 13.7129C93.4632 13.6721 93.47 13.6313 93.4775 13.5908ZM39.9082 13.2744C39.8923 13.3372 39.877 13.4004 39.8623 13.4639C39.877 13.4004 39.8923 13.3372 39.9082 13.2744ZM69.918 12.5137C69.9564 12.5981 69.9923 12.6846 70.0254 12.7734C70.1109 12.9868 70.1802 13.203 70.2344 13.4219C70.18 13.203 70.1109 12.9868 70.0254 12.7734C69.9924 12.6846 69.9564 12.598 69.918 12.5137ZM93.5908 13.0596C93.5845 13.0859 93.5784 13.1122 93.5723 13.1387C93.5784 13.1122 93.5845 13.0859 93.5908 13.0596ZM73.9346 12.8955C73.8934 12.7431 73.8477 12.594 73.8008 12.4473C73.8477 12.5938 73.8934 12.7432 73.9346 12.8955ZM40.0557 12.7529C40.043 12.793 40.0317 12.8336 40.0195 12.874C40.0317 12.8336 40.043 12.793 40.0557 12.7529ZM93.7402 12.5039C93.7301 12.5378 93.7188 12.5714 93.709 12.6055C93.7188 12.5714 93.7301 12.5378 93.7402 12.5039ZM40.2402 12.2275C40.2232 12.2717 40.2058 12.3158 40.1895 12.3604C40.2058 12.3158 40.2232 12.2717 40.2402 12.2275ZM73.7666 12.3438C73.7275 12.2261 73.6874 12.11 73.6445 11.9961C73.6874 12.11 73.7275 12.2261 73.7666 12.3438ZM105.036 11.9951V11.9961V11.9951ZM73.5957 11.873C73.5578 11.7767 73.5192 11.6815 73.4785 11.5879C73.5192 11.6815 73.5578 11.7767 73.5957 11.873ZM58.666 11.3096C58.7118 11.2245 58.7587 11.1404 58.8066 11.0576C58.7586 11.1404 58.7118 11.2245 58.666 11.3096C58.6214 11.3948 58.5779 11.4806 58.5361 11.5674C58.5779 11.4806 58.6214 11.3948 58.666 11.3096ZM73.4092 11.4346C73.3738 11.3574 73.3372 11.2813 73.2998 11.2061C73.3372 11.2813 73.3738 11.3574 73.4092 11.4346ZM73.2295 11.0654C73.1841 10.9784 73.1369 10.893 73.0889 10.8086C73.1369 10.893 73.1841 10.9784 73.2295 11.0654ZM94.5615 10.5781C94.5369 10.6203 94.5133 10.6632 94.4893 10.7061C94.5133 10.6632 94.5369 10.6203 94.5615 10.5781ZM73.0234 10.6943C72.9693 10.603 72.9128 10.5138 72.8555 10.4258C72.9129 10.5138 72.9693 10.603 73.0234 10.6943ZM94.6895 10.3662C94.6623 10.4097 94.6358 10.4538 94.6094 10.498C94.6358 10.4538 94.6623 10.4097 94.6895 10.3662ZM55.0273 10.3438C55.0067 10.3133 54.986 10.283 54.9648 10.2529C54.986 10.283 55.0067 10.3133 55.0273 10.3438ZM54.7725 9.99121C54.752 9.96477 54.7317 9.93826 54.7109 9.91211C54.7317 9.93826 54.752 9.96477 54.7725 9.99121ZM72.2852 9.66309C72.1973 9.55876 72.1074 9.45761 72.0156 9.35938C72.1074 9.45762 72.1973 9.55876 72.2852 9.66309ZM95.3027 9.51562C95.2632 9.56324 95.2241 9.61138 95.1855 9.66016C95.2241 9.61138 95.2632 9.56324 95.3027 9.51562ZM54.4893 9.64746C54.4712 9.62683 54.4529 9.60637 54.4346 9.58594C54.4529 9.60637 54.4712 9.62683 54.4893 9.64746ZM95.4795 9.31055C95.4336 9.36188 95.3884 9.41401 95.3438 9.4668C95.3884 9.41402 95.4336 9.36187 95.4795 9.31055ZM90.2842 9.31055C90.2505 9.25426 90.2186 9.19768 90.1836 9.14355C90.2186 9.19768 90.2505 9.25426 90.2842 9.31055ZM95.6465 9.12988C95.6007 9.17774 95.5554 9.22618 95.5107 9.27539C95.5554 9.22618 95.6007 9.17774 95.6465 9.12988ZM71.9092 9.25098C71.8485 9.18848 71.7879 9.12632 71.7256 9.06641C71.7879 9.12633 71.8485 9.18847 71.9092 9.25098ZM80.1162 9.1084C80.1187 9.11386 80.1221 9.11881 80.125 9.12402C80.1153 9.10687 80.1068 9.08906 80.1025 9.06934L80.1162 9.1084ZM95.8223 8.95312C95.7771 8.99713 95.7325 9.04168 95.6885 9.08691C95.7325 9.04169 95.7771 8.99712 95.8223 8.95312ZM53.9014 9.0498C53.8882 9.0379 53.8755 9.0255 53.8623 9.01367C53.8755 9.0255 53.8882 9.0379 53.9014 9.0498ZM90.1025 9.02637C90.0563 8.95881 90.0104 8.8921 89.9619 8.82812C90.0104 8.8921 90.0563 8.95882 90.1025 9.02637ZM71.6035 8.95312C71.546 8.90027 71.4886 8.8476 71.4297 8.79688C71.4886 8.84761 71.546 8.90026 71.6035 8.95312ZM53.5957 8.78809C53.5688 8.7662 53.5419 8.74424 53.5146 8.72266C53.5419 8.74424 53.5688 8.7662 53.5957 8.78809ZM43.9541 7.9668C43.8708 8.01208 43.7885 8.05911 43.707 8.10742C43.3813 8.30056 43.0733 8.51215 42.7832 8.74219L43.0049 8.57324C43.229 8.40778 43.4629 8.25218 43.707 8.10742C43.87 8.01081 44.0368 7.92047 44.207 7.83594L43.9541 7.9668ZM61.9668 7.9668C61.8835 8.01208 61.8012 8.05911 61.7197 8.10742C61.394 8.30056 61.086 8.51215 60.7959 8.74219L61.0176 8.57324C61.2417 8.40778 61.4756 8.25218 61.7197 8.10742C61.8827 8.01081 62.0494 7.92047 62.2197 7.83594L61.9668 7.9668ZM71.2812 8.67383C71.2287 8.63098 71.1756 8.58907 71.1221 8.54785C71.1756 8.58908 71.2287 8.63097 71.2812 8.67383ZM96.166 8.63867C96.1927 8.61585 96.2191 8.59275 96.2461 8.57031C96.2191 8.59275 96.1927 8.61585 96.166 8.63867ZM89.7754 8.5957C89.766 8.58485 89.7565 8.57421 89.7471 8.56348C89.7565 8.57421 89.766 8.58485 89.7754 8.5957ZM53.2354 8.51074C53.2111 8.49328 53.1866 8.47623 53.1621 8.45898C53.1866 8.47623 53.2111 8.49328 53.2354 8.51074ZM70.9863 8.44531C70.9252 8.40055 70.8632 8.35716 70.8008 8.31445C70.8632 8.35717 70.9252 8.40054 70.9863 8.44531ZM70.6582 8.21875C70.5898 8.17435 70.5202 8.13186 70.4502 8.08984C70.5202 8.13187 70.5898 8.17434 70.6582 8.21875ZM89.2852 8.11035C89.271 8.09841 89.2565 8.08692 89.2422 8.0752C89.2565 8.08692 89.271 8.09841 89.2852 8.11035ZM97.0879 7.9668C97.0266 8.00421 96.9664 8.04353 96.9062 8.08301C97.0391 7.99584 97.1743 7.91305 97.3125 7.83594L97.0879 7.9668ZM81.8652 7.96191C81.8212 7.99163 81.778 8.02201 81.7354 8.05273C81.778 8.02201 81.8212 7.99164 81.8652 7.96191ZM52.377 7.96777C52.3155 7.93222 52.2539 7.89697 52.1914 7.86328C52.2539 7.89697 52.3155 7.93222 52.377 7.96777ZM82.0625 7.83594C82.0266 7.85787 81.991 7.8798 81.9561 7.90234C81.991 7.87979 82.0266 7.85788 82.0625 7.83594ZM80.0986 7.86328C80.0986 7.8355 80.0949 7.80853 80.0898 7.78223C80.0949 7.80852 80.0986 7.8355 80.0986 7.86328ZM26.3545 7.83594C26.3533 7.81768 26.352 7.79979 26.3486 7.78223C26.352 7.79978 26.3533 7.81769 26.3545 7.83594ZM37.5518 7.625C37.5824 7.67039 37.6049 7.7218 37.6162 7.77734L37.5918 7.69727C37.581 7.67171 37.5671 7.64773 37.5518 7.625ZM26.3408 7.75391C26.3364 7.7372 26.3316 7.72092 26.3252 7.70508C26.3315 7.72092 26.3364 7.7372 26.3408 7.75391ZM80.0752 7.72852C80.0732 7.72263 80.0715 7.71671 80.0693 7.71094C80.0716 7.71671 80.0732 7.72263 80.0752 7.72852ZM104.104 7.68066C104.002 7.62195 103.896 7.56725 103.787 7.51562C103.896 7.56727 104.002 7.62195 104.104 7.68066ZM26.3135 7.67871C26.3061 7.66351 26.2981 7.6489 26.2891 7.63477C26.2981 7.64891 26.3061 7.6635 26.3135 7.67871ZM22.6064 7.63574C22.5989 7.64768 22.5923 7.66016 22.5859 7.67285C22.5923 7.66015 22.5989 7.64768 22.6064 7.63574ZM76.3174 7.63574C76.3098 7.64768 76.3032 7.66015 76.2969 7.67285C76.3032 7.66016 76.3098 7.64767 76.3174 7.63574ZM80.0518 7.67285C80.0454 7.66014 80.0388 7.64769 80.0312 7.63574C80.0388 7.64768 80.0454 7.66014 80.0518 7.67285ZM69.5986 7.65039C69.4728 7.59261 69.3457 7.53892 69.2178 7.48828C69.3457 7.53889 69.4729 7.59265 69.5986 7.65039ZM22.6533 7.5752C22.6425 7.58696 22.6325 7.59937 22.623 7.6123C22.6325 7.59936 22.6425 7.58697 22.6533 7.5752ZM26.2734 7.6123C26.2639 7.59937 26.254 7.58696 26.2432 7.5752C26.254 7.58697 26.264 7.59936 26.2734 7.6123ZM76.3643 7.5752C76.3534 7.58697 76.3434 7.59937 76.334 7.6123C76.3435 7.59938 76.3534 7.58696 76.3643 7.5752ZM80.0146 7.6123C80.0051 7.59936 79.9952 7.58697 79.9844 7.5752C79.9952 7.58696 80.0051 7.59937 80.0146 7.6123ZM33.8887 7.57715C33.8801 7.58657 33.872 7.59628 33.8643 7.60645C33.872 7.59628 33.8801 7.58658 33.8887 7.57715ZM44.9971 7.49609V7.49707V7.49609ZM63.0098 7.49609V7.49707V7.49609ZM98.1904 7.42773C98.0501 7.48104 97.912 7.53836 97.7764 7.60059L98.0156 7.49707C98.0735 7.4732 98.1317 7.45004 98.1904 7.42773ZM88.498 7.5918C88.4166 7.55042 88.3346 7.51002 88.251 7.47266C88.3346 7.51002 88.4166 7.55042 88.498 7.5918ZM51.5742 7.56836C51.5635 7.56382 51.5528 7.55918 51.542 7.55469C51.5528 7.55918 51.5635 7.56382 51.5742 7.56836ZM22.7217 7.51562C22.7063 7.52649 22.6915 7.53802 22.6777 7.55078C22.6915 7.53801 22.7063 7.5265 22.7217 7.51562ZM26.2197 7.55078C26.209 7.54085 26.1973 7.53223 26.1855 7.52344C26.1973 7.53224 26.209 7.54084 26.2197 7.55078ZM33.9492 7.52246C33.9371 7.5315 33.9251 7.54054 33.9141 7.55078C33.9251 7.54053 33.9371 7.53151 33.9492 7.52246ZM76.4326 7.51562C76.4172 7.5265 76.4025 7.53801 76.3887 7.55078C76.4025 7.53803 76.4172 7.52648 76.4326 7.51562ZM79.9609 7.55078C79.9471 7.53801 79.9324 7.5265 79.917 7.51562C79.9324 7.52648 79.9471 7.53803 79.9609 7.55078ZM22.7773 7.48145C22.7615 7.48933 22.7461 7.49808 22.7314 7.50781C22.7461 7.49808 22.7615 7.48933 22.7773 7.48145ZM76.5918 7.44531C76.5374 7.45638 76.4871 7.47817 76.4424 7.50781C76.4871 7.47824 76.5375 7.45637 76.5918 7.44531ZM79.7578 7.44531C79.8107 7.45609 79.8596 7.47751 79.9033 7.50586C79.8595 7.47744 79.8107 7.45609 79.7578 7.44531ZM34.0127 7.4834C33.9994 7.49012 33.9861 7.49684 33.9736 7.50488C33.9861 7.49684 33.9993 7.49013 34.0127 7.4834ZM26.1572 7.50293C26.1485 7.49741 26.1391 7.49316 26.1299 7.48828C26.1391 7.49317 26.1485 7.49741 26.1572 7.50293ZM51.376 7.48828C51.3464 7.47681 51.3169 7.46521 51.2871 7.4541C51.3169 7.46521 51.3464 7.47681 51.376 7.48828ZM103.708 7.48047C103.631 7.44534 103.553 7.41053 103.473 7.37891C103.553 7.41055 103.631 7.44533 103.708 7.48047ZM69.1699 7.4707C69.0661 7.43041 68.9617 7.39206 68.8564 7.35645C68.9617 7.39206 69.0661 7.43041 69.1699 7.4707ZM88.1436 7.42773C88.0728 7.39789 88.002 7.36786 87.9297 7.34082C88.002 7.36786 88.0728 7.39789 88.1436 7.42773ZM83.1914 7.29883L83.1904 7.2998L83.1914 7.29883ZM50.9102 7.3252C50.8802 7.31581 50.8504 7.3059 50.8203 7.29688C50.8504 7.3059 50.8802 7.31582 50.9102 7.3252ZM103.325 7.3252C103.257 7.30061 103.188 7.27704 103.118 7.25488C103.188 7.27705 103.257 7.3006 103.325 7.3252ZM68.7432 7.31934C68.651 7.28975 68.5581 7.26235 68.4648 7.23633C68.5581 7.26236 68.651 7.28975 68.7432 7.31934ZM87.7969 7.29395C87.7365 7.27306 87.6756 7.25335 87.6143 7.23438C87.6756 7.25335 87.7365 7.27306 87.7969 7.29395ZM50.6699 7.25391C50.6439 7.24669 50.6179 7.23938 50.5918 7.23242C50.6179 7.23938 50.6439 7.24669 50.6699 7.25391ZM102.981 7.21387C102.912 7.19379 102.842 7.17402 102.771 7.15625C102.842 7.17404 102.912 7.19377 102.981 7.21387ZM68.3662 7.20898C68.2678 7.18297 68.1689 7.15881 68.0693 7.13672C68.1689 7.15881 68.2678 7.18297 68.3662 7.20898ZM50.4326 7.19141C50.395 7.18224 50.3572 7.17369 50.3193 7.16504C50.3572 7.17368 50.395 7.18224 50.4326 7.19141ZM87.4404 7.18359C87.3845 7.16818 87.3282 7.15353 87.2715 7.13965C87.3282 7.15353 87.3845 7.16818 87.4404 7.18359ZM50.1904 7.13672C50.1502 7.12823 50.1098 7.12022 50.0693 7.1123C50.1098 7.12021 50.1502 7.12824 50.1904 7.13672ZM67.9756 7.11719C67.8827 7.09779 67.7893 7.08046 67.6953 7.06445C67.7893 7.08046 67.8827 7.09779 67.9756 7.11719ZM102.595 7.11523C102.534 7.10188 102.472 7.08985 102.409 7.07812C102.472 7.08986 102.534 7.10187 102.595 7.11523ZM87.126 7.10547C87.0435 7.08742 86.9602 7.07154 86.876 7.05664C86.9602 7.07154 87.0435 7.08741 87.126 7.10547ZM49.9375 7.08691C49.8896 7.07836 49.8413 7.07123 49.793 7.06348C49.8413 7.07122 49.8896 7.07837 49.9375 7.08691ZM49.6748 7.04492C49.6336 7.03891 49.5923 7.03376 49.5508 7.02832C49.5923 7.03376 49.6336 7.03892 49.6748 7.04492ZM102.21 7.04297C102.13 7.03037 102.048 7.01978 101.966 7.00977C102.048 7.0198 102.13 7.03036 102.21 7.04297ZM67.5557 7.04102C67.4573 7.02609 67.3583 7.0132 67.2588 7.00195C67.3583 7.0132 67.4573 7.02609 67.5557 7.04102ZM86.7793 7.03906C86.6907 7.02477 86.6012 7.01281 86.5107 7.00195C86.6012 7.01281 86.6907 7.02477 86.7793 7.03906ZM49.416 7.01074C49.3635 7.00468 49.3108 6.99931 49.2578 6.99414C49.3108 6.9993 49.3635 7.00468 49.416 7.01074ZM67.1738 6.99121C67.0378 6.97732 66.9008 6.96702 66.7627 6.95996C66.9008 6.96702 67.0378 6.97732 67.1738 6.99121ZM109.998 2.07031C109.998 2.04253 109.994 2.01557 109.989 1.98926C109.994 2.01547 109.998 2.04263 109.998 2.07031ZM106.184 1.9043H106.185H106.184ZM109.983 1.96484C109.979 1.94679 109.974 1.92917 109.967 1.91211C109.974 1.92918 109.979 1.94677 109.983 1.96484ZM109.951 1.87988C109.946 1.86887 109.94 1.8581 109.934 1.84766C109.94 1.85811 109.946 1.86886 109.951 1.87988ZM109.914 1.81836C109.904 1.80469 109.893 1.79165 109.882 1.7793C109.893 1.79165 109.904 1.80469 109.914 1.81836ZM109.861 1.75879C109.85 1.74867 109.839 1.73942 109.827 1.73047C109.839 1.73941 109.85 1.74868 109.861 1.75879ZM109.803 1.71191C109.788 1.70227 109.772 1.69428 109.756 1.68652C109.772 1.69427 109.788 1.70228 109.803 1.71191Z" fill="black"/>
</g>
<defs>
<clipPath id="clip0_3379_8486">
<rect width="111" height="26" fill="white"/>
</clipPath>
</defs>
</svg>
