<svg aria-label="Keyloop" class="w-full max-w-[130px] h-auto" width="114" xmlns="http://www.w3.org/2000/svg" viewbox="0 0 581.38 148.56">
    <path fill="currentColor" d="M509.66 105.45c-16.47 0-27.17-12.19-27.17-30.61s10.7-30.61 27.17-30.61 26.98 12.19 26.98 30.61-10.79 30.61-26.98 30.61m3.44-78.99c-12.75 0-23.54 5.68-29.12 14.33V27.95H463.6v120.61h20.38v-38.55c5.3 8.09 15.91 13.21 27.82 13.21 28 0 45.31-20.1 45.31-48.38s-16.38-48.38-44.01-48.38m-104.28 78.52c-20.28 0-25.68-20.75-39.26-20.75s-19.07 20.75-39.17 20.75c-16.1 0-27.72-12.56-27.72-30.15s11.63-30.14 27.72-30.14c20.1 0 25.59 20.75 39.17 20.75s18.98-20.75 39.26-20.75c16 0 27.54 12.56 27.54 30.14s-11.54 30.15-27.54 30.15m1.68-78.53c-26.7 0-33.03 18.51-40.94 18.51s-14.33-18.51-40.93-18.51-46.71 20.56-46.71 48.38 19.07 48.38 46.71 48.38 33.03-18.51 40.93-18.51 14.23 18.51 40.94 18.51 46.61-20.56 46.61-48.38-18.98-48.38-46.61-48.38M255.23 0h20.37v121.73h-20.37V0zM231.6 27.95h21.02l-32.84 89.87-10.52 30.74h-19.51l9.1-26.37-34.52-94.25h20.93l23.17 67.36 23.17-67.36zM123.77 42.28c14.51 0 23.44 9.21 24.47 22.33H98.56c2.61-14.89 11.45-22.33 25.21-22.33m1.86 63.73c-15.44 0-26.05-10.89-27.63-27.26h70.43c.19-1.77.37-4.65.37-7.44 0-23.07-14.79-44.84-45.03-44.84S78.18 48.89 78.18 74.38s17.58 48.85 47.45 48.85c23.07 0 40.28-12.75 43.73-32.38h-20.19c-2.51 9.77-10.79 15.17-23.54 15.17M46.14 72.64l44 49.1H63.23l-38.1-42.79-4.57-5.13v47.92H0V0h20.56v70.32l4.9-4.96L62.4 27.95h27.58L46.14 72.63zm522.45-31.5V27.92h3.46l2.94 5.7h.23l2.9-5.7h3.27v13.22h-2.71v-5.23l.23-4.11h-.19l-3.74 7.05-3.73-7.05h-.19l.23 4.11v5.23h-2.71zm-8.27 0V30.35h-3.74v-2.43h10.46v2.43h-3.69v10.79h-3.04z"></path>
</svg>