<svg width="204" height="32" viewBox="0 0 204 32" fill="none" xmlns="http://www.w3.org/2000/svg">
<path d="M203.061 10.9493C203.371 10.9263 203.623 11.1805 203.623 11.4911V13.7627C203.623 14.044 203.401 14.2738 203.12 14.2964C201.99 14.3877 201.16 14.6212 200.323 15.0252C199.367 15.4868 198.622 16.1817 198.111 16.7707V26.1137C198.111 26.4243 197.86 26.6761 197.549 26.6761H195.206C194.895 26.6761 194.643 26.4243 194.643 26.1137V11.7165C194.643 11.4059 194.895 11.1541 195.206 11.1541H197.549C197.86 11.1541 198.111 11.4059 198.111 11.7165V13.643C198.792 12.7699 199.419 12.2767 200.371 11.7418C201.221 11.2644 202.132 11.0183 203.061 10.9493Z" fill="#242727"/>
<path fill-rule="evenodd" clip-rule="evenodd" d="M184.627 10.7604C186.017 10.7604 187.271 11.1235 188.391 11.8498C189.511 12.5553 190.392 13.5824 191.035 14.9311C191.613 16.1053 191.939 17.4785 192.014 19.0465C192.032 19.4394 191.711 19.7587 191.318 19.7587H180.286C180.34 20.5309 180.545 21.2146 180.895 21.8097C181.31 22.4944 181.859 23.0235 182.543 23.397C183.228 23.7705 183.985 23.9573 184.814 23.9573C185.768 23.9573 186.556 23.7498 187.178 23.3348C187.667 22.9921 188.073 22.5724 188.396 22.0756C188.545 21.8451 188.836 21.7371 189.089 21.8445L191.12 22.7069C191.443 22.8439 191.581 23.2287 191.394 23.5252C191.016 24.1244 190.564 24.6627 190.04 25.14C189.376 25.7625 188.578 26.2397 187.645 26.5717C186.732 26.9037 185.685 27.0697 184.503 27.0697C182.989 27.0697 181.641 26.7274 180.459 26.0426C179.298 25.3371 178.375 24.3723 177.691 23.148C177.028 21.9238 176.696 20.5128 176.696 18.9151C176.696 17.3173 177.038 15.9063 177.722 14.6821C178.407 13.4579 179.34 12.5034 180.522 11.8186C181.724 11.1132 183.093 10.7604 184.627 10.7604ZM184.534 13.7484C183.912 13.7484 183.29 13.8936 182.668 14.1841C182.046 14.4539 181.527 14.8689 181.113 15.4291C180.771 15.8732 180.571 16.4229 180.511 17.0779H188.281C188.227 16.4229 188.045 15.8732 187.738 15.4291C187.365 14.8689 186.888 14.4539 186.307 14.1841C185.747 13.8936 185.156 13.7484 184.534 13.7484Z" fill="#242727"/>
<path d="M168.36 10.7604C169.602 10.7604 170.657 11.0088 171.527 11.5056C172.417 12.0024 173.089 12.7786 173.545 13.8342C174.021 14.8692 174.259 16.225 174.259 17.9016V26.1137C174.259 26.4243 174.007 26.6761 173.696 26.6761H171.353C171.043 26.6761 170.791 26.4243 170.791 26.1137V18.7089C170.791 17.4669 170.641 16.5142 170.351 15.8518C170.082 15.1687 169.685 14.6932 169.167 14.4241C168.67 14.1551 168.08 14.0205 167.397 14.0205C166.238 13.9998 165.334 14.3828 164.692 15.1693C164.051 15.9559 163.723 17.0893 163.723 18.5589V26.1137C163.723 26.4243 163.472 26.6761 163.161 26.6761H160.818C160.507 26.6761 160.255 26.4243 160.255 26.1137V11.7165C160.255 11.4059 160.507 11.1541 160.818 11.1541H162.979C163.272 11.1541 163.516 11.3798 163.539 11.6723L163.668 13.3122C164.081 12.6389 164.59 12.0988 165.193 11.6919C166.083 11.0709 167.139 10.7604 168.36 10.7604Z" fill="#242727"/>
<path d="M151.169 10.7604C152.411 10.7604 153.467 11.0088 154.336 11.5056C155.226 12.0024 155.899 12.7786 156.354 13.8342C156.83 14.8692 157.068 16.225 157.068 17.9016V26.1137C157.068 26.4243 156.817 26.6761 156.506 26.6761H154.163C153.852 26.6761 153.6 26.4243 153.6 26.1137V18.7089C153.6 17.4669 153.45 16.5142 153.161 15.8518C152.892 15.1687 152.494 14.6932 151.977 14.4241C151.48 14.1551 150.89 14.0205 150.207 14.0205C149.048 13.9998 148.144 14.3828 147.502 15.1693C146.86 15.9559 146.533 17.0893 146.533 18.5589V26.1137C146.533 26.4243 146.281 26.6761 145.971 26.6761H143.627C143.317 26.6761 143.065 26.4243 143.065 26.1137V11.7165C143.065 11.4059 143.317 11.1541 143.627 11.1541H145.788C146.082 11.1541 146.326 11.3798 146.349 11.6723L146.478 13.3122C146.891 12.6389 147.399 12.0988 148.003 11.6919C148.893 11.0709 149.948 10.7604 151.169 10.7604Z" fill="#242727"/>
<path fill-rule="evenodd" clip-rule="evenodd" d="M131.55 10.7604C132.914 10.7604 134.084 11.1028 135.059 11.7875C135.528 12.1005 135.945 12.4757 136.309 12.9131L136.407 11.6723C136.43 11.3798 136.674 11.1541 136.967 11.1541H139.128C139.439 11.1541 139.691 11.4059 139.691 11.7165V26.1137C139.691 26.4243 139.439 26.6761 139.128 26.6761H136.967C136.674 26.676 136.43 26.4504 136.407 26.1578L136.309 24.925C135.946 25.3679 135.529 25.7508 135.059 26.0737C134.084 26.7377 132.914 27.0697 131.55 27.0697C130.076 27.0697 128.788 26.7377 127.683 26.0737C126.6 25.389 125.744 24.4345 125.116 23.2103C124.509 21.986 124.206 20.5543 124.206 18.9151C124.206 17.2551 124.509 15.8234 125.116 14.6199C125.744 13.3956 126.6 12.4515 127.683 11.7875C128.788 11.1028 130.076 10.7604 131.55 10.7604ZM132.08 13.9663C131.25 13.9663 130.513 14.1738 129.87 14.5888C129.227 15.0038 128.719 15.5848 128.345 16.3318C127.992 17.0788 127.806 17.9399 127.785 18.9152C127.806 19.8904 127.992 20.7515 128.345 21.4985C128.719 22.2455 129.227 22.8369 129.87 23.2726C130.534 23.6876 131.281 23.8951 132.111 23.8951C132.9 23.8951 133.595 23.6876 134.197 23.2726C134.819 22.8369 135.296 22.2455 135.628 21.4985C135.981 20.7515 136.157 19.8904 136.157 18.9152C136.157 17.9399 135.981 17.0788 135.628 16.3318C135.296 15.5848 134.819 15.0038 134.197 14.5888C133.595 14.1738 132.889 13.9663 132.08 13.9663Z" fill="#242727"/>
<path d="M118.676 26.6761C118.365 26.6761 118.114 26.4243 118.114 26.1137V5.88636C118.114 5.57576 118.365 5.32397 118.676 5.32397H121.019C121.33 5.32397 121.582 5.57577 121.582 5.88636V26.1137C121.582 26.4243 121.33 26.6761 121.019 26.6761H118.676Z" fill="#242727"/>
<path fill-rule="evenodd" clip-rule="evenodd" d="M108.283 10.7604C106.943 10.7604 105.796 11.1028 104.839 11.7875C104.287 12.1622 103.81 12.626 103.407 13.179L103.288 11.6723C103.265 11.3798 103.021 11.1541 102.728 11.1541H100.567C100.256 11.1541 100.005 11.4059 100.005 11.7165V31.4376C100.005 31.7482 100.256 32 100.567 32H102.91C103.221 32 103.473 31.7482 103.473 31.4376V24.7461C103.861 25.2655 104.317 25.7081 104.839 26.0737C105.796 26.7377 106.943 27.0697 108.283 27.0697C109.728 27.0697 110.993 26.7377 112.077 26.0737C113.14 25.389 113.98 24.4345 114.596 23.2103C115.191 21.986 115.489 20.5543 115.489 18.9151C115.489 17.2551 115.191 15.8234 114.596 14.6199C113.98 13.3956 113.14 12.4515 112.077 11.7875C110.993 11.1028 109.728 10.7604 108.283 10.7604ZM107.615 13.9663C108.445 13.9663 109.182 14.1738 109.825 14.5888C110.468 15.0038 110.976 15.5848 111.35 16.3318C111.703 17.0788 111.889 17.9399 111.91 18.9152C111.889 19.8904 111.703 20.7515 111.35 21.4985C110.976 22.2455 110.468 22.8369 109.825 23.2726C109.161 23.6876 108.414 23.8951 107.584 23.8951C106.795 23.8951 106.1 23.6876 105.499 23.2726C104.876 22.8369 104.399 22.2455 104.067 21.4985C103.714 20.7515 103.538 19.8904 103.538 18.9152C103.538 17.9399 103.714 17.0788 104.067 16.3318C104.399 15.5848 104.876 15.0038 105.499 14.5888C106.1 14.1738 106.806 13.9663 107.615 13.9663Z" fill="#242727"/>
<path d="M90.6322 27.0697C89.0357 27.0697 87.6258 26.7274 86.4025 26.0426C85.1792 25.3371 84.2151 24.3723 83.5102 23.148C82.826 21.9238 82.4839 20.5128 82.4839 18.9151C82.4839 17.3173 82.826 15.9064 83.5102 14.6821C84.2151 13.4579 85.1689 12.5034 86.3714 11.8187C87.5947 11.1132 88.9942 10.7604 90.57 10.7604C92.1042 10.7604 93.4934 11.1339 94.7374 11.8809C95.8046 12.5039 96.6353 13.3636 97.2295 14.4601C97.3925 14.7609 97.2383 15.1273 96.919 15.2502L94.7214 16.0961C94.4667 16.1941 94.1828 16.078 94.0342 15.8491C93.7141 15.356 93.285 14.9462 92.747 14.6199C92.0628 14.2049 91.2853 13.9974 90.4145 13.9974C89.5644 13.9974 88.8076 14.2152 88.1441 14.651C87.4807 15.066 86.9623 15.647 86.5891 16.394C86.2159 17.1202 86.0293 17.9606 86.0293 18.9151C86.0293 19.8696 86.2159 20.7203 86.5891 21.4673C86.9831 22.1935 87.5118 22.7745 88.1752 23.2103C88.8594 23.6253 89.6266 23.8328 90.4767 23.8328C91.3475 23.8328 92.125 23.6149 92.8092 23.1791C93.3537 22.8158 93.7866 22.354 94.1079 21.7935C94.248 21.5492 94.5407 21.4227 94.8036 21.5239L96.9875 22.3645C97.3045 22.4865 97.4591 22.8485 97.3025 23.1499C96.7076 24.2941 95.8733 25.2065 94.7996 25.887C93.5763 26.6755 92.1872 27.0697 90.6322 27.0697Z" fill="#242727"/>
<path d="M72.7043 27.0697C71.1482 27.0697 69.7581 26.7274 68.534 26.0426C67.3306 25.3371 66.3866 24.3723 65.7019 23.148C65.0172 21.9238 64.6749 20.5128 64.6749 18.9151C64.6749 17.3173 65.0068 15.9064 65.6708 14.6821C66.3554 13.4579 67.2995 12.5034 68.5029 11.8187C69.7062 11.1132 71.086 10.7604 72.6421 10.7604C74.1982 10.7604 75.5779 11.1132 76.7813 11.8187C77.9846 12.5034 78.9183 13.4579 79.5822 14.6821C80.2669 15.9064 80.6093 17.3173 80.6093 18.9151C80.6093 20.5128 80.2773 21.9238 79.6134 23.148C78.9494 24.3723 78.0158 25.3371 76.8124 26.0426C75.609 26.7274 74.2396 27.0697 72.7043 27.0697ZM72.7043 23.8639C73.555 23.8639 74.3123 23.6564 74.9762 23.2414C75.6401 22.8056 76.1588 22.2247 76.5323 21.4984C76.9058 20.7514 77.0925 19.8903 77.0925 18.9151C77.0925 17.9398 76.8954 17.0891 76.5012 16.3628C76.1277 15.6159 75.609 15.0349 74.9451 14.6199C74.2811 14.1841 73.5135 13.9663 72.6421 13.9663C71.7706 13.9663 71.003 14.1737 70.339 14.5887C69.6751 15.0037 69.1564 15.5847 68.783 16.3317C68.4095 17.0787 68.2228 17.9398 68.2228 18.9151C68.2228 19.8903 68.4095 20.7514 68.783 21.4984C69.1772 22.2247 69.7062 22.8056 70.3702 23.2414C71.0548 23.6564 71.8329 23.8639 72.7043 23.8639Z" fill="#242727"/>
<path fill-rule="evenodd" clip-rule="evenodd" d="M52.0327 5.32397C54.1272 5.32397 55.9777 5.78152 57.5842 6.69661C59.211 7.59137 60.482 8.84199 61.3971 10.4485C62.3325 12.055 62.8002 13.9055 62.8002 16C62.8002 18.0742 62.3325 19.9146 61.3971 21.521C60.482 23.1275 59.211 24.3883 57.5842 25.3034C55.9777 26.2185 54.1272 26.6761 52.0327 26.6761H45.7036C45.3101 26.6761 44.9912 26.3571 44.9912 25.9637V6.03634C44.9912 5.64291 45.3101 5.32397 45.7036 5.32397H52.0327ZM48.5905 23.3205H52.0174C53.0055 23.3205 53.9332 23.139 54.8003 22.776C55.6675 22.3928 56.4237 21.8685 57.069 21.203C57.7143 20.5375 58.2185 19.7611 58.5815 18.8738C58.9445 17.9864 59.1259 17.0285 59.126 16C59.1259 14.9715 58.9445 14.0136 58.5815 13.1263C58.2185 12.239 57.7143 11.4626 57.069 10.7971C56.4237 10.1316 55.6675 9.61731 54.8003 9.25432C53.9332 8.87115 53.0055 8.67957 52.0174 8.67957H48.5905V23.3205Z" fill="#242727"/>
<path fill-rule="evenodd" clip-rule="evenodd" d="M1.45503 9.47786C1.63963 8.9142 2.2245 8.58506 2.80226 8.7197L11.4701 10.7396C12.0814 10.882 12.6769 10.4493 12.7301 9.82399L13.4762 1.04716C13.5265 0.455015 14.0219 0 14.6163 0H19.1648C19.7593 0 20.2548 0.455104 20.305 1.04732L20.9888 9.10365C21.0191 9.46084 20.8073 9.79481 20.4721 9.92194C17.0858 11.206 14.9333 12.1343 12.4084 13.7971C10.7784 14.8705 9.14213 16.0968 7.69973 17.4685C7.43056 17.7245 7.03627 17.8037 6.6935 17.6605L0.703314 15.1579C0.152675 14.9278 -0.128666 14.3133 0.0570426 13.7463L1.45503 9.47786ZM25.0224 31.785C24.5426 32.1297 23.8791 32.0525 23.4913 31.6068L19.1845 26.6575C18.9363 26.3722 18.886 25.9621 19.0832 25.6394C20.189 23.83 22.0546 21.9416 23.8776 20.6079C24.1924 20.3776 24.6324 20.4749 24.8361 20.8074L29.0066 27.6177C29.3196 28.1286 29.1851 28.7945 28.6985 29.1441L25.0224 31.785ZM9.66036 31.7959C10.2208 32.1839 10.9931 31.9978 11.3364 31.409C16.1028 23.232 23.572 17.159 32.9081 15.041C33.5144 14.9034 33.8854 14.2784 33.6918 13.6877L32.3064 9.46087C32.1374 8.94531 31.6286 8.61753 31.091 8.69168C19.5612 10.2821 9.72342 17.0051 4.14099 26.6113C3.81874 27.1658 3.98922 27.8704 4.51663 28.2354L9.66036 31.7959Z" fill="#00A085"/>
</svg>
