<svg width="348" height="160" viewBox="0 0 348 160" fill="none" xmlns="http://www.w3.org/2000/svg">
<path d="M131 46H90V158H64V42H105V0H131V46Z" fill="white"/>
<path d="M31 79L0 42H31V79Z" fill="white"/>
<path d="M167 111H155V158H143V111H131V100H167V111Z" fill="white"/>
<path d="M256 123H257.939L266 100H280L269 127.73L281 158H267L257.75 134H256V158H244V100H256V123Z" fill="white"/>
<path fill-rule="evenodd" clip-rule="evenodd" d="M324 100L336 158H323L321.53 148H310.47L309 158H296L308 100H324ZM312.448 138H319.552L317 118H315L312.448 138Z" fill="white"/>
<path fill-rule="evenodd" clip-rule="evenodd" d="M204.5 99C219 99 223.75 112.033 223.75 128.744C223.75 145.454 219.5 159 204.5 159C189.5 159 185.25 145.454 185.25 128.744C185.25 112.033 190 99 204.5 99ZM204.667 111.812C199.833 111.812 198.5 119.627 198.5 129.256C198.5 138.886 200 145.667 204.5 145.667C209 145.667 210.5 138.886 210.5 129.256C210.5 119.627 209.5 111.812 204.667 111.812Z" fill="white"/>
</svg>
