<svg width="459" height="112" viewBox="0 0 459 112" fill="none" xmlns="http://www.w3.org/2000/svg">
<path d="M9.95284 0.166185C10.9518 0.124787 11.8771 0.69212 12.2946 1.60173L25.5622 30.5217C26.2034 31.6979 26.8004 32.0677 27.155 32.217C27.591 32.4004 28.0143 32.4133 28.7087 32.4133L58.7653 32.464H58.7722L58.8708 32.466H58.8776C60.0364 32.5186 61.009 33.3774 61.198 34.5334L65.8347 62.9338L70.448 88.2433C70.5261 88.6728 70.489 89.1159 70.3405 89.5265L63.1247 109.486C62.786 110.424 61.9168 111.065 60.9226 111.111C59.9286 111.158 59.0042 110.602 58.5788 109.701L44.8317 80.5627C44.8068 80.51 44.7836 80.4562 44.7624 80.4015C44.3425 79.3177 43.4059 78.6838 42.3435 78.6838L12.9323 78.633C11.7351 78.6326 10.711 77.7708 10.5046 76.59L0.907916 21.6301C0.83392 21.2059 0.871817 20.7692 1.01827 20.3644L7.73702 1.79216C8.07764 0.85073 8.95361 0.207854 9.95284 0.166185ZM32.1189 48.0705C31.1391 48.0705 30.0686 48.8151 29.7273 49.7336L25.2917 61.6769C24.9506 62.5956 25.469 63.341 26.4489 63.341H39.1892C40.169 63.3409 41.2397 62.5956 41.5808 61.6769L46.0153 49.7336C46.3562 48.8153 45.8387 48.0708 44.8591 48.0705H32.1189Z" fill="url(#paint0_linear_3118_1250)"/>
<path d="M442.392 78.9081C431.791 78.9081 425.141 72.0604 425.141 61.723C425.141 51.3198 431.791 44.4062 441.733 44.4062C451.412 44.4062 458.062 50.6614 458.062 60.8012V63.2374H432.581V63.6325C432.581 69.295 436.4 73.1139 441.997 73.1139C446.408 73.1139 449.634 70.9411 450.622 67.2538H457.733C456.548 73.8382 450.754 78.9081 442.392 78.9081ZM432.778 57.9699H450.82C450.227 52.9659 446.803 50.1346 441.799 50.1346C437.322 50.1346 433.371 53.0317 432.778 57.9699Z" fill="#072F48"/>
<path d="M401.69 78.5164L389.246 44.8047H396.884L406.168 70.8786L415.32 44.8047H422.826L410.382 78.5164H401.69Z" fill="#072F48"/>
<path d="M376.749 78.5132V44.8015H383.926V78.5132H376.749ZM380.304 39.8632C378 39.8632 376.156 38.0854 376.156 35.7151C376.156 33.3447 378 31.6328 380.304 31.6328C382.675 31.6328 384.453 33.3447 384.453 35.7151C384.453 38.0854 382.675 39.8632 380.304 39.8632Z" fill="#072F48"/>
<path d="M363.426 78.5257C356.974 78.5257 354.274 75.497 354.274 69.3735V51.0691H348.414V44.814H354.274V35.3984H361.385V44.814H370.076V51.0691H361.385V68.6493C361.385 71.283 362.373 72.2706 365.072 72.2706H370.076V78.5257H363.426Z" fill="#072F48"/>
<path d="M325.963 78.9081C318.589 78.9081 313.453 75.2867 313.453 69.0316C313.453 62.1181 318.457 58.2333 327.873 58.2333H336.367V56.1922C336.367 52.3074 333.667 50.1346 328.992 50.1346C324.646 50.1346 321.947 52.0441 321.42 55.0728H314.441C315.165 48.4885 320.828 44.4062 329.321 44.4062C338.276 44.4062 343.412 48.6861 343.412 56.6531V70.1509C343.412 71.8629 344.07 72.3238 345.585 72.3238H347.033V78.513H343.28C338.869 78.513 337.091 76.4719 337.091 73.3773V73.2456C334.984 76.5377 331.494 78.9081 325.963 78.9081ZM326.951 73.3773C332.877 73.3773 336.367 69.8876 336.367 64.686V63.5008H327.544C323.132 63.5008 320.696 65.1469 320.696 68.5049C320.696 71.5995 323.066 73.3773 326.951 73.3773Z" fill="#072F48"/>
<path d="M275.262 78.513V44.8013H281.517L282.241 49.2128C284.282 46.6449 287.574 44.4062 293.039 44.4062C300.546 44.4062 306.603 48.4885 306.603 59.7477V78.513H299.492V60.2745C299.492 53.8877 296.727 50.5297 291.459 50.5297C285.467 50.5297 282.439 54.2827 282.439 60.7354V78.513H275.262Z" fill="#072F48"/>
<path d="M250.664 78.5164V44.8047H256.919L257.643 49.8746C259.355 47.1092 261.989 44.8047 267.652 44.8047H269.298V51.4549H266.203C259.816 51.4549 257.841 56.3931 257.841 61.5947V78.5164H250.664Z" fill="#072F48"/>
<path d="M227.727 78.9081C217.127 78.9081 210.477 72.0604 210.477 61.723C210.477 51.3198 217.127 44.4062 227.069 44.4062C236.748 44.4062 243.398 50.6614 243.398 60.8012V63.2374H217.917V63.6325C217.917 69.295 221.736 73.1139 227.332 73.1139C231.744 73.1139 234.97 70.9411 235.958 67.2538H243.069C241.884 73.8382 236.09 78.9081 227.727 78.9081ZM218.114 57.9699H236.155C235.563 52.9659 232.139 50.1346 227.135 50.1346C222.658 50.1346 218.707 53.0317 218.114 57.9699Z" fill="#072F48"/>
<path d="M170.617 91.6817V44.8013H176.872L177.597 49.8712C179.835 46.9083 183.325 44.4062 188.658 44.4062C197.876 44.4062 204.658 50.8589 204.658 61.6572C204.658 72.0604 197.876 78.9081 188.724 78.9081C183.457 78.9081 179.835 76.8011 177.794 73.7065V91.6817H170.617ZM187.473 72.8505C193.399 72.8505 197.35 68.3732 197.35 61.6572C197.35 55.007 193.399 50.4638 187.473 50.4638C181.613 50.4638 177.662 55.007 177.662 61.5913C177.662 68.3073 181.613 72.8505 187.473 72.8505Z" fill="#072F48"/>
<path d="M133.84 91.6851V85.4299H138.844C141.609 85.4299 142.268 84.7715 143.255 82.0061L144.506 78.6481L131.535 44.8047H139.173L148.457 70.4177L157.675 44.8047H165.247L149.971 83.8497C147.864 89.3147 146.416 91.6851 141.477 91.6851H133.84Z" fill="#072F48"/>
<path d="M89.3516 78.5121V32.4219H96.9235V51.7798H118.323V32.4219H125.895V78.5121H118.323V58.4958H96.9235V78.5121H89.3516Z" fill="#072F48"/>
<defs>
<linearGradient id="paint0_linear_3118_1250" x1="9.61202" y1="0.164073" x2="61.2761" y2="111.114" gradientUnits="userSpaceOnUse">
<stop stop-color="#072F48"/>
<stop offset="1" stop-color="#5BEFEF"/>
</linearGradient>
</defs>
</svg>
