<svg width="120px" height="35px" viewbox="0 0 120 35" version="1.1" xmlns="http://www.w3.org/2000/svg" xmlns:xlink="http://www.w3.org/1999/xlink" role="image" aria-label="Unit8 - logo">
                        <path d="M102.297872,0.170212766 C107.404255,0.170212766 111.489362,4.25531915 111.489362,9.36170213 C111.489362,12.5106383 110.042553,15.2340426 107.659574,16.8510638 C110.12766,18.5531915 111.829787,21.3617021 111.829787,24.6808511 C111.829787,29.9574468 107.574468,34.212766 102.297872,34.212766 C97.0212766,34.212766 92.7659574,29.9574468 92.7659574,24.6808511 C92.7659574,21.4468085 94.3829787,18.5531915 96.9361702,16.8510638 C94.6382979,15.2340426 93.1914894,12.5957447 93.1914894,9.36170213 C93.106383,4.25531915 97.1914894,0.170212766 102.297872,0.170212766 Z M102.297872,31.0638298 C105.87234,31.0638298 108.595745,28 108.595745,24.5957447 C108.595745,21.1914894 105.787234,18.1276596 102.297872,18.1276596 C98.7234043,18.1276596 96,21.1914894 96,24.5957447 C96,28 98.7234043,31.0638298 102.297872,31.0638298 Z M102.297872,3.14893617 C98.893617,3.14893617 96.2553191,6.04255319 96.2553191,9.36170213 C96.2553191,12.6808511 98.8085106,15.5744681 102.297872,15.5744681 C105.702128,15.5744681 108.340426,12.7659574 108.340426,9.36170213 C108.340426,6.04255319 105.702128,3.14893617 102.297872,3.14893617 Z" id="Shape"></path>
                        <g transform="translate(68.085106, 2.553191)" id="Shape">
                            <polygon points="12.6808511 8.85106383 12.6808511 0.595744681 7.06382979 0.595744681 7.06382979 8.85106383 0.595744681 8.85106383 0.595744681 14.212766 21.106383 14.212766 21.106383 8.85106383"></polygon>
                            <path d="M12.6808511,25.6170213 L12.6808511,15.9148936 L7.06382979,15.9148936 L7.06382979,26.4680851 C7.06382979,28.9361702 9.10638298,30.9787234 11.5744681,30.9787234 L21.106383,30.9787234 L21.106383,25.6170213 L12.6808511,25.6170213 Z"></path>
                        </g>
                        <g transform="translate(51.063830, 0.000000)">
                            <path d="M7.82978723,7.40425532 C8.25531915,7.74468085 8.68085106,8.08510638 9.19148936,8.34042553 C9.70212766,8.59574468 10.212766,8.68085106 10.8085106,8.68085106 C11.4042553,8.68085106 12,8.5106383 12.5957447,8.25531915 C13.106383,8 13.4468085,7.74468085 13.8723404,7.40425532 C14.2978723,7.06382979 14.5531915,6.55319149 14.8085106,6.04255319 C15.0638298,5.53191489 15.1489362,4.93617021 15.1489362,4.34042553 C15.1489362,3.74468085 15.0638298,3.14893617 14.8085106,2.63829787 C14.5531915,2.12765957 14.2978723,1.70212766 13.8723404,1.27659574 C13.5319149,0.936170213 13.106383,0.680851064 12.5957447,0.425531915 C12.0851064,0.170212766 11.4893617,0 10.893617,0 C10.2978723,0 9.70212766,0.085106383 9.27659574,0.340425532 C8.76595745,0.595744681 8.34042553,0.85106383 7.91489362,1.27659574 C7.4893617,1.61702128 7.23404255,2.12765957 6.9787234,2.63829787 C6.72340426,3.14893617 6.63829787,3.74468085 6.63829787,4.34042553 C6.63829787,4.93617021 6.72340426,5.53191489 6.9787234,6.04255319 C7.14893617,6.63829787 7.4893617,7.06382979 7.82978723,7.40425532 Z" id="Shape"></path>
                            <rect id="Rectangle-path" x="0.595744681" y="28.1702128" width="19.5744681" height="5.36170213"></rect>
                            <polygon id="Shape" points="8.08510638 26.4680851 13.7021277 26.4680851 13.7021277 11.4042553 1.19148936 11.4042553 1.19148936 16.7659574 8.08510638 16.7659574"></polygon>
                        </g>
                        <g transform="translate(26.382979, 10.212766)">
                            <rect id="Rectangle-path" x="0.680851064" y="1.19148936" width="5.61702128" height="22.212766"></rect>
                            <path d="M20.6808511,5.36170213 C20.2553191,4.25531915 19.7446809,3.31914894 18.9787234,2.63829787 C18.2978723,1.95744681 17.4468085,1.36170213 16.5106383,1.0212766 C15.5744681,0.680851064 14.5531915,0.510638298 13.5319149,0.510638298 C12,0.510638298 10.7234043,0.85106383 9.53191489,1.53191489 C8.93617021,1.87234043 8.42553191,2.38297872 8,2.89361702 L8,6.80851064 C8.76595745,6.04255319 9.87234043,5.61702128 11.2340426,5.61702128 C12.6808511,5.61702128 13.787234,6.04255319 14.5531915,6.9787234 C15.3191489,7.91489362 15.6595745,9.10638298 15.6595745,10.7234043 L15.6595745,23.3191489 L21.2765957,23.3191489 L21.2765957,9.27659574 C21.2765957,7.82978723 21.106383,6.46808511 20.6808511,5.36170213 Z" id="Shape"></path>
                        </g>
                        <g transform="translate(0.000000, 2.553191)" id="Shape">
                            <path d="M7.74468085,24.5106383 C6.89361702,23.4893617 6.46808511,22.0425532 6.46808511,20.1702128 L6.46808511,0.595744681 L0.595744681,0.595744681 L0.595744681,20.1702128 C0.595744681,23.7446809 1.53191489,26.5531915 3.40425532,28.5957447 C5.10638298,30.4680851 7.57446809,31.4042553 10.8085106,31.5744681 L10.8085106,25.9574468 C9.53191489,25.8723404 8.42553191,25.3617021 7.74468085,24.5106383 Z"></path>
                            <path d="M17.1914894,0.595744681 L17.1914894,20.1702128 C17.1914894,22.0425532 16.7659574,23.4893617 15.9148936,24.5106383 C15.2340426,25.3617021 14.212766,25.8723404 12.8510638,25.9574468 L12.8510638,31.5744681 C16.0851064,31.4042553 18.5531915,30.3829787 20.2553191,28.5957447 C22.1276596,26.5531915 23.0638298,23.7446809 23.0638298,20.1702128 L23.0638298,0.595744681 L17.1914894,0.595744681 Z"></path>
                        </g>
                        <g id="Group" transform="translate(113.191489, 29.787234)">
                            <polygon points="1.36170213 3.40425532 1.36170213 0.680851064 0.425531915 0.680851064 0.425531915 0.170212766 2.9787234 0.170212766 2.9787234 0.680851064 2.04255319 0.680851064 2.04255319 3.40425532"></polygon>
                            <polygon points="6.12765957 3.40425532 6.12765957 0.936170213 5.10638298 3.40425532 4.85106383 3.40425532 3.82978723 0.936170213 3.82978723 3.40425532 3.40425532 3.40425532 3.40425532 0.170212766 4.17021277 0.170212766 5.0212766 2.38297872 5.87234043 0.170212766 6.63829787 0.170212766 6.63829787 3.40425532"></polygon>
                        </g>
                    </svg>