<svg width="1896" height="418" viewBox="0 0 1896 418" fill="none" xmlns="http://www.w3.org/2000/svg">
<path fill-rule="evenodd" clip-rule="evenodd" d="M1575.63 293.712L1483.73 293.758L1689.6 0.000244141L1895.99 293.712H1803.97L1689.75 130.66L1575.63 293.712Z" fill="#1A1818"></path>
<path fill-rule="evenodd" clip-rule="evenodd" d="M1662.06 417.259L1586.48 308.973L1665.3 309.086L1689.76 344.107L1714.3 309.086L1793.32 308.951L1717.44 417.337L1662.06 417.259Z" fill="#1A1818"></path>
<path fill-rule="evenodd" clip-rule="evenodd" d="M186.358 242.773L44.4071 222.772C44.4071 222.772 39.2419 222.126 36.1011 221.445C15.4757 216.972 0.00616627 198.257 0.00616627 176.301C0.00616627 151 20.5469 130.46 45.8472 130.46C71.1474 130.46 232.214 130.47 232.214 130.47V171.466L51.6407 171.367C51.5217 171.358 51.4015 171.354 51.279 171.354C48.4166 171.354 46.0935 173.678 46.0935 176.54C46.0935 179.23 48.1465 181.445 50.7696 181.701L193.98 201.799L197.422 202.295C219.903 205.227 237.247 224.514 237.247 247.79C237.247 273.09 216.706 293.631 191.406 293.631C166.106 293.631 187.475 293.625 187.475 293.625L0.0477169 293.626V253.127L185.685 253.129L185.686 253.123C185.786 253.129 185.886 253.132 185.987 253.132C188.85 253.132 191.174 250.808 191.174 247.946C191.174 245.208 189.047 242.963 186.358 242.773Z" fill="#1A1818"></path>
<path fill-rule="evenodd" clip-rule="evenodd" d="M387.251 171.39H379.084L289.093 171.388L289.041 130.487L531.512 130.472L531.493 171.33L433.405 171.33V293.63L387.251 293.626V171.39Z" fill="#1A1818"></path>
<path fill-rule="evenodd" clip-rule="evenodd" d="M621.435 258.271L596.689 293.632L546.759 293.607L660.953 130.474L702.462 130.471L816.722 293.612L766.119 293.628L741.423 258.282L621.435 258.271ZM713.056 217.806L681.405 172.661L649.778 217.809L713.056 217.806Z" fill="#1A1818"></path>
<path fill-rule="evenodd" clip-rule="evenodd" d="M1019.84 171.42C1007.07 171.42 909.857 171.372 909.857 171.372L909.863 217.825L1042.78 217.86L1095.95 293.627L1045.2 293.612C1045.2 293.612 1020.37 258.282 1020.39 258.282C1020.37 258.282 909.845 258.283 909.845 258.283L909.927 293.63L863.853 293.605L863.749 130.463C863.749 130.463 990.067 130.512 1025.33 130.512C1060.59 130.512 1089.22 159.141 1089.22 194.402V217.871H1042.98V194.562C1042.98 181.79 1032.61 171.42 1019.84 171.42Z" fill="#1A1818"></path>
<path fill-rule="evenodd" clip-rule="evenodd" d="M1205.17 254.889L1205.12 293.603L1159.04 293.63L1159.06 130.482L1205.05 130.508L1205.14 204.981L1311.25 130.466L1382.58 130.507L1311.71 180.154L1391.12 293.618L1340.53 293.598L1277.72 203.944L1205.17 254.889Z" fill="#1A1818"></path>
</svg>
