<svg id="Layer_1" data-name="Layer 1" xmlns="http://www.w3.org/2000/svg" viewBox="0 0 886.91 262.1"><defs><style>.cls-1{fill:#ffa100;}</style></defs><title>Oriola-Vector_Orange_RGB_SVG</title><path class="cls-1" d="M285.41,319.69c-26.39-25-55.64-68.13-80.43-75-12.61-3.51-26.48.59-40,6.79,23.9,12.4,50.06,23,60.95,34.15,23.46,24,2.67,71.65,39.21,59.76,11.2-3.64,17.22-13.15,20.25-25.68m1.35-179.09c-8.49,35.2-31.41,82-25,106.8,3.34,12.93,13.92,22.82,26.06,31.3-1.15-26.86-5-54.81-.76-69.8,9.17-32.21,61-38.22,32.4-63.76-8.83-7.88-20.19-8.28-32.7-4.54M130.39,228.83c34.89-10.25,87-13.9,105.33-31.8,9.37-9.14,12.74-23.15,14.09-37.9-22.69,14.38-44.94,31.56-60,35.37-32.62,8.2-63.7-33.42-71.62,4C115.72,210,121,220,130.39,228.83m-32.59,33c-4-14.29,5.74-23.05,21.83-29.34-9.26-9.91-13.93-21-10.92-37.53,7-38.46,48.11-23.45,103.26-37.33a263.72,263.72,0,0,0,38.68-13.41c.87-28.42-.69-54.34,23.77-48.07,14.35,3.74,17.08,16.52,14.54,33.46,13.1-2.91,25-1.33,37.73,9.44,30,25.28-3.66,53.21-19.16,107.68a259.47,259.47,0,0,0-7.65,39.87c23.4,14.42,45.81,25.81,30.43,44.71-10.51,10.68-23.15,6.48-36.81-4.48-4,12.87-11.3,22.39-27.14,28-37,13.2-44.48-29.72-84.13-70.3a258.81,258.81,0,0,0-30.61-26.33c-25.22,13.46-47,27.85-53.82,3.6" transform="translate(-96.89 -95.16)"/><path class="cls-1" d="M586.68,208.38v123h19.73s0-110.89-.06-112.55c9.49-3.67,19.58-6.4,29.85-6.4a84.67,84.67,0,0,1,9.95.65l5.44-16.3a83,83,0,0,0-11.94-.85c-18.41,0-36.14,5.86-53,12.48M484.44,147.91c-52.88,0-85.86,36.05-85.86,93.42,0,56.59,33.86,92.88,85.86,92.88S570,297.91,570,241.33c0-57.37-32.68-93.42-85.57-93.42m0,169c-47.24,0-64.09-38.79-64.09-75.61,0-47.6,23.91-76.14,64.09-76.14s63.8,28.54,63.8,76.14c0,36.82-16.56,75.61-63.8,75.61m178,14.41h19.75V198.78H662.48ZM763.34,195.9c-40.42,0-68.56,28.41-68.56,69.16s28.14,69.15,68.56,69.15,68.55-28.4,68.55-69.15-28.16-69.16-68.55-69.16m0,122.35c-29,0-46.79-21-46.79-53.19s17.82-53.18,46.79-53.18,46.79,21,46.79,53.18-17.83,53.19-46.79,53.19m80.47,13.09H863.5V150.89H843.76ZM934.29,195.9c-14.66,0-31,4.11-44.39,9.64l6.32,14.74c10.62-4.25,24.72-8.4,36.33-8.4,16.75,0,31.51,4.69,31.51,21.36,0,8-5,12.57-13.2,15.83-9.6,3.83-20.29,5.26-30.35,7.38-22.43,4.69-45.85,13.43-45.85,40.18,0,28.47,30,37.58,57,37.58,18,0,28.55-1.76,40.94-6.66,9.57-3.77,11.18-9.73,11.18-21V237.15c0-29.26-19.21-41.25-49.52-41.25m29.77,109.59c0,4.71-.87,7.17-5.11,8.83-7.24,2.84-13.92,3.93-25.54,3.93-19.45,0-37-5-37-22.67,0-11.19,7.67-17.25,18.08-21.17,10.58-4,21.87-5.17,32.74-8.05,6.47-1.64,11.69-3.1,16.81-6.51Z" transform="translate(-96.89 -95.16)"/></svg>