<?xml version="1.0" encoding="UTF-8" standalone="no"?>
<svg
   xmlns:dc="http://purl.org/dc/elements/1.1/"
   xmlns:cc="http://creativecommons.org/ns#"
   xmlns:rdf="http://www.w3.org/1999/02/22-rdf-syntax-ns#"
   xmlns:svg="http://www.w3.org/2000/svg"
   xmlns="http://www.w3.org/2000/svg"
   height="60.89156"
   width="204.57594"
   id="svg113"
   version="1.1"
   viewBox="0 0 204.57595 60.891558">
  <metadata
     id="metadata117">
    <rdf:RDF>
      <cc:Work
         rdf:about="">
        <dc:format>image/svg+xml</dc:format>
        <dc:type
           rdf:resource="http://purl.org/dc/dcmitype/StillImage" />
        <dc:title>Oriola_logo_CMYK</dc:title>
      </cc:Work>
    </rdf:RDF>
  </metadata>
  <defs
     id="defs105">
    <style
       id="style103">.a{fill:#f8951f;}.b{fill:#97857b;fill-rule:evenodd;}</style>
  </defs>
  <title
     id="title107">Oriola_logo_CMYK</title>
  <path
     style="fill:#f8951f"
     id="path109"
     d="m 43.475949,52.117869 c -6.09,-5.79 -12.83,-15.81 -18.55,-17.41 -2.91,-0.81 -6.11,0.14 -9.22,1.58 5.51,2.88 11.55,5.34 14.06,7.92 5.41,5.57 0.62,16.63 9,13.87 2.58,-0.85 4,-3.05 4.67,-6 m 0.31,-41.56 c -2,8.17 -7.24,19 -5.77,24.79 0.77,3 3.21,5.29 6,7.26 -0.26,-6.23 -1.16,-12.72 -0.18,-16.2 2.11,-7.48 14.07,-8.87 7.47,-14.8 -1.97,-1.7899998 -4.59,-1.8799998 -7.48,-1.02 z m -36.0199997,20.49 c 7.9999997,-2.38 20.0599997,-3.22 24.2999997,-7.38 2.16,-2.12 2.94,-5.37 3.25,-8.79 -5.28,3.35 -10.38,7.34 -13.86,8.22 -7.52,1.95 -14.6899997,-7.75 -16.5199997,0.95 -0.56,2.65 0.66,5 2.83,7 z m -7.51999995,7.67 c -0.92,-3.32 1.32999995,-5.35 4.99999995,-6.81 a 9.27,9.27 0 0 1 -2.52,-8.71 c 1.62,-8.93 11.0999997,-5.44 23.8199997,-8.67 a 60.18,60.18 0 0 0 8.92,-3.11 c 0.2,-6.5899998 -0.16,-12.6099998 5.48,-11.15999982 3.31,0.87000002 3.94,3.83000002 3.35,7.77000002 a 9.22,9.22 0 0 1 8.74,2.1999998 c 6.91,5.87 -0.84,12.35 -4.42,25 a 60.35,60.35 0 0 0 -1.76,9.25 c 5.4,3.35 10.56,6 7,10.38 -2.43,2.48 -5.34,1.5 -8.49,-1 a 9.24,9.24 0 0 1 -6.26,6.51 c -8.53,3.06 -10.26,-6.9 -19.4,-16.32 a 60,60 0 0 0 -7.06,-6.11 c -5.7999997,3.11 -10.8299997,6.41 -12.39999965,0.78 z"
     class="a" />
  <path
     style="fill:#97857b;fill-rule:evenodd"
     id="path111"
     d="m 112.99595,26.277869 v 28.54 h 4.55 c 0,0 0,-25.73 0,-26.12 a 19.13,19.13 0 0 1 6.88,-1.49 18.91,18.91 0 0 1 2.29,0.15 l 1.26,-3.78 a 19,19 0 0 0 -2.75,-0.2 c -4.29,0.01 -8.38,1.37 -12.23,2.9 z m -23.580001,-14 c -12.2,0 -19.8,8.37 -19.8,21.68 0,13.13 7.81,21.56 19.8,21.56 11.990001,0 19.740001,-8.43 19.740001,-21.56 -0.04,-13.34 -7.58,-21.71 -19.770001,-21.71 z m 0,39.23 c -10.9,0 -14.78,-9 -14.78,-17.55 0,-11 5.52,-17.67 14.78,-17.67 9.26,0 14.720001,6.62 14.720001,17.67 -0.04,8.52 -3.86,17.52 -14.750001,17.52 z m 103.720001,-28.12 a 28.11,28.11 0 0 0 -10.24,2.24 l 1.46,3.38 a 24.6,24.6 0 0 1 8.38,-1.95 c 3.87,0 7.27,1.09 7.27,5 0,1.85 -1.16,2.92 -3,3.67 a 42.27,42.27 0 0 1 -7,1.71 c -5.17,1.09 -10.57,3.12 -10.57,9.32 0,6.61 6.92,8.72 13.15,8.72 a 23,23 0 0 0 9.41,-1.54 c 2.21,-0.88 2.58,-2.26 2.58,-4.88 v -16.05 c -0.02,-6.84 -4.44,-9.62 -11.44,-9.62 z m 6.86,25.43 c 0,1.09 -0.2,1.66 -1.18,2 a 14.71,14.71 0 0 1 -5.89,0.91 c -4.49,0 -8.53,-1.16 -8.53,-5.26 0,-2.6 1.77,-4 4.17,-4.91 2.4,-0.91 5,-1.2 7.55,-1.87 a 11.71,11.71 0 0 0 3.88,-1.46 z m -27.74,6 h 4.54 v -41.88 h -4.55 z m -18.55,-31.43 c -9.32,0 -15.81,6.59 -15.81,16.05 0,9.46 6.49,16 15.81,16 9.32,0 15.81,-6.59 15.81,-16 0,-9.41 -6.52,-16.05 -15.81,-16.05 z m 0,28.39 c -6.68,0 -10.79,-4.88 -10.79,-12.34 0,-7.46 4.08,-12.34 10.79,-12.34 6.71,0 10.8,4.91 10.8,12.34 0,7.43 -4.12,12.34 -10.8,12.34 z m -23.26,3 h 4.55 v -30.77 h -4.55 z"
     class="b" />
</svg>
