<?xml version="1.0" encoding="utf-8"?>
<!-- Generator: Adobe Illustrator 23.0.3, SVG Export Plug-In . SVG Version: 6.00 Build 0)  -->
<svg version="1.1" id="Layer_1" xmlns="http://www.w3.org/2000/svg" xmlns:xlink="http://www.w3.org/1999/xlink" x="0px" y="0px"
	 viewBox="0 0 204.1 130.4" style="enable-background:new 0 0 204.1 130.4;" xml:space="preserve">
<style type="text/css">
	.st0{fill:#F58220;}
	.st1{fill:#20419A;}
	.st2{fill:#FFFFFF;}
	.st3{fill:#44477A;}
	.st4{fill:none;}
</style>
<g>
	<g>
		<g>
			<rect x="23.3" y="72.8" class="st0" width="152" height="2.9"/>
			<polygon class="st1" points="150.6,23.3 34.4,23.3 23.3,64.7 139.5,64.7 			"/>
			<polygon class="st0" points="180.8,23.3 150.6,23.3 139.5,64.7 169.7,64.7 			"/>
			<path class="st2" d="M167.6,32.6h-0.9h-1.8h-1h-1c-0.6,0-1,0.1-1.5,0.4c-0.5,0.3-2.1,1.3-3.9,2.1c-1.5,0.7-2.7,1.3-3.3,1.5
				c-0.7,0.2-1.1,0.5-1.3,1.4l-0.7,2.6c-0.2,0.8-0.1,1.4,0.8,1.4c0.9,0,2.6-0.7,3.2-0.9c1.1-0.5,2.4-1.2,2.6-1.2
				c0.2,0,0.1,0.2,0.1,0.5l-3.8,14.1c-0.1,0.5,0.2,1,0.7,1h5.7c0.5,0,1.1-0.4,1.3-1l5.6-21C168.4,33,168.1,32.6,167.6,32.6z"/>
			<path class="st2" d="M65.2,46.5l3.7-13.9h4.7l-3.7,13.9C69,50.2,70.6,52,74.7,52s6.5-1.8,7.4-5.5l3.8-13.9h4.6l-3.7,13.9
				c-1.4,6.1-5.7,9.2-12.9,9.2S63.8,52.6,65.2,46.5"/>
			<polygon class="st2" points="112.7,32.6 111.7,36.3 104.6,36.3 99.5,55.5 94.9,55.5 100,36.3 92.7,36.3 93.7,32.6 			"/>
			<path class="st2" d="M123.4,52c5,0,8.4-2.7,9.6-8c1.2-5.2-0.9-7.9-5.9-7.9c-5.2,0-8.6,2.6-9.8,7.9C116,49.3,118.2,52,123.4,52
				 M112.7,44.1c1.8-7.8,6.9-11.7,15.3-11.7c8.2,0,11.4,3.9,9.6,11.7c-1.8,7.7-6.8,11.6-15.1,11.6C114.6,55.7,111.3,51.8,112.7,44.1
				"/>
			<polygon class="st2" points="62.6,55.5 56.5,32.6 56.5,32.6 51.8,32.6 51.8,32.6 51.8,32.6 51.8,32.6 35.8,55.5 40.5,55.5 
				53.1,37.4 55.3,45.6 49.9,45.6 47.3,49.3 56.3,49.3 58,55.5 			"/>
			<g>
				<path class="st3" d="M35.8,95.3c0-7,5.2-11.7,11.7-11.7c4,0,6.8,1.8,8.8,4.2L54,89.3c-1.4-1.8-3.8-3.1-6.6-3.1
					c-5,0-8.7,3.8-8.7,9.2c0,5.4,3.8,9.2,8.7,9.2c2.7,0,5-1.3,6.1-2.4v-4.6h-7.8V95h10.6v8.2c-2.1,2.3-5.2,3.9-8.9,3.9
					C41,107.1,35.8,102.4,35.8,95.3z"/>
				<path class="st3" d="M79.2,106.7l-5.8-9h-4.5v9h-2.8V84h9.1c4.1,0,7.1,2.7,7.1,6.8c0,4.1-2.8,6.3-5.9,6.6l6.1,9.2L79.2,106.7
					L79.2,106.7z M79.4,90.8c0-2.5-1.8-4.3-4.5-4.3H69v8.7h5.9C77.6,95.2,79.4,93.4,79.4,90.8z"/>
				<path class="st3" d="M91,95.3c0-6.7,4.5-11.7,11.3-11.7c6.7,0,11.3,5,11.3,11.7S109,107,102.3,107C95.5,107.1,91,102,91,95.3z
					 M110.6,95.3c0-5.3-3.3-9.2-8.3-9.2c-5.1,0-8.3,3.9-8.3,9.2c0,5.3,3.2,9.2,8.3,9.2C107.3,104.6,110.6,100.6,110.6,95.3z"/>
				<path class="st3" d="M123.1,97.9V84h2.8v13.8c0,4.1,2.2,6.8,6.4,6.8s6.4-2.6,6.4-6.8V84h2.8v13.8c0,5.6-3.1,9.2-9.2,9.2
					S123.1,103.4,123.1,97.9z"/>
				<path class="st3" d="M152.1,106.7V84h9.1c4.6,0,7.1,3.1,7.1,6.8c0,3.7-2.6,6.8-7.1,6.8h-6.3v9L152.1,106.7L152.1,106.7z
					 M165.4,90.8c0-2.5-1.8-4.3-4.5-4.3H155v8.6h5.9C163.5,95.1,165.4,93.4,165.4,90.8z"/>
			</g>
		</g>
	</g>
	<rect class="st4" width="204.1" height="130.4"/>
</g>
</svg>
