<svg fill="none" xmlns="http://www.w3.org/2000/svg" viewbox="0 0 202 35"><path d="M15.5297 34.4069c-.6358 0-1.2715-.1939-1.8902-.5788L1.90493 27.1426C.622 26.4755-.05368 25.3209.00333 23.8868V10.5186c-.05701-1.434.61866-2.58864 1.9016-3.25576L13.6395.57732c1.2373-.76976 2.5431-.76976 3.7804 0l11.7346 6.68552c1.2829.66712 1.9586 1.82176 1.9016 3.25576v13.3682c.057 1.4341-.6187 2.5887-1.9016 3.2558l-11.7346 6.6855c-.6187.3849-1.2544.5788-1.8902.5788Zm0-32.24159c-.2452 0-.4904.08553-.7584.25659l-.0427.02565L2.91132 9.17869c-.55879.28509-.77831.65571-.7498 1.27151v13.5107c-.02851.6159.18816.9865.7498 1.2716l.04277.0228 11.81441 6.734c.5388.3392.9807.3421 1.5196 0l.0427-.0257 11.8144-6.7311c.5588-.2851.7755-.6557.7498-1.2716V10.4502c.0285-.61865-.1881-.98642-.7498-1.27151l-.0427-.02281-11.8144-6.73113c-.2709-.17106-.5161-.25659-.7613-.25659l.0029-.00285Z" fill="#fff"></path><path d="M22.224 25.8224H8.83871c-.55879 0-1.00924-.4533-1.00924-1.0092V11.2825c0-.3792.21382-.727.55023-.8981l2.9479-1.50813c.4961-.25373 1.1033-.05702 1.3599.43905.2538.49607.057 1.10328-.439 1.35988l-2.3977 1.2259v11.9028h11.3668V11.8783l-2.5545-1.4197c-.4875-.2709-.6642-.88669-.3934-1.37421.2708-.48751.8867-.66427 1.3742-.39343l3.0733 1.70774c.3193.1796.5189.516.5189.8838v13.5307c0 .5588-.4533 1.0092-1.0093 1.0092" fill="#fff"></path><path d="M17.1635 7.63905c0-.90091-.7298-1.63075-1.6307-1.63075s-1.6336.72984-1.6336 1.63075c0 .51888.2452.97503.6215 1.27153v8.25922c0 .5588.4533 1.0093 1.0092 1.0093.556 0 1.0093-.4533 1.0093-1.0093V8.91058c.3763-.29935.6215-.75551.6215-1.27153M194.856 11.4198c-1.087 0-1.993.0912-2.72.2765-.727.1825-1.312.4733-1.751.8639-.439.3905-.755.8952-.946 1.511-.191.6158-.288 1.3542-.288 2.218v7.7661c0 .3506.185.5274.55.5274h2.349c.351 0 .528-.1768.528-.5274v-7.1189c0-.4961.04-.9152.119-1.2573.08-.3449.22-.6158.42-.8154.199-.1995.467-.3421.804-.4305.336-.0883.758-.1311 1.271-.1311h6.378c.288 0 .43-.1454.43-.4305v-2.0128c0-.2879-.142-.4305-.43-.4305h-6.712l-.002-.0085Zm-19.92 10.5229c-.496 0-.844-.0998-1.044-.2994-.199-.1995-.299-.516-.299-.9465v-.5046c0-.3849.1-.6757.299-.8753.2-.1995.548-.2993 1.044-.2993h8.772v2.1097c0 .3051-.051.516-.156.6358-.106.1197-.286.1796-.539.1796h-8.077Zm-3.86-10.5229c-.288 0-.431.1454-.431.4305v2.0127c0 .288.146.4305.431.4305h10.021c.527 0 .958.04 1.294.1198.337.0798.599.2053.793.3706.191.1682.328.3877.407.6586.08.2708.12.5987.12.9836v.4561h-9.756c-.704 0-1.291.0684-1.762.2024-.47.1369-.852.3393-1.137.6101-.288.2709-.491.6045-.61.995-.12.3906-.18.8354-.18 1.3314v1.149c0 .5901.06 1.1033.18 1.5338.119.4305.325.784.61 1.0549.288.2708.667.4761 1.137.6129.471.1369 1.058.2024 1.762.2024h11.41c.35 0 .638-.0285.864-.0826.222-.0571.402-.1568.538-.2994.137-.1425.231-.3393.288-.5873.057-.248.083-.5645.083-.9465v-6.3776c0-.8639-.097-1.6023-.288-2.2181-.191-.6158-.507-1.1176-.946-1.511-.439-.3906-1.027-.6785-1.762-.8638-.736-.1825-1.64-.2766-2.709-.2766h-10.354l-.003.0086Zm-5.993-3.62075c-.368 0-.55.17676-.55.52742v9.56503c0 .6386-.049 1.1717-.146 1.5937-.097.4247-.262.7583-.501 1.0063-.24.2481-.565.4248-.973.5275-.407.1026-.923.1568-1.545.1568h-9.228c-.368 0-.551.1767-.551.5274v2.3492c0 .3507.183.5274.551.5274h9.348c1.214 0 2.249-.1112 3.105-.3364.855-.2224 1.551-.5873 2.087-1.0919.536-.5018.923-1.1575 1.163-1.9643.239-.8068.359-1.7847.359-2.9365V8.32647c0-.35066-.177-.52742-.527-.52742h-2.592Zm-27.614 3.62075c-1.087 0-1.993.0912-2.72.2765-.727.1825-1.312.4733-1.751.8639-.439.3905-.755.8952-.946 1.511-.191.6158-.288 1.3542-.288 2.218v7.7661c0 .3506.185.5274.55.5274h2.349c.351 0 .528-.1768.528-.5274v-6.9507c0-.4961.04-.9152.119-1.2573.08-.3421.22-.6158.419-.8154.2-.1995.468-.3421.804-.4304.337-.0884.759-.1312 1.272-.1312h6.378c.51 0 .926.0428 1.245.1312.32.0883.571.2309.756.4304.182.1996.308.4733.371.8154.062.345.097.7641.097 1.2573v6.9507c0 .3506.176.5274.527.5274h2.349c.351 0 .528-.1768.528-.5274v-7.7661c0-.8638-.097-1.6022-.288-2.218-.191-.6158-.508-1.1176-.947-1.511-.439-.3906-1.026-.6786-1.762-.8639-.735-.1824-1.639-.2765-2.708-.2765h-6.882Zm-21.189 4.7953c0-.7669.18-1.3143.539-1.6422.359-.3278 1.058-.4903 2.098-.4903h6.016c.559 0 .944.1055 1.152.3107.208.2081.31.5588.31 1.0549v1.0064c0 .2708-.136.4077-.407.4077h-9.708v-.6472Zm2.301-4.7953c-1.086 0-1.993.0912-2.72.2765-.727.1825-1.311.4733-1.75.8639-.439.3905-.756.8952-.947 1.511-.191.6158-.288 1.3542-.288 2.218v3.4525c0 .8639.097 1.6023.288 2.2181.191.6158.508 1.1176.947 1.511.439.3906 1.023.6757 1.75.8524.727.1768 1.634.2623 2.72.2623h10.332c.288 0 .43-.1454.43-.4305v-2.0127c0-.288-.142-.4305-.43-.4305h-9.996c-1.037 0-1.739-.1682-2.098-.5047-.359-.3364-.539-.8781-.539-1.6307v-.5759h12.105c.465 0 .807-.0998 1.032-.2994.223-.1995.337-.5559.337-1.0662V15.357c0-.7185-.063-1.3314-.191-1.8332-.128-.5046-.348-.9095-.659-1.2231-.311-.3107-.735-.536-1.271-.67-.536-.1368-1.212-.2052-2.024-.2052h-7.025l-.003-.0057ZM98.8294 21.7032c-.5132 0-.9351-.0428-1.2715-.1311-.3364-.0884-.6044-.231-.804-.4305-.1996-.1996-.3393-.4676-.4191-.804-.0798-.3364-.1197-.7584-.1197-1.2715v-2.1326c0-.496.0399-.9151.1197-1.2572.0798-.345.2195-.6158.4191-.8154.1996-.1996.4676-.3421.804-.4305.3364-.0884.7583-.1312 1.2715-.1312h8.6786v4.7697c0 .5132-.04.9351-.12 1.2715-.08.3365-.22.6045-.419.804-.2.1996-.468.345-.804.4305-.336.0884-.767.1312-1.294.1312h-6.0416v-.0029Zm-.3364-10.2834c-1.0862 0-1.9928.0912-2.7198.2765-.727.1825-1.3115.4733-1.7505.8639-.4391.3905-.7555.8952-.9465 1.511-.1911.6158-.288 1.3542-.288 2.218v3.4525c0 .8639.0969 1.6023.288 2.2181.191.6158.5074 1.1176.9465 1.511.439.3906 1.0235.6757 1.7505.8524.727.1768 1.6336.2623 2.7198.2623h6.711c1.069 0 1.973-.0883 2.709-.2623.735-.1767 1.322-.459 1.761-.8524.44-.3906.756-.8952.947-1.511.191-.6158.288-1.3542.288-2.2181V7.13192c0-.35067-.177-.52743-.527-.52743h-2.35c-.35 0-.527.17676-.527.52743v4.29068h-9.012v-.0028Zm-8.4132 0c-.2708 0-.4647.1112-.5759.3364l-5.6335 9.7788c-.1112 0-.2024-.0371-.2766-.1083-.0712-.0713-.171-.2196-.2993-.4419l-5.3228-9.2286c-.1111-.2224-.305-.3364-.5759-.3364H74.639c-.1768 0-.2908.0598-.3479.1796-.057.1197-.0456.2594.0343.4191l6.4716 11.1701c.1911.3364.3963.5844.6102.7441.2166.1596.5245.2565.9237.2879l-1.2944 2.2779c-.2081.3678-.6158.5503-1.223.5503h-1.4141c-.288 0-.4305.1425-.4305.4305v1.9643c0 .2879.1425.4305.4305.4305h1.6792c1.0378 0 1.8503-.1312 2.4319-.3963.5844-.2623 1.0349-.6757 1.3542-1.2345l9.2058-16.2277c.0798-.1596.0912-.2993.0342-.4191-.0571-.1197-.1711-.1796-.3479-.1796h-2.6856l.0086.0029Zm-29.8439 4.7953c0-.7669.1796-1.3143.5388-1.6422.3592-.3278 1.0577-.4903 2.0983-.4903h6.0156c.5587 0 .9436.1055 1.1518.3107.2081.2081.3107.5588.3107 1.0549v1.0064c0 .2708-.1368.4077-.4077.4077h-9.7075v-.6472Zm2.3007-4.7953c-1.0862 0-1.9928.0912-2.7198.2765-.727.1825-1.3115.4733-1.7505.8639-.4391.3905-.7555.8952-.9465 1.511-.191.6158-.288 1.3542-.288 2.218v3.4525c0 .8639.097 1.6023.288 2.2181.191.6158.5074 1.1176.9465 1.511.439.3906 1.0235.6757 1.7505.8524.727.1768 1.6336.2623 2.7198.2623h10.3319c.288 0 .4305-.1454.4305-.4305v-2.0127c0-.288-.1425-.4305-.4305-.4305H62.873c-1.0377 0-1.7391-.1682-2.0983-.5047-.3592-.3364-.5388-.8781-.5388-1.6307v-.5759h12.1052c.4647 0 .8068-.0998 1.032-.2994.2224-.1995.3364-.5559.3364-1.0662V15.357c0-.7185-.0627-1.3314-.191-1.8332-.1283-.5046-.3478-.9095-.6585-1.2231-.3108-.3107-.7356-.536-1.2716-.67-.536-.1368-1.2116-.2052-2.0242-.2052h-7.0247l-.0029-.0057ZM39.4523 7.79905c-.3677 0-.5502.17676-.5502.52742v9.92423c0 1.1489.1226 2.1297.3706 2.9365.2481.8068.6386 1.4625 1.1746 1.9643.536.5046 1.2259.8667 2.0727 1.0919.8467.2252 1.8788.3364 3.0933.3364h9.8529c.3507 0 .5274-.1767.5274-.5274v-2.3492c0-.3507-.1767-.5274-.5274-.5274h-9.7075c-.6244 0-1.1376-.0513-1.5453-.1568-.4076-.1027-.7298-.2794-.9721-.5275-.2395-.248-.4106-.5816-.5161-1.0063-.1054-.422-.1568-.9551-.1568-1.5937V8.32647c0-.35066-.1767-.52742-.5274-.52742h-2.5887Z" fill="#fff"></path></svg>