<?xml version="1.0" encoding="UTF-8"?>
<svg xmlns="http://www.w3.org/2000/svg" width="180" height="42.36" viewBox="0 0 180 42.36">
  <g id="Artwork_2" data-name="Artwork 2" transform="translate(90 21.18)">
    <g id="Group_3" data-name="Group 3" transform="translate(-90 -21.18)">
      <path id="Icon" d="M4.708,14.123H0A14.12,14.12,0,0,1,14.12,0h2.352a2.353,2.353,0,0,1,2.352,2.352V14.12H9.412A4.708,4.708,0,0,1,14.12,9.412V4.7A9.431,9.431,0,0,0,4.708,14.123Zm23.529,0h4.708a4.708,4.708,0,0,0-4.708-4.708V4.708a9.424,9.424,0,0,1,9.412,9.412h4.708A14.12,14.12,0,0,0,28.237,0H25.884a2.353,2.353,0,0,0-2.352,2.352V23.529H28.24ZM4.708,28.24V23.532h14.12V18.824H2.352A2.353,2.353,0,0,0,0,21.177v7.06a14.12,14.12,0,0,0,14.12,14.12V37.649A9.413,9.413,0,0,1,4.708,28.24Zm28.237-9.412v4.708h4.708v4.708a9.411,9.411,0,0,1-9.412,9.412H23.532V32.948H28.24a4.708,4.708,0,0,0,4.708-4.708H9.412a4.708,4.708,0,0,0,4.708,4.708h4.708v7.06A2.353,2.353,0,0,0,21.18,42.36h7.06A14.12,14.12,0,0,0,42.36,28.24V21.18a2.353,2.353,0,0,0-2.352-2.352Z" transform="translate(0 0)" fill="#022e5e"></path>
      <g id="Group_2" data-name="Group 2" transform="translate(54.609 7.141)">
        <g id="Group_1" data-name="Group 1">
          <path id="Artifact" d="M189.768,22.64V50.014h-4.613v-9.79h-9.4V36.444h9.4v-9.77h-2.193a10.5,10.5,0,0,0-10.5,10.5h0V50.017H167.85V37.352a14.708,14.708,0,0,1,14.709-14.709Zm4.77,9.246a5.53,5.53,0,0,0-1.48,4.1V50.017h4.421V36.174A2.022,2.022,0,0,1,198,34.713a1.911,1.911,0,0,1,1.441-.54h3.93V30.4h-4.737A5.545,5.545,0,0,0,194.538,31.886Zm18.8-6.4h-4.392v4.932h-3.384V34.18h3.384V44.448a5.6,5.6,0,0,0,1.48,4.086,5.426,5.426,0,0,0,4.086,1.5h4.883V46.253h-4.106a1.9,1.9,0,0,1-1.432-.556,1.969,1.969,0,0,1-.537-1.441V34.183h6.113V30.422h-6.11Zm9.36,24.531h4.415V30.409h-4.421Zm2.248-28.035a2.775,2.775,0,0,0-2.043.846,2.827,2.827,0,1,0,4.848,2,2.782,2.782,0,0,0-.817-2,2.68,2.68,0,0,0-1.991-.846Zm10.365,1.445a5.53,5.53,0,0,0-1.48,4.086V30.4H230.4v3.771h3.423V50.017h4.421V34.183h5.58V30.412h-5.576V27.722a1.972,1.972,0,0,1,.54-1.464,1.929,1.929,0,0,1,1.432-.537h4.421V21.95h-5.232a5.552,5.552,0,0,0-4.106,1.48Zm25.956,9.884a5.711,5.711,0,0,1,.787,2.98v7.727a5.838,5.838,0,0,1-.817,3.019,6.092,6.092,0,0,1-2.17,2.173,5.939,5.939,0,0,1-3.094.817h-6.152a5.4,5.4,0,0,1-2.86-.787,5.9,5.9,0,0,1-2.056-2.115,5.794,5.794,0,0,1-.771-2.941,5.933,5.933,0,0,1,.771-3.1,5.164,5.164,0,0,1,2.056-1.962,6.155,6.155,0,0,1,2.86-.673H257.7V36.1a1.814,1.814,0,0,0-.576-1.386,2.006,2.006,0,0,0-1.432-.537h-9.682V30.422h10.112a5.817,5.817,0,0,1,3.019.778,5.986,5.986,0,0,1,2.115,2.115Zm-3.556,8.095h-6.845a2.247,2.247,0,0,0-1.711.713,2.346,2.346,0,0,0-.673,1.672,2.461,2.461,0,0,0,.309,1.191,2.431,2.431,0,0,0,.846.924,2.156,2.156,0,0,0,1.194.345h4.724a2.132,2.132,0,0,0,1.539-.6,2.014,2.014,0,0,0,.612-1.519Zm11.69-9.692a10.065,10.065,0,0,0-3.767,3.52,9.638,9.638,0,0,0,0,9.959,10.007,10.007,0,0,0,3.767,3.517,11.089,11.089,0,0,0,5.423,1.308H277.2V46.253h-2.453a6.2,6.2,0,0,1-3.149-.787,5.6,5.6,0,0,1-2.138-2.173,6.579,6.579,0,0,1,0-6.172,5.662,5.662,0,0,1,2.138-2.154,6.139,6.139,0,0,1,3.133-.787h2.453V30.409h-2.375a11.089,11.089,0,0,0-5.423,1.308Zm23.844,2.45V30.409h-6.12V25.486h-4.386v4.922h-3.384V34.18h3.384V44.448a5.586,5.586,0,0,0,1.48,4.086,5.438,5.438,0,0,0,4.086,1.5h4.883V46.256H289.08a1.887,1.887,0,0,1-1.432-.556,1.99,1.99,0,0,1-.54-1.441V34.183Z" transform="translate(-167.85 -21.95)" fill="#022e5e"></path>
        </g>
      </g>
    </g>
  </g>
</svg>
