<svg width="100%" height="100%" viewbox="0 0 155 32" fill="none" xmlns="http://www.w3.org/2000/svg">
<path d="M104.401 8.04297C108.671 8.04297 111.634 9.78567 111.634 13.1416C111.634 14.5332 110.893 15.6234 109.979 16.0576H106.668C106.757 15.362 106.84 14.7053 106.84 13.9258C106.84 11.6162 106.099 9.70117 103.661 9.70117C100.349 9.70167 98.4337 13.4479 98.4336 18.2842C98.4337 23.9893 101.046 27.6911 105.448 27.6914L105.443 27.6855C108.188 27.6855 110.104 26.595 111.545 24.4629L112.285 24.8975C110.933 29.6453 107.709 32 103.267 32C97.4273 31.9998 93.1172 27.6412 93.1172 20.8057C93.1174 13.5314 97.5161 8.0434 104.401 8.04297ZM124.477 8.03223C130.444 8.03223 133.362 11.9073 133.362 17.1387L133.367 17.1436V18.1455H119.166C118.993 24.2454 122.128 27.8582 126.397 27.8584C129.359 27.8583 131.318 26.5944 132.888 24.3291L133.584 24.7197C132.454 29.033 129.27 31.9941 124.26 31.9941C117.942 31.9939 113.716 27.335 113.716 20.623C113.716 13.1759 118.509 8.03262 124.477 8.03223ZM146.043 8.03223C152.01 8.0324 154.927 11.9074 154.927 17.1387L154.934 17.1436V18.1455H140.731C140.559 24.2454 143.693 27.8582 147.963 27.8584C150.925 27.8583 152.885 26.5945 154.453 24.3291L155.149 24.7197C154.018 29.0331 150.835 31.9941 145.825 31.9941C139.507 31.9938 135.281 27.3349 135.281 20.623C135.281 13.1758 140.075 8.03247 146.043 8.03223ZM20.4062 3.66602L4.24121 31.5928H0L18.2881 0L20.4062 3.66602ZM25.8838 13.1553L11.0752 31.5928H6.36719L23.9131 9.74512L25.8838 13.1553ZM36.5352 31.5928H21.6611L34.6191 28.2783L36.5352 31.5928ZM31.2627 22.4648L19.1699 31.5898H13.0762L29.4131 19.2617L31.2627 22.4648ZM71.4619 28.4258C71.9405 29.6001 72.8539 29.8624 74.0332 30.04V31.5645H60.7012V30.04C63.2726 29.9512 64.3583 29.5167 64.3584 28.125C64.3583 27.6463 64.2304 27.0782 63.9688 26.4268L61.9648 21.5059V21.501H50.2461L48.375 26.3779C48.1137 27.0291 47.9854 27.5966 47.9854 28.0752C47.9854 29.467 49.0771 29.9463 51.7324 30.0352V31.5596H42.7529V30.0352C43.9722 29.8624 44.8463 29.6005 45.3252 28.4209L54.8223 4.03516L53.4697 0.767578H60.2666L71.4619 28.4258ZM83.9219 14.4932C86.0147 9.74557 87.3193 8.04706 89.8906 8.04688C90.8033 8.04697 91.4601 8.35404 91.8057 8.78809V13.4912H90.9766C88.2767 13.4912 86.1391 13.6249 83.918 15.8457V27.8682L83.9219 27.8633C83.9219 29.6498 84.9252 29.9118 87.625 30.1289V31.5645H75.166V30.1289C77.2142 29.9956 77.9101 29.7386 77.9102 28.2139V12.7949L75.2939 11.2705V10.4414L83.0928 8.04688H84.0947L83.9219 14.4932ZM50.9424 19.626H61.2246L55.9971 6.5127L50.9424 19.626ZM124.047 9.65137C121.219 9.65198 119.605 12.5292 119.255 16.5361H127.967C127.967 12.4399 126.875 9.65137 124.047 9.65137ZM145.613 9.65137C142.785 9.65165 141.171 12.5289 140.82 16.5361H149.532C149.532 12.44 148.442 9.65149 145.613 9.65137Z" fill="var(--teal--100)"></path>
</svg>