<svg width="157" height="44" fill="none" xmlns="http://www.w3.org/2000/svg"><path fill-rule="evenodd" clip-rule="evenodd" d="M134.817 19.744l-2.481-1.432a1.668 1.668 0 0 1-.738-2.028l3.654-10.027a66.641 66.641 0 0 0 7.551 11.873 65.572 65.572 0 0 1-7.986 1.614zm13.083 7.552l-11.524-6.652a66.595 66.595 0 0 0 12.835-3.39 65.615 65.615 0 0 1-1.311 10.041zm8.393-13.784l-.002 18.627-7.371-4.255a66.659 66.659 0 0 0 1.439-16.996 65.545 65.545 0 0 1 5.934 2.624zm-6.265-11.544l4.879.86a1.667 1.667 0 0 1 1.387 1.653v7.78a66.676 66.676 0 0 0-11.635-4.432 65.497 65.497 0 0 1 5.369-5.86zM138.996.026l9.674 1.703a66.681 66.681 0 0 0-8.682 10.576 65.537 65.537 0 0 1-4.202-7.515l1.342-3.685a1.667 1.667 0 0 1 1.868-1.079zM113.602 43.62h13.961v-3.588h-9.953v-3.85h8.643v-3.589h-8.643v-3.72h7.401a2.42 2.42 0 0 0 2.214-1.374l1.093-2.213h-14.716V43.62zm-25.59 0h4.034V25.286h-4.034V43.62zm-19.303 0h4.033v-5.605l12.337-12.73h-4.95L72.742 33.3v-8.014H68.71V43.62zm7.36-6.501l4.698 6.501h4.626l-6.627-8.972-2.697 2.47zM39.113 43.62h4.034V29.005h3.126c.962 0 1.787-.512 2.213-1.375l1.159-2.344H35.987c-.963 0-1.787.512-2.214 1.375l-1.158 2.344h6.498V43.62zM0 43.62h4.034v-7.098h8.748v-3.667H4.034v-3.902h7.487a2.42 2.42 0 0 0 2.213-1.375l1.132-2.292H0V43.62zm100.899 0h4.034V29.005h3.126c.962 0 1.787-.512 2.213-1.375l1.158-2.344H97.773c-.963 0-1.787.512-2.213 1.375L94.4 29.005h6.498V43.62zm-72.87-9.167c0-4.364-.936-6.002-4.335-6.002-3.4 0-4.336 1.638-4.336 6.002 0 4.363.936 6.001 4.336 6.001 3.4 0 4.336-1.638 4.336-6.001zm-4.335 9.482c-5.417 0-8.172-1.984-8.172-9.482 0-7.499 2.755-9.482 8.172-9.482 5.417 0 8.172 1.983 8.172 9.482 0 7.498-2.755 9.482-8.172 9.482zm38.272-9.482c0-4.364-.936-6.002-4.335-6.002-3.4 0-4.336 1.638-4.336 6.002 0 4.363.936 6.001 4.336 6.001 3.399 0 4.335-1.638 4.335-6.001zm-4.335 9.482c-5.417 0-8.172-1.984-8.172-9.482 0-7.499 2.755-9.482 8.172-9.482 5.417 0 8.172 1.983 8.172 9.482 0 7.498-2.755 9.482-8.172 9.482z" fill="#000"/></svg>