<svg xmlns="http://www.w3.org/2000/svg" width="200" height="32" viewBox="0 0 200 32" fill="none"><path d="M32 5V27.5C32 29.9853 29.9853 32 27.5 32H5V30L16.8174 26.0605C16.937 26.0207 17.0654 26.0116 17.1895 26.0342L26.9346 27.8066C27.4497 27.9 27.9 27.4497 27.8066 26.9346L26.0342 17.1895C26.0116 17.0654 26.0207 16.937 26.0605 16.8174L30 5H32ZM27 0V2L15.1826 5.93945C15.063 5.97932 14.9346 5.98837 14.8105 5.96582L5.06543 4.19336C4.5503 4.10004 4.10004 4.5503 4.19336 5.06543L5.96582 14.8105C5.98837 14.9346 5.97932 15.063 5.93945 15.1826L2 27H0V4.5C1.97822e-06 2.01472 2.01472 5.78651e-07 4.5 0H27Z" fill="black" style="fill:black;fill-opacity:1;"></path><path d="M91.4775 18.1595C92.273 13.3205 96.8406 10.0422 101.68 10.8373C106.519 11.6326 109.797 16.201 109.002 21.0404H94.9111C95.7066 23.9831 98.7369 25.7241 101.68 24.9291C103.089 24.5482 104.291 23.6241 105.021 22.3597L107.931 24.0404C106.083 27.2405 102.446 28.9619 98.7998 28.3627C93.9605 27.5673 90.6823 22.9989 91.4775 18.1595ZM160.48 3.51988C167.373 3.52014 172.96 9.10805 172.96 16.0004C172.96 22.8925 167.373 28.4796 160.48 28.4798C153.588 28.4798 148 22.8926 148 16.0004C148 9.10789 153.588 3.51989 160.48 3.51988ZM115.48 11.9095C119.728 9.4577 125.158 10.9134 127.61 15.1605L124.7 16.8402C123.176 14.2001 119.8 13.2954 117.16 14.8197C114.52 16.3439 113.616 19.7196 115.14 22.3597C116.664 24.9998 120.04 25.9044 122.68 24.3802C123.519 23.8958 124.216 23.1989 124.7 22.3597L127.61 24.0404C126.831 25.3901 125.71 26.5111 124.36 27.2904C120.113 29.7425 114.682 28.2875 112.229 24.0404C109.777 19.7932 111.233 14.3617 115.48 11.9095ZM184.449 3.71812C186.095 3.71817 187.536 4.01531 188.771 4.60973C190.028 5.20418 191.022 6.0391 191.754 7.11363C192.508 8.18813 192.931 9.46849 193.022 10.9545H189.559C189.444 9.72001 188.93 8.73679 188.016 8.00523C187.124 7.25084 185.935 6.87347 184.449 6.8734C183.489 6.8734 182.654 7.01114 181.945 7.28551C181.259 7.55988 180.733 7.94852 180.367 8.45152C180.002 8.95446 179.819 9.54897 179.819 10.2347C179.819 11.1035 180.059 11.7894 180.539 12.2923C181.042 12.7725 181.694 13.1611 182.494 13.4584C183.317 13.7327 184.22 13.9733 185.203 14.1791C186.186 14.3848 187.158 14.6358 188.118 14.933C189.101 15.2073 189.994 15.5847 190.794 16.0648C191.617 16.5449 192.268 17.2083 192.748 18.0541C193.251 18.8771 193.503 19.9631 193.503 21.3119C193.503 22.7752 193.126 24.0336 192.371 25.0853C191.639 26.114 190.61 26.9029 189.284 27.4515C187.958 28.0001 186.438 28.2747 184.724 28.2748C182.826 28.2748 181.202 27.9426 179.854 27.2796C178.505 26.5937 177.464 25.6334 176.732 24.3988C176.001 23.1641 175.59 21.7124 175.498 20.0433H178.962C179.099 21.5981 179.636 22.8329 180.573 23.7474C181.511 24.662 182.895 25.1195 184.724 25.1195C185.729 25.1195 186.621 24.993 187.398 24.7416C188.176 24.4672 188.781 24.0558 189.216 23.5072C189.65 22.9357 189.867 22.2157 189.867 21.347C189.867 20.4782 189.616 19.7914 189.113 19.2884C188.633 18.7855 187.981 18.3855 187.158 18.0882C186.358 17.791 185.466 17.5278 184.483 17.2992C183.523 17.0706 182.551 16.8083 181.568 16.5111C180.608 16.2139 179.716 15.8252 178.893 15.3451C178.092 14.865 177.441 14.2243 176.938 13.4242C176.458 12.6011 176.218 11.5493 176.218 10.2689C176.218 8.94282 176.572 7.79949 177.281 6.83922C177.99 5.85618 178.962 5.09006 180.196 4.54137C181.431 3.99269 182.849 3.71812 184.449 3.71812ZM51.5195 4.00035V6.88023H46.7197V11.1996H56.7998V28.0004H53.4404V14.0804H46.7197V28.0004H43.3604V14.0804H40V11.1996H43.3604V6.15953C43.3606 4.96697 44.327 4.0006 45.5195 4.00035H51.5195ZM69.7598 10.7201C73.206 10.7201 76 13.5141 76 16.9603V28.0004H72.6396V18.1595C72.6394 15.9064 70.8127 14.0804 68.5596 14.0804C66.3066 14.0807 64.4807 15.9066 64.4805 18.1595V28.0004H61.1201V11.1996H64.4805L62.9043 13.93L63.9541 14.5365L64.3564 13.8402C65.4711 11.9096 67.5305 10.7202 69.7598 10.7201ZM85.1201 11.1996H89.9199V14.0804H85.1201V25.1205H90.4004V28.0004H83.9199C82.7271 28.0003 81.7599 27.033 81.7598 25.8402V14.0804H78.4004V11.1996H81.7598V5.4398H85.1201V11.1996ZM134.08 11.1996L132.504 13.93L133.554 14.5365L133.956 13.8402C135.071 11.9095 137.131 10.7201 139.36 10.7201C142.806 10.7203 145.6 13.5142 145.6 16.9603V28.0004H142.24V18.1595C142.24 15.9065 140.413 14.0805 138.16 14.0804C135.907 14.0804 134.08 15.9064 134.08 18.1595V28.0004H130.72V4.00035H134.08V11.1996ZM160.48 6.88023C155.444 6.88024 151.36 10.9636 151.36 16.0004C151.361 21.037 155.444 25.1195 160.48 25.1195C165.517 25.1192 169.599 21.0368 169.6 16.0004C169.6 10.9637 165.517 6.88049 160.48 6.88023ZM105.568 18.1595C104.773 15.2168 101.743 13.4756 98.7998 14.2709C96.9042 14.7831 95.4235 16.264 94.9111 18.1595H105.568Z" fill="black" style="fill:black;fill-opacity:1;"></path></svg>