<?xml version="1.0" encoding="utf-8"?><svg version="1.1" id="kaufland-logo" xmlns="http://www.w3.org/2000/svg" xmlns:xlink="http://www.w3.org/1999/xlink" x="0px" y="0px" viewBox="0 0 2708 2708" style="enable-background:new 0 0 2708 2708;" xml:space="preserve"><style type="text/css">.st0{fill:#FFFFFF;}.st1{fill:#E10915;}.st2{fill:none;}</style><path class="st0" d="M0,0h2708v2708H0V0z"/><path class="st1" d="M103.2,2604.8h2501.7V103.2H103.2V2604.8z M2501.7,2501.7H206.3V206.3h2295.3L2501.7,2501.7L2501.7,2501.7z"/><rect x="890.7" y="1084.8" class="st1" width="457.5" height="457.5"/><polygon class="st1" points="1417,1084.6 1417,1542.3 1874.8,1542.3 "/><rect x="890.7" y="558.6" class="st1" width="457.5" height="457.5"/><polygon class="st1" points="1417,558.6 1417,1016.3 1874.8,558.6 "/><polygon class="st1" points="676.1,1812.8 591.7,1812.8 482.7,1965 482.7,1812.8 408.3,1812.8 408.3,2144.7 482.7,2144.7 482.7,1995.3 591.7,2144.7 678,2144.7 550,1974.9 "/><path class="st1" d="M1106.1,2068.8c-8.6,10.9-23.7,25.1-47.4,25.1c-27,0-43.1-17.5-43.1-46.5v-123.8h-65v136.6 c0,52.2,29.9,89.1,84.9,89.1c36.5,0,59.3-19,70.6-31.3v26.6h64v-221h-64V2068.8L1106.1,2068.8z"/><path class="st1" d="M1695.1,1923.8v23.2c-13.3-12.8-36.1-28-67.8-28c-61.6,0-104.3,51.2-104.3,116.2c0,64,42.2,114.3,104.3,114.3 c33.7,0,55.9-15.7,67.8-27.5v22.8h64v-221H1695.1z M1695.1,2074c-9,9.9-24.2,20.9-47,20.9c-34.2,0-58.3-24.6-58.3-60.7 c0-36,24.2-60.7,58.3-60.7c22.7,0,37.9,10.9,47,20.9V2074z"/><path class="st1" d="M840.8,1923.8v23.2c-13.3-12.8-36.1-28-67.8-28c-61.6,0-104.3,51.2-104.3,116.2c0,64,42.2,114.3,104.3,114.3 c33.7,0,55.9-15.7,67.8-27.5v22.8h64v-221H840.8z M840.8,2074c-9,9.9-24.2,20.9-47,20.9c-34.1,0-58.3-24.6-58.3-60.7 c0-36,24.2-60.7,58.3-60.7c22.8,0,37.9,10.9,47,20.9V2074z"/><path class="st1" d="M2235.7,1812.8v136c-11.4-11.8-34.6-29.9-70.2-29.9c-62.1,0-104.3,51.2-104.3,116.2 c0,65,43.1,114.3,104.3,114.3c35.5,0,58.8-17.5,70.2-29.9v25.1h64v-331.9L2235.7,1812.8z M2235.7,2071.2 c-8.6,10.9-24.6,23.7-49.3,23.7c-34.2,0-58.3-24.6-58.3-60.7c0-36,24.2-60.7,58.3-60.7c24.6,0,40.7,12.8,49.3,23.7V2071.2z"/><path class="st1" d="M1940.7,1919c-36.1,0-59.3,19-70.2,31.3v-26.6H1806v221h64.5v-145.1c8.1-11.4,23.2-25.1,47.4-25.1 c27,0,42.7,17.6,42.7,46.5v123.8h65v-136.6C2025.6,1956,1995.7,1919,1940.7,1919"/><path class="st1" d="M1340.2,1861.6c21.8,0,34.6,9.5,34.6,9.5l10.4-49.3c0,0-17.5-13.8-59.3-13.8c-54,0-87.7,31.3-87.7,89.6v26.1 h-32.7v53.1h32.7v167.8h65.9v-167.8h74.9v-53.1h-74.9v-20.4C1304.2,1875.4,1317,1861.6,1340.2,1861.6"/><rect x="1416.3" y="1812.8" class="st1" width="65.9" height="331.9"/><path class="st2" d="M0,0h2708v2708H0V0z"/></svg>