<svg xmlns="http://www.w3.org/2000/svg" width="160" height="45" viewBox="0 0 160 45" fill="none"><path d="M60.4517 13.8389V20.7055H53.2456V13.8389H50.0488V31.4059H53.2456V23.7535H60.4517V31.4059H63.6485V13.8389H60.4517Z" fill="white"></path><path d="M66.6699 31.4059V13.8389H78.6598V16.7343H69.8591V20.8314H77.5421V23.7039H69.8591V28.5067H78.6598V31.4059H66.6699Z" fill="white"></path><path d="M91.8635 31.4059L87.9266 25.0162L83.9898 31.4059H80.5488L86.0688 22.4603L80.5908 13.8389H84.0851L88.022 19.9883L91.8444 13.8389H95.312L89.9103 22.487L95.3807 31.4059H91.8635Z" fill="white"></path><path d="M103.716 17.7566L101.217 25.1688H106.219L103.716 17.7566ZM108.351 31.4059L107.21 28.0413H100.222L99.0888 31.4059H95.8691L102.038 13.8389H105.524L111.693 31.4059H108.351Z" fill="white"></path><path d="M138.727 17.5813C138.029 16.8412 136.957 16.4216 135.943 16.4216C134.928 16.4216 133.864 16.8412 133.173 17.5813C131.964 18.8478 131.91 21.0299 131.91 22.6397C131.91 24.2495 131.96 26.4049 133.173 27.6676C133.864 28.4076 134.936 28.8349 135.943 28.8349C136.95 28.8349 138.029 28.4153 138.727 27.6676C139.937 26.4049 139.99 24.2495 139.99 22.6397C139.99 21.0299 139.941 18.8478 138.727 17.5813ZM140.997 29.7466C139.666 31.0856 137.827 31.7303 135.946 31.7303C134.066 31.7303 132.239 31.0856 130.896 29.7466C128.988 27.8392 128.664 25.5122 128.664 22.6397C128.664 19.7672 128.988 17.4096 130.896 15.5022C132.239 14.1633 134.07 13.5186 135.946 13.5186C137.823 13.5186 139.666 14.1633 140.997 15.5022C142.905 17.4096 143.229 19.7633 143.229 22.6397C143.229 25.516 142.908 27.8392 140.997 29.7466Z" fill="white"></path><path d="M156.424 31.4059L148.817 19.3398V31.4059H145.674V13.8389H149.065L156.569 25.7295V13.8389H159.716V31.4059H156.424Z" fill="white"></path><path d="M126.464 21.7767V25.1451C126.464 29.1239 123.587 31.7294 119.631 31.7294C116.873 31.7294 114.672 30.7261 113.306 28.2427C112.357 26.4917 112.158 24.5843 112.158 22.6235C112.158 19.9456 112.456 17.5613 114.436 15.5738C115.786 14.2234 117.762 13.5215 119.654 13.5215C122.634 13.5215 124.995 14.994 125.983 17.4202L123.206 19.0224C123.046 18.4845 122.763 17.9581 122.347 17.5117C121.627 16.7373 120.738 16.3902 119.628 16.3902C118.067 16.3902 116.675 17.2333 116.042 18.66C115.477 19.9341 115.397 21.254 115.397 22.6274C115.397 24.2754 115.611 26.5223 116.786 27.7468C117.583 28.6204 118.834 28.8645 119.628 28.8645C120.738 28.8645 121.6 28.5212 122.325 27.7468C123.023 26.9991 123.336 26.0263 123.366 25.1566C123.374 24.9277 123.366 24.6797 123.366 24.4356H119.185V21.7805H126.46L126.464 21.7767Z" fill="white"></path><path fill-rule="evenodd" clip-rule="evenodd" d="M20.9351 21.3265C20.9351 21.3265 34.4967 13.5024 38.5404 11.1678C39.0439 10.8778 39.6657 11.2402 39.6657 11.8163V33.4155C39.6657 33.6902 39.5284 33.9267 39.2919 34.0641C36.8924 35.4488 23.6589 43.086 20.5613 44.8713C20.2027 45.0773 19.7449 44.9552 19.5389 44.5967C18.2801 42.4222 14.2402 35.4412 13.5039 34.1709H1.46831C1.05631 34.1709 0.716797 33.8352 0.716797 33.4194V11.8086C0.716797 11.534 0.85413 11.2975 1.09065 11.1601C3.42148 9.8135 15.9607 2.5845 19.8098 0.3643C20.3095 0.0743766 20.9351 0.436782 20.9351 1.01281V21.3227V21.3265ZM12.638 32.6755L2.21601 14.6125V32.6755H12.638ZM19.4359 41.4266V2.31747L2.48686 12.0947L19.4359 41.4304V41.4266ZM38.1665 32.6717V13.1095L20.939 23.0508V32.6678H38.1665V32.6717ZM20.939 42.9258L36.1218 34.1709H20.939V42.9258Z" fill="white"></path></svg>