<svg width="72" height="72" viewBox="0 0 72 72" fill="none" xmlns="http://www.w3.org/2000/svg">
<path d="M48.8695 21.5586C39.7659 21.3434 35.9033 19.5755 35.873 19.5601L35.0248 19.145L34.1765 19.5601C34.1765 19.5601 30.1018 21.4971 21.4981 21.5586H19.5895V39.1608C19.5895 45.433 31.6923 53.1965 34.1159 54.6876L35.0399 55.2564L35.9942 54.7491C36.1457 54.6723 39.6296 52.8275 43.1287 50.1526C48.1879 46.2786 50.7478 42.5736 50.7478 39.1608V21.6047L48.8695 21.5586ZM46.9004 25.4019V39.1762C46.9004 43.1271 39.4478 48.3693 35.1914 50.7829C29.4353 47.078 23.4369 41.8204 23.4369 39.1762V25.4326C29.708 25.1867 33.4797 24.0337 35.0399 23.4341C36.5698 23.9876 40.3112 25.0944 46.9004 25.4019Z" fill="#2B70D7"/>
<path d="M40.9474 28.6456L33.7675 37.4237L29.2839 32.412L26.7543 34.7334L33.8736 42.6813L43.568 30.8593L40.9474 28.6456Z" fill="#2B70D7"/>
<path d="M62.0327 35.379C62.0327 22.2197 52.8079 11.2279 40.5839 8.66058C38.8268 8.29162 37.0242 8.10715 35.1763 8.10715C33.3283 8.10715 31.5257 8.29162 29.7686 8.66058C17.5446 11.2279 8.31976 22.2197 8.31976 35.379C8.31976 35.4713 8.31976 35.5481 8.31976 35.6404C8.31976 35.7172 8.31976 35.7941 8.31976 35.8863C8.31976 48.1848 16.3934 58.6232 27.451 62.0052C29.9049 62.7431 32.4952 63.1582 35.1763 63.1582C37.8574 63.1582 40.4476 62.7431 42.9015 62.0052C53.9591 58.6232 62.0327 48.1848 62.0327 35.8863C62.0327 35.8095 62.0327 35.7326 62.0327 35.6404C62.0327 35.5481 62.0327 35.4713 62.0327 35.379ZM42.9015 56.9014C41.523 57.4087 40.084 57.793 38.5996 58.0236C37.4787 58.1927 36.3275 58.285 35.1763 58.285C34.025 58.285 32.8738 58.1927 31.7529 58.0236C30.2685 57.793 28.8295 57.4087 27.451 56.9014C18.8776 53.7038 12.7277 45.3869 12.6217 35.625C12.7277 26.0014 18.6655 17.8076 27.042 14.5177C28.5871 13.8874 30.2382 13.457 31.9498 13.211C32.995 13.0573 34.0705 12.9804 35.1763 12.9804C36.282 12.9804 37.3575 13.0573 38.4027 13.211C40.1143 13.457 41.7654 13.9028 43.3104 14.5177C51.687 17.8076 57.6248 26.0014 57.7308 35.625C57.6248 45.3869 51.4901 53.7038 42.9015 56.9014Z" fill="#FFBB3C"/>
<path d="M39.0995 4.04865C38.1603 2.97253 36.8728 2.34224 35.4641 2.26537C34.0402 2.18851 32.6921 2.66507 31.6318 3.6182C30.5866 4.57134 29.9504 5.87805 29.8747 7.32312C29.7838 8.75282 30.2685 10.121 31.1925 11.1971C32.1468 12.2579 33.4343 12.9036 34.843 12.9804H35.1611C36.4487 12.9804 37.7059 12.5039 38.6753 11.6276C39.7054 10.6591 40.3416 9.35237 40.4173 7.92267C40.5082 6.49297 40.0235 5.1094 39.0843 4.04865H39.0995ZM33.3131 7.49223C33.3434 7.00029 33.5555 6.53909 33.9342 6.21626C34.2826 5.9088 34.7067 5.73969 35.146 5.73969C35.1914 5.73969 35.2217 5.73969 35.2672 5.73969C35.7519 5.73969 36.2215 5.98566 36.5244 6.35462C36.8576 6.73894 37.0243 7.21551 36.994 7.70745C36.9637 8.19939 36.7516 8.67596 36.3729 8.99879C35.9942 9.32163 35.5247 9.49073 35.0399 9.45998C34.5552 9.42924 34.0857 9.21401 33.7827 8.82969C33.4495 8.46073 33.2828 7.98417 33.3131 7.47685V7.49223Z" fill="#2B70D7"/>
<path d="M39.0995 60.0836C38.1603 59.0075 36.8728 58.3772 35.4641 58.3003C34.0402 58.2235 32.6921 58.7 31.6318 59.6532C30.5866 60.6063 29.9504 61.913 29.8747 63.3581C29.7838 64.7878 30.2685 66.156 31.1925 67.2321C32.1468 68.2928 33.4343 68.9385 34.843 69.0154H35.1611C36.4487 69.0154 37.7059 68.5388 38.6753 67.6625C39.7054 66.694 40.3416 65.3873 40.4173 63.9576C40.5082 62.5279 40.0235 61.1444 39.0843 60.0836H39.0995ZM33.3131 63.5272C33.3434 63.0352 33.5555 62.5741 33.9342 62.2512C34.2826 61.9438 34.7067 61.7747 35.146 61.7747C35.1914 61.7747 35.2217 61.7747 35.2672 61.7747C35.7519 61.7747 36.2215 62.0206 36.5244 62.3896C36.8576 62.7739 37.0243 63.2505 36.994 63.7424C36.9637 64.2343 36.7516 64.7109 36.3729 65.0337C35.9942 65.3566 35.5247 65.5257 35.0399 65.4949C34.5552 65.4642 34.0857 65.249 33.7827 64.8646C33.4495 64.4957 33.2828 64.0191 33.3131 63.5118V63.5272Z" fill="#2B70D7"/>
<path d="M33.9342 62.2512C34.2826 61.9438 34.7067 61.7747 35.146 61.7747C35.1914 61.7747 35.2217 61.7747 35.2672 61.7747C35.7519 61.7747 36.2215 62.0206 36.5244 62.3896C36.7062 62.5894 36.8274 62.82 36.9031 63.0814C38.0695 63.0045 39.2055 62.8508 40.3264 62.6202C40.1446 61.6824 39.7357 60.8061 39.0995 60.0836C38.1603 59.0075 36.8728 58.3772 35.4641 58.3003C34.0402 58.2235 32.6921 58.7 31.6318 59.6532C30.7684 60.4372 30.2079 61.4826 29.9958 62.6355C31.1168 62.8661 32.268 63.0199 33.4343 63.0967C33.5403 62.7893 33.6767 62.4972 33.9342 62.2666V62.2512Z" fill="black"/>
<path d="M11.3038 31.7663C10.3647 30.6902 9.07714 30.0599 7.66843 29.9831C6.24457 29.9062 4.89644 30.3828 3.83612 31.3359C2.79094 32.289 2.15474 33.5957 2.07901 35.0408C1.98812 36.4705 2.47283 37.8387 3.39683 38.9148C4.35112 39.9756 5.63866 40.6213 7.04738 40.6981H7.36548C8.65302 40.6981 9.91025 40.2216 10.8797 39.3453C11.9097 38.3768 12.5459 37.0701 12.6217 35.6404C12.7125 34.2107 12.2278 32.8271 11.2887 31.7663H11.3038ZM5.51749 35.2099C5.54779 34.718 5.75986 34.2568 6.13854 33.934C6.48693 33.6265 6.91105 33.4574 7.35032 33.4574C7.39576 33.4574 7.42606 33.4574 7.4715 33.4574C7.95622 33.4574 8.4258 33.7034 8.72875 34.0723C9.06199 34.4566 9.22861 34.9332 9.19832 35.4251C9.16802 35.9171 8.95597 36.3937 8.57729 36.7165C8.1986 37.0393 7.72902 37.2084 7.2443 37.1777C6.75958 37.1469 6.29001 36.9317 5.98706 36.5474C5.65381 36.1784 5.4872 35.7019 5.51749 35.1945V35.2099Z" fill="#2B70D7"/>
<path d="M36.388 9.01416C36.0093 9.337 35.5398 9.5061 35.055 9.47535C34.5703 9.44461 34.1007 9.22938 33.7978 8.84506C33.6312 8.66058 33.4948 8.42998 33.4191 8.18401C32.2528 8.26088 31.1167 8.38386 29.9958 8.61446C30.1776 9.55222 30.5714 10.4285 31.2227 11.1664C32.177 12.2271 33.4646 12.8728 34.8733 12.9497H35.1914C36.4789 12.9497 37.7361 12.4731 38.7056 11.5968C39.569 10.7821 40.1294 9.75207 40.3415 8.59909C39.2206 8.36849 38.0694 8.24551 36.903 8.16864C36.797 8.4761 36.6607 8.76819 36.4032 8.98341L36.388 9.01416Z" fill="black"/>
<path d="M8.72875 34.0723C9.062 34.4567 9.22861 34.9332 9.19832 35.4252C9.16802 35.9171 8.95598 36.3937 8.57729 36.7165C8.50155 36.778 8.41065 36.8087 8.31976 36.8702C8.36521 38.1001 8.47125 39.3146 8.66817 40.4829C9.47099 40.2677 10.2283 39.8834 10.8797 39.3146C11.8794 38.3768 12.4853 37.1316 12.5914 35.7787C12.5914 35.7172 12.5914 35.6711 12.5914 35.6096C12.5914 35.4867 12.5914 35.3637 12.6065 35.2407C12.6065 33.9493 12.1521 32.7195 11.2887 31.751C10.607 30.967 9.74365 30.4289 8.78935 30.1676C8.56214 31.3513 8.4258 32.5504 8.35006 33.7802C8.48639 33.8725 8.62272 33.9493 8.72875 34.0723Z" fill="black"/>
<path d="M66.9557 31.8125C66.0165 30.7364 64.729 30.1061 63.3203 30.0292C61.8964 29.9523 60.5483 30.4289 59.488 31.382C58.4428 32.3352 57.8066 33.6419 57.7309 35.0869C57.64 36.5166 58.1247 37.8849 59.0487 38.961C60.003 40.0217 61.2905 40.6674 62.6992 40.7442H63.0173C64.3049 40.7442 65.5621 40.2677 66.5315 39.3914C67.5616 38.4229 68.1978 37.1162 68.2735 35.6865C68.3644 34.2568 67.8797 32.8732 66.9405 31.8125H66.9557ZM61.1693 35.2561C61.1996 34.7641 61.4117 34.3029 61.7904 33.9801C62.1388 33.6726 62.5629 33.5035 63.0022 33.5035C63.0476 33.5035 63.0779 33.5035 63.1234 33.5035C63.6081 33.5035 64.0777 33.7495 64.3806 34.1184C64.7138 34.5028 64.8805 34.9793 64.8502 35.4713C64.8199 35.9632 64.6078 36.4398 64.2291 36.7626C63.8504 37.0855 63.3809 37.2546 62.8962 37.2238C62.4114 37.1931 61.9419 36.9778 61.6389 36.5935C61.3057 36.2246 61.139 35.748 61.1693 35.2407V35.2561Z" fill="#2B70D7"/>
<path d="M61.6389 36.5935C61.3057 36.2246 61.139 35.748 61.1693 35.2407C61.1996 34.7487 61.4117 34.2875 61.7904 33.9647C61.851 33.9186 61.9116 33.8878 61.9722 33.8571C61.9116 32.6273 61.7752 31.4128 61.548 30.229C60.8058 30.4443 60.0939 30.8132 59.488 31.3667C58.4428 32.3198 57.8066 33.6265 57.7309 35.0716C57.64 36.5013 58.1247 37.8695 59.0487 38.9456C59.7455 39.7296 60.6392 40.2831 61.6238 40.5598C61.8358 39.3607 61.9419 38.1462 61.9873 36.901C61.8661 36.8087 61.7298 36.7472 61.6389 36.6243V36.5935Z" fill="black"/>
</svg>
