<svg
    width="480"
    height="123"
    viewBox="0 0 480 123"
    fill="none"
    xmlns="http://www.w3.org/2000/svg">
    <g clip-path="url(#clip0_3_200)">
      <path d="M370.703 49.7468H363.384V92.9647H370.703V49.7468Z" fill="black" />
      <path
        d="M476.948 35.2394C477.163 34.9473 477.264 34.5868 477.232 34.2256C477.241 34.0073 477.203 33.7896 477.121 33.5869C477.039 33.3812 476.911 33.1973 476.746 33.0496C476.393 32.7427 475.935 32.5862 475.468 32.6137H473.066V37.7739H474.333V35.8173H474.769L475.955 37.7739H477.445L476.097 35.7463C476.433 35.686 476.735 35.5059 476.948 35.2394ZM475.935 34.5703C475.899 34.645 475.847 34.7108 475.783 34.7629C475.645 34.8552 475.482 34.9014 475.316 34.8947H474.302V33.7796H475.316C475.481 33.7774 475.643 33.8232 475.783 33.9114C475.849 33.9534 475.901 34.0131 475.935 34.0837C475.955 34.1601 475.955 34.2405 475.935 34.3169C475.948 34.4018 475.941 34.4885 475.914 34.5703H475.935Z"
        fill="black"
      />
      <path
        d="M411.751 51.4905C408.402 49.6089 404.614 48.647 400.772 48.7025C396.918 48.6528 393.119 49.614 389.752 51.4905C386.474 53.3483 383.776 56.0785 381.956 59.3778C379.969 63.0532 378.977 67.1839 379.077 71.3608C378.988 75.5308 379.972 79.6537 381.936 83.3337C383.719 86.6328 386.392 89.3654 389.651 91.221C392.999 93.1062 396.788 94.0683 400.63 94.0089C404.488 94.0813 408.296 93.1336 411.67 91.2615C414.952 89.408 417.651 86.6767 419.466 83.3742C421.33 79.6492 422.3 75.5412 422.3 71.376C422.3 67.2108 421.33 63.1028 419.466 59.3778C417.678 56.0829 415.006 53.3516 411.751 51.4905ZM412.765 80.414C411.573 82.7009 409.76 84.6054 407.534 85.9087C405.411 87.1234 403.005 87.7564 400.559 87.7437C398.148 87.744 395.779 87.1038 393.696 85.8884C391.491 84.5747 389.697 82.6717 388.515 80.3937C387.193 77.557 386.508 74.4652 386.508 71.3355C386.508 68.2057 387.193 65.1139 388.515 62.2772C389.705 59.9907 391.519 58.0888 393.747 56.7926C395.866 55.5783 398.269 54.9453 400.711 54.9576C403.128 54.9441 405.505 55.5777 407.595 56.7926C409.818 58.0823 411.62 59.9869 412.786 62.2772C414.175 65.0908 414.847 68.2043 414.742 71.3405C414.869 74.4796 414.203 77.5999 412.806 80.414H412.765Z"
        fill="black"
      />
      <path
        d="M452.242 48.6924C449.128 48.6497 446.062 49.4671 443.382 51.0546C440.805 52.5875 438.719 54.8244 437.37 57.5023L436.934 49.7468H430.314V92.9647H437.603V70.5599C437.603 65.5721 438.84 61.7264 441.314 59.023C442.469 57.7139 443.899 56.6754 445.501 55.9816C447.097 55.2817 448.827 54.9358 450.57 54.9678C458.004 54.9678 461.721 59.469 461.721 68.4715V92.9546H469.041V67.6909C469.041 61.2432 467.517 56.4648 464.469 53.3559C461.421 50.2469 457.345 48.6924 452.242 48.6924Z"
        fill="black"
      />
      <path d="M321.271 49.7468H313.951V92.9647H321.271V49.7468Z" fill="black" />
      <path
        d="M175.954 84.2157C173.075 86.446 169.195 87.5646 164.315 87.5713C160.3 87.6547 156.342 86.6003 152.9 84.5299C149.593 82.4695 146.971 79.4741 145.368 75.9229C141.812 67.2995 141.812 57.6199 145.368 48.9966C146.967 45.4375 149.589 42.4345 152.9 40.3692C156.342 38.2988 160.3 37.2444 164.315 37.3278C169.195 37.3278 173.071 38.4734 175.944 40.7645C178.821 43.0709 180.828 46.2892 181.631 49.8887H189.741C188.79 44.3376 185.791 39.3453 181.337 35.8984C176.957 32.5596 171.28 30.8902 164.305 30.8902C158.875 30.7474 153.514 32.1351 148.835 34.8947C144.503 37.5923 141.021 41.4577 138.788 46.0464C136.322 51.1635 135.099 56.7907 135.22 62.4698C135.11 68.1772 136.332 73.8315 138.788 78.9845C141.01 83.5615 144.492 87.4092 148.825 90.0754C153.511 92.8138 158.869 94.1868 164.295 94.0393C171.283 94.0393 176.967 92.3835 181.347 89.0717C185.779 85.7003 188.783 80.7864 189.762 75.3044H181.651C180.828 78.8394 178.817 81.9849 175.954 84.2157Z"
        fill="black"
      />
      <path
        d="M228.853 51.5513C225.476 49.7217 221.695 48.7635 217.854 48.7635C214.012 48.7635 210.232 49.7217 206.854 51.5513C203.573 53.4048 200.873 56.1361 199.058 59.4386C197.182 63.1526 196.204 67.2555 196.204 71.4166C196.204 75.5777 197.182 79.6805 199.058 83.3945C200.844 86.6773 203.513 89.3952 206.763 91.2412C210.145 93.0577 213.924 94.0084 217.762 94.0084C221.601 94.0084 225.38 93.0577 228.762 91.2412C232.047 89.3921 234.747 86.6597 236.558 83.354C238.554 79.6852 239.55 75.5563 239.447 71.3811C239.548 67.2103 238.574 63.0838 236.619 59.398C234.806 56.1145 232.118 53.3983 228.853 51.5513ZM229.867 80.4342C228.679 82.7208 226.869 84.6255 224.646 85.929C222.53 87.1301 220.135 87.7558 217.702 87.7437C215.215 87.7466 212.775 87.0616 210.653 85.7645C208.531 84.4673 206.809 82.6085 205.678 80.3937C204.356 77.557 203.671 74.4652 203.671 71.3355C203.671 68.2057 204.356 65.1139 205.678 62.2772C206.867 59.9937 208.677 58.0925 210.899 56.7926C213.022 55.5779 215.428 54.9449 217.874 54.9576C220.291 54.9465 222.667 55.58 224.758 56.7926C226.956 58.0959 228.731 60.0078 229.867 62.2975C231.261 65.11 231.936 68.2237 231.834 71.3608C231.953 74.4961 231.276 77.6105 229.867 80.414V80.4342Z"
        fill="black"
      />
      <path
        d="M343.716 39.3858H337.329L336.366 49.7569H329.888V55.941H336.366V79.7347C336.366 84.7226 337.498 88.1762 339.762 90.0957C342.026 92.0151 345.135 92.9748 349.089 92.9748H353.215V86.6995H351.188C348.403 86.6995 346.46 86.223 345.358 85.27C344.257 84.3171 343.702 82.472 343.696 79.7347V55.9309H353.925V49.7468H343.716V39.3858Z"
        fill="black"
      />
      <path
        d="M112.794 80.1808L83.212 67.924C82.6331 67.6906 81.9864 67.6906 81.4075 67.924C81.1201 68.0458 80.8586 68.2213 80.637 68.4411C80.4236 68.6657 80.2519 68.9267 80.1301 69.2116C78.3397 73.5498 75.0997 77.1325 70.9629 79.3489C66.826 81.5652 62.0484 82.2777 57.4449 81.3651C52.8413 80.4525 48.6969 77.9711 45.7184 74.3442C42.74 70.7173 41.1119 66.1695 41.1119 61.4763C41.1119 56.7832 42.74 52.2354 45.7184 48.6085C48.6969 44.9816 52.8413 42.5002 57.4449 41.5876C62.0484 40.6749 66.826 41.3875 70.9629 43.6038C75.0997 45.8201 78.3397 49.4029 80.1301 53.7411C80.3702 54.3087 80.8227 54.76 81.3909 54.9986C81.9591 55.2373 82.5981 55.2444 83.1715 55.0185L112.754 42.7719C113.168 42.5835 113.52 42.2811 113.768 41.9C114.032 41.5111 114.173 41.052 114.173 40.5821C114.174 32.2822 110.942 24.3085 105.162 18.3522C99.3814 12.396 91.5082 8.92588 83.212 8.67805C77.3028 3.10531 69.4873 0.00138474 61.3648 0.00138474C53.2423 0.00138474 45.4269 3.10531 39.5176 8.67805C31.3957 8.91028 23.6703 12.2404 17.9249 17.9858C12.1796 23.7311 8.84946 31.4566 8.61723 39.5784C3.03111 45.487 -0.081398 53.3097 -0.081398 61.4409C-0.081398 69.572 3.03111 77.3947 8.61723 83.3033C8.84946 91.4251 12.1796 99.1505 17.9249 104.896C23.6703 110.641 31.3957 113.971 39.5176 114.204C45.4261 119.79 53.2489 122.902 61.38 122.902C69.5112 122.902 77.3339 119.79 83.2424 114.204C91.5527 113.995 99.4519 110.545 105.254 104.592C111.056 98.6385 114.3 90.653 114.295 82.3402C114.287 81.8761 114.143 81.4246 113.879 81.0425C113.614 80.6511 113.236 80.3504 112.794 80.1808ZM107.472 83.0904C103.364 86.2373 98.4367 88.1344 93.279 88.5547C92.9429 84.0121 91.6288 79.5959 89.4266 75.6086L107.472 83.0904ZM82.8673 74.2704C86.0997 78.3749 88.0687 83.3308 88.5344 88.5345C83.3397 88.0794 78.3901 86.1207 74.2907 82.8978C77.8221 80.7794 80.7698 77.8142 82.8673 74.2704ZM61.4662 86.4359C63.5175 86.436 65.5608 86.1806 67.5489 85.6755C66.9291 90.8537 64.8156 95.7395 61.4662 99.7368C58.1171 95.7432 56.0035 90.8607 55.3834 85.6857C57.3691 86.1858 59.4084 86.4411 61.4561 86.446L61.4662 86.4359ZM48.6316 82.8978C44.5393 86.0978 39.6118 88.0512 34.4385 88.5243C34.9038 83.3254 36.8691 78.3735 40.0955 74.2704C42.1822 77.8082 45.111 80.7754 48.6215 82.9079L48.6316 82.8978ZM37.2467 67.5388C32.0612 66.9239 27.1675 64.81 23.1651 61.456C27.1756 58.1025 32.0755 55.9889 37.267 55.3733C36.2582 59.3649 36.2512 63.5439 37.2467 67.5388ZM40.0144 48.6924C36.7804 44.5811 34.8115 39.6183 34.3473 34.4081C39.5462 34.8734 44.498 36.8387 48.6012 40.0651C45.0885 42.197 42.1536 45.1597 40.0549 48.6924H40.0144ZM55.3226 37.267C55.9426 32.0919 58.0563 27.2094 61.4054 23.2158C64.7588 27.2107 66.8729 32.0978 67.4881 37.2771C63.51 36.2671 59.343 36.2636 55.3632 37.267H55.3226ZM82.8673 48.6823C80.7651 45.1326 77.8102 42.1636 74.2704 40.0448C78.3606 36.8396 83.2887 34.8824 88.4635 34.4081C88.0254 39.609 86.0807 44.5694 82.8673 48.6823ZM89.3962 47.3339C91.5984 43.3467 92.9125 38.9304 93.2486 34.3878C98.4072 34.8116 103.335 36.7122 107.442 39.8623L89.3962 47.3339ZM101.562 21.3606C105.329 25.1207 107.909 29.9043 108.983 35.1178C104.335 31.9248 98.9148 30.0409 93.2891 29.6636C92.8887 24.0315 90.9956 18.6077 87.8045 13.9498C93.0194 15.0211 97.8058 17.5976 101.572 21.3606H101.562ZM81.3466 13.4327C85.4992 17.878 88.0346 23.5917 88.5446 29.6534C82.6056 30.0899 76.9116 32.1988 72.1211 35.7362C71.2301 29.8468 68.6927 24.3293 64.8016 19.8196C69.4319 15.8852 75.254 13.6278 81.3264 13.4125L81.3466 13.4327ZM61.4561 4.76483C66.7649 4.76575 71.9569 6.32369 76.3892 9.24577C70.8595 10.282 65.7073 12.7776 61.4662 16.4741C57.2158 12.7818 52.0574 10.29 46.5229 9.25592C50.9552 6.32453 56.1522 4.76259 61.4662 4.76483H61.4561ZM41.5553 13.4429C47.6279 13.6633 53.4506 15.9159 58.0903 19.8399C54.2069 24.3522 51.6767 29.8694 50.791 35.7565C45.9924 32.227 40.2975 30.1191 34.3574 29.6737C34.8679 23.6072 37.4072 17.8895 41.5655 13.4429H41.5553ZM21.3505 21.3403C25.1045 17.5761 29.887 15.005 35.0975 13.9498C31.9187 18.6003 30.0361 24.0137 29.6433 29.6331C24.0118 30.0207 18.5864 31.9073 13.9295 35.0975C14.9953 29.8813 17.5768 25.0958 21.3505 21.3403ZM29.6534 34.3979C30.0896 40.34 32.1985 46.0374 35.7362 50.8315C29.8485 51.7151 24.3307 54.2456 19.8196 58.1308C15.8874 53.496 13.6336 47.6703 13.4226 41.5959C17.8719 37.4433 23.5887 34.908 29.6534 34.3979ZM4.73441 61.4459C4.72879 56.1237 6.29466 50.9182 9.23565 46.4824C10.2715 52.0213 12.7668 57.1834 16.464 61.4358C12.7651 65.6832 10.2694 70.8425 9.23565 76.3791C6.30094 71.9516 4.73537 66.7577 4.73441 61.4459ZM13.4226 81.3568C13.6321 75.279 15.886 69.4496 19.8196 64.8117C24.3302 68.7051 29.8464 71.2489 35.7362 72.1516C32.1988 76.942 30.0899 82.636 29.6534 88.575C23.5906 88.0614 17.8771 85.5225 13.4327 81.3669L13.4226 81.3568ZM21.3505 101.562C17.5768 97.8062 14.9953 93.0206 13.9295 87.8045C18.5765 90.9904 23.9918 92.8737 29.6129 93.2587C30.0039 98.8816 31.8866 104.299 35.0671 108.952C29.8706 107.883 25.1016 105.313 21.3505 101.562ZM34.3777 93.2587C40.3178 92.8133 46.0127 90.7054 50.8112 87.176C51.6899 93.0742 54.2206 98.603 58.1105 103.123C53.4691 107.048 47.6405 109.294 41.5655 109.5C37.4118 105.048 34.8796 99.3265 34.3777 93.2587ZM61.4561 118.168C56.1375 118.169 50.9364 116.604 46.5026 113.666C52.0394 112.63 57.2006 110.139 61.4561 106.448C65.7065 110.14 70.8649 112.632 76.3993 113.666C71.9692 116.603 66.7714 118.169 61.4561 118.168ZM81.3466 109.5C75.2687 109.291 69.439 107.037 64.8016 103.103C68.6953 98.5998 71.2302 93.0836 72.111 87.1962C76.9067 90.7239 82.5979 92.8317 88.5344 93.279C88.0374 99.342 85.5042 105.059 81.3466 109.5ZM101.562 101.582C97.8062 105.344 93.0243 107.915 87.8147 108.972C90.989 104.32 92.8712 98.9076 93.2688 93.2891C98.8959 92.9028 104.317 91.0197 108.972 87.8349C107.906 93.0458 105.329 97.8272 101.562 101.582Z"
        fill="black"
      />
      <path
        d="M479.371 32.7151C478.963 31.9689 478.351 31.3537 477.607 30.9409C476.826 30.5281 475.956 30.3123 475.073 30.3123C474.19 30.3123 473.32 30.5281 472.538 30.9409C471.79 31.3504 471.174 31.9661 470.764 32.7151C470.351 33.5051 470.136 34.3834 470.136 35.2749C470.136 36.1664 470.351 37.0447 470.764 37.8347C471.177 38.5816 471.792 39.1967 472.538 39.6088C473.32 40.0217 474.19 40.2375 475.073 40.2375C475.956 40.2375 476.826 40.0217 477.607 39.6088C478.351 39.196 478.963 38.5809 479.371 37.8347C479.784 37.0447 480 36.1664 480 35.2749C480 34.3834 479.784 33.5051 479.371 32.7151ZM478.682 36.8209C478.494 37.3114 478.216 37.762 477.861 38.149C477.498 38.5197 477.062 38.8103 476.58 39.0024C476.098 39.1944 475.581 39.2836 475.063 39.2642C474.541 39.2952 474.019 39.2122 473.532 39.0209C473.046 38.833 472.604 38.5465 472.234 38.1794C471.734 37.5765 471.397 36.8554 471.255 36.0852C471.113 35.3149 471.171 34.5211 471.423 33.7795C471.604 33.2939 471.879 32.8492 472.234 32.4717C472.603 32.0985 473.045 31.8051 473.532 31.61C474.019 31.4203 474.54 31.334 475.063 31.3566C475.582 31.3391 476.099 31.4253 476.584 31.61C477.064 31.8055 477.5 32.099 477.861 32.4717C478.216 32.8492 478.492 33.2939 478.672 33.7795C478.857 34.2681 478.943 34.7884 478.925 35.3104C478.942 35.8249 478.86 36.3378 478.682 36.8209Z"
        fill="black"
      />
      <path
        d="M265.644 48.7228C262.654 48.7113 259.691 49.2901 256.925 50.426C254.282 51.4907 251.937 53.1815 250.092 55.353C248.216 57.5905 247.101 60.3673 246.909 63.2809H254.381C254.572 62.0354 255.013 60.8416 255.679 59.7716C256.345 58.7017 257.22 57.778 258.253 57.0562C260.425 55.595 262.997 54.8473 265.613 54.9171C267.063 54.841 268.513 55.0596 269.875 55.5597C271.238 56.0598 272.485 56.831 273.541 57.8267C275.522 59.7867 276.508 62.649 276.502 66.4135V66.9407H264.823C259.004 66.9407 254.414 68.1234 251.055 70.489C249.414 71.6191 248.088 73.1483 247.201 74.9325C246.315 76.7167 245.896 78.6973 245.986 80.6877C245.985 83.0088 246.597 85.289 247.761 87.2976C249.01 89.4187 250.863 91.1198 253.083 92.1841C255.888 93.4912 258.962 94.1165 262.055 94.0089C266.009 94.0089 269.162 93.1641 271.514 91.4745C273.779 89.8641 275.619 87.728 276.877 85.2498L277.302 93.0053H283.841V66.4135C283.841 61.0675 282.317 56.7859 279.269 53.5688C276.221 50.3517 271.679 48.7364 265.644 48.7228ZM276.502 72.6686C276.511 75.1931 275.975 77.6898 274.93 79.9882C273.938 82.2478 272.359 84.2009 270.358 85.6452C268.26 87.1278 265.739 87.8924 263.17 87.8248C260.129 87.8248 257.807 87.1354 256.155 85.7465C255.347 85.0962 254.701 84.2666 254.269 83.3236C253.841 82.3684 253.637 81.3283 253.671 80.2822C253.659 79.2175 253.892 78.1645 254.353 77.2045C254.814 76.2446 255.489 75.4037 256.327 74.7469C258.101 73.2668 261.133 72.5267 265.451 72.5267H276.502V72.6686Z"
        fill="black"
      />
      <path d="M294.283 92.9647L301.623 92.9951V30.2617H294.283V92.9647Z" fill="black" />
      <path
        d="M368.121 40.0197C370.786 39.3907 372.436 36.7207 371.808 34.056C371.179 31.3913 368.509 29.741 365.844 30.3699C363.179 30.9988 361.529 33.6689 362.158 36.3336C362.787 38.9983 365.457 40.6486 368.121 40.0197Z"
        fill="black"
      />
      <path
        d="M321.128 38.6753C323.064 36.7393 323.064 33.6004 321.128 31.6644C319.192 29.7284 316.053 29.7284 314.117 31.6644C312.181 33.6004 312.181 36.7393 314.117 38.6753C316.053 40.6113 319.192 40.6113 321.128 38.6753Z"
        fill="black"
      />
    </g>
    <defs>
      <clipPath id="clip0_3_200">
        <rect width="480" height="122.902" fill="white" />
      </clipPath>
    </defs>
  </svg>