<svg xmlns="http://www.w3.org/2000/svg" id="Layer_1" data-name="Layer 1" viewBox="0 0 1797.94 333.64"><defs><style>.cls-1{fill:#f86906;}</style></defs><path class="cls-1" d="M1485.85,216.42c-10.32-8.1-23.41-13.13-40-15.4l-13.87-1.9,13.71-2.84c13-2.71,23.85-7.93,33-16A50.79,50.79,0,0,0,1492.48,162a58.77,58.77,0,0,0,4.54-31.53c-1.71-13-6.18-23.78-13.68-32.85a67.41,67.41,0,0,0-27.67-20.38,89.77,89.77,0,0,0-33.29-6.51H1251.57V329.09l184-.1a105.08,105.08,0,0,0,12.46-1,80,80,0,0,0,26.86-9.06,63.53,63.53,0,0,0,22.44-19.71c9.44-13.48,12.91-28.46,10.61-45.79C1506,238.68,1498.79,226.58,1485.85,216.42Zm-77.1-104a75.19,75.19,0,0,1,18,1.81c12.76,3.18,21,11,23.86,22.62,3.32,13.56-.5,30.71-16.5,38.45-6,2.87-13.89,4.28-23.2,4.28H1300.3l-.14-67.16Zm43.14,161.72c-5.8,7.36-12.76,13.26-27.72,13.26l-124,0v-67h122.66c18.29,0,32.56,11.35,35.14,26.25C1459.81,257.22,1457.71,266.74,1451.89,274.13Z"></path><polygon class="cls-1" points="828.44 319.37 720.77 71.22 627.62 71.22 627.62 329.57 675.53 329.57 675.53 81.66 783.1 329.57 876.36 329.57 876.36 71.22 828.44 71.22 828.44 319.37"></polygon><polygon class="cls-1" points="326.62 331.97 556.56 331.97 556.56 284.05 374.54 284.05 374.54 222.05 548.28 222.05 548.28 178.74 374.54 178.74 374.54 116.73 556.56 116.73 556.56 71.22 326.62 71.22 326.62 331.97"></polygon><polygon class="cls-1" points="1797.94 116.73 1797.94 71.22 1568 71.22 1568 331.97 1797.94 331.97 1797.94 284.05 1615.92 284.05 1615.92 222.05 1789.66 222.05 1789.66 178.74 1615.92 178.74 1615.92 116.73 1797.94 116.73"></polygon><rect class="cls-1" y="71.22" width="251.63" height="45.51"></rect><rect class="cls-1" y="286.46" width="251.63" height="45.51"></rect><path class="cls-1" d="M22.62,260.25c55-4.31,87.3-22.77,115.79-39.06,25.73-14.7,48-27.41,86.37-31.75,2.75-.31,5.67-.58,8.68-.81l.45,0q3.87-.27,8-.44c3.3-.14,6.52-.22,9.75-.24V142c-7.43.06-14.79.35-21.86.89l-.85.06c-55,4.31-87.3,22.77-115.78,39.05C87.4,196.7,65.19,209.41,26.77,213.75l-.32,0c-2.91.33-5.88.6-8.81.82-2.58.18-5.25.33-8,.44-3.31.14-6.45.22-9.67.24V261.2q11.15-.09,21.78-.89Z"></path><path class="cls-1" d="M1061.46,69.55c-72.82,0-132.05,59.23-132.05,132a132.19,132.19,0,0,0,132.05,132c72.81,0,132-59.23,132-132S1134.27,69.55,1061.46,69.55Zm0,216.17a84.13,84.13,0,1,1,84.12-84.13A84.22,84.22,0,0,1,1061.46,285.72Z"></path><rect class="cls-1" x="1620.73" width="124.47" height="28.1"></rect></svg>