<svg width="152" height="32" viewBox="0 0 152 32" fill="none" xmlns="http://www.w3.org/2000/svg">
<path d="M14.6704 25.0889C14.6456 25.1862 14.6172 25.2799 14.5853 25.3737C14.4611 25.7306 14.2944 26.0659 14.0921 26.3687C13.3009 27.5584 11.9634 28.3047 10.5016 28.3047C8.11392 28.3047 6.17322 26.3327 6.17322 23.9064V21.9091H2.53662V23.9064C2.53662 28.3696 6.10935 32.0001 10.5016 32.0001C13.8722 32.0001 16.8914 29.8333 18.0125 26.6031C18.1828 26.1091 18.2999 25.6044 18.3744 25.0889H14.6704Z" fill="#192B47"/>
<path d="M10.9169 0H10.0831C4.51292 0 0 4.58585 0 10.2461V19.8432H21V10.2461C21 4.58945 16.4871 0 10.9169 0Z" fill="#192B47"/>
<path d="M28 0.665527H34.0947C39.9302 0.665527 43.6669 4.38906 43.6669 9.7443C43.6669 15.0995 40.0886 18.7735 34.1739 18.7735H31.3947C29.5192 18.7735 28 17.2799 28 15.4358V0.665527ZM33.9399 15.5844C37.5182 15.5844 39.8546 13.0608 39.8546 9.7443C39.8546 6.4278 37.493 3.8546 34.1487 3.8546H31.6071V14.9367C31.6071 15.2942 31.9023 15.5844 32.2659 15.5844H33.9399Z" fill="#192B47"/>
<path d="M44.6428 12.5722C44.6428 8.79914 47.2096 6.11975 50.6079 6.11975C52.0875 6.11975 53.4339 6.67899 54.3446 7.75145L54.395 7.72668V6.30026H57.7934V18.7699H54.5498V17.2904L54.4994 17.2656C53.6175 18.3876 52.3467 18.9999 50.6871 18.9999C47.2132 18.9999 44.6428 16.4232 44.6428 12.5722ZM54.5498 12.597C54.5498 10.583 53.1495 9.10353 51.3351 9.10353C49.5207 9.10353 48.0916 10.4556 48.0916 12.597C48.0916 14.5862 49.4127 15.9878 51.3351 15.9878C53.0739 15.9878 54.5498 14.6357 54.5498 12.597Z" fill="#192B47"/>
<path d="M60.8676 14.8446V9.07882H59.3628V6.30033H60.8676V2.24408L64.2659 1.8866V6.29679H67.6894V9.07529H64.2659V14.3527C64.2659 15.4499 64.5503 15.9596 65.3567 15.9596C65.7707 15.9596 66.3935 15.8074 66.9659 15.5242L67.8226 18.2036C67.0199 18.6354 66.1883 18.9929 64.4783 18.9929C62.3003 18.9929 60.8748 17.6408 60.8748 14.8376L60.8676 14.8446Z" fill="#192B47"/>
<path d="M68.1069 12.5722C68.1069 8.79914 70.6737 6.11975 74.072 6.11975C75.5516 6.11975 76.898 6.67899 77.8088 7.75145L77.8592 7.72668V6.30026H81.2575V18.7699H78.014V17.2904L77.9636 17.2656C77.0816 18.3876 75.8108 18.9999 74.1512 18.9999C70.6773 18.9999 68.1069 16.4232 68.1069 12.5722ZM78.014 12.597C78.014 10.583 76.6136 9.10353 74.7992 9.10353C72.9848 9.10353 71.5557 10.4556 71.5557 12.597C71.5557 14.5862 72.8768 15.9878 74.7992 15.9878C76.538 15.9878 78.014 14.6357 78.014 12.597Z" fill="#192B47"/>
<path d="M82.856 9.74426C82.856 4.43858 86.3299 0.435425 92.0898 0.435425C94.7105 0.435425 97.5113 1.4548 99.4049 3.52185L96.8381 5.71633C95.6969 4.59432 94.113 3.82979 92.0898 3.82979C89.055 3.82979 86.6683 6.04904 86.6683 9.7478C86.6683 13.0891 88.7958 15.6906 92.2446 15.6906C93.5658 15.6906 94.7861 15.3579 95.9525 14.6464V11.9954H91.827V8.90895H99.5057V16.7135C97.8209 18.0408 95.0705 18.9575 92.2446 18.9575C86.9275 18.9575 82.856 15.5667 82.856 9.75134V9.74426Z" fill="#192B47"/>
<path d="M101.558 13.8217V6.30029H104.931V12.9545C104.931 15.2233 105.629 15.9879 107.213 15.9879C108.693 15.9879 110.014 14.7632 110.014 12.367V6.30029H113.438V18.7699H110.014V17.2904L109.964 17.2656C109.003 18.4124 107.656 19 106.227 19C103.477 19 101.558 17.6231 101.558 13.8217Z" fill="#192B47"/>
<path d="M115.014 12.5722C115.014 8.79914 117.581 6.11975 120.979 6.11975C122.459 6.11975 123.805 6.67899 124.716 7.75145L124.766 7.72668V6.30026H128.165V18.7699H124.921V17.2904L124.871 17.2656C123.989 18.3876 122.718 18.9999 121.058 18.9999C117.585 18.9999 115.014 16.4232 115.014 12.5722ZM124.921 12.597C124.921 10.583 123.521 9.10353 121.706 9.10353C119.892 9.10353 118.463 10.4556 118.463 12.597C118.463 14.5862 119.784 15.9878 121.706 15.9878C123.445 15.9878 124.921 14.6357 124.921 12.597Z" fill="#192B47"/>
<path d="M130.566 6.30027H133.964V8.11248H134.015C134.976 6.83827 136.347 6.12329 137.827 6.12329H138.086V9.76896C137.723 9.74418 137.384 9.74418 137.179 9.74418C135.077 9.74418 133.964 11.121 133.964 13.0076V18.7699H130.566V6.30027Z" fill="#192B47"/>
<path d="M138.749 12.5722C138.749 8.79915 141.344 6.11977 144.739 6.11977C146.294 6.11977 147.644 6.679 148.577 7.75147H148.627V0C150.488 0 152 1.48304 152 3.31649V18.7699H148.757V17.2408H148.731C147.849 18.3628 146.528 18.9999 144.815 18.9999C141.312 18.9999 138.745 16.4232 138.745 12.5722H138.749ZM148.76 12.597C148.76 10.5831 147.385 9.10355 145.441 9.10355C143.627 9.10355 142.197 10.4556 142.197 12.597C142.197 14.5862 143.547 15.9878 145.441 15.9878C147.335 15.9878 148.76 14.6358 148.76 12.597Z" fill="#192B47"/>
</svg>
