<svg viewbox="67.178 218.748 347.259 81.542"><path fill="#F89E1C" d="M130.815 276.821a1.938 1.938 0 0 0 1.938-3.313l-19.745-34.181a1.938 1.938 0 0 0-3.876 0l-14.998 25.965a3.43 3.43 0 0 1-5.93-3.43l17.013-29.376a7.36 7.36 0 0 0 0-6.646l-2.984-5.154a1.938 1.938 0 0 0-3.876 0l-30.441 52.822a1.937 1.937 0 0 0 1.937 3.313h27.322a7.384 7.384 0 0 0 5.813-3.313l7.092-12.382a3.43 3.43 0 1 1 5.929 3.429l-5.561 9.553a1.938 1.938 0 0 0 2.189 2.694h18.137l.041.019z"></path><path fill="#3E3E3F" d="M195.495 265.466v-29.201c0-1.07-.868-1.938-1.938-1.938h-3.662c-1.07 0-1.938.868-1.938 1.938v29.201c0 4.263.736 6.763 2.674 8.642 1.938 1.88 4.437 2.732 8.7 2.732h4.961c1.07 0 1.938-.868 1.938-1.938v-3.023c0-1.07-.868-1.938-1.938-1.938h-4.224c-3.778.059-4.573-.736-4.573-4.475zm28.659 1.705-9.282-19.61a1.94 1.94 0 0 0-1.686-1.066h-5.116a.99.99 0 0 0-.892 1.434l14.087 27.806a1.938 1.938 0 0 0 1.666 1.027h2.461a1.938 1.938 0 0 0 1.666-1.027l14.087-27.806a.989.989 0 0 0-.891-1.434h-5.116a1.938 1.938 0 0 0-1.686 1.066l-9.298 19.61zm40.382-20.617h-6.918c-4.263 0-6.763.794-8.681 2.732-1.918 1.938-2.674 4.379-2.674 8.642v7.557c0 4.263.736 6.763 2.674 8.642 1.938 1.88 4.437 2.732 8.681 2.732h6.918c4.263 0 6.763-.794 8.681-2.732s2.674-4.379 2.674-8.642v-7.557c0-4.263-.736-6.763-2.674-8.642-1.938-1.88-4.418-2.732-8.681-2.732zm3.875 18.912c0 3.759-.794 4.554-4.554 4.554h-5.445c-3.74 0-4.554-.794-4.554-4.554v-7.557c0-3.759.794-4.554 4.592-4.554h5.329c3.875 0 4.612.794 4.612 4.554v7.557h.02zm25.888 0v-12.091h5.639c.684 0 1.318-.361 1.666-.949l2.81-4.864a.678.678 0 0 0-.581-1.027h-9.514v-5.813c0-1.07-.868-1.938-1.938-1.938h-3.875c-1.07 0-1.938.868-1.938 1.938v5.813h-1.938c-1.07 0-1.938.868-1.938 1.938v2.965c0 1.07.868 1.938 1.938 1.938h1.938v12.091c0 4.554.736 6.763 2.674 8.642 1.938 1.88 3.72 2.732 7.983 2.732h5.813c1.07 0 1.938-.868 1.938-1.938v-3.023c0-1.07-.868-1.938-1.938-1.938h-5.096c-3.566.058-3.643-.737-3.643-4.476zm36.274-18.912h-6.976c-4.205 0-6.763.794-8.7 2.732-1.938 1.938-2.674 4.321-2.674 8.642v7.499c0 4.321.736 6.821 2.674 8.681 1.938 1.86 4.496 2.732 8.7 2.732h6.918c5.6 0 8.584-1.337 10.25-5.019a.873.873 0 0 0-.794-1.241h-15.25c-3.875 0-4.534-.794-4.534-4.941v-.969h20.54c.642 0 1.163-.521 1.163-1.163v-5.6c0-4.495-.736-6.821-2.674-8.7-1.939-1.878-4.439-2.653-8.643-2.653zm3.41 12.091h-13.738v-.969c0-4.089.736-4.883 4.534-4.883h4.631c3.875 0 4.554.794 4.554 4.883v.969h.019zm27.496-5.271h14.823a.871.871 0 0 0 .833-1.143c-1.318-3.972-3.992-5.677-9.863-5.677h-6.859c-4.205 0-6.763.794-8.681 2.732-1.918 1.938-2.674 4.379-2.674 8.642v7.557c0 4.263.736 6.763 2.674 8.642s4.495 2.732 8.681 2.732h6.918c5.813 0 8.545-1.705 9.863-5.677a.872.872 0 0 0-.833-1.143h-14.823c-3.74 0-4.534-.794-4.534-4.554v-7.557c-.079-3.779.716-4.554 4.475-4.554zm49.683-4.127c-1.938-1.938-4.437-2.732-8.7-2.732h-9.94v-10.289c0-1.07-.868-1.938-1.938-1.938h-3.875c-1.07 0-1.938.868-1.938 1.938v38.754c0 1.07.868 1.938 1.938 1.938h3.875c1.07 0 1.938-.868 1.938-1.938v-21.605h9.204c3.759 0 4.554.794 4.554 4.554v17.052c0 1.07.868 1.938 1.938 1.938h3.875c1.07 0 1.938-.868 1.938-1.938v-17.052c-.195-4.303-.932-6.802-2.869-8.682zm-235.18.019c-1.938-1.938-4.495-2.732-8.7-2.732h-4.922c-5.6 0-8.584 1.337-10.25 5.019a.873.873 0 0 0 .794 1.241h13.273c3.875 0 4.534.794 4.534 4.941v.969h-15.037a6.666 6.666 0 0 0-6.666 6.666c0 4.495.736 6.821 2.674 8.7 1.938 1.88 4.495 2.674 8.7 2.674h14.262c2.208 0 4-1.784 4.011-3.992v-14.785c.001-4.321-.735-6.821-2.673-8.701zm-5.27 20.54a.756.756 0 0 1-.756.756h-8.448c-3.604 0-4.457-.717-4.534-4.282a1.55 1.55 0 0 1 1.531-1.569h12.208l-.001 5.095z"></path></svg>