<svg width="50" height="51" viewBox="0 0 50 51" fill="none" xmlns="http://www.w3.org/2000/svg">
<path d="M18.7752 37.2748C18.9149 37.175 19.0742 37.0452 19.231 36.9154C19.5741 36.6309 19.9294 36.3389 20.248 36.2291C20.3754 36.1867 20.5151 36.1642 20.667 36.1642C21.0983 36.1642 21.5664 36.3364 22.0246 36.5061C22.277 36.5985 22.5147 36.6858 22.7402 36.7432C23.4435 36.9179 24.1639 37.0053 24.8795 37.0053C27.6902 37.0053 30.0918 35.6551 31.3023 33.3965C31.687 32.6803 32.1649 31.6396 31.8831 30.8734C31.7557 30.5265 31.4788 30.2719 31.0622 30.1147C30.8147 30.0199 30.5868 29.9725 30.3858 29.9725C29.5551 29.9725 29.2463 30.7511 28.918 31.5772C28.7513 32.0015 28.5773 32.4382 28.3274 32.7576C27.6363 33.6386 26.487 34.1427 25.1735 34.1427C24.3159 34.1427 23.4508 33.9256 22.7377 33.5313C21.1424 32.6503 20.0029 30.6937 19.53 28.0233C18.91 24.5244 19.5986 20.7709 21.2061 18.8917C22.1545 17.7811 23.7081 17.0923 25.2569 17.0923C26.9894 17.0923 28.3102 17.9433 28.8787 19.4257C28.9792 19.6853 29.0307 19.9299 29.0748 20.147C29.1924 20.7035 29.2855 21.1453 30.0991 21.4597C30.2902 21.5346 30.4275 21.577 30.5623 21.577C30.697 21.577 30.8269 21.5346 31.0254 21.4323C31.3832 21.2451 31.6184 20.9506 31.7238 20.5538C31.9762 19.6104 31.4518 18.1604 30.8196 17.1447C29.5722 15.1407 27.4746 13.9902 25.0608 13.9902C23.1739 13.9902 21.3483 14.6939 19.9245 15.9717C18.8536 16.9326 18.1895 18.093 17.4887 19.3209C17.0304 20.122 16.5575 20.9506 15.9669 21.6993C14.3104 23.7957 12.0828 25.2956 8.73787 26.5584C8.46096 26.6632 8.12768 26.758 7.83117 26.8454C7.40968 26.9677 6.97349 27.0925 6.63531 27.2522C5.89525 27.6016 5.75802 28.3078 5.86585 28.807C5.99328 29.3935 6.48583 29.9824 7.29696 29.9824C7.36557 29.9824 7.43418 29.9775 7.50525 29.97C9.66171 29.7004 13.0753 28.0308 14.7882 26.7006C14.9132 26.6033 15.0333 26.486 15.1607 26.3637C15.5062 26.0293 15.864 25.6849 16.3541 25.6849H16.386C16.5428 26.3413 16.5722 27.0051 16.5992 27.6465C16.6261 28.243 16.6531 28.8619 16.7829 29.4758C16.9079 30.0748 17.1358 30.7985 17.4274 31.5173C17.496 31.687 17.6186 31.9266 17.7485 32.1836C18.0572 32.7901 18.2974 33.2742 18.3072 33.5363C18.3121 33.6311 18.2876 33.7484 18.2386 33.8657L18.2214 33.9081C16.0527 35.7849 14.156 37.0327 12.2568 37.8363C12.0265 37.9337 11.6981 38.0435 11.3526 38.1583C10.3748 38.4827 9.6029 38.7597 9.27453 39.0867C9.05888 39.3013 8.94371 39.6582 8.95841 40.065C8.97312 40.4917 9.12995 40.8736 9.37745 41.0857C9.64211 41.3128 9.97293 41.4251 10.3871 41.4251C11.1173 41.4251 11.9481 41.0707 12.617 40.7887C12.7494 40.7313 12.8744 40.6789 12.992 40.6315C15.2293 39.7281 16.8638 38.625 18.7679 37.2773L18.7752 37.2748Z" fill="#F9F8F5"/>
<path d="M9.15691 15.6198C9.65926 15.6198 10.1567 15.2929 10.5194 14.7214C10.6125 14.5741 10.686 14.4069 10.7645 14.2297C10.8429 14.0476 10.9262 13.8604 11.0291 13.7106C12.3573 11.7815 14.4304 9.1685 16.7658 7.68857C19.2678 6.10132 22.13 5.26527 25.0412 5.26527C29.9594 5.26527 34.5934 7.69106 37.436 11.754C38.5608 13.3637 39.2494 14.8886 39.6635 16.7005C39.7934 17.2919 39.9012 17.9233 39.9943 18.6271C40.0581 19.1462 40.1095 19.6878 40.1512 20.2818L40.1683 20.5139H40.183C40.1953 20.6262 40.2075 20.7634 40.21 20.8608C40.2541 21.9364 40.3007 23.047 41.5014 23.047C41.5284 23.047 41.5578 23.047 41.5872 23.047C41.7342 23.042 41.9008 23.0195 42.0822 22.9796C42.9472 22.7924 43.0379 22.0811 43.0624 21.2376C43.0697 20.9481 43.0697 20.4764 43.0697 20.1744C43.0697 20.162 43.0697 20.1495 43.0697 20.137H43.082L43.0697 19.875C43.0526 19.5056 43.0232 19.1038 42.9742 18.6496L42.9472 18.395C42.9374 18.3152 42.9301 18.2378 42.9203 18.1604C42.8737 17.7786 42.7708 17.2345 42.6948 16.8477C42.6139 16.4434 42.5674 16.2088 42.5233 16.0715H42.5257C41.793 13.0917 40.3987 10.4638 38.3794 8.25758C34.8972 4.45667 30.0109 2.36279 24.6173 2.36279C24.1566 2.36279 23.6885 2.37777 23.2254 2.41021C17.251 2.81451 11.257 7.08711 8.31392 13.0468C7.93164 13.8204 7.89243 14.5567 8.20365 15.0733C8.4144 15.4227 8.76237 15.6223 9.15445 15.6223L9.15691 15.6198Z" fill="#F9F8F5"/>
<path d="M7.20874 23.6734C7.26265 23.6884 7.32391 23.6933 7.39743 23.6933C8.01251 23.6933 9.16671 23.1917 9.80139 22.8947C12.2421 21.7442 14.2197 19.8151 15.6753 17.1597C15.8199 16.8976 15.9326 16.6505 16.0429 16.411C16.2389 15.9842 16.4227 15.5799 16.7609 15.1332C18.7115 12.5427 21.8384 10.9953 25.127 10.9953C28.8224 10.9953 32.0203 12.9095 33.6818 16.1165C34.314 17.3369 34.4071 18.2178 34.5125 19.2386C34.5517 19.6129 34.5934 19.9997 34.6595 20.444C34.8286 21.5496 35.4731 21.9414 36.0196 21.9414C36.6812 21.9414 37.3992 21.3574 37.4899 20.2418C37.5634 19.3434 37.262 17.9558 37.1297 17.4017C35.6005 10.9978 29.9864 8.1303 25.1025 8.1303C21.5198 8.1303 18.1846 9.52539 15.717 12.0535L15.6606 12.1084C14.7049 13.1042 14.0237 14.2497 13.3645 15.3578C12.3744 17.0224 11.3501 18.7469 9.40931 19.7951C9.16426 19.9274 8.85059 20.0546 8.51732 20.1894C7.34842 20.6611 5.8928 21.2501 6.15746 22.5628C6.24078 22.9771 6.7995 23.5711 7.20874 23.6759V23.6734Z" fill="#F9F8F5"/>
<path d="M42.587 27.2098C42.3297 27.065 42.0405 26.9876 41.7489 26.9876C41.6533 26.9876 41.5553 26.9951 41.4622 27.0126L41.4034 27.0226C40.6511 27.1948 40.5335 28.0483 40.4379 28.7346L40.4207 28.8644C40.3497 29.3685 40.2884 29.8527 40.232 30.3318C40.0581 31.7569 39.8939 33.102 39.4185 34.6244C37.3723 41.1681 31.6552 45.563 25.1907 45.563C24.9113 45.563 24.6271 45.5555 24.3502 45.538C24.0855 45.523 23.8062 45.4781 23.5268 45.4332C23.1813 45.3783 22.8235 45.3184 22.478 45.3184C22.4363 45.3184 22.3971 45.3184 22.3554 45.3184C21.6031 45.3508 20.1279 45.9623 19.3952 46.3716C18.8463 46.681 18.5179 47.3299 18.5939 47.9538C18.6576 48.4704 18.9884 48.8573 19.481 48.9895C19.579 49.017 19.6893 49.0295 19.8069 49.0295C20.2529 49.0295 20.8043 48.8473 21.3385 48.6701C21.8359 48.5054 22.353 48.3332 22.7818 48.3132C22.8186 48.3132 22.8554 48.3107 22.8921 48.3107C23.1372 48.3107 23.3896 48.3506 23.6371 48.3881C23.8576 48.423 24.0684 48.4555 24.2767 48.4604C24.5413 48.4704 24.8035 48.4729 25.0608 48.4729C29.0111 48.4729 32.1404 47.4372 35.5221 45.0114C40.1022 41.7246 42.7095 36.5361 43.2658 29.5831C43.2731 29.4883 43.2829 29.396 43.2903 29.3036C43.3663 28.4751 43.4398 27.6914 42.5919 27.2098H42.587Z" fill="#F9F8F5"/>
<path d="M19.9147 43.3318C20.9905 42.7379 21.657 42.5157 22.3726 42.5157C22.7181 42.5157 23.0685 42.5632 23.5194 42.6231C23.8552 42.668 24.2374 42.7179 24.703 42.7603C24.9971 42.7878 25.2985 42.8002 25.595 42.8002C30.4152 42.8002 35.1202 39.1466 36.7817 34.1103C37.4556 32.0713 37.9579 28.9143 37.6173 26.8229C37.5095 26.1616 36.8111 25.7548 36.2279 25.7548C36.1691 25.7548 36.1078 25.7598 36.049 25.7673L36.0073 25.7747C35.6741 25.8371 35.3726 26.0543 35.1962 26.3537C34.9855 26.7131 34.961 27.4768 34.9487 28.3603C34.9463 28.6547 34.9414 28.9318 34.9242 29.1414C34.3704 35.8673 30.8269 39.7231 25.1981 39.7231C24.9211 39.7231 24.632 39.7131 24.3428 39.6956C23.9948 39.6732 23.6493 39.6083 23.3087 39.5459C22.875 39.466 22.4682 39.3887 22.032 39.3887C21.9462 39.3887 21.8629 39.3911 21.7771 39.3986C20.4563 39.4985 18.8683 40.4992 17.4666 41.3802C16.832 41.7795 16.2316 42.1564 15.69 42.4334C15.4989 42.5307 15.2269 42.643 14.9083 42.7753C13.9795 43.1596 13.1929 43.509 12.9503 43.8609C12.7102 44.2103 12.6685 44.682 12.84 45.1212C13.0189 45.5804 13.3988 45.9248 13.8325 46.0147C13.9305 46.0346 14.0384 46.0471 14.1511 46.0471C14.8152 46.0471 15.5797 45.6778 16.1924 45.3808C16.1924 45.3808 16.4105 45.276 16.4987 45.2335C17.2755 44.8717 18.0156 44.4349 18.7336 44.0107C19.1158 43.786 19.5128 43.5514 19.9147 43.3293V43.3318Z" fill="#F9F8F5"/>
<path d="M10.7914 35.5179C11.6981 35.1785 14.4917 33.9057 14.9916 33.0322C15.3224 32.4557 15.244 31.6595 14.8103 31.1804C14.5456 30.8884 14.1633 30.7287 13.7345 30.7287C13.4404 30.7287 13.1415 30.8085 12.8891 30.9508C12.5876 31.123 12.3303 31.3077 12.0583 31.5048C11.6687 31.7868 11.2668 32.0763 10.7301 32.3159C10.3381 32.4906 9.85531 32.6453 9.38725 32.7951C8.75992 32.9947 8.11053 33.2044 7.64983 33.4664C7.34352 33.6411 7.11072 33.9655 7.00779 34.3549C6.90732 34.7417 6.94898 35.1385 7.12787 35.4455C7.39008 35.8947 7.83852 36.1218 8.45605 36.1218C9.20347 36.1218 10.0489 35.8024 10.664 35.5703L10.7914 35.5229V35.5179Z" fill="#F9F8F5"/>
</svg>
