<svg width="120" height="50" viewBox="0 0 120 50" fill="none" xmlns="http://www.w3.org/2000/svg">
<path d="M107.656 34.0087C106.641 34.3066 105.607 34.5726 104.552 34.6663C103.771 34.7344 102.249 34.828 101.717 34.0917C101.613 33.947 101.349 33.5554 101.308 33.3831C100.668 30.7444 102.792 28.8249 104.496 27.0863C105.996 25.5542 107.414 23.9412 108.733 22.2515C111.406 18.834 113.685 15.0993 115.413 11.1179C116.549 8.50043 117.841 5.33611 117.119 2.44842C116.37 -0.549926 114.087 -0.494598 111.838 1.00989C106.975 4.26573 101.279 17.5614 99.6018 23.2262C99.2081 24.554 98.9996 26.2479 98.5782 27.4524C98.342 28.1248 96.7609 29.5314 95.3309 30.6656C93.9392 31.6786 92.4475 32.5468 90.8536 33.1958C89.7513 33.6448 88.5235 33.981 87.336 33.6682C86.804 33.5278 86.2146 33.1426 86.121 32.5574L86.1103 32.5063C86.1018 32.4638 86.0848 32.3999 86.1933 32.2723C86.3125 32.1339 86.5295 31.9914 86.7828 31.8828L86.8083 31.8701C86.8573 31.8467 86.9126 31.8211 86.9722 31.7892C87.0637 31.7424 87.1913 31.6807 87.3212 31.5934C88.1085 31.0763 88.7937 30.5741 89.4257 30.0655L89.4406 30.0528C90.9515 28.8121 93.0391 26.8395 93.7839 23.9731C93.9797 23.1432 94.2691 21.8855 93.5732 20.7492L93.5455 20.7066C93.0859 20.0342 92.3326 19.6362 91.2281 19.4915C91.0132 19.4639 90.7919 19.4553 90.5876 19.4617H90.56C90.4897 19.4681 90.4195 19.4724 90.3493 19.4788C88.9916 19.6022 87.6765 20.1831 86.5359 21.1726L86.5125 21.1939C85.3613 22.1622 84.5037 23.5581 83.7504 24.837C82.9609 26.1819 82.0522 27.9269 82.1991 29.542L82.2225 29.7144C82.0884 29.8485 81.8011 30.074 81.5224 30.223C80.8712 30.5635 80.1924 30.872 79.4305 31.138C79.156 31.2338 78.4027 31.4594 78.0367 31.6019C77.9303 31.6424 77.875 31.7594 77.9112 31.8679C77.8686 31.7764 78.224 32.5617 78.4474 33.332C78.5708 33.7576 78.8815 35.1642 78.8815 35.1642C78.9198 35.2834 79.0539 35.343 79.1667 35.2919C80.1243 34.8705 81.6224 34.3534 82.6311 33.947C82.6396 33.9768 82.646 34.0193 82.6502 34.0704L82.6566 34.147C82.7438 35.1068 83.761 35.9899 84.525 36.4751C84.7356 36.6091 84.9484 36.7219 85.1591 36.8177C86.1976 37.2837 87.236 37.3475 88.332 37.2901C88.6341 37.2752 88.9831 37.1773 89.3236 37.1475C90.9068 37.0113 95.2352 34.6726 95.931 34.2109C96.1992 34.0321 97.2717 33.2469 97.527 33.0107C97.5738 32.9681 97.6185 32.9213 97.6675 32.8809C97.6015 33.4129 97.5653 33.9342 97.6462 34.313C98.1229 36.5559 100.425 38.1306 103.813 37.7859C106.213 37.5412 113.283 34.9237 115.749 34.6918C116.702 34.6024 118.681 34.2385 117.892 32.202C117.056 30.0421 109.186 33.5597 107.658 34.0087H107.656ZM85.8571 27.6928C85.8635 27.6737 85.8699 27.6524 85.8784 27.6332C86.2699 26.5841 87.0083 25.7053 87.7319 24.8498C88.1745 24.3263 90.5238 21.5706 91.2516 22.7537C91.6623 23.4219 90.328 24.9115 89.9152 25.3563C88.9321 26.4075 87.8148 27.3353 86.5998 28.1078C86.3806 28.2482 86.0592 28.3716 85.889 28.1737C85.7784 28.0461 85.806 27.8567 85.8592 27.6928H85.8571ZM108.193 11.2009C108.982 9.74105 111.934 4.61897 113.434 4.27211C113.576 4.24019 113.851 4.18912 113.962 4.25934C114.098 4.52321 114.11 4.74665 114.081 5.03819C113.921 6.54481 112.834 9.03882 112.208 10.4773C110.184 15.1249 106.103 21.8621 102.424 25.7244C102.266 25.8904 101.992 25.7308 102.055 25.5095C103.33 21.1109 106.15 14.978 108.193 11.2009Z" fill="#243866"/>
<path d="M44.457 44.2784L44.3952 44.1784C44.0718 43.64 43.4632 43.2995 42.7652 43.2591L42.6673 43.2548H42.4566L42.4375 43.2719C42.4162 43.2719 42.3928 43.274 42.3715 43.2761C41.5331 43.3591 40.5031 43.4804 39.0348 43.6634L38.5156 43.7273C37.5112 43.8486 36.56 43.9635 35.7301 44.0592C34.8044 44.1635 34.017 44.2507 33.4254 44.3125H33.3978C31.9018 44.4806 29.8334 44.6721 28.7779 44.7402H28.7587C27.4926 44.8296 25.754 44.9211 24.5347 44.9679H24.5006C24.1389 44.9849 23.7878 44.9955 23.3962 45.0083L23.1025 45.0147C22.6557 45.0253 22.1449 45.0381 21.5299 45.0381C20.6341 45.0381 19.6871 45.0104 18.6359 44.9551C17.7528 44.904 16.976 44.8338 16.1887 44.7402C15.0438 44.604 14.0649 44.4508 13.1988 44.2742C12.5988 44.1507 12.1029 44.0316 11.6433 43.8932C11.5113 43.8528 11.3773 43.8124 11.2411 43.7677L11.0794 43.7145C10.6197 43.5613 10.0494 43.3698 9.08969 42.9122C7.87461 42.3164 6.85743 41.5461 6.14242 40.6842L6.12114 40.6587C5.94664 40.448 5.78066 40.2288 5.64021 40.0139C3.96974 37.4433 4.13998 35.3153 4.24638 33.9215C4.25914 33.8002 4.27191 33.6852 4.29106 33.5469C4.39321 32.7064 4.57834 31.8509 4.85073 30.9316C5.1146 30.0506 5.44869 29.1526 5.88068 28.1908C6.02112 27.8737 6.18285 27.5417 6.35309 27.197C7.22344 25.4329 8.52152 23.3581 9.90684 21.5004L9.93025 21.4684C10.2941 20.9811 10.658 20.5087 11.0177 20.0618L11.0453 20.0235C11.9199 18.9319 12.8541 17.8572 13.8287 16.8209C14.6693 15.9271 15.5652 15.0419 16.4823 14.1843C18.1379 12.6543 19.9148 11.1987 21.7598 9.85597C22.8493 9.06435 23.9729 8.30466 25.1028 7.59391C26.2094 6.90018 27.1372 6.38521 28.0288 5.9745C29.7717 5.16799 31.3294 4.77644 32.7977 4.77644C32.9466 4.77644 33.0935 4.7807 33.2424 4.78708C33.834 4.819 34.4277 4.92753 35.0044 5.10203L35.0491 5.11267C36.909 5.54252 37.8091 7.49602 37.6006 9.14309V9.18139C37.5835 9.38355 37.5474 9.59635 37.5027 9.85597L37.4856 9.95385C37.4452 10.1901 37.392 10.4816 37.4005 10.7923V10.8625C37.4197 11.3158 37.6325 11.7392 37.9602 12.0478C38.2709 12.3415 38.6752 12.5415 39.1051 12.5713H39.1412C39.6626 12.5713 40.118 12.35 40.4585 11.935C40.6713 11.6754 40.8351 11.3456 40.9415 10.9412C41.3331 9.46441 41.5735 7.28961 40.5074 5.30419C40.3563 5.01904 40.1925 4.76155 40.0052 4.50832C39.303 3.56774 37.9559 2.32074 35.5173 1.7249L35.496 1.72064C34.9001 1.57807 34.2468 1.48444 33.6127 1.44826C33.3978 1.43762 33.1786 1.42911 32.9594 1.42911C32.3614 1.42911 31.7528 1.4738 31.1549 1.56104C30.0015 1.73341 28.7587 2.07389 27.4564 2.57184C27.3266 2.62079 27.1989 2.67186 27.0734 2.72293L27.0606 2.72719C24.773 3.64861 22.4365 4.96371 19.9233 6.74058L19.902 6.75548C16.4249 9.24098 13.2669 12.0925 10.524 15.2249L10.5091 15.2419C8.02995 18.0977 6.17434 20.6023 4.67198 23.1283C4.1719 23.9731 3.71438 24.8094 3.31219 25.6265C1.96517 28.3823 1.5651 29.9059 1.26718 31.0167L1.20973 31.2295C1.10546 31.6488 1.02034 32.0254 0.941601 32.4468L0.928833 32.4659L0.920321 32.5681L0.916065 32.5915V32.6L0.903297 32.6915C0.903297 32.6915 0.801154 33.4427 0.76285 33.7363L0.758594 33.7874C0.605378 35.6771 0.958625 38.2668 1.5651 39.7139V39.7309L1.58638 39.7649C1.68002 40.0033 1.76726 40.2097 1.85664 40.3991C2.31203 41.3843 2.87808 42.2653 3.59308 43.0952C3.6931 43.2123 3.79737 43.3251 3.89951 43.4357C5.66149 45.336 8.13848 46.749 11.2688 47.6279C13.1371 48.1577 14.9055 48.3705 15.7907 48.4493C16.4632 48.5067 16.9335 48.528 17.2059 48.5323H17.3995C17.4846 48.5323 17.557 48.5323 17.6123 48.528C17.6336 48.528 17.6549 48.528 17.674 48.5238C17.6804 48.5238 17.6889 48.5238 17.6953 48.528C17.7719 48.5387 17.8741 48.5535 18.0017 48.5663C18.1911 48.5855 18.5146 48.6131 18.9913 48.6344C19.1615 48.6429 19.3636 48.6493 19.5616 48.6536C19.7871 48.6578 20.0276 48.6621 20.2766 48.6621C21.3448 48.6621 22.6876 48.6153 24.1665 48.5238C27.5586 48.3131 30.9336 48.0045 34.0766 47.7023H34.1021C35.3747 47.5725 37.0473 47.4002 38.6965 47.2278L39.1412 47.181C40.201 47.0682 41.233 46.9639 42.1247 46.8703C42.2289 46.8597 42.3375 46.8554 42.446 46.849C42.4864 46.849 42.5226 46.849 42.5375 46.849C42.5737 46.849 42.612 46.849 42.6567 46.8448C42.9652 46.8384 43.5398 46.8235 44.0441 46.3787C44.1612 46.2681 44.2633 46.1383 44.3527 45.9829L44.3782 45.9297L44.3974 45.8999L44.4016 45.8829C44.5442 45.5978 44.7804 44.9615 44.4548 44.3039V44.2805L44.457 44.2784Z" fill="#243866"/>
<path d="M80.2179 23.5879C80.1413 23.4304 80.0626 23.273 79.9774 23.1198C79.8859 22.9559 79.7902 22.7942 79.6838 22.6367C79.5731 22.4728 79.454 22.3154 79.3242 22.1643C79.188 22.0068 79.0411 21.86 78.8837 21.7259C78.7155 21.5833 78.5347 21.4557 78.3453 21.3429C78.2367 21.279 78.124 21.2195 78.0069 21.1705C77.8963 21.1237 77.7814 21.0896 77.6686 21.0492C77.4643 20.9769 77.2536 20.9194 77.0408 20.879C76.8174 20.8343 76.5897 20.8066 76.362 20.796C76.1236 20.7832 75.8874 20.7875 75.6491 20.8109C75.4044 20.8343 75.1597 20.8747 74.9192 20.9343C74.6702 20.996 74.4255 21.0769 74.1893 21.1769C74.1489 21.1939 74.1084 21.2109 74.0701 21.228C71.1378 22.5495 69.8993 25.9628 67.8415 28.2546C66.8073 29.4059 65.5092 31.0104 64.0366 31.6019C63.1216 31.9722 62.6811 31.5785 62.7726 30.5997C62.8726 29.5314 63.6174 28.3057 63.9409 27.2119C64.3367 25.8734 64.8283 24.3923 63.6898 23.141C62.7896 22.1515 61.1851 22.2983 60.0998 22.8835C59.5168 23.2006 59.0231 23.6922 58.523 24.122C57.6973 24.8243 56.512 26.4479 55.7289 27.2183C55.4076 27.5353 55.1246 27.9929 54.7352 28.2865C54.2968 28.6185 54.0883 28.2035 54.1861 27.9035C54.3883 27.2268 54.7458 26.6139 55.0459 25.9819C55.3736 25.2903 55.8077 24.7732 55.7992 24.2774C55.7949 24.0795 55.4225 23.8326 55.2395 23.7688C54.5394 23.5219 53.6818 23.2198 53.0604 23.6752C52.5284 24.0667 52.0816 24.6626 51.6496 25.2541C51.2389 25.667 50.9154 26.2373 50.5515 26.699C50.194 27.1502 49.8259 27.5949 49.4535 28.0354C48.6661 28.9717 47.8958 29.9144 47.0616 30.8082C46.2828 31.6424 45.4422 32.6468 44.3378 33.0511C43.8867 33.2171 43.2908 33.0937 43.0865 32.6553C42.9163 32.2893 43.0716 31.8616 43.2376 31.4955L43.4398 31.1742L43.9164 30.3188C44.8677 28.7206 45.5805 27.5588 46.7892 25.584C46.8595 25.4371 46.9531 25.2818 47.0531 25.1137L47.1361 24.9732C47.1744 24.903 47.2191 24.8349 47.2617 24.7626C47.4276 24.4881 47.617 24.1774 47.7639 23.7433L47.8022 23.6305L47.8128 23.4113L47.8 23.3283C47.7 22.6516 47.3319 22.3111 47.1127 22.1047C47.0829 22.0792 47.0574 22.0515 47.0254 22.0238L46.9999 22.0004L46.9808 21.9855C46.5871 21.677 46.1849 21.3982 45.6635 21.3876C45.5997 21.3876 45.5337 21.3833 45.4741 21.4046C44.8953 21.6004 43.4866 24.654 43.0738 25.4074L42.912 25.7031C42.6099 26.2522 42.3247 26.7735 42.014 27.2651C40.5968 29.4633 39.2434 31.1998 37.8878 32.5681C37.5857 32.8447 37.1452 33.5129 36.7047 33.5342C36.4365 33.5469 36.2216 33.2256 36.1493 32.9851C36.1301 32.9192 36.1301 32.8511 36.1493 32.7851C36.3685 31.9829 36.7281 31.0316 37.2558 29.8485C37.3792 29.6059 38.0985 28.1737 38.0985 28.1737C38.6752 27.0268 39.2753 25.8372 39.9669 24.5498C40.069 24.3625 40.1542 23.9433 40.3457 23.2538L40.367 23.1708L40.3797 22.941L40.3499 22.824C40.2031 22.2047 39.8796 21.8642 39.6647 21.6408C39.6264 21.6025 39.5902 21.5621 39.5498 21.5152L39.5243 21.4855C39.5243 21.4855 39.437 21.4025 39.4008 21.3684C39.1625 21.1365 38.8348 20.8173 38.2581 20.6555L38.1794 20.6406L38.0283 20.63L37.924 20.6555C37.2941 20.8151 36.8813 21.145 36.6238 21.3791C36.3578 21.6259 35.3236 22.1664 34.4064 22.8452C33.5595 23.4709 32.6232 24.1603 31.5549 24.3157C30.8697 24.4157 31.4038 23.7582 31.5039 23.3709C32.3167 20.2342 30.559 16.0825 26.6222 16.8847C24.1857 17.3806 19.934 21.3386 18.4295 23.2985C15.912 26.5799 12.4179 34.9301 18.0826 37.1645C22.2173 38.7924 27.6267 33.5959 29.3886 30.3294C29.8845 29.4101 30.2015 28.41 30.6463 27.4673C31.5507 27.297 31.9316 27.2204 32.7679 26.8842C33.0637 26.765 34.7618 25.7649 34.6958 26.0117L34.566 26.3607C34.0447 27.5949 33.585 28.8568 33.0998 30.1038L33.0658 30.206C32.7509 31.2615 32.438 32.3936 32.321 33.5746C32.2678 34.096 32.2465 34.8727 32.4444 35.6047C32.6806 36.4751 33.1765 37.1071 33.8744 37.4241C34.2192 37.588 34.5873 37.6859 34.9746 37.7093C35.0342 37.7114 35.0959 37.7135 35.1534 37.7135C36.3365 37.7135 37.3324 37.0858 38.073 36.5346C38.7369 36.0324 39.4902 34.9131 39.9541 34.3513L40.0329 34.2577C40.2584 33.9896 40.5606 33.3107 40.7819 33.0639C40.784 33.0617 40.784 34.0576 40.784 34.0576C40.784 34.645 41.3097 36.2899 41.8268 36.5431C44.9826 38.0923 48.5895 33.3533 50.4749 31.3445C50.0174 32.8809 48.2873 35.1685 50.6622 35.9303C52.6668 36.5729 53.2775 34.7982 54.2351 33.5129C54.8139 32.7362 55.3821 31.9467 55.9609 31.1678C56.6589 30.2294 57.3696 29.2995 58.1229 28.4036C58.4698 27.9907 58.8252 27.5864 59.2018 27.197C59.47 26.9182 59.7466 26.6416 60.0381 26.3884C60.3446 26.1224 60.7085 26.0011 61.117 26.0734C62.2747 26.2841 60.1254 30.2954 59.9615 30.7316C59.687 31.4743 59.5402 32.2935 59.7402 33.0639C60.0488 34.2534 61.1255 34.9727 62.3108 35.0748C62.9386 35.128 63.5366 35.0301 64.1026 34.7492C64.4473 34.5769 65.8518 33.9747 66.1604 33.7831C66.8413 33.3597 67.4904 32.8894 68.1075 32.3765C69.3077 31.3785 70.3972 30.2422 71.3463 29.0037C71.3633 28.9803 71.3803 28.959 71.3995 28.9356C71.5059 28.7951 71.8038 28.0695 72.0209 28.1163C72.1422 28.4185 72.2358 28.7036 72.3763 28.9994C73.0998 30.5082 73.5637 31.3296 73.951 33.2554C74.2659 34.8173 74.5128 36.1622 73.5339 37.6071C72.6805 38.8627 70.7228 40.2054 69.1779 39.4819C69.1736 39.4819 69.1715 39.4776 69.1672 39.4776C68.7225 39.267 68.4522 38.8031 68.4522 38.3115C68.4522 38.0625 68.4799 37.8157 68.5395 37.5752L68.5437 37.5433C68.5778 37.3709 68.631 37.1879 68.6948 36.9666L68.7204 36.8836C68.7799 36.6815 68.8544 36.4325 68.8757 36.1665L68.8821 36.1069C68.9055 35.7175 68.748 35.3536 68.4756 35.0855C68.216 34.8301 67.8606 34.6535 67.4691 34.6237H67.435C66.9541 34.6173 66.5157 34.8003 66.1625 35.1514C65.9433 35.3706 65.7624 35.6515 65.6263 35.9963C64.9453 37.7348 65.0411 39.7011 66.254 41.1928C68.5182 43.9762 73.387 43.3378 75.6002 40.8055C76.9153 39.301 77.3515 37.6518 77.4175 36.2239C77.4834 34.7918 76.8812 32.1744 76.4194 30.821C75.8513 29.1526 74.4255 27.2438 74.7107 25.3925C74.8192 24.6902 75.2852 24.0242 75.9406 23.7326C76.3599 23.5475 76.8514 23.5688 77.2515 23.7922C77.5494 23.9603 77.7388 24.1901 77.9346 24.4455C78.0835 24.6413 78.2304 24.8392 78.4027 25.0137C78.573 25.1839 78.7836 25.3541 79.0262 25.3967C79.3178 25.4478 79.6327 25.4095 79.8923 25.2584C79.9306 25.235 79.9689 25.2116 80.0051 25.1839L80.0221 25.169C80.2817 24.9456 80.4116 24.6413 80.403 24.2902C80.3988 24.071 80.3392 23.8369 80.2179 23.5922V23.5879ZM24.5921 30.3017C23.8026 31.3381 21.6661 33.4725 20.434 33.8406C19.0998 34.2385 18.3997 33.3831 18.4295 31.8339C18.4805 29.1654 19.2956 26.765 21.1129 24.7838C21.4555 24.4114 22.5961 22.9729 23.0983 22.8984C23.1919 22.8857 23.2238 22.8772 23.2877 22.958C23.4515 23.1666 23.5984 23.8816 23.7218 24.1731C23.9814 24.7647 24.6113 25.6053 25.1156 26.0096C25.5795 26.382 26.2413 26.5054 26.5499 26.9736C26.5669 27.3374 24.9156 29.8719 24.5879 30.3017H24.5921ZM27.9203 23.4624C27.9033 23.5666 27.8565 23.8922 27.7501 23.9135C27.1521 23.7667 26.5116 23.2496 26.1966 22.7303C25.5923 21.7366 25.5072 19.9384 27.0159 19.815C27.6309 19.7639 27.8331 20.064 27.9203 20.596C28.0693 21.5152 28.0629 22.5409 27.9203 23.4624Z" fill="#243866"/>
</svg>
