<svg width="9.5rem" height="2rem" viewBox="0 0 151 32" fill="none" xmlns="http://www.w3.org/2000/svg">
<path d="M16.5068 0C7.50502 0 0.234375 7.08769 0.234375 15.8629C0.234375 24.6381 7.50502 31.7258 16.5068 31.7258C25.5085 31.7258 32.7792 24.6381 32.7792 15.8629C32.7792 7.12519 25.5085 0 16.5068 0ZM16.5068 30.0383C8.50522 30.0383 2.00395 23.7006 2.00395 15.9004C2.00395 8.10022 8.50522 1.76255 16.5068 1.76255C24.5083 1.76255 31.0096 8.10022 31.0096 15.9004C31.0096 23.7006 24.5083 30.0383 16.5068 30.0383Z" fill="#E7E514"></path>
<path d="M16.0073 5.96289C11.5834 6.75041 7.69803 10.0505 7.62109 15.8631C7.7365 21.6758 11.6219 24.9759 16.0073 25.7634V5.96289Z" fill="#E8E800"></path>
<path d="M17.0078 5.96289V18.0757C20.1238 18.0757 23.2398 16.0506 23.3167 12.0005C23.2398 7.98793 20.1238 5.96289 17.0078 5.96289Z" fill="#E8E800"></path>
<path d="M16.5068 0C7.50502 0 0.234375 7.08769 0.234375 15.8629C0.234375 24.6381 7.50502 31.7258 16.5068 31.7258C25.5085 31.7258 32.7792 24.6381 32.7792 15.8629C32.7792 7.12519 25.5085 0 16.5068 0ZM16.5068 30.0383C8.50522 30.0383 2.00395 23.7006 2.00395 15.9004C2.00395 8.10022 8.50522 1.76255 16.5068 1.76255C24.5083 1.76255 31.0096 8.10022 31.0096 15.9004C31.0096 23.7006 24.5083 30.0383 16.5068 30.0383Z" fill="#E8E800"></path>
<path d="M49.0523 7.65039C50.0525 7.65039 50.8988 7.80039 51.5913 8.06289C52.2837 8.3254 52.8608 8.70041 53.2839 9.18792C53.7071 9.63793 54.0533 10.163 54.2456 10.763C54.438 11.363 54.5534 11.963 54.5534 12.6005C54.5534 13.238 54.438 13.838 54.2456 14.4381C54.0533 15.0381 53.7455 15.5631 53.2839 16.0131C52.8608 16.4631 52.2837 16.8381 51.5913 17.1381C50.8988 17.4006 50.0525 17.5506 49.0523 17.5506H45.3978V23.0633H41.9355V7.65039H49.0523ZM48.0906 14.9256C48.4753 14.9256 48.86 14.8881 49.2447 14.8506C49.6294 14.7756 49.9371 14.6631 50.2064 14.5131C50.4757 14.3631 50.7065 14.1006 50.8988 13.8005C51.0527 13.5005 51.1681 13.088 51.1681 12.6005C51.1681 12.113 51.0912 11.7005 50.8988 11.4005C50.745 11.1005 50.5141 10.8755 50.2064 10.688C49.9371 10.538 49.5909 10.4255 49.2447 10.3505C48.86 10.2755 48.4753 10.2755 48.0906 10.2755H45.3978V14.8881H48.0906V14.9256Z" fill="white"></path>
<path d="M59.131 7.65039V13.463H59.208C59.5927 12.8255 60.1312 12.338 60.7467 12.038C61.3622 11.738 61.9777 11.588 62.5548 11.588C63.4011 11.588 64.0935 11.7005 64.6321 11.9255C65.1707 12.1505 65.5938 12.4505 65.9016 12.863C66.2093 13.2755 66.4401 13.7255 66.5555 14.3256C66.671 14.8881 66.7479 15.5256 66.7479 16.2006V23.0633H63.5934V16.7631C63.5934 15.8256 63.4396 15.1506 63.1318 14.7006C62.8241 14.2506 62.324 14.0256 61.5546 14.0256C60.7083 14.0256 60.0928 14.2881 59.7081 14.7756C59.3234 15.2631 59.131 16.0881 59.131 17.2131V23.0633H55.9766V7.65039H59.131Z" fill="white"></path>
<path d="M68.8646 15.0755C69.1339 14.363 69.557 13.7254 70.0571 13.2004C70.5572 12.6754 71.2112 12.3004 71.9036 12.0004C72.6345 11.7379 73.4424 11.5879 74.3272 11.5879C75.212 11.5879 76.0583 11.7379 76.7892 12.0004C77.5201 12.2629 78.1356 12.6754 78.6742 13.2004C79.1743 13.7254 79.5974 14.3255 79.8667 15.0755C80.136 15.788 80.2899 16.613 80.2899 17.513C80.2899 18.4131 80.136 19.2006 79.8667 19.9506C79.5974 20.6631 79.1743 21.3006 78.6742 21.7881C78.1741 22.3132 77.5201 22.6882 76.7892 22.9507C76.0583 23.2132 75.2504 23.3632 74.3272 23.3632C73.4424 23.3632 72.5961 23.2132 71.9036 22.9507C71.1727 22.6882 70.5572 22.2757 70.0571 21.7881C69.557 21.2631 69.1339 20.6631 68.8646 19.9506C68.5953 19.2381 68.4414 18.4131 68.4414 17.513C68.4414 16.613 68.5568 15.788 68.8646 15.0755ZM71.7113 18.8256C71.7882 19.2381 71.9421 19.6506 72.1729 19.9881C72.4037 20.3256 72.673 20.5881 73.0192 20.8131C73.3654 21.0006 73.8271 21.1131 74.3656 21.1131C74.9042 21.1131 75.3274 21.0006 75.7121 20.8131C76.0583 20.6256 76.366 20.3256 76.5584 19.9881C76.7892 19.6506 76.9431 19.2756 77.02 18.8256C77.097 18.4131 77.1354 17.963 77.1354 17.513C77.1354 17.063 77.097 16.613 77.02 16.2005C76.9431 15.788 76.7892 15.3755 76.5584 15.038C76.3276 14.7005 76.0583 14.438 75.7121 14.213C75.3658 13.988 74.9042 13.9129 74.3656 13.9129C73.8271 13.9129 73.4039 14.0255 73.0192 14.213C72.673 14.438 72.3653 14.7005 72.1729 15.038C71.9421 15.3755 71.8267 15.7505 71.7113 16.2005C71.6343 16.6505 71.5959 17.063 71.5959 17.513C71.5959 17.963 71.6343 18.3756 71.7113 18.8256Z" fill="white"></path>
<path d="M88.2519 11.9259V13.9884H85.9437V19.5011C85.9437 20.0261 86.0207 20.3636 86.213 20.5511C86.4054 20.7386 86.7516 20.8136 87.2902 20.8136C87.4825 20.8136 87.6364 20.8136 87.7903 20.7761C87.9441 20.7761 88.098 20.7386 88.2519 20.7011V23.0636C87.9826 23.1011 87.6749 23.1386 87.3671 23.1386C87.0594 23.1386 86.7131 23.1762 86.4054 23.1762C85.9053 23.1762 85.4437 23.1386 85.0205 23.0636C84.5973 22.9886 84.2126 22.8761 83.8664 22.6886C83.5202 22.5011 83.2894 22.2386 83.097 21.9011C82.9047 21.5636 82.8278 21.1136 82.8278 20.5511V13.9509H80.9043V11.8884H82.8278V8.55078H85.9822V11.8884H88.2519V11.9259Z" fill="white"></path>
<path d="M89.638 15.338C89.6765 14.6255 89.8688 14.0254 90.1766 13.5379C90.4843 13.0504 90.9075 12.6754 91.4076 12.3754C91.9077 12.0754 92.4847 11.8879 93.1002 11.7754C93.7157 11.6629 94.3697 11.5879 94.9852 11.5879C95.5622 11.5879 96.1393 11.6254 96.7548 11.7004C97.3318 11.7754 97.8704 11.9254 98.3705 12.1504C98.8706 12.3754 99.2553 12.7129 99.563 13.1254C99.8708 13.5379 100.025 14.063 100.025 14.738V20.5506C100.025 21.0381 100.063 21.5256 100.102 22.0132C100.179 22.4632 100.255 22.8382 100.409 23.0632H97.2164C97.1395 22.8757 97.101 22.7257 97.0625 22.5382C97.0241 22.3507 96.9856 22.1632 96.9856 21.9756C96.4855 22.4632 95.9085 22.8382 95.216 23.0257C94.5236 23.2132 93.8311 23.3257 93.1387 23.3257C92.6001 23.3257 92.1 23.2507 91.5999 23.1382C91.1383 23.0257 90.7151 22.8007 90.3689 22.5382C90.0227 22.2757 89.7534 21.9382 89.5226 21.4881C89.3303 21.0756 89.2148 20.5881 89.2148 19.9881C89.2148 19.3506 89.3302 18.8256 89.5611 18.4131C89.7919 18.0005 90.0996 17.663 90.4459 17.438C90.7921 17.1755 91.2152 17.0255 91.6769 16.8755C92.1385 16.763 92.6001 16.6505 93.1002 16.5755C93.5618 16.5005 94.0235 16.463 94.4851 16.388C94.9467 16.3505 95.3314 16.2755 95.7161 16.2005C96.0623 16.1255 96.3701 15.9755 96.5624 15.8255C96.7548 15.6755 96.8702 15.413 96.8317 15.113C96.8317 14.7755 96.7932 14.513 96.6778 14.3255C96.5624 14.138 96.4086 13.9879 96.2162 13.8754C96.0239 13.7629 95.8315 13.6879 95.5622 13.6504C95.3314 13.6129 95.0621 13.6129 94.7929 13.6129C94.1774 13.6129 93.6773 13.7254 93.331 13.9879C92.9848 14.2505 92.754 14.663 92.7155 15.3005H89.638V15.338ZM96.9087 17.6255C96.7932 17.738 96.6009 17.813 96.4086 17.888C96.2162 17.963 95.9854 18.0005 95.7546 18.038C95.5238 18.0755 95.293 18.1131 95.0237 18.1506C94.7544 18.1881 94.5236 18.2256 94.2543 18.2631C94.0235 18.3006 93.7927 18.3756 93.5619 18.4506C93.331 18.5256 93.1387 18.6381 92.9463 18.7506C92.7925 18.8631 92.6386 19.0131 92.5232 19.2006C92.4078 19.3881 92.3693 19.6131 92.3693 19.9131C92.3693 20.1756 92.4078 20.4006 92.5232 20.5881C92.6386 20.7756 92.754 20.9256 92.9463 21.0381C93.1387 21.1506 93.331 21.2256 93.5619 21.2631C93.7927 21.3006 94.0235 21.3381 94.2928 21.3381C94.9083 21.3381 95.4084 21.2256 95.7161 21.0381C96.0623 20.8506 96.2931 20.5881 96.4855 20.3256C96.6394 20.0631 96.7548 19.7631 96.7933 19.4631C96.8317 19.1631 96.8317 18.9381 96.8317 18.7881V17.6255H96.9087Z" fill="white"></path>
<path d="M105.987 7.65039V20.2132H113.681V23.0633H102.486V7.65039H105.987Z" fill="white"></path>
<path d="M114.835 15.338C114.874 14.6255 115.066 14.0254 115.374 13.5379C115.682 13.0504 116.105 12.6754 116.605 12.3754C117.105 12.0754 117.682 11.8879 118.297 11.7754C118.913 11.6629 119.567 11.5879 120.182 11.5879C120.76 11.5879 121.337 11.6254 121.952 11.7004C122.529 11.7754 123.068 11.9254 123.568 12.1504C124.068 12.3754 124.453 12.7129 124.76 13.1254C125.068 13.5379 125.222 14.063 125.222 14.738V20.5506C125.222 21.0381 125.26 21.5256 125.299 22.0132C125.376 22.4632 125.453 22.8382 125.607 23.0632H122.414C122.337 22.8757 122.298 22.7257 122.26 22.5382C122.221 22.3507 122.183 22.1632 122.183 21.9756C121.683 22.4632 121.106 22.8382 120.413 23.0257C119.721 23.2132 119.028 23.3257 118.336 23.3257C117.797 23.3257 117.297 23.2507 116.797 23.1382C116.336 23.0257 115.912 22.8007 115.566 22.5382C115.22 22.2757 114.951 21.9382 114.72 21.4881C114.528 21.0756 114.412 20.5881 114.412 19.9881C114.412 19.3506 114.528 18.8256 114.758 18.4131C114.989 18.0005 115.297 17.663 115.643 17.438C115.989 17.1755 116.412 17.0255 116.874 16.8755C117.336 16.763 117.797 16.6505 118.297 16.5755C118.759 16.5005 119.221 16.463 119.682 16.388C120.144 16.3505 120.529 16.2755 120.913 16.2005C121.26 16.1255 121.567 15.9755 121.76 15.8255C121.952 15.6755 122.067 15.413 122.029 15.113C122.029 14.7755 121.991 14.513 121.875 14.3255C121.76 14.138 121.606 13.9879 121.413 13.8754C121.221 13.7629 121.029 13.6879 120.76 13.6504C120.529 13.6129 120.259 13.6129 119.99 13.6129C119.375 13.6129 118.875 13.7254 118.528 13.9879C118.182 14.2505 117.951 14.663 117.913 15.3005H114.835V15.338ZM122.106 17.6255C121.991 17.738 121.798 17.813 121.606 17.888C121.413 17.963 121.183 18.0005 120.952 18.038C120.721 18.0755 120.49 18.1131 120.221 18.1506C119.952 18.1881 119.721 18.2256 119.452 18.2631C119.221 18.3006 118.99 18.3756 118.759 18.4506C118.528 18.5256 118.336 18.6381 118.144 18.7506C117.99 18.8631 117.836 19.0131 117.72 19.2006C117.605 19.3881 117.567 19.6131 117.567 19.9131C117.567 20.1756 117.605 20.4006 117.72 20.5881C117.836 20.7756 117.951 20.9256 118.144 21.0381C118.336 21.1506 118.528 21.2256 118.759 21.2631C118.99 21.3006 119.221 21.3381 119.49 21.3381C120.106 21.3381 120.606 21.2256 120.913 21.0381C121.26 20.8506 121.49 20.5881 121.683 20.3256C121.837 20.0631 121.952 19.7631 121.991 19.4631C122.029 19.1631 122.029 18.9381 122.029 18.7881V17.6255H122.106Z" fill="white"></path>
<path d="M130.608 7.65039V13.2755H130.646C131.031 12.713 131.569 12.263 132.223 12.0005C132.877 11.738 133.57 11.588 134.262 11.588C134.839 11.588 135.416 11.7005 135.955 11.9255C136.532 12.1505 137.032 12.5255 137.455 12.9755C137.917 13.463 138.263 14.063 138.571 14.8131C138.84 15.5631 138.994 16.4256 138.994 17.4756C138.994 18.4882 138.84 19.3882 138.571 20.1382C138.301 20.8882 137.917 21.4882 137.455 21.9757C136.993 22.4633 136.493 22.8008 135.955 23.0258C135.378 23.2508 134.839 23.3633 134.262 23.3633C133.416 23.3633 132.685 23.2508 131.992 22.9883C131.3 22.7258 130.838 22.2758 130.492 21.6757H130.454V23.1008H127.453V7.68788H130.608V7.65039ZM135.724 16.1256C135.609 15.6756 135.455 15.3006 135.224 14.9631C134.993 14.6256 134.724 14.3631 134.378 14.1756C134.031 13.988 133.647 13.8755 133.185 13.8755C132.723 13.8755 132.339 13.988 131.992 14.1756C131.646 14.3631 131.377 14.6256 131.146 14.9631C130.915 15.3006 130.761 15.6756 130.646 16.1256C130.531 16.5756 130.492 17.0256 130.492 17.4756C130.492 17.9256 130.531 18.3757 130.646 18.8257C130.761 19.2757 130.915 19.6507 131.146 19.9882C131.377 20.3257 131.646 20.5882 131.992 20.7757C132.339 20.9632 132.723 21.0757 133.185 21.0757C133.647 21.0757 134.07 20.9632 134.378 20.7757C134.724 20.5882 134.993 20.3257 135.224 19.9882C135.455 19.6507 135.609 19.2757 135.724 18.8257C135.839 18.3757 135.878 17.9631 135.878 17.4756C135.878 17.0256 135.801 16.5756 135.724 16.1256Z" fill="white"></path>
<path d="M143.416 20.2884C143.57 20.5134 143.724 20.7384 143.955 20.8884C144.186 21.0384 144.417 21.1509 144.724 21.2259C144.994 21.3009 145.301 21.3384 145.609 21.3384C145.84 21.3384 146.071 21.3009 146.302 21.2634C146.532 21.2259 146.763 21.1509 146.956 21.0384C147.148 20.9259 147.302 20.7759 147.456 20.5884C147.609 20.4009 147.648 20.1759 147.648 19.9134C147.648 19.4634 147.34 19.0884 146.725 18.8634C146.109 18.6384 145.224 18.4134 144.109 18.1883C143.647 18.0758 143.186 17.9633 142.762 17.8508C142.339 17.7008 141.955 17.5508 141.608 17.3258C141.262 17.1008 140.993 16.8383 140.8 16.5008C140.608 16.1633 140.493 15.7508 140.493 15.2633C140.493 14.5508 140.647 13.9507 140.916 13.5007C141.185 13.0507 141.57 12.6757 142.07 12.4132C142.532 12.1507 143.07 11.9632 143.647 11.8507C144.224 11.7382 144.84 11.7007 145.455 11.7007C146.071 11.7007 146.686 11.7757 147.263 11.8882C147.84 12.0007 148.379 12.1882 148.84 12.4882C149.302 12.7507 149.687 13.1257 149.995 13.5757C150.302 14.0257 150.495 14.5883 150.533 15.3008H147.533C147.494 14.7008 147.263 14.3257 146.84 14.1007C146.417 13.8757 145.955 13.8007 145.378 13.8007C145.186 13.8007 144.994 13.8007 144.801 13.8382C144.609 13.8757 144.417 13.9132 144.224 13.9882C144.07 14.0632 143.916 14.1757 143.801 14.2882C143.686 14.4383 143.609 14.6258 143.609 14.8508C143.609 15.1133 143.724 15.3383 143.916 15.5258C144.109 15.7133 144.378 15.8258 144.724 15.9383C145.071 16.0508 145.455 16.1258 145.878 16.2383C146.302 16.3133 146.725 16.4258 147.186 16.5008C147.648 16.6133 148.11 16.7258 148.533 16.8758C148.956 17.0258 149.341 17.2133 149.687 17.4383C150.033 17.6633 150.302 17.9633 150.495 18.3384C150.687 18.6759 150.802 19.1259 150.802 19.6509C150.802 20.4009 150.649 21.0009 150.341 21.4884C150.033 21.9759 149.648 22.3885 149.148 22.6885C148.648 22.9885 148.11 23.2135 147.494 23.326C146.879 23.4385 146.225 23.5135 145.571 23.5135C144.917 23.5135 144.263 23.4385 143.609 23.326C142.955 23.2135 142.416 22.9885 141.916 22.6885C141.416 22.3885 141.031 21.9759 140.685 21.4884C140.377 21.0009 140.185 20.3634 140.146 19.6134H143.147C143.224 19.7634 143.301 20.0634 143.416 20.2884Z" fill="white"></path>
</svg>
