<svg preserveAspectRatio="none" width="100%" height="100%" overflow="visible" style="display: block;" viewBox="0 0 125 44" fill="none" xmlns="http://www.w3.org/2000/svg">
<g id="Group 9">
<g id="Layer_1" clip-path="url(#clip0_1_15401)">
<path id="Vector" d="M17.4208 31.1628L15.0947 22.1693L13.274 28.3696L14.2604 32.1825C14.2604 32.1825 16.1549 33.9249 17.4208 31.1628Z" fill="var(--fill-0, #0CC4FF)"/>
<path id="Vector_2" d="M26.5934 13.9157C26.6672 14.2637 26.6896 14.4677 26.6248 14.7404L21.2187 30.7123C21.2187 30.7123 20.3241 34.4387 17.5708 34.5806C17.0317 34.6072 16.4927 34.483 16.014 34.237C15.4124 33.9288 14.6161 33.3214 14.2605 32.182C14.2605 32.182 16.6873 34.4165 17.8817 29.83L25.0811 7.74266L25.1175 7.65462L26.5934 13.9157Z" fill="var(--fill-0, white)"/>
<path id="Vector_3" d="M34.319 13.7028H38.0989L43.9187 31.5679H39.8771L38.6402 27.7151H32.1002L31.1809 30.577C30.9908 31.1667 30.4384 31.5679 29.8143 31.5679H26.8731L32.2232 15.2147C32.5184 14.3147 33.3639 13.7051 34.319 13.7051V13.7028ZM37.5062 24.1417L35.3702 17.4559L33.2319 24.1417H37.5062Z" fill="var(--fill-0, white)"/>
<path id="Vector_4" d="M48.3742 24.7534L44.5898 18.1695H48.8126L51.2841 22.6098L53.731 18.1695H57.9807L54.1694 24.7024L58.0567 31.5678H53.8854L51.2841 26.8726L48.6314 31.5678H44.4332L48.372 24.7534H48.3742Z" fill="var(--fill-0, white)"/>
<path id="Vector_5" d="M59.8927 18.1696H63.6257V19.8034C64.2184 18.7837 65.4798 17.9413 67.1529 17.9413C68.8259 17.9413 70.1902 18.6551 71.0156 19.728C71.7872 18.8103 73.127 17.9413 75.1355 17.9413C78.1214 17.9413 80.3111 20.1359 80.3111 22.6121V31.5701H76.5781V23.8889C76.5781 22.4591 75.5739 21.5148 74.2856 21.5148C72.7915 21.5148 71.9684 22.5611 71.9684 23.8889V31.5701H68.2354V23.8889C68.2354 22.4591 67.2311 21.5148 65.9428 21.5148C64.4487 21.5148 63.6257 22.5611 63.6257 23.8889V31.5701H59.8927V18.1718V18.1696Z" fill="var(--fill-0, white)"/>
<path id="Vector_6" d="M82.0535 24.88C82.0535 21.0006 84.988 17.9392 89.2377 17.9392C93.7446 17.9392 96.1378 21.3841 96.1378 24.88V26.2322H85.8648C86.3546 27.815 87.6675 28.5532 89.2377 28.5532C91.2976 28.5532 92.4048 27.4315 92.7403 26.7421L95.5719 28.4268C95.0575 29.5751 93.0736 31.7963 89.2377 31.7963C84.6548 31.7963 82.0535 28.7083 82.0535 24.88ZM92.2505 23.3238C92.1476 22.5324 91.273 21.1026 89.1862 21.1026C87.8465 21.1026 86.4821 21.8164 85.9409 23.3238H92.2482H92.2505Z" fill="var(--fill-0, white)"/>
<path id="Vector_7" d="M97.4263 24.8795C97.4263 20.6676 100.593 17.9388 104.121 17.9388C105.872 17.9388 107.545 18.6526 108.317 19.6479V14.106C108.317 13.319 108.961 12.6828 109.753 12.6828H112.05V31.5676H108.317V30.0868C107.545 31.0821 105.87 31.7959 104.121 31.7959C100.593 31.7959 97.4263 29.2444 97.4263 24.8795ZM104.792 28.3266C106.852 28.3266 108.346 26.8214 108.346 24.8818C108.346 22.9421 106.852 21.4369 104.792 21.4369C102.732 21.4369 101.238 22.9421 101.238 24.8818C101.238 26.8214 102.68 28.3266 104.792 28.3266Z" fill="var(--fill-0, white)"/>
<path id="Vector_8" d="M0.12716 29.9564C0.0533499 29.6083 0.0309833 29.4044 0.0958464 29.1317L5.50185 13.1598C5.50185 13.1598 6.39652 9.43338 9.14984 9.29151C9.68888 9.26491 10.2279 9.38905 10.7066 9.63511C11.3082 9.94324 12.1045 10.5506 12.4601 11.6901C12.4601 11.6901 10.0333 9.45555 8.83895 14.0421L1.66151 36.1368L1.704 36.2986C1.704 36.2986 1.63019 36.2986 1.60335 36.2121L0.12716 29.9564Z" fill="var(--fill-0, white)"/>
<path id="Vector_9" d="M6.04173 40.1312L3.52465 30.4053L1.60867 36.2252L1.65117 36.387L2.89699 41.2019C2.89699 41.2019 4.74447 42.4632 6.04173 40.1334V40.1312Z" fill="var(--fill-0, #0CC4FF)"/>
<path id="Vector_10" d="M13.4555 15.5291L12.4624 11.6897C12.4624 11.6897 10.5679 9.94727 9.30198 12.7094L11.6326 21.7228L13.4555 15.5291Z" fill="var(--fill-0, #0CC4FF)"/>
<path id="Vector_11" d="M25.1174 7.65536L23.8313 2.68089C23.8313 2.68089 21.9816 1.40624 20.6843 3.74717L23.2034 13.504L25.1174 7.65536Z" fill="var(--fill-0, #0CC4FF)"/>
<path id="Vector_12" d="M22.0465 0.625681C21.5612 0.381835 21.0177 0.255478 20.4742 0.275429C17.7275 0.375184 16.8866 3.87327 16.8866 3.87327L6.7016 38.3978C5.50723 42.9843 2.89705 41.1998 2.89705 41.1998C3.25268 42.3414 4.06458 42.9488 4.6819 43.2592C5.22988 43.5341 5.84049 43.6493 6.4511 43.5983C9.01878 43.3855 9.75241 40.3884 9.75241 40.3884L20.0313 5.47601C21.2257 0.889478 23.8314 2.68507 23.8314 2.68507C23.4758 1.54343 22.6616 0.936031 22.0465 0.625681Z" fill="var(--fill-0, white)"/>
</g>
<path id="Vector_13" fill-rule="evenodd" clip-rule="evenodd" d="M116.192 13.3518H114.95V12.38H118.314V13.3518H117.071V17.1746H116.192V13.3518Z" fill="var(--fill-0, white)"/>
<path id="Vector_14" fill-rule="evenodd" clip-rule="evenodd" d="M119.276 12.38H120.684L121.686 15.6688L122.687 12.38H124.083V17.1746H123.132V14.0848L122.196 17.1746H121.155L120.225 14.0848V17.1746H119.276V12.38Z" fill="var(--fill-0, white)"/>
</g>
<defs>
<clipPath id="clip0_1_15401">
<rect width="112.197" height="43.6398" fill="white"/>
</clipPath>
</defs>
</svg>
