<svg width="176" height="28" viewBox="0 0 176 28" fill="none" xmlns="http://www.w3.org/2000/svg">
<path d="M36.2123 27.0882H32.9844L39.1027 0.984375H42.2972L36.2156 27.0882H36.2123Z" fill="#232323"/>
<path d="M51.225 27.0882H40.4453L46.6071 0.984375H49.835L44.3549 24.1665H51.9L51.225 27.0882Z" fill="#232323"/>
<path d="M59.6791 16.9941L57.35 27.0882H54.082L56.4478 16.9184L54.6467 0.984375H57.9147L58.8537 13.704L65.8742 0.984375H69.5165L59.6791 16.9941Z" fill="#232323"/>
<path d="M131.971 3.906H127.24L122.127 27.0882H118.859L123.972 3.906H118.789L119.504 0.984375H132.686L131.971 3.906Z" fill="#232323"/>
<path d="M131.863 27.0882H128.969L134.756 0.984375H137.947L132.2 27.0882H131.863Z" fill="#232323"/>
<path d="M152.957 8.32923L150.103 21.1377C149.716 22.9505 149.174 24.2468 148.473 25.1713C147.403 26.6157 145.652 27.3198 143.283 27.3198C139.377 27.3198 137.138 25.6155 137.095 22.6939C137.082 21.8417 137.185 21.0653 137.499 19.6604L140.353 6.85197C141.302 2.51889 143.527 0.554688 147.397 0.554688C151.266 0.554688 153.281 2.33135 153.325 5.29246C153.338 6.1446 153.234 7.03293 152.954 8.32594H152.957V8.32923ZM147.25 3.29535C146.124 3.29535 145.265 3.66385 144.677 4.40412C144.196 4.99634 143.948 5.77281 143.591 7.28956L140.737 20.1704C140.56 20.9468 140.46 21.6871 140.466 22.2431C140.49 23.7994 141.516 24.6482 143.28 24.6482C145.158 24.6482 146.157 23.5756 146.755 20.9106L149.646 8.17789C149.926 6.91777 150.033 6.32555 150.023 5.73333C150 4.14091 149.011 3.28877 147.243 3.28877H147.246L147.25 3.29535Z" fill="#232323"/>
<path d="M72.0176 1.01172H77.4275L78.9144 15.9785C79.1818 18.8639 79.3321 21.1933 79.5259 24.3452H79.6028C80.8592 21.2328 81.9285 18.8705 83.3353 15.9785L90.72 1.01172H96.2068L93.2763 27.0793H89.6942L91.5621 11.5138C91.9063 8.70072 92.2872 6.29894 92.745 3.4135L92.6681 3.37402C91.3716 6.18707 90.2288 8.66124 88.822 11.5138L81.2802 27.0793H76.669L75.2221 11.5138C74.9548 8.70072 74.7643 6.18707 74.5738 3.4135H74.5003C73.8554 6.18707 73.2439 8.66453 72.4419 11.5138L68.2517 27.0793H64.6328L72.0176 1.01172Z" fill="#232323"/>
<path d="M117.604 14.0331C115.669 24.0449 111.459 27.5554 104.819 27.5554C99.5829 27.5554 96.6992 25.3149 96.6992 19.5605C96.6992 17.8397 96.8863 16.1585 97.3074 14.0693C99.319 4.06072 103.456 0.546875 110.132 0.546875C115.328 0.546875 118.252 2.78744 118.252 8.54186C118.252 10.2626 118.025 11.9438 117.607 14.0331H117.604ZM109.711 3.31386C105.387 3.31386 102.467 6.11704 100.873 14.1449C100.455 16.0104 100.228 17.843 100.228 19.34C100.228 23.2224 101.895 24.7917 105.197 24.7917C109.561 24.7917 112.441 21.9886 114.075 13.9607C114.456 12.0952 114.72 10.2626 114.72 8.76559C114.72 4.91615 113.053 3.31386 109.711 3.31386Z" fill="#232323"/>
<path d="M11.4647 0.976562C10.8466 0.976562 5.43664 1.0654 5.43664 1.0654L0 27.1297H2.56294V27.1264C4.02318 27.1133 4.56451 27.1429 5.99134 27.1429C12.6577 27.1429 16.878 24.1521 18.8194 14.1732H18.8228C19.2404 12.0906 19.471 10.4159 19.471 8.70176C19.471 2.96379 16.6842 0.976562 11.4647 0.976562ZM15.5648 14.1634C13.9241 22.1649 11.2977 23.9942 6.91694 24.0173C5.38652 24.0238 5.039 24.0107 3.8795 23.9942L8.03968 3.88174V3.88832C9.34288 3.85871 9.65029 3.84554 10.8466 3.8587C14.2014 3.88832 16.213 5.15501 16.213 8.99129C16.213 10.4817 15.949 12.3077 15.5681 14.1666L15.5648 14.1634Z" fill="#232323"/>
<path d="M172.539 0.976562L167.373 24.3594L163.537 0.976562H158.137L152.266 27.0968H155.661L160.823 3.31255L164.629 27.0968H169.972L175.81 0.976562H172.539Z" fill="#232323"/>
<path d="M27.9896 0.992188L17.25 27.096H20.7018L22.6566 22.2167L23.8963 19.1865L24.334 18.0153H27.9562L27.8393 19.1865L27.5753 22.22L27.201 27.0993H30.469L32.494 0.992188H27.9863H27.9896ZM25.4802 14.9456L29.6403 3.36107L28.2703 14.9456H25.4835H25.4802Z" fill="#232323"/>
</svg>