<svg width="256" height="256" viewBox="0 0 256 256" fill="none" xmlns="http://www.w3.org/2000/svg">
<path d="M166.936 151.79C164.998 146.13 161.606 141.886 154.337 137.641C159.183 136.226 162.575 135.282 164.513 134.339C163.059 130.566 161.606 128.679 158.213 126.321C166.936 109.813 177.596 102.266 176.628 95.6632C171.297 98.4932 165.967 108.398 156.275 112.643C158.213 96.6062 165.482 87.1733 165.482 81.5134C165.482 78.6834 162.09 73.0235 159.183 69.25C143.191 92.3613 133.5 120.189 133.5 150.375C133.5 170.185 137.861 189.523 145.13 206.974C149.976 210.276 153.852 213.106 157.729 218.765C157.244 206.031 162.575 201.314 158.213 175.845C160.152 176.788 162.09 178.203 164.028 178.203C164.513 171.128 164.028 162.167 159.183 148.96C161.606 148.96 163.059 149.904 166.936 151.79Z" fill="url(#paint0_linear_3987_3828)"/>
<path d="M53.8827 176.377C44.5926 179.542 37.1605 184.063 31.1219 189.94C19.0448 172.308 11.6127 150.606 11.6127 128C11.6127 66.0596 63.1728 15.8744 126.81 15.8744C190.448 15.8744 242.008 66.0596 242.008 128C242.008 178.637 207.17 221.588 159.79 235.605V225.658C160.719 225.658 162.113 226.562 163.971 228.822C166.293 215.259 166.758 201.243 164.9 186.776C169.08 188.584 172.332 191.749 175.119 195.366C176.048 184.515 173.725 172.76 167.687 161.005C171.403 162.361 174.19 165.074 176.512 169.143C177.441 159.196 176.048 150.606 167.687 142.468C170.474 142.92 172.332 144.729 176.512 148.345C174.19 136.59 166.758 134.329 166.758 126.192C166.758 113.532 191.841 104.038 178.835 88.6658C174.654 93.1867 170.474 97.2559 165.829 100.421C167.687 93.1867 171.867 84.5966 171.867 80.5274C171.867 76.0064 159.79 60.6342 157.932 58.3734C157.468 57.9217 155.145 57.4694 153.287 57.9217C147.713 58.3734 149.571 61.9904 147.248 64.2511C143.997 68.3203 139.352 73.2935 136.1 78.2667C133.778 80.9796 132.384 85.0488 130.062 85.5006C95.2238 90.926 91.9724 121.67 58.528 118.505C59.9214 128.452 68.2822 134.782 78.9662 139.303C73.8563 152.866 61.7794 164.622 45.9861 175.473C48.7732 175.473 51.0959 175.925 53.8827 176.377ZM0 128C0 196.27 56.6699 251.429 126.81 251.429C196.95 251.429 253.62 196.27 253.62 128C253.62 59.7302 196.95 4.57141 126.81 4.57141C56.6699 4.57141 0 59.7302 0 128ZM121.236 124.383C117.055 124.835 116.127 125.287 111.946 126.644C112.411 116.697 125.417 104.038 137.958 90.022C143.997 83.2403 151.894 68.7725 154.681 68.7725C156.539 68.7725 164.435 79.6234 164.435 83.6921C164.435 89.1175 157.468 98.1599 155.61 113.532C164.9 109.463 169.545 99.9684 175.119 97.2559C176.512 104.038 165.829 111.271 157.468 127.096C160.719 129.808 162.113 131.617 163.506 134.782C161.648 135.686 158.397 136.59 153.752 137.947C161.184 142.016 164.435 146.537 165.829 151.51C162.577 149.702 160.719 149.249 157.932 148.798C162.577 161.005 163.042 170.047 162.577 176.829C160.719 176.829 158.397 175.925 157.003 174.568C161.184 198.983 156.074 203.504 156.539 215.711C152.822 210.286 149.106 207.121 144.462 204.408C141.21 216.615 136.1 222.041 132.849 225.205C135.636 208.025 135.172 192.653 127.739 177.281C125.417 179.542 124.952 182.254 123.559 185.419C114.269 179.09 110.553 169.595 116.127 152.415C111.946 155.579 110.553 158.292 108.23 161.005C105.443 140.207 111.946 132.521 121.236 124.383Z" fill="#10121F"/>
<defs>
<linearGradient id="paint0_linear_3987_3828" x1="148.673" y1="221.218" x2="168.2" y2="72.2898" gradientUnits="userSpaceOnUse">
<stop stop-color="#4C4EF0"/>
<stop offset="1" stop-color="#4C4EF0" stop-opacity="0"/>
</linearGradient>
</defs>
</svg>
