<?xml version="1.0" encoding="UTF-8"?><svg id="Ebene_2" xmlns="http://www.w3.org/2000/svg" viewBox="0 0 1048.38 199.24"><g id="Ebene_1-2"><path d="m206.11,162.9h44.56c4,0,7.12.86,9.34,2.57s3.33,3.97,3.33,6.76c0,3.13-1.38,5.54-4.14,7.22,1.95.88,3.44,2.09,4.47,3.63,1.03,1.55,1.54,3.31,1.54,5.3,0,3.16-1.22,5.71-3.66,7.65-2.44,1.93-5.83,2.9-10.17,2.9h-45.27v-36.03Zm9.39,7.22v6.46h34.12c1.31,0,2.35-.29,3.1-.86.76-.57,1.14-1.36,1.14-2.37s-.38-1.8-1.14-2.37c-.76-.57-1.79-.86-3.1-.86h-34.12Zm0,13.68v7.92h34.97c1.58,0,2.82-.35,3.71-1.06.89-.71,1.34-1.68,1.34-2.93s-.45-2.21-1.34-2.9c-.89-.69-2.13-1.03-3.71-1.03h-34.97Z" style="fill:#79ff9c; stroke-width:0px;"/><path d="m287.81,198.94h-9.49v-36.03h9.49v36.03Z" style="fill:#79ff9c; stroke-width:0px;"/><path d="m302.73,173.7c1.03-2.22,2.47-4.16,4.34-5.83,1.87-1.67,4.11-2.96,6.74-3.89,2.62-.92,5.52-1.39,8.68-1.39h26.9c3.2,0,6.1.46,8.71,1.39,2.61.93,4.84,2.22,6.71,3.89,1.87,1.67,3.31,3.61,4.34,5.83,1.03,2.22,1.54,4.63,1.54,7.22s-.51,5-1.54,7.22c-1.03,2.22-2.47,4.16-4.34,5.83-1.87,1.67-4.1,2.96-6.71,3.89-2.61.93-5.51,1.39-8.71,1.39h-26.9c-3.16,0-6.06-.46-8.68-1.39-2.62-.92-4.87-2.22-6.74-3.89-1.87-1.67-3.31-3.61-4.34-5.83-1.03-2.22-1.54-4.63-1.54-7.22s.51-5,1.54-7.22Zm9.64,12.54c.96,1.56,2.32,2.79,4.09,3.68,1.77.89,3.86,1.34,6.28,1.34h26.39c2.42,0,4.52-.45,6.28-1.34,1.77-.89,3.13-2.12,4.09-3.68.96-1.56,1.44-3.34,1.44-5.32s-.48-3.8-1.44-5.35c-.96-1.55-2.32-2.77-4.09-3.66-1.77-.89-3.86-1.34-6.28-1.34h-26.39c-2.42,0-4.52.45-6.28,1.34-1.77.89-3.13,2.11-4.09,3.66-.96,1.55-1.44,3.33-1.44,5.35s.48,3.76,1.44,5.32Z" style="fill:#79ff9c; stroke-width:0px;"/><path d="m416.5,198.94h-9.44v-28.21h-26.75v-7.82h62.83v7.82h-26.65v28.21Z" style="fill:#79ff9c; stroke-width:0px;"/><path d="m474.34,162.9h14.64l26.95,36.03h-11.76l-5.3-7.37h-34.87l-5.35,7.37h-11.25l26.95-36.03Zm19.33,21.45l-9.94-13.83h-4.49l-10.04,13.83h24.48Z" style="fill:#79ff9c; stroke-width:0px;"/><path d="m525.36,188.16c-1.01-2.24-1.51-4.67-1.51-7.29s.5-5,1.51-7.22c1.01-2.22,2.46-4.15,4.34-5.8,1.88-1.65,4.14-2.94,6.76-3.86,2.62-.92,5.55-1.39,8.78-1.39h26.24c4.07,0,7.48.53,10.22,1.59,2.74,1.06,5.12,2.75,7.14,5.07l-6.71,6.16c-.81-1.41-2.03-2.56-3.66-3.46-1.63-.89-3.81-1.34-6.54-1.34h-26.44c-2.46,0-4.57.45-6.33,1.34-1.77.89-3.13,2.11-4.09,3.66-.96,1.55-1.44,3.31-1.44,5.3s.48,3.75,1.44,5.3c.96,1.55,2.32,2.77,4.09,3.66,1.77.89,3.88,1.34,6.33,1.34h26.55c2.66,0,4.79-.45,6.38-1.34,1.6-.89,2.82-2.04,3.66-3.46l6.76,6.11c-2.02,2.36-4.4,4.06-7.14,5.12-2.74,1.06-6.15,1.59-10.22,1.59h-26.24c-3.23,0-6.16-.46-8.78-1.39-2.62-.92-4.88-2.21-6.76-3.86-1.88-1.65-3.33-3.59-4.34-5.83Z" style="fill:#79ff9c; stroke-width:0px;"/><path d="m635.27,198.94h-9.44v-28.21h-26.75v-7.82h62.83v7.82h-26.65v28.21Z" style="fill:#79ff9c; stroke-width:0px;"/><path d="m683.22,198.94h-9.49v-36.03h9.49v36.03Z" style="fill:#79ff9c; stroke-width:0px;"/><path d="m698.1,188.16c-1.01-2.24-1.51-4.67-1.51-7.29s.5-5,1.51-7.22c1.01-2.22,2.46-4.15,4.34-5.8,1.88-1.65,4.14-2.94,6.76-3.86,2.62-.92,5.55-1.39,8.78-1.39h26.24c4.07,0,7.48.53,10.22,1.59,2.74,1.06,5.12,2.75,7.14,5.07l-6.71,6.16c-.81-1.41-2.03-2.56-3.66-3.46-1.63-.89-3.81-1.34-6.54-1.34h-26.44c-2.46,0-4.57.45-6.33,1.34-1.77.89-3.13,2.11-4.09,3.66-.96,1.55-1.44,3.31-1.44,5.3s.48,3.75,1.44,5.3c.96,1.55,2.32,2.77,4.09,3.66s3.88,1.34,6.33,1.34h26.54c2.66,0,4.79-.45,6.38-1.34,1.6-.89,2.82-2.04,3.66-3.46l6.76,6.11c-2.02,2.36-4.4,4.06-7.14,5.12-2.74,1.06-6.15,1.59-10.22,1.59h-26.24c-3.23,0-6.16-.46-8.78-1.39-2.62-.92-4.88-2.21-6.76-3.86-1.88-1.65-3.33-3.59-4.34-5.83Z" style="fill:#79ff9c; stroke-width:0px;"/><path d="m778.09,187.18c1.68,2.76,4.51,4.14,8.48,4.14h32.8c1.58,0,2.77-.34,3.56-1.01.79-.67,1.19-1.53,1.19-2.57,0-2.42-1.58-3.63-4.74-3.63h-33.16c-2.59,0-4.85-.44-6.79-1.31-1.94-.87-3.43-2.12-4.49-3.73-1.06-1.62-1.59-3.5-1.59-5.65s.52-3.94,1.56-5.55c1.04-1.62,2.59-2.89,4.64-3.84,2.05-.94,4.56-1.41,7.52-1.41h32.45c2.89,0,5.39.41,7.49,1.24,2.1.83,4.03,2.18,5.78,4.06l-6.11,5.7c-.64-1.11-1.59-1.96-2.85-2.55-1.26-.59-2.97-.88-5.12-.88h-31.74c-1.45,0-2.53.29-3.26.88-.72.59-1.08,1.37-1.08,2.35,0,2.12,1.53,3.18,4.59,3.18h33.26c2.62,0,4.91.47,6.86,1.41,1.95.94,3.46,2.25,4.54,3.94,1.08,1.68,1.61,3.67,1.61,5.96,0,2.15-.55,4.09-1.64,5.8-1.09,1.72-2.7,3.07-4.82,4.06-2.12.99-4.73,1.49-7.82,1.49h-32.6c-3.47,0-6.38-.47-8.76-1.41-2.37-.94-4.48-2.44-6.33-4.49l6.56-6.16Z" style="fill:#79ff9c; stroke-width:0px;"/><path d="m149.02,39.55c-5.15-2.48-11.23-3.73-18.25-3.73H42.22c-6.57,0-9.86-2.22-9.86-6.66,0-1.95.73-3.55,2.2-4.79,1.46-1.24,3.79-1.86,6.99-1.86h83.63c5.77,0,10.21.71,13.32,2.13,3.11,1.42,5.41,3.55,6.92,6.39l18.11-17.05c-4.71-4.97-9.85-8.54-15.45-10.72-5.59-2.17-12.21-3.26-19.84-3.26H41.95c-8.08,0-14.89,1.27-20.44,3.8-5.55,2.53-9.72,5.99-12.52,10.39-2.8,4.4-4.2,9.39-4.2,14.98s1.42,10.97,4.26,15.31c2.84,4.35,6.86,7.72,12.05,10.12,5.19,2.4,11.25,3.6,18.18,3.6h88.29c6.57,0,9.86,2.49,9.86,7.46,0,2.13-.82,3.91-2.46,5.33-1.64,1.42-4.15,2.13-7.52,2.13H40.08c-9.68,0-16.51-3.42-20.51-10.25L0,81.24c4.97,5.42,10.63,9.34,16.98,11.79,6.35,2.44,14.09,3.66,23.24,3.66h86.7c8.43,0,15.49-1.33,21.17-4,5.68-2.66,9.99-6.3,12.92-10.92,2.93-4.62,4.39-9.81,4.39-15.58,0-6.13-1.44-11.47-4.33-16.05-2.89-4.57-6.9-8.1-12.05-10.59Z" style="fill:#fff; stroke-width:0px;"/><path d="m801.28,58.6c5.37-2.84,9.5-6.57,12.38-11.19,2.88-4.62,4.33-9.72,4.33-15.31s-1.55-11.14-4.66-15.85c-3.11-4.71-7.55-8.46-13.32-11.25-5.77-2.8-12.65-4.19-20.64-4.19h-107.87v95.09h28.37v-32.49h43.55l45.15,32.49h39.42l-45.95-32.49c7.46-.35,13.87-1.95,19.24-4.79Zm-101.41-16.51v-19.98h75.51c4.08,0,7.19.91,9.32,2.73,2.13,1.82,3.2,4.24,3.2,7.26s-1.07,5.44-3.2,7.26c-2.13,1.82-5.24,2.73-9.32,2.73h-75.51Z" style="fill:#fff; stroke-width:0px;"/><polygon points="992.44 .8 953.69 73.25 941.71 73.25 902.69 .8 845.56 .8 845.56 95.88 873.92 95.88 873.92 23.44 885.77 23.44 925.46 95.88 968.74 95.88 1008.16 23.44 1020.01 23.44 1020.01 95.88 1048.38 95.88 1048.38 .8 992.44 .8" style="fill:#fff; stroke-width:0px;"/><polygon points="542.46 .8 472.27 95.88 505.83 95.88 557.1 23.44 569.09 23.44 582.16 42.08 619.96 95.88 655.12 95.88 584.94 .8 542.46 .8" style="fill:#fff; stroke-width:0px;"/><polygon points="466.55 .8 415.28 73.25 403.29 73.25 390.22 54.6 352.42 .8 351.18 .8 317.62 .8 317.26 .8 317.45 1.05 266.35 73.25 254.36 73.25 241.29 54.6 203.49 .8 168.33 .8 238.52 95.88 281 95.88 334.22 23.78 387.45 95.88 429.93 95.88 500.11 .8 466.55 .8" style="fill:#fff; stroke-width:0px;"/></g></svg>