<svg width="133" height="22" viewbox="0 0 133 22" fill="none" xmlns="http://www.w3.org/2000/svg"><path d="M9.30957 0C14.8953 0 18.3086 2.13921 18.3086 6.41699L17.998 6.72266H13.0332L12.7227 6.41699C12.7227 5.19477 11.7921 4.27734 9.30957 4.27734C6.82702 4.27734 5.58594 4.88911 5.58594 6.11133C5.58608 7.33332 6.82707 7.63881 8.99902 7.94434L11.1719 8.25C17.688 9.16668 18.9296 11.9165 18.9297 15.2773C18.9297 18.6384 16.447 21.9999 9.62012 22C3.41393 22 0.000216012 19.5557 0 14.9727L0.310547 14.667H5.27539L5.58594 14.9727C5.58613 16.8057 6.82747 17.7227 9.62012 17.7227C12.1025 17.7226 13.6543 17.1107 13.6543 15.583C13.6541 14.0555 12.4123 13.7499 10.2402 13.4443L8.06836 13.1387C1.55181 12.222 0.310606 9.16681 0.310547 6.11133C0.310547 2.75022 3.10319 1.6036e-06 9.30957 0ZM68.877 0.305664C76.6349 0.305664 79.7383 4.27778 79.7383 11C79.7383 17.7222 76.6349 21.6943 68.877 21.6943V21.6963H61.1191L60.8086 21.3906V0.611328L61.1191 0.305664H68.877ZM98.2656 0.611328V4.58301L97.9551 4.88867H87.7148L87.4043 5.19434V8.25L87.7148 8.55566H97.335L97.6445 8.86133V12.833L97.335 13.1387H87.7148L87.4043 13.4443V16.8057L87.7148 17.1113H97.9551L98.2656 17.417V21.3887L97.9551 21.6943V21.6963H82.1289L81.8184 21.3906V0.611328L82.1289 0.305664H97.9551L98.2656 0.611328ZM31.3281 0.305664C35.9828 0.305664 39.0867 2.74984 39.0869 7.02734V10.3926C39.0868 14.6702 35.9828 17.1143 31.3281 17.1143L26.7354 17.1113L26.4248 17.417V21.3887L26.1143 21.6943H21.1494L20.8389 21.3887V0.614258L21.1494 0.305664H31.3281ZM51.8711 0.611328L58.6982 17.417V21.3887L58.3877 21.6943H54.6641L54.3535 21.3887L53.1123 18.0273L52.4912 17.7227H45.3545L44.7334 18.0273L43.4922 21.3887L43.1816 21.6943H39.458L39.1484 21.3887V17.417L45.9746 0.611328L46.2852 0.305664H51.5605L51.8711 0.611328ZM66.3945 5.19434V16.8057L66.7051 17.1113H69.1875C72.601 17.1113 74.1523 15.8889 74.1523 11C74.1523 6.11111 72.601 4.88867 69.1875 4.88867H66.7051L66.3945 5.19434ZM46.5957 12.833L46.9062 13.1387H50.9404L51.25 12.833L49.0781 7.02734H48.7676L46.5957 12.833ZM26.4248 5.19434V12.2227L26.7354 12.5273H31.3281V12.5312C32.5693 12.5312 33.5009 12.2256 33.501 10.3926V7.02734C33.5008 5.1944 32.5693 4.88867 31.3281 4.88867H26.7354L26.4248 5.19434ZM106.387 0.305664L107.18 1.08594L104.385 8.55566H103.966L101.171 1.08594L101.964 0.305664H106.387Z" fill="#18280E"></path></svg>