<svg id="Layer_1" data-name="Layer 1" xmlns="http://www.w3.org/2000/svg" width="195" height="72" viewBox="0 0 195 72"><title>basware-brand</title><path d="M194.15,17.72a5.72,5.72,0,0,0-2-4.45,7.06,7.06,0,0,0-4.88-1.81H174.67a7.11,7.11,0,0,0-4.89,1.81,5.77,5.77,0,0,0-2,4.45V27a5.76,5.76,0,0,0,2,4.44,7.12,7.12,0,0,0,4.88,1.82H192a1.81,1.81,0,0,0,1.76-2A1.83,1.83,0,0,0,192,29.12H175.48A3.65,3.65,0,0,1,173,28.5a2.26,2.26,0,0,1-.88-1.94V24.38h15.12A7.14,7.14,0,0,0,192,22.66a6.61,6.61,0,0,0,2.14-5m-3.94.19a2.19,2.19,0,0,1-.69,1.68,3.21,3.21,0,0,1-2.28.72H172.13V17.7a1.61,1.61,0,0,1,.8-1.65,4.74,4.74,0,0,1,2.56-.51h11.75a3.49,3.49,0,0,1,2.33.63,2.14,2.14,0,0,1,.65,1.72m-24.68-4.41a1.82,1.82,0,0,0-1.78-2h-4a4.31,4.31,0,0,0-2.72.89c-.27-.61-1.3-.89-2.08-.89h-.34c-1.17,0-1.77.54-1.77,1.63v18.5c0,1.1,1,1.65,2.19,1.65s2.17-.55,2.17-1.65v-13c0-.84-.07-1.54.59-2.13a2.62,2.62,0,0,1,2-.86h4a1.82,1.82,0,0,0,1.78-2.05M148.63,31.59V17.72a7,7,0,0,0-2.42-4.86c-1.36-1.19-3.4-1.4-5.31-1.4H125.51a1.82,1.82,0,0,0-1.77,2,1.83,1.83,0,0,0,1.77,2.06H140.9c.93,0,1.7-.11,2.38.45a3.59,3.59,0,0,1,1,2.54v1.74H128.34a7,7,0,0,0-4.9,1.83,6.64,6.64,0,0,0-2,4.86,5.71,5.71,0,0,0,2,4.43,7,7,0,0,0,4.87,1.83H140.9a7.39,7.39,0,0,0,3.55-.89c.26.59,1.21.89,2,.89,1.17,0,2.17-.54,2.17-1.64m-4.36-4.82a2.17,2.17,0,0,1-1,1.83,3.52,3.52,0,0,1-2.38.8H129.16a4.64,4.64,0,0,1-2.78-.8,2.23,2.23,0,0,1-.59-1.95,2.23,2.23,0,0,1,.77-2,3.92,3.92,0,0,1,2.6-.73h15.13v2.82h0ZM120.56,13.59a1.47,1.47,0,0,0,.17-.69c0-1.08-.94-1.63-2.14-1.63a2.44,2.44,0,0,0-2.1,1L110.73,27l-6.49-14.7a2.24,2.24,0,0,0-2-1c-1.2,0-2.2.55-2.2,1.63a1.36,1.36,0,0,0,.17.69l2,4.34-4,9-6.86-14.7a1.58,1.58,0,0,0-1.59-1c-1.57,0-2.63.29-2.55,1.65a2,2,0,0,0,.19.78l8.5,18.37c.42.91,1.17,1.12,2.3,1.15a2,2,0,0,0,1.74-1.15l4.42-9.55,4.43,9.55a2.29,2.29,0,0,0,2,1.15A2.56,2.56,0,0,0,113,32l7.59-18.42Zm-54,6.14a2.4,2.4,0,0,1-.89-2A1.76,1.76,0,0,1,66.45,16a3.29,3.29,0,0,1,2.1-.45H81.44c1.19,0,1.77-1,1.77-2.06a1.8,1.8,0,0,0-1.77-2h-13a7,7,0,0,0-4.87,1.83,5.71,5.71,0,0,0-2.05,4.44,6.51,6.51,0,0,0,2,4.81,7.07,7.07,0,0,0,4.88,1.85H81a3.19,3.19,0,0,1,2.3.69,2.19,2.19,0,0,1,.66,1.8,1.82,1.82,0,0,1-.85,1.7,2.92,2.92,0,0,1-2.11.55H63.32a1.83,1.83,0,0,0-1.78,2.06,1.83,1.83,0,0,0,1.78,2.05H81a7,7,0,0,0,4.77-1.75A5.62,5.62,0,0,0,88,27,6,6,0,0,0,86,22.32a7.42,7.42,0,0,0-5-2H69a3.39,3.39,0,0,1-2.37-.57M57.81,31.6V17.72a7,7,0,0,0-2.44-4.86c-1.35-1.19-3.39-1.4-5.29-1.4H33a1.81,1.81,0,0,0-1.77,2A1.82,1.82,0,0,0,33,15.56h17c.92,0,1.7-.11,2.36.45a3.52,3.52,0,0,1,1,2.54v1.74H37.51a7,7,0,0,0-4.89,1.83,6.65,6.65,0,0,0-2,4.86,5.71,5.71,0,0,0,2,4.43,7,7,0,0,0,4.88,1.83H50.08a7.32,7.32,0,0,0,3.54-.89,2.26,2.26,0,0,0,2,.89c1.19,0,2.18-.54,2.18-1.64m-4.37-4.82a2.13,2.13,0,0,1-1,1.83,3.47,3.47,0,0,1-2.36.8H38.32a3.86,3.86,0,0,1-2.72-.8,2.8,2.8,0,0,1-.6-1.95,2.27,2.27,0,0,1,.77-2A3.8,3.8,0,0,1,38.32,24H53.45v2.82h0ZM25.22,31.36a6,6,0,0,0,2-4.55V17.89a5.94,5.94,0,0,0-2-4.57,7,7,0,0,0-4.89-1.87H7.73a7,7,0,0,0-3.37.81V1.69C4.36.57,3.36,0,2.18,0S0,.57,0,1.69V31.55c0,1.12,1,1.69,2.18,1.69a2.24,2.24,0,0,0,2-.91,7,7,0,0,0,3.54.91H20.3a7,7,0,0,0,4.9-1.87M22.86,26c0,.86.11,1.8-.55,2.39a2.41,2.41,0,0,1-2,.63H7.73a3.57,3.57,0,0,1-2.37-.49,2.76,2.76,0,0,1-1-2.16V18.71a2.84,2.84,0,0,1,1-2.2,3.46,3.46,0,0,1,2.37-.89H20.3a2.44,2.44,0,0,1,2,.89,2.74,2.74,0,0,1,.59,2.2V26h0Z" style="fill:#201e43"/><path d="M10.59,47.58H8.27v8.78H8.16L2.09,47.58H0V60.46H2.34V51.68h.11l6.06,8.78h2.08V47.58Zm6.53,13.07c2.83,0,4.64-2,4.64-5s-1.81-5-4.64-5-4.63,2-4.63,5,1.81,5,4.63,5Zm0-1.82c-1.57,0-2.34-1.4-2.34-3.17s.77-3.18,2.34-3.18,2.31,1.41,2.31,3.18-.77,3.17-2.31,3.17Zm8,1.63h2.38l1.81-6.53h.14l1.8,6.53h2.38l2.73-9.66H34l-1.67,6.75h-.09L30.52,50.8H28.23l-1.74,6.79H26.4L24.7,50.8H22.38l2.73,9.66Zm16.86,0h2.28V50.8H42v9.66Zm1.15-11a1.27,1.27,0,0,0,1.31-1.23,1.32,1.32,0,0,0-2.63,0,1.27,1.27,0,0,0,1.32,1.23Zm8,1.38h-1.9V48.48H47V50.8H45.58v1.75H47v5.37c0,1.82,1.31,2.72,3,2.66a4.83,4.83,0,0,0,1.34-.22l-.38-1.78a3,3,0,0,1-.67.08c-.57,0-1-.19-1-1.12v-5h1.9V50.79h0Zm8.71,9.85a3,3,0,0,0,2.83-1.52h.08v1.32h2.19V54c0-2.55-2.08-3.32-3.93-3.32-2,0-3.59.91-4.1,2.67l2.13.3a1.92,1.92,0,0,1,2-1.22c1.11,0,1.63.54,1.63,1.48v0c0,.65-.69.69-2.39.87-1.87.19-3.67.76-3.67,2.93,0,1.9,1.39,2.91,3.23,2.91h0ZM60.43,59c-1,0-1.63-.43-1.63-1.27s.77-1.24,1.78-1.38a7,7,0,0,0,2.09-.47V57a2.05,2.05,0,0,1-2.24,2Zm8.89-11.41H67V60.45h2.28V47.57Zm4.44,0H71.48V60.45h2.28V47.57Zm6.36,3.23V61c0,.81-.34,1.25-1.22,1.25a1.94,1.94,0,0,1-.33,0v1.86H79c2.13,0,3.35-1,3.35-3.07V50.8H80.12Zm1.14-1.38a1.27,1.27,0,0,0,1.31-1.23,1.32,1.32,0,0,0-2.63,0,1.27,1.27,0,0,0,1.32,1.23Zm9.42,7a2,2,0,0,1-2.06,2.2,1.8,1.8,0,0,1-1.82-2v-5.8H84.52v6.15c0,2.33,1.32,3.64,3.22,3.64a3,3,0,0,0,2.91-1.85h.1v1.72H93V50.78H90.68v5.6h0Zm12-3c-.32-1.64-1.62-2.69-3.89-2.69s-3.92,1.15-3.91,2.93c0,1.41.87,2.34,2.72,2.73l1.65.34c.89.2,1.3.56,1.3,1.1s-.72,1.16-1.8,1.16a1.71,1.71,0,0,1-1.92-1.32l-2.22.21c.29,1.78,1.77,2.83,4.15,2.83s4.12-1.26,4.12-3.09c0-1.38-.89-2.22-2.72-2.61l-1.64-.36c-1-.22-1.37-.55-1.37-1.12s.72-1.1,1.67-1.1a1.68,1.68,0,0,1,1.78,1.2l2.08-.22h0Zm6.64-2.56h-1.91V48.47h-2.28v2.32h-1.37v1.76h1.37v5.37c0,1.81,1.31,2.71,3,2.66a4.67,4.67,0,0,0,1.34-.23l-.38-1.78a2.82,2.82,0,0,1-.67.09c-.57,0-1-.2-1-1.12v-5h1.91V50.78h0Zm8.2,4a2,2,0,0,1,2.09-2.2c1.23,0,1.9.76,1.9,2.07v5.8h2.28V54.3c0-2.33-1.32-3.63-3.33-3.63a2.83,2.83,0,0,0-2.87,1.77h-.11V47.57h-2.23V60.45h2.28V54.79h0Zm11.09,5.85a3,3,0,0,0,2.84-1.52h.07v1.33h2.19V54c0-2.56-2.08-3.32-3.93-3.32-2,0-3.59.9-4.09,2.66l2.12.3a1.93,1.93,0,0,1,2-1.22c1.11,0,1.63.54,1.63,1.49v0c0,.66-.68.69-2.38.87-1.88.2-3.68.76-3.68,2.94,0,1.89,1.4,2.91,3.24,2.91h0Zm.59-1.67c-.95,0-1.62-.43-1.62-1.27s.76-1.23,1.78-1.38a6.88,6.88,0,0,0,2.09-.47V57a2.06,2.06,0,0,1-2.25,2Zm6.61,5.1h2.28V58.93h.1a2.91,2.91,0,0,0,2.77,1.69c2.28,0,4-1.8,4-5s-1.76-5-4-5a2.85,2.85,0,0,0-2.76,1.73H138v-1.6h-2.25V64.07ZM138,55.62c0-1.88.8-3.1,2.27-3.1s2.29,1.29,2.29,3.1-.79,3.13-2.29,3.13S138,57.49,138,55.62Zm8.62,8.45h2.27V58.93h.1a2.92,2.92,0,0,0,2.77,1.69c2.28,0,4-1.8,4-5s-1.76-5-4-5A2.85,2.85,0,0,0,149,52.39h-.13v-1.6h-2.24V64.07Zm2.23-8.45c0-1.88.81-3.1,2.27-3.1s2.3,1.29,2.3,3.1-.8,3.13-2.3,3.13-2.27-1.26-2.27-3.13Zm12.87,5c2.25,0,3.8-1.1,4.2-2.78l-2.13-.24a2,2,0,0,1-2,1.24,2.37,2.37,0,0,1-2.47-2.62H166v-.7c0-3.39-2-4.88-4.42-4.88-2.77,0-4.57,2-4.57,5s1.78,5,4.69,5h0ZM159.3,54.7a2.32,2.32,0,0,1,2.34-2.27,2.12,2.12,0,0,1,2.2,2.27Zm10.72.08a2,2,0,0,1,2-2.2A1.81,1.81,0,0,1,174,54.65v5.8h2.28V54.3c0-2.32-1.31-3.64-3.31-3.64A2.89,2.89,0,0,0,170,52.43h-.11V50.79h-2.18v9.66H170V54.79h0Zm15.82-1.44c-.32-1.64-1.63-2.68-3.9-2.68S178,51.8,178,53.59c0,1.4.86,2.33,2.72,2.72l1.65.35c.88.19,1.3.55,1.3,1.1s-.72,1.15-1.8,1.15A1.71,1.71,0,0,1,180,57.6l-2.22.21c.28,1.77,1.77,2.82,4.15,2.82S186,59.38,186,57.54c0-1.37-.89-2.22-2.72-2.61l-1.65-.35c-1-.22-1.37-.56-1.36-1.13s.72-1.1,1.67-1.1a1.68,1.68,0,0,1,1.78,1.21l2.08-.23h0Zm6-1.5h.48l1-2.34v2.34h.87V48h-1l-1,2.65-1-2.65H190v3.86h.88V49.51l1,2.33Zm-4.57,0h.87V48.71h1.18V48H186.1v.74h1.18v3.13h0Z" style="fill:#201e43"/></svg>