<svg width="175" height="49" viewBox="0 0 1624 455" fill="none" xmlns="http://www.w3.org/2000/svg">
<path d="M360.315 100.251L360.315 220.312C360.315 236.89 346.872 250.328 330.289 250.328L210.184 250.328L180.158 250.328C135.905 250.328 113.292 202.072 142.637 172.741L140.154 170.259L60.0525 250.328L30.0263 250.328C13.4428 250.328 2.07912e-06 236.89 3.00143e-06 220.312L9.68119e-06 100.251C1.06035e-05 83.6736 13.4428 70.2358 30.0263 70.2358L120.105 70.2358C164.304 70.2358 186.946 118.485 157.599 147.813L160.097 150.311L240.21 70.2358L330.289 70.2358C346.872 70.2358 360.315 83.6736 360.315 100.251ZM604.594 104.453L604.594 70.2358L457.225 70.2358L457.225 107.695L549.904 106.975L450.379 216.11L450.379 250.328L609.638 250.328L609.638 213.229L504.636 213.589L604.594 104.453ZM934.654 65.9136C905.829 65.9136 885.651 78.8802 877.364 100.131L872.68 100.131C867.636 77.0793 848.179 65.9136 822.957 65.9136C799.176 65.9136 775.755 75.2784 766.747 97.6098L766.747 70.2358L718.105 70.2358L718.105 250.328L767.468 250.328L767.468 141.192C767.468 114.899 782.241 104.453 798.095 104.453L800.257 104.453C815.75 104.453 830.523 111.657 830.523 136.87L830.523 250.328L879.883 250.328L879.523 140.832C879.523 114.899 894.656 104.453 910.51 104.453L912.672 104.453C928.166 104.453 942.938 112.017 942.938 136.51L942.938 250.328L992.302 250.328L992.302 126.785C992.305 79.2404 961.678 65.9136 934.654 65.9136ZM1205.98 159.922C1205.98 217.911 1173.19 254.65 1129.23 254.65C1097.53 254.65 1078.07 239.162 1071.22 222.594C1071.22 232.598 1071.22 320.564 1071.22 320.564L1021.86 320.564L1021.86 70.2358L1071.22 70.2358L1071.22 99.4107C1078.43 82.1219 1098.97 65.9136 1129.23 65.9136C1172.83 65.9136 1205.98 101.932 1205.98 159.922ZM1154.82 159.922C1154.82 126.064 1141.48 102.652 1113.02 102.652L1111.22 102.652C1082.39 102.652 1069.06 126.064 1069.06 159.922C1069.06 193.779 1082.39 217.911 1111.22 217.911L1113.02 217.911C1141.12 217.911 1154.82 193.779 1154.82 159.922ZM1229.53 250.328L1278.89 250.328L1278.89 1.01175e-05L1229.53 7.37115e-06L1229.53 250.328ZM1432.51 189.817L1481.15 189.817C1472.5 229.437 1440.07 255.01 1392.87 254.65C1336.3 254.29 1302.43 216.47 1302.43 160.642C1302.43 101.932 1338.83 65.9136 1391.79 65.9136C1445.12 65.9136 1480.07 101.212 1480.07 159.922L1480.07 170.007L1351.44 170.007L1351.44 171.808C1352.16 198.821 1368.73 218.632 1393.23 218.632L1394.67 218.632C1415.94 218.632 1428.18 205.305 1432.51 189.817ZM1352.16 140.111L1431.07 140.111C1429.26 117.78 1415.57 99.4107 1392.51 99.4107L1390.35 99.4107C1366.93 99.4107 1353.96 118.5 1352.16 140.111ZM1614.99 69.1553C1586.89 69.1553 1567.79 76.7192 1556.98 106.254L1556.98 70.2359L1508.7 70.2359L1508.7 250.328L1558.06 250.328L1558.06 160.642C1558.06 130.387 1580.04 118.5 1604.54 118.5C1612.11 118.5 1617.15 119.221 1624 120.662L1624 69.5155C1622.56 69.5155 1618.6 69.1553 1614.99 69.1553ZM636.758 174.215L636.758 250.319L686.112 250.319L686.112 124.879C658.854 124.879 636.758 146.967 636.758 174.215ZM636.758 119.563L686.112 119.563L686.112 70.2268L636.758 70.2268L636.758 119.563Z" fill="#252422"/>
<path d="M1401.08 454.273L1411.85 424.953L1412.01 433.61L1387.74 373.889H1398.97L1417.11 420.007H1413.81L1431.12 373.889H1442.05L1411.34 454.273H1401.08Z" fill="#252422"/>
<path d="M1374.59 429.538V402.177C1374.59 400.013 1374.4 397.797 1374.03 395.53C1373.68 393.228 1372.99 391.098 1371.96 389.14C1370.97 387.182 1369.54 385.602 1367.69 384.4C1365.87 383.197 1363.48 382.596 1360.52 382.596C1358.6 382.596 1356.78 382.922 1355.06 383.575C1353.35 384.193 1351.83 385.207 1350.53 386.615C1349.26 388.024 1348.24 389.879 1347.49 392.18C1346.77 394.482 1346.41 397.282 1346.41 400.579L1339.71 398.054C1339.71 393.005 1340.65 388.556 1342.54 384.709C1344.43 380.827 1347.14 377.804 1350.68 375.64C1354.22 373.476 1358.5 372.394 1363.51 372.394C1367.36 372.394 1370.59 373.012 1373.2 374.249C1375.81 375.485 1377.92 377.117 1379.54 379.144C1381.19 381.136 1382.44 383.317 1383.3 385.688C1384.16 388.058 1384.74 390.377 1385.05 392.644C1385.36 394.911 1385.52 396.904 1385.52 398.621V429.538H1374.59ZM1335.48 429.538V373.888H1345.12V389.965H1346.41V429.538H1335.48Z" fill="#252422"/>
<path d="M1298.57 431.088C1294.45 431.088 1291 430.332 1288.22 428.821C1285.44 427.275 1283.32 425.248 1281.88 422.74C1280.47 420.198 1279.77 417.416 1279.77 414.393C1279.77 411.576 1280.27 409.103 1281.26 406.973C1282.26 404.843 1283.73 403.039 1285.69 401.562C1287.65 400.051 1290.06 398.831 1292.91 397.904C1295.38 397.182 1298.18 396.547 1301.31 395.997C1304.43 395.448 1307.71 394.932 1311.15 394.451C1314.62 393.971 1318.05 393.49 1321.45 393.009L1317.54 395.173C1317.61 390.81 1316.68 387.581 1314.75 385.486C1312.87 383.356 1309.6 382.291 1304.96 382.291C1302.04 382.291 1299.36 382.978 1296.93 384.352C1294.49 385.692 1292.79 387.925 1291.82 391.051L1281.78 387.959C1283.15 383.184 1285.76 379.388 1289.61 376.571C1293.49 373.754 1298.64 372.346 1305.07 372.346C1310.05 372.346 1314.38 373.205 1318.05 374.922C1321.76 376.606 1324.48 379.285 1326.19 382.961C1327.09 384.781 1327.64 386.705 1327.84 388.732C1328.05 390.759 1328.15 392.94 1328.15 395.276V429.542H1318.62V416.815L1320.47 418.464C1318.17 422.723 1315.24 425.901 1311.66 427.996C1308.12 430.057 1303.76 431.088 1298.57 431.088ZM1300.48 422.277C1303.54 422.277 1306.17 421.744 1308.37 420.679C1310.56 419.58 1312.33 418.189 1313.67 416.505C1315.01 414.822 1315.89 413.07 1316.3 411.25C1316.88 409.601 1317.21 407.746 1317.28 405.685C1317.38 403.623 1317.43 401.975 1317.43 400.738L1320.94 402.026C1317.54 402.541 1314.45 403.005 1311.66 403.417C1308.88 403.83 1306.36 404.242 1304.09 404.654C1301.86 405.032 1299.86 405.496 1298.11 406.045C1296.63 406.561 1295.31 407.179 1294.14 407.9C1293.01 408.622 1292.1 409.498 1291.41 410.528C1290.76 411.559 1290.43 412.813 1290.43 414.29C1290.43 415.733 1290.79 417.072 1291.52 418.309C1292.24 419.511 1293.34 420.473 1294.81 421.195C1296.29 421.916 1298.18 422.277 1300.48 422.277Z" fill="#252422"/>
<path d="M1248.53 431.088C1243.2 431.088 1238.74 429.8 1235.13 427.223C1231.52 424.613 1228.79 421.091 1226.94 416.66C1225.08 412.229 1224.15 407.23 1224.15 401.665C1224.15 396.1 1225.06 391.102 1226.88 386.671C1228.74 382.239 1231.45 378.753 1235.03 376.211C1238.63 373.634 1243.06 372.346 1248.32 372.346C1253.54 372.346 1258.04 373.634 1261.82 376.211C1265.63 378.753 1268.57 382.239 1270.63 386.671C1272.69 391.068 1273.72 396.066 1273.72 401.665C1273.72 407.23 1272.69 412.246 1270.63 416.712C1268.6 421.143 1265.7 424.647 1261.92 427.223C1258.18 429.8 1253.71 431.088 1248.53 431.088ZM1222.35 454.276V373.892H1231.93V413.929H1233.17V454.276H1222.35ZM1247.03 421.349C1250.47 421.349 1253.3 420.473 1255.53 418.721C1257.8 416.969 1259.48 414.616 1260.58 411.662C1261.72 408.673 1262.28 405.341 1262.28 401.665C1262.28 398.024 1261.72 394.726 1260.58 391.772C1259.48 388.818 1257.78 386.465 1255.48 384.713C1253.18 382.961 1250.24 382.085 1246.67 382.085C1243.3 382.085 1240.52 382.909 1238.32 384.558C1236.16 386.207 1234.54 388.509 1233.48 391.463C1232.45 394.417 1231.93 397.818 1231.93 401.665C1231.93 405.513 1232.45 408.914 1233.48 411.868C1234.51 414.822 1236.14 417.141 1238.37 418.824C1240.61 420.507 1243.49 421.349 1247.03 421.349Z" fill="#252422"/>
<path d="M1203.14 429.54L1203.19 394.861C1203.19 390.842 1202.16 387.716 1200.1 385.483C1198.04 383.216 1195.33 382.082 1191.96 382.082C1189.9 382.082 1188.01 382.563 1186.29 383.525C1184.61 384.453 1183.24 385.861 1182.17 387.75C1181.14 389.605 1180.63 391.941 1180.63 394.758L1175.42 392.13C1175.35 388.214 1176.18 384.779 1177.89 381.825C1179.65 378.87 1182.02 376.586 1185.01 374.971C1187.99 373.322 1191.34 372.498 1195.05 372.498C1201.06 372.498 1205.72 374.301 1209.02 377.908C1212.32 381.515 1213.96 386.308 1213.96 392.285L1213.91 429.54H1203.14ZM1136.41 429.54V373.889H1146V389.966H1147.24V429.54H1136.41ZM1169.8 429.54L1169.86 395.067C1169.86 391.014 1168.83 387.836 1166.76 385.535C1164.74 383.233 1162.01 382.082 1158.57 382.082C1155.17 382.082 1152.42 383.25 1150.33 385.586C1148.27 387.922 1147.24 390.979 1147.24 394.758L1142.08 391.46C1142.08 387.819 1142.96 384.573 1144.71 381.722C1146.46 378.87 1148.83 376.62 1151.82 374.971C1154.81 373.322 1158.19 372.498 1161.97 372.498C1165.92 372.498 1169.29 373.34 1172.07 375.023C1174.85 376.672 1176.97 378.991 1178.41 381.979C1179.89 384.968 1180.63 388.437 1180.63 392.388L1180.57 429.54H1169.8Z" fill="#252422"/>
<path d="M1101.99 431.088C1096.42 431.088 1091.6 429.834 1087.51 427.326C1083.42 424.819 1080.26 421.366 1078.03 416.969C1075.83 412.538 1074.73 407.437 1074.73 401.665C1074.73 395.86 1075.86 390.759 1078.13 386.362C1080.4 381.93 1083.58 378.495 1087.66 376.056C1091.75 373.583 1096.53 372.346 1101.99 372.346C1107.55 372.346 1112.38 373.6 1116.47 376.107C1120.56 378.615 1123.72 382.068 1125.95 386.465C1128.18 390.862 1129.3 395.929 1129.3 401.665C1129.3 407.471 1128.17 412.589 1125.9 417.021C1123.67 421.418 1120.51 424.87 1116.42 427.378C1112.33 429.851 1107.52 431.088 1101.99 431.088ZM1101.99 420.937C1107.31 420.937 1111.28 419.151 1113.89 415.578C1116.54 411.971 1117.86 407.333 1117.86 401.665C1117.86 395.86 1116.52 391.222 1113.84 387.753C1111.2 384.249 1107.25 382.497 1101.99 382.497C1098.38 382.497 1095.41 383.321 1093.07 384.97C1090.74 386.585 1089 388.835 1087.87 391.72C1086.74 394.572 1086.17 397.887 1086.17 401.665C1086.17 407.505 1087.51 412.177 1090.19 415.681C1092.87 419.185 1096.8 420.937 1101.99 420.937Z" fill="#252422"/>
<path d="M1046.21 431.088C1040.51 431.088 1035.66 429.817 1031.68 427.275C1027.7 424.733 1024.64 421.246 1022.51 416.815C1020.41 412.383 1019.35 407.351 1019.31 401.717C1019.35 395.98 1020.45 390.913 1022.61 386.516C1024.78 382.085 1027.87 378.615 1031.89 376.107C1035.91 373.6 1040.73 372.346 1046.37 372.346C1052.45 372.346 1057.63 373.857 1061.93 376.88C1066.26 379.903 1069.11 384.043 1070.48 389.299L1059.76 392.39C1058.7 389.264 1056.95 386.842 1054.51 385.125C1052.1 383.373 1049.34 382.497 1046.21 382.497C1042.67 382.497 1039.77 383.339 1037.5 385.022C1035.24 386.671 1033.55 388.938 1032.45 391.824C1031.35 394.709 1030.79 398.007 1030.75 401.717C1030.79 407.454 1032.09 412.091 1034.67 415.629C1037.28 419.168 1041.13 420.937 1046.21 420.937C1049.68 420.937 1052.48 420.147 1054.61 418.567C1056.77 416.952 1058.42 414.65 1059.56 411.662L1070.48 414.238C1068.66 419.666 1065.65 423.84 1061.46 426.76C1057.27 429.645 1052.19 431.088 1046.21 431.088Z" fill="#252422"/>
<path d="M960.666 429.539V373.889H970.25V387.389L968.91 385.637C969.598 383.851 970.491 382.219 971.59 380.742C972.689 379.231 973.96 377.994 975.403 377.032C976.811 376.002 978.374 375.212 980.092 374.662C981.844 374.078 983.63 373.735 985.451 373.631C987.272 373.494 989.024 373.58 990.707 373.889V383.989C988.886 383.508 986.859 383.37 984.627 383.576C982.428 383.782 980.401 384.487 978.546 385.689C976.794 386.823 975.403 388.197 974.372 389.811C973.376 391.426 972.655 393.229 972.208 395.222C971.762 397.18 971.538 399.258 971.538 401.457V429.539H960.666Z" fill="#252422"/>
<path d="M928.014 431.088C922.484 431.088 917.623 429.886 913.432 427.481C909.275 425.042 906.029 421.658 903.693 417.33C901.392 412.967 900.241 407.917 900.241 402.181C900.241 396.1 901.374 390.827 903.642 386.362C905.943 381.896 909.138 378.443 913.226 376.004C917.314 373.565 922.072 372.346 927.499 372.346C933.167 372.346 937.994 373.668 941.979 376.314C945.963 378.924 948.935 382.652 950.893 387.495C952.885 392.339 953.675 398.093 953.263 404.757H942.494V400.841C942.425 394.383 941.188 389.608 938.784 386.516C936.414 383.424 932.789 381.879 927.911 381.879C922.518 381.879 918.465 383.579 915.751 386.98C913.037 390.381 911.68 395.293 911.68 401.717C911.68 407.832 913.037 412.572 915.751 415.939C918.465 419.271 922.381 420.937 927.499 420.937C930.866 420.937 933.768 420.181 936.207 418.67C938.681 417.124 940.605 414.925 941.979 412.074L952.542 415.423C950.378 420.404 947.097 424.269 942.7 427.017C938.303 429.731 933.408 431.088 928.014 431.088ZM908.176 404.757V396.358H947.904V404.757H908.176Z" fill="#252422"/>
<path d="M859.276 454.273L870.045 424.953L870.2 433.61L845.93 373.889H857.163L875.301 420.007H872.003L889.317 373.889H900.24L869.53 454.273H859.276Z" fill="#252422"/>
<path d="M813.978 431.088C809.855 431.088 806.403 430.332 803.621 428.821C800.838 427.275 798.725 425.248 797.283 422.74C795.874 420.198 795.17 417.416 795.17 414.393C795.17 411.576 795.668 409.103 796.664 406.973C797.66 404.843 799.138 403.039 801.096 401.562C803.054 400.051 805.458 398.831 808.31 397.904C810.783 397.182 813.583 396.547 816.709 395.997C819.835 395.448 823.115 394.932 826.551 394.451C830.02 393.971 833.455 393.49 836.856 393.009L832.94 395.173C833.009 390.81 832.081 387.581 830.157 385.486C828.268 383.356 825.005 382.291 820.367 382.291C817.447 382.291 814.768 382.978 812.329 384.352C809.89 385.692 808.189 387.925 807.227 391.051L797.18 387.959C798.554 383.184 801.164 379.388 805.012 376.571C808.894 373.754 814.046 372.346 820.47 372.346C825.451 372.346 829.78 373.205 833.455 374.922C837.165 376.606 839.879 379.285 841.597 382.961C842.49 384.781 843.039 386.705 843.246 388.732C843.452 390.759 843.555 392.94 843.555 395.276V429.542H834.022V416.815L835.877 418.464C833.575 422.723 830.638 425.901 827.066 427.996C823.528 430.057 819.165 431.088 813.978 431.088ZM815.884 422.277C818.942 422.277 821.569 421.744 823.768 420.679C825.967 419.58 827.736 418.189 829.075 416.505C830.415 414.822 831.291 413.07 831.703 411.25C832.287 409.601 832.614 407.746 832.682 405.685C832.785 403.623 832.837 401.975 832.837 400.738L836.341 402.026C832.94 402.541 829.848 403.005 827.066 403.417C824.283 403.83 821.758 404.242 819.491 404.654C817.258 405.032 815.266 405.496 813.514 406.045C812.037 406.561 810.714 407.179 809.546 407.9C808.413 408.622 807.502 409.498 806.815 410.528C806.163 411.559 805.836 412.813 805.836 414.29C805.836 415.733 806.197 417.072 806.918 418.309C807.64 419.511 808.739 420.473 810.216 421.195C811.693 421.916 813.583 422.277 815.884 422.277Z" fill="#252422"/>
<path d="M747.203 429.54V355.339H757.972V419.389H791.569V429.54H747.203Z" fill="#252422"/>
<path d="M714.501 431.088C708.971 431.088 704.11 429.886 699.919 427.481C695.762 425.042 692.516 421.658 690.18 417.33C687.879 412.967 686.728 407.917 686.728 402.181C686.728 396.1 687.861 390.827 690.129 386.362C692.43 381.896 695.625 378.443 699.713 376.004C703.801 373.565 708.559 372.346 713.986 372.346C719.654 372.346 724.481 373.668 728.465 376.314C732.45 378.924 735.422 382.652 737.38 387.495C739.372 392.339 740.162 398.093 739.75 404.757H728.981V400.841C728.912 394.383 727.675 389.608 725.271 386.516C722.9 383.424 719.276 381.879 714.398 381.879C709.005 381.879 704.952 383.579 702.238 386.98C699.524 390.381 698.167 395.293 698.167 401.717C698.167 407.832 699.524 412.572 702.238 415.939C704.952 419.271 708.868 420.937 713.986 420.937C717.353 420.937 720.255 420.181 722.694 418.67C725.168 417.124 727.091 414.925 728.465 412.074L739.029 415.423C736.865 420.404 733.584 424.269 729.187 427.017C724.79 429.731 719.895 431.088 714.501 431.088ZM694.663 404.757V396.358H734.391V404.757H694.663Z" fill="#252422"/>
<path d="M651.717 431.034C647.869 431.034 644.64 430.415 642.03 429.179C639.419 427.942 637.289 426.328 635.64 424.335C634.026 422.308 632.789 420.11 631.93 417.74C631.071 415.369 630.487 413.051 630.178 410.783C629.869 408.516 629.714 406.524 629.714 404.806V373.889H640.638V401.251C640.638 403.415 640.81 405.648 641.154 407.949C641.532 410.216 642.219 412.329 643.215 414.287C644.245 416.245 645.671 417.825 647.492 419.028C649.347 420.23 651.751 420.831 654.706 420.831C656.629 420.831 658.45 420.522 660.168 419.904C661.885 419.251 663.379 418.22 664.65 416.812C665.956 415.404 666.969 413.549 667.691 411.247C668.446 408.945 668.824 406.146 668.824 402.848L675.523 405.373C675.523 410.423 674.578 414.888 672.689 418.77C670.799 422.618 668.086 425.623 664.547 427.788C661.009 429.952 656.732 431.034 651.717 431.034ZM670.112 429.539V413.463H668.824V373.889H679.697V429.539H670.112Z" fill="#252422"/>
<path d="M592.949 429.539V373.889H602.533V387.389L601.193 385.637C601.88 383.851 602.773 382.219 603.873 380.742C604.972 379.231 606.243 377.994 607.686 377.032C609.094 376.002 610.657 375.212 612.375 374.662C614.127 374.078 615.913 373.735 617.734 373.631C619.554 373.494 621.306 373.58 622.989 373.889V383.989C621.169 383.508 619.142 383.37 616.909 383.576C614.711 383.782 612.684 384.487 610.829 385.689C609.077 386.823 607.686 388.197 606.655 389.811C605.659 391.426 604.937 393.229 604.491 395.222C604.044 397.18 603.821 399.258 603.821 401.457V429.539H592.949Z" fill="#252422"/>
<path d="M557.5 429.54V365.49H532.818V355.339H592.951V365.49H568.269V429.54H557.5Z" fill="#252422"/>
<path d="M449.509 429.54L473.624 355.339H489.134L513.249 429.54H502.067L479.859 361.832H482.641L460.69 429.54H449.509ZM462.03 412.793V402.694H500.779V412.793H462.03Z" fill="#252422"/>
</svg>
